<?xml version="1.0" encoding="UTF-8"?>
<svg width="106px" height="99px" viewBox="0 0 106 99" version="1.1" xmlns="http://www.w3.org/2000/svg" xmlns:xlink="http://www.w3.org/1999/xlink">
    <title>001-credit-card</title>
    <defs>
        <linearGradient x1="22.1170829%" y1="46.7778789%" x2="69.5773957%" y2="52.2619254%" id="linearGradient-1">
            <stop stop-color="#D7F5F0" offset="0%"></stop>
            <stop stop-color="#D7F5F0" offset="9.15258648%"></stop>
            <stop stop-color="#D7F5F0" offset="9.39029205%"></stop>
            <stop stop-color="#D7F5F0" offset="20.8286121%"></stop>
            <stop stop-color="#FFF5F4" offset="20.9841512%"></stop>
            <stop stop-color="#FFF5F4" offset="25.22%"></stop>
            <stop stop-color="#D7F5F0" offset="25.3241172%"></stop>
            <stop stop-color="#D7F5F0" offset="26.9097742%"></stop>
            <stop stop-color="#D7F5F0" offset="39.74%"></stop>
            <stop stop-color="#D7F5F0" offset="42.464071%"></stop>
            <stop stop-color="#FFF5F4" offset="42.5%"></stop>
            <stop stop-color="#FFF5F4" offset="48.94%"></stop>
            <stop stop-color="#FFF5F4" offset="50%"></stop>
            <stop stop-color="#F9F2F4" offset="50%"></stop>
            <stop stop-color="#E8EBF4" offset="50.01%"></stop>
            <stop stop-color="#DDE5F4" offset="50.03%"></stop>
            <stop stop-color="#D6E2F4" offset="50.05%"></stop>
            <stop stop-color="#D7F5F0" offset="50.1%"></stop>
            <stop stop-color="#D7F5F0" offset="70.62%"></stop>
            <stop stop-color="#D7F5F0" offset="74%"></stop>
            <stop stop-color="#FFF5F4" offset="74.1968274%"></stop>
            <stop stop-color="#FFF5F4" offset="83.46%"></stop>
            <stop stop-color="#FFF5F4" offset="85%"></stop>
            <stop stop-color="#FFFFFF" offset="89.3429226%"></stop>
            <stop stop-color="#FFFFFF" offset="95.3861139%"></stop>
            <stop stop-color="#D7F5F0" offset="95.5005947%"></stop>
            <stop stop-color="#D7F5F0" offset="100%"></stop>
        </linearGradient>
    </defs>
    <g id="Anasayfa" stroke="none" stroke-width="1" fill="none" fill-rule="evenodd">
        <g id="OdemenizBasarili" transform="translate(-907.000000, -323.000000)" fill-rule="nonzero">
            <g id="Group-4" transform="translate(541.000000, 247.000000)">
                <g id="001-credit-card" transform="translate(366.000000, 76.000000)">
                    <g id="Group" transform="translate(1.763512, 1.767879)">
                        <path d="M66.283593,63.6461211 L97.5353131,63.6461211 C98.8926073,63.5976407 100.174956,63.0117317 101.100384,62.0170539 C102.025812,61.0223761 102.518339,59.7005589 102.469893,58.3422777 L102.469893,5.30384343 C102.518546,3.94556228 102.025812,2.62374505 101.100384,1.62906722 C100.174956,0.634389398 98.8926073,0.0482732625 97.5353131,0 L12.0044531,0 C10.6471589,0.0484804438 9.36480982,0.634389398 8.43938194,1.62906722 C7.51395406,2.62374505 7.02142768,3.94556228 7.0698729,5.30384343 L7.0698729,58.3422777 C7.02122065,59.7005589 7.51395406,61.0223761 8.43938194,62.0170539 C9.36480982,63.0117317 10.6471589,63.5978479 12.0044531,63.6461211 L43.2561732,63.6461211" id="Path" fill="#9BD8CE"></path>
                        <path d="M59.2170092,63.6461211 L90.4687293,63.6461211 C91.8260235,63.5976407 93.1083725,63.0117317 94.0338004,62.0170539 C94.9592283,61.0223761 95.4517547,59.7005589 95.4033095,58.3422777 L95.4033095,5.30384343 C95.4519617,3.94556228 94.9592283,2.62374505 94.0338004,1.62906722 C93.1083725,0.634389398 91.8260235,0.0482732625 90.4687293,0 L4.93786926,0 C3.58057504,0.0484804438 2.29822599,0.634389398 1.37279811,1.62906722 C0.447370233,2.62374505 -0.0451561471,3.94576946 0.00328907063,5.30384343 L0.00328907063,58.3422777 C-0.0453631779,59.7005589 0.447370233,61.0223761 1.37279811,62.0170539 C2.29822599,63.0117317 3.58057504,63.5978479 4.93786926,63.6461211 L36.1895894,63.6461211" id="Path" fill="#FFFFFF"></path>
                        <path d="M62.3239211,63.6461211 L92.4181317,63.6461211 C95.1917239,63.4901136 97.3166885,61.1183011 97.1699037,58.3422777 L97.1699037,5.30384343 C97.3166885,2.52782007 95.1917239,0.156007582 92.4181317,0 L10.0550507,0 C7.28145843,0.156007582 5.15649383,2.52782007 5.3032787,5.30384343 L5.3032787,58.3422777 C5.15649383,61.1183011 7.28145843,63.4901136 10.0550507,63.6461211 L62.3239211,63.6461211 Z" id="Path" fill="#D7F5F0"></path>
                        <rect id="Rectangle" fill="#9BD8CE" x="12.3700696" y="10.6076869" width="90.0998237" height="10.6076869"></rect>
                        <rect id="Rectangle" fill="url(#linearGradient-1)" x="5.3032787" y="10.6076869" width="91.8664179" height="10.6076869"></rect>
                        <g transform="translate(7.069873, 28.287303)" fill="#FFFFFF" id="Path">
                            <path d="M3.53339543,17.679409 L10.5999793,17.679409 C12.551452,17.679409 14.1333747,19.262482 14.1333747,21.2153737 L14.1333747,24.7513384 C14.1333747,26.7042301 12.551452,28.2873031 10.5999793,28.2873031 L3.53339543,28.2873031 C1.58192269,28.2873031 0,26.7042301 0,24.7513384 L0,21.2153737 C0.000207030845,19.262482 1.58212972,17.679409 3.53339543,17.679409 Z"></path>
                            <path d="M1.76680123,0 L45.9333125,0 C46.9090489,0 47.6999067,0.791640068 47.6999067,1.76787875 L47.6999067,5.30384343 C47.6999067,6.28028929 46.9090489,7.07172218 45.9333125,7.07172218 L1.76680123,7.07172218 C0.791064859,7.07172218 0.000207030845,6.28028929 0.000207030845,5.30384343 L0.000207030845,1.76787875 C0.000207030845,0.791432887 0.791064859,0 1.76680123,0 Z"></path>
                        </g>
                        <path d="M71.2647551,51.6671007 C71.9761131,52.0048064 72.4313739,52.7202037 72.4367567,53.5079073 L72.4367567,64.3128308 C72.310882,74.1779796 67.6431646,83.4331864 59.7873791,89.3944163 L52.8025725,94.9278168 C51.8833555,95.6498439 50.5900339,95.6498439 49.6708169,94.9278168 L42.6860103,89.3944163 C34.8302248,83.4333936 30.1625074,74.1781868 30.0366327,64.3128308 L30.0366327,53.5079073 C30.0418084,52.7199965 30.4972763,52.0048064 31.2086343,51.6671007 L49.3406027,42.865414 C50.5384832,42.2859276 51.9351133,42.2859276 53.1329937,42.865414 L71.2647551,51.6671007 Z" id="Path" fill="#FFFFFF"></path>
                        <ellipse id="Oval" fill="#D7F5F0" cx="51.2365912" cy="67.1820858" rx="12.3665735" ry="12.3755656"></ellipse>
                    </g>
                    <g id="Group">
                        <path d="M3.53360263,22.9832525 L3.53360263,59.9868835 C3.53774325,60.2326007 3.54581745,60.340335 3.56010258,60.5218259 C3.7139265,61.8575243 4.61471771,62.9889418 5.88133242,63.4372823 C6.18898025,63.5514392 6.51256946,63.6171157 6.84050632,63.6324472 C6.97611152,63.6438421 7.20322436,63.6492289 7.46677463,63.645914 L31.800145,63.645914 L31.800145,67.1818786 L7.46677463,67.1818786 C7.23883367,67.1839504 6.97445528,67.1837433 6.61919035,67.1615749 C5.96373069,67.1257325 5.31696633,66.9937579 4.69980738,66.7697949 C2.16140219,65.8700061 0.356921349,63.6017843 0.0494805445,60.9245865 C0.0163556093,60.6177508 0.00227751183,60.2323935 1.72532733e-07,59.9868835 L1.72532733e-07,22.9832525 L3.53360263,22.9832525 Z" id="Path" fill="#FFFFFF"></path>
                        <g fill="#5DC1B2">
                            <path d="M1.7668014,31.8230606 C2.74129559,31.82016 3.53049717,31.0303846 3.5333956,30.0551818 L3.5333956,22.9834596 L0.000207203378,22.9834596 L0.000207203378,30.0551818 C0.00310563521,31.0303846 0.792307216,31.82016 1.7668014,31.8230606 Z" id="Path"></path>
                            <path d="M31.800145,67.1820858 L31.800145,63.6461211 L7.46677463,63.6461211 C7.20301733,63.649436 6.97590449,63.6440493 6.84050632,63.6326543 C6.51277649,63.6175301 6.18918728,63.5516464 5.88133242,63.4374895 C4.61471771,62.989149 3.7139265,61.8577314 3.56010258,60.522033 C3.54581745,60.340335 3.53774325,60.2328078 3.53360263,59.9870907 L3.53360263,44.1988334 C3.53360263,43.2223875 2.74253778,42.4309546 1.76700843,42.4309546 C0.791479093,42.4309546 0.000207203378,43.2223875 0.000207203378,44.1986262 L0.000207203378,59.9868835 C0.00248454267,60.2323935 0.0165626401,60.6177508 0.0496875753,60.9245865 C0.35712838,63.6017843 2.16160922,65.8700061 4.70001442,66.7697949 C5.31717336,66.9935508 5.96393772,67.1255253 6.61939738,67.1615749 C6.97445528,67.1837433 7.2390407,67.1841576 7.46698166,67.1820858 L31.800145,67.1820858 L31.800145,67.1820858 Z" id="Path"></path>
                            <path d="M3.53360263,37.126904 C3.52677062,36.6588813 3.34375535,36.2107479 3.02120129,35.871592 L2.75640884,35.6592311 C2.65786216,35.5921043 2.55082721,35.5384443 2.4379954,35.4994942 C2.33779247,35.4487348 2.23034347,35.4130996 2.11958196,35.3942461 C2.0030236,35.3743567 1.88501602,35.3625473 1.7668014,35.3588181 C1.29911872,35.3652407 0.851103976,35.548389 0.512401514,35.871592 C-0.154651869,36.5753872 -0.154651869,37.6784208 0.512401514,38.3820088 C0.681131652,38.5417457 0.878846109,38.6677119 1.09477928,38.7532779 C1.30739996,38.8440233 1.53575498,38.8920894 1.7668014,38.8947827 C2.23448408,38.8877386 2.6822918,38.7045902 3.02120129,38.3820088 C3.34354832,38.0430601 3.52635655,37.5949267 3.53360263,37.126904 Z" id="Path"></path>
                            <path d="M95.4000206,58.3422777 L86.5666355,58.3422777 C85.5908991,58.3422777 84.8000413,57.5508448 84.8000413,56.574399 C84.8000413,55.5979531 85.5908991,54.8065202 86.5666355,54.8065202 L95.4000206,54.8065202 C96.3757569,54.8065202 97.1666148,55.5981603 97.1666148,56.574399 C97.1666148,57.5506376 96.3757569,58.3422777 95.4000206,58.3422777 Z" id="Path"></path>
                            <path d="M95.4000206,51.2705555 L83.0334471,51.2705555 C82.0577107,51.2705555 81.2668529,50.4791226 81.2668529,49.5026768 C81.2668529,48.5262309 82.0577107,47.734798 83.0334471,47.734798 L95.4000206,47.734798 C96.3757569,47.734798 97.1666148,48.5264381 97.1666148,49.5026768 C97.1666148,50.4789155 96.3757569,51.2705555 95.4000206,51.2705555 Z" id="Path"></path>
                            <path d="M98.933416,67.1820858 L74.200062,67.1820858 C73.2243257,67.1820858 72.4334678,66.3906529 72.4334678,65.4142071 C72.4334678,64.4377612 73.2243257,63.6463283 74.200062,63.6463283 L98.933416,63.6463283 C100.883854,63.6440493 102.464534,62.0624266 102.466811,60.1103636 L102.466811,7.07192936 C102.464534,5.12007354 100.884061,3.53824367 98.933416,3.53596468 L7.06679103,3.53596468 C5.11635344,3.53824367 3.53567294,5.11986636 3.5333956,7.07192936 L3.5333956,22.9834596 C3.5333956,23.9599055 2.74233074,24.7513384 1.7668014,24.7513384 C0.791272062,24.7513384 0.000207203378,23.9596983 0.000207203378,22.9832525 L0.000207203378,7.07172218 C0.00434782028,3.16780336 3.16570882,0.00414362768 7.06679103,0 L98.933209,0 C102.834291,0.00414362768 105.995652,3.16780336 105.999793,7.07172218 L105.999793,60.1101565 C105.995859,64.0140753 102.834498,67.1779422 98.933416,67.1820858 Z" id="Path"></path>
                            <path d="M104.233406,24.7513386 L1.7668014,24.7513386 C1.2982906,24.7515456 0.848826637,24.5652895 0.517370254,24.2335921 C0.186120902,23.9021019 0,23.4523111 0,22.9832525 L0,12.3755656 C0,11.9067141 0.185913871,11.4569233 0.517370254,11.125226 C0.848619606,10.7937357 1.29808357,10.6074795 1.7668014,10.6074795 L104.233199,10.6074795 C104.701709,10.6072725 105.151173,10.7935286 105.48263,11.125226 C105.813879,11.4567162 106,11.906507 106,12.3755656 L106,22.9832525 C106,23.4521039 105.814086,23.9018947 105.48263,24.2335921 C105.15138,24.5652895 104.701916,24.7513386 104.233406,24.7513386 Z M3.53360263,21.2153737 L102.466811,21.2153737 L102.466811,14.1436515 L3.53360263,14.1436515 L3.53360263,21.2153737 Z" id="Shape"></path>
                            <path d="M19.4335715,60.1101565 L12.3667807,60.1101565 C9.44102076,60.1070487 7.0698965,57.7342003 7.06679103,54.806313 L7.06679103,51.2703484 C7.0698965,48.342461 9.44102076,45.9696126 12.3667807,45.9665049 L19.4333645,45.9665049 C22.3591244,45.9696126 24.7302487,48.342461 24.7333541,51.2703484 L24.7333541,54.806313 C24.7302487,57.7344075 22.3593314,60.1070487 19.4335715,60.1101565 Z M12.3667807,49.5024696 C11.3914584,49.5035055 10.6010146,50.2943169 10.6001865,51.2703484 L10.6001865,54.806313 C10.6012216,55.7823445 11.3914584,56.5733631 12.3667807,56.5741918 L19.4333645,56.5741918 C20.4086868,56.5731559 21.1991306,55.7823445 21.1999587,54.806313 L21.1999587,51.2703484 C21.1989235,50.2943169 20.4086868,49.5032983 19.4333645,49.5024696 L12.3667807,49.5024696 Z" id="Shape"></path>
                            <path d="M54.7666977,38.8947827 L10.6001865,38.8947827 C8.64974888,38.8925038 7.06906837,37.3108811 7.06679103,35.3588181 L7.06679103,31.8228534 C7.06906837,29.8709976 8.64954184,28.2891677 10.6001865,28.2868887 L54.7666977,28.2868887 C56.7171353,28.2891677 58.2978158,29.8707904 58.3000931,31.8228534 L58.3000931,35.3588181 C58.2978158,37.3108811 56.7173423,38.8927109 54.7666977,38.8947827 Z M10.6001865,31.8230606 L10.6001865,35.3590252 L54.7693891,35.3590252 L54.7669047,31.8230606 L10.6001865,31.8230606 Z" id="Shape"></path>
                            <path d="M53.0009316,98.9999835 C52.0345117,99.0026602 51.0954197,98.6784213 50.3362376,98.0796671 L43.3532943,92.5479242 C35.0768222,86.2494029 30.162738,76.4851515 30.0335506,66.0805024 L30.0335506,55.2759932 C30.0335506,53.8093562 30.8772015,52.473865 32.2013708,51.8454839 L50.3329251,43.0437971 C52.0189843,42.2322677 53.9822578,42.2322677 55.668317,43.0437971 L73.7990433,51.8454839 C75.1232126,52.473865 75.9668634,53.8093562 75.9668634,55.2759932 L75.9668634,66.0805024 C75.837262,76.4861874 70.9223497,86.2512676 62.6444284,92.5495816 L55.6623132,98.0813246 C54.9039592,98.6790429 53.9661094,99.0026602 53.0009316,98.9999835 Z M53.0001035,45.9683637 C52.6108855,45.9675408 52.2266363,46.0547642 51.8761331,46.2238242 L33.7437506,55.0255109 C33.6416844,55.0679831 33.5729501,55.1653584 33.5669462,55.275786 L33.5669462,66.0805024 C33.7004811,75.4024216 38.1187264,84.1427826 45.5436806,89.7733511 L52.5309716,95.3086161 C52.8067367,95.5213914 53.191193,95.5222201 53.4677862,95.3104808 L60.4542491,89.7752157 C67.8806525,84.1446473 72.2999329,75.4034575 72.4336749,66.0805024 L72.4336749,55.2759932 C72.427671,55.1655656 72.3589367,55.0681903 72.2568705,55.0257181 L54.1253162,46.2240314 C53.7741918,46.0547642 53.3895285,45.9675408 53.0001035,45.9683637 Z" id="Shape"></path>
                            <path d="M53.0001035,83.0936161 C45.1944196,83.0936161 38.8667288,76.7613243 38.8667288,68.9499646 C38.8667288,61.1386048 45.1944196,54.806313 53.0001035,54.806313 C60.8057875,54.806313 67.1334782,61.1386048 67.1334782,68.9499646 C67.1245759,76.757595 60.8020609,83.0847073 53.0001035,83.0936161 Z M53.0001035,58.3422777 C47.1458923,58.3422777 42.4001243,63.0914966 42.4001243,68.9499646 C42.4001243,74.8084326 47.1458923,79.5576514 53.0001035,79.5576514 C58.8543147,79.5576514 63.6000828,74.8084326 63.6000828,68.9499646 C63.5936648,63.0941899 58.8516233,58.3487003 53.0001035,58.3422777 Z" id="Shape"></path>
                            <path d="M51.2335093,74.2538082 C50.7649985,74.2540152 50.3155345,74.0675519 49.9844922,73.7358545 L48.217898,71.9679758 C47.5386298,71.2757828 47.5438056,70.1652906 48.2290777,69.479313 C48.9145568,68.7933354 50.0242421,68.7883631 50.7159322,69.4681252 L51.0420058,69.7944359 L55.1205134,64.3542671 C55.4989658,63.8491589 56.117988,63.5843811 56.7444634,63.6597951 C57.3709387,63.7352091 57.9094259,64.1392128 58.1574489,64.7199423 C58.4054718,65.3004645 58.3249368,65.9694532 57.9464845,66.4745614 L52.6464948,73.5462836 C52.3396751,73.9565027 51.8695081,74.2129933 51.3585559,74.2490428 C51.3171498,74.2521505 51.2749155,74.2538082 51.2335093,74.2538082 Z" id="Path"></path>
                        </g>
                    </g>
                </g>
            </g>
        </g>
    </g>
</svg>