<?xml version="1.0" encoding="UTF-8"?>
<svg width="106px" height="95px" viewBox="0 0 106 95" version="1.1" xmlns="http://www.w3.org/2000/svg" xmlns:xlink="http://www.w3.org/1999/xlink">
    <title>002-credit-card-1</title>
    <defs>
        <linearGradient x1="22.1190195%" y1="46.8093634%" x2="69.5793323%" y2="52.2398234%" id="linearGradient-1">
            <stop stop-color="#F8E6E9" offset="0%"></stop>
            <stop stop-color="#F8E6E9" offset="17.17%"></stop>
            <stop stop-color="#F8E6E9" offset="20%"></stop>
            <stop stop-color="#FFFFFF" offset="20.1902402%"></stop>
            <stop stop-color="#FFF5F4" offset="26.8281972%"></stop>
            <stop stop-color="#F8E6E9" offset="26.8320983%"></stop>
            <stop stop-color="#F8E6E9" offset="27.8573182%"></stop>
            <stop stop-color="#F8E6E9" offset="39.74%"></stop>
            <stop stop-color="#F8E6E9" offset="42.435765%"></stop>
            <stop stop-color="#FFF5F4" offset="42.4425633%"></stop>
            <stop stop-color="#FFF5F4" offset="48.94%"></stop>
            <stop stop-color="#FFF5F4" offset="50%"></stop>
            <stop stop-color="#F9F2F4" offset="50%"></stop>
            <stop stop-color="#F8E6E9" offset="50.0273636%"></stop>
            <stop stop-color="#F8E6E9" offset="70.62%"></stop>
            <stop stop-color="#F8E6E9" offset="74%"></stop>
            <stop stop-color="#FFF5F4" offset="74.1059841%"></stop>
            <stop stop-color="#FFFFFF" offset="84.9108052%"></stop>
            <stop stop-color="#F8E6E9" offset="85%"></stop>
            <stop stop-color="#F8E6E9" offset="100%"></stop>
        </linearGradient>
    </defs>
    <g id="Anasayfa" stroke="none" stroke-width="1" fill="none" fill-rule="evenodd">
        <g id="OdemeBasarisiz" transform="translate(-907.000000, -336.000000)" fill-rule="nonzero">
            <g id="Group-4" transform="translate(541.000000, 258.000000)">
                <g id="002-credit-card-1" transform="translate(366.000000, 78.000000)">
                    <g id="Group" transform="translate(1.764195, 1.759191)">
                        <path d="M66.2831596,63.3333333 L97.5346747,63.3333333 C98.89196,63.2850911 100.174301,62.7020616 101.099722,61.7122721 C102.025144,60.7224826 102.517667,59.4071615 102.469223,58.0555556 L102.469223,5.27777778 C102.517874,3.92617187 102.025144,2.61085069 101.099722,1.6210612 C100.174301,0.631271701 98.89196,0.0480360243 97.5346747,0 L12.0043756,0 C10.6470903,0.0482421875 9.36474963,0.631271701 8.43932783,1.6210612 C7.51390602,2.61085069 7.02138287,3.92617187 7.06982777,5.27777778 L7.06982777,58.0555556 C7.02117584,59.4071615 7.51390602,60.7224826 8.43932783,61.7122721 C9.36474963,62.7020616 10.6470903,63.2852973 12.0043756,63.3333333 L43.2558908,63.3333333" id="Path" fill="#E6B9C1"></path>
                        <path d="M59.2166221,63.3333333 L90.4681372,63.3333333 C91.8254225,63.2850911 93.1077632,62.7020616 94.033185,61.7122721 C94.9586068,60.7224826 95.45113,59.4071615 95.4026851,58.0555556 L95.4026851,5.27777778 C95.451337,3.92617187 94.9586068,2.61085069 94.033185,1.6210612 C93.1077632,0.631271701 91.8254225,0.0480360243 90.4681372,0 L4.93763108,0 C3.58034576,0.0482421875 2.29800511,0.631271701 1.37258331,1.6210612 C0.447161498,2.61085069 -0.0453616527,3.92617188 0.00329027684,5.27777778 L0.00329027684,58.0555556 C-0.0453616527,59.4071615 0.447368527,60.7224826 1.37279034,61.7122721 C2.29821214,62.7020616 3.58055279,63.2852973 4.93783811,63.3333333 L36.1893533,63.3333333" id="Path" fill="#FFFFFF"></path>
                        <path d="M62.3233065,63.3333333 L92.4173199,63.3333333 C95.1908939,63.1780924 97.3158446,60.8179362 97.1690606,58.0555556 L97.1690606,5.27777778 C97.3158446,2.51539714 95.1908939,0.155240885 92.4173199,0 L10.0547789,0 C7.28120487,0.155240885 5.15625422,2.51539714 5.30303812,5.27777778 L5.30303812,58.0555556 C5.15625422,60.8179362 7.28120487,63.1780924 10.0547789,63.3333333 L62.3233065,63.3333333 Z" id="Path" fill="#F8E6E9"></path>
                        <rect id="Rectangle" fill="#E6B9C1" x="12.3697826" y="10.5555556" width="90.0992329" height="10.5555556"></rect>
                        <rect id="Rectangle" fill="url(#linearGradient-1)" x="5.30324515" y="10.5555556" width="91.8658155" height="10.5555556"></rect>
                        <g transform="translate(7.069828, 28.148079)" fill="#FFFFFF" id="Path">
                            <path d="M3.53337226,17.59273 L10.5999098,17.59273 C12.5513697,17.59273 14.133282,19.168023 14.133282,21.1113173 L14.133282,24.6299045 C14.133282,26.5731988 12.5513697,28.1484918 10.5999098,28.1484918 L3.53337226,28.1484918 C1.58191231,28.1484918 0,26.5731988 0,24.6299045 L0,21.1113173 C0,19.168023 1.58191231,17.59273 3.53337226,17.59273 Z"></path>
                            <path d="M1.76658262,0 L45.9328042,0 C46.9085342,0 47.6993868,0.787749566 47.6993868,1.75919054 L47.6993868,5.27777778 C47.6993868,6.24942491 46.9083272,7.03696832 45.9328042,7.03696832 L1.76658262,7.03696832 C0.790852642,7.03696832 0,6.24921875 0,5.27777778 L0,1.75919054 C0,0.787749566 0.791059671,0 1.76658262,0 Z"></path>
                        </g>
                        <path d="M73.3722633,91.4814128 L29.1000425,91.4814128 C25.5844748,91.4814128 23.5174924,86.9777778 25.5314753,83.7055556 L47.6676891,47.8519206 C47.9111558,47.4453668 48.2217,47.0825195 48.586279,46.7788411 C49.5007282,45.9564562 50.7439403,45.5983507 51.9579612,45.8080187 C53.1719821,46.0174805 54.2218287,46.7712131 54.8050307,47.8521267 L76.9412446,83.7057617 C78.9548134,86.9777778 76.887831,91.4814128 73.3722633,91.4814128 Z" id="Path" fill="#E6B9C1"></path>
                        <path d="M68.0723084,91.4814128 L29.1000425,91.4814128 C25.5844748,91.4814128 23.5174924,86.9777778 25.5314753,83.7055556 L47.6676891,47.8519206 C47.9111558,47.4453668 48.2217,47.0825195 48.586279,46.7788411 C48.9508579,47.0827257 49.2614021,47.4453668 49.5048688,47.8519206 L71.6410827,83.7055556 C73.6548585,86.9777778 71.5878761,91.4814128 68.0723084,91.4814128 Z" id="Path" fill="#FFFFFF"></path>
                    </g>
                    <g id="Group">
                        <path d="M3.53406755,22.8703016 L3.53406755,59.6881619 C3.47920474,61.3096354 4.54292225,62.7587565 6.11117061,63.1987088 C6.52046791,63.3104492 6.94508539,63.3560113 7.36887475,63.3333333 L40.6337517,63.3333333 L40.6337517,66.8519206 L7.36887475,66.8519206 C6.62418968,66.8723307 5.88053976,66.7834744 5.16194041,66.5880317 C2.07243937,65.7153429 -0.0440230757,62.8859592 0.000695293566,59.6883681 L0.000695293566,22.8703016 L3.53406755,22.8703016 Z" id="Path" fill="#FFFFFF"></path>
                        <g transform="translate(0.000201, 0.000000)" fill="#E00228">
                            <path d="M1.7672843,31.6666667 C2.7417721,31.6637804 3.5309685,30.8778863 3.53386692,29.9074761 L3.53386692,22.8705078 L0.00049465561,22.8705078 L0.00049465561,29.9074761 C0.00339306843,30.8776801 0.792796504,31.6637804 1.7672843,31.6666667 Z" id="Path"></path>
                            <path d="M40.633551,66.8517144 L40.633551,63.3331272 L7.36867411,63.3331272 C6.94488475,63.3558051 6.52026727,63.3104492 6.11096997,63.1985026 C4.54272161,62.7587565 3.4790041,61.3094293 3.53386692,59.6879557 L3.53386692,43.9812066 C3.53386692,43.0095595 2.74280724,42.2220161 1.7672843,42.2220161 C0.791761356,42.2220161 0.000701685097,43.0097656 0.000701685097,43.9812066 L0.000701685097,59.6879557 C-0.0442237136,62.8855469 2.07223874,65.7149306 5.1619468,66.5876194 C5.88054615,66.7830621 6.62419607,66.8719184 7.36888114,66.8515082 L40.633551,66.8515082 L40.633551,66.8517144 Z" id="Path"></path>
                            <path d="M3.53386692,36.9444444 C3.52703494,36.4787218 3.34402088,36.0327908 3.02146893,35.6953016 L2.75667822,35.4839844 C2.65813218,35.4171875 2.55109794,35.3637912 2.43826687,35.3250326 C2.3380646,35.2745226 2.23061629,35.2390625 2.11985552,35.2203016 C2.00329792,35.20051 1.88529111,35.1887587 1.76707727,35.1850477 C1.29939766,35.1914388 0.851385848,35.3736871 0.512685607,35.6953016 C-0.154363401,36.395638 -0.154363401,37.4932509 0.512685607,38.1933811 C0.681414639,38.3523329 0.8791278,38.4776801 1.09505956,38.5628255 C1.30767884,38.653125 1.53603236,38.7009549 1.76707727,38.703635 C2.23475688,38.6966254 2.68256166,38.5143772 3.02146893,38.1933811 C3.34381385,37.8560981 3.52682791,37.4099609 3.53386692,36.9444444 Z" id="Path"></path>
                            <path d="M95.3996824,58.0555556 L86.5663553,58.0555556 C85.5906253,58.0555556 84.7997727,57.2680122 84.7997727,56.296365 C84.7997727,55.3247179 85.5908323,54.5371745 86.5663553,54.5371745 L95.3996824,54.5371745 C96.3754124,54.5371745 97.166265,55.3247179 97.166265,56.296365 C97.166265,57.2680122 96.3754124,58.0555556 95.3996824,58.0555556 Z" id="Path"></path>
                            <path d="M95.3996824,51.0183811 L83.03319,51.0183811 C82.0574601,51.0183811 81.2666074,50.2308377 81.2666074,49.2591905 C81.2666074,48.2875434 82.0574601,47.5 83.03319,47.5 L95.3996824,47.5 C96.3754124,47.5 97.166265,48.2875434 97.166265,49.2591905 C97.166265,50.2308377 96.3754124,51.0183811 95.3996824,51.0183811 Z" id="Path"></path>
                            <path d="M98.9330547,66.8517144 L66.1267481,66.8517144 C65.1510181,66.8517144 64.3601654,66.0639648 64.3601654,65.0925239 C64.3601654,64.1208767 65.1510181,63.3333333 66.1267481,63.3333333 L98.9330547,63.3333333 C100.883479,63.3310655 102.46415,61.7572157 102.466427,59.8147461 L102.466427,7.03696832 C102.46415,5.09470486 100.883686,3.52064887 98.9330547,3.51838108 L7.06723918,3.51838108 C5.11681438,3.52064887 3.53614424,5.0944987 3.53386692,7.03696832 L3.53386692,22.8703016 C3.53386692,23.8419488 2.74280724,24.6294922 1.7672843,24.6294922 C0.791761356,24.6294922 0.000701685097,23.8417426 0.000701685097,22.8703016 L0.000701685097,7.03696832 C0.00484227484,3.15223524 3.16618255,0.00412326389 7.06723918,0 L98.9330547,0 C102.834111,0.00412326389 105.995452,3.15223524 105.999592,7.03696832 L105.999592,59.8147461 C105.995452,63.6994792 102.834111,66.8475911 98.9330547,66.8517144 Z" id="Path"></path>
                            <path d="M104.23301,24.6294924 L1.7672843,24.6294924 C1.29877657,24.6296984 0.849315554,24.4443576 0.517861344,24.1142904 C0.186407135,23.7842231 0.000494483078,23.336849 0.000494483078,22.8700955 L0.000494483078,12.3145399 C0.000494483078,11.8479926 0.186407135,11.4004123 0.517861344,11.0703451 C0.849108524,10.7404839 1.29856954,10.5551431 1.7672843,10.5551431 L104.23301,10.5551431 C104.701517,10.5549371 105.150978,10.7402778 105.482433,11.0703451 C105.81368,11.4002062 105.999799,11.8477865 105.999799,12.3145399 L105.999799,22.8700955 C105.999799,23.3366428 105.813887,23.7842231 105.482433,24.1142904 C105.150978,24.4443576 104.701517,24.6296984 104.23301,24.6294924 Z M3.53386692,21.1111111 L102.466427,21.1111111 L102.466427,14.0739366 L3.53386692,14.0739366 L3.53386692,21.1111111 Z" id="Shape"></path>
                            <path d="M19.4337315,59.8147461 L12.3671941,59.8147461 C9.44145334,59.8116536 7.07034462,57.4504666 7.06723918,54.5369683 L7.06723918,51.0183811 C7.07034462,48.1048828 9.44145334,45.7436957 12.3671941,45.7406033 L19.4337315,45.7406033 C22.3594723,45.7436957 24.730581,48.1048828 24.7336864,51.0183811 L24.7336864,54.5369683 C24.730581,57.4504666 22.3594723,59.8116536 19.4337315,59.8147461 Z M12.3671941,49.2591905 C11.3918781,49.2602214 10.6014396,50.0471463 10.6006114,51.0183811 L10.6006114,54.5369683 C10.6016466,55.5082031 11.3918781,56.2953342 12.3671941,56.2961589 L19.4337315,56.2961589 C20.4090475,56.295128 21.199486,55.5082031 21.2003142,54.5369683 L21.2003142,51.0183811 C21.199279,50.0471463 20.4090475,49.2600152 19.4337315,49.2591905 L12.3671941,49.2591905 Z" id="Shape"></path>
                            <path d="M54.7668331,38.703635 L10.6004044,38.703635 C8.64997961,38.7013672 7.06930947,37.1275174 7.06703215,35.1850477 L7.06703215,31.6664605 C7.06930947,29.724197 8.64977258,28.1501411 10.6004044,28.1478733 L54.766626,28.1478733 C56.7170508,28.1501411 58.297721,29.7239909 58.2999983,31.6664605 L58.2999983,35.1850477 C58.297928,37.1275174 56.7172579,38.7013672 54.7668331,38.703635 Z M10.6004044,31.6666667 L10.6004044,35.1852539 L54.7693174,35.1852539 L54.7668331,31.6666667 L10.6004044,31.6666667 Z" id="Shape"></path>
                            <path d="M75.134187,95 L30.8661069,95 C28.6738716,94.9727865 26.6727246,93.7523003 25.6524833,91.8199327 C24.3734551,89.5484266 24.4262476,86.7660482 25.7905719,84.5440213 L47.9245085,48.6870877 C48.959863,46.8662543 50.8989011,45.7406033 53.0002504,45.7406033 C55.1015997,45.7406033 57.0404309,46.8660482 58.0759924,48.6870877 L80.2099289,84.5440213 C81.5742532,86.765842 81.6270458,89.5482205 80.3480176,91.8199327 C79.3275693,93.7520942 77.3264222,94.9727865 75.134187,95 Z M53.0000434,49.2591905 C52.1346602,49.2890842 51.3493973,49.7717122 50.9349243,50.5287435 L28.8009877,86.3856771 C28.1157201,87.5249349 28.0910836,88.941276 28.7363945,90.103418 C29.1448637,90.9115777 29.9586966,91.4379123 30.8661069,91.4812066 L75.134187,91.4812066 C76.0415972,91.4379123 76.8554301,90.9113715 77.2641064,90.103418 C77.9094173,88.941276 77.8845737,87.5249349 77.1995132,86.3856771 L55.0651625,50.5287435 C54.6506895,49.7717122 53.8654267,49.2890842 53.0000434,49.2591905 Z" id="Shape"></path>
                            <path d="M53.0000434,79.1666668 C52.5315357,79.1668728 52.0820747,78.9815321 51.7506205,78.6514648 C51.4193733,78.3216037 51.2332538,77.8740234 51.2332538,77.40727 L51.2332538,61.5739366 C51.2332538,60.6022895 52.0243134,59.8147461 52.9998364,59.8147461 C53.9755664,59.8147461 54.7664192,60.6022895 54.7664192,61.5739366 L54.7664192,77.40727 C54.766626,77.8738173 54.5805065,78.3213976 54.2490523,78.6514648 C53.9182192,78.981326 53.4687582,79.1666668 53.0000434,79.1666668 Z" id="Path"></path>
                            <path d="M53.0000434,86.3444444 C52.5280162,86.3423828 52.0764849,86.1525065 51.7456517,85.817079 C51.4137835,85.4929905 51.2286991,85.0480903 51.2332538,84.5852539 C51.2373944,84.3496094 51.2852182,84.116645 51.3738268,83.898112 C51.459537,83.688444 51.586032,83.4975369 51.7456517,83.3363173 C52.2510107,82.8287435 53.0145355,82.6763889 53.6774439,82.9503798 C54.3403523,83.2243707 54.7707666,83.8706923 54.7666556,84.5854601 C54.7602081,85.5542209 53.973082,86.3378472 53.0000434,86.3444444 L53.0000434,86.3444444 Z" id="Path"></path>
                        </g>
                    </g>
                </g>
            </g>
        </g>
    </g>
</svg>