<?xml version="1.0" encoding="UTF-8"?>
<svg width="84px" height="29px" viewBox="0 0 84 29" version="1.1" xmlns="http://www.w3.org/2000/svg" xmlns:xlink="http://www.w3.org/1999/xlink">
    <title>208666</title>
    <defs>
        <polygon id="path-1" points="0 0 14.0568884 0 14.0568884 14.8184954 0 14.8184954"></polygon>
        <polygon id="path-3" points="0 0 14.4368043 0 14.4368043 14.8184954 0 14.8184954"></polygon>
        <polygon id="path-5" points="0 0 17.4761315 0 17.4761315 5.75907266 0 5.75907266"></polygon>
        <polygon id="path-7" points="0 0 11.0561466 0 11.0561466 8.66553478 0 8.66553478"></polygon>
    </defs>
    <g id="Anasayfa" stroke="none" stroke-width="1" fill="none" fill-rule="evenodd">
        <g id="MusteriPaneli-Bildirim" transform="translate(-681.000000, -347.000000)">
            <g id="208666" transform="translate(681.000000, 347.000000)">
                <path d="M0.227059019,14.5015386 C0.851842879,10.9073111 2.74993806,7.77620955 5.42270609,5.62675083 C7.49295067,2.85414917 10.5115014,0.883170527 13.9722979,0.235409592 C13.1634926,0.08462456 12.3294583,0 11.4776158,0 C8.25575076,0 5.29211,1.13550499 2.92653969,3.03878414 C1.09374217,5.49135185 0,8.56706289 0,11.912033 C0,12.7952038 0.0831066038,13.6599107 0.227059019,14.5015386" id="Path" fill="#F89D1E" fill-rule="nonzero"></path>
                <g id="Clipped" transform="translate(0.000000, 14.181505)">
                    <mask id="mask-2" fill="white">
                        <use xlink:href="#path-1"></use>
                    </mask>
                    <g id="Path"></g>
                    <path d="M13.9737818,14.5830859 C10.5129854,13.933786 7.494435,11.9643463 5.42419004,9.19328317 C2.75142239,7.04536298 0.853326831,3.91272292 0.227059019,0.320033955 C0.0816226523,1.16012328 0,2.02483021 0,2.90800104 C0.0014840465,6.25297112 1.0952265,9.33022068 2.92802364,11.7812499 C5.29359395,13.6829901 8.25723471,14.8184954 11.4790997,14.8184954 C12.3324266,14.8184954 13.1664605,14.7338709 13.9737818,14.5830859" id="Path" fill="#24ABE2" fill-rule="nonzero" mask="url(#mask-2)"></path>
                </g>
                <path d="M5.42270609,5.62675083 C2.74993806,7.77620955 0.853326831,10.9073111 0.227059019,14.5015386 C0.853326831,18.0942275 2.75142239,21.2253291 5.42419004,23.3747878 C3.58990857,20.9222197 2.4961664,17.8449701 2.4961664,14.5015386 C2.4961664,11.158107 3.58990857,8.07778001 5.42270609,5.62675083" id="Path" fill="#C6E9FB" fill-rule="nonzero"></path>
                <path d="M13.9722979,0.235409592 C17.4375465,0.881632 20.453129,2.85107172 22.5248579,5.6252123 C25.1976256,7.77467103 27.0942368,10.9073111 27.7219886,14.4984615 C27.8674253,13.6583722 27.9460797,12.7921263 27.9460797,11.9104944 C27.9460797,8.56552436 26.8523375,5.48981332 25.01954,3.0357067 C22.655454,1.13396646 19.6903289,0 16.4684639,0 C15.6151374,0 14.7825871,0.08462456 13.9722979,0.235409592" id="Path" fill="#A955A1" fill-rule="nonzero"></path>
                <path d="M5.42270609,5.62675083 C7.78530811,3.7250106 10.7519168,2.58950571 13.9722979,2.58950571 C17.1956469,2.58950571 20.1592876,3.72347207 22.5248579,5.6252123 C20.453129,2.85261025 17.4375465,0.883170527 13.9722979,0.235409592 C10.5115014,0.883170527 7.49295067,2.85414917 5.42270609,5.62675083" id="Path" fill="#FFCD7C" fill-rule="nonzero"></path>
                <g id="Clipped" transform="translate(13.676973, 14.181505)">
                    <mask id="mask-4" fill="white">
                        <use xlink:href="#path-3"></use>
                    </mask>
                    <g id="Path"></g>
                    <path d="M14.0420481,0.316956902 C13.4187486,3.90964547 11.520653,7.04228553 8.84936936,9.19174465 C6.77764045,11.9628078 3.76057401,13.933786 0.296809299,14.5830859 C1.10858283,14.7338709 1.94113282,14.8184954 2.7929757,14.8169775 C6.0133564,14.8169775 8.9814494,13.6814516 11.3455354,11.7797113 C13.1768489,9.32868216 14.2691072,6.24989406 14.2691072,2.90646212 C14.2691072,2.02329169 14.1904528,1.15858436 14.0420481,0.316956902" id="Path" fill="#98C93E" fill-rule="nonzero" mask="url(#mask-4)"></path>
                </g>
                <g id="Clipped" transform="translate(5.318823, 23.240927)">
                    <mask id="mask-6" fill="white">
                        <use xlink:href="#path-5"></use>
                    </mask>
                    <g id="Path"></g>
                    <path d="M0.105367396,0.133860455 C2.17561235,2.90492359 5.19416274,4.87436331 8.65495917,5.52366317 C12.1202078,4.87436331 15.1357903,2.90338506 17.2075192,0.132321928 C14.8434333,2.03252324 11.8783082,3.16802853 8.65495917,3.16802853 C5.43457846,3.16802853 2.46945337,2.03406216 0.105367396,0.133860455" id="Path" fill="#C5DD88" fill-rule="nonzero" mask="url(#mask-6)"></path>
                </g>
                <path d="M22.5263419,23.3732493 C25.1976256,21.2253291 27.0957211,18.0911501 27.7190207,14.4984615 C27.0942368,10.9057726 25.1976256,7.77467103 22.5248579,5.6252123 C24.3561711,8.07624148 25.4513976,11.1550296 25.4513976,14.5 C25.4528816,17.8418931 24.3576551,20.9206812 22.5263419,23.3732493" id="Path" fill="#D1B5D6" fill-rule="nonzero"></path>
                <path d="M5.42270609,5.62675083 C3.58990857,8.07778001 2.4961664,11.158107 2.4961664,14.5015386 C2.4961664,17.8449701 3.58990857,20.9222197 5.42419004,23.3747878 C7.78827602,25.2749895 10.7534011,26.4089559 13.9737818,26.4089559 C17.1971308,26.4089559 20.1622559,25.2734506 22.5263419,23.3732493 C24.3576551,20.9206812 25.4528816,17.8434316 25.4513991,14.4984615 C25.4513991,11.1550296 24.3561711,8.07624148 22.5248579,5.6252123 C20.1592876,3.72347207 17.1956469,2.58950571 13.9722979,2.58950571 C10.7519168,2.58950571 7.78530811,3.7250106 5.42270609,5.62675083" id="Path" fill="transparent" fill-rule="nonzero"></path>
                <path d="M7.52114765,12.5582554 L7.52114765,13.4060377 L10.4298788,13.4060377 L10.4298788,12.5567169 C10.4298788,11.8797219 10.0202819,11.4919885 8.97551321,11.4919885 C7.91145197,11.4919885 7.52114765,11.8797219 7.52114765,12.5582554 M12.703438,12.4213179 L12.704922,14.6630941 C12.704922,14.972358 12.5921344,15.1077569 12.2953251,15.1077569 L7.52114765,15.1092955 L7.52114765,16.5386778 C7.52114765,17.2156727 7.87583485,17.6018676 8.97699716,17.6018676 C10.0766759,17.6018676 10.4298788,17.2141342 10.4298788,16.5386778 L10.4298788,16.4417443 C10.4298788,16.1124788 10.5604749,15.9570778 10.8958696,15.9570778 L12.2018305,15.9570778 C12.5194162,15.9570778 12.6678209,16.1124788 12.6678209,16.4417443 L12.6693048,16.6540747 C12.6693048,18.3942595 11.7002226,19.5159168 8.95770465,19.5159168 C6.21815501,19.5159168 5.13628483,18.3942595 5.13628483,16.6556133 L5.13480088,12.4213179 C5.13480088,10.6995966 6.23447924,9.58101672 8.97551321,9.5794778 C11.6987386,9.5794778 12.703438,10.6995966 12.703438,12.4213179 M14.8612418,9.73180175 L16.2963145,9.73180175 C16.6317092,9.73180175 16.7252042,9.86720073 16.7415284,10.1964666 L16.7801138,10.6611311 C17.3039822,10.2149301 18.2537719,9.5794778 19.7645314,9.5794778 C21.4800892,9.5794778 22.468464,10.6595926 22.468464,12.1689834 L22.468464,18.858924 C22.468464,19.2051144 22.3378679,19.3589769 22.0009892,19.3589769 L20.491714,19.3589769 C20.1563197,19.3589769 20.0064307,19.2066534 20.0064307,18.858924 L20.0064307,12.8075128 C20.0064307,12.1105159 19.8016325,11.78125 19.0002474,11.78125 C18.0682662,11.78125 17.2282957,12.3428479 16.8379917,12.6521118 L16.8379917,18.858924 C16.8379917,19.2066534 16.7252042,19.3589769 16.409102,19.3589769 L14.8612418,19.3589769 C14.5243632,19.3589769 14.395251,19.2066534 14.396735,18.858924 L14.395251,10.1964666 C14.395251,9.86873926 14.5228792,9.73180175 14.8612418,9.73180175" id="Shape" fill="#A955A1" fill-rule="nonzero"></path>
                <path d="M35.0502104,11.588922 C35.0502104,10.9919355 34.7712096,10.4780347 33.8347762,10.4780347 C32.7662627,10.4795736 31.9589414,11.07656 31.598318,11.36736 L31.598318,15.4062499 C31.9604254,15.6785864 32.7662627,16.2755729 33.8347762,16.2755729 C34.7712096,16.2755729 35.0502104,15.7647494 35.0502104,15.167763 L35.0502104,11.588922 Z M31.2198861,9.15174031 C31.4499134,9.15174031 31.5152114,9.25328934 31.53302,9.49177628 L31.5641848,10.0195247 C32.0257234,9.64410024 32.9146673,9.01326388 34.2948304,9.01326388 C35.8901805,9.01326388 36.6129112,9.93336169 36.6129112,11.3319715 L36.6129112,15.4231749 C36.6129112,16.8202462 35.8916644,17.7418826 34.2948304,17.7418826 C32.9621568,17.7418826 32.0746968,17.1633596 31.598318,16.7879352 L31.599802,20.7606642 C31.599802,20.9822262 31.5152114,21.0837756 31.3029927,21.0837756 L30.348751,21.0837756 C30.1187237,21.0837756 30.0371011,20.9822262 30.0371011,20.7606642 L30.0356171,9.49177628 C30.0356171,9.25328934 30.1187237,9.15174031 30.348751,9.15174031 L31.2198861,9.15174031" id="Shape" fill="#A955A1" fill-rule="nonzero"></path>
                <path d="M42.4006926,15.5262629 L42.4006926,14.0584146 L40.1330695,14.0584146 C39.3094236,14.0584146 39.0452635,14.4338391 39.0452635,15.098525 L39.0452635,15.4400999 C39.0467475,16.1047858 39.4088548,16.3955858 40.2325007,16.3955858 C41.2342318,16.3955858 42.0222606,15.8324489 42.4006926,15.5262629 M37.7140735,11.313508 C37.7140735,9.95182519 38.5688843,9.01326388 40.8216671,9.01326388 C43.1397475,9.01326388 43.9307446,9.95028667 43.9307446,11.313508 L43.9322285,17.2633702 C43.9322285,17.5018571 43.847638,17.6049447 43.6339353,17.6049447 L42.7806085,17.6049447 C42.5490972,17.6049447 42.4823152,17.5018571 42.4674746,17.2633702 L42.4333414,16.7694717 C41.9554786,17.1618207 41.0843432,17.7418826 39.8362602,17.7418826 C38.3062082,17.7418826 37.5166954,16.7879352 37.5166954,15.6785864 L37.5166954,14.861577 C37.5166954,13.7537671 38.2735593,12.7967423 39.802127,12.7967423 L42.4006926,12.7967423 L42.4006926,11.4842955 C42.4006926,10.7857596 42.0549098,10.3257111 40.8053425,10.3257111 C39.5557755,10.3257111 39.1773436,10.7349851 39.1773436,11.433521 L39.1773436,11.571997 C39.1773436,11.8074065 39.0957209,11.912033 38.8656936,11.912033 L38.0093989,11.912033 C37.7956962,11.912033 37.7140735,11.8074065 37.7140735,11.571997 L37.7140735,11.313508" id="Shape" fill="#A955A1" fill-rule="nonzero"></path>
                <path d="M49.6176108,9.33637528 L49.6176108,10.1195352 C49.6176108,10.3595607 49.5033389,10.4441851 49.2896362,10.4611101 C48.0549095,10.5472731 47.1184765,11.211959 46.7415285,11.5535335 L46.7415285,17.2633702 C46.7415285,17.5018571 46.6584219,17.6049447 46.4462031,17.6049447 L45.4919615,17.6049447 C45.2619342,17.6049447 45.1788276,17.5018571 45.1788276,17.2633702 L45.1788276,9.47331279 C45.1788276,9.25175082 45.2619342,9.15020178 45.4919615,9.15020178 L46.3616126,9.15020178 C46.5916399,9.15020178 46.6584219,9.25175082 46.6747465,9.47331279 L46.7252039,10.2072367 C47.1674499,9.74564927 48.0890427,9.01172535 49.2896362,9.01172535 C49.5033389,9.01172535 49.6176108,9.11481331 49.6176108,9.33637528" id="Path" fill="#A955A1" fill-rule="nonzero"></path>
                <path d="M54.6663368,15.524724 L54.6663368,14.0568761 L52.3972298,14.0568761 C51.5750678,14.0568761 51.3109077,14.4338391 51.3109077,15.098525 L51.3109077,15.4400999 C51.3109077,16.1032469 51.674499,16.3940473 52.4951766,16.3940473 C53.4983921,16.3940473 54.2879048,15.8309104 54.6663368,15.524724 M49.9812021,11.313508 C49.9812021,9.95028667 50.8345289,9.01172535 53.0873113,9.01172535 C55.4053921,9.01172535 56.1949048,9.95028667 56.1949048,11.3119695 L56.1949048,17.2618316 C56.1949048,17.5018571 56.1132822,17.6049447 55.8995795,17.6049447 L55.0432848,17.6049447 C54.8147414,17.6049447 54.7494434,17.5018571 54.7316348,17.2633702 L54.698986,16.7679328 C54.2226068,17.1602822 53.3499874,17.7403436 52.1019044,17.7403436 C50.5718524,17.7403436 49.7823396,16.7863963 49.7823396,15.6770479 L49.7823396,14.8600381 C49.7823396,13.7522282 50.5392035,12.7967423 52.0677712,12.7967423 L54.6663368,12.7967423 L54.6663368,11.4827569 C54.6663368,10.7842211 54.320554,10.3241722 53.0709867,10.3257111 C51.8214197,10.3257111 51.4429878,10.7334466 51.4429878,11.431982 L51.4429878,11.5704585 C51.4429878,11.8074065 51.3613651,11.9104944 51.1298539,11.9104944 L50.2750431,11.9104944 C50.0613404,11.9104944 49.9812021,11.8074065 49.9812021,11.5704585 L49.9812021,11.313508" id="Shape" fill="#A955A1" fill-rule="nonzero"></path>
                <path d="M58.4640118,17.3987691 C58.4640118,17.5526316 58.3987138,17.6034061 58.2666337,17.6034061 L57.7902545,17.6034061 C57.6433342,17.6049447 57.5928764,17.5526316 57.5928764,17.3987691 L57.5928764,16.0863223 C57.5928764,15.9493844 57.6433342,15.8816849 57.7902545,15.8816849 L58.2666337,15.8816849 C58.3987138,15.8816849 58.4640118,15.9493844 58.4640118,16.0863223 L58.4640118,17.3987691" id="Path" fill="#D1B5D6" fill-rule="nonzero"></path>
                <path d="M65.3544398,11.1765705 L65.3544398,11.4996815 C65.3544398,11.653544 65.3024981,11.7058574 65.1555774,11.7043189 L64.728172,11.7058574 C64.5797674,11.7058574 64.5307939,11.653544 64.5307939,11.5012204 L64.5307939,11.227345 C64.5307939,10.3918717 64.1033885,9.81181024 62.4753896,9.81181024 C60.8637149,9.81181024 60.4348256,10.3918717 60.4348256,11.227345 L60.4363095,15.5754989 C60.4363095,16.4294353 60.8637149,16.9894948 62.4753896,16.9894948 C64.1033885,16.9894948 64.5307939,16.4278968 64.5307939,15.5754989 L64.5307939,15.164686 C64.5307939,15.0108235 64.5797674,14.960049 64.728172,14.960049 L65.1555774,14.960049 C65.3024981,14.960049 65.3544398,15.0108235 65.3544398,15.164686 L65.3544398,15.6431984 C65.3544398,16.8694822 64.6791986,17.7403436 62.459065,17.7403436 C60.25674,17.7403436 59.5814988,16.8694822 59.5814988,15.6431984 L59.5814988,11.1765705 C59.5814988,9.93182317 60.2552561,9.06403879 62.4753896,9.06403879 C64.6791986,9.06403879 65.3544398,9.93182317 65.3544398,11.1765705" id="Path" fill="#D1B5D6" fill-rule="nonzero"></path>
                <path d="M71.0902794,11.2258065 C71.0902794,10.3903332 70.5797674,9.81181024 68.9695771,9.81181024 C67.3579024,9.81181024 66.8488744,10.3903332 66.8488744,11.227345 L66.8488744,15.5754989 C66.8488744,16.4278968 67.3593863,16.9894948 68.971061,16.9894948 C70.5812514,16.9894948 71.0902794,16.4278968 71.0902794,15.5754989 L71.0902794,11.2258065 Z M65.9925775,11.1765705 C65.9910957,9.93182317 66.7672521,9.06249987 68.9695771,9.06249987 C71.173386,9.06249987 71.9450902,9.93028425 71.9450902,11.175032 L71.9465742,15.6416594 C71.9465742,16.8694822 71.173386,17.7388051 68.971061,17.7388051 C66.7672521,17.7388051 65.9925775,16.8694822 65.9925775,15.6431984 L65.9925775,11.1765705" id="Shape" fill="#D1B5D6" fill-rule="nonzero"></path>
                <g id="Clipped" transform="translate(72.943853, 9.060961)">
                    <mask id="mask-8" fill="white">
                        <use xlink:href="#path-7"></use>
                    </mask>
                    <g id="Path"></g>
                    <path d="M0.808805246,0.136937507 C0.940885669,0.136937507 1.00766767,0.206175918 1.00766767,0.341574899 L1.02250794,1.04011035 C1.46772189,0.649299855 2.38783072,0.00153644698 3.78580271,0.00153644698 C4.92109818,0.00153644698 5.59485548,0.460048908 5.89018045,1.17704786 C6.28493701,0.801623413 7.22137044,0.00153644698 8.78407131,0.00153644698 C10.3304476,-4.33680869e-19 11.0531783,0.852398326 11.0531783,2.04483224 L11.0546623,8.33473035 C11.0546623,8.47320678 10.9893642,8.54090627 10.8558002,8.54090627 L10.3957456,8.54090627 C10.2488253,8.54090627 10.1820429,8.47320678 10.1820429,8.33473035 L10.1820429,2.21561969 C10.1820429,1.38014633 9.7219887,0.801623413 8.57036861,0.801623413 C7.19020518,0.801623413 6.33391045,1.55093378 6.00445232,1.84173377 C6.0385851,1.96020817 6.0385851,2.09714568 6.0385851,2.21715821 L6.04006943,8.33626927 C6.04006943,8.47320678 5.99109561,8.54090627 5.85753162,8.54090627 L5.38115279,8.54090627 C5.2505567,8.54090627 5.20158288,8.47320678 5.20158288,8.33626927 L5.20158288,2.21715821 C5.20158288,1.38014633 4.72372009,0.801623413 3.58842462,0.801623413 C2.25723463,0.801623413 1.40242384,1.50015926 1.05664111,1.82480919 L1.05664111,8.33626927 C1.05664111,8.47320678 0.99134306,8.54244479 0.860746968,8.54244479 L0.400692744,8.54244479 C0.250803763,8.54244479 0.201830324,8.47320678 0.201830324,8.33626927 L0.201830324,0.341574899 C0.201830324,0.206175918 0.249319811,0.136937507 0.400692744,0.136937507 L0.808805246,0.136937507" id="Path" fill="#D1B5D6" fill-rule="nonzero" mask="url(#mask-8)"></path>
                </g>
            </g>
        </g>
    </g>
</svg>