<?xml version="1.0" encoding="UTF-8"?>
<svg width="84px" height="27px" viewBox="0 0 84 27" version="1.1" xmlns="http://www.w3.org/2000/svg" xmlns:xlink="http://www.w3.org/1999/xlink">
    <title>209797</title>
    <g id="Anasayfa" stroke="none" stroke-width="1" fill="none" fill-rule="evenodd">
        <g id="MusteriPaneli-Bildirim" transform="translate(-963.000000, -348.000000)" fill="#00673E">
            <g id="209797" transform="translate(963.000000, 348.000000)">
                <path d="M41.8555911,18.5525028 C41.2434505,19.042065 40.5060704,19.3684397 39.7099041,19.3684397 C38.6057508,19.3684397 37.9105431,18.899276 37.9105431,17.737841 C37.9105431,16.0243735 39.5258786,14.8807866 41.8555911,15.4927393 L41.8555911,18.5525028 Z M44.5137381,20.8384014 C44.3514377,20.2251735 44.3105431,19.1848539 44.3105431,18.3293953 L44.3105431,13.6581564 C44.3105431,10.6187913 42.9405751,9.63966701 39.9948883,9.63966701 C38.8306709,9.63966701 37.888818,9.88444809 36.8255592,10.3536118 L36.5392972,11.8834936 C37.542492,11.3531346 38.7284345,11.1274768 39.8722046,11.1274768 C41.9578276,11.1274768 41.8555911,12.7606258 41.8555911,14.3313044 C38.9929713,13.452897 35.3533547,14.555687 35.4364217,18.0438174 C35.4773163,20.0211893 36.9277956,21.0615089 38.7476039,21.1023057 C39.9948883,21.1227041 41.0376998,20.633142 41.8964857,19.7560098 L42.0817891,20.8384014 L44.5137381,20.8384014" id="Shape"></path>
                <path d="M60.6146964,20.8384014 C60.4345047,20.439357 60.4115017,19.1848539 60.4115017,18.3293953 L60.4115017,13.6581564 C60.4115017,10.6187913 59.0543131,9.63966701 56.1086262,9.63966701 C54.943131,9.63966701 53.9910544,9.87297373 52.9265174,10.3421375 L52.6415336,11.8834936 C53.0185302,11.6833338 53.4223641,11.5265212 53.8389777,11.4092302 C54.5303514,11.2154452 55.2600639,11.1274768 55.9731628,11.1274768 C58.0587858,11.1274768 57.9578276,12.7606258 57.9578276,14.3313044 C55.0952078,13.452897 51.4555912,14.555687 51.5373803,18.0438174 C51.5782749,20.0211893 53.0300321,21.0615089 54.8498404,21.1023057 C56.0958465,21.1227041 57.1501599,20.633142 58.0102237,19.7560098 C58.0102237,19.7560098 58.0638976,20.4495562 58.1827477,20.8384014 C58.7271565,20.8384014 60.6146964,20.8384014 60.6146964,20.8384014 Z M57.9578276,18.5525028 C57.3444091,19.042065 56.6083068,19.3684397 55.8108627,19.3684397 C54.7054312,19.3684397 54.0115017,18.899276 54.0115017,17.737841 C54.0115017,16.0243735 55.6268372,14.8807866 57.9578276,15.4927393 L57.9578276,18.5525028" id="Shape"></path>
                <path d="M3.91821071,11.7266806 C1.566773,10.7284327 0,8.76763442 0,6.83488381 C0,6.81703503 0,6.80046139 0.00127787348,6.78388776 C0.0230030314,5.20810956 1.05431302,3.93703257 2.90223618,3.20013969 C3.11948874,3.3110562 4.39744402,3.9956782 5.97060704,5.4707391 C7.92587845,7.30404755 9.41597446,9.48540369 10.4025559,11.954888 C10.2440895,12.0632546 9.72779555,12.3756054 8.84984019,12.5285935 C7.86325872,12.7019801 6.20702868,12.703255 3.91821071,11.7266806" id="Path"></path>
                <path d="M16.6453674,15.3206279 C17.48754,16.1684373 17.9118211,17.0876411 17.9118211,18.0629407 C17.9118211,18.3880406 17.8645365,18.7169653 17.7712459,19.0535393 C17.5246006,19.9357711 17.0146964,20.6203931 16.7412141,20.9403935 C15.5603834,16.326525 13.2945685,14.1744914 12.513738,13.5485147 C13.1539936,13.4656462 14.8127793,13.4771202 16.6453674,15.3206279" id="Path"></path>
                <path d="M13.339297,22.6691598 C12.0881787,21.4261309 12.0051117,18.2184788 12.0051117,16.6452502 C12.0051117,16.5101109 12.0063896,16.3889951 12.0063896,16.2806286 L12.0076678,15.9198314 C12.0076678,15.8866841 12.0076678,15.8535365 12.0076678,15.8216641 C12.0076678,14.8603882 12.1201278,14.1273201 12.1763579,13.8226186 C14.9175718,15.8471621 16.2760384,20.9569671 16.3706069,21.3292383 C16.0357828,23.3767299 14.6670926,23.1956941 14.6095847,23.1867697 L14.6006389,23.1854949 L14.592971,23.1854949 C14.1086262,23.1893196 13.6869008,23.015933 13.339297,22.6691598" id="Path"></path>
                <path d="M0.203194643,19.9829424 C0.198082822,19.9179224 0.195527075,19.8529023 0.195527075,19.7878826 C0.195527075,18.3472438 1.20127796,16.9321033 3.11693267,15.6865244 C5.55015951,14.1030969 7.45559091,13.7168017 8.62747581,13.6721801 C9.6523961,13.6326584 10.3067092,13.8391922 10.5226836,13.9220607 C9.01469634,17.5313068 7.06070281,19.95107 5.68051111,21.3470868 C4.32715639,22.7176059 3.25239609,23.3945787 3.04025535,23.5233437 C1.34952077,22.6895583 0.288817728,21.3687604 0.203194643,19.9829424" id="Path"></path>
                <path d="M6.31054298,21.6696371 C7.67028739,20.181827 9.53993604,17.7085182 10.8204471,14.3096308 C11.1079872,15.2696318 11.2191691,16.2666046 11.2191691,17.2278805 C11.2191691,18.5601524 11.0095844,19.8235798 10.7744407,20.8231025 C10.3169328,22.7609528 9.66389762,24.1582447 9.65750792,24.1722684 C9.64472821,24.2041412 8.41789114,27 6.36677301,27 C4.48562285,27 3.72779545,24.5292408 3.61533539,24.1199975 C3.86325855,23.9453361 4.97380193,23.130674 6.31054298,21.6696371" id="Path"></path>
                <path d="M15.93738,7.71074087 C16.4996803,6.55568032 16.7603832,5.6441257 16.8511181,5.28587847 C17.0952076,5.48221313 17.6230031,5.99089889 17.8083065,6.83105903 C17.853035,7.03631808 17.8760384,7.24667674 17.8760384,7.46213533 C17.8760384,8.26787305 17.5642173,9.15392931 16.9431309,10.105006 C16.0345046,11.5010231 14.8932906,12.3411829 13.6447284,12.5311435 C12.9891374,12.6305857 12.4587859,12.5285935 12.1942491,12.4559242 C14.1303514,10.9030941 15.2958466,9.02771431 15.93738,7.71074087" id="Path"></path>
                <path d="M11.8185304,10.0948067 C11.8185304,9.88317294 11.8236422,9.6740891 11.8338658,9.47265484 L11.8479231,9.22149933 C11.9194886,7.82930695 12.108626,4.13336756 13.5782747,2.83551771 C13.9488816,2.50914294 14.3821085,2.35997955 14.8664536,2.3956768 C14.9226837,2.40205122 16.3591054,2.59456142 16.5444088,4.91105728 C16.5073482,5.05767103 16.2223641,6.14133742 15.545048,7.51185624 C14.8958467,8.82627972 13.7456869,10.6710622 11.9271565,12.1027766 C11.8900959,11.735605 11.8185304,10.9081937 11.8185304,10.0948067" id="Path"></path>
                <path d="M4.93801918,0.301013628 C5.41597429,0.00396167157 5.9603834,-0.0738072354 6.55846647,0.0702565471 C7.80319474,0.366033684 8.87667717,1.3502576 9.65750792,2.91456177 C10.4881787,4.57575844 10.9520765,6.83360867 10.9980829,9.44333202 C10.9980829,9.44588199 10.9993608,9.47902926 10.9993608,9.53639975 C10.9993608,9.81687807 10.9750799,10.6876358 10.7028752,11.5558436 C10.5277954,11.062457 10.0728433,9.90484651 9.22300313,8.51775373 C8.1891374,6.83105903 6.34632573,4.45464272 3.42108619,2.67233033 C3.50031925,2.36762913 3.92332253,0.932089929 4.93801918,0.301013628" id="Path"></path>
                <path d="M83.8862621,7.27344991 C83.8862621,6.85400709 83.746965,6.51360865 83.4658149,6.25352875 C83.1859426,5.95392683 82.8434506,5.83408593 82.4434506,5.83408593 C82.0230031,5.83408593 81.6830672,5.97432525 81.4223643,6.25352875 C81.2345048,6.42691535 81.1105432,6.63599919 81.0479235,6.87950512 C81.0172526,7.00189566 81.0006389,7.13321059 81.0006389,7.27344991 C81.0006389,7.67376881 81.142492,8.01289276 81.4223643,8.29337108 C81.6830672,8.5738494 82.0230031,8.71281357 82.4434506,8.71281357 C82.8434506,8.71281357 83.1859426,8.59297267 83.4658149,8.29337108 C83.746965,8.01289276 83.8862621,7.67376881 83.8862621,7.27344991" id="Path"></path>
                <path d="M84,20.8384014 C83.8236423,20.4954526 83.7955272,19.4092366 83.7955272,18.0438174 L83.7955272,12.0874778 C83.7955272,10.843174 83.916933,9.7212607 82.7322684,9.7212607 C82.3488818,9.7212607 81.605112,9.99281463 80.7297124,10.4543288 C81.1872205,10.7590303 81.3623003,11.3658834 81.3623003,12.6777569 L81.3623003,18.0642158 C81.3623003,19.6170456 81.3559106,20.4750542 81.1565496,20.8384014 L84,20.8384014" id="Path"></path>
                <path d="M77.3099041,21.0615089 C76.1865816,21.0615089 75.3891375,20.7147357 74.8779554,20.0428629 C74.5303516,19.572424 74.346326,18.7169653 74.346326,17.49306 L74.346326,11.4334531 L72.6492014,11.4334531 L72.6492014,10.1088307 L74.346326,9.90484651 L74.5303516,7.27344991 L76.7795529,7.11026253 L76.7795529,9.92396979 L79.5603835,9.92396979 L79.5603835,11.4334531 L76.7795529,11.4334531 L76.7795529,17.5746536 C76.7795529,18.7373638 77.2702877,19.3085196 78.2108628,19.3085196 C78.803834,19.3085196 79.3968053,19.1657307 80.0306711,18.8380807 L80.2351439,20.2659704 C79.2127797,20.7963294 78.2313101,21.0615089 77.3099041,21.0615089" id="Path"></path>
                <path d="M68.9648563,20.8384014 C69.0530351,20.6178432 69.0555912,20.102783 69.0645366,19.5150535 C69.0722045,19.0611886 69.0722045,18.5180807 69.0722045,17.88063 L69.0722045,13.5969611 C69.0722045,12.1282746 68.6210864,11.4538515 67.5373803,11.4538515 C66.6990417,11.4538515 65.7188499,12.0454058 64.9418531,12.7402273 L64.9418531,18.1241359 C64.9418531,18.7411882 64.9520767,19.3110693 64.9750798,19.782783 C64.9980831,20.2468471 65.0338659,20.6140187 65.0837062,20.8384014 L62.4063898,20.8384014 C62.5073484,20.3896361 62.5290735,19.4921054 62.5290735,18.2057296 L62.5290735,12.6369601 C62.5290735,11.2702657 62.3079873,10.7207834 61.8952077,10.4543288 C62.8485622,9.97879063 63.4313098,9.74165913 63.8658146,9.74165913 C64.6581468,9.74165913 64.8383388,10.4377552 64.8587861,11.3123377 C65.800639,10.3536118 67.1284346,9.61799344 68.375719,9.61799344 C69.602556,9.61799344 70.5022366,10.0476355 71.053035,10.9234925 C71.1782748,11.1287519 71.2741215,11.3901066 71.345687,11.710107 C71.4530353,12.1856451 71.5041535,12.7912234 71.5041535,13.5344907 L71.5041535,18.0846142 C71.5041535,19.8847751 71.5821087,20.6369668 71.6677318,20.8384014 L68.9648563,20.8384014" id="Path"></path>
                <path d="M51.7980832,11.5571188 C51.6140576,11.5367204 51.430032,11.5367204 51.1859425,11.5367204 C50.4089457,11.5367204 49.6319489,11.9446888 48.8753994,12.8001475 L48.8753994,18.2873233 C48.8753994,19.8987987 48.9380191,20.6522656 49.0185304,20.8384014 L46.3399361,20.8384014 C46.3769967,20.6688392 46.4038337,20.4623054 46.4217252,20.2200739 C46.4613419,19.7024641 46.4613419,19.0331409 46.4613419,18.3077217 L46.4613419,12.6369601 C46.4613419,11.3939314 46.2568691,10.7054846 45.8249201,10.4543288 C46.5929711,10.0540099 47.3226836,9.74165913 47.794249,9.74165913 C48.6108626,9.74165913 48.7718851,10.4964008 48.7718851,11.3327361 C49.5284346,10.1904244 50.4690097,9.61799344 51.5539936,9.61799344 C51.7584665,9.61799344 51.9616614,9.63966701 52.145687,9.68046386 L51.7980832,11.5571188" id="Path"></path>
                <path d="M33.2536741,7.51823099 C32.026837,7.02866884 30.7386581,6.78388776 29.4300319,6.78388776 C27.7533546,6.78388776 26.4408945,7.37544203 25.3367411,8.51647859 C24.2325877,9.68046386 23.6805111,11.1682736 23.6805111,12.9633348 C23.6805111,14.9228586 24.169968,16.4922621 25.171885,17.6358489 C26.1546325,18.7781606 27.4466453,19.3684397 29.2051118,19.3684397 C30.1252396,19.3684397 30.8817891,19.2460492 31.5156549,19.0012681 L31.5156549,15.1472413 C31.5156549,14.8833366 31.5105431,14.6385555 31.5028752,14.412898 L29.4389777,14.412898 C29.4095846,13.7295509 29.3201276,13.0130561 29.2127794,12.5974384 L34.2351438,12.768275 C34.0511182,13.3598293 34.0306709,14.0852481 34.0306709,15.3295519 L34.0306709,17.308199 C34.0306709,18.6965669 34.11246,19.6336192 34.2351438,20.102783 C32.4971246,20.8180029 30.7591054,21.1851746 29.000639,21.1851746 C26.4038338,21.1851746 24.4,20.4699546 22.9482428,19.042065 C21.5169329,17.6141753 20.6862618,15.7030983 20.6862618,13.2552875 C20.6862618,10.7870783 21.5795526,8.76253481 23.1731629,7.19185622 C24.7476038,5.64157606 26.8332268,4.86643597 29.4300319,4.86643597 C31.6562298,4.86643597 32.4575079,5.15073875 33.6447283,5.55870722 L33.2536741,7.51823099" id="Path"></path>
            </g>
        </g>
    </g>
</svg>