<?xml version="1.0" encoding="UTF-8"?>
<svg width="50px" height="30px" viewBox="0 0 50 30" version="1.1" xmlns="http://www.w3.org/2000/svg" xmlns:xlink="http://www.w3.org/1999/xlink">
    <title>Maestro-card-dark</title>
    <g id="Anasayfa" stroke="none" stroke-width="1" fill="none" fill-rule="evenodd">
        <g id="anasayfa" transform="translate(-1178.000000, -4408.000000)" fill-rule="nonzero">
            <g id="Group-10" transform="translate(1121.250000, 4408.000000)">
                <g id="Maestro-card-dark" transform="translate(56.750000, 0.000000)">
                    <rect id="Rectangle" fill="#000066" x="0" y="0" width="50" height="30" rx="2"></rect>
                    <path d="M41.8282449,14.9918665 C41.8282449,20.5195347 37.3653172,25 31.8586658,25 C26.3531173,25 21.8895593,20.5195347 21.8895593,14.9918665 C21.8895593,9.4640402 26.3531173,4.9834167 31.8586658,4.9834167 C37.3653172,4.9834167 41.8282449,9.4640402 41.8282449,14.9918665" id="Fill-356" fill="#CC0000"></path>
                    <path d="M24.1574212,21.3475224 C23.8821516,21.0123732 23.6286264,20.6582444 23.3981058,20.2875083 L26.9313882,20.2875083 C27.1434734,19.9477724 27.3349173,19.5938017 27.5058774,19.2276524 L22.8239316,19.2276524 C22.6643163,18.8847532 22.522506,18.5310988 22.4018097,18.1681128 L27.9272116,18.1681128 C28.2599931,17.170099 28.4397771,16.102493 28.4397771,14.9918665 C28.4397771,14.2646291 28.3625692,13.5554225 28.2160319,12.872471 L22.1137772,12.872471 C22.1909851,12.5113829 22.2883615,12.158045 22.4030702,11.8126151 L27.9265813,11.8126151 C27.8054123,11.4496291 27.6643898,11.0961329 27.5049321,10.7532337 L22.8248771,10.7532337 C22.9958373,10.3870844 23.1877538,10.0337464 23.3992088,9.6932196 L26.9302852,9.6932196 C26.6999223,9.32343255 26.4457667,8.96993635 26.1709698,8.6343127 L24.1586817,8.6343127 C24.4683008,8.2570919 24.8047064,7.90296305 25.1649045,7.57508945 C23.3954272,5.964507 21.046891,4.9834167 18.4708282,4.9834167 C12.9644919,4.9834167 8.50093395,9.4640402 8.50093395,14.9918665 C8.50093395,20.5195347 12.9644919,25 18.4708282,25 C21.0470487,25 23.3957423,24.0189097 25.1649045,22.40896 C25.5255754,22.0804536 25.8624536,21.7255339 26.1720728,21.3475224 L24.1574212,21.3475224" id="Fill-357" fill="#0066CC"></path>
                    <path d="M25.0227792,17.6964682 C24.5967179,17.8097136 24.1846802,17.8650709 23.7491651,17.8641339 C22.3595817,17.8628566 21.6358765,17.2275124 21.6358765,16.0124978 C21.6358765,14.5929773 22.5571708,13.5489378 23.80778,13.5489378 C24.830705,13.5489378 25.4836626,14.1343021 25.4836626,15.0514943 C25.4836626,15.3558015 25.4395438,15.6523587 25.3312953,16.0714929 L22.8601721,16.0714929 C22.7722497,16.6649236 23.2038257,16.9254195 23.9385606,16.9254195 C24.3786453,16.9254195 24.7765019,16.8460212 25.2173744,16.6680869 L25.0227792,17.6964682 L25.0227792,17.6964682 Z M24.3583191,15.2343317 C24.3583191,15.144811 24.4957175,14.507727 23.7805209,14.4939668 C23.385658,14.4939668 23.1025101,14.7574677 22.9879589,15.2343317 L24.3583191,15.2343317 L24.3583191,15.2343317 Z" id="Fill-359" fill="#000066"></path>
                    <path d="M25.8599326,14.9559633 C25.8599326,15.4802764 26.1539526,15.8426298 26.8225094,16.1122992 C27.3334992,16.3223407 27.4138584,16.3832338 27.4138584,16.5709743 C27.4138584,16.8311538 27.1882224,16.9504094 26.6868442,16.9472461 C26.3104167,16.9445573 25.966763,16.8985316 25.5613431,16.7857608 L25.3818743,17.7421776 C25.7423876,17.8261626 26.2477049,17.8536831 26.695668,17.8641219 C28.0301028,17.8641219 28.6461898,17.4255336 28.6461898,16.4774995 C28.6461898,15.907477 28.3891981,15.5723278 27.7554636,15.322429 C27.2257233,15.1098568 27.1636419,15.0641474 27.1636419,14.871662 C27.1636419,14.645804 27.3735211,14.5316097 27.7827227,14.5316097 C28.0308907,14.5316097 28.3704476,14.5543853 28.6928297,14.5936099 L28.873559,13.6319738 C28.5451894,13.5862644 28.0471201,13.5495704 27.7586149,13.5495704 C26.3449238,13.5495704 25.8556783,14.1883942 25.8599326,14.9559633" id="Fill-360" fill="#000066"></path>
                    <path d="M20.958496,17.7956369 L19.9218627,17.7956369 L19.9466007,17.3597374 C19.6305213,17.7035856 19.2093447,17.8638055 18.6380068,17.8638055 C17.9617293,17.8638055 17.4984822,17.3995947 17.4984822,16.7319851 C17.4984822,15.7172059 18.3038072,15.1318415 19.6885059,15.1318415 C19.8307889,15.1318415 20.0118335,15.1425966 20.1977625,15.1636324 C20.2362089,15.0277697 20.2466083,14.9692491 20.2466083,14.8955447 C20.2466083,14.617809 20.0286931,14.515477 19.4460104,14.515477 C18.8715211,14.5176913 18.4839063,14.6032579 18.1241808,14.7002124 L18.3012861,13.76926 C18.9233606,13.6104635 19.3305138,13.5489378 19.7913972,13.5489378 C20.8636407,13.5489378 21.4299364,13.9712352 21.4299364,14.7642687 C21.4389178,14.9760502 21.3656491,15.4008782 21.3286209,15.5868789 C21.2867081,15.8571809 20.9895367,17.4255336 20.958496,17.7956369 L20.958496,17.7956369 Z M20.0485466,15.944171 C19.9172933,15.9312016 19.8600965,15.9272475 19.7701257,15.9272475 C19.0631225,15.9272475 18.7046577,16.1385543 18.7046577,16.5556325 C18.7046577,16.8175517 18.879557,16.9812514 19.1523055,16.9812514 C19.6603015,16.9812514 20.0271174,16.5546834 20.0485466,15.944171 L20.0485466,15.944171 Z" id="Fill-361" fill="#000066"></path>
                    <path d="M30.8303836,17.7298408 C30.4903539,17.8233157 30.2251687,17.8641219 29.9385544,17.8641219 C29.3035594,17.8641219 28.9567544,17.5383044 28.9567544,16.9581594 C28.9367434,16.7987302 29.0919468,16.0623194 29.1272419,15.8571809 C29.1622218,15.6514097 29.7122881,12.6516743 29.7122881,12.6516743 L30.9460377,12.6516743 L30.7594784,13.6443106 L31.3922674,13.6443106 L31.2203618,14.6570337 L30.5847366,14.6570337 C30.5847366,14.6570337 30.2360408,16.4153411 30.2360408,16.5497803 C30.2360408,16.762827 30.3646155,16.8555111 30.6600536,16.8555111 C30.8012337,16.8555111 30.9104276,16.8422253 30.9947259,16.8169191 L30.8303836,17.7298408" id="Fill-362" fill="#000066"></path>
                    <path d="M36.3431801,13.5489378 C35.4389031,13.5489378 34.7323727,13.9229953 34.3219106,14.5467935 L34.6781697,13.6212187 C34.0217455,13.3793862 33.5985206,13.7246578 33.2161055,14.2152821 C33.2161055,14.2152821 33.1519757,14.2967364 33.0880035,14.3712316 L33.0880035,13.6438361 L31.9295709,13.6438361 C31.7726342,14.927652 31.4951587,16.2296568 31.278189,17.5163196 L31.2257191,17.7961115 L32.4719166,17.7961115 C32.5902494,17.1432111 32.6873106,16.6133623 32.7840567,16.1907485 C33.0487693,15.0314075 33.4943688,14.6771205 34.1632407,14.834019 C34.008825,15.1669539 33.9242116,15.5528737 33.9242116,15.9797579 C33.9242116,17.0162056 34.4845198,17.8641219 35.8766242,17.8641219 C37.2811764,17.8641219 38.2982715,17.1109457 38.2982715,15.3934445 C38.2982715,14.3576295 37.6204182,13.5489378 36.3431801,13.5489378 L36.3431801,13.5489378 Z M35.9804609,16.8567764 C35.5403763,16.8635775 35.2734577,16.4928414 35.2734577,15.9380026 C35.2734577,15.2806737 35.6628058,14.5377781 36.2885043,14.5377781 C36.7933491,14.5377781 36.9662,14.9396725 36.9662,15.367822 C36.9662,16.3028866 36.5844152,16.8567764 35.9804609,16.8567764 L35.9804609,16.8567764 Z" id="Fill-363" fill="#000066"></path>
                    <polyline id="Fill-364" fill="#000066" points="16.9178479 17.7961115 15.6766926 17.7961115 16.4142637 13.8951585 14.7161642 17.7961115 13.5848331 17.7961115 13.3781053 13.9180922 12.6381706 17.7961115 11.5121969 17.7961115 12.4711496 12.721899 14.4106418 12.721899 14.5721479 15.5506594 15.8008554 12.721899 17.8960238 12.721899 16.9178479 17.7961115"></polyline>
                    <path d="M25.3341315,17.3837783 C24.9083855,17.4971818 24.4961902,17.5525392 24.0608326,17.5516021 C22.6712492,17.5503248 21.947544,16.9148225 21.947544,15.6999661 C21.947544,14.2804455 22.8686807,13.236406 24.1191324,13.236406 C25.1422149,13.236406 25.7953301,13.8217704 25.7953301,14.7388044 C25.7953301,15.0431116 25.7510538,15.3390362 25.6429628,15.7589611 L23.1719971,15.7589611 C23.0839172,16.3517593 23.5151781,16.6127296 24.249913,16.6127296 C24.6899976,16.6127296 25.0881694,16.5333314 25.5288843,16.3550807 L25.3341315,17.3837783 L25.3341315,17.3837783 Z M24.6696715,14.9218 C24.6696715,14.832121 24.8070699,14.1951952 24.0921884,14.1812768 C23.6973255,14.1812768 23.4141776,14.4447778 23.2993113,14.9218 L24.6696715,14.9218 L24.6696715,14.9218 Z" id="Fill-366" fill="#FFFFFF"></path>
                    <path d="M26.1716001,14.6431152 C26.1716001,15.1675865 26.4654626,15.5296236 27.1338618,15.7996092 C27.6451667,16.009809 27.7253683,16.0705439 27.7253683,16.2578099 C27.7253683,16.5184639 27.4995748,16.6377194 26.9986693,16.6347143 C26.6217691,16.6318674 26.2781154,16.5858417 25.8730107,16.4730709 L25.6932267,17.4291714 C26.0538975,17.5134727 26.55953,17.5409931 27.0070204,17.5515901 C28.3414552,17.5515901 28.9578574,17.1128436 28.9578574,16.1644932 C28.9578574,15.5947871 28.700708,15.2593215 28.0669736,15.0097391 C27.5372333,14.797325 27.4749943,14.750983 27.4749943,14.5591303 C27.4749943,14.3332723 27.6851887,14.2186035 28.0942326,14.2186035 C28.3424006,14.2186035 28.6817999,14.2418536 29.0043396,14.2810782 L29.185069,13.319442 C28.8566993,13.2731001 28.35863,13.2368805 28.07044,13.2368805 C26.6564338,13.2368805 26.1671882,13.875388 26.1716001,14.6431152" id="Fill-367" fill="#FFFFFF"></path>
                    <path d="M21.2701635,17.482947 L20.2332151,17.482947 L20.2582683,17.0470475 C19.9420312,17.3905793 19.5211698,17.5506412 18.9496743,17.5506412 C18.2735544,17.5506412 17.8098346,17.0865885 17.8098346,16.4189788 C17.8098346,15.404516 18.6153171,14.8191516 20.000016,14.8191516 C20.1422989,14.8191516 20.3231859,14.8300649 20.50943,14.8503099 C20.5478764,14.7147634 20.5581182,14.6567173 20.5581182,14.5828548 C20.5581182,14.3044865 20.3403607,14.2026289 19.7578355,14.2026289 C19.1831886,14.2050014 18.7955738,14.290568 18.4360059,14.3876807 L18.6126385,13.4565701 C19.2348706,13.2977736 19.6418661,13.236406 20.1030648,13.236406 C21.1753081,13.236406 21.7414464,13.658229 21.7414464,14.4515788 C21.7507429,14.6635184 21.6770015,15.0875557 21.640446,15.2741889 C21.5980604,15.544491 21.3010466,17.1128436 21.2701635,17.482947 L21.2701635,17.482947 Z M20.3600565,15.6316392 C20.2289607,15.6180371 20.1716064,15.6145576 20.0814781,15.6145576 C19.3747901,15.6145576 19.0161676,15.8255481 19.0161676,16.2423099 C19.0161676,16.5047036 19.1913821,16.6687195 19.4636579,16.6687195 C19.971969,16.6687195 20.338785,16.2416772 20.3600565,15.6316392 L20.3600565,15.6316392 Z" id="Fill-368" fill="#FFFFFF"></path>
                    <path d="M31.1418935,17.4171509 C30.8017063,17.5107838 30.5366786,17.5515901 30.2499067,17.5515901 C29.6149117,17.5515901 29.2684219,17.2256144 29.2684219,16.6454695 C29.2482533,16.4860403 29.4034568,15.7496295 29.4385942,15.544491 C29.4738892,15.3387198 30.0239556,12.3389844 30.0239556,12.3389844 L31.2575477,12.3389844 L31.0711459,13.3313043 L31.703935,13.3313043 L31.5318718,14.3443438 L30.8964041,14.3443438 C30.8964041,14.3443438 30.5473932,16.1026512 30.5473932,16.2364578 C30.5473932,16.4502953 30.6761254,16.5423466 30.9715636,16.5423466 C31.1127436,16.5423466 31.2217799,16.5296936 31.306551,16.504071 L31.1418935,17.4171509" id="Fill-369" fill="#FFFFFF"></path>
                    <path d="M37.2780251,15.0544994 C37.2780251,15.9903548 36.8957676,16.5442446 36.2918132,16.5442446 C35.8517286,16.5505712 35.5849677,16.1803097 35.5849677,15.6254708 C35.5849677,14.9681419 35.9743158,14.2250882 36.5998568,14.2250882 C37.104859,14.2250882 37.2780251,14.6269825 37.2780251,15.0544994 L37.2780251,15.0544994 Z M38.6097814,15.0807546 C38.6097814,14.0450978 37.9317706,13.236406 36.6548477,13.236406 C35.1858505,13.236406 34.2357215,14.2192362 34.2357215,15.6672261 C34.2357215,16.7035156 34.7960298,17.5515901 36.1882917,17.5515901 C37.592844,17.5515901 38.6097814,16.798414 38.6097814,15.0807546 L38.6097814,15.0807546 Z" id="Fill-370" fill="#FFFFFF"></path>
                    <path d="M32.2409233,13.3308298 C32.0841441,14.614962 31.8065111,15.9168086 31.5896989,17.2033133 L31.5373866,17.4835797 L32.7834265,17.4835797 C33.2324924,14.9986675 33.383284,14.2908843 34.3244317,14.5399924 L34.7771217,13.3643605 C34.12054,13.122528 33.6981029,13.4679579 33.3156878,13.9588984 C33.350195,13.7379435 33.4151126,13.5245805 33.3995134,13.3308298 L32.2409233,13.3308298" id="Fill-371" fill="#FFFFFF"></path>
                    <polyline id="Fill-372" fill="#FFFFFF" points="17.2293578 17.4835797 15.9885177 17.4835797 16.7259312 13.5826266 15.0276741 17.4835797 13.8963431 17.4835797 13.6894576 13.6054022 12.949523 17.4835797 11.8237068 17.4835797 12.782502 12.4092091 14.7221518 12.4092091 14.8245703 15.5506594 16.1898884 12.4092091 18.2075337 12.4092091 17.2293578 17.4835797"></polyline>
                </g>
            </g>
        </g>
    </g>
</svg>