<?xml version="1.0" encoding="UTF-8"?>
<svg width="83px" height="26px" viewBox="0 0 83 26" version="1.1" xmlns="http://www.w3.org/2000/svg" xmlns:xlink="http://www.w3.org/1999/xlink">
    <title>tuerkiye-bankas-logo</title>
    <g id="Anasayfa" stroke="none" stroke-width="1" fill="none" fill-rule="evenodd">
        <g id="MusteriPaneli-Bildirim" transform="translate(-822.000000, -349.000000)" fill="#00559F" fill-rule="nonzero">
            <g id="tuerkiye-bankas-logo" transform="translate(822.000000, 349.000000)">
                <path d="M52.8442596,14.1690644 C52.8442596,14.5698542 52.5774413,14.8300252 52.010057,14.8300252 L50.4560777,14.8300252 L50.4560777,13.5160035 L52.010057,13.5160035 C52.5774413,13.5160035 52.8442596,13.7350949 52.8442596,14.1690644 M52.6612835,12.1387823 C52.6612835,12.4215998 52.4856896,12.6180447 52.0021474,12.6180447 L50.4571323,12.6180447 L50.4571323,11.6526732 L51.9415068,11.6526732 C52.4529964,11.6526732 52.6612835,11.8196251 52.6612835,12.1387823 M54.0481058,14.1558978 C54.0481058,13.5976361 53.6974454,13.2273927 53.2286678,13.0462209 C53.6146579,12.8434561 53.8472011,12.4937525 53.8472011,12.058203 C53.8472011,11.188684 53.1290064,10.7162682 51.9937104,10.7162682 L49.3107628,10.7162682 L49.3107628,15.7953967 L51.9683996,15.7953967 C53.2212855,15.7953967 54.0481058,15.2223884 54.0481058,14.1553712 M57.6912829,13.6998085 L56.3529729,13.6998085 L56.7299988,12.7770966 C56.8475887,12.4805859 56.9630693,12.1756486 57.0216006,11.986577 C57.0817138,12.1761753 57.1971945,12.4805859 57.3147843,12.77657 L57.6912829,13.6998085 Z M59.8384847,15.7959233 L57.6153504,10.7162682 L56.4795271,10.7162682 L54.2411009,15.7953967 L55.4934595,15.7953967 L55.9538001,14.6636 L58.0920376,14.6636 L58.5507964,15.7959233 L59.8384847,15.7959233 Z M65.0772984,15.7959233 L65.0772984,10.7162682 L63.9235466,10.7162682 L63.9235466,12.8650492 C63.9235466,13.14734 63.9404204,13.7856544 63.9404204,13.9752527 C63.864488,13.8446406 63.6709656,13.5897361 63.5296468,13.4011911 L61.4573229,10.7162682 L60.3394281,10.7162682 L60.3394281,15.7953967 L61.491598,15.7953967 L61.491598,13.5612964 C61.491598,13.2779522 61.4747241,12.6396379 61.4747241,12.4500395 C61.549602,12.5811784 61.7415424,12.8355561 61.8839158,13.0241011 L64.0305903,15.79487 L65.0757165,15.79487 L65.0772984,15.7959233 Z M80.9287307,14.2580702 C80.9287307,13.15524 79.901533,12.8792691 78.9734694,12.6901974 C78.0469877,12.5005991 77.7959886,12.39948 77.7959886,12.0803228 C77.7959886,11.8559648 78.0042756,11.6237068 78.6317732,11.6237068 C79.1669917,11.6237068 79.5830384,11.8122518 79.959537,12.1451022 L80.8021766,11.4351618 C80.2516661,10.9343062 79.5830384,10.6356889 78.6729033,10.6356889 C77.5191515,10.6356889 76.5847601,11.2018505 76.5847601,12.1245624 C76.5847601,13.1252202 77.3367026,13.4227843 78.4134673,13.6402957 C79.5171248,13.8583338 79.7175022,14.0026392 79.7175022,14.3291696 C79.7175022,14.7125796 79.3921526,14.8805848 78.6976868,14.8805848 C78.1376848,14.8805848 77.6114305,14.7120529 77.2022388,14.3002032 L76.3585446,14.9527375 C76.8020114,15.5183725 77.6536152,15.8743963 78.6317732,15.8743963 C80.2263553,15.8749227 80.9287307,15.2223884 80.9287307,14.2575436 M83,10.7167948 L81.8304289,10.7167948 L81.8304289,15.7953967 L83,15.7953967 L83,10.7167948 Z M73.870174,12.7770966 C73.7639969,12.5167933 73.6662186,12.2531508 73.5769903,11.986577 C73.518459,12.1761753 73.4013964,12.4805859 73.2853885,12.77657 L72.9083626,13.6998085 L74.2450906,13.6998085 L73.870174,12.7770966 Z M71.2990159,15.7953967 L69.8953197,15.7953967 L68.3081199,13.343785 L67.372674,14.3007299 L67.372674,15.7953967 L66.2031029,15.7953967 L66.2031029,10.7162682 L67.372674,10.7162682 L67.372674,12.1603754 C67.372674,12.3489204 67.3631824,12.8065897 67.3558001,12.9672216 C67.4396422,12.849776 67.6563661,12.6180447 67.8145588,12.4510929 L69.4529075,10.7162682 L70.8639861,10.7162682 L69.1518141,12.4721593 L71.0000318,15.3324608 L73.0354441,10.7162682 L74.1707401,10.7162682 L76.3928197,15.7953967 L75.1056587,15.7953967 L74.6453181,14.6636 L72.5065532,14.6636 L72.0477945,15.7959233 L71.2990159,15.7953967 Z M22.3805709,9.74405007 C22.3906238,9.39045073 22.6805212,9.10901379 23.0346976,9.10901379 C23.3888739,9.10901379 23.6787714,9.39045073 23.6888242,9.74405007 C23.6888242,10.1050165 23.3958437,10.3976376 23.0344339,10.3976376 C22.6730241,10.3976376 22.3800436,10.1050165 22.3800436,9.74405007 M10.0151776,13.5533965 L10.0151776,10.7162682 L8.84507919,10.7162682 L8.84507919,13.568143 C8.84507919,14.3802558 8.38526585,14.8811114 7.64281494,14.8811114 C6.89983672,14.8811114 6.44793301,14.3665626 6.44793301,13.5539231 L6.44793301,10.7162682 L5.27941653,10.7162682 L5.27941653,13.568143 C5.27941653,15.0480633 6.23173637,15.8749229 7.64386956,15.8749229 C9.12929868,15.8754493 10.0151776,15.0259435 10.0151776,13.5533965 M6.10254569,9.73509681 C6.10254569,9.37380667 6.39572943,9.08045592 6.75693602,9.08045592 C7.11827715,9.08045592 7.41122913,9.37297023 7.41132613,9.73386808 C7.41142308,10.0947659 7.11862835,10.3874371 6.75728727,10.3876311 C6.3959462,10.3878248 6.10283686,10.0954679 6.10254569,9.73457015 M7.90225042,9.73457015 C7.90181407,9.37389457 8.19420439,9.08115555 8.55532296,9.08071876 C8.91644153,9.08028295 9.2095401,9.37231459 9.20997781,9.73299016 C9.21055938,10.0936657 8.91828711,10.3865226 8.55716854,10.3871053 C8.19604997,10.3876861 7.90283336,10.0957724 7.90225042,9.73509681 M34.3520644,15.7953967 L34.3520644,14.8015855 L31.3358576,14.8015855 L31.3358576,13.5760429 L33.0158637,13.5760429 L33.0158637,12.5890783 L31.3358576,12.5890783 L31.3358576,11.7100794 L34.2270922,11.7100794 L34.2270922,10.7162682 L30.1673412,10.7162682 L30.1673412,15.79487 L34.3515371,15.79487 L34.3520644,15.7953967 Z M29.7328386,10.7167948 L28.4050749,10.7167948 L27.5771999,11.9217975 C27.3568265,12.2473016 27.1452984,12.5786929 26.9428473,12.9156088 C26.741005,12.57809 26.5291081,12.2466716 26.3074401,11.9217975 L25.4811471,10.7173215 L24.1365095,10.7173215 L26.3501522,13.8088275 L26.3501522,15.7959233 L27.5197233,15.7959233 L27.5197233,13.7861811 L29.7328386,10.7167948 Z M21.7831299,15.7953967 L19.6369828,12.4721593 L21.3491547,10.7167948 L19.9370215,10.7167948 L18.3002548,12.4505662 C18.1420621,12.6180447 17.9242835,12.8503027 17.8404414,12.966695 C17.8478237,12.8060631 17.8573153,12.3489204 17.8573153,12.1609021 L17.8573153,10.7173215 L16.6866896,10.7173215 L16.6866896,15.7959233 L17.8573153,15.7959233 L17.8573153,14.3012565 L18.7932886,13.3443116 L20.379961,15.7959233 L21.7831299,15.7953967 Z M14.5906368,12.3483938 C14.5906368,12.7907899 14.2985077,13.0093546 13.7559068,13.0093546 L12.2261837,13.0093546 L12.2261837,11.7021795 L13.7553795,11.7021795 C14.2737241,11.7021795 14.5906368,11.8907245 14.5906368,12.3478671 M15.7934283,15.79487 L14.6744789,13.8209408 C15.4179844,13.568143 15.7934283,13.0888806 15.7934283,12.3268006 C15.7934283,11.2460901 14.8827659,10.7162682 13.7806903,10.7162682 L11.0576673,10.7162682 L11.0576673,15.79487 L12.2272384,15.79487 L12.2272384,13.9673528 L13.4052464,13.9673528 L14.449318,15.79487 L15.7934283,15.79487 Z M4.5295833,11.7190326 L4.5295833,10.7167948 L0,10.7167948 L0,11.718506 L1.67947879,11.718506 L1.67947879,15.7953967 L2.84904989,15.7953967 L2.84904989,11.7190326 L4.5295833,11.7190326 Z M23.6197468,10.7167948 L22.4501757,10.7167948 L22.4501757,15.7953967 L23.6197468,15.7953967 L23.6197468,10.7167948 Z M38.6348672,21.5655058 C38.7904233,21.6018455 39.5713678,21.8709698 39.5713678,21.8709698 C40.1461344,22.1127076 40.6249309,22.2854528 41.1585675,22.3818319 C40.6838091,22.617366 40.3835323,23.1010958 40.3834234,23.6305476 C40.3834234,24.2198824 40.7499031,24.678605 41.2656112,24.8613567 C41.4696797,24.9608958 41.4949906,25.0341019 41.5535219,25.2163269 C41.6030889,25.3722189 41.4406778,26 41.4406778,26 L41.8018843,26 C41.8018843,26 42.0360095,25.7113892 42.3645229,25.2579332 C42.5079509,25.0609616 42.728366,24.6628051 42.8591386,24.4858467 C43.0347325,24.2277823 43.1771059,23.9828845 43.1771059,23.6316009 C43.1771059,23.1491785 42.93138,22.7246889 42.5606818,22.4729444 C42.6461059,22.4708378 42.6656163,22.4660978 42.6656163,22.4660978 C43.4723989,22.4186983 44.2211775,22.1111276 44.2211775,22.1111276 C46.784426,21.2421353 47.3692115,18.9817019 47.3692115,18.9817019 C47.4730671,18.589852 47.5258823,18.1862589 47.5263496,17.7809125 C47.5263496,16.407378 46.798136,15.1702489 45.8479254,14.3186364 C45.8479254,14.3186364 45.555269,14.0358189 45.3132342,13.8588604 C44.8144,13.4712372 43.2161268,12.6201514 43.2161268,12.6201514 C43.2161268,12.6201514 40.5305426,11.1628776 39.8540053,10.7410213 C39.1779953,10.3186383 38.8589735,9.9863146 38.8589735,9.9863146 C38.3406288,9.5439185 38.0073696,8.94194381 38.0073696,8.17828388 C38.0073696,6.99066102 39.0804432,6.16116834 40.3312199,5.95155685 C40.3312199,5.95155685 40.4166439,5.94155028 40.5384523,5.93470367 L40.5384523,10.4819036 L42.9925478,11.8343716 L42.9925478,4.80290699 C43.0120582,4.62120859 42.9271615,4.00080073 43.5884068,3.82331563 L43.9490861,3.72851647 L43.9490861,3.38091953 L39.5829686,3.38091953 L39.5829686,3.72956979 L39.9262466,3.82015566 C40.6064751,3.99237414 40.5189418,4.62068193 40.5384523,4.80396031 L40.5384523,5.27321617 C40.4366816,5.28058944 40.3291106,5.28796271 40.2331404,5.30586922 C38.0363716,5.61554649 36.4354618,7.3487912 36.4354618,9.44332605 C36.4354618,11.0027723 37.1773854,11.9792037 38.3601393,12.8661025 C38.9744541,13.3269318 39.3920827,13.52601 40.1324244,13.9315398 L40.5389796,14.1574778 L40.5389796,18.6025053 C40.5199964,18.786837 40.6048932,19.4056648 39.9431205,19.5820966 L39.5829686,19.6790024 L39.5829686,20.0265994 L43.9490861,20.0265994 L43.9490861,19.6790024 L43.6047534,19.5884166 C42.9255796,19.4151448 43.0125855,18.7873636 42.9936024,18.6019786 L42.9925478,15.5246924 L43.4702896,15.7922367 C43.4702896,15.7922367 44.9077337,16.4911172 45.461408,17.7566861 C46.0171915,19.0212016 45.6549303,20.8360789 43.440233,21.6318652 C43.440233,21.6318652 40.8047432,22.4497713 38.416034,20.214091 C38.416034,20.214091 37.5913229,19.350892 37.1847678,18.1917089 C37.1209634,18.0110638 37.0476675,17.7198197 37.0476675,17.7198197 L36.7022801,17.7198197 L36.7022801,22.1232409 L36.9954639,22.1232409 C36.9954639,22.1232409 37.171585,21.8672831 37.32345,21.7435175 C37.3635255,21.7098112 37.3935821,21.6855847 37.431021,21.6634649 C37.6234888,21.5460193 37.9003259,21.3948673 38.5837182,21.5502326 L38.6348672,21.5655058 Z M46.0836325,5.71297896 L46.0836325,5.50968742 L45.7672471,5.50968742 L45.5995629,5.76353851 C45.4476979,5.95735014 45.3105976,6.02686952 45.0174139,6.05741592 C44.6783543,6.09586225 44.2433245,5.91153054 44.2433245,5.91153054 L43.6010622,5.6555728 L43.6010622,6.30336708 C43.878954,6.45925904 44.0039262,6.58565793 44.1394446,6.68519705 C44.3081835,6.81001595 44.5739471,7.06913366 44.8855867,7.48730331 C45.1966989,7.90599961 45.425551,8.43792825 45.4999015,8.66439292 C45.555269,8.82871147 45.6285649,9.17683507 45.6633673,9.37854662 L45.7071339,9.64872424 L46.0836325,9.64872424 L46.0836325,5.71297896 Z M40.3412387,1.39593038 C40.3314167,1.91076626 40.6008287,2.39073883 41.0457044,2.65097552 C41.49058,2.91121221 42.041509,2.91111037 42.4862882,2.65070922 C42.9310674,2.39030807 43.2003014,1.91023593 43.1902886,1.39540371 C43.1752138,0.620295817 42.5417113,-0.000143436105 41.765505,2.48730028e-08 C40.9892988,0.000143535616 40.3560263,0.620816959 40.3412387,1.39593038" id="Shape"></path>
            </g>
        </g>
    </g>
</svg>