<?xml version="1.0" encoding="UTF-8"?>
<svg width="237px" height="226px" viewBox="0 0 237 226" version="1.1" xmlns="http://www.w3.org/2000/svg" xmlns:xlink="http://www.w3.org/1999/xlink">
    <title>wallet</title>
    <g id="Anasayfa" stroke="none" stroke-width="1" fill="none" fill-rule="evenodd">
        <g id="MusteriPaneli-Cuzdan" transform="translate(-946.000000, -294.000000)" fill="#1F2476" fill-rule="nonzero">
            <g id="wallet" transform="translate(661.000000, 272.000000)">
                <g transform="translate(285.000000, 22.000000)">
                    <path d="M202.43695,58 L34.5625868,58 C15.5035654,58 0,73.5151682 0,92.5879901 L0,191.411547 C0,210.484369 15.5035654,226 34.5625868,226 L202.437413,226 C221.495972,226 237,210.484832 237,191.411547 L237,92.5879901 C237,73.5151682 221.495972,58 202.43695,58 Z M227.124711,191.41201 C227.124711,205.029763 216.054703,216.117783 202.437413,216.117783 L34.5625868,216.117783 C20.9448341,216.117783 9.87528931,205.029763 9.87528931,191.41201 L9.87528931,92.5879901 C9.87528931,78.9702371 20.945297,67.8822167 34.5625868,67.8822167 L202.437413,67.8822167 C216.055166,67.8822167 227.124711,78.9702371 227.124711,92.5879901 L227.124711,191.41201 Z" id="Shape"></path>
                    <path d="M192,127 C183.729844,127 177,133.729844 177,142 C177,150.270156 183.729844,157 192,157 C200.270156,157 207,150.270156 207,142 C207,133.729844 200.270156,127 192,127 Z M192,147.000156 C189.249844,147.000156 186.999844,144.76 186.999844,142 C186.999844,139.24 189.249844,136.999844 192,136.999844 C194.750156,136.999844 197.000156,139.24 197.000156,142 C197.000156,144.76 194.750156,147.000156 192,147.000156 Z" id="Shape"></path>
                    <path d="M232.062355,108 L192.562587,108 C173.504028,108 158,123.475491 158,142.5 C158,161.524047 173.503565,177 192.562587,177 L232.062355,177 C234.78785,177 237,174.791856 237,172.071297 L237,112.928703 C237,110.208144 234.78785,108 232.062355,108 Z M227.125174,167.142593 L192.562587,167.142593 C178.944834,167.142593 167.875289,156.082928 167.875289,142.5 C167.875289,128.917072 178.945297,117.857407 192.562587,117.857407 L192.562587,117.857407 L227.125174,117.857407 L227.125174,167.142593 L227.125174,167.142593 Z" id="Shape"></path>
                    <path d="M201.480049,60.8585734 L180.551246,19.0938277 C176.330082,10.6697648 169.04395,4.4655782 160.04785,1.62472841 C151.051751,-1.20641144 141.521344,-0.318645878 133.197646,4.14006416 L31.5991365,58.7279361 C29.1968401,60.01011 28.2973692,63.009093 29.5921254,65.40606 C30.887345,67.803027 33.8925325,68.7005025 36.2850975,67.4086187 L137.90307,12.8401666 C143.834667,9.64421063 150.665734,9.00289249 157.071857,11.0350433 C163.497908,13.0570219 168.697786,17.4958497 171.713168,23.5132356 L192.641971,65.277519 C193.511784,67.0035756 195.251873,68 197.06101,68 C197.80246,68 198.553641,67.8321568 199.265432,67.4770506 C201.707118,66.2540611 202.696026,63.2948425 201.480049,60.8585734 Z" id="Path"></path>
                    <path d="M182.410065,21.5819021 C181.110392,19.1905902 178.117359,18.3084924 175.734471,19.5824805 L102.588624,58.7866726 C100.196044,60.070768 99.300211,63.0404972 100.58973,65.4221612 C101.475871,67.0687437 103.169231,68 104.922128,68 C105.709963,68 106.517182,67.8139325 107.265325,67.4215828 L180.411171,28.2173907 C182.803752,26.9332952 183.700046,23.963566 182.410065,21.5819021 Z" id="Path"></path>
                    <path d="M89.0524851,29 L54.4208085,29 C24.420325,29 0,53.3174717 0,83.2142527 L0,93.0712636 C0,95.7918411 2.21657201,98 4.94751489,98 C7.67845777,98 9.89502978,95.7918411 9.89502978,93.0712636 L9.89502978,83.2142527 C9.89502978,58.7586267 29.8724706,38.8570108 54.4212723,38.8570108 L89.0524851,38.8570108 C91.783428,38.8570108 94,36.6488519 94,33.9282744 C94,31.2076969 91.783428,29 89.0524851,29 Z" id="Path"></path>
                    <path d="M182.916782,29 C180.202803,29 178,31.2081442 178,33.9287034 C178,36.6492627 180.202803,38.8574069 182.916782,38.8574069 C207.313091,38.8574069 227.166436,58.7588895 227.166436,83.2143517 L227.166436,93.0712966 C227.166436,95.7918558 229.369239,98 232.083218,98 C234.797197,98 237,95.7918558 237,93.0712966 L237,83.2143517 C237,53.3173089 212.730908,29 182.916782,29 Z" id="Path"></path>
                </g>
            </g>
        </g>
    </g>
</svg>