<?xml version="1.0" encoding="UTF-8"?>
<svg width="37px" height="36px" viewBox="0 0 37 36" version="1.1" xmlns="http://www.w3.org/2000/svg" xmlns:xlink="http://www.w3.org/1999/xlink">
    <title>wallet</title>
    <g id="Anasayfa" stroke="none" stroke-width="1" fill="none" fill-rule="evenodd">
        <g id="MusteriPaneli-Cuzdan" transform="translate(-1105.000000, -307.000000)" fill="#FFFFFF" fill-rule="nonzero">
            <g id="wallet" transform="translate(1105.000000, 307.000000)">
                <path d="M31.6040809,9.23893805 L5.39584688,9.23893805 C2.42038785,9.23893805 0,11.7103808 0,14.7485294 L0,30.4903349 C0,33.5284835 2.42038785,36 5.39584688,36 L31.6041531,36 C34.5795399,36 37,33.5285573 37,30.4903349 L37,14.7485294 C37,11.7103808 34.5795399,9.23893805 31.6040809,9.23893805 Z M35.4582882,30.4904087 C35.4582882,32.6596083 33.7300591,34.4258416 31.6041531,34.4258416 L5.39584688,34.4258416 C3.26986861,34.4258416 1.54171183,32.6596083 1.54171183,30.4904087 L1.54171183,14.7485294 C1.54171183,12.5793298 3.26994088,10.8130965 5.39584688,10.8130965 L31.6041531,10.8130965 C33.7301314,10.8130965 35.4582882,12.5793298 35.4582882,14.7485294 L35.4582882,30.4904087 Z" id="Shape"></path>
                <path d="M29.9746835,20.2300885 C28.6835621,20.2300885 27.6329114,21.302099 27.6329114,22.619469 C27.6329114,23.936839 28.6835621,25.0088496 29.9746835,25.0088496 C31.265805,25.0088496 32.3164557,23.936839 32.3164557,22.619469 C32.3164557,21.302099 31.265805,20.2300885 29.9746835,20.2300885 Z M29.9746835,23.4159541 C29.5453343,23.4159541 29.1940684,23.059115 29.1940684,22.619469 C29.1940684,22.179823 29.5453343,21.822984 29.9746835,21.822984 C30.4040328,21.822984 30.7552987,22.179823 30.7552987,22.619469 C30.7552987,23.059115 30.4040328,23.4159541 29.9746835,23.4159541 Z" id="Shape"></path>
                <path d="M36.2291441,17.2035398 L30.0625135,17.2035398 C27.0871268,17.2035398 24.6666667,19.6686623 24.6666667,22.699115 C24.6666667,25.7294942 27.0870545,28.1946903 30.0625135,28.1946903 L36.2291441,28.1946903 C36.6546433,28.1946903 37,27.8429505 37,27.4095871 L37,17.988643 C37,17.5552796 36.6546433,17.2035398 36.2291441,17.2035398 Z M35.4583604,26.6244839 L30.0625135,26.6244839 C27.9365353,26.6244839 26.2083785,24.8627673 26.2083785,22.699115 C26.2083785,20.5354628 27.9366075,18.7737462 30.0625135,18.7737462 L30.0625135,18.7737462 L35.4583604,18.7737462 L35.4583604,26.6244839 L35.4583604,26.6244839 Z" id="Shape"></path>
                <path d="M31.4546912,9.69428603 L28.1873254,3.04149467 C27.528325,1.69960855 26.3908276,0.711331041 24.9863733,0.258806296 C23.5819189,-0.192171733 22.0940495,-0.0507577505 20.7945693,0.659479247 L4.93319853,9.35489247 C4.55815647,9.55913256 4.41773274,10.0368467 4.61986767,10.4186644 C4.82207496,10.8004822 5.29123926,10.9434429 5.66476205,10.7376561 L21.5291713,2.04533628 C22.4552011,1.53624594 23.5216546,1.43408907 24.5217668,1.75779451 C25.5249898,2.07987959 26.3367851,2.7869495 26.807541,3.74547116 L30.0749069,10.3981889 C30.2107005,10.6731359 30.48236,10.8318584 30.764799,10.8318584 C30.8805528,10.8318584 30.9978258,10.8051223 31.1089493,10.7485567 C31.4901408,10.5537442 31.6445273,10.0823643 31.4546912,9.69428603 Z" id="Path"></path>
                <path d="M28.4775207,3.43782511 C28.2746182,3.05690817 27.8073514,2.91639702 27.4353394,3.11933317 L16.0159455,9.36424873 C15.6424204,9.56879491 15.5025646,10.0418491 15.703882,10.4212292 C15.8422246,10.6835167 16.1065888,10.8318584 16.3802479,10.8318584 C16.5032431,10.8318584 16.6292647,10.8022193 16.7460633,10.7397211 L28.1654572,4.49480559 C28.5389823,4.29025941 28.6789102,3.81720521 28.4775207,3.43782511 Z" id="Path"></path>
                <path d="M13.9027086,4.61946903 L8.49607559,4.61946903 C3.8124558,4.61946903 0,8.49304859 0,13.2553677 L0,14.825511 C0,15.2588773 0.346047107,15.6106195 0.772396839,15.6106195 C1.19874657,15.6106195 1.54479368,15.2588773 1.54479368,14.825511 L1.54479368,13.2553677 C1.54479368,9.35978124 4.66363465,6.18961235 8.496148,6.18961235 L13.9027086,6.18961235 C14.3290584,6.18961235 14.6751055,5.83787021 14.6751055,5.40450389 C14.6751055,4.97113756 14.3290584,4.61946903 13.9027086,4.61946903 Z" id="Path"></path>
                <path d="M28.5566284,4.61946903 C28.1329271,4.61946903 27.7890295,4.9712088 27.7890295,5.40457223 C27.7890295,5.83793566 28.1329271,6.18967543 28.5566284,6.18967543 C32.3653349,6.18967543 35.4648023,9.3598231 35.4648023,13.2553835 L35.4648023,14.8255163 C35.4648023,15.2588797 35.8086998,15.6106195 36.2324011,15.6106195 C36.6561025,15.6106195 37,15.2588797 37,14.8255163 L37,13.2553835 C37,8.49302265 33.2111545,4.61946903 28.5566284,4.61946903 Z" id="Path"></path>
            </g>
        </g>
    </g>
</svg>