<?xml version="1.0" encoding="UTF-8"?>
<svg width="84px" height="15px" viewBox="0 0 84 15" version="1.1" xmlns="http://www.w3.org/2000/svg" xmlns:xlink="http://www.w3.org/1999/xlink">
    <title>209752</title>
    <defs>
        <polygon id="path-1" points="0 0 6.63153255 0 6.63153255 12.2888064 0 12.2888064"></polygon>
    </defs>
    <g id="Anasayfa" stroke="none" stroke-width="1" fill="none" fill-rule="evenodd">
        <g id="MusteriPaneli-Bildirim" transform="translate(-1104.000000, -354.000000)">
            <g id="209752" transform="translate(1104.000000, 354.000000)">
                <polygon id="Path" fill="#064A76" fill-rule="nonzero" points="81.6029773 2.31779642 84 2.31779642 84 0.338462663 81.6029773 0.338462663"></polygon>
                <path d="M39.4685684,8.01587934 C38.8848551,8.39516359 38.4669306,8.58921572 38.4669306,9.37424558 L38.4669306,10.5279752 C38.4669306,11.0819063 38.6154491,11.2935997 38.9694761,11.2935997 C39.3235036,11.2935997 39.4685684,11.0819063 39.4685684,10.5279752 L39.4685684,8.01587934 Z M39.5946365,12.7419363 L39.4892919,12.2726822 C39.071367,12.7419363 38.6154491,12.9747991 37.675982,12.9747991 C36.6760711,12.9959684 35.9680171,12.0592247 35.9870138,10.9337208 L36.0077373,9.33190688 C36.0509113,6.73513359 39.5117423,7.5219279 39.5117423,5.58493238 C39.5117423,5.18095078 39.4892919,4.84047722 39.0299199,4.84047722 C38.5929987,4.84047722 38.4669306,5.18095078 38.4669306,5.58493238 L38.4669306,6.37349069 L36.0077373,6.37349069 L36.0077373,5.58493238 C36.0077373,3.90373348 37.4255727,3.11517518 39.0299199,3.11517518 C41.0746424,3.11517518 42.0123827,4.28478174 42.0123827,5.56199903 L42.0123827,12.7419363" id="Shape" fill="#064A76" fill-rule="nonzero"></path>
                <g id="Clipped" transform="translate(42.884498, 2.711194)">
                    <mask id="mask-2" fill="white">
                        <use xlink:href="#path-1"></use>
                    </mask>
                    <g id="Path"></g>
                    <path d="M3.76995729,3.10660163 C3.76995729,2.68145068 3.54199835,2.44858786 3.22769112,2.44858786 C2.89438764,2.44858786 2.66642871,2.70262003 2.66642871,3.15070477 L2.66642871,7.60332419 C2.66642871,8.02847513 2.89438764,8.26133796 3.20696758,8.26133796 C3.54199835,8.26133796 3.76995729,8.02847513 3.76995729,7.57862639 L3.76995729,3.10660163 Z M6.33104145,7.50100545 C6.33104145,8.99168022 6.08235898,10.2424362 4.45901507,10.2424362 C3.54199835,10.2424362 3.06190281,9.9460653 2.6854254,9.39213382 L2.6854254,12.2888064 L0.290129549,12.2888064 L0.290129549,0.617439527 L2.6854254,0.617439527 L2.66642871,1.57358816 C3.14479696,0.702116916 3.6438892,0.425150948 4.58162902,0.425150948 C5.89584713,0.425150948 6.3327683,1.70236824 6.3327683,2.9160775 L6.3327683,7.47277965" id="Shape" fill="#064A76" fill-rule="nonzero" mask="url(#mask-2)"></path>
                </g>
                <polygon id="Path" fill="#064A76" fill-rule="nonzero" points="50.3674227 12.7419363 52.7627186 12.7419363 52.7627186 3.34980245 50.3674227 3.34980245"></polygon>
                <polyline id="Path" fill="#064A76" fill-rule="nonzero" points="58.639569 12.7278234 57.0732147 8.3828147 56.7019179 9.06376181 56.7019179 12.7278234 53.9923152 12.7278234 53.9923152 0.331406214 56.7019179 0.331406214 56.7019179 4.18422745 58.4306068 0.331406214 61.1194859 0.331406214 58.639569 5.54788614 61.330175 12.7278234"></polyline>
                <path d="M66.5956812,5.90423704 C65.9946986,5.66960977 64.3886241,5.64844042 64.3886241,7.16028499 L64.3886241,12.7419363 L61.9898745,12.7419363 L61.9898745,3.34980245 L64.2228357,3.34980245 L64.2003854,4.35005378 C65.0345079,3.13634453 65.9290738,3.11341118 66.5766845,3.11341118 L66.5766845,5.90423704" id="Path" fill="#064A76" fill-rule="nonzero"></path>
                <path d="M70.8181022,5.43498295 C70.8181022,5.0521707 70.6523139,4.83871322 70.3190104,4.83871322 C69.964983,4.83871322 69.7957409,5.0521707 69.7957409,5.43498295 L69.7957409,6.71220025 L70.8388257,6.71220025 L70.8181022,5.43498295 Z M73.3394661,10.3744974 C73.3394661,12.2479848 72.0701493,12.9747991 70.339734,12.9747991 C68.7561098,12.9747991 67.3382745,12.1862408 67.3382745,10.3356871 L67.3382745,5.94657574 C67.3382745,4.15776565 68.4020828,3.15751387 70.339734,3.15751387 C71.9233576,3.15751387 73.341193,3.81729209 73.341193,5.96950909 L73.341193,8.44279429 L69.8199182,8.44279429 L69.8199182,10.695566 C69.8199182,11.0801423 69.9839796,11.2935997 70.339734,11.2935997 C70.693761,11.2935997 70.8612761,11.0801423 70.8612761,10.695566 L70.8612761,9.31426598 L73.341193,9.31426598 L73.341193,10.3956667" id="Shape" fill="#064A76" fill-rule="nonzero"></path>
                <path d="M78.0609789,5.75605161 C78.0609789,5.32913621 77.8347473,5.09274539 77.5014434,5.11744274 C77.1681399,5.11744274 76.9384541,5.35030556 76.9384541,5.77545651 L76.9574508,10.2527737 C76.9574508,10.6743967 77.1888634,10.9072595 77.5014434,10.9072595 C77.8347473,10.9072595 78.0609789,10.6549913 78.0609789,10.2263119 L78.0609789,5.75605161 Z M78.0609789,12.7419363 L78.0609789,11.7804947 C77.8347473,12.6113917 77.0835189,12.9324604 76.1872257,12.9324604 C74.7072197,12.9324604 74.4153633,11.6534787 74.4153633,10.4644672 L74.4153633,5.90247259 C74.4153633,4.41356182 74.7693904,3.11517518 76.2493963,3.11517518 C77.1042424,3.11517518 77.7708494,3.49798788 78.0609789,3.96547753 L78.0609789,0.347283111 L80.4597289,0.347283111 L80.4597289,12.7419363" id="Shape" fill="#064A76" fill-rule="nonzero"></path>
                <polygon id="Path" fill="#064A76" fill-rule="nonzero" points="81.6029773 12.7560492 84 12.7560492 84 3.3621509 81.6029773 3.3621509"></polygon>
                <polyline id="Path" fill="#064A76" fill-rule="nonzero" points="34.2686869 7.37197847 34.2686869 12.7419363 31.557357 12.7419363 31.557357 7.37197847 29.1810578 0.347283111 32.058176 0.347283111 32.9130221 3.79612275 33.7885913 0.347283111 36.6639827 0.347283111"></polyline>
                <path d="M28.2588605,4.82107187 C26.7080488,0.264369721 22.2663035,0.0121017765 21.8086588,0.00151710277 C19.8226532,-0.0372933676 17.625958,0.666587322 15.9542592,2.33720177 C15.2841981,2.95111285 14.8023757,3.66557821 14.2981029,4.44002362 L14.2963761,4.44178762 L14.2963761,4.44002362 C13.7921033,3.66557821 13.3102809,2.95111285 12.6402198,2.33720177 C10.968521,0.666587322 8.77009896,-0.0372933676 6.78754704,0.00151710277 C6.32990189,0.0121017765 1.88815665,0.264369721 0.337345351,4.82107187 C-0.217009655,6.44934763 -0.0909411263,8.56628237 0.736273591,10.1151727 C1.55312632,11.9075108 3.50804685,13.3664318 5.57003878,13.2147184 C7.0673146,13.1759077 8.70274735,12.2003537 9.30372998,10.6426424 C9.81145647,9.24193749 9.6543033,7.74244182 8.48860411,6.53931747 C8.51796234,6.84627278 8.53177804,7.26965973 8.23474064,7.66482088 C7.76328023,8.3298911 7.02068653,8.49218943 6.25218872,8.20993147 C5.57176607,7.8941557 5.31617576,7.39138336 5.38525422,6.72807714 C5.43360915,6.16179721 5.87743817,5.72782581 6.33853702,5.51613234 C7.24001076,5.11567874 8.07413332,5.31855176 8.88580505,6.11240207 C10.2190194,7.63306709 10.376173,9.94052596 11.0065139,11.6887609 C11.4555239,13.1265125 12.1653052,14.377268 13.7195707,14.7389114 C13.9078094,14.7794856 14.1012291,14.800655 14.2963761,14.800655 L14.2981029,14.800655 C14.4932495,14.800655 14.6866692,14.7794856 14.8749079,14.7389114 C16.4309006,14.377268 17.1406815,13.1265125 17.5879647,11.6887609 C18.2200328,9.94052596 18.377186,7.63306709 19.7086735,6.11240207 C20.5220725,5.31855176 21.3544678,5.11567874 22.255942,5.51613234 C22.7170408,5.72782581 23.1625967,6.16179721 23.2092248,6.72807714 C23.2783033,7.39138336 23.0227129,7.8941557 22.3440171,8.20993147 C21.5755189,8.49218943 20.8311988,8.3298911 20.3614652,7.66482088 C20.0644278,7.26965973 20.0782435,6.84627278 20.1058749,6.53931747 C18.9384489,7.74244182 18.784749,9.24193749 19.290749,10.6426424 C19.8934585,12.2003537 21.527164,13.1759077 23.0244398,13.2147184 C25.0864322,13.3664318 27.0430795,11.9075108 27.8599323,10.1151727 C28.687147,8.56628237 28.8114882,6.44934763 28.2588605,4.82107187 M25.126152,10.2545377 C24.1832311,11.1030756 22.9260031,11.3500513 21.9053687,10.8843257 C21.2940245,10.5844268 20.8467413,10.0357878 20.7103112,9.46950786 C21.5668842,10.3427436 23.1142418,10.7837714 24.5320772,9.25781439 C24.5320772,9.25781439 25.860111,8.00176644 25.1071557,5.63432753 C24.7324047,4.46295697 23.3266582,3.48916698 22.1592321,3.36744335 C20.4184548,3.08165738 18.7726606,3.68851201 17.6380494,5.31678731 C16.2944705,7.43195806 16.1252281,9.79234053 15.152949,12.1456661 C14.9888876,12.5337708 14.646949,12.7031256 14.2981029,12.6854847 L14.2963761,12.6854847 C13.9492565,12.7031256 13.6055914,12.5337708 13.44153,12.1456661 C12.4692505,9.79234053 12.3017353,7.43195806 10.9598863,5.31678731 C9.82181846,3.68851201 8.17775102,3.08165738 6.43524687,3.36744335 C5.26954768,3.48916698 3.86207387,4.46295697 3.48905016,5.63432753 C2.73436805,8.00176644 4.06412826,9.25781439 4.06412826,9.25781439 C5.48196407,10.7837714 7.02759437,10.3427436 7.88589462,9.46950786 C7.74946454,10.0357878 7.30218138,10.5844268 6.6891099,10.8843257 C5.66674863,11.3500513 4.41297473,11.1030756 3.46832662,10.2545377 C2.07812264,8.84501189 1.8691604,7.03326891 2.42006082,5.36794691 C3.08666822,3.34098155 5.09339738,2.32485287 6.6891099,2.19783679 C8.57667926,2.02671801 11.1826642,3.21043747 12.2240222,5.22858192 C12.4657968,5.69430757 12.9735233,6.89743192 12.9735233,6.89743192 L15.6209553,6.89743192 C15.6209553,6.89743192 16.1286822,5.69430757 16.3721837,5.22858192 C17.4135417,3.21043747 20.0177998,2.02671801 21.9053687,2.19783679 C23.5010812,2.32485287 25.5078108,3.34098155 26.1761446,5.36794691 C26.7270455,7.03326891 26.5163564,8.84501189 25.126152,10.2545377" id="Shape" fill="#BBB9BB" fill-rule="nonzero"></path>
            </g>
        </g>
    </g>
</svg>