<svg width="12" height="12" viewBox="0 0 12 12" fill="none" xmlns="http://www.w3.org/2000/svg">
<path d="M2.66691 5.53176L8.00706 0.191706C8.13057 0.068097 8.29545 0 8.47125 0C8.64706 0 8.81193 0.068097 8.93544 0.191706L9.32871 0.584873C9.58461 0.841066 9.58461 1.25745 9.32871 1.51326L4.84445 5.99751L9.33368 10.4867C9.4572 10.6104 9.52539 10.7751 9.52539 10.9508C9.52539 11.1267 9.4572 11.2915 9.33368 11.4152L8.94042 11.8083C8.81681 11.9319 8.65203 12 8.47623 12C8.30042 12 8.13555 11.9319 8.01204 11.8083L2.66691 6.46336C2.54311 6.33936 2.47511 6.1738 2.4755 5.99781C2.47511 5.82112 2.54311 5.65566 2.66691 5.53176Z" fill="white"/>
</svg>
