<svg xmlns="http://www.w3.org/2000/svg" viewBox="0 0 295.59 66.47"><defs><style>.cls-1{fill:#2c318d;}.cls-2{fill:#5cc3b3;}</style></defs><g id="katman_2" data-name="katman 2"><g id="Layer_1" data-name="Layer 1"><path class="cls-1" d="M53.79,28.44H47.71V19.15h6.35V5.61H65.48V19.15H76.15v9.29H65.48V46.68c0,7.73,6.07,8.83,9.29,8.83a11,11,0,0,0,2.12-.18V65.55a19.85,19.85,0,0,1-3.58.28c-6.54,0-19.52-1.94-19.52-17.68Z"/><path class="cls-1" d="M101.28,17.31c13.54,0,20.81,9.85,20.81,22.27,0,1.39-.27,4.52-.27,4.52H89.41c.73,8.19,7.09,12.43,14.09,12.43,7.54,0,13.53-5.16,13.53-5.16l4.51,8.38a29.33,29.33,0,0,1-18.87,6.72c-15.56,0-25.22-11.23-25.22-24.58C77.45,27.43,87.3,17.31,101.28,17.31Zm9,18.78c-.19-6.36-4.15-9.76-9.3-9.76-6,0-10.12,3.68-11.23,9.76Z"/><path class="cls-1" d="M127.17,0h11.6V49c0,5.15,1.75,6.44,4.79,6.44.92,0,1.74-.09,1.74-.09V65.55a26.12,26.12,0,0,1-3.68.28c-6.44,0-14.45-1.66-14.45-15.1Z"/><path class="cls-2" d="M149.15,0h11.69V20.16c0,2.3-.18,4-.18,4h.18s4.15-6.81,14.09-6.81c12.7,0,20.81,10,20.81,24.58,0,14.91-9.12,24.58-21.55,24.58a16.55,16.55,0,0,1-14-7H160a27.7,27.7,0,0,1,.18,3.23v2.66h-11Zm23,56.62c6.45,0,11.78-5.25,11.78-14.55,0-8.93-4.79-14.73-11.69-14.73-6.07,0-11.79,4.42-11.79,14.82C160.47,49.44,164.34,56.62,172.17,56.62Z"/><path class="cls-2" d="M199.89,18.41h11.23v5.43a30,30,0,0,1-.18,3.23h.18a18.22,18.22,0,0,1,16.67-9.76c10.4,0,16.29,5.43,16.29,17.86V65.36h-11.6V37.56C232.48,31.85,231,28,225,28c-6.26,0-10.86,4-12.61,9.57a19.92,19.92,0,0,0-.83,6.26V65.36H199.89Z"/><path class="cls-2" d="M249,0h11.68V20.16c0,2.3-.18,4-.18,4h.18s4.15-6.81,14.09-6.81c12.7,0,20.81,10,20.81,24.58,0,14.91-9.12,24.58-21.55,24.58a16.55,16.55,0,0,1-14-7h-.18a27.7,27.7,0,0,1,.18,3.23v2.66H249Zm23,56.62c6.45,0,11.78-5.25,11.78-14.55,0-8.93-4.79-14.73-11.69-14.73-6.07,0-11.78,4.42-11.78,14.82C260.33,49.44,264.19,56.62,272,56.62Z"/><path class="cls-1" d="M23.36,19.14A23.35,23.35,0,1,0,46.69,42.5,23.35,23.35,0,0,0,23.36,19.14Zm0,36.84A13.49,13.49,0,1,1,36.84,42.5,13.52,13.52,0,0,1,23.36,56Z"/></g></g></svg>