<?xml version="1.0" encoding="UTF-8"?>
<svg width="127px" height="34px" viewBox="0 0 127 34" version="1.1" xmlns="http://www.w3.org/2000/svg" xmlns:xlink="http://www.w3.org/1999/xlink">
    <title>Group 17</title>
    <g id="Anasayfa" stroke="none" stroke-width="1" fill="none" fill-rule="evenodd">
        <g id="anasayfa" transform="translate(-371.000000, -25.000000)">
            <g id="Group-17" transform="translate(371.000000, 25.000000)">
                <path d="M23.0737655,12.2029911 L20.4654454,12.2029911 L20.4654454,8.21500698 L23.1925985,8.21500698 L23.1925985,2.40892085 L28.0904916,2.40892085 L28.0904916,8.21500698 L32.6700667,8.21500698 L32.6700667,12.2029911 L28.0904916,12.2029911 L28.0904916,20.0236612 C28.0904916,23.3411183 30.6953797,23.8155923 32.0784757,23.8155923 C32.6314567,23.8155923 32.9853817,23.7366563 32.9853817,23.7366563 L32.9853817,28.1201784 C32.9853817,28.1201784 32.3937907,28.2390114 31.4482747,28.2390114 C28.6439016,28.2390114 23.0737655,27.4093254 23.0737655,20.6560072 L23.0737655,12.2029911 Z" id="Fill-1" fill="#FEFEFE"></path>
                <path d="M47.3229481,15.4816236 C47.2427251,12.7557576 45.5447431,11.2958705 43.335393,11.2958705 C40.765683,11.2958705 38.9904809,12.8750196 38.5147199,15.4816236 L47.3229481,15.4816236 Z M43.451223,7.42414546 C49.2590252,7.42414546 52.3787132,11.6510826 52.3787132,16.9818367 C52.3787132,17.5751437 52.2594512,18.9179137 52.2594512,18.9179137 L38.3572769,18.9179137 C38.6721629,22.4327108 41.399316,24.2495258 44.3997421,24.2495258 C47.6382631,24.2495258 50.2045412,22.0371728 50.2045412,22.0371728 L52.1401892,25.6326219 C52.1401892,25.6326219 49.0595402,28.5155019 44.0458171,28.5155019 C37.3697189,28.5155019 33.2242918,23.6965448 33.2242918,17.9706817 C33.2242918,11.7686286 37.4499419,7.42414546 43.451223,7.42414546 L43.451223,7.42414546 Z" id="Fill-3" fill="#FEFEFE"></path>
                <path d="M54.555588,-8.58000019e-05 L59.5307011,-8.58000019e-05 L59.5307011,21.0114767 C59.5307011,23.2221137 60.2831671,23.7755237 61.5856111,23.7755237 C61.9811491,23.7755237 62.3346452,23.7364847 62.3346452,23.7364847 L62.3346452,28.1200068 C62.3346452,28.1200068 61.5856111,28.2388398 60.7559251,28.2388398 C57.9901621,28.2388398 54.555588,27.5284158 54.555588,21.7622267 L54.555588,-8.58000019e-05 Z" id="Fill-5" fill="#FEFEFE"></path>
                <path d="M73.8603739,24.2899805 C76.625708,24.2899805 78.91571,22.0373015 78.91571,18.0493174 C78.91571,14.2174893 76.860371,11.7301473 73.8989839,11.7301473 C71.2940958,11.7301473 68.8436478,13.6258983 68.8436478,18.0879274 C68.8436478,21.2089025 70.5030198,24.2899805 73.8603739,24.2899805 L73.8603739,24.2899805 Z M63.9869387,-6.0964568e-15 L69.0010908,-6.0964568e-15 L69.0010908,8.64906919 C69.0010908,9.63662721 68.9238708,10.3470512 68.9238708,10.3470512 L69.0010908,10.3470512 C69.0010908,10.3470512 70.7792958,7.42427416 75.0435559,7.42427416 C80.494859,7.42427416 83.9710461,11.7301473 83.9710461,17.9708104 C83.9710461,24.3689165 80.060282,28.5156306 74.7282409,28.5156306 C70.5416298,28.5156306 68.7243858,25.5139176 68.7243858,25.5139176 L68.6471658,25.5139176 C68.6471658,25.5139176 68.7243858,26.1050796 68.7243858,26.8961556 L68.7243858,28.0411566 L63.9869387,28.0411566 L63.9869387,-6.0964568e-15 Z" id="Fill-7" fill="#5CC2B2"></path>
                <path d="M85.7542705,7.89831917 L90.5715116,7.89831917 L90.5715116,10.2282182 C90.5715116,10.9793972 90.4912886,11.6108853 90.4912886,11.6108853 L90.5715116,11.6108853 C91.4398076,9.91290321 93.6525896,7.42427416 97.7207967,7.42427416 C102.184542,7.42427416 104.711781,9.75546021 104.711781,15.0875013 L104.711781,28.0411566 L99.7336648,28.0411566 L99.7336648,16.1132403 C99.7336648,13.6645083 99.1034637,12.0064233 96.5341827,12.0064233 C93.8486426,12.0064233 91.8743846,13.7044053 91.1249216,16.1132403 C90.8482166,16.9429264 90.7679936,17.8515484 90.7679936,18.7987804 L90.7679936,28.0411566 L85.7542705,28.0411566 L85.7542705,7.89831917 Z" id="Fill-9" fill="#5CC2B2"></path>
                <path d="M116.696282,24.2899805 C119.461616,24.2899805 121.751618,22.0373015 121.751618,18.0493174 C121.751618,14.2174893 119.696708,11.7301473 116.734892,11.7301473 C114.130004,11.7301473 111.679556,13.6258983 111.679556,18.0879274 C111.679556,21.2089025 113.338928,24.2899805 116.696282,24.2899805 L116.696282,24.2899805 Z M106.823276,-6.0964568e-15 L111.836999,-6.0964568e-15 L111.836999,8.64906919 C111.836999,9.63662721 111.759779,10.3470512 111.759779,10.3470512 L111.836999,10.3470512 C111.836999,10.3470512 113.615204,7.42427416 117.879893,7.42427416 C123.330767,7.42427416 126.806954,11.7301473 126.806954,17.9708104 C126.806954,24.3689165 122.896619,28.5156306 117.564578,28.5156306 C113.377538,28.5156306 111.560294,25.5139176 111.560294,25.5139176 L111.483503,25.5139176 C111.483503,25.5139176 111.560294,26.1050796 111.560294,26.8961556 L111.560294,28.0411566 L106.823276,28.0411566 L106.823276,-6.0964568e-15 Z" id="Fill-11" fill="#5CC2B2"></path>
                <path d="M23.8334017,30.8861998 C23.8334017,32.5429563 22.49059,33.8859015 20.8334017,33.8859015 C19.1768099,33.8859015 17.8334017,32.5429563 17.8334017,30.8861998 C17.8334017,29.2294433 19.1768099,27.8859015 20.8334017,27.8859015 C22.49059,27.8859015 23.8334017,29.2294433 23.8334017,30.8861998" id="Fill-13" fill="#FEFEFE"></path>
                <path d="M10.021097,24.0151202 C6.82504695,24.0151202 4.22745189,21.4175252 4.22745189,18.2339161 C4.22745189,15.037866 6.82504695,12.4407 10.021097,12.4407 C13.2042771,12.4407 15.8023011,15.037866 15.8023011,18.2339161 C15.8023011,21.4175252 13.2042771,24.0151202 10.021097,24.0151202 M10.021097,8.21290488 C4.4822779,8.21290488 8.58000019e-05,12.694668 8.58000019e-05,18.2339161 C8.58000019e-05,23.7602942 4.4822779,28.2424863 10.021097,28.2424863 C15.5474751,28.2424863 20.0300962,23.7602942 20.0300962,18.2339161 C20.0300962,12.694668 15.5474751,8.21290488 10.021097,8.21290488" id="Fill-15" fill="#FEFEFE"></path>
            </g>
        </g>
    </g>
</svg>