<?xml version="1.0" encoding="UTF-8"?>
<svg width="106px" height="106px" viewBox="0 0 106 106" version="1.1" xmlns="http://www.w3.org/2000/svg" xmlns:xlink="http://www.w3.org/1999/xlink">
    <title>003-email</title>
    <g id="Anasayfa" stroke="none" stroke-width="1" fill="none" fill-rule="evenodd">
        <g id="UyelikOlusturuldu" transform="translate(-907.000000, -310.000000)" fill-rule="nonzero">
            <g id="Group-3" transform="translate(541.000000, 247.000000)">
                <g id="003-email" transform="translate(366.000000, 63.000000)">
                    <path d="M104.233335,44.838 L104.233335,45.7743333 L97.1666693,51.8693333 L97.1666693,35.828 L101.565669,39.3083333 C103.248474,40.6508119 104.229973,42.685311 104.233335,44.838 Z" id="Path" fill="#FFFFFF"></path>
                    <path d="M104.233398,45.7743333 L104.233398,97.1666667 C104.241798,99.1723275 103.385567,101.084363 101.883669,102.413667 L68.5643382,76.5143333 L97.1666693,51.8693333 L104.233398,45.7743333 Z" id="Path" fill="#FFFFFF"></path>
                    <path d="M98.9333358,50.35 L98.9333358,97.1666667 C98.9253008,98.0437029 98.7527125,98.9114383 98.4245359,99.7248 L101.883669,102.413667 C103.385567,101.084363 104.241798,99.1723275 104.233335,97.1666667 L104.233335,45.7743333 L98.9333358,50.35 Z" id="Path" fill="#EDF9F7"></path>
                    <path d="M101.883669,102.413667 C100.590971,103.583497 98.9101049,104.231921 97.1666693,104.233333 L8.83334285,104.233333 C7.08990721,104.231921 5.40904108,103.583497 4.11634322,102.413667 L37.4356739,76.5143333 L50.8093396,66.1263333 C52.0961736,65.1192618 53.9038385,65.1192618 55.1906726,66.1263333 L68.5643382,76.5143333 L101.883669,102.413667 Z" id="Path" fill="#FFFFFF"></path>
                    <path d="M37.4356739,76.5143333 L4.11634322,102.413667 C2.61444491,101.084363 1.75821364,99.1723275 1.76661458,97.1666667 L1.76661458,45.7743333 L8.83334285,51.8693333 L37.4356739,76.5143333 Z" id="Path" fill="#FFFFFF"></path>
                    <path d="M8.83334285,35.828 L8.83334285,51.8693333 L1.76667673,45.7743333 L1.76667673,44.838 C1.77003884,42.685311 2.7515384,40.6508119 4.43434319,39.3083333 L8.83334285,35.828 Z" id="Path" fill="#7FACFA"></path>
                    <path d="M97.1666693,5.3 L97.1666693,51.8693333 L68.5643382,76.5143333 L55.1906726,66.1263333 C53.9038385,65.1192618 52.0961736,65.1192618 50.8093396,66.1263333 L37.4356739,76.5143333 L8.83334285,51.8693333 L8.83334285,5.3 C8.83916366,3.35101003 10.4176861,1.77248748 12.3666759,1.76666667 L93.6333362,1.76666667 C95.5823261,1.77248748 97.1608485,3.35101003 97.1666693,5.3 Z" id="Path" fill="#D7F5F0"></path>
                    <path d="M93.6333362,1.76666667 L88.3333366,1.76666667 C90.2823265,1.77248748 91.8608489,3.35101003 91.8666697,5.3 L91.8666697,51.8693333 L65.7765384,74.3484 L68.5643382,76.5143333 L97.1666693,51.8693333 L97.1666693,5.3 C97.1608485,3.35101003 95.5823261,1.77248748 93.6333362,1.76666667 Z" id="Path" fill="#EDF9F7"></path>
                    <ellipse id="Oval" fill="#FFFFFF" cx="53.0000061" cy="33.5666667" rx="24.7333314" ry="24.7333333"></ellipse>
                    <path d="M53.0000061,8.83330251 C52.1146871,8.83481915 51.2300845,8.88376718 50.3500063,8.97996667 C62.8942296,10.3520219 72.3941073,20.9476295 72.3941073,33.5666667 C72.3941073,46.1857038 62.8942296,56.7813113 50.3500063,58.1533667 C59.4583744,59.1495117 68.3711359,55.0286185 73.5121761,47.4441349 C78.6532163,39.8596513 79.1800554,30.0544726 74.881307,21.9627825 C70.5825586,13.8710925 62.1626731,8.81890392 53.0000061,8.83330251 Z" id="Path" fill="#9BD8CE"></path>
                    <path d="M47.7000065,47.7000061 C46.7625973,47.7017516 45.8633075,47.3290615 45.20194,46.6647333 L38.1352739,39.5980667 C36.7962389,38.2116612 36.815389,36.0079004 38.1783148,34.6449743 C39.5412408,33.2820484 41.7450015,33.2628982 43.1314068,34.6019333 L47.7000065,39.1687667 L62.8686053,24.0019333 C63.7557349,23.08342 65.0694404,22.7150488 66.3047975,23.0384034 C67.5401548,23.361758 68.5049135,24.3265168 68.8282681,25.5618742 C69.1516227,26.7972314 68.7832515,28.1109369 67.8647382,28.9980667 L50.198073,46.6647333 C49.5367054,47.3290615 48.6374156,47.7017516 47.7000065,47.7000061 Z" id="Path" fill="#FFFFFF"></path>
                    <path d="M8.83334285,35.828 L4.43434319,39.3083333 C2.7515384,40.6508119 1.77003884,42.685311 1.76661458,44.838 L1.76661458,97.1666667 C1.75821364,99.1723275 2.61444491,101.084363 4.11634322,102.413667 C5.40904108,103.583497 7.08990721,104.231921 8.83334285,104.233333 L14.1333424,104.233333 C12.3899068,104.231921 10.7090407,103.583497 9.4163428,102.413667 C7.9144445,101.084363 7.05821321,99.1723275 7.06667632,97.1666667 L7.06667632,44.838 C7.07003843,42.685311 8.05153798,40.6508119 9.73434278,39.3083333 L8.83334285,35.828 Z" id="Path" fill="#FFFFFF"></path>
                    <polygon id="Rectangle" fill="#FFFFFF" points="1.02033066e-05 83.0333333 3.53334326 83.0333333 3.53334326 97.1666667 1.02033066e-05 97.1666667"></polygon>
                    <g id="Group" fill="#5DC1B2">
                        <ellipse id="Oval" cx="1.76667673" cy="90.1" rx="1.76666653" ry="1.76666667"></ellipse>
                        <path d="M102.661002,37.9232667 L98.9333358,34.98 L98.9333358,5.3 C98.9333358,2.37289082 96.5604451,0 93.6333362,0 L12.3666759,0 C9.43956696,0 7.06667632,2.37289082 7.06667632,5.3 L7.06667632,34.98 L3.33194328,37.9285667 C1.22433684,39.6019646 -0.0028848508,42.1468556 5.09264945e-06,44.838 L5.09264945e-06,83.0333333 C5.09264945e-06,84.0090363 0.79097375,84.8 1.76667673,84.8 C2.74237971,84.8 3.53334326,84.0090363 3.53334326,83.0333333 L3.53334326,49.6274333 L34.6514075,76.4454333 L4.36190986,99.9933333 C3.82184763,99.1493894 3.53435918,98.1686186 3.53334326,97.1666667 C3.53334326,96.1909637 2.74237971,95.4 1.76667673,95.4 C0.79097375,95.4 5.09264945e-06,96.1909637 5.09264945e-06,97.1666667 C0.00585101485,102.042761 3.95724933,105.994159 8.83334285,106 L97.1666693,106 C102.042763,105.994159 105.994161,102.042761 106.000005,97.1666667 L106.000005,44.838 C106.002284,42.1439174 104.772298,39.5967403 102.661002,37.9232667 Z M102.466669,97.1666667 C102.465653,98.1686186 102.178164,99.1493894 101.638102,99.9933333 L71.3486046,76.4454333 L102.466669,49.6274333 L102.466669,97.1666667 Z M100.463269,40.6881 C101.730422,41.6923479 102.468467,43.2211548 102.466672,44.838 L102.466672,44.9652 L98.9333358,48.0109333 L98.9333358,39.4779333 L100.463269,40.6881 Z M3.53333735,44.838 C3.53093241,43.2240929 4.26621296,41.6975723 5.52967644,40.6934 L7.06667632,39.4779333 L7.06667632,48.0109333 L3.53333735,44.9652 L3.53333735,44.838 Z M10.6000094,51.0566667 L10.6000094,5.3 C10.6000094,4.32429694 11.3909729,3.53333333 12.3666759,3.53333333 L93.6333362,3.53333333 C94.6090391,3.53333333 95.4000028,4.32429694 95.4000028,5.3 L95.4000028,51.0566667 L68.5025049,74.2353333 L56.2771725,64.7342 C54.352208,63.2292814 51.6495708,63.2292814 49.7246063,64.7342 L37.4975073,74.2353333 L10.6000094,51.0566667 Z M8.83334285,102.466667 C8.30064167,102.45923 7.77220223,102.370462 7.26630964,102.203433 L51.8958395,67.5184667 C52.5453218,67.00959 53.4582237,67.00959 54.107706,67.5184667 L98.7337025,102.1999 C98.2279972,102.368129 97.6995531,102.45809 97.1666693,102.466667 L8.83334285,102.466667 Z" id="Shape"></path>
                        <path d="M79.5000081,33.5666667 C79.5000081,18.9311209 67.6355507,7.06666667 53.0000081,7.06666667 C38.3644614,7.06666667 26.5000081,18.9311209 26.5000081,33.5666667 C26.5000081,48.2022125 38.3644614,60.0666667 53.0000081,60.0666667 C67.6286897,60.0501156 79.483453,48.1953514 79.5000081,33.5666667 Z M30.0333412,33.5666667 C30.0333412,20.882527 40.3158674,10.6 53.0000061,10.6 C65.6841447,10.6 75.9666709,20.882527 75.9666709,33.5666667 C75.9666709,46.2508063 65.6841447,56.5333333 53.0000061,56.5333333 C40.321921,56.5187301 30.0479445,46.2447527 30.0333412,33.5666667 Z" id="Shape"></path>
                        <path d="M70.6666914,26.5 C70.6705529,25.0939856 70.1120483,23.7447964 69.1155381,22.7529 C67.01781,20.7511216 63.7173002,20.7511216 61.6195721,22.7529 L47.7000065,36.6707 L44.3822067,33.3529 C42.2837583,31.3529204 38.9846891,31.3529204 36.8862407,33.3529 C35.8921038,34.3468685 35.3335893,35.6950804 35.3335893,37.1008833 C35.3335893,38.5066862 35.8921038,39.8548981 36.8862407,40.8488667 L43.9529068,47.9155333 C46.0225559,49.9845576 49.3774571,49.9845576 51.4471062,47.9155333 L69.1137715,30.2488667 C70.1111989,29.2567185 70.6703605,27.9068426 70.6666914,26.5 L70.6666914,26.5 Z M66.615705,27.7490333 L48.9490397,45.4157 C48.2503567,46.0837871 47.1496563,46.0837871 46.4509732,45.4157 L39.3843071,38.3490333 C38.9250505,37.9054684 38.7408649,37.2486157 38.9025421,36.6309371 C39.0642195,36.0132583 39.5465988,35.530879 40.1642775,35.3692016 C40.7819561,35.2075244 41.4388087,35.39171 41.8823736,35.8509667 L46.4509732,40.4178 C47.1408563,41.1074747 48.2591566,41.1074747 48.9490397,40.4178 L64.1194052,25.2492 C64.8182165,24.5831384 65.9168937,24.5831384 66.615705,25.2492 C67.3053796,25.9390832 67.3053796,27.0573835 66.615705,27.7472667 L66.615705,27.7490333 Z" id="Shape"></path>
                    </g>
                </g>
            </g>
        </g>
    </g>
</svg>