<?xml version="1.0" encoding="UTF-8"?>
<svg width="84px" height="19px" viewBox="0 0 84 19" version="1.1" xmlns="http://www.w3.org/2000/svg" xmlns:xlink="http://www.w3.org/1999/xlink">
    <title>209296</title>
    <g id="Anasayfa" stroke="none" stroke-width="1" fill="none" fill-rule="evenodd">
        <g id="MusteriPaneli-Bildirim" transform="translate(-1245.000000, -352.000000)">
            <g id="209296" transform="translate(1245.000000, 352.000000)">
                <path d="M67.8579305,8.25687538 C68.0371624,7.20419054 68.434833,6.22997893 69.0024005,5.38400307 L68.2518674,4.61458657 C67.7552455,4.10355593 67.7496444,3.28054822 68.242532,2.77525962 C68.7354196,2.26997102 69.5382293,2.27571257 70.036718,2.78674321 L70.7741821,3.54276226 C71.6068637,2.93794712 72.5721018,2.51113124 73.6157542,2.31782019 L73.6157542,1.30724299 C73.6157542,0.585675672 74.1814548,0 74.8778452,0 C75.5742355,0 76.1380693,0.585675672 76.1380693,1.30724299 L76.1380693,2.31016431 C77.1985245,2.5015615 78.1768318,2.93029123 79.022582,3.54276226 L79.6891004,2.8556462 C80.1875891,2.3465299 80.9922657,2.34078786 81.4851533,2.84799031 C81.9761735,3.35136507 81.9724398,4.17437277 81.473951,4.68540341 L80.7924967,5.38400307 C81.3600643,6.22997893 81.7577348,7.20419054 81.9369667,8.25496104 L82.7248403,8.25496104 C83.4286987,8.25496104 84,8.83489467 84,9.5488061 C84,10.262718 83.4286987,10.8407373 82.7248403,10.8407373 L81.9313656,10.8407373 C81.740932,11.9106478 81.326458,12.9001712 80.7364865,13.7557168 L81.3376603,14.3720155 C81.836149,14.8811323 81.8398828,15.70414 81.3469951,16.2094286 C80.8559744,16.7147172 80.0531652,16.7108895 79.5546765,16.1998589 L78.9404341,15.5701622 C78.1152205,16.1520097 77.1649183,16.5596856 76.1380693,16.7453408 L76.1380693,17.692757 C76.1380693,18.4124105 75.5742355,19 74.8778452,19 C74.1814548,19 73.6157542,18.4124105 73.6157542,17.692757 L73.6157542,16.7376849 C72.605708,16.5501159 71.6703414,16.1443538 70.8544631,15.5701622 L70.1730088,16.2706757 C69.67452,16.7817063 68.8717109,16.7855345 68.3788233,16.2802459 C67.8878025,15.7749573 67.8915363,14.9519491 68.3881581,14.4428328 L69.0602776,13.7557168 C68.4684392,12.9001712 68.0539653,11.9106478 67.8653985,10.8388235 L67.7963197,10.8407373 L66.7414651,10.8407373 C66.0376068,10.8407373 65.4663055,10.262718 65.4663055,9.5488061 C65.4663055,8.83489467 66.0376068,8.25496104 66.7414651,8.25496104 L67.7963197,8.25496104 L67.8579305,8.25687538" id="Path" fill="transparent"></path>
                <path d="M68.4479021,10.2722878 L66.9337661,10.2722878 C66.4632825,10.2722878 66.0824148,9.94691227 66.0824148,9.5488061 C66.0824148,9.14878608 66.4632825,8.82341109 66.9337661,8.82341109 L68.4441679,8.82341109 C68.574858,7.53913576 69.0640114,6.36204287 69.8070771,5.39931484 L68.782095,4.3504582 C68.449769,4.00977143 68.404961,3.50639667 68.6794099,3.22312882 C68.9557257,2.93986097 69.4486133,2.98771014 69.779072,3.32648355 L70.7965861,4.36959816 C71.7394207,3.5810417 72.9025605,3.05852747 74.1777206,2.91497945 L74.1721195,1.50438222 C74.1721195,1.02206128 74.4876426,0.631610999 74.8778452,0.631610999 C75.2680478,0.631610999 75.5835704,1.02206128 75.5835704,1.50438222 L75.5835704,2.91115126 C76.8736665,3.04895725 78.0498759,3.57529966 79.0020449,4.37342586 L79.9467464,3.39921424 C80.279072,3.05852747 80.7719596,3.01067781 81.0482754,3.29394566 C81.3227243,3.57721351 81.2779163,4.08058827 80.9455903,4.42127553 L79.9896871,5.40122918 C80.7327527,6.36204287 81.2200392,7.53913576 81.3525963,8.82341109 L82.6016182,8.82341109 C83.0702349,8.82341109 83.4511027,9.14878608 83.4511027,9.5488061 C83.4511027,9.94691227 83.0702349,10.2722878 82.6016182,10.2722878 L81.348862,10.2722878 C81.2069701,11.5737887 80.6991465,12.764279 79.9318105,13.7289209 L80.8578418,14.6859069 C81.1901673,15.0265942 81.2349752,15.5299689 80.9605263,15.8132368 C80.6842105,16.0965046 80.1913229,16.048655 79.8608643,15.7079682 L78.9236312,14.747154 C77.9863977,15.5070013 76.8400608,16.0084617 75.5873046,16.1443538 L75.5835704,17.5664351 C75.5835704,18.0468417 75.2680478,18.437292 74.8778452,18.437292 C74.4876426,18.437292 74.1721195,18.0468417 74.1721195,17.5664351 L74.1721195,16.1405256 C72.9342998,15.9988919 71.8028984,15.5012592 70.8768671,14.7509822 L69.866821,15.778785 C69.534495,16.1194723 69.0416074,16.1654076 68.767159,15.8840536 C68.4908432,15.6007858 68.537518,15.0954972 68.8679766,14.7548099 L69.866821,13.7327491 C69.0994845,12.7661934 68.589794,11.5757026 68.4479021,10.2722878 Z M72.7998759,9.1334743 C72.8521519,8.84446441 72.9585707,8.57459448 73.1097974,8.33534811 L71.6031294,6.79460079 C71.0915721,7.44535126 70.7555123,8.24921949 70.6789655,9.13156045 L72.7998759,9.1334743 Z M73.692301,7.72479092 C73.8995379,7.57932905 74.1310458,7.47214662 74.3812233,7.40707182 L74.3793564,5.21748787 C73.5504091,5.32084211 72.7980085,5.66727092 72.1893672,6.1878713 L73.692301,7.72479092 Z M75.2139049,7.36687804 C75.5555658,7.41855541 75.8710884,7.55444754 76.1399362,7.75158678 L77.6410031,6.216581 C76.9763516,5.63664737 76.1343351,5.26533705 75.2101707,5.19643406 L75.2139049,7.36687804 Z M76.7093707,8.3755414 C76.8475288,8.60521804 76.9464796,8.86360438 76.9950213,9.13921634 L79.1177991,9.14304404 C79.0431191,8.27218716 78.720128,7.47788866 78.2197724,6.83096589 L76.7093707,8.3755414 Z M76.9800853,9.99093375 C76.9222088,10.2703739 76.8101888,10.5306741 76.6589616,10.7584364 L78.1618958,12.295356 C78.6790543,11.6580035 79.0188478,10.863705 79.1103311,9.99476194 L76.9800853,9.99093375 Z M76.0652563,11.3555957 C75.8150782,11.5240252 75.5275607,11.6407778 75.2176387,11.688627 L75.2213729,13.859071 C76.1100643,13.790168 76.9203414,13.4399115 77.5719243,12.8963435 L76.0652563,11.3555957 Z M74.3868244,11.6503476 C74.1646515,11.5929282 73.957415,11.5029719 73.7688478,11.3823915 L72.2584461,12.9250527 C72.8577525,13.4150295 73.5896159,13.7423188 74.3886913,13.8399315 L74.3868244,11.6503476 Z M73.1620734,10.7967158 C72.9959106,10.5574695 72.8745558,10.2837713 72.8129445,9.98519171 L70.6845661,9.98327786 C70.7741821,10.8732747 71.1270452,11.682885 71.6610065,12.3317216 L73.1620734,10.7967158" id="Shape" fill="#E53143" fill-rule="nonzero"></path>
                <path d="M14.870644,13.1432457 C15.0088017,10.1517074 13.4143851,8.31812248 11.3905587,8.31812248 C9.5814367,8.31812248 8.12517781,9.97179428 8.12517781,12.6169033 C8.12517781,15.3691953 9.76253592,16.6630403 11.5511203,16.6630403 C12.8561524,16.6630403 14.3889582,15.7749573 14.753023,13.8514151 L12.064545,13.8514151 C12.0122691,14.2265536 11.7975641,14.5117358 11.5081792,14.5117358 C10.9294099,14.5117358 10.85473,13.790168 10.85473,13.1432457 L14.870644,13.1432457 Z M23.3841575,7.77072625 L25.8467283,7.77072625 L25.8467283,5.31701441 L23.3841575,5.31701441 L23.3841575,7.77072625 Z M23.2347977,16.4812129 L25.9960882,16.4812129 L25.9960882,8.49803561 L23.2347977,8.49803561 L23.2347977,16.4812129 Z M0,16.4812129 L3.71532741,16.4812129 C6.08081473,16.4812129 7.77418208,14.347134 7.77418208,10.9785433 C7.77418208,6.81374026 5.69621278,5.14475669 2.98719772,5.14475669 L0,5.14475669 L0,16.4812129 Z M2.93305488,7.90470454 L3.11602098,7.90470454 C4.18581105,7.90470454 4.83926031,9.36889298 4.83926031,10.9632315 C4.83926031,12.452302 4.090594,13.6829856 3.11602098,13.6829856 L2.93305488,13.6829856 L2.93305488,7.90470454 Z M45.7713371,16.4812129 L48.734264,16.4812129 L48.734264,8.49803561 L45.7713371,8.49803561 L45.8590862,9.44545186 L45.7937411,9.44545186 C45.3867357,8.66263744 44.8191681,8.31812248 44.1339795,8.31812248 C42.3341929,8.31812248 41.6602065,10.513448 41.6602065,12.5269465 C41.6602065,14.4677143 42.517159,16.6630403 44.0592996,16.6630403 C44.8415721,16.6630403 45.2896517,16.1807194 45.7937411,15.4304424 L45.8590862,15.4304424 L45.7713371,16.4812129 Z M44.4009604,12.452302 C44.4009604,11.8666263 44.6791431,10.8981567 45.1197547,10.8981567 C45.5584995,10.8981567 45.8590862,11.8053792 45.8590862,12.4216784 C45.8590862,13.0379771 45.7190612,14.1136296 45.1944347,14.1136296 C44.6922122,14.1136296 44.4009604,13.0839125 44.4009604,12.452302 Z M36.5726355,9.48947334 L36.5726355,7.88173687 L36.7761382,7.88173687 C37.2055477,7.88173687 37.7507112,7.82240362 37.7507112,8.64732567 C37.7507112,9.43014008 37.2690258,9.48947334 36.8414833,9.48947334 L36.5726355,9.48947334 Z M33.6003738,16.4812129 L38.2062589,16.4812129 C39.6177098,16.4812129 41.1598509,15.6850005 41.1598509,13.3537824 C41.1598509,11.9872067 40.6184211,11.2388435 39.5579659,10.6646519 C40.7341752,9.97370813 40.9040722,9.38420476 40.9040722,8.39276702 C40.9040722,6.04049558 38.7159499,5.14475669 37.6274896,5.14475669 L33.6003738,5.14475669 L33.6003738,16.4812129 Z M36.5726355,11.8800141 L36.8620199,11.8800141 C37.3325036,11.8800141 38.0830372,11.8666263 38.0830372,12.8140426 C38.0830372,13.7614588 37.3866469,13.7748562 36.904961,13.7748562 L36.5726355,13.7748562 L36.5726355,11.8800141 Z M57.0592108,16.4812129 L59.8802457,16.4812129 L59.8858464,12.4752696 L61.2095487,16.4812129 L64.5458748,16.4812129 L62.4567038,12.0446256 L64.4992,8.49803561 L61.2636916,8.49803561 L60.0016005,11.8723683 L59.8223687,11.4589504 L59.8223687,5.21748787 L57.0592108,5.21748787 L57.0592108,16.4812129 Z M52.4869314,8.49803561 L49.5706794,8.49803561 L49.5706794,16.4812129 L52.552276,16.4812129 L52.552276,12.5862798 C52.552276,12.1211844 52.552276,11.4589504 53.0115578,11.4589504 C53.4839084,11.4589504 53.4839084,12.1211844 53.4839084,12.5862798 L53.4839084,16.4812129 L56.2451994,16.4812129 L56.2451994,11.564219 C56.2451994,9.80527859 55.6888336,8.31812248 54.2755158,8.31812248 C53.3868244,8.31812248 52.979819,8.90379767 52.4439903,9.77656889 L52.3805121,9.77656889 L52.4869314,8.49803561 Z M32.7284853,8.94781914 L32.7284853,8.49803561 L26.8698435,8.49803561 L26.8698435,11.0149089 L28.2084819,11.0149089 L28.841394,10.9096403 L28.841394,10.9689736 L26.5916609,15.9414725 L26.5916609,16.4812129 L32.5884603,16.4812129 L32.5884603,13.9413719 L31.0145804,13.9413719 L30.4470128,14.0313287 L30.4470128,13.9413719 L31.0351175,12.4676137 L32.7284853,8.94781914 Z M18.488887,8.49803561 L15.7892073,8.49803561 L15.7892073,16.4812129 L18.5523652,16.4812129 L18.5523652,12.5862798 C18.5523652,12.1211844 18.5523652,11.4589504 19.0135135,11.4589504 C19.4839972,11.4589504 19.4839972,12.1211844 19.4839972,12.5862798 L19.4839972,16.4812129 L22.2452882,16.4812129 L22.2452882,11.564219 C22.2452882,9.80527859 21.6889228,8.31812248 20.2756046,8.31812248 C19.3869132,8.31812248 18.9799078,8.90379767 18.4440791,9.77656889 L18.3806014,9.77656889 L18.488887,8.49803561 Z M10.85473,11.4895739 C10.85473,10.932608 11.0582327,10.4522009 11.4764404,10.4522009 C11.8722441,10.4522009 12.1504267,10.9479197 12.1504267,11.4895739 L10.85473,11.4895739" id="Shape" fill="#006CB2"></path>
            </g>
        </g>
    </g>
</svg>