<?xml version="1.0" encoding="UTF-8"?>
<svg width="50px" height="31px" viewBox="0 0 50 31" version="1.1" xmlns="http://www.w3.org/2000/svg" xmlns:xlink="http://www.w3.org/1999/xlink">
    <title>Discover-card-dark</title>
    <g id="Anasayfa" stroke="none" stroke-width="1" fill="none" fill-rule="evenodd">
        <g id="anasayfa" transform="translate(-1121.000000, -4408.000000)">
            <g id="Group-10" transform="translate(1121.250000, 4408.000000)">
                <g id="Discover-card-dark" transform="translate(0.000000, 0.250000)">
                    <g id="Rectangle">
                        <rect stroke="#E6772F" stroke-width="0.5" x="0" y="0" width="49.5" height="29.5" rx="2"></rect>
                        <g id="Mask" transform="translate(11.750000, 16.250000)" fill="#E6772F" fill-rule="nonzero">
                            <path d="M0.0577084,13.5 L36.0001824,13.5 C37.1046511,13.5 38,12.6064199 38,11.5026514 L38,0.3490343 C38,0.3490343 24.599767,9.4339984 0.0577084,13.5 Z" id="path-3"></path>
                        </g>
                    </g>
                    <path d="M8.8942917,14.6610076 C8.51893495,14.9819548 8.04110135,15.1222989 7.27699065,15.1222989 L6.9599235,15.1222989 L6.9599235,11.2922985 L7.27699065,11.2922985 C8.04110135,11.2922985 8.50060195,11.4231964 8.8942917,11.7601123 C9.30067355,12.1082737 9.5448787,12.6453599 9.5448787,13.2008888 C9.5448787,13.7591166 9.30067355,14.3153202 8.8942917,14.6610076 L8.8942917,14.6610076 Z M7.5136746,10.3112391 L5.7788542,10.3112391 L5.7788542,16.1038082 L7.50309785,16.1038082 C8.4206888,16.1038082 9.08302775,15.8948664 9.66357325,15.4337999 C10.3531767,14.8877173 10.762379,14.0631955 10.762379,13.2089856 C10.762379,11.4989913 9.4273594,10.3112391 7.5136746,10.3112391 L7.5136746,10.3112391 Z" id="Fill-13" fill="#1A1919" fill-rule="nonzero"></path>
                    <polygon id="Fill-14" fill="#1A1919" fill-rule="nonzero" points="11.3069636 10.3112391 12.4833321 10.3112391 12.4833321 16.1038082 11.3069636 16.1038082"></polygon>
                    <path d="M15.3721924,12.5313303 C14.6621405,12.2821295 14.4546014,12.1161455 14.4546014,11.8030702 C14.4546014,11.439165 14.8254924,11.1631999 15.3355263,11.1631999 C15.6890245,11.1631999 15.9802374,11.298596 16.2904884,11.6294393 L16.9046444,10.8584462 C16.397196,10.4311163 15.7898561,10.2147524 15.1277521,10.2147524 C14.0564459,10.2147524 13.2399216,10.9279435 13.2399216,11.8709931 C13.2399216,12.6716744 13.619509,13.0778627 14.7272463,13.4635842 C15.1902724,13.6176478 15.4255461,13.7229059 15.5447107,13.7942026 C15.7806896,13.9401695 15.8982089,14.1493362 15.8982089,14.3911149 C15.8982089,14.8623024 15.5080447,15.2086645 14.9806179,15.2086645 C14.4191106,15.2086645 13.9647808,14.9396716 13.6928411,14.4345227 L12.9317859,15.1398419 C13.4759004,15.9027382 14.1281327,16.2437025 15.0266855,16.2437025 C16.2521771,16.2437025 17.1157092,15.45854 17.1157092,14.3402852 C17.1157092,13.418827 16.7152033,13.0011682 15.3721924,12.5313303" id="Fill-15" fill="#1A1919" fill-rule="nonzero"></path>
                    <path d="M17.4866001,13.2089855 C17.4866001,14.9124574 18.883905,16.232457 20.6826559,16.232457 C21.1898693,16.232457 21.6246909,16.1366451 22.1601089,15.8948663 L22.1601089,14.5636213 C21.6869761,15.0186152 21.2716628,15.1980937 20.7343644,15.1980937 C19.5457739,15.1980937 18.7038654,14.3751463 18.7038654,13.2008887 C18.7038654,12.0914054 19.5730384,11.2124553 20.6826559,11.2124553 C21.242518,11.2124553 21.6702884,11.4022797 22.1601089,11.8640209 L22.1601089,10.5343502 C21.6427888,10.2840249 21.218309,10.1803411 20.7068649,10.1803411 C18.9184557,10.1803411 17.4866001,11.5262054 17.4866001,13.2089855" id="Fill-16" fill="#1A1919" fill-rule="nonzero"></path>
                    <polyline id="Fill-17" fill="#1A1919" fill-rule="nonzero" points="31.7243023 14.200166 30.1100568 10.3112391 28.822985 10.3112391 31.3891372 16.25 32.0220963 16.25 34.6380766 10.3112391 33.3611116 10.3112391 31.7243023 14.200166"></polyline>
                    <polyline id="Fill-18" fill="#1A1919" fill-rule="nonzero" points="35.1737297 16.1038082 38.5213854 16.1038082 38.5213854 15.1222989 36.354799 15.1222989 36.354799 13.5587213 38.4391219 13.5587213 38.4391219 12.577437 36.354799 12.577437 36.354799 11.2922985 38.5213854 11.2922985 38.5213854 10.3112391 35.1737297 10.3112391 35.1737297 16.1038082"></polyline>
                    <path d="M40.8271147,12.9748538 L40.4844283,12.9748538 L40.4844283,11.2228012 L40.8463879,11.2228012 C41.5839392,11.2228012 41.9790392,11.5190083 41.9790392,12.0833087 C41.9790392,12.6631279 41.5839392,12.9748538 40.8271147,12.9748538 L40.8271147,12.9748538 Z M43.1946592,12.0203337 C43.1946592,10.9355905 42.4171513,10.3112391 41.054162,10.3112391 L39.3007736,10.3112391 L39.3007736,16.1038082 L40.4844283,16.1038082 L40.4844283,13.7748603 L40.6379086,13.7748603 L42.2688419,16.1038082 L43.7211458,16.1038082 L41.8166275,13.6624051 C42.7067189,13.4883244 43.1946592,12.9067059 43.1946592,12.0203337 L43.1946592,12.0203337 Z" id="Fill-19" fill="#1A1919" fill-rule="nonzero"></path>
                    <path d="M25.8337633,16.2419032 C24.0907165,16.2419032 22.6783692,14.8901913 22.6783692,13.2224801 C22.6783692,11.5545441 24.0907165,10.2026073 25.8337633,10.2026073 C27.5772801,10.2026073 28.9893924,11.5545441 28.9893924,13.2224801 C28.9893924,14.8901913 27.5772801,16.2419032 25.8337633,16.2419032 Z" id="Fill-20" fill="#E6772F" fill-rule="nonzero"></path>
                </g>
            </g>
        </g>
    </g>
</svg>