<?xml version="1.0" encoding="UTF-8"?>
<svg width="251px" height="271px" viewBox="0 0 251 271" version="1.1" xmlns="http://www.w3.org/2000/svg" xmlns:xlink="http://www.w3.org/1999/xlink">
    <title>Combined Shape</title>
    <g id="Anasayfa" stroke="none" stroke-width="1" fill="none" fill-rule="evenodd">
        <g id="anasayfa" transform="translate(-371.000000, -3116.000000)" fill="#2C318C">
            <path d="M590.5,3323 C607.900477,3323 622,3337.33111 622,3355.00318 C622,3372.67525 607.900477,3387 590.5,3387 C573.105786,3387 559,3372.67525 559,3355.00318 C559,3337.33111 573.105786,3323 590.5,3323 Z M476.563268,3116 C534.779203,3116 582,3163.21277 582,3221.56553 C582,3279.78271 534.779203,3327 476.563268,3327 C418.216278,3327 371,3279.78271 371,3221.56553 C371,3163.21277 418.216278,3116 476.563268,3116 Z M476.065565,3161 C442.378896,3161 415,3188.37539 415,3222.06331 C415,3255.62009 442.378896,3283 476.065565,3283 C509.616582,3283 537,3255.62009 537,3222.06331 C537,3188.37539 509.616582,3161 476.065565,3161 Z" id="Combined-Shape"></path>
        </g>
    </g>
</svg>