<?xml version="1.0" encoding="UTF-8"?>
<svg width="655px" height="660px" viewBox="0 0 655 660" version="1.1" xmlns="http://www.w3.org/2000/svg" xmlns:xlink="http://www.w3.org/1999/xlink">
    <title>Group Copy 2</title>
    <defs>
        <radialGradient cx="50%" cy="50%" fx="50%" fy="50%" r="50%" id="radialGradient-1">
            <stop stop-color="#82D1C4" offset="0%"></stop>
            <stop stop-color="#5CC2B2" stop-opacity="0" offset="100%"></stop>
        </radialGradient>
        <filter x="-30.7%" y="-30.7%" width="161.5%" height="161.5%" filterUnits="objectBoundingBox" id="filter-2">
            <feGaussianBlur stdDeviation="50" in="SourceGraphic"></feGaussianBlur>
        </filter>
    </defs>
    <g id="Anasayfa" stroke="none" stroke-width="1" fill="none" fill-rule="evenodd">
        <g id="Hakkimizda" transform="translate(-1265.000000, -150.000000)">
            <g id="Group-Copy-2" transform="translate(1277.000000, 152.000000)">
                <path d="M318,0 C493.62655,0 636,142.37345 636,318 C636,493.62655 493.62655,636 318,636 C142.37345,636 0,493.62655 0,318 C0,142.37345 142.37345,0 318,0 Z M318,0.727688787 C142.775341,0.727688787 0.727688787,142.775341 0.727688787,318 C0.727688787,493.224659 142.775341,635.272311 318,635.272311 C493.224659,635.272311 635.272311,493.224659 635.272311,318 C635.272311,142.775341 493.224659,0.727688787 318,0.727688787 Z" id="Oval" fill="#5CC2B2" fill-rule="nonzero" opacity="0.3"></path>
                <circle id="Oval" fill="url(#radialGradient-1)" opacity="0.455697093" filter="url(#filter-2)" cx="318" cy="328" r="244"></circle>
            </g>
        </g>
    </g>
</svg>