<svg width="58" height="198" viewBox="0 0 58 198" fill="none" xmlns="http://www.w3.org/2000/svg">
<g clip-path="url(#clip0_50_320)">
<path d="M5.32235 129.373H52.8141L57.7271 0H0.409412L5.32235 129.373ZM29.0682 198C36.9835 198 43.7843 195.373 49.4706 190.118C55.1569 184.863 58 178.431 58 170.821C58 163.301 55.1569 156.914 49.4706 151.66C43.7843 146.405 36.9835 143.778 29.0682 143.778C21.062 143.778 14.2157 146.405 8.52941 151.66C2.84314 156.914 0 163.301 0 170.821C0 178.431 2.84314 184.863 8.52941 190.118C14.2157 195.373 21.062 198 29.0682 198Z" fill="#EDEDEE"/>
</g>
<defs>
<clipPath id="clip0_50_320">
<rect width="58" height="198" fill="white"/>
</clipPath>
</defs>
</svg>
