<?xml version="1.0" encoding="UTF-8"?>
<svg width="25px" height="29px" viewBox="0 0 25 29" version="1.1" xmlns="http://www.w3.org/2000/svg" xmlns:xlink="http://www.w3.org/1999/xlink">
    <title>002-rock copy 2</title>
    <g id="Anasayfa" stroke="none" stroke-width="1" fill="none" fill-rule="evenodd">
        <g id="Villa-Fiyatlar" transform="translate(-429.000000, -2229.000000)" fill-rule="nonzero">
            <g id="002-rock-copy-2" transform="translate(429.000000, 2229.000000)">
                <path d="M4.49761258,23.1285881 C4.49761258,20.8772558 8.64531091,19.0129345 14.0550393,18.6878992 C13.5048689,18.6548343 12.9417115,18.6376001 12.3684346,18.6376001 C6.15852469,18.6376001 1.12440315,20.6482716 1.12440315,23.1285881 C1.12440315,25.6089046 6.15852469,27.6195761 12.3684346,27.6195761 C12.9417115,27.6195761 13.5048689,27.6023419 14.0550393,27.569277 C8.64525469,27.2442418 4.49761258,25.3799204 4.49761258,23.1285881 Z" id="Path" fill="#CEE1F2"></path>
                <path d="M20.2416179,16.7558762 C20.756707,17.1091485 21.4557484,16.9738575 21.8050442,16.4659829 C22.2582911,15.8070427 22.4880629,15.1022383 22.4880629,14.3711615 C22.4880629,12.7241478 21.3316705,11.2397079 19.2318476,10.1913429 C17.379787,9.26664847 14.9423058,8.75742657 12.3684346,8.75742657 C9.79456336,8.75742657 7.35708222,9.26664847 5.50496536,10.1913429 C3.40519871,11.2397079 2.24880629,12.7240917 2.24880629,14.3711615 C2.24880629,15.1022383 2.47857807,15.8070988 2.93182498,16.4659829 C3.28336963,16.9771696 3.9833668,17.1069592 4.49525134,16.7558762 C5.00713587,16.4048493 5.13711687,15.7058832 4.78557223,15.1947526 C4.59178135,14.9130554 4.49761258,14.6436522 4.49761258,14.3711615 C4.49761258,12.7811834 7.86362584,11.0029206 12.3684346,11.0029206 C16.8732434,11.0029206 20.2392566,12.7811834 20.2392566,14.3711615 C20.2392566,14.6436522 20.1450879,14.9130554 19.951297,15.1947526 C19.5997523,15.7059393 19.7297333,16.4049055 20.2416179,16.7558762 Z" id="Path" fill="#5DC1B2"></path>
                <path d="M17.3213742,5.45116121 C16.8259622,5.8250921 16.7279705,6.52922288 17.1024529,7.02384907 C17.4768792,7.51847526 18.1821048,7.6163788 18.6774607,7.24244791 C19.9683317,6.26801579 20.2392566,5.20836718 20.2392566,4.49098798 C20.2392566,3.14380386 19.3167401,1.94134183 17.6417167,1.10506373 C16.2143993,0.392456212 14.3416497,0 12.3684346,0 C10.3952195,0 8.52246986,0.392456212 7.09515251,1.10506373 C5.42012914,1.94134183 4.49761258,3.14380386 4.49761258,4.49098798 C4.49761258,5.20836718 4.76859374,6.26807193 6.05940855,7.24239177 C6.26236332,7.3955906 6.50039947,7.46952349 6.73658035,7.46952349 C7.07693718,7.46952349 7.4133586,7.31576329 7.63441626,7.02379293 C8.00889873,6.52911061 7.91085077,5.82503596 7.41549497,5.45110508 C7.16559637,5.26248358 6.74641887,4.88698085 6.74641887,4.49098798 C6.74641887,4.05839357 7.26538715,3.5305902 8.10081868,3.11348969 C9.20571344,2.5618841 10.7612127,2.24549399 12.3684346,2.24549399 C13.9756565,2.24549399 15.5311558,2.5618841 16.6360505,3.11348969 C17.4714821,3.5305902 17.9904503,4.05839357 17.9904503,4.49098798 C17.9904503,4.88698085 17.5712166,5.26248358 17.3213742,5.45116121 Z" id="Path" fill="#5DC1B2"></path>
                <path d="M20.7367488,18.9105399 C18.4833887,18.0105459 15.5114225,17.5148531 12.3684346,17.5148531 C9.22539049,17.5148531 6.25348054,18.0105459 4.00012041,18.9105399 C1.42062715,19.9408287 0,21.4387978 0,23.1285881 C0,24.8183785 1.42062715,26.3163475 4.00012041,27.3466363 C6.25348054,28.2466303 9.22539049,28.7423231 12.3684346,28.7423231 C15.5114225,28.7423231 18.4833887,28.2466303 20.7367488,27.3466363 C23.3162421,26.3163475 24.7368692,24.8183785 24.7368692,23.1285881 C24.7368692,21.4387978 23.3162421,19.9408287 20.7367488,18.9105399 L20.7367488,18.9105399 Z M19.9015421,25.2617513 C17.9074694,26.058228 15.232177,26.4968291 12.3684346,26.4968291 C9.50469223,26.4968291 6.82939983,26.058228 4.83527085,25.2617513 C3.26408611,24.6341918 2.24880629,23.7968471 2.24880629,23.1285881 C2.24880629,22.4603291 3.26408611,21.6229844 4.83527085,20.995425 C6.82939983,20.1989482 9.50469223,19.7603471 12.3684346,19.7603471 C15.232177,19.7603471 17.9074694,20.1989482 19.9015421,20.995425 C21.4727831,21.6229844 22.4880629,22.4603291 22.4880629,23.1285881 C22.4880629,23.7968471 21.4727831,24.6341918 19.9015421,25.2617513 Z" id="Shape" fill="#2C318C"></path>
            </g>
        </g>
    </g>
</svg>