<?xml version="1.0" encoding="UTF-8"?>
<svg width="29px" height="29px" viewBox="0 0 29 29" version="1.1" xmlns="http://www.w3.org/2000/svg" xmlns:xlink="http://www.w3.org/1999/xlink">
    <title>002-first-aid-kit</title>
    <g id="Anasayfa" stroke="none" stroke-width="1" fill="none" fill-rule="evenodd">
        <g id="Villa-Mesafeler" transform="translate(-812.000000, -942.000000)" fill-rule="nonzero">
            <g id="002-first-aid-kit" transform="translate(812.000000, 942.000000)">
                <path d="M4.536,21.93968 L4.536,14.15568 C4.536,11.062856 7.043176,8.55568 10.136,8.55568 L6.72,8.55568 C3.627176,8.55568 1.12,11.062856 1.12,14.15568 L1.12,21.93968 C1.12,25.032504 3.627176,27.53968 6.72,27.53968 L10.136,27.53968 C7.043176,27.53968 4.536,25.032504 4.536,21.93968 Z" id="Path" fill="#CEE1F2"></path>
                <path d="M21.952,28.65968 L6.72,28.65968 C3.014592,28.65968 0,25.645088 0,21.93968 L0,14.15568 C0,10.450272 3.014592,7.43568 6.72,7.43568 L21.952,7.43568 C25.657408,7.43568 28.672,10.450272 28.672,14.15568 L28.672,21.93968 C28.672,25.645144 25.657408,28.65968 21.952,28.65968 Z M6.72,9.67568 C4.249728,9.67568 2.24,11.685408 2.24,14.15568 L2.24,21.93968 C2.24,24.409952 4.249728,26.41968 6.72,26.41968 L21.952,26.41968 C24.422272,26.41968 26.432,24.409952 26.432,21.93968 L26.432,14.15568 C26.432,11.685408 24.422272,9.67568 21.952,9.67568 L6.72,9.67568 Z" id="Shape" fill="#2C318C"></path>
                <path d="M19.096,18.01968 C19.096,18.638256 18.594576,19.13968 17.976,19.13968 L15.456,19.13968 L15.456,21.65968 C15.396864,23.145696 13.274632,23.144576 13.216,21.65968 L13.216,19.13968 L10.696,19.13968 C9.209984,19.080544 9.211104,16.958312 10.696,16.89968 L13.216,16.89968 L13.216,14.37968 C13.275136,12.893664 15.397368,12.894784 15.456,14.37968 L15.456,16.89968 L17.976,16.89968 C18.594576,16.89968 19.096,17.401104 19.096,18.01968 Z M10.696,5.86768 C11.314576,5.86768 11.816,5.366256 11.816,4.74768 C11.816,3.358152 12.946472,2.22768 14.336,2.22768 C15.725528,2.22768 16.856,3.358152 16.856,4.74768 C16.914072,6.232128 19.037032,6.23392 19.096,4.74768 C18.834312,-1.567496 9.836344,-1.564864 9.576,4.747736 C9.576,5.366256 10.077424,5.86768 10.696,5.86768 Z" id="Shape" fill="#5DC1B2"></path>
            </g>
        </g>
    </g>
</svg>