<?xml version="1.0" encoding="UTF-8"?>
<svg width="29px" height="29px" viewBox="0 0 29 29" version="1.1" xmlns="http://www.w3.org/2000/svg" xmlns:xlink="http://www.w3.org/1999/xlink">
    <title>003-bank</title>
    <g id="Anasayfa" stroke="none" stroke-width="1" fill="none" fill-rule="evenodd">
        <g id="Villa-Mesafeler" transform="translate(-405.000000, -1048.000000)" fill-rule="nonzero">
            <g id="003-bank" transform="translate(405.000000, 1048.000000)">
                <path d="M4.48,7.84 C4.48,6.89668 5.063128,5.818176 5.888456,5.488 L16.016,1.4 L15.167544,1.279376 C14.910336,1.17656 14.629832,1.12 14.336,1.12 C14.042168,1.12 13.761664,1.17656 13.504456,1.279376 L2.528456,5.759376 C1.703128,6.089552 1.12,6.89668 1.12,7.84 C1.12,9.077096 2.122904,10.08 3.36,10.08 L6.72,10.08 C5.482904,10.08 4.48,9.077096 4.48,7.84 Z" id="Path" fill="#CEE1F2"></path>
                <circle id="Oval" fill="#5DC1B2" cx="14.336" cy="5.6" r="1.12"></circle>
                <g id="Group" fill="#2C318C">
                    <path d="M6.496,14.112 L6.496,18.592 C6.496,19.210576 6.997424,19.712 7.616,19.712 C8.234576,19.712 8.736,19.210576 8.736,18.592 L8.736,14.112 C8.736,13.493424 8.234576,12.992 7.616,12.992 C6.997424,12.992 6.496,13.493424 6.496,14.112 Z" id="Path"></path>
                    <path d="M19.712,14.112 L19.712,18.592 C19.712,19.210576 20.213424,19.712 20.832,19.712 C21.450576,19.712 21.952,19.210576 21.952,18.592 L21.952,14.112 C21.952,13.493424 21.450576,12.992 20.832,12.992 C20.213424,12.992 19.712,13.493424 19.712,14.112 Z" id="Path"></path>
                    <path d="M3.36,28.672 L25.312,28.672 C27.164704,28.672 28.672,27.164704 28.672,25.312 C28.672,23.851912 27.735568,22.607032 26.432,22.14464 L26.432,14.112 C26.432,13.493424 25.930576,12.992 25.312,12.992 C24.693424,12.992 24.192,13.493424 24.192,14.112 L24.192,21.952 L16.576,21.952 C15.957424,21.952 15.456,22.453424 15.456,23.072 C15.456,23.690576 15.957424,24.192 16.576,24.192 L25.312,24.192 C25.929568,24.192 26.432,24.694432 26.432,25.312 C26.432,25.929568 25.929568,26.432 25.312,26.432 L3.36,26.432 C2.742432,26.432 2.24,25.929568 2.24,25.312 C2.24,24.694432 2.742432,24.192 3.36,24.192 L12.096,24.192 C12.714576,24.192 13.216,23.690576 13.216,23.072 L13.216,18.592 C13.216,17.974432 13.718432,17.472 14.336,17.472 C14.953568,17.472 15.456,17.974432 15.456,18.592 C15.456,19.210576 15.957424,19.712 16.576,19.712 C17.194576,19.712 17.696,19.210576 17.696,18.592 C17.696,16.739296 16.188704,15.232 14.336,15.232 C12.483296,15.232 10.976,16.739296 10.976,18.592 L10.976,21.952 L4.48,21.952 L4.48,14.112 C4.48,13.493424 3.978576,12.992 3.36,12.992 C2.741424,12.992 2.24,13.493424 2.24,14.112 L2.24,22.14464 C0.936432,22.607032 0,23.851912 0,25.312 C0,27.164704 1.507296,28.672 3.36,28.672 Z" id="Path"></path>
                    <path d="M3.36,11.2 L25.312,11.2 C27.164704,11.2 28.672,9.692704 28.672,7.84 C28.672,6.459432 27.844768,5.235832 26.564104,4.72136 L15.590736,0.242424 C15.588272,0.241416 15.585752,0.240408 15.583288,0.2394 C15.185912,0.080528 14.766304,3.97903932e-16 14.336,3.97903932e-16 C13.90564,3.97903932e-16 13.485976,0.080584 13.088656,0.239456 C13.086192,0.240464 13.083728,0.241416 13.081264,0.242424 L2.108456,4.721136 C0.827456,5.235384 -2.78532752e-15,6.459152 -2.78532752e-15,7.84 C-2.78532752e-15,9.692704 1.507296,11.2 3.36,11.2 Z M2.944424,6.799296 C2.946888,6.798344 2.949296,6.797336 2.951704,6.796384 L13.923392,2.318176 C14.184912,2.21452 14.487032,2.214464 14.748776,2.318232 L25.720296,6.796384 C25.722704,6.797392 25.725112,6.798344 25.72752,6.799296 C26.155472,6.970488 26.432,7.378952 26.432,7.84 C26.432,8.457568 25.929568,8.96 25.312,8.96 L3.36,8.96 C2.742432,8.96 2.24,8.457568 2.24,7.84 C2.24,7.378952 2.516528,6.970488 2.944424,6.799296 L2.944424,6.799296 Z" id="Shape"></path>
                </g>
            </g>
        </g>
    </g>
</svg>