<?xml version="1.0" encoding="UTF-8"?>
<svg width="28px" height="28px" viewBox="0 0 28 28" version="1.1" xmlns="http://www.w3.org/2000/svg" xmlns:xlink="http://www.w3.org/1999/xlink">
    <title>003-swimming-pool copy 6</title>
    <g id="Anasayfa" stroke="none" stroke-width="1" fill="none" fill-rule="evenodd">
        <g id="Villa-Fiyatlar" transform="translate(-804.000000, -2232.000000)" fill-rule="nonzero">
            <g id="003-swimming-pool-copy-6" transform="translate(804.000000, 2232.000000)">
                <path d="M19.4528334,22.638 C18.636464,22.638 17.8388518,22.3083476 17.2592112,21.7301623 C17.0539061,21.5253423 16.8091462,21.3981383 16.6202806,21.3981383 C16.4300675,21.3981383 16.1843374,21.5253423 15.9790862,21.7301623 C15.4068299,22.3010711 14.6164942,22.6319093 13.8107431,22.6377844 C13.8034666,22.6378383 13.7961362,22.6378383 13.7888597,22.6378383 C12.9754548,22.6378383 12.1787589,22.3077547 11.5997112,21.7301084 C11.4229192,21.5537476 11.1889932,21.4524156 10.9579239,21.4520383 C10.9574927,21.4520383 10.9570076,21.4520383 10.9566303,21.4520383 C10.7256149,21.4520383 10.4994505,21.5507831 10.3195862,21.7301623 C9.7325074,22.3158397 8.919911,22.6444141 8.0914141,22.6377844 C7.2940175,22.6292143 6.5099342,22.29843 5.9402651,21.7301623 C5.7632036,21.553532 5.5297627,21.4521461 5.2996636,21.4520383 C5.2995558,21.4520383 5.2993941,21.4520383 5.2992324,21.4520383 C5.0594852,21.4520383 4.8306797,21.5494895 4.6548579,21.7264971 C4.0712826,22.3142227 3.299219,22.6378383 2.4806936,22.6378383 C2.4799929,22.6378383 2.4794539,22.6378383 2.4787532,22.6378383 C1.6707383,22.6373532 0.9028789,22.3149773 0.3166625,21.7301084 C-0.1047816,21.3095806 -0.1055901,20.6270449 0.3149377,20.2055469 C0.7354655,19.7841028 1.4180012,19.7832943 1.8394453,20.2037682 C2.016399,20.3803446 2.2498938,20.4816766 2.4801546,20.4818383 L2.4806936,20.4818383 C2.7204408,20.4818383 2.9492463,20.3843871 3.1250681,20.2073795 C3.7086434,19.6196539 4.4807609,19.2960383 5.2992863,19.2960383 L5.3007416,19.2960383 C6.1087026,19.2964156 6.8766159,19.6187915 7.462994,20.2037682 C7.6349889,20.3753858 7.8786169,20.4793589 8.1145911,20.4818922 C8.1175556,20.4819461 8.1205201,20.4819461 8.1235385,20.4819461 C8.3672204,20.4819461 8.6244312,20.3758709 8.7969112,20.2037682 C9.3851219,19.6170667 10.1526579,19.294583 10.9614274,19.2960383 C11.7577999,19.2973319 12.5454945,19.6281701 13.1224401,20.2037682 C13.2947045,20.3756014 13.5497054,20.4818383 13.789237,20.4818383 L13.7951121,20.4818383 C14.032865,20.4801135 14.2862489,20.3735532 14.4564112,20.2038221 C15.0690925,19.59265 15.8578112,19.2421922 16.6203345,19.2421922 C17.3815103,19.2421922 18.1693666,19.5927039 18.7819401,20.2038221 C18.954474,20.3759248 19.2109302,20.482 19.4533724,20.482 C19.4566603,20.482 19.4598943,20.482 19.4631283,20.4819461 C19.7000727,20.4791433 19.9441319,20.3751702 20.1158573,20.2038221 C20.7285386,19.5927039 21.5187665,19.2421922 22.2840926,19.2421922 C23.053569,19.2421383 23.8197036,19.5836487 24.4413862,20.2038221 C24.6133272,20.3753858 24.8718855,20.4818922 25.1162142,20.4818922 L25.1167532,20.4818922 C25.3469601,20.4817844 25.5805088,20.3803985 25.7575164,20.2038221 C26.1790144,19.7833482 26.8615501,19.7842106 27.282024,20.2056547 C27.7024979,20.6271527 27.7016894,21.3096884 27.2801914,21.7302162 C26.7023834,22.3065689 25.9143654,22.6374071 25.1181546,22.6378922 C25.1175078,22.6378922 25.116861,22.6378922 25.1162681,22.6378922 C24.2979583,22.6378922 23.497166,22.3071079 22.9187651,21.7301623 C22.71346,21.5253962 22.470371,21.3981922 22.2842543,21.3981922 C22.0942568,21.3981922 21.840819,21.5285224 21.6385862,21.7302162 C21.0698873,22.2975676 20.2862352,22.6284058 19.488623,22.6377844 C19.4767111,22.6379461 19.4646914,22.638 19.4528334,22.638 L19.4528334,22.638 Z M19.4885691,17.4633844 C20.2861813,17.4540058 21.0698334,17.1231137 21.6385323,16.5558162 C21.8407651,16.3541224 22.094149,16.2237922 22.2842004,16.2237922 C22.4703171,16.2237922 22.71346,16.3509962 22.9187112,16.5557623 C23.4970582,17.1327079 24.2979044,17.4634922 25.1162142,17.4634922 L25.1181007,17.4634922 C25.9143115,17.4630071 26.7023834,17.1321689 27.2801375,16.5558162 C27.7016355,16.1353423 27.702444,15.4528066 27.2819701,15.0312547 C26.8614962,14.6098106 26.1789605,14.6088943 25.7574625,15.0294221 C25.5804549,15.2059985 25.3469062,15.3073844 25.1166993,15.3074922 C25.1165376,15.3074922 25.1163759,15.3074922 25.1161603,15.3074922 C24.8718855,15.3074922 24.6133272,15.2009319 24.4413323,15.0294221 C23.8196497,14.4092487 23.0535151,14.0677383 22.2840387,14.0677922 C21.5187665,14.0677922 20.7285386,14.4183039 20.1158034,15.0294221 C19.9440241,15.2007702 19.7000188,15.3047433 19.4630744,15.3075461 C19.4598404,15.3075461 19.4566064,15.3076 19.4533185,15.3076 C19.2108763,15.3076 18.9544201,15.2015248 18.7818862,15.0294221 C18.1693127,14.4183039 17.3814564,14.0677922 16.6202806,14.0677922 C15.8577573,14.0677922 15.0690386,14.41825 14.4563573,15.0294221 C14.2862489,15.1991532 14.032865,15.3057135 13.7950582,15.3074383 C13.7930639,15.3074383 13.7911235,15.3074383 13.7891831,15.3074383 C13.5496515,15.3074383 13.2946506,15.2012014 13.1223862,15.0293682 C12.5454406,14.4537701 11.7577999,14.1229319 10.9613735,14.1216383 C10.9597565,14.1216383 10.9581395,14.1216383 10.9565225,14.1216383 C10.1506636,14.1216383 9.3838283,14.4439064 8.7968573,15.0293682 C8.6243773,15.2014709 8.3671126,15.3075461 8.1234846,15.3075461 C8.1204662,15.3075461 8.1175017,15.3075461 8.1145372,15.3074922 C7.878563,15.3049589 7.6349889,15.2009858 7.4629401,15.0293682 C6.876562,14.4443915 6.1086487,14.1220156 5.3006877,14.1216383 C5.3001487,14.1216383 5.2996636,14.1216383 5.2992324,14.1216383 C4.480707,14.1216383 3.7085895,14.4452539 3.1250142,15.0329795 C2.9491924,15.2099871 2.7203869,15.3074383 2.4806397,15.3074383 C2.4804241,15.3074383 2.4802624,15.3074383 2.4801007,15.3074383 C2.2498938,15.3073305 2.0163451,15.2059446 1.8393914,15.0293682 C1.4179473,14.6088943 0.7354116,14.6097028 0.3148838,15.0311469 C-0.105644,15.4526449 -0.1048355,16.1351806 0.3166086,16.5557084 C0.902825,17.1405773 1.6706844,17.4629532 2.4786993,17.4634383 L2.4806397,17.4634383 C3.2991651,17.4634383 4.0712287,17.1398227 4.654804,16.5520971 C4.8306258,16.3750895 5.0594313,16.2776383 5.2991785,16.2776383 L5.2996097,16.2776383 C5.5297088,16.2777461 5.7631497,16.3790781 5.9402112,16.5557623 C6.5098803,17.12403 7.2939636,17.4548682 8.0913602,17.4633844 C8.9198571,17.4712538 9.7324535,17.1414397 10.3195323,16.5557623 C10.4993966,16.3763292 10.725561,16.2776383 10.9565764,16.2776383 L10.95787,16.2776383 C11.1889393,16.2780156 11.4228653,16.3793476 11.5996573,16.5557084 C12.178705,17.1333547 12.9754009,17.4634383 13.7888058,17.4634383 C13.7960823,17.4634383 13.8034127,17.4634383 13.8106892,17.4633844 C14.6163864,17.4575093 15.4067221,17.1266711 15.9790323,16.5557623 C16.1843374,16.3509962 16.4300136,16.2237383 16.6202267,16.2237383 C16.8090923,16.2237383 17.0538522,16.3509423 17.2591573,16.5557623 C17.8388518,17.1339476 18.6365179,17.4636 19.4528334,17.4636 C19.4646914,17.4636 19.4767111,17.4635461 19.4885691,17.4633844 L19.4885691,17.4633844 Z M19.4885691,27.5965844 C20.2861813,27.5872058 21.0698334,27.2563137 21.6385323,26.6890162 C21.8407651,26.4873224 22.094149,26.3569922 22.2842004,26.3569922 C22.4703171,26.3569922 22.71346,26.4841962 22.9187112,26.6889623 C23.4970582,27.2659079 24.2979044,27.5966922 25.1162142,27.5966922 L25.1181007,27.5966922 C25.9143115,27.5962071 26.7023834,27.2653689 27.2801375,26.6890162 C27.7016355,26.2685423 27.702444,25.5860066 27.2819701,25.1644547 C26.8614962,24.7429567 26.1789605,24.7421482 25.7574625,25.1626221 C25.5804549,25.3391985 25.3469062,25.4405844 25.1166993,25.4406922 C25.1165376,25.4406922 25.1163759,25.4406922 25.1161603,25.4406922 C24.8718855,25.4406922 24.6133272,25.3341319 24.4413323,25.1626221 C23.8196497,24.5424487 23.0535151,24.2009383 22.2840387,24.2009922 C21.5187665,24.2009922 20.7285386,24.5515039 20.1158034,25.1626221 C19.9440241,25.3339702 19.7000188,25.4379433 19.4630744,25.4407461 C19.4598404,25.4407461 19.4566064,25.4408 19.4533185,25.4408 C19.2108763,25.4408 18.9544201,25.3347248 18.7818862,25.1626221 C18.1693127,24.5515039 17.3814564,24.2009922 16.6202806,24.2009922 C15.8577573,24.2009922 15.0690386,24.55145 14.4563573,25.1626221 C14.2862489,25.3323532 14.032865,25.4389135 13.7950582,25.4406383 C13.7930639,25.4406383 13.7911235,25.4406383 13.7891831,25.4406383 C13.5496515,25.4406383 13.2946506,25.3344014 13.1223862,25.1625682 C12.5454406,24.5869701 11.7577999,24.2561319 10.9613735,24.2548383 C10.9597565,24.2548383 10.9581395,24.2548383 10.9565225,24.2548383 C10.1506636,24.2548383 9.3838283,24.5771064 8.7968573,25.1625682 C8.6243773,25.3346709 8.3671126,25.4407461 8.1234846,25.4407461 C8.1204662,25.4407461 8.1175017,25.4407461 8.1145372,25.4406922 C7.878563,25.4381589 7.6349889,25.3341858 7.4629401,25.1625682 C6.876562,24.5775915 6.1086487,24.2552156 5.3006877,24.2548383 C5.3001487,24.2548383 5.2996636,24.2548383 5.2992324,24.2548383 C4.480707,24.2548383 3.7085895,24.5784539 3.1250142,25.1661795 C2.9491924,25.3431871 2.7203869,25.4406383 2.4806397,25.4406383 C2.4804241,25.4406383 2.4802624,25.4406383 2.4801007,25.4406383 C2.2498938,25.4405305 2.0163451,25.3391446 1.8393914,25.1625682 C1.4179473,24.7420943 0.7354116,24.7429028 0.3148838,25.1643469 C-0.105644,25.5858449 -0.1048355,26.2683806 0.3166086,26.6889084 C0.902825,27.2737773 1.6706844,27.5961532 2.4786993,27.5966383 L2.4806397,27.5966383 C3.2991651,27.5966383 4.0712287,27.2730227 4.654804,26.6852971 C4.8306258,26.5082895 5.0594313,26.4108383 5.2991785,26.4108383 L5.2996097,26.4108383 C5.5297088,26.4109461 5.7631497,26.5122781 5.9402112,26.6889623 C6.5098803,27.25723 7.2939636,27.5880682 8.0913602,27.5965844 C8.9198571,27.6034297 9.7324535,27.2746397 10.3195323,26.6889623 C10.4993966,26.5095292 10.725561,26.4108383 10.9565764,26.4108383 L10.95787,26.4108383 C11.1889393,26.4112156 11.4228653,26.5125476 11.5996573,26.6889084 C12.178705,27.2665547 12.9754009,27.5966383 13.7888058,27.5966383 C13.7960823,27.5966383 13.8034127,27.5966383 13.8106892,27.5965844 C14.6163864,27.5907093 15.4067221,27.2598711 15.9790323,26.6889623 C16.1843374,26.4841962 16.4300136,26.3569383 16.6202267,26.3569383 C16.8090923,26.3569383 17.0538522,26.4841423 17.2591573,26.6889623 C17.8388518,27.2671476 18.6365179,27.5968 19.4528334,27.5968 C19.4646914,27.5968 19.4767111,27.5967461 19.4885691,27.5965844 Z M27.5968,7.546 C27.5968,6.9506206 27.1141794,6.468 26.5188,6.468 L18.4338,6.468 C17.8384206,6.468 17.3558,6.9506206 17.3558,7.546 C17.3558,8.1413794 17.8384206,8.624 18.4338,8.624 L26.5188,8.624 C27.1141794,8.624 27.5968,8.1413794 27.5968,7.546 Z M4.4198,7.546 C4.4198,6.9506206 3.9371794,6.468 3.3418,6.468 L1.078,6.468 C0.4826206,6.468 0,6.9506206 0,7.546 C0,8.1413794 0.4826206,8.624 1.078,8.624 L3.3418,8.624 C3.9371794,8.624 4.4198,8.1413794 4.4198,7.546 Z" id="Shape" fill="#2C318C"></path>
                <path d="M10.8878,0 L10.3488,0 C9.7534206,0 9.2708,0.4826206 9.2708,1.078 C9.2708,1.6733794 9.7534206,2.156 10.3488,2.156 L10.8878,2.156 C12.0766184,2.156 13.0438,3.1231816 13.0438,4.312 L13.0438,6.468 L8.7318,6.468 L8.7318,4.312 C8.7318,1.9343632 6.7974368,0 4.4198,0 L3.8808,0 C3.2854206,0 2.8028,0.4826206 2.8028,1.078 C2.8028,1.6733794 3.2854206,2.156 3.8808,2.156 L4.4198,2.156 C5.6086184,2.156 6.5758,3.1231816 6.5758,4.312 L6.5758,11.858 C6.5758,12.4533794 7.0584206,12.936 7.6538,12.936 C8.2491794,12.936 8.7318,12.4533794 8.7318,11.858 L8.7318,8.624 L13.0438,8.624 L13.0438,11.858 C13.0438,12.4533794 13.5264206,12.936 14.1218,12.936 C14.7171794,12.936 15.1998,12.4533794 15.1998,11.858 L15.1998,4.312 C15.1998,1.9343632 13.2654368,0 10.8878,0 Z" id="Path" fill="#5DC1B2"></path>
            </g>
        </g>
    </g>
</svg>