<?xml version="1.0" encoding="UTF-8"?>
<svg width="29px" height="29px" viewBox="0 0 29 29" version="1.1" xmlns="http://www.w3.org/2000/svg" xmlns:xlink="http://www.w3.org/1999/xlink">
    <title>004-dinner copy 2</title>
    <g id="Anasayfa" stroke="none" stroke-width="1" fill="none" fill-rule="evenodd">
        <g id="Villa-Fiyatlar" transform="translate(-804.000000, -2172.000000)" fill-rule="nonzero">
            <g id="004-dinner-copy-2" transform="translate(804.000000, 2172.000000)">
                <path d="M4.480056,14.224112 C4.480056,7.494256 9.510312,1.93928 16.016056,1.113952 C15.465912,1.044176 14.905184,1.008112 14.336056,1.008112 C7.037072,1.008112 1.120056,6.925128 1.120056,14.224112 C1.120056,21.523096 7.037072,27.440112 14.336056,27.440112 C14.905184,27.440112 15.465912,27.404104 16.016056,27.334272 C9.510312,26.508944 4.480056,20.953968 4.480056,14.224112 Z" id="Path" fill="#CEE1F2"></path>
                <path d="M23.912056,11.368112 C21.287392,11.368112 19.152056,9.210152 19.152056,6.557656 C19.152056,4.525024 19.42416,1.170736 19.435752,1.028944 C19.486096,0.41244 20.02756,-0.0462 20.643224,0.003864 C21.259728,0.054208 21.718704,0.594832 21.66836,1.211336 C21.665616,1.24516 21.392056,4.616808 21.392056,6.557656 C21.392056,7.975016 22.522528,9.128112 23.912056,9.128112 C25.301584,9.128112 26.432056,7.975016 26.432056,6.557656 C26.432056,4.615464 26.158552,1.24516 26.155752,1.211336 C26.105408,0.594832 26.564328,0.054208 27.180832,0.003864 C27.79672,-0.04676 28.33796,0.412384 28.38836,1.028944 C28.399952,1.170736 28.672056,4.525024 28.672056,6.557656 C28.672056,9.210152 26.53672,11.368112 23.912056,11.368112 L23.912056,11.368112 Z M25.032056,5.432112 L25.032056,1.120112 C25.032056,0.501536 24.530632,0.000112 23.912056,0.000112 C23.29348,0.000112 22.792056,0.501536 22.792056,1.120112 L22.792056,5.432112 C22.792056,6.050688 23.29348,6.552112 23.912056,6.552112 C24.530632,6.552112 25.032056,6.050688 25.032056,5.432112 Z M20.287064,27.395928 C20.850312,27.140232 21.099568,26.476296 20.843816,25.913104 C20.588176,25.349912 19.924296,25.100544 19.360992,25.356352 C17.810856,26.06016 16.073288,26.432168 14.336056,26.432168 C7.666288,26.432168 2.240056,21.005936 2.240056,14.336168 C2.240056,7.6664 7.666288,2.240168 14.336056,2.240168 C14.885472,2.240168 15.437744,2.277296 15.977584,2.350488 C16.590168,2.43348 17.15476,2.004072 17.23792,1.391152 C17.32108,0.778232 16.891504,0.21392 16.278584,0.130816 C15.639344,0.044128 14.985824,0.000168 14.336056,0.000168 C10.506776,0.000168 6.906704,1.491392 4.198936,4.199048 C1.491224,6.90676 5.60000008e-05,10.506888 5.60000008e-05,14.336168 C5.60000008e-05,18.165448 1.49128,21.76552 4.198936,24.473288 C6.906704,27.181 10.506776,28.672168 14.336056,28.672168 C16.39036,28.672168 18.448248,28.230832 20.287064,27.395928 L20.287064,27.395928 Z M14.575456,23.237536 C15.193864,23.222864 15.683248,22.70968 15.668632,22.091328 C15.654016,21.47292 15.1424,20.984208 14.522368,20.998152 C14.469056,20.999384 14.415912,21 14.362768,21 C10.775632,21 7.815416,18.125968 7.72996,14.521136 C7.687904,12.749072 8.338568,11.066664 9.562,9.783872 C10.785488,8.50108 12.43536,7.771456 14.207704,7.7294 C14.745024,7.716912 15.339016,7.783272 15.926568,7.92204 C16.529016,8.064336 17.131856,7.691432 17.274096,7.089488 C17.41628,6.487488 17.043544,5.8842 16.441544,5.742016 C15.670704,5.55996 14.879648,5.472488 14.154616,5.490016 C11.784136,5.546184 9.577512,6.522096 7.94108,8.237824 C6.304648,9.953608 5.434352,12.203912 5.490632,14.574224 C5.604984,19.396048 9.563848,23.2400094 14.362096,23.2400094 C14.432768,23.2400094 14.504448,23.239216 14.575456,23.237536 Z" id="Shape" fill="#2C318C"></path>
                <path d="M23.912056,28.672112 C23.29348,28.672112 22.792056,28.170688 22.792056,27.552112 L22.792056,14.728112 C22.792056,14.109536 23.29348,13.608112 23.912056,13.608112 C24.530632,13.608112 25.032056,14.109536 25.032056,14.728112 L25.032056,27.552112 C25.032056,28.170688 24.530632,28.672112 23.912056,28.672112 Z" id="Path" fill="#5DC1B2"></path>
            </g>
        </g>
    </g>
</svg>