<?xml version="1.0" encoding="UTF-8"?>
<svg width="29px" height="29px" viewBox="0 0 29 29" version="1.1" xmlns="http://www.w3.org/2000/svg" xmlns:xlink="http://www.w3.org/1999/xlink">
    <title>004-cocktail copy</title>
    <g id="Anasayfa" stroke="none" stroke-width="1" fill="none" fill-rule="evenodd">
        <g id="IconSet" transform="translate(-703.000000, -549.000000)" fill-rule="nonzero">
            <g id="004-cocktail-copy" transform="translate(703.000000, 549.000000)">
                <path d="M13.0497851,18.8621302 L5.51785021,9.11487088 C4.67317561,7.56048076 5.80070203,5.6698834 7.57233641,5.6698834 L3.46651369,5.6698834 C1.69482306,5.6698834 0.567352897,7.56048076 1.41202749,9.11487088 L8.94396241,18.8621302 C10.0947739,20.6276533 12.2988133,20.9060951 13.8653253,19.7585893 C13.5654877,19.52691 13.2899476,19.2309533 13.0497851,18.8621302 Z" id="Path" fill="#CEE1F2"></path>
                <path d="M18.3929791,27.6195739 C18.3929791,28.2396683 17.889369,28.7423231 17.2680961,28.7423231 L6.35673166,28.7423231 C5.73545882,28.7423231 5.23184872,28.2396683 5.23184872,27.6195739 C5.23184872,26.9994795 5.73545882,26.4968247 6.35673166,26.4968247 L17.2680961,26.4968247 C17.889369,26.4968247 18.3929791,26.9994795 18.3929791,27.6195739 Z M28.7981462,1.12269305 C28.7981462,1.74278743 28.2945362,2.24544224 27.6732633,2.24544224 L22.3016661,2.24544224 C21.7823076,2.24544224 21.2828033,2.49053839 20.9655864,2.90107163 L19.6998681,4.54707808 L20.1582579,4.54707808 C22.7432951,4.50592932 24.4703279,7.40194858 23.2015724,9.65014155 C23.1730004,9.70279849 15.597645,19.5141668 15.597645,19.5141668 C14.9395322,20.5048246 14.0185906,21.1607908 12.9372968,21.4261526 L12.9372968,23.2409082 C12.9372968,23.8610026 12.4336867,24.3636574 11.8124139,24.3636574 C11.1911411,24.3636574 10.687531,23.8610026 10.687531,23.2409082 L10.687531,21.4261526 C9.60623724,21.1608469 8.68529558,20.5048246 8.02718282,19.5141668 C8.02718282,19.5141668 0.451771175,9.70279849 0.423199148,9.65014155 C-0.164327209,8.56882181 -0.138792367,7.29219984 0.491592031,6.23518762 C1.12197643,5.1781754 2.23409194,4.54713421 3.46656993,4.54713421 L16.8639819,4.54713421 L19.1825344,1.53187899 C19.9242822,0.571872299 21.0897734,0 22.3017223,0 L27.6733195,0 C28.2945362,0 28.7981462,0.502598674 28.7981462,1.12269305 Z M20.1582579,6.79257646 L3.46651369,6.79257646 C2.55333372,6.80009887 2.00056625,7.71906909 2.36609696,8.5111125 C2.36609696,8.5111125 9.87064098,18.2249701 9.88712051,18.2502319 C10.3466914,18.9558798 10.9944553,19.3136438 11.8124139,19.3136438 C12.6303725,19.3136438 13.2781926,18.9558237 13.7377073,18.2502319 C13.7541868,18.2249701 21.2587308,8.5111125 21.2587308,8.5111125 C21.6234179,7.71491491 21.072619,6.80234437 20.1582579,6.79257646 Z" id="Shape" fill="#2C318C"></path>
                <path d="M15.69326,11.2835732 L7.87532362,11.2835732 C6.38693477,11.229569 6.38322265,9.09359478 7.87532362,9.03807483 L15.69326,9.03807483 C16.3145329,9.03807483 16.818143,9.54072964 16.818143,10.160824 C16.818143,10.7809184 16.3145329,11.2835732 15.69326,11.2835732 Z" id="Path" fill="#5DC1B2"></path>
            </g>
        </g>
    </g>
</svg>