<?xml version="1.0" encoding="UTF-8"?>
<svg width="29px" height="29px" viewBox="0 0 29 29" version="1.1" xmlns="http://www.w3.org/2000/svg" xmlns:xlink="http://www.w3.org/1999/xlink">
    <title>005-wifi-router copy 2</title>
    <g id="Anasayfa" stroke="none" stroke-width="1" fill="none" fill-rule="evenodd">
        <g id="Villa-Fiyatlar" transform="translate(-427.000000, -2352.000000)" fill-rule="nonzero">
            <g id="005-wifi-router-copy-2" transform="translate(427.000000, 2352.000000)">
                <path d="M4.49971035,23.1285881 L4.49971035,18.6376001 C4.49971035,17.3974699 5.50702676,16.3921061 6.74956553,16.3921061 L3.37478276,16.3921061 C2.132244,16.3921061 1.12492759,17.3974699 1.12492759,18.6376001 L1.12492759,23.1285881 C1.12492759,24.3687183 2.132244,25.3740821 3.37478276,25.3740821 L6.74956553,25.3740821 C5.50702676,25.3740821 4.49971035,24.3687183 4.49971035,23.1285881 Z" id="Path" fill="#CEE1F2"></path>
                <ellipse id="Oval" fill="#5DC1B2" cx="18.8987835" cy="20.8830941" rx="1.12492759" ry="1.122747"></ellipse>
                <ellipse id="Oval" fill="#5DC1B2" cx="14.3990731" cy="20.8830941" rx="1.12492759" ry="1.122747"></ellipse>
                <ellipse id="Oval" fill="#5DC1B2" cx="9.89936277" cy="20.8830941" rx="1.12492759" ry="1.122747"></ellipse>
                <path d="M25.4233635,15.2693591 L3.37478276,15.2693591 C1.51392755,15.2693591 0,16.7803521 0,18.6376001 L0,23.1285881 C0,24.5922572 0.940551956,25.8401905 2.24985518,26.3037166 L2.24985518,27.6195761 C2.24985518,28.2396693 2.75348526,28.7423231 3.37478276,28.7423231 C3.99608027,28.7423231 4.49971035,28.2396693 4.49971035,27.6195761 L4.49971035,26.4968291 L24.2984359,26.4968291 L24.2984359,27.6195761 C24.2984359,28.2396693 24.802066,28.7423231 25.4233635,28.7423231 C26.044661,28.7423231 26.5482911,28.2396693 26.5482911,27.6195761 L26.5482911,26.3037166 C27.8575943,25.8402467 28.7981462,24.5922572 28.7981462,23.1285881 L28.7981462,18.6376001 C28.7981462,16.7803521 27.2842187,15.2693591 25.4233635,15.2693591 Z M26.5482911,23.1285881 C26.5482911,23.7476708 26.0436486,24.2513351 25.4233635,24.2513351 L3.37478276,24.2513351 C2.75449769,24.2513351 2.24985518,23.7476708 2.24985518,23.1285881 L2.24985518,18.6376001 C2.24985518,18.0185174 2.75449769,17.5148531 3.37478276,17.5148531 L25.4233635,17.5148531 C26.0436486,17.5148531 26.5482911,18.0185174 26.5482911,18.6376001 L26.5482911,23.1285881 Z" id="Shape" fill="#2C318C"></path>
                <path d="M25.648349,13.0238652 C25.0270515,13.0238652 24.5234214,12.5212113 24.5234214,11.9011182 L24.5234214,1.122747 C24.5234214,0.50265383 25.0270515,0 25.648349,0 C26.2696465,0 26.7732766,0.50265383 26.7732766,1.122747 L26.7732766,11.9011182 C26.7732766,12.5212113 26.2696465,13.0238652 25.648349,13.0238652 Z" id="Path" fill="#2C318C"></path>
                <path d="M3.14979725,13.0238652 C2.52849974,13.0238652 2.02486966,12.5212113 2.02486966,11.9011182 L2.02486966,1.122747 C2.02486966,0.50265383 2.52849974,0 3.14979725,0 C3.77109475,0 4.27472483,0.50265383 4.27472483,1.122747 L4.27472483,11.9011182 C4.27472483,12.5212113 3.77109475,13.0238652 3.14979725,13.0238652 Z" id="Path" fill="#2C318C"></path>
                <path d="M18.334576,4.83668178 C17.0874813,4.30927138 15.7633853,4.04188919 14.3990731,4.04188919 C13.0347609,4.04188919 11.7106649,4.30927138 10.4635702,4.83668178 C9.89148828,5.0786899 9.23132452,4.81186908 8.98890263,4.24095223 C8.74648073,3.67003538 9.01376353,3.01103903 9.58578921,2.76914319 C11.1121472,2.12367594 12.7315367,1.79639519 14.3990731,1.79639519 C16.0666095,1.79639519 17.685999,2.12367594 19.2123008,2.76914319 C19.7843265,3.01103903 20.0516093,3.66997924 19.8091874,4.24095223 C19.5676654,4.80996041 18.9084016,5.07936355 18.334576,4.83668178 L18.334576,4.83668178 Z" id="Path" fill="#2C318C"></path>
                <path d="M16.5850324,8.97411674 C15.8926395,8.68136046 15.1571618,8.53287717 14.3990731,8.53287717 C13.6409844,8.53287717 12.9055068,8.68136046 12.2131138,8.97411674 C11.6412006,9.21601258 10.9808682,8.94930403 10.7384463,8.37833105 C10.4960806,7.8074142 10.7633634,7.14841785 11.3353891,6.90652201 C12.306989,6.49570888 13.3377602,6.28738318 14.3990731,6.28738318 C15.4603861,6.28738318 16.4911572,6.49570888 17.4627009,6.90652201 C18.0347266,7.14841785 18.3020094,7.80735806 18.0596437,8.37833105 C17.8180655,8.9474515 17.1587455,9.21674236 16.5850324,8.97411674 Z" id="Path" fill="#2C318C"></path>
                <path d="M14.8365575,13.1116078 C14.5607252,12.9951228 14.2374773,12.9951228 13.9615888,13.1116078 C13.3893944,13.353223 12.7292869,13.0860092 12.4872587,12.5149801 C12.2452305,11.9438948 12.5128508,11.285123 13.0850452,11.0435079 C13.5018309,10.8675734 13.9439274,10.778315 14.3990731,10.778315 C14.8542188,10.778315 15.2963154,10.8675173 15.713101,11.0435079 C16.2852955,11.285123 16.5529157,11.9438948 16.3108876,12.5149801 C16.0692531,13.0849987 15.4098206,13.3535598 14.8365575,13.1116078 L14.8365575,13.1116078 Z" id="Path" fill="#2C318C"></path>
            </g>
        </g>
    </g>
</svg>