<?xml version="1.0" encoding="UTF-8"?>
<svg width="29px" height="25px" viewBox="0 0 29 25" version="1.1" xmlns="http://www.w3.org/2000/svg" xmlns:xlink="http://www.w3.org/1999/xlink">
    <title>006-take-off</title>
    <g id="Anasayfa" stroke="none" stroke-width="1" fill="none" fill-rule="evenodd">
        <g id="Villa-Mesafeler" transform="translate(-405.000000, -951.000000)" fill-rule="nonzero">
            <g id="006-take-off" transform="translate(405.000000, 951.000000)">
                <path d="M11.416832,1.653848 C10.818752,1.354976 10.209136,1.15304 9.613296,1.122464 C8.290464,1.054648 7.402864,2.449552 8.064336,3.597104 L11.796624,8.216768 C12.263496,9.02664 11.9854,10.061688 11.175472,10.52856 L10.722264,12.080936 L13.596688,10.46192 C15.100848,9.614696 15.489656,7.622608 14.414456,6.272 L11.592336,2.86524 C11.363016,2.467416 11.320176,2.039912 11.416832,1.653848 Z" id="Path" fill="#CEE1F2"></path>
                <path d="M27.552168,24.528056 L1.120168,24.528056 C0.501592,24.528056 0.000168,24.026632 0.000168,23.408056 C0.000168,22.78948 0.501592,22.288056 1.120168,22.288056 L27.552168,22.288056 C28.170744,22.288056 28.672168,22.78948 28.672168,23.408056 C28.672168,24.026632 28.170744,24.528056 27.552168,24.528056 Z" id="Path" fill="#5DC1B2"></path>
                <path d="M5.254704,18.729816 C3.746792,18.324712 2.486904,17.35664 1.707104,16.003904 L0.152096,13.331304 C-0.158984,12.796672 0.022288,12.111064 0.55692,11.799984 C1.091552,11.48896 1.77716,11.67012 2.08824,12.204808 L3.645488,14.881328 C4.128712,15.719536 4.905768,16.316664 5.835872,16.56648 C6.765808,16.816408 7.737576,16.689064 8.57192,16.20808 L26.23656,6.025432 C26.403104,5.929392 26.428472,5.754112 26.431664,5.683216 C26.435416,5.598824 26.420464,5.442248 26.27744,5.341672 C25.167744,4.561648 24.028144,4.497808 22.89028,5.15172 L18.79836,7.57204 C18.407984,7.802984 17.916864,7.775768 17.554544,7.502824 L11.874128,3.22616 C10.96144,2.604448 10.181584,2.272984 9.555952,2.240952 C9.245208,2.2246 9.090872,2.421552 9.038736,2.506672 C8.98408,2.59588 8.912512,2.769816 9.004744,2.978864 L12.667816,7.512904 C12.704608,7.558432 12.73776,7.606704 12.766936,7.657384 C13.142136,8.308272 13.241424,9.066344 13.046488,9.79188 C12.852168,10.515176 12.388712,11.119864 11.741016,11.495344 L7.010136,14.292152 C6.477576,14.606928 5.790848,14.430472 5.476016,13.897968 C5.161184,13.36552 5.337696,12.67868 5.870144,12.363848 L10.605504,9.564408 C10.609032,9.562336 10.61256,9.560264 10.616144,9.558248 C10.748696,9.481864 10.843504,9.35844 10.883208,9.210712 C10.9172,9.08404 10.907232,8.952608 10.8556,8.834112 L7.193144,4.300856 C7.156352,4.255328 7.123256,4.207056 7.094024,4.156432 C6.580168,3.26508 6.593104,2.210992 7.128576,1.33672 C7.664552,0.461608 8.638,-0.049224 9.670696,0.003864 C10.733688,0.058352 11.874968,0.512232 13.159664,1.391488 C13.173608,1.401008 13.187272,1.410864 13.200712,1.421 L18.30304,5.262432 L21.755832,3.220168 C21.759416,3.21804 21.763,3.215912 21.76664,3.21384 C23.672376,2.115288 25.731832,2.219952 27.565552,3.509016 C28.297584,4.023544 28.710248,4.873848 28.669424,5.783568 C28.62832,6.699504 28.137032,7.515368 27.355216,7.966 L9.690688,18.148704 C8.79088,18.667488 7.792288,18.93248 6.78076,18.93248 C6.27172,18.93248 5.759544,18.865448 5.254704,18.729816 Z" id="Path" fill="#2C318C"></path>
            </g>
        </g>
    </g>
</svg>