<?xml version="1.0" encoding="UTF-8"?>
<svg width="25px" height="29px" viewBox="0 0 25 29" version="1.1" xmlns="http://www.w3.org/2000/svg" xmlns:xlink="http://www.w3.org/1999/xlink">
    <title>006-espresso copy 2</title>
    <g id="Anasayfa" stroke="none" stroke-width="1" fill="none" fill-rule="evenodd">
        <g id="Villa-Fiyatlar" transform="translate(-806.000000, -2113.000000)" fill-rule="nonzero">
            <g id="006-espresso-copy-2" transform="translate(806.000000, 2113.000000)">
                <path d="M9.68564291,20.3633972 L7.57615496,11.523588 C7.23939698,10.1124767 8.31095074,8.75761453 9.76373253,8.75761453 L6.24143524,8.75761453 C4.78865345,8.75761453 3.71715591,10.1124767 4.05385767,11.523588 L6.16334562,20.3633972 C6.55019564,21.9846286 8.00106594,23.1286409 9.67006996,23.1286409 L13.192311,23.1286409 C11.523307,23.1286409 10.0724929,21.9845725 9.68564291,20.3633972 Z" id="Path" fill="#CEE1F2"></path>
                <path d="M22.3755717,28.7423231 L1.12440059,28.7423231 C0.503394144,28.7423231 0,28.239674 0,27.6195867 C0,26.9994993 0.503394144,26.4968502 1.12440059,26.4968502 L22.3755717,26.4968502 C22.9965782,26.4968502 23.4999723,26.9994993 23.4999723,27.6195867 C23.4999723,28.239674 22.9965782,28.7423231 22.3755717,28.7423231 Z M18.4478718,20.6366151 L18.6503202,19.8646215 C18.6535247,19.852496 18.6618453,19.8462087 18.6647125,19.8457596 C19.2905538,19.7442642 20.9019323,19.4020541 22.3451005,18.4195475 C23.9098164,17.3542952 24.7368692,15.8925484 24.7368692,14.1922764 C24.7368692,13.3157561 24.4359234,12.49599 23.8896334,11.8839864 C23.4762475,11.4210822 22.7655701,11.3803268 22.3020922,11.7929886 C21.838558,12.2055943 21.7977423,12.915276 22.2109595,13.3781802 C22.4399999,13.6347255 22.4881242,13.9625084 22.4881242,14.1922764 C22.4881242,15.1425605 22.0270076,15.9184837 21.078407,16.5642817 C19.9778437,17.3135398 18.6767436,17.5689062 18.3042296,17.6293656 C17.4209005,17.7725706 16.7028583,18.426733 16.4749423,19.2958994 L16.2696268,20.0790642 C16.2674904,20.0870918 16.2655227,20.0951193 16.2636112,20.103203 C15.996285,21.2235256 15.0040577,22.0059606 13.8505914,22.0059606 L9.67035106,22.0059606 C8.51688471,22.0059606 7.52465741,21.2235256 7.25733117,20.103203 L5.14761834,11.2633377 C5.06739236,10.9270781 5.1444138,10.5785808 5.35900565,10.3072715 C5.57354129,10.0359622 5.8952323,9.88040711 6.24143524,9.88040711 L17.3147009,9.88040711 C17.6609039,9.88040711 17.9825949,10.0360184 18.1971305,10.3072715 C18.4116661,10.5785808 18.4887438,10.9270781 18.4085178,11.2633377 L17.6351551,14.5040603 C17.4911756,15.1072504 17.8641955,15.7127422 18.4682797,15.8564525 C19.0723639,16.0003311 19.6788094,15.6277511 19.8226764,15.0245609 L20.5960392,11.7838383 C20.8367733,10.7749474 20.6056528,9.72956747 19.9619897,8.91563969 C19.3182703,8.10171191 18.353366,7.63493423 17.3147009,7.63493423 L6.24143524,7.63493423 C5.20277019,7.63493423 4.23786582,8.10171191 3.59414649,8.91563969 C2.95048337,9.72956747 2.71930661,10.7750035 2.96009699,11.7838383 L5.06958494,20.6236475 C5.57921951,22.7596536 7.47107972,24.2514335 9.67012618,24.2514335 L13.8503665,24.2514335 C16.045084,24.2514335 17.9336834,22.7657164 18.4478718,20.6366151 L18.4478718,20.6366151 Z" id="Shape" fill="#2C318C"></path>
                <path d="M11.7913641,5.38946136 C11.5655845,5.38946136 11.3378371,5.32181649 11.1399426,5.18113762 C10.6341872,4.82135673 10.5161814,4.12032009 10.8764394,3.61525711 C10.9064608,3.57315449 10.9271498,3.53975308 10.9412048,3.51471606 C10.9165805,3.4698066 10.8828484,3.41333296 10.8554131,3.36746918 C10.5809469,2.9086068 10.0098638,1.95383173 10.8196009,0.559673761 C11.1311723,0.023230292 11.819193,-0.159382789 12.3563754,0.151727477 C12.8935578,0.462837744 13.0764978,1.14984017 12.7649264,1.6862275 C12.6528798,1.87916976 12.6494504,1.96157861 12.6494504,1.96236453 C12.6576023,2.00121121 12.7349049,2.13049431 12.7860651,2.21604683 C13.0598566,2.67378647 13.6295904,3.62625993 12.7080879,4.9179682 C12.4888298,5.22548571 12.1426269,5.38946136 11.7913641,5.38946136 L11.7913641,5.38946136 Z M8.21054177,4.91802433 C9.13204427,3.62625993 8.5623105,2.67378647 8.28851895,2.21610296 C8.23735872,2.13060658 8.16005618,2.00132348 8.15190428,1.96242066 C8.15190428,1.96163475 8.1553337,1.87922589 8.26738022,1.68628364 C8.57895162,1.14989631 8.39601165,0.46289388 7.85882927,0.151783614 C7.32164688,-0.159326652 6.63362616,0.0232864289 6.32205476,0.559729898 C5.51231767,1.95388787 6.08340073,2.90866293 6.35786692,3.36752531 C6.38530229,3.4133891 6.41909053,3.4698066 6.44365868,3.5147722 C6.42960368,3.53980922 6.4089147,3.57321063 6.37889321,3.61531325 C6.01863526,4.12037623 6.13658488,4.82141286 6.64239649,5.18119375 C6.84029099,5.32192877 7.06803833,5.3895175 7.29381797,5.3895175 C7.64502449,5.38946136 7.99122744,5.22548571 8.21054177,4.91802433 L8.21054177,4.91802433 Z M17.1495265,4.91802433 C18.071029,3.62625993 17.5012952,2.67378647 17.2275036,2.21610296 C17.1763434,2.13060658 17.0990409,2.00132348 17.090889,1.96242066 C17.090889,1.96163475 17.0943184,1.87922589 17.2063649,1.68628364 C17.5179363,1.14989631 17.3349963,0.46289388 16.797814,0.151783614 C16.2606316,-0.159326652 15.5726109,0.0232864289 15.2610395,0.559729898 C14.4513024,1.95388787 15.0223854,2.90866293 15.2968516,3.36752531 C15.324287,3.4133891 15.3580752,3.4698066 15.3826434,3.5147722 C15.3685884,3.53980922 15.3478994,3.57321063 15.3178779,3.61531325 C14.95762,4.12037623 15.0755696,4.82141286 15.5813812,5.18119375 C15.7792757,5.32192877 16.007023,5.3895175 16.2328027,5.3895175 C16.5840092,5.38946136 16.9302121,5.22548571 17.1495265,4.91802433 L17.1495265,4.91802433 Z" id="Shape" fill="#5DC1B2"></path>
            </g>
        </g>
    </g>
</svg>