<?xml version="1.0" encoding="UTF-8"?>
<svg width="29px" height="29px" viewBox="0 0 29 29" version="1.1" xmlns="http://www.w3.org/2000/svg" xmlns:xlink="http://www.w3.org/1999/xlink">
    <title>009-cleaning copy 3</title>
    <g id="Anasayfa" stroke="none" stroke-width="1" fill="none" fill-rule="evenodd">
        <g id="Villa-Fiyatlar" transform="translate(-804.000000, -2350.000000)" fill-rule="nonzero">
            <g id="009-cleaning-copy-3" transform="translate(804.000000, 2350.000000)">
                <path d="M10.7867527,22.7626287 L11.8232925,15.158937 C12.1252885,12.9436449 13.7100222,11.1395027 15.8264129,10.526146 L15.2393516,9.99244826 L13.023908,10.3910796 C10.6245894,10.8227758 8.77712088,12.7479501 8.44846328,15.158937 L7.41192346,22.7626287 C7.03258634,25.5449081 4.65188588,27.6195761 1.83841261,27.6195761 L4.49984729,27.6195761 L5.21329808,27.6195761 C8.02677135,27.6195761 10.4074718,25.5449081 10.7867527,22.7626287 Z" id="Path" fill="#CEE1F2"></path>
                <path d="M28.7364748,21.0976511 L27.9103028,15.037568 C27.7156282,13.6095461 27.0828371,12.3064298 26.0803837,11.2691239 C25.0779302,10.2318179 23.7959799,9.5536226 22.373072,9.30790942 L20.8647794,9.04743212 L20.8680418,3.36824099 C20.8680418,2.47060476 20.5248722,1.62736563 19.9018121,0.993911778 C19.2713835,0.352991656 18.4265934,0 17.5230241,0 C15.6456315,0 14.1182709,1.51099291 14.1182709,3.36756734 L14.1149522,9.05388791 L12.8242835,9.28612813 C9.93588781,9.80584771 7.72944394,12.1050651 7.33373862,15.0075345 L6.29719879,22.6112263 C5.99525904,24.8264061 4.07838034,26.4968291 1.83846886,26.4968291 L1.12496182,26.4968291 C0.503645408,26.4968291 0,26.9994829 0,27.6195761 C0,28.2396693 0.503645408,28.7423231 1.12496182,28.7423231 L22.0482393,28.7423231 C23.9974044,28.7423231 25.8506102,27.9018908 27.1326167,26.4365937 C28.4146232,24.9712966 28.9992096,23.0252393 28.7364748,21.0976511 Z M25.4378055,24.9596762 C24.583172,25.9365784 23.3477389,26.4968291 22.0482393,26.4968291 L6.86946687,26.4968291 C7.76364278,25.4991561 8.34406683,24.2529631 8.52659188,22.9140312 L9.56313171,15.3103394 C9.82693525,13.3753972 11.2979353,11.8425669 13.2235325,11.4960872 L15.4390323,11.0973997 C15.9744579,11.001068 16.3640322,10.5360824 16.3643696,9.99312191 L16.3681945,3.36824099 C16.3681945,2.75965598 16.8970391,2.24549399 17.5230241,2.24549399 C18.1370845,2.24549399 18.6181182,2.73866061 18.6181182,3.36756734 L18.6142933,9.99177462 C18.6139558,10.5382156 19.0079174,11.005559 19.5474491,11.098747 L21.98946,11.5205069 C23.9317066,11.8559837 25.4151937,13.3910034 25.680966,15.3403168 L26.5071379,21.4003998 C26.6822382,22.6854399 26.2924952,23.982774 25.4378055,24.9596762 Z M23.6741466,20.5362214 C23.7769118,21.290539 23.7530626,22.0470459 23.603274,22.7849153 C23.4951651,23.317378 23.0259998,23.6849093 22.5019364,23.6849093 C22.4278576,23.6849093 22.3527102,23.6775553 22.2773377,23.662342 C21.6683959,23.5392328 21.274828,22.9467031 21.3981801,22.3390163 C21.4977954,21.8481513 21.5135449,21.3434765 21.4447535,20.8389702 L21.3184765,19.9130407 C21.2347231,19.2986174 21.6658647,18.7327529 22.2814438,18.6491083 C22.8971354,18.5659689 23.46406,18.9957564 23.5478696,19.6101797 L23.6741466,20.5362214 Z M14.674452,20.5362776 C14.7775547,21.2927284 14.7532556,22.0514246 14.6022857,22.7914833 C14.4937269,23.323497 14.0247303,23.6904107 13.5011168,23.6904107 C13.4267006,23.6904107 13.3512719,23.6830006 13.2754495,23.667619 C12.6666764,23.5438922 12.2736147,22.9510257 12.3976418,22.343395 C12.4981009,21.8510704 12.5140191,21.3449361 12.4451152,20.8390263 L12.3194007,19.9166896 C12.2356473,19.3022664 12.6667889,18.736458 13.2824242,18.6528134 C13.8980033,18.5695055 14.4650404,18.9995176 14.5487938,19.6139409 L14.674452,20.5362776 Z M19.1742993,20.5362214 C19.2770645,21.290539 19.2532154,22.0470459 19.1034267,22.7849153 C18.9953179,23.317378 18.5261525,23.6849093 18.0020891,23.6849093 C17.9280103,23.6849093 17.8528629,23.6775553 17.7774904,23.662342 C17.1685486,23.5392328 16.7749807,22.9467031 16.8983328,22.3390163 C16.9979481,21.8481513 17.0136976,21.3434765 16.9449062,20.8389702 L16.8186292,19.9130407 C16.7348758,19.2986174 17.1660174,18.7327529 17.7815965,18.6491083 C18.3975694,18.5659689 18.9641564,18.9957564 19.0480223,19.6101797 L19.1742993,20.5362214 Z M0,3.98575184 C0,3.21066345 0.629584884,2.58231809 1.40620228,2.58231809 C2.18281967,2.58231809 2.81240456,3.21066345 2.81240456,3.98575184 C2.81240456,4.76084022 2.18281967,5.38918558 1.40620228,5.38918558 C0.629584884,5.38918558 0,4.76084022 0,3.98575184 Z M4.55609538,7.46626752 C4.55609538,6.69117913 5.18568026,6.06283378 5.96229766,6.06283378 C6.73891505,6.06283378 7.36849994,6.69117913 7.36849994,7.46626752 C7.36849994,8.24135591 6.73891505,8.86970127 5.96229766,8.86970127 C5.18568026,8.86970127 4.55609538,8.24135591 4.55609538,7.46626752 Z M3.71237401,16.1675567 C4.48899141,16.1675567 5.11857629,16.7959021 5.11857629,17.5709905 C5.11857629,18.3460789 4.48899141,18.9744242 3.71237401,18.9744242 C2.93575662,18.9744242 2.30617174,18.3460789 2.30617174,17.5709905 C2.30617174,16.7959021 2.93575662,16.1675567 3.71237401,16.1675567 Z" id="Shape" fill="#2C318C"></path>
                <path d="M2.81240456,12.6309037 C2.81240456,13.4059921 2.18281967,14.0343374 1.40620228,14.0343374 C0.629584884,14.0343374 0,13.4059921 0,12.6309037 C0,11.8558153 0.629584884,11.22747 1.40620228,11.22747 C2.18281967,11.22747 2.81240456,11.8558153 2.81240456,12.6309037 Z M1.40620228,21.4444676 C0.629584884,21.4444676 0,22.072813 0,22.8479014 C0,23.6229898 0.629584884,24.2513351 1.40620228,24.2513351 C2.18281967,24.2513351 2.81240456,23.6229898 2.81240456,22.8479014 C2.81240456,22.072813 2.18281967,21.4444676 1.40620228,21.4444676 Z M23.455454,15.8307326 C23.455454,15.2106395 22.9518086,14.7079856 22.3304922,14.7079856 L12.8808129,14.7079856 C12.2594965,14.7079856 11.755851,15.2106395 11.755851,15.8307326 C11.755851,16.4508258 12.2594965,16.9534796 12.8808129,16.9534796 L22.3304922,16.9534796 C22.9518086,16.9534796 23.455454,16.4508258 23.455454,15.8307326 Z" id="Shape" fill="#5DC1B2"></path>
            </g>
        </g>
    </g>
</svg>