<?xml version="1.0" encoding="UTF-8"?>
<svg width="29px" height="29px" viewBox="0 0 29 29" version="1.1" xmlns="http://www.w3.org/2000/svg" xmlns:xlink="http://www.w3.org/1999/xlink">
    <title>010-flower-pot copy 2</title>
    <g id="Anasayfa" stroke="none" stroke-width="1" fill="none" fill-rule="evenodd">
        <g id="Villa-Fiyatlar" transform="translate(-804.000000, -2291.000000)" fill-rule="nonzero">
            <g id="010-flower-pot-copy-2" transform="translate(804.000000, 2291.000000)">
                <path d="M4.68199414,7.89398992 C4.21820234,7.59607703 3.72831312,7.2622372 3.21153904,6.88040123 C2.39368837,6.27609894 1.18836964,6.80209174 1.14168674,7.81461385 C0.67333914,17.9705412 10.1427686,17.4598174 11.2682764,17.4598174 C11.2682764,17.3550118 11.2677702,17.2521709 11.2669265,17.1506212 C8.21993928,16.4764298 4.41488921,14.3753215 4.68199414,7.89398992 Z" id="Path" fill="#CEE1F2"></path>
                <path d="M14.6504244,28.7416612 L7.73488708,28.7416612 C5.00174389,28.785784 2.50285887,26.618267 2.16539212,23.911004 L1.58584922,19.8042184 C1.49923276,19.1902046 1.9276468,18.6223906 2.54290492,18.5358852 C3.15731938,18.4497167 3.72707574,18.8769666 3.8136922,19.4910927 L4.3932351,23.5978221 C4.62642462,25.2501805 6.06302056,26.4962277 7.73494332,26.4962277 L14.6504806,26.4962277 C16.3224034,26.4962277 17.7589993,25.2501805 17.9921889,23.597766 L18.5717318,19.4910927 C18.6583482,18.8770789 19.2274296,18.4496606 19.842519,18.5358852 C20.4577209,18.6223906 20.8861912,19.1902046 20.7995747,19.8042184 L20.2199194,23.9109478 C19.8824526,26.6183232 17.3835113,28.7857279 14.6504244,28.7416612 Z M11.2682764,18.5825341 C11.5692405,18.5825341 12.3928281,18.3565312 12.3928281,17.4872117 L12.3928281,17.4871555 C12.3928281,17.4869871 12.3877661,16.7309496 12.3768547,16.3931803 C12.4188693,14.9378026 12.7449747,12.2524886 14.5067198,11.2477133 C15.0461042,10.9400889 15.2335107,10.2542774 14.9252911,9.71587854 C14.6170714,9.17747972 13.9299329,8.99054738 13.3904923,9.29811563 C12.470108,9.82304185 11.8052422,10.576048 11.3260395,11.4167944 C11.2830125,11.340169 11.2386356,11.2653399 11.1927963,11.1919704 C10.3410865,9.82949747 9.11270756,9.14671728 7.55749205,8.28228151 C6.50161485,7.69532519 5.30478903,7.03011551 3.88084809,5.97801764 C2.37479024,4.84014421 0.0927276007,5.86265849 0.0179787162,7.76296888 C-0.136468565,11.1114155 0.704779792,13.757715 2.51838234,15.6282734 C3.77915811,16.9287162 5.47307244,17.8151011 7.55310499,18.2628405 C8.88514248,18.5495824 11.2308738,18.5825341 11.2682764,18.5825341 Z M2.54234248,7.78278483 C4.0831594,8.92121962 5.40259814,9.65469047 6.46286241,10.2440045 C7.83382108,11.0060485 8.73958183,11.5094747 9.28408442,12.3806468 C9.78494132,13.1818736 10.0519338,14.4207354 10.123533,16.3242455 C4.80646313,16.0886995 2.0001459,13.2536713 2.26539477,7.86625882 C2.26646341,7.84425357 2.26831948,7.80321827 2.34154976,7.76847019 C2.35977297,7.75982527 2.3939696,7.74685762 2.43446561,7.74685762 C2.46776232,7.74685762 2.50550236,7.75555895 2.54234248,7.78278483 L2.54234248,7.78278483 Z" id="Shape" fill="#2C318C"></path>
                <path d="M16.3742045,20.9298542 C17.3887983,22.0238855 15.8825717,23.529168 14.7851861,22.5193966 C14.5461472,22.2814367 14.2638,22.1742734 14.0901171,22.1737121 L14.0868549,22.1737121 C13.8338674,22.1737121 13.5964033,22.2715007 13.4177709,22.4493952 C12.2053091,23.7011121 10.0810684,23.7256996 8.87355613,22.4770701 C8.49086883,22.1036545 7.93168643,22.0538059 7.54376841,22.4632607 C7.10404924,22.9011203 6.39171318,22.9003905 5.95295016,22.4614644 C5.5141309,22.0225383 5.51497457,21.311634 5.95474998,20.8737183 C7.1815541,19.5995471 9.24280099,19.6432769 10.4625183,20.8875278 C10.8326068,21.2673428 11.4543893,21.2427553 11.8288087,20.8597967 C12.4321992,20.2589186 13.233739,19.9282786 14.0866862,19.9282786 L14.0975414,19.9282786 C14.8959877,19.9309731 15.7470788,20.305343 16.3742045,20.9298542 L16.3742045,20.9298542 Z M26.8385422,8.81916466 C27.7121873,10.1278033 27.3847884,12.0027964 26.0888036,12.9751814 C24.8062612,13.9652492 22.758288,13.7196549 21.816362,12.3941755 L21.8160246,12.3937264 L21.8156871,12.3941755 C21.3527952,13.0226723 20.6564326,13.4336989 19.8548366,13.5514158 C17.2195587,13.9594672 15.3694535,10.9961125 16.793507,8.81910853 C15.288574,8.26196034 14.4662238,6.49878981 14.9940218,4.92968087 C15.2555023,4.15236792 15.8363388,3.49434363 16.5875398,3.12429619 C17.2711912,2.78759343 18.0246982,2.71618865 18.7242667,2.91878289 C18.7791613,1.32677053 20.1726178,0 21.8160246,0 C23.4594314,0 24.8528878,1.32677053 24.9077824,2.91878289 C25.6074072,2.71607638 26.3609705,2.78764957 27.0445094,3.12429619 C27.7957104,3.4942875 28.3765469,4.15231179 28.6380274,4.92968087 C29.1658254,6.49890208 28.3433627,8.26207261 26.8385422,8.81916466 L26.8385422,8.81916466 Z M25.5072359,5.08399829 C24.8362395,5.31336932 24.1756483,5.94265206 23.6630926,6.55992174 C23.6560058,6.57081209 23.6488627,6.58170244 23.6417759,6.59248052 C23.7580332,6.63564898 23.8775527,6.68229786 23.9992657,6.73259557 C24.7002966,6.86799521 25.460553,6.91767543 26.0426269,6.71867388 C26.4225019,6.58883169 26.647311,6.06671226 26.5052938,5.64434622 C26.4341445,5.43299479 26.2635551,5.24364861 26.0489262,5.13794483 C25.9418368,5.08517714 25.729064,5.00810263 25.5072359,5.08399829 Z M20.9723577,3.01629084 C20.9723577,3.73511024 21.3692186,4.56524701 21.7954954,5.23842798 C21.8024134,5.24690449 21.809219,5.25543714 21.8160246,5.26391365 C21.8228302,5.25543714 21.829692,5.24696062 21.8365538,5.23842798 C22.2628306,4.56524701 22.6596914,3.73511024 22.6596914,3.01629084 C22.6596914,2.62008409 22.2496694,2.24548965 21.8160246,2.24548965 C21.3823798,2.24548965 20.9723577,2.62008409 20.9723577,3.01629084 Z M17.5894785,6.71873002 C18.1713837,6.91767543 18.9315838,6.86810749 19.6325585,6.73270784 C19.754384,6.682354 19.8739597,6.63564898 19.9903295,6.59248052 C19.9832989,6.58170244 19.9762121,6.57086822 19.9691253,6.56003401 C19.4224854,5.92513768 18.6917574,5.16129734 17.9301512,5.0522254 C17.5483638,5.05233768 17.1980171,5.43305093 17.1268679,5.64445849 C16.9847944,6.0667684 17.2096035,6.58883169 17.5894785,6.71873002 L17.5894785,6.71873002 Z M20.0030407,11.0642614 C20.4257741,10.4903286 20.6032816,9.59642147 20.6651505,8.80440094 C20.5511992,8.83314249 20.4331983,8.861042 20.311879,8.88742584 C19.6774416,9.16782435 19.0422166,9.55201803 18.6811835,10.0421962 C18.4471503,10.3599811 18.5532273,10.9237534 18.8952499,11.1804064 C19.066908,11.309182 19.297004,11.3636899 19.5272689,11.3299523 C19.6445385,11.3127186 19.8623171,11.2552916 20.0030407,11.0642614 Z M24.9509219,10.0421962 C24.5898888,9.55201803 23.9547201,9.16782435 23.3202826,8.88742584 C23.1989071,8.861042 23.0809062,8.83314249 22.9668987,8.80440094 C23.0288238,9.59642147 23.2063313,10.4903286 23.6290084,11.0642614 C23.7697321,11.2552916 23.9875106,11.3127186 24.1047803,11.3299523 C24.3349326,11.3638022 24.5651974,11.3092382 24.7367993,11.1804064 C25.0788781,10.9237534 25.1849551,10.3599811 24.9509219,10.0421962 Z" id="Shape" fill="#5DC1B2"></path>
            </g>
        </g>
    </g>
</svg>