<?xml version="1.0" encoding="UTF-8"?>
<svg width="23px" height="29px" viewBox="0 0 23 29" version="1.1" xmlns="http://www.w3.org/2000/svg" xmlns:xlink="http://www.w3.org/1999/xlink">
    <title>011-juice copy</title>
    <g id="Anasayfa" stroke="none" stroke-width="1" fill="none" fill-rule="evenodd">
        <g id="IconSet" transform="translate(-706.000000, -920.000000)" fill-rule="nonzero">
            <g id="011-juice-copy" transform="translate(706.000000, 920.000000)">
                <path d="M5.97749238,22.6140893 L4.54729963,9.50596199 C4.40236968,8.17735933 5.44407825,7.01716872 6.78194068,7.01716872 L3.41016995,7.01716872 C2.07230752,7.01716872 1.03059895,8.17735933 1.1755289,9.50596199 L2.60572165,22.6140893 C2.91648652,25.4621616 5.324268,27.6195761 8.19223998,27.6195761 L11.5640107,27.6195761 C8.69603873,27.6195761 6.28825725,25.4621616 5.97749238,22.6140893 Z" id="Path" fill="#CEE1F2"></path>
                <path d="M21.5279866,0 L18.6057853,0 C15.7330366,0 13.3314367,2.15129552 13.0193794,5.0041395 L12.9220476,5.89442173 L3.37690181,5.89442173 C1.42003847,5.8586061 -0.223924546,7.68694345 0.0250245263,9.62761163 C0.0249683302,9.62755549 1.45516108,22.7356828 1.45516108,22.7356828 C1.82875328,26.1600611 4.71083051,28.7423231 8.15897184,28.7423231 L11.7498515,28.7423231 C15.198049,28.7423231 18.0801262,26.1600611 18.4536622,22.7357389 L19.883855,9.62761163 C20.1314554,7.68801006 18.490246,5.8577079 16.5319215,5.89447787 C16.5319777,5.89442173 15.1832694,5.89442173 15.1832694,5.89442173 L15.2539642,5.24794401 C15.4411537,3.53626008 16.8821361,2.24549399 18.6057853,2.24549399 L21.5279866,2.24549399 C23.015668,2.19143372 23.0181969,0.0551268775 21.5279866,0 L21.5279866,0 Z M17.3686826,8.51300455 C17.5847007,8.75360923 17.6843366,9.06309444 17.6493263,9.38431235 L16.2191336,22.4924397 C15.9700159,24.7753211 14.0487248,26.4968291 11.7498515,26.4968291 L8.15897184,26.4968291 C5.86021095,26.4968291 3.9388636,24.7753211 3.68974594,22.4924397 L2.25955319,9.38425622 C2.22454297,9.06298216 2.3241226,8.75360923 2.54014071,8.51300455 C2.75621501,8.27239987 3.05332421,8.13991572 3.37690181,8.13991572 L16.5319777,8.13991572 C16.8554991,8.13991572 17.1526083,8.27239987 17.3686826,8.51300455 L17.3686826,8.51300455 Z" id="Shape" fill="#2C318C"></path>
                <path d="M12.6836072,20.6586186 C12.0258309,20.6623059 11.4981488,20.0855508 11.5632802,19.4309893 C11.5632802,19.4309893 12.2015564,12.6309037 12.2015564,12.6309037 L5.90544888,12.6309037 C5.28470589,12.6309037 4.7815253,12.1282499 4.7815253,11.5081567 C4.7815253,10.8880635 5.28470589,10.3854097 5.90544888,10.3854097 L13.4357368,10.3854097 C14.0787335,10.3713754 14.6291189,10.9744589 14.5547714,11.6129651 C14.5547714,11.6129651 13.801293,19.6406062 13.801293,19.6406062 C13.7467265,20.2223014 13.2569768,20.6586186 12.6836072,20.6586186 Z" id="Path" fill="#5DC1B2"></path>
            </g>
        </g>
    </g>
</svg>