<?xml version="1.0" encoding="UTF-8"?>
<svg width="29px" height="29px" viewBox="0 0 29 29" version="1.1" xmlns="http://www.w3.org/2000/svg" xmlns:xlink="http://www.w3.org/1999/xlink">
    <title>012-idea copy 2</title>
    <g id="Anasayfa" stroke="none" stroke-width="1" fill="none" fill-rule="evenodd">
        <g id="Villa-Fiyatlar" transform="translate(-427.000000, -2113.000000)" fill-rule="nonzero">
            <g id="012-idea-copy-2" transform="translate(427.000000, 2113.000000)">
                <path d="M13.2084498,19.4691627 C13.0770582,18.5516539 12.7022886,17.6131496 11.6538561,16.645061 C9.88783226,15.0141588 8.77443518,12.697651 8.77443518,10.104723 C8.77443518,5.71977843 11.9228825,2.06944726 16.0864645,1.28105432 C15.5398059,1.17753705 14.9758797,1.122747 14.3990731,1.122747 C9.42874931,1.122747 5.39965242,5.14403377 5.39965242,10.104723 C5.39965242,12.697651 6.5130495,15.0141588 8.27912957,16.645061 C9.32756208,17.6132058 9.7023317,18.5516539 9.83372325,19.4691627 C9.98862577,20.5509856 10.9493139,21.3321929 12.044206,21.3321929 L15.4189887,21.3321929 C14.3240967,21.3321929 13.3634085,20.5509856 13.2084498,19.4691627 L13.2084498,19.4691627 Z" id="Path" fill="#CEE1F2"></path>
                <g id="Group" fill="#2C318C">
                    <ellipse id="Oval" cx="1.12492759" cy="10.104723" rx="1.12492759" ry="1.122747"></ellipse>
                    <ellipse id="Oval" cx="27.6732187" cy="10.104723" rx="1.12492759" ry="1.122747"></ellipse>
                    <path d="M1.46358704,15.7303029 C2.02666954,15.9923521 2.69594521,15.7492212 2.95855956,15.1872302 C3.22111765,14.6252392 2.97751459,13.9572609 2.41443208,13.6952117 C1.85134958,13.4331626 1.18207391,13.6762934 0.919459564,14.2382844 C0.656957711,14.8002193 0.90056078,15.4682538 1.46358704,15.7303029 Z" id="Path"></path>
                    <path d="M25.8395867,5.02221573 C25.5770286,5.58420673 25.8206317,6.25218506 26.3837142,6.51423421 C26.9467967,6.77628336 27.6160723,6.53315249 27.8786867,5.97116149 C28.1412448,5.40917048 27.8976417,4.74119215 27.3345592,4.479143 C26.7714767,4.21709385 26.1021448,4.46022472 25.8395867,5.02221573 Z" id="Path"></path>
                    <path d="M27.3345592,15.7303029 C27.8976417,15.4682538 28.1412448,14.8002193 27.8786867,14.2382283 C27.6161286,13.6762373 26.9467967,13.4331064 26.3837142,13.6951556 C25.8206317,13.9572047 25.5770286,14.6252392 25.8395867,15.1871741 C26.1021448,15.7492212 26.7714767,15.9923521 27.3345592,15.7303029 Z" id="Path"></path>
                    <path d="M2.95855956,5.02221573 C2.69600146,4.46022472 2.02666954,4.21709385 1.46358704,4.479143 C0.900504534,4.74119215 0.656901465,5.40922661 0.919459564,5.97116149 C1.18201766,6.53315249 1.85134958,6.77628336 2.41443208,6.51423421 C2.97751459,6.25218506 3.22111765,5.58420673 2.95855956,5.02221573 Z" id="Path"></path>
                    <path d="M15.5240007,25.3740821 C15.5240007,25.9931648 15.0193582,26.4968291 14.3990731,26.4968291 C13.778788,26.4968291 13.2741455,25.9931648 13.2741455,25.3740821 C13.2741455,24.7539889 12.7705155,24.2513351 12.1492179,24.2513351 C11.5279204,24.2513351 11.0242904,24.7539889 11.0242904,25.3740821 C11.0242904,27.2313302 12.5382179,28.7423231 14.3990731,28.7423231 C16.2599283,28.7423231 17.7738559,27.2313302 17.7738559,25.3740821 C17.7738559,24.7539889 17.2702258,24.2513351 16.6489283,24.2513351 C16.0276308,24.2513351 15.5240007,24.7539889 15.5240007,25.3740821 Z" id="Path"></path>
                    <path d="M14.3990731,0 C8.81650747,0 4.27472483,4.53297872 4.27472483,10.104723 C4.27472483,12.9904073 5.50005221,15.6082603 7.51513499,17.4692135 C8.42480769,18.3091966 8.63471918,19.0318527 8.72010118,19.6280314 C8.95088007,21.2396224 10.3799318,22.4549399 12.044206,22.4549399 L16.7490469,22.4549399 C18.4270451,22.4549399 19.8568281,21.2399031 20.0748953,19.6286489 C20.1547089,19.0387576 20.3606269,18.3208732 21.2830112,17.4691573 C22.7779838,16.0885154 23.8087549,14.3264201 24.2638444,12.3732894 C24.4360708,11.6341289 24.5234214,10.8708855 24.5234214,10.104723 C24.5234214,4.53297872 19.9816388,0 14.3990731,0 Z M22.0724854,11.864685 C21.7197644,13.3785971 20.918366,14.7466643 19.7551346,15.8209647 C18.6360566,16.8542288 18.0292144,17.9686675 17.8452888,19.3281457 C17.7784681,19.8223228 17.2968866,20.2094459 16.7491031,20.2094459 L12.0442622,20.2094459 C11.4923727,20.2094459 11.0208031,19.8229403 10.9474016,19.3103501 C10.7525079,17.9494124 10.1474093,16.8406436 9.04323663,15.8209647 C7.41900993,14.3211432 6.52458001,12.2911043 6.52458001,10.104723 C6.52458001,5.77114411 10.0570776,2.24549399 14.3990731,2.24549399 C18.7410686,2.24549399 22.2735662,5.77114411 22.2735662,10.104723 C22.2735662,10.6999473 22.2059018,11.2920279 22.0724854,11.864685 L22.0724854,11.864685 Z" id="Shape"></path>
                </g>
                <path d="M15.8534358,9.31082856 L14.3990731,10.7624282 L12.9447105,9.31082856 C12.50537,8.87233972 11.7930659,8.87233972 11.3537816,9.31082856 C10.9144974,9.7493174 10.9144412,10.4601847 11.3537816,10.8986174 L13.2741455,12.8153149 L13.2741455,14.5957109 C13.2741455,15.2158041 13.7777756,15.7184579 14.3990731,15.7184579 C15.0203706,15.7184579 15.5240007,15.2158041 15.5240007,14.5957109 L15.5240007,12.8153149 L17.4444208,10.8986174 C17.8837613,10.4601285 17.8837613,9.74926127 17.4444208,9.31082856 C17.0050804,8.87239586 16.2927762,8.87233972 15.8534358,9.31082856 Z" id="Path" fill="#5DC1B2"></path>
            </g>
        </g>
    </g>
</svg>