<svg width="56" height="56" viewBox="0 0 56 56" fill="none" xmlns="http://www.w3.org/2000/svg">
    <g clip-path="url(#7g1tv4f4ba)" fill="#fff">
        <path d="M55.267 28.543c1.596-6.294-1.488-11.758-7.873-15.852-5.5-3.501-13.297-5.346-20.92-5.081V4.432c-.224-5.875-8.648-5.873-8.87 0v4.39c-.883.222-1.747.472-2.59.751V7.587c-.223-5.876-8.647-5.874-8.87 0v6.623C1.234 18.137-.994 23.102.426 28.542a11.781 11.781 0 0 0-.008 6.243c-1.469 5.728 1.085 10.867 6.51 14.878.405.256.785.196 1.14-.181a.816.816 0 0 0-.181-1.14c-3.416-2.479-6.318-6.203-6.252-10.61 9.514 15.7 42.906 15.704 52.425 0 .074 4.978-3.551 8.972-7.533 11.475-9.176 6.002-25.294 6.392-35.19 1.22-.967-.45-1.692.929-.734 1.458 10.391 5.453 27.137 4.998 36.792-1.296 6.368-4.087 9.456-9.524 7.881-15.804a11.78 11.78 0 0 0-.008-6.242zM19.236 4.433c.141-3.715 5.466-3.712 5.606 0V7.69c-1.92.13-3.796.384-5.606.757V4.432zm5.606 4.893v2.192c-3.57.279-6.933 1.052-9.828 2.262v-2.485c3.018-1.054 6.346-1.724 9.828-1.969zm-9.828 9.386 9.828-2.705v1.823l-9.828 2.705v-1.823zm9.828-4.397-9.828 2.705v-1.461c2.836-1.286 6.212-2.111 9.828-2.405v1.16zM7.776 7.587c.142-3.714 5.466-3.712 5.607 0v2.573c-1.96.76-3.853 1.707-5.607 2.868V7.587zm-.358 7.698c1.921-1.302 3.808-2.48 5.965-3.37v2.618c-4.333 2.124-7.384 5.762-7.277 9.351.545 9.07 12.997 12.487 21.74 12.484 5.726 0 11.122-1.25 15.193-3.52 9.408-5.108 8.355-14.261-1.42-18.651-.998-.425-1.65.993-.69 1.478 8.562 3.888 9.572 11.238 1.315 15.747-3.832 2.137-8.946 3.314-14.398 3.314S17.28 33.56 13.448 31.422c-7.534-4.069-7.582-10.941-.065-15.038v7.09a.816.816 0 1 0 1.631 0v-1.247l9.828-2.705v1.015a.816.816 0 1 0 1.632 0v-7.479c3.609-.14 7.337.268 10.589 1.195a.816.816 0 1 0 .443-1.57c-3.397-.968-7.27-1.397-11.032-1.257V9.242c11.147-.443 26.958 4.4 27.588 16.156 0 4.249-2.677 8.271-7.536 11.326-9.769 6.423-27.592 6.424-37.36 0-9.12-5.53-10.19-15.133-1.748-21.439zm39.108 27.71c-9.769 6.423-27.591 6.423-37.36-.001-3.995-2.512-7.634-6.532-7.531-11.53 9.515 15.697 42.902 15.702 52.423 0 .101 4.998-3.536 9.018-7.532 11.53z"/>
        <path d="M36.124 30.04c-.588 0-.837-.155-1.213-.391-1.312-.823-2.848-.825-4.162 0-.376.236-.625.392-1.214.392s-.837-.156-1.214-.393c-1.311-.822-2.848-.824-4.162 0-.376.237-.625.393-1.214.393-1.076.035-1.083 1.593 0 1.631 1.058 0 1.626-.355 2.081-.641.528-.332 1.9-.332 2.428 0 .456.286 1.023.641 2.081.641 1.059 0 1.626-.355 2.081-.641.528-.331 1.9-.331 2.428 0 .455.286 1.022.641 2.08.641 1.076-.035 1.084-1.593 0-1.631zM37.339 25.871c-.377.237-.625.392-1.214.392-.59 0-.838-.155-1.214-.392-1.312-.823-2.849-.824-4.163 0-.376.237-.625.392-1.213.392-1.08.038-1.08 1.595 0 1.632 1.058 0 1.625-.356 2.08-.642.529-.33 1.9-.33 2.429 0 1.17.856 2.994.854 4.162 0 .528-.33 1.9-.33 2.427 0 .456.286 1.023.642 2.081.642 1.08-.037 1.08-1.594 0-1.631-.589 0-.837-.156-1.213-.392-1.312-.824-2.849-.825-4.162 0z"/>
    </g>
    <defs>
        <clipPath id="7g1tv4f4ba">
            <path fill="#fff" d="M0 0h55.692v55.692H0z"/>
        </clipPath>
    </defs>
</svg>
