<svg width="511" height="516" viewBox="0 0 511 516" fill="none" xmlns="http://www.w3.org/2000/svg">
    <path fill-rule="evenodd" clip-rule="evenodd" d="M338.5 485C508.328 485 646 347.328 646 177.5S508.328-130 338.5-130 31 7.672 31 177.5 168.672 485 338.5 485zm0 31C525.448 516 677 364.448 677 177.5S525.448-161 338.5-161 0-9.448 0 177.5 151.552 516 338.5 516z" fill="#F3F3F3"/>
    <path d="M488.328 47.871 457.03 16.574 332.951 140.653l-124.08-124.08-31.297 31.298 124.079 124.08L177.574 296.03l31.297 31.298 124.08-124.08 124.079 124.08 31.298-31.298-124.08-124.079 124.08-124.08z" fill="#F3F3F3"/>
</svg>
