<svg width="37" height="27" viewBox="0 0 37 27" fill="none" xmlns="http://www.w3.org/2000/svg">
<path d="M34.78 0.919922H2.22C0.996037 0.919922 0 1.91596 0 3.13992V23.8599C0 25.0839 0.996037 26.0799 2.22 26.0799H34.78C36.004 26.0799 37 25.0839 37 23.8599V3.13992C37 1.91596 36.004 0.919922 34.78 0.919922ZM35.52 23.8599C35.52 24.2669 35.187 24.5999 34.78 24.5999H2.22C1.81155 24.5999 1.48 24.2669 1.48 23.8599V3.13992C1.48 2.7314 1.81155 2.39992 2.22 2.39992H34.78C35.187 2.39992 35.52 2.7314 35.52 3.13992V23.8599Z" fill="#F5841F"/>
<path d="M36.26 7.58008H0.73999V10.5401H36.26V7.58008Z" fill="#F5841F"/>
<path d="M36.26 6.84009H0.74C0.331555 6.84009 0 7.17157 0 7.58009V10.5401C0 10.9486 0.331555 11.2801 0.74 11.2801H36.26C36.6684 11.2801 37 10.9486 37 10.5401V7.58009C37 7.17157 36.6684 6.84009 36.26 6.84009ZM35.52 9.80009H1.48V8.32009H35.52V9.80009Z" fill="#F5841F"/>
<path d="M19.9799 15.72H6.65992C6.25148 15.72 5.91992 16.0515 5.91992 16.46C5.91992 16.8684 6.25148 17.2 6.65992 17.2H19.9799C20.3884 17.2 20.7199 16.8684 20.7199 16.46C20.7199 16.0515 20.3884 15.72 19.9799 15.72Z" fill="#F5841F"/>
<path d="M14.0599 18.6799H6.65992C6.25148 18.6799 5.91992 19.0115 5.91992 19.4199C5.91992 19.8284 6.25148 20.1599 6.65992 20.1599H14.0599C14.4684 20.1599 14.7999 19.8284 14.7999 19.4199C14.7999 19.0115 14.4684 18.6799 14.0599 18.6799Z" fill="#F5841F"/>
</svg>
