<svg width="141" height="298" viewBox="0 0 141 298" fill="none" xmlns="http://www.w3.org/2000/svg">
<path d="M74.5871 1H75.0509V0.536213H74.5871V1ZM48.615 1V0.536213H48.1513V1H48.615ZM48.615 44.2858V44.7495H49.0788V44.2858H48.615ZM1 44.2858V43.822H0.536213V44.2858H1ZM1 70.2578H0.536213V70.7216H1V70.2578ZM48.615 70.2578H49.0788V69.794H48.615V70.2578ZM48.615 117.874H48.1513V118.338H48.615V117.874ZM74.5871 117.874V118.338H75.0509V117.874H74.5871ZM74.5871 70.2578V69.794H74.1233V70.2578H74.5871ZM117.874 70.2578V70.7216H118.338V70.2578H117.874ZM117.874 44.2858H118.338V43.822H117.874V44.2858ZM74.5871 44.2858H74.1233V44.7495H74.5871V44.2858ZM74.1233 1V13.986H75.0509V1H74.1233ZM48.615 1.46379H74.5871V0.536213H48.615V1.46379ZM49.0788 13.986V1H48.1513V13.986H49.0788ZM49.0788 44.2858V13.986H48.1513V44.2858H49.0788ZM13.986 44.7495H48.615V43.822H13.986V44.7495ZM1 44.7495H13.986V43.822H1V44.7495ZM1.46379 70.2578V44.2858H0.536213V70.2578H1.46379ZM13.986 69.794H1V70.7216H13.986V69.794ZM48.615 69.794H13.986V70.7216H48.615V69.794ZM49.0788 104.888V70.2578H48.1513V104.888H49.0788ZM49.0788 117.874V104.888H48.1513V117.874H49.0788ZM74.5871 117.41H48.615V118.338H74.5871V117.41ZM74.1233 104.888V117.874H75.0509V104.888H74.1233ZM74.1233 70.2578V104.888H75.0509V70.2578H74.1233ZM104.888 69.794H74.5871V70.7216H104.888V69.794ZM117.874 69.794H104.888V70.7216H117.874V69.794ZM117.41 44.2858V70.2578H118.338V44.2858H117.41ZM104.888 44.7495H117.874V43.822H104.888V44.7495ZM74.5871 44.7495H104.888V43.822H74.5871V44.7495ZM74.1233 13.986V44.2858H75.0509V13.986H74.1233Z" fill="#EFF1F5"/>
<path d="M4.87898 32.8418V23.1784H1.06805V20.9327H11.446V23.1784H7.63509V32.8418H4.87898ZM18.0206 33.046C16.3307 33.046 15.0093 32.5753 14.0566 31.6339C13.1039 30.6925 12.6275 29.3484 12.6275 27.6018V20.9327H15.3836V27.4997C15.3836 28.6339 15.6161 29.4505 16.0811 29.9496C16.5462 30.4486 17.1983 30.6982 18.0376 30.6982C18.877 30.6982 19.5291 30.4486 19.9941 29.9496C20.4592 29.4505 20.6917 28.6339 20.6917 27.4997V20.9327H23.4138V27.6018C23.4138 29.3484 22.9374 30.6925 21.9847 31.6339C21.0319 32.5753 19.7106 33.046 18.0206 33.046ZM19.756 19.8778C19.427 19.8778 19.1492 19.7701 18.9223 19.5546C18.6955 19.3391 18.5821 19.0556 18.5821 18.7039C18.5821 18.3523 18.6955 18.0688 18.9223 17.8533C19.1492 17.6378 19.427 17.53 19.756 17.53C20.0849 17.53 20.3628 17.6378 20.5896 17.8533C20.8278 18.0688 20.9469 18.3523 20.9469 18.7039C20.9469 19.0556 20.8278 19.3391 20.5896 19.5546C20.3628 19.7701 20.0849 19.8778 19.756 19.8778ZM16.3193 19.8778C15.9904 19.8778 15.7069 19.7701 15.4687 19.5546C15.2418 19.3391 15.1284 19.0556 15.1284 18.7039C15.1284 18.3523 15.2418 18.0688 15.4687 17.8533C15.7069 17.6378 15.9904 17.53 16.3193 17.53C16.6482 17.53 16.9261 17.6378 17.153 17.8533C17.3798 18.0688 17.4932 18.3523 17.4932 18.7039C17.4932 19.0556 17.3798 19.3391 17.153 19.5546C16.9261 19.7701 16.6482 19.8778 16.3193 19.8778ZM26.1373 32.8418V20.9327H28.4171L33.487 29.3371H32.279L37.2639 20.9327H39.5266L39.5606 32.8418H36.9746L36.9576 24.8967H37.434L33.4529 31.5828H32.211L28.1449 24.8967H28.7233V32.8418H26.1373ZM49.6712 30.1197L49.518 26.9383L55.2174 20.9327H58.2798L53.1418 26.4619L51.6106 28.0952L49.6712 30.1197ZM47.2043 32.8418V20.9327H49.9434V32.8418H47.2043ZM55.3535 32.8418L51.1173 27.6528L52.9207 25.6963L58.569 32.8418H55.3535ZM59.7979 32.8418V20.9327H64.9529C66.019 20.9327 66.9377 21.1085 67.709 21.4601C68.4802 21.8003 69.0757 22.2937 69.4954 22.9402C69.915 23.5867 70.1248 24.358 70.1248 25.254C70.1248 26.1387 69.915 26.9042 69.4954 27.5507C69.0757 28.1859 68.4802 28.6736 67.709 29.0139C66.9377 29.3541 66.019 29.5243 64.9529 29.5243H61.3291L62.554 28.3163V32.8418H59.7979ZM67.3687 32.8418L64.3914 28.5205H67.3347L70.346 32.8418H67.3687ZM62.554 28.6226L61.3291 27.3296H64.7998C65.6504 27.3296 66.2856 27.1481 66.7052 26.7851C67.1249 26.4109 67.3347 25.9005 67.3347 25.254C67.3347 24.5961 67.1249 24.0857 66.7052 23.7228C66.2856 23.3599 65.6504 23.1784 64.7998 23.1784H61.3291L62.554 21.8684V28.6226ZM74.8434 25.7303H80.5768V27.874H74.8434V25.7303ZM75.0476 30.6301H81.5296V32.8418H72.3085V20.9327H81.3084V23.1444H75.0476V30.6301ZM83.7225 32.8418V20.9327H89.1327C90.4257 20.9327 91.5655 21.1822 92.5523 21.6812C93.539 22.1689 94.3103 22.8551 94.8661 23.7398C95.4218 24.6245 95.6997 25.6736 95.6997 26.8872C95.6997 28.0895 95.4218 29.1386 94.8661 30.0346C94.3103 30.9193 93.539 31.6112 92.5523 32.1102C91.5655 32.5979 90.4257 32.8418 89.1327 32.8418H83.7225ZM86.4786 30.5791H88.9966C89.7905 30.5791 90.4767 30.4316 91.0551 30.1367C91.6449 29.8305 92.0986 29.3995 92.4162 28.8437C92.7451 28.288 92.9096 27.6358 92.9096 26.8872C92.9096 26.1273 92.7451 25.4751 92.4162 24.9307C92.0986 24.375 91.6449 23.9496 91.0551 23.6547C90.4767 23.3485 89.7905 23.1954 88.9966 23.1954H86.4786V30.5791ZM97.7782 32.8418V20.9327H100.534V32.8418H97.7782ZM99.1563 19.8778C98.7366 19.8778 98.3907 19.7417 98.1185 19.4695C97.8576 19.1973 97.7272 18.8514 97.7272 18.4317C97.7272 18.0234 97.8576 17.6832 98.1185 17.411C98.3907 17.1387 98.7366 17.0026 99.1563 17.0026C99.5646 17.0026 99.9049 17.1387 100.177 17.411C100.449 17.6832 100.585 18.0234 100.585 18.4317C100.585 18.8514 100.449 19.1973 100.177 19.4695C99.9049 19.7417 99.5646 19.8778 99.1563 19.8778ZM4.28352 51.9666L4.19845 49.891L10.9526 42.9327H12.8921L7.66912 48.4449L6.71639 49.4997L4.28352 51.9666ZM2.78637 54.8418V42.9327H4.48768V54.8418H2.78637ZM11.2248 54.8418L6.3421 49.1594L7.48197 47.9005L13.2154 54.8418H11.2248ZM12.7293 54.8418L18.1224 42.9327H19.8067L25.2169 54.8418H23.4305L18.6158 43.8854H19.2963L14.4816 54.8418H12.7293ZM15.0261 51.8645L15.4854 50.5035H22.1886L22.6819 51.8645H15.0261ZM26.9934 54.8418V42.9327H31.638C32.6815 42.9327 33.5718 43.0971 34.309 43.426C35.0463 43.755 35.6134 44.2313 36.0103 44.8551C36.4073 45.4789 36.6058 46.2218 36.6058 47.0838C36.6058 47.9458 36.4073 48.6887 36.0103 49.3126C35.6134 49.925 35.0463 50.3957 34.309 50.7246C33.5718 51.0536 32.6815 51.218 31.638 51.218H27.9291L28.6947 50.4354V54.8418H26.9934ZM34.9555 54.8418L31.9272 50.5205H33.7476L36.81 54.8418H34.9555ZM28.6947 50.6055L27.9291 49.7719H31.5869C32.6758 49.7719 33.4981 49.5394 34.0538 49.0744C34.6209 48.598 34.9045 47.9345 34.9045 47.0838C34.9045 46.2332 34.6209 45.5754 34.0538 45.1103C33.4981 44.6453 32.6758 44.4128 31.5869 44.4128H27.9291L28.6947 43.5621V50.6055ZM41.5531 54.8418V44.4128H37.47V42.9327H47.3206V44.4128H43.2374V54.8418H41.5531ZM49.1735 54.8418V42.9327H50.8748V53.3617H57.3228V54.8418H49.1735ZM57.4716 54.8418L62.8648 42.9327H64.5491L69.9592 54.8418H68.1729L63.3582 43.8854H64.0387L59.224 54.8418H57.4716ZM59.7684 51.8645L60.2278 50.5035H66.9309L67.4243 51.8645H59.7684ZM71.7358 54.8418V42.9327H76.3803C77.4238 42.9327 78.3141 43.0971 79.0514 43.426C79.7886 43.755 80.3557 44.2313 80.7527 44.8551C81.1496 45.4789 81.3481 46.2218 81.3481 47.0838C81.3481 47.9458 81.1496 48.6887 80.7527 49.3126C80.3557 49.925 79.7886 50.3957 79.0514 50.7246C78.3141 51.0536 77.4238 51.218 76.3803 51.218H72.6715L73.4371 50.4354V54.8418H71.7358ZM79.6979 54.8418L76.6695 50.5205H78.4899L81.5523 54.8418H79.6979ZM73.4371 50.6055L72.6715 49.7719H76.3293C77.4181 49.7719 78.2404 49.5394 78.7962 49.0744C79.3633 48.598 79.6468 47.9345 79.6468 47.0838C79.6468 46.2332 79.3633 45.5754 78.7962 45.1103C78.2404 44.6453 77.4181 44.4128 76.3293 44.4128H72.6715L73.4371 43.5621V50.6055ZM84.0968 54.8418V42.9327H85.7981V54.8418H84.0968ZM89.3635 54.8418V42.9327H90.7586L98.6357 52.7152H97.9041V42.9327H99.6054V54.8418H98.2103L90.3333 45.0593H91.0648V54.8418H89.3635ZM101.367 54.8418L106.76 42.9327H108.444L113.854 54.8418H112.068L107.253 43.8854H107.934L103.119 54.8418H101.367ZM103.663 51.8645L104.123 50.5035H110.826L111.319 51.8645H103.663Z" fill="#989FB5"/>
<path d="M23.647 140.277V98.2132L28.2477 102.814H14.4454V94.2697H34.2944V140.277H23.647ZM41.8924 140.277V133.376L59.6382 116.616C61.0403 115.346 62.07 114.206 62.7273 113.199C63.3845 112.191 63.8227 111.271 64.0418 110.438C64.3047 109.606 64.4361 108.839 64.4361 108.138C64.4361 106.297 63.8008 104.895 62.5301 103.931C61.3032 102.924 59.4848 102.42 57.0749 102.42C55.147 102.42 53.3505 102.792 51.6854 103.537C50.0642 104.282 48.684 105.443 47.5447 107.02L39.7892 102.025C41.5418 99.3963 43.9956 97.315 47.1504 95.7814C50.3052 94.2478 53.942 93.481 58.0608 93.481C61.4785 93.481 64.458 94.0506 66.9994 95.1899C69.5846 96.2853 71.5783 97.8408 72.9804 99.8563C74.4264 101.872 75.1493 104.282 75.1493 107.086C75.1493 108.576 74.9522 110.066 74.5578 111.555C74.2073 113.001 73.4624 114.535 72.3231 116.156C71.2277 117.777 69.6065 119.596 67.4595 121.611L52.737 135.479L50.6996 131.602H76.661V140.277H41.8924Z" fill="#F5841F"/>
<g clip-path="url(#clip0_880_7141)">
<path d="M10.2756 234.778L10.2774 233.456L2.34293 233.445C1.61427 233.444 1.0197 234.037 1.0187 234.766L1.01508 237.411L10.551 237.424C10.3683 236.615 10.2743 235.745 10.2756 234.778Z" fill="#687392"/>
<path d="M22.1172 240.084C21.2134 241.472 19.8365 242.653 17.8645 243.782C17.5614 243.955 17.2201 244.044 16.8763 244.044C16.5325 244.043 16.1914 243.953 15.8928 243.782C13.9239 242.644 12.5502 241.459 11.6489 240.069L1.0127 240.055L1.00366 246.667C1.00266 247.397 1.59561 247.99 2.32427 247.991L20.8381 248.016C21.5681 248.017 22.1614 247.426 22.1624 246.696L22.1714 240.084L22.1172 240.084ZM6.95816 244.03L4.31332 244.026C3.94833 244.026 3.65251 243.729 3.65301 243.364C3.65351 242.999 3.95014 242.704 4.31513 242.704L6.95997 242.708C7.32495 242.708 7.62077 243.005 7.62027 243.37C7.61977 243.735 7.32314 244.031 6.95816 244.03Z" fill="#687392"/>
<path d="M21.7813 231.541L17.1556 229.551C16.9877 229.48 16.8013 229.479 16.6332 229.551L12.0021 231.528C11.7599 231.631 11.6022 231.87 11.6019 232.134L11.5982 234.779C11.5933 238.417 12.9353 240.546 16.5479 242.633C16.6497 242.692 16.7633 242.721 16.8771 242.721C16.9908 242.721 17.1046 242.692 17.2065 242.634C20.8248 240.562 22.1726 238.437 22.1776 234.794L22.1812 232.149C22.1816 231.884 22.0245 231.645 21.7813 231.541ZM19.3889 234.543L16.7396 237.845C16.6124 238.001 16.4219 238.092 16.2222 238.092C16.2129 238.092 16.2023 238.092 16.1944 238.092C15.9842 238.082 15.7899 237.973 15.6725 237.797L14.3528 235.812C14.1508 235.507 14.2334 235.098 14.5378 234.896C14.8396 234.695 15.2508 234.775 15.454 235.081L16.2735 236.313L18.3559 233.716C18.5851 233.432 19.0017 233.388 19.2857 233.614C19.5711 233.841 19.6155 234.257 19.3889 234.543Z" fill="#687392"/>
</g>
<path d="M37.0471 235.743C37.8356 235.744 38.4893 235.941 39.0084 236.332C39.5274 236.718 39.8598 237.241 40.0056 237.902L38.6486 237.9C38.5207 237.606 38.3162 237.374 38.0353 237.202C37.7605 237.024 37.4336 236.935 37.0546 236.935C36.6817 236.934 36.3515 237.02 36.064 237.19C35.7765 237.361 35.5531 237.605 35.3937 237.923C35.2343 238.24 35.1544 238.613 35.1538 239.041C35.1528 239.72 35.3324 240.249 35.6926 240.628C36.0588 241.008 36.5567 241.198 37.1863 241.199C37.6508 241.199 38.0483 241.062 38.3788 240.788C38.7154 240.513 38.9329 240.131 39.0314 239.642L36.84 239.639L36.8413 238.713L40.1145 238.718L40.1128 239.965C40.0206 240.393 39.8397 240.787 39.5703 241.147C39.3069 241.507 38.9581 241.797 38.5238 242.016C38.0957 242.23 37.6034 242.336 37.0472 242.335C36.4115 242.334 35.8493 242.196 35.3607 241.92C34.8782 241.639 34.5028 241.25 34.2346 240.754C33.9724 240.253 33.8418 239.681 33.8426 239.039C33.8435 238.398 33.9757 237.829 34.2392 237.334C34.5089 236.834 34.8853 236.443 35.3686 236.162C35.8519 235.882 36.4114 235.742 37.0471 235.743ZM45.9441 237.213L45.9371 242.292L44.6443 242.291L44.6457 241.264C44.5108 241.606 44.2873 241.875 43.9753 242.07C43.6694 242.259 43.3148 242.353 42.9113 242.352C42.3245 242.352 41.8572 242.159 41.5093 241.773C41.1614 241.387 40.988 240.849 40.9889 240.159L40.9929 237.206L42.2766 237.208L42.2727 240.014C42.2722 240.417 42.3757 240.732 42.5832 240.958C42.7907 241.179 43.0717 241.289 43.4262 241.29C43.7991 241.29 44.0957 241.171 44.3161 240.933C44.5365 240.695 44.647 240.353 44.6476 239.907L44.6513 237.211L45.9441 237.213ZM42.0215 235.997C42.0217 235.832 42.0769 235.695 42.1871 235.585C42.3034 235.469 42.441 235.411 42.5999 235.411C42.7711 235.412 42.9116 235.47 43.0214 235.586C43.1313 235.696 43.1861 235.834 43.1859 235.999C43.1857 236.158 43.1305 236.295 43.0203 236.411C42.9101 236.521 42.7695 236.576 42.5983 236.576C42.4394 236.576 42.302 236.52 42.186 236.41C42.0761 236.294 42.0213 236.156 42.0215 235.997ZM43.7544 236C43.7546 235.835 43.8098 235.697 43.92 235.587C44.0302 235.471 44.1678 235.413 44.3328 235.414C44.4979 235.414 44.6353 235.472 44.7452 235.588C44.8612 235.699 44.919 235.836 44.9188 236.001C44.9186 236.16 44.8603 236.298 44.7441 236.414C44.6339 236.523 44.4963 236.578 44.3312 236.578C44.1662 236.578 44.0287 236.523 43.9189 236.412C43.809 236.296 43.7542 236.159 43.7544 236ZM49.324 241.004L50.6128 237.219L51.9882 237.221L50.1016 242.298L48.5246 242.296L46.6519 237.214L48.0364 237.216L49.324 241.004ZM57.4805 239.576C57.4803 239.704 57.4648 239.851 57.434 240.016L53.7115 240.011C53.7292 240.463 53.851 240.797 54.0769 241.011C54.3028 241.225 54.5838 241.332 54.92 241.333C55.2195 241.333 55.4672 241.26 55.663 241.114C55.8649 240.967 55.9935 240.769 56.0489 240.518L57.415 240.52C57.3473 240.875 57.2032 241.192 56.9828 241.473C56.7623 241.754 56.4778 241.974 56.1292 242.132C55.7867 242.291 55.4045 242.37 54.9827 242.369C54.4876 242.368 54.0477 242.264 53.6629 242.055C53.2781 241.841 52.979 241.538 52.7656 241.147C52.5522 240.755 52.4458 240.293 52.4466 239.762C52.4473 239.23 52.5549 238.768 52.7694 238.378C52.9838 237.981 53.2838 237.678 53.6691 237.471C54.0545 237.264 54.4948 237.16 54.9899 237.161C55.4911 237.162 55.928 237.266 56.3006 237.475C56.6793 237.683 56.9692 237.971 57.1704 238.338C57.3778 238.699 57.4811 239.111 57.4805 239.576ZM56.1787 239.446C56.1976 239.03 56.088 238.715 55.8499 238.501C55.6179 238.287 55.3308 238.179 54.9885 238.179C54.6401 238.178 54.3465 238.285 54.1078 238.499C53.8692 238.712 53.7373 239.027 53.7123 239.442L56.1787 239.446ZM61.4272 237.161C62.014 237.162 62.4814 237.355 62.8292 237.74C63.1771 238.126 63.3506 238.667 63.3497 239.364L63.3456 242.316L62.062 242.314L62.0658 239.509C62.0664 239.105 61.9629 238.794 61.7554 238.573C61.5478 238.347 61.2638 238.233 60.9031 238.233C60.5364 238.232 60.2428 238.351 60.0224 238.589C59.8021 238.827 59.6916 239.169 59.691 239.616L59.6873 242.311L58.3945 242.309L58.4014 237.23L59.6942 237.232L59.6928 238.249C59.8278 237.907 60.0482 237.642 60.3541 237.453C60.6661 237.258 61.0238 237.16 61.4272 237.161ZM65.7852 235.535L65.7759 242.32L64.4831 242.318L64.4924 235.533L65.7852 235.535ZM66.8077 235.784C66.8079 235.576 66.8815 235.408 67.0284 235.28C67.1753 235.145 67.3679 235.078 67.6063 235.079C67.8447 235.079 68.0372 235.147 68.1837 235.281C68.3302 235.41 68.4033 235.578 68.403 235.786C68.4028 235.988 68.3292 236.156 68.1823 236.29C68.0354 236.418 67.8428 236.482 67.6044 236.482C67.366 236.481 67.1736 236.417 67.027 236.288C66.8805 236.154 66.8074 235.985 66.8077 235.784ZM68.2452 237.243L68.2382 242.323L66.9454 242.321L66.9524 237.242L68.2452 237.243ZM74.4483 235.767C75.0534 235.767 75.6003 235.909 76.0889 236.191C76.5837 236.472 76.9713 236.867 77.2518 237.375C77.5384 237.877 77.6812 238.445 77.6804 239.081C77.6795 239.717 77.5351 240.288 77.2471 240.795C76.9652 241.302 76.5765 241.696 76.081 241.976C75.5916 242.257 75.0444 242.396 74.4392 242.396C73.8341 242.395 73.2842 242.253 72.7894 241.972C72.3008 241.69 71.9132 241.295 71.6266 240.787C71.3461 240.279 71.2063 239.708 71.2072 239.072C71.2081 238.436 71.3494 237.868 71.6313 237.367C71.9193 236.86 72.308 236.467 72.7973 236.186C73.2928 235.906 73.8432 235.766 74.4483 235.767ZM74.4467 236.959C74.0677 236.958 73.7344 237.043 73.4469 237.214C73.1594 237.385 72.9329 237.632 72.7674 237.956C72.6081 238.273 72.5281 238.646 72.5275 239.074C72.5269 239.502 72.6059 239.878 72.7643 240.202C72.929 240.52 73.1548 240.765 73.4418 240.936C73.7289 241.108 74.0619 241.194 74.4409 241.194C74.8199 241.195 75.1531 241.11 75.4406 240.939C75.7281 240.768 75.9516 240.524 76.111 240.207C76.2764 239.883 76.3595 239.507 76.36 239.079C76.3606 238.651 76.2786 238.278 76.114 237.96C75.9555 237.636 75.7328 237.388 75.4457 237.217C75.1587 237.045 74.8256 236.959 74.4467 236.959ZM73.0012 234.646C73.0014 234.481 73.0566 234.344 73.1668 234.234C73.2831 234.118 73.4207 234.06 73.5796 234.06C73.7507 234.06 73.8913 234.118 74.0011 234.235C74.111 234.345 74.1658 234.483 74.1656 234.648C74.1654 234.807 74.1102 234.944 74 235.06C73.8898 235.17 73.7492 235.225 73.578 235.224C73.4191 235.224 73.2816 235.169 73.1656 235.059C73.0558 234.943 73.0009 234.805 73.0012 234.646ZM74.7341 234.648C74.7343 234.483 74.7895 234.346 74.8997 234.236C75.0098 234.12 75.1475 234.062 75.3125 234.062C75.4775 234.063 75.615 234.121 75.7249 234.237C75.8408 234.347 75.8987 234.485 75.8985 234.65C75.8983 234.809 75.84 234.946 75.7237 235.062C75.6135 235.172 75.4759 235.227 75.3109 235.227C75.1459 235.227 75.0084 235.171 74.8985 235.061C74.7887 234.945 74.7338 234.807 74.7341 234.648ZM80.6448 237.196C81.0727 237.197 81.4362 237.298 81.7355 237.5C82.0408 237.702 82.2605 237.975 82.3945 238.317L82.3983 235.557L83.6819 235.559L83.6726 242.344L82.389 242.342L82.3905 241.279C82.2555 241.621 82.0351 241.896 81.7292 242.103C81.4294 242.304 81.0656 242.405 80.6377 242.404C80.2098 242.403 79.8249 242.299 79.4828 242.091C79.1408 241.882 78.8723 241.583 78.6772 241.191C78.4883 240.794 78.3942 240.329 78.3949 239.797C78.3956 239.265 78.491 238.804 78.681 238.413C78.8772 238.016 79.1465 237.714 79.4891 237.506C79.8317 237.299 80.2169 237.196 80.6448 237.196ZM81.0467 238.325C80.6433 238.324 80.3191 238.455 80.0743 238.717C79.8294 238.98 79.7067 239.34 79.706 239.799C79.7054 240.257 79.8272 240.618 80.0713 240.881C80.3155 241.138 80.6392 241.267 81.0427 241.268C81.4339 241.268 81.755 241.137 82.0059 240.875C82.263 240.606 82.3919 240.249 82.3925 239.803C82.3931 239.35 82.2652 238.992 82.0089 238.729C81.7586 238.46 81.4379 238.325 81.0467 238.325ZM89.6249 239.62C89.6247 239.748 89.6092 239.895 89.5785 240.06L85.8559 240.055C85.8737 240.507 85.9954 240.84 86.2213 241.055C86.4472 241.269 86.7282 241.376 87.0644 241.377C87.3639 241.377 87.6116 241.304 87.8074 241.158C88.0093 241.011 88.1379 240.813 88.1933 240.562L89.5594 240.564C89.4917 240.919 89.3476 241.236 89.1272 241.517C88.9068 241.798 88.6222 242.018 88.2736 242.176C87.9311 242.335 87.5489 242.414 87.1272 242.413C86.6321 242.412 86.1921 242.308 85.8073 242.099C85.4225 241.885 85.1234 241.582 84.91 241.19C84.6966 240.799 84.5903 240.337 84.591 239.806C84.5917 239.274 84.6993 238.812 84.9138 238.421C85.1283 238.024 85.4282 237.722 85.8136 237.515C86.1989 237.308 86.6392 237.204 87.1343 237.205C87.6355 237.206 88.0724 237.31 88.445 237.519C88.8237 237.727 89.1136 238.015 89.3149 238.382C89.5222 238.743 89.6255 239.155 89.6249 239.62ZM88.3231 239.49C88.342 239.074 88.2324 238.759 87.9943 238.545C87.7623 238.331 87.4752 238.223 87.1329 238.223C86.7845 238.222 86.4909 238.329 86.2523 238.543C86.0136 238.756 85.8817 239.071 85.8567 239.486L88.3231 239.49ZM97.0099 237.209C97.6273 237.21 98.113 237.403 98.467 237.789C98.8271 238.168 99.0067 238.71 99.0057 239.413L99.0017 242.365L97.7181 242.363L97.7219 239.558C97.7224 239.166 97.622 238.867 97.4205 238.659C97.2252 238.444 96.9534 238.337 96.605 238.337C96.2443 238.336 95.9569 238.449 95.7426 238.675C95.5284 238.901 95.421 239.23 95.4204 239.664L95.4167 242.36L94.1331 242.358L94.1369 239.553C94.1374 239.161 94.037 238.862 93.8356 238.654C93.6402 238.44 93.3684 238.332 93.02 238.332C92.6593 238.331 92.3719 238.444 92.1576 238.67C91.9434 238.896 91.836 239.226 91.8354 239.66L91.8317 242.355L90.5389 242.353L90.5458 237.274L91.8386 237.276L91.8373 238.238C91.9723 237.909 92.1835 237.655 92.471 237.478C92.7647 237.295 93.104 237.204 93.4891 237.205C93.8987 237.205 94.2531 237.303 94.5523 237.499C94.8577 237.695 95.0865 237.977 95.2388 238.344C95.3982 237.996 95.6339 237.721 95.9459 237.52C96.2641 237.312 96.6187 237.209 97.0099 237.209ZM104.918 239.641C104.918 239.769 104.902 239.916 104.872 240.081L101.149 240.076C101.167 240.528 101.289 240.861 101.515 241.076C101.74 241.29 102.021 241.397 102.358 241.398C102.657 241.398 102.905 241.325 103.101 241.179C103.303 241.032 103.431 240.834 103.487 240.583L104.853 240.585C104.785 240.94 104.641 241.257 104.42 241.538C104.2 241.819 103.915 242.039 103.567 242.197C103.224 242.355 102.842 242.434 102.42 242.434C101.925 242.433 101.485 242.329 101.101 242.12C100.716 241.906 100.417 241.603 100.203 241.211C99.9898 240.82 99.8835 240.358 99.8842 239.826C99.8849 239.295 99.9925 238.833 100.207 238.442C100.421 238.045 100.721 237.743 101.107 237.536C101.492 237.329 101.932 237.225 102.428 237.226C102.929 237.227 103.366 237.331 103.738 237.54C104.117 237.748 104.407 238.036 104.608 238.403C104.815 238.763 104.919 239.176 104.918 239.641ZM103.616 239.511C103.635 239.095 103.526 238.78 103.288 238.566C103.056 238.352 102.768 238.244 102.426 238.244C102.078 238.243 101.784 238.35 101.545 238.563C101.307 238.777 101.175 239.092 101.15 239.507L103.616 239.511Z" fill="#687392"/>
<rect x="3.78272" y="78.9155" width="82.554" height="111.309" stroke="#F5841F" stroke-width="5.56544"/>
<rect x="79.8438" y="146.627" width="23.1893" height="24.1169" fill="white"/>
<path d="M26.6465 166.268V157.838H23.3221V155.879H32.3752V157.838H29.0508V166.268H26.6465ZM31.7816 166.268L36.4121 155.879H38.7867L43.432 166.268H40.909L37.1096 157.096H38.0595L34.2453 166.268H31.7816ZM34.0969 164.041L34.735 162.216H40.0779L40.7309 164.041H34.0969ZM46.6618 163.893L46.5282 161.118L51.5 155.879H54.1714L49.6894 160.702L48.3537 162.127L46.6618 163.893ZM44.5098 166.268V155.879H46.8992V166.268H44.5098ZM51.6187 166.268L47.9233 161.741L49.4964 160.034L54.4237 166.268H51.6187ZM58.6918 166.446C57.8607 166.446 57.0642 166.337 56.3024 166.119C55.5406 165.892 54.9271 165.6 54.4621 165.244L55.2784 163.433C55.7236 163.75 56.248 164.012 56.8515 164.219C57.465 164.417 58.0833 164.516 58.7067 164.516C59.1816 164.516 59.5625 164.472 59.8494 164.383C60.1463 164.284 60.3639 164.15 60.5025 163.982C60.641 163.814 60.7102 163.621 60.7102 163.403C60.7102 163.126 60.6014 162.909 60.3837 162.75C60.1661 162.582 59.8791 162.448 59.5229 162.35C59.1667 162.241 58.771 162.142 58.3356 162.053C57.9102 161.954 57.4798 161.835 57.0445 161.696C56.619 161.558 56.2282 161.38 55.872 161.162C55.5158 160.945 55.2239 160.658 54.9964 160.301C54.7787 159.945 54.6699 159.49 54.6699 158.936C54.6699 158.342 54.8282 157.803 55.1448 157.318C55.4713 156.824 55.9561 156.433 56.5992 156.146C57.2522 155.849 58.0685 155.701 59.048 155.701C59.701 155.701 60.3441 155.78 60.9774 155.938C61.6106 156.087 62.1696 156.314 62.6544 156.621L61.9124 158.446C61.4276 158.169 60.9427 157.966 60.4579 157.838C59.9731 157.699 59.4982 157.63 59.0332 157.63C58.5682 157.63 58.1872 157.684 57.8904 157.793C57.5936 157.902 57.3809 158.046 57.2522 158.224C57.1236 158.392 57.0593 158.59 57.0593 158.817C57.0593 159.084 57.1681 159.302 57.3858 159.47C57.6035 159.629 57.8904 159.757 58.2466 159.856C58.6028 159.955 58.9936 160.054 59.419 160.153C59.8544 160.252 60.2848 160.366 60.7102 160.494C61.1456 160.623 61.5413 160.796 61.8975 161.014C62.2537 161.231 62.5406 161.518 62.7583 161.875C62.9859 162.231 63.0997 162.681 63.0997 163.225C63.0997 163.809 62.9364 164.343 62.6099 164.828C62.2834 165.313 61.7936 165.704 61.1406 166C60.4975 166.297 59.6812 166.446 58.6918 166.446ZM64.7425 166.268V155.879H67.1468V166.268H64.7425ZM65.9446 154.959C65.5786 154.959 65.2768 154.84 65.0393 154.602C64.8118 154.365 64.698 154.063 64.698 153.697C64.698 153.341 64.8118 153.044 65.0393 152.807C65.2768 152.569 65.5786 152.45 65.9446 152.45C66.3008 152.45 66.5977 152.569 66.8351 152.807C67.0726 153.044 67.1913 153.341 67.1913 153.697C67.1913 154.063 67.0726 154.365 66.8351 154.602C66.5977 154.84 66.3008 154.959 65.9446 154.959ZM71.7642 166.268V157.838H68.4398V155.879H77.4929V157.838H74.1685V166.268H71.7642ZM82.9896 166.268V155.879H85.3939V166.268H82.9896ZM84.1918 154.959C83.8257 154.959 83.5239 154.84 83.2864 154.602C83.0589 154.365 82.9451 154.063 82.9451 153.697C82.9451 153.341 83.0589 153.044 83.2864 152.807C83.5239 152.569 83.8257 152.45 84.1918 152.45C84.5479 152.45 84.8448 152.569 85.0822 152.807C85.3197 153.044 85.4384 153.341 85.4384 153.697C85.4384 154.063 85.3197 154.365 85.0822 154.602C84.8448 154.84 84.5479 154.959 84.1918 154.959ZM87.8594 166.268V155.879H89.8481L94.2708 163.21H93.217L97.5655 155.879H99.5394L99.5691 166.268H97.3132L97.2984 159.337H97.7139L94.2411 165.169H93.1577L89.6106 159.337H90.1152V166.268H87.8594ZM104.186 163.893L104.052 161.118L109.024 155.879H111.695L107.213 160.702L105.878 162.127L104.186 163.893ZM102.034 166.268V155.879H104.423V166.268H102.034ZM109.143 166.268L105.447 161.741L107.02 160.034L111.948 166.268H109.143ZM111.176 166.268L115.807 155.879H118.181L122.826 166.268H120.303L116.504 157.096H117.454L113.64 166.268H111.176ZM113.491 164.041L114.13 162.216H119.472L120.125 164.041H113.491ZM123.904 166.268V155.879H125.893L132.022 163.359H131.058V155.879H133.432V166.268H131.458L125.314 158.788H126.279V166.268H123.904ZM135.89 166.268V155.879H138.295V166.268H135.89Z" fill="#102754"/>
<line x1="94.6851" y1="190.224" x2="94.6851" y2="209.703" stroke="#102754" stroke-width="5.56544" stroke-linecap="square"/>
<line x1="84.4819" y1="199.5" x2="103.961" y2="199.5" stroke="#102754" stroke-width="5.56544" stroke-linecap="square"/>
<path fill-rule="evenodd" clip-rule="evenodd" d="M95.3246 274.692H92.8468C92.8468 274.692 92.8422 274.692 92.8399 274.692C92.8399 274.69 92.8399 274.686 92.8399 274.686V272.208C92.8399 272.018 92.7112 271.891 92.5209 271.891H91.4455C91.245 271.891 91.1265 272.01 91.1265 272.208V274.686C91.1265 274.686 91.1253 274.69 91.1253 274.692C91.1231 274.692 91.1185 274.692 91.1185 274.692H88.6588C88.4583 274.692 88.3398 274.812 88.3398 275.012V276.089C88.3398 276.288 88.4583 276.407 88.6588 276.407H91.1185C91.1185 276.407 91.1219 276.407 91.1253 276.408C91.1253 276.411 91.1265 276.415 91.1265 276.415V278.874C91.1265 279.075 91.245 279.193 91.4455 279.193H92.5209C92.7203 279.193 92.8399 279.075 92.8399 278.874V276.415C92.8399 276.415 92.8399 276.41 92.8399 276.407C92.8422 276.407 92.8468 276.407 92.8468 276.407H95.3246C95.524 276.407 95.6425 276.288 95.6425 276.089V275.012C95.6425 274.82 95.5149 274.692 95.3246 274.692Z" fill="#989FB5"/>
<path fill-rule="evenodd" clip-rule="evenodd" d="M99.8009 277.335C99.8009 277.81 99.4535 278.169 98.9795 278.169C98.5045 278.169 98.1456 277.799 98.1456 277.335V276.119C98.1456 275.657 98.4931 275.297 98.9795 275.297C99.4535 275.297 99.8009 275.657 99.8009 276.119V277.335ZM101.133 277.335V276.119C101.133 274.949 100.265 274.081 99.1527 274.081C98.6548 274.081 98.3655 274.313 98.2265 274.313C98.1798 274.313 98.1456 274.267 98.1456 274.185V272.206C98.1456 272.124 98.1 272.09 98.0294 272.09H96.9414C96.8605 272.09 96.8252 272.124 96.8252 272.206V279.268C96.8252 279.349 96.8605 279.385 96.9414 279.385H97.9257C98.0875 279.385 98.018 279.153 98.1228 279.153C98.2618 279.153 98.5272 279.385 99.049 279.385C100.253 279.385 101.133 278.551 101.133 277.335Z" fill="#989FB5"/>
<path fill-rule="evenodd" clip-rule="evenodd" d="M104.537 277.451C104.537 277.914 104.178 278.284 103.716 278.284C103.229 278.284 102.882 277.914 102.882 277.451V276.014C102.882 275.552 103.229 275.182 103.716 275.182C104.178 275.182 104.537 275.552 104.537 276.014V277.451ZM105.869 277.451V276.014C105.869 274.787 105.012 273.965 103.716 273.965C102.407 273.965 101.55 274.787 101.55 276.014V277.451C101.55 278.678 102.407 279.501 103.716 279.501C105.012 279.501 105.869 278.678 105.869 277.451Z" fill="#989FB5"/>
<path fill-rule="evenodd" clip-rule="evenodd" d="M110.65 279.383H109.55C109.469 279.383 109.435 279.348 109.435 279.267V276.118C109.435 275.656 109.087 275.296 108.612 275.296C108.126 275.296 107.779 275.656 107.779 276.118V279.267C107.779 279.348 107.744 279.383 107.663 279.383H106.574C106.493 279.383 106.459 279.348 106.459 279.267V274.196C106.459 274.115 106.493 274.08 106.574 274.08H107.558C107.733 274.08 107.663 274.311 107.755 274.311C107.894 274.311 108.171 274.08 108.704 274.08C109.886 274.08 110.765 274.913 110.765 276.118V279.267C110.765 279.348 110.731 279.383 110.65 279.383Z" fill="#989FB5"/>
<path fill-rule="evenodd" clip-rule="evenodd" d="M115.607 279.383H114.623C114.461 279.383 114.531 279.152 114.426 279.152C114.287 279.152 114.009 279.383 113.488 279.383C112.284 279.383 111.416 278.549 111.416 277.334V274.196C111.416 274.115 111.45 274.08 111.532 274.08H112.632C112.701 274.08 112.748 274.115 112.748 274.196V277.334C112.748 277.809 113.095 278.168 113.569 278.168C114.044 278.168 114.403 277.797 114.403 277.334V274.196C114.403 274.115 114.437 274.08 114.519 274.08H115.607C115.677 274.08 115.724 274.115 115.724 274.196V279.267C115.724 279.348 115.688 279.383 115.607 279.383Z" fill="#989FB5"/>
<path fill-rule="evenodd" clip-rule="evenodd" d="M119.949 274.359C120.376 274.672 120.632 275.169 120.632 275.308C120.632 275.343 120.609 275.378 120.562 275.401L119.613 275.864C119.589 275.877 119.566 275.877 119.555 275.877C119.508 275.877 119.497 275.853 119.463 275.806C119.219 275.447 119.091 275.146 118.617 275.146H118.281C117.864 275.146 117.643 275.297 117.643 275.586C117.643 276.061 118.281 275.957 119.23 276.211C120.168 276.467 120.609 276.895 120.609 277.659C120.609 278.747 119.833 279.501 118.617 279.501H118.281C117.633 279.501 117.135 279.315 116.775 278.933C116.417 278.562 116.277 278.238 116.277 278.133C116.277 278.099 116.301 278.076 116.347 278.054L117.297 277.59C117.32 277.577 117.331 277.577 117.355 277.577C117.389 277.577 117.413 277.613 117.447 277.659C117.679 278.041 117.829 278.319 118.281 278.319H118.617C119.033 278.319 119.288 278.111 119.288 277.821C119.288 277.359 118.64 277.462 117.691 277.22C116.764 276.987 116.335 276.548 116.335 275.76C116.335 274.707 117.135 273.965 118.281 273.965H118.617C119.161 273.965 119.589 274.092 119.949 274.359Z" fill="#989FB5"/>
<path fill-rule="evenodd" clip-rule="evenodd" d="M126.521 278.049L125.513 277.551C125.489 277.54 125.479 277.54 125.455 277.54C125.397 277.54 125.35 277.621 125.281 277.76C125.084 278.131 124.875 278.317 124.539 278.317C124.052 278.317 123.705 277.945 123.705 277.482V276.044C123.705 275.58 124.052 275.21 124.539 275.21C124.875 275.21 125.096 275.396 125.293 275.766C125.363 275.894 125.385 275.963 125.455 275.963C125.466 275.963 125.489 275.963 125.513 275.952L126.521 275.453C126.568 275.43 126.591 275.396 126.591 275.36C126.591 275.221 126.313 274.711 125.86 274.375C125.502 274.108 125.072 273.992 124.539 273.992C123.229 273.992 122.372 274.816 122.372 276.044V277.482C122.372 278.711 123.229 279.534 124.539 279.534C125.188 279.534 125.687 279.348 126.023 279C126.418 278.583 126.591 278.27 126.591 278.143C126.591 278.107 126.568 278.073 126.521 278.049Z" fill="#989FB5"/>
<path fill-rule="evenodd" clip-rule="evenodd" d="M131.128 279.302V276.033C131.128 274.804 130.27 273.992 128.961 273.992C128.334 273.992 127.836 274.155 127.489 274.491C127.093 274.874 126.932 275.244 126.932 275.338C126.932 275.36 126.954 275.396 127.001 275.419L127.951 275.916C127.975 275.929 127.998 275.94 128.022 275.94C128.114 275.94 128.161 275.766 128.323 275.558C128.497 275.338 128.751 275.21 128.961 275.21C129.436 275.21 129.749 275.511 129.795 275.987L129.807 276.126V276.149C129.807 276.218 129.76 276.254 129.691 276.254H128.578C127.615 276.254 126.943 276.89 126.943 277.806V277.865C126.943 278.757 127.615 279.417 128.578 279.417H129.019C129.436 279.417 129.702 279.197 129.83 279.197C129.934 279.197 129.853 279.417 130.027 279.417H131.012C131.093 279.417 131.128 279.383 131.128 279.302ZM129.807 277.366C129.795 277.494 129.795 277.551 129.795 277.551C129.644 277.981 129.378 278.201 129.019 278.201H128.578C128.392 278.201 128.265 278.062 128.265 277.865V277.69C128.265 277.517 128.404 277.366 128.578 277.366H129.807Z" fill="#989FB5"/>
<path fill-rule="evenodd" clip-rule="evenodd" d="M134.809 275.44V274.316C134.809 274.2 134.565 274.107 134.159 274.107C133.857 274.107 133.579 274.224 133.279 274.455L133.209 274.49C133.14 274.479 133.104 274.444 133.104 274.374V274.212C133.104 274.13 133.069 274.107 132.989 274.107H132.004C131.922 274.107 131.888 274.143 131.888 274.224V279.301C131.888 279.382 131.922 279.416 132.004 279.416H133.093C133.174 279.416 133.209 279.382 133.209 279.301V276.148C133.209 275.696 133.557 275.337 134.009 275.337C134.334 275.337 134.576 275.568 134.728 275.568C134.773 275.568 134.809 275.522 134.809 275.44Z" fill="#989FB5"/>
<path fill-rule="evenodd" clip-rule="evenodd" d="M139.379 279.301V272.229C139.379 272.149 139.333 272.113 139.263 272.113H138.161C138.081 272.113 138.045 272.149 138.045 272.229V274.212C138.045 274.293 138.011 274.339 137.964 274.339C137.837 274.339 137.536 274.107 137.037 274.107C135.924 274.107 135.055 274.976 135.055 276.147V277.364C135.055 278.582 135.935 279.416 137.142 279.416C137.664 279.416 137.942 279.185 138.081 279.185C138.197 279.185 138.103 279.416 138.278 279.416H139.263C139.344 279.416 139.379 279.382 139.379 279.301ZM138.045 277.364C138.045 277.84 137.698 278.199 137.223 278.199C136.736 278.199 136.388 277.84 136.388 277.364V276.147C136.388 275.684 136.736 275.325 137.223 275.325C137.698 275.325 138.045 275.684 138.045 276.147V277.364Z" fill="#989FB5"/>
<g clip-path="url(#clip1_880_7141)">
<path fill-rule="evenodd" clip-rule="evenodd" d="M62.0071 270.801H56.2363L59.1218 274.97" fill="#989FB5"/>
<path fill-rule="evenodd" clip-rule="evenodd" d="M55.1106 279.417L54.4616 278.138H51.4116L50.7887 279.417H49.0361L52.5834 273.027H53.2742L56.8526 279.417H55.1106ZM52.9286 274.954L51.8615 277.01H53.9961" fill="#989FB5"/>
<path fill-rule="evenodd" clip-rule="evenodd" d="M60.7485 279.415L59.1016 277.331L57.7028 279.415H55.9326L58.3145 276.142L56.0551 273.014H57.7688L59.1221 274.969L60.4757 273.014H62.1791L59.8736 276.142L62.5549 279.415" fill="#989FB5"/>
<path fill-rule="evenodd" clip-rule="evenodd" d="M68.3824 276.674H63.8125C63.8401 277.199 64.0219 277.602 64.3581 277.883C64.677 278.154 65.1045 278.29 65.6396 278.29C66.3189 278.29 66.8369 278.111 67.1939 277.754L67.7702 278.897C67.2453 279.322 66.4613 279.535 65.4181 279.535C64.4199 279.535 63.6394 279.242 63.0767 278.655C62.5244 278.079 62.248 277.29 62.248 276.288C62.248 275.338 62.5398 274.542 63.123 273.9C63.7235 273.231 64.492 272.896 65.4285 272.896C66.3274 272.896 67.0618 273.161 67.6312 273.689C68.2145 274.234 68.5062 274.953 68.5062 275.845C68.5062 276.027 68.4649 276.303 68.3824 276.674ZM63.8641 275.552H67.0086C66.9056 274.615 66.3876 274.147 65.4543 274.147C64.6001 274.147 64.0699 274.615 63.8641 275.552Z" fill="#989FB5"/>
<path fill-rule="evenodd" clip-rule="evenodd" d="M68.7924 279.005L69.3227 277.816C69.772 278.169 70.2764 278.346 70.8354 278.346C71.4187 278.346 71.7101 278.139 71.7101 277.724C71.7101 277.436 71.5595 277.189 71.2576 276.982C71.1203 276.887 70.8424 276.751 70.4239 276.576C69.3189 276.119 68.7666 275.48 68.7666 274.656C68.7666 274.066 69.0051 273.615 69.4821 273.303C69.8905 273.032 70.4031 272.896 71.0207 272.896C71.6865 272.896 72.3125 273.046 72.8992 273.344L72.4672 274.507C72.1411 274.226 71.6865 274.085 71.103 274.085C70.5818 274.085 70.3209 274.293 70.3209 274.708C70.3209 274.928 70.5027 275.135 70.8666 275.33C70.9797 275.396 71.2507 275.512 71.6795 275.68C72.7363 276.096 73.2644 276.744 73.2644 277.626C73.2644 278.274 73.0073 278.768 72.4927 279.108C72.0535 279.393 71.4911 279.535 70.8048 279.535C70.3826 279.535 70.0345 279.497 69.7598 279.422C69.5095 279.353 69.1869 279.214 68.7924 279.005Z" fill="#989FB5"/>
<path fill-rule="evenodd" clip-rule="evenodd" d="M73.5444 279.005L74.0744 277.816C74.524 278.169 75.0281 278.346 75.5874 278.346C76.1706 278.346 76.4621 278.139 76.4621 277.724C76.4621 277.436 76.3114 277.189 76.0093 276.982C75.8722 276.887 75.5943 276.751 75.1759 276.576C74.0709 276.119 73.5186 275.48 73.5186 274.656C73.5186 274.066 73.7571 273.615 74.2338 273.303C74.6421 273.032 75.1551 272.896 75.7727 272.896C76.4384 272.896 77.0645 273.046 77.6512 273.344L77.2189 274.507C76.8928 274.226 76.4384 274.085 75.8549 274.085C75.3337 274.085 75.0726 274.293 75.0726 274.708C75.0726 274.928 75.2547 275.135 75.6183 275.33C75.7314 275.396 76.0024 275.512 76.4315 275.68C77.4883 276.096 78.0164 276.744 78.0164 277.626C78.0164 278.274 77.7592 278.768 77.2444 279.108C76.8055 279.393 76.2428 279.535 75.5565 279.535C75.1346 279.535 74.7864 279.497 74.5117 279.422C74.2612 279.353 73.9389 279.214 73.5444 279.005Z" fill="#989FB5"/>
</g>
<g clip-path="url(#clip2_880_7141)">
<path d="M34.2119 295.671H35.5093V290.839H34.2119V295.671ZM35.9005 295.671H37.0942L37.0519 292.369H37.0667L38.7672 295.671H40.3794V290.839H39.194L39.214 294.121H39.1999L37.5535 290.839H35.9013L35.9005 295.671ZM42.4289 290.839H44.0145L45.8905 295.671H44.4679L44.1056 294.642H42.2807L41.8969 295.671H40.5765L42.4289 290.839ZM43.2239 291.837H43.2098L42.577 293.724H43.7974L43.2239 291.837ZM46.0868 295.671H47.2797L47.2382 292.369H47.2523L48.9565 295.671H50.5672V290.839H49.3818L49.3936 294.121H49.3795L47.7347 290.839H46.0831L46.0868 295.671ZM50.8629 295.546C51.3338 295.685 51.8224 295.755 52.3136 295.754C53.3946 295.754 54.4556 295.415 54.4556 294.162C54.4556 292.418 52.1536 292.944 52.1536 292.162C52.1536 291.739 52.6982 291.711 53.0249 291.711C53.3973 291.706 53.7663 291.782 54.1067 291.932L54.1911 290.934C53.7832 290.81 53.3583 290.749 52.9315 290.754C51.9543 290.754 50.8103 291.073 50.8103 292.236C50.8103 293.995 53.1123 293.426 53.1123 294.328C53.1123 294.715 52.7233 294.798 52.3099 294.798C51.844 294.802 51.3842 294.692 50.971 294.478L50.8629 295.546ZM29.6774 295.665H31.3697V293.1H33.82V291.894H31.3697V290.488H35.4989V289.293H29.6774V295.665ZM15.15 290.934C14.8036 290.79 14.4309 290.72 14.0557 290.728C12.5738 290.728 11.4824 291.717 11.4824 293.205C11.4824 294.742 12.5079 295.724 14.049 295.724C14.335 295.724 14.7899 295.704 15.1604 295.551L15.1189 294.88C14.8751 295.027 14.4076 295.115 14.0586 295.115C13.048 295.115 12.2256 294.361 12.2256 293.225C12.2256 292.139 12.9717 291.336 14.0942 291.336C14.4474 291.334 14.7944 291.428 15.0982 291.607L15.15 290.934ZM15.6013 295.64H16.3333L16.8297 294.423H19.214L19.709 295.64H20.4692L18.4123 290.809H17.6818L15.6013 295.64ZM18.9903 293.855H17.0527L18.0211 291.459L18.9903 293.855ZM20.9908 295.64H21.6828V293.497H22.1022C22.4726 293.497 22.7008 293.497 22.9172 293.967L23.6626 295.641H24.4569L23.5381 293.717C23.384 293.422 23.2795 293.315 23.0632 293.233V293.219C23.6285 293.122 24.0679 292.704 24.0679 292.116C24.0679 290.959 23.1395 290.808 22.177 290.808H20.9878L20.9908 295.64ZM21.6828 291.419H22.3496C22.9913 291.419 23.3269 291.696 23.3269 292.132C23.3269 292.596 22.9365 292.886 22.2726 292.886H21.6798L21.6828 291.419ZM25.0548 295.641H26.4922C28.0948 295.641 29.0854 294.804 29.0854 293.184C29.0854 291.696 27.9348 290.81 26.4922 290.81H25.0548V295.641ZM25.7513 291.419H26.5663C27.5702 291.419 28.3445 292.081 28.3445 293.211C28.3445 294.461 27.6836 295.032 26.4826 295.032H25.7498L25.7513 291.419Z" fill="#989FB5"/>
<path fill-rule="evenodd" clip-rule="evenodd" d="M4.58833 290.665L4.5861 288.269H6.21467V290.66L8.62714 288.266L9.78151 289.411L7.35792 291.817H9.77262V293.431H7.36459L9.78595 295.835L8.62269 296.988L6.20578 294.59V297H4.58388V294.59L2.16252 296.993L1.01704 295.856L3.46433 293.427H1V291.817H3.43618L1.01037 289.409L2.1603 288.268L4.58388 290.673L4.58833 290.665Z" fill="#989FB5"/>
</g>
<path fill-rule="evenodd" clip-rule="evenodd" d="M68.8725 294.909C68.8522 295.053 68.8397 295.139 68.8397 295.139H67.5967C67.5967 295.139 67.6092 295.053 67.6305 294.909H68.1275H67.6305C67.7376 294.183 68.0628 291.978 68.0966 291.75C68.1381 291.476 68.3591 290.975 68.7055 290.698C69.052 290.422 69.495 290.23 70.0306 290.23C70.5662 290.23 70.8808 290.361 71.0613 290.46C71.2417 290.559 71.3585 290.684 71.3585 290.684C71.3585 290.684 71.5071 290.538 71.7986 290.419C72.089 290.299 72.2898 290.227 72.7627 290.227C73.2336 290.227 73.6737 290.378 73.8648 290.567C74.0578 290.757 74.1215 290.87 74.1939 291.199C74.1939 291.199 74.2325 291.438 74.1832 291.781C74.1417 292.067 73.831 294.198 73.7268 294.909C73.7065 295.053 73.6939 295.139 73.6939 295.139H72.4509C72.4509 295.139 72.4635 295.053 72.4838 294.909H73.0782H72.4838C72.5861 294.209 72.8881 292.139 72.9074 291.997C72.9306 291.825 72.9798 291.467 72.8601 291.31C72.7414 291.153 72.5262 291.112 72.3631 291.123C72.2 291.135 71.8623 291.185 71.7715 291.724C71.6972 292.168 71.3932 294.214 71.2909 294.908L70.6868 294.909H71.2909C71.2697 295.053 71.2562 295.139 71.2562 295.139H70.019C70.019 295.139 70.0315 295.053 70.0528 294.908C70.1589 294.187 70.4764 292.025 70.4938 291.89C70.5141 291.726 70.543 291.342 70.3249 291.202C70.1058 291.062 69.7131 291.094 69.5529 291.316C69.3927 291.537 69.3579 291.645 69.3029 291.983C69.2566 292.261 68.9709 294.23 68.8725 294.909ZM74.6474 294.909C74.5007 294.79 74.3782 294.638 74.2933 294.446C73.9796 293.736 74.1659 292.833 75.0392 292.39C75.9126 291.947 77.229 291.971 77.229 291.971C77.229 291.971 77.3274 291.575 77.1122 291.383C76.8719 291.169 76.6229 291.237 76.0815 291.325C75.5401 291.412 74.9341 291.671 74.9341 291.671L75.074 290.683C75.074 290.683 75.4407 290.422 76.3614 290.282C77.2811 290.143 77.6073 290.316 78.0145 290.619C78.4228 290.923 78.4228 291.447 78.3755 291.779C78.3291 292.111 77.974 294.521 77.974 294.521L77.6594 294.766C77.5889 294.818 77.5127 294.866 77.4326 294.909H77.4316C77.0707 295.106 76.6152 295.22 76.0873 295.267C75.6154 295.31 75.0441 295.232 74.6474 294.909ZM78.3697 294.909L78.2191 294.54C78.2191 294.54 79.6667 292.553 79.6947 292.509C79.7246 292.466 79.7323 292.359 79.6928 292.282C79.6513 292.207 78.7721 290.704 78.7277 290.619C78.6843 290.536 78.6293 290.37 78.7084 290.037C78.7866 289.706 78.9931 289.606 79.0858 289.592C79.1794 289.577 79.2701 289.612 79.3772 289.778C79.4853 289.944 80.3674 291.266 80.405 291.324C80.4436 291.383 80.5044 291.4 80.5546 291.33C80.6038 291.26 82.3969 288.788 82.4847 288.669C82.5725 288.549 82.7935 288.311 83.0058 288.278C83.2182 288.246 83.3784 288.272 83.527 288.383C83.6756 288.494 83.8039 288.724 83.7779 288.962C83.7509 289.201 83.6206 289.408 83.4102 289.674C83.2008 289.938 81.3112 292.239 81.262 292.294C81.2118 292.349 81.2099 292.437 81.2214 292.509C81.2321 292.582 81.3517 292.739 81.3952 292.803C81.4386 292.867 82.5745 294.556 82.5745 294.556L83.1805 290.374H84.3569L83.6949 294.909H83.3813H83.6949L83.6611 295.142H82.974L83.583 296.047L82.3834 297C82.3834 297 81.7368 295.873 81.1838 294.909H81.1828C80.7765 294.199 80.4204 293.578 80.4089 293.557C80.3789 293.508 80.3355 293.438 80.239 293.561C80.1811 293.635 79.5982 294.356 79.1514 294.909H78.3697L78.6322 295.55C78.6322 295.55 78.8638 295.264 79.1514 294.909H78.3697ZM84.1465 294.909C84.2537 294.183 84.5789 291.978 84.6127 291.75C84.6542 291.476 84.8752 290.975 85.2216 290.698C85.5681 290.422 86.011 290.23 86.5467 290.23C87.0823 290.23 87.3969 290.36 87.5773 290.459C87.7578 290.559 87.8746 290.683 87.8746 290.683C87.8746 290.683 88.0232 290.538 88.3147 290.419C88.6051 290.299 88.8059 290.227 89.2778 290.227C89.7497 290.227 90.1898 290.378 90.3818 290.567C90.5739 290.757 90.6385 290.869 90.7099 291.199C90.7099 291.199 90.7485 291.438 90.6993 291.781C90.6578 292.067 90.3471 294.198 90.2438 294.909H90.2429C90.2226 295.053 90.21 295.139 90.21 295.139H88.967C88.967 295.139 88.9786 295.053 88.9998 294.909H89.4139H88.9998C89.1021 294.209 89.4042 292.139 89.4235 291.997C89.4467 291.825 89.4969 291.467 89.3772 291.31C89.2575 291.152 89.0423 291.112 88.8792 291.123C88.7161 291.135 88.3783 291.185 88.2876 291.724C88.2133 292.168 87.9093 294.214 87.807 294.908L87.2145 294.909H87.807C87.7858 295.053 87.7723 295.139 87.7723 295.139H86.5351C86.5351 295.139 86.5486 295.053 86.5689 294.909V294.908C86.676 294.186 86.9925 292.025 87.0099 291.889C87.0302 291.726 87.0591 291.342 86.841 291.202C86.6219 291.062 86.2292 291.094 86.069 291.315C85.9088 291.536 85.874 291.644 85.819 291.982C85.7736 292.261 85.487 294.23 85.3895 294.909C85.3683 295.053 85.3558 295.139 85.3558 295.139H84.1118C84.1118 295.139 84.1253 295.053 84.1465 294.909ZM91.2243 294.909C91.0274 294.723 90.93 294.501 90.903 294.323C90.8451 293.945 90.8856 293.584 90.9666 293.072C91.0487 292.559 91.372 290.381 91.372 290.381H92.6063C92.6063 290.381 92.1488 293.502 92.1141 293.736C92.0794 293.968 92.1025 294.335 92.3177 294.44C92.5339 294.544 92.8833 294.527 93.028 294.4C93.1747 294.27 93.3079 294.143 93.3841 293.736C93.4594 293.327 93.8908 290.374 93.8908 290.374H95.1077C95.1077 290.374 94.6937 293.252 94.6474 293.602C94.6011 293.951 94.4322 294.539 94.0597 294.836C94.0269 294.862 93.995 294.886 93.9632 294.909H93.9622C93.6138 295.158 93.2008 295.285 92.3119 295.285C91.7956 295.285 91.4463 295.121 91.2243 294.909H92.9093H91.2243ZM94.9089 294.909C95.0161 294.183 95.3422 291.977 95.376 291.75C95.4166 291.476 95.6376 290.975 95.984 290.698C96.3305 290.422 96.7734 290.23 97.309 290.23C97.8447 290.23 98.1593 290.36 98.3397 290.459C98.5202 290.559 98.637 290.683 98.637 290.683C98.637 290.683 98.7856 290.538 99.077 290.419C99.3675 290.299 99.5683 290.227 100.04 290.227C100.512 290.227 100.952 290.377 101.144 290.566C101.336 290.757 101.401 290.869 101.473 291.199C101.473 291.199 101.511 291.438 101.462 291.781C101.42 292.067 101.108 294.199 101.006 294.909H101.005C100.985 295.053 100.972 295.139 100.972 295.139H99.7294C99.7294 295.139 99.741 295.053 99.7622 294.909C99.8645 294.209 100.167 292.139 100.186 291.997C100.209 291.825 100.259 291.467 100.14 291.31C100.02 291.152 99.8047 291.112 99.6416 291.123C99.4785 291.135 99.1407 291.184 99.05 291.723C98.9757 292.168 98.6707 294.217 98.5685 294.909C98.5472 295.053 98.5347 295.139 98.5347 295.139H97.2975C97.2975 295.139 97.31 295.053 97.3312 294.909H97.9334H97.3312C97.4364 294.191 97.7549 292.025 97.7723 291.889C97.7916 291.725 97.8215 291.342 97.6034 291.202C97.3843 291.062 96.9915 291.094 96.8313 291.315C96.6711 291.536 96.6364 291.644 96.5814 291.982C96.536 292.261 96.2494 294.23 96.151 294.909C96.1307 295.053 96.1182 295.139 96.1182 295.139H94.8752C94.8752 295.139 94.8867 295.053 94.9089 294.909ZM80.0238 289.268C80.13 288.767 80.5054 288.36 80.8634 288.36C81.2224 288.36 81.427 288.767 81.3218 289.268C81.2157 289.77 80.8402 290.177 80.4822 290.177C80.1242 290.177 79.9186 289.77 80.0238 289.268ZM77.118 292.78C77.118 292.78 76.8439 292.798 76.6461 292.815C76.4482 292.833 76.1452 292.861 75.7553 293.007C75.3654 293.153 75.2139 293.456 75.2139 293.77C75.2139 294.062 75.377 294.388 75.9001 294.423C76.4251 294.458 76.9144 294.12 76.9144 294.12L77.118 292.78Z" fill="#989FB5"/>
<g clip-path="url(#clip3_880_7141)">
<path d="M138.299 294.51H139.103V293.71H138.299V294.51ZM133.627 291.12C133.628 291.215 133.616 291.327 133.59 291.453C133.445 292.163 133.096 292.8 132.584 293.299C132.337 293.539 131.935 293.787 131.688 293.787C131.625 293.787 131.571 293.778 131.516 293.662C131.44 293.503 131.425 293.16 131.611 292.671C131.788 292.202 132.105 291.724 132.505 291.323C132.841 290.986 133.221 290.833 133.431 290.833C133.521 290.833 133.623 290.833 133.627 291.12V291.12ZM127.817 290.549C127.81 290.588 127.803 290.63 127.794 290.672C127.663 290.602 127.574 290.504 127.527 290.378C127.485 290.266 127.502 290.177 127.58 290.108C127.635 290.058 127.697 290.043 127.729 290.043C127.737 290.043 127.742 290.044 127.746 290.045C127.829 290.126 127.867 290.234 127.817 290.549ZM125.373 291.089C125.359 291.269 125.305 291.455 125.274 291.551C125.001 292.393 124.793 292.858 124.067 293.486C123.84 293.683 123.62 293.792 123.448 293.792H123.448C123.341 293.792 123.259 293.748 123.197 293.658C123.094 293.508 123.032 293.183 123.197 292.761C123.432 292.162 124.005 291.474 124.56 291.127C124.676 291.054 124.818 290.985 124.972 290.926C125.143 290.86 125.246 290.846 125.301 290.846C125.333 290.846 125.351 290.851 125.351 290.85C125.359 290.86 125.387 290.905 125.373 291.089ZM138.61 289.643C138.999 288.86 139.224 287.619 138.954 286.845C138.765 286.302 138.335 286.006 137.792 286.025C136.753 286.057 136.351 287.349 136.158 287.969C135.679 289.51 135.393 291.191 135.295 293.042C135.263 293.065 135.233 293.087 135.2 293.112C135.02 293.245 134.609 293.551 134.445 293.562C134.426 293.531 134.388 293.441 134.37 293.231C134.35 292.988 134.374 292.357 134.393 291.851C134.405 291.54 134.415 291.271 134.414 291.113C134.414 291.112 134.414 291.111 134.414 291.109C134.406 290.466 134.021 290.051 133.431 290.051C132.959 290.051 132.39 290.327 131.945 290.773C131.469 291.25 131.089 291.827 130.874 292.395C130.752 292.716 130.687 293.021 130.677 293.297C130.599 293.356 130.524 293.413 130.476 293.445C129.905 293.824 129.742 293.694 129.689 293.65C129.43 293.442 129.679 292.808 129.898 292.249C130.103 291.727 130.297 291.234 130.205 290.822C130.178 290.7 130.094 290.599 129.979 290.549C129.863 290.498 129.731 290.506 129.623 290.569C129.451 290.667 128.897 290.79 128.57 290.804C128.58 290.758 128.587 290.714 128.594 290.672C128.632 290.44 128.719 289.896 128.296 289.486C128.012 289.212 127.555 289.187 127.184 289.427C126.773 289.692 126.614 290.183 126.789 290.65C126.895 290.935 127.117 291.254 127.579 291.436C127.262 292.343 126.712 293.382 126.194 293.772C126.125 293.527 126.056 292.914 126.147 291.385C126.153 291.267 126.158 291.181 126.159 291.135C126.176 290.905 126.167 290.576 125.929 290.32C125.821 290.204 125.625 290.065 125.301 290.065C125.12 290.065 124.919 290.109 124.688 290.197C124.488 290.274 124.299 290.366 124.14 290.466C123.436 290.907 122.761 291.716 122.463 292.477C122.229 293.077 122.26 293.683 122.547 294.099C122.755 294.4 123.083 294.573 123.448 294.574H123.448C123.816 294.574 124.209 294.401 124.585 294.075C124.906 293.797 125.145 293.542 125.336 293.276C125.386 293.992 125.533 294.372 125.795 294.541C125.891 294.602 125.998 294.633 126.109 294.633C126.212 294.633 126.316 294.607 126.417 294.554C127.264 294.115 127.987 292.698 128.358 291.585C128.419 291.587 128.484 291.587 128.55 291.586C128.751 291.582 129.054 291.543 129.347 291.477C129.294 291.637 129.226 291.81 129.165 291.966C128.863 292.734 128.488 293.69 129.193 294.258C129.628 294.607 130.193 294.56 130.873 294.12C131.057 294.41 131.341 294.569 131.688 294.569C132.384 294.569 133.06 293.93 133.135 293.857C133.301 293.695 133.452 293.521 133.589 293.337C133.609 293.561 133.679 294.084 134.115 294.279C134.217 294.325 134.321 294.345 134.427 294.345C134.706 294.345 134.991 294.204 135.259 294.03C135.244 294.975 135.275 295.965 135.351 297.001L136.11 296.529C136.043 295.455 136.025 294.432 136.062 293.462C136.645 293.068 137.16 292.816 137.603 292.707L137.938 291.868C137.397 291.898 136.796 292.105 136.119 292.499C136.239 290.942 136.501 289.516 136.911 288.2C137.039 287.787 137.34 286.821 137.819 286.806C137.988 286.8 138.122 286.847 138.21 287.1C138.39 287.615 138.228 288.483 138.009 289.063L138.61 289.643ZM124.485 288.793C123.452 289.583 122.246 289.86 121.208 289.56C121.647 287.526 122.408 285.557 123.628 284.886C124.015 284.673 124.468 284.651 124.871 284.826C125.262 284.996 125.553 285.329 125.649 285.719C125.899 286.733 125.377 288.112 124.485 288.793ZM126.439 285.528C126.284 284.895 125.819 284.356 125.197 284.086C124.559 283.809 123.844 283.843 123.234 284.179C121.732 285.006 120.902 287.173 120.445 289.214C119.779 288.787 119.31 288.088 119.081 287.192L118.36 287.64C118.7 288.724 119.369 289.57 120.276 290.051C120.007 291.53 119.923 292.825 119.899 293.322L119.897 293.373C119.879 293.724 119.841 294.521 119.876 295.389L120.677 294.891C120.669 294.246 120.696 293.688 120.709 293.412L120.712 293.36C120.752 292.514 120.858 291.449 121.052 290.355C122.322 290.695 123.762 290.364 124.982 289.433C126.143 288.546 126.77 286.867 126.439 285.528Z" fill="#989FB5"/>
</g>
<g clip-path="url(#clip4_880_7141)">
<path d="M9.05619 274.606C9.11595 274.606 9.1518 274.665 9.13985 274.718L7.89088 279.351C7.87893 279.386 7.84307 279.416 7.80124 279.416H5.73356C5.69173 279.416 5.65587 279.386 5.64392 279.345L5.10608 277.2C5.08816 277.135 5.05828 277.135 5.04035 277.2L4.52044 279.345C4.50849 279.38 4.47861 279.416 4.4308 279.416H2.32727C2.28544 279.416 2.24958 279.386 2.23763 279.351L1.00061 274.706C0.988656 274.665 1.01854 274.6 1.09025 274.6H3.14597C3.18183 274.6 3.22366 274.623 3.22964 274.671L3.65991 276.951C3.67186 277.011 3.71966 277.011 3.73162 276.951L4.19176 274.671C4.20372 274.629 4.2336 274.6 4.2814 274.6H5.89491C5.93674 274.6 5.9726 274.629 5.97857 274.671L6.41482 276.957C6.42677 277.016 6.4686 277.016 6.48055 276.957L6.94668 274.671C6.95265 274.635 6.99448 274.6 7.03034 274.6L9.05619 274.606Z" fill="#989FB5"/>
<path d="M22.9619 274.694C22.9619 274.641 23.0037 274.605 23.0516 274.605H24.8145C24.8563 274.605 24.9041 274.635 24.9041 274.694V277.726C24.9041 277.749 24.928 277.767 24.9459 277.767H27.8323C27.8801 277.767 27.922 277.802 27.922 277.856V279.333C27.922 279.374 27.8861 279.416 27.8323 279.416H23.0516C23.0037 279.416 22.9619 279.374 22.9619 279.327V274.694Z" fill="#989FB5"/>
<path d="M34.2984 277.015C34.2984 276.046 34.1251 275.166 33.2586 274.805C32.6789 274.563 31.6869 274.533 31.179 274.545C29.4818 274.575 28.4898 274.669 28.4898 274.669C28.448 274.675 28.4121 274.705 28.4121 274.758C28.4121 274.758 28.4121 279.237 28.4121 279.273C28.4121 279.326 28.4599 279.355 28.4838 279.355C29.2368 279.438 30.2168 279.491 31.1849 279.491C31.6929 279.491 32.7566 279.426 33.2646 279.219C34.1311 278.877 34.2984 277.984 34.2984 277.015ZM30.3364 277.783V276.277C30.3364 276.247 30.3603 276.235 30.3782 276.229C30.6113 276.212 30.9459 276.2 31.2447 276.2C32.1829 276.2 32.2487 276.383 32.2487 277.039C32.2487 277.695 32.177 277.878 31.2447 277.878C30.928 277.878 30.4081 277.848 30.4081 277.848C30.3423 277.848 30.3364 277.825 30.3364 277.783Z" fill="#989FB5"/>
<path d="M13.5443 277.045C13.5443 276.306 13.371 276.064 12.4926 276.064C11.6081 276.064 11.4348 276.306 11.4348 277.045C11.4348 277.784 11.6141 278.026 12.4926 278.026C13.371 278.02 13.5443 277.778 13.5443 277.045ZM15.6359 277.01C15.6359 277.979 15.4746 278.924 14.5961 279.267C14.1838 279.426 13.4666 279.533 12.4806 279.533C11.4946 279.533 10.7715 279.432 10.3592 279.267C9.48666 278.924 9.31934 277.973 9.31934 277.01C9.31934 276.04 9.48069 275.101 10.3592 274.758C10.7715 274.599 11.4946 274.492 12.4806 274.492C13.4666 274.492 14.1838 274.593 14.5961 274.758C15.4746 275.101 15.6359 276.04 15.6359 277.01Z" fill="#989FB5"/>
<path d="M22.4291 279.266C21.9331 278.776 21.3833 278.285 20.7798 277.819C20.7559 277.801 20.726 277.777 20.7021 277.759C20.7379 277.754 20.7678 277.748 20.7977 277.742C21.6463 277.588 22.1064 276.808 22.1064 276.188C22.1064 275.514 21.9391 274.893 21.0905 274.645C20.3316 274.427 16.3337 274.551 16.3337 274.551C16.2918 274.551 16.256 274.586 16.25 274.633V279.319C16.25 279.361 16.2859 279.408 16.3396 279.408H18.1085C18.1504 279.408 18.1922 279.373 18.1922 279.325V277.813C18.1922 277.813 18.1922 277.789 18.2161 277.777C18.234 277.765 18.2519 277.771 18.2699 277.783C18.2758 277.789 19.5069 278.829 20.0029 279.39C20.0148 279.408 20.0388 279.42 20.0627 279.42H22.3634C22.3993 279.42 22.4232 279.402 22.4411 279.373C22.465 279.343 22.459 279.296 22.4291 279.266ZM18.1982 276.838V275.969C18.1982 275.969 18.1982 275.951 18.2101 275.939C18.2161 275.933 18.228 275.928 18.24 275.928C18.479 275.928 18.724 275.916 18.9691 275.916C19.1902 275.916 19.4292 275.922 19.6443 275.928C19.9431 275.933 20.0806 276.069 20.0806 276.353C20.0806 276.713 19.9372 276.867 19.6264 276.879C19.4053 276.885 19.1842 276.891 18.9631 276.891C18.7181 276.891 18.4731 276.891 18.234 276.885C18.228 276.885 18.2161 276.885 18.2041 276.873C18.1982 276.855 18.1982 276.838 18.1982 276.838Z" fill="#989FB5"/>
<path d="M34.2435 270.871H33.7236V271.285H34.2435V270.871Z" fill="#989FB5"/>
<path d="M23.5116 272.342V273.465H22.9319V272.342L22.418 270.877H23.0395L23.2247 271.598L23.416 270.877H24.0375L23.5116 272.342Z" fill="#989FB5"/>
<path d="M24.6647 273.46L24.6408 273.36C24.5512 273.46 24.4496 273.508 24.2524 273.508C24.0373 273.513 23.8819 273.318 23.8879 273.082L23.8938 272.751C23.9058 272.208 24.6468 272.373 24.6468 271.971C24.6468 271.888 24.6408 271.817 24.5452 271.817C24.4496 271.817 24.4257 271.888 24.4257 271.971V272.137H23.8879V271.971C23.8879 271.622 24.1926 271.457 24.5392 271.457C24.9815 271.457 25.1846 271.699 25.1846 271.971V273.472L24.6647 273.46ZM24.6349 272.473C24.5094 272.556 24.4197 272.592 24.4197 272.757V272.999C24.4197 273.118 24.4496 273.159 24.5273 273.159C24.605 273.159 24.6349 273.112 24.6349 272.999V272.473Z" fill="#989FB5"/>
<path d="M26.7394 272.934C26.7394 273.248 26.6856 273.508 26.333 273.508C26.1358 273.508 26.0342 273.448 25.9506 273.33V273.933H25.4307V271.498H25.9506L25.9446 271.699C26.0462 271.516 26.1538 271.457 26.3569 271.457C26.6378 271.457 26.7334 271.723 26.7334 271.977L26.7394 272.934ZM26.1896 272.018C26.1896 271.93 26.1418 271.882 26.0701 271.882C25.9984 271.882 25.9506 271.936 25.9506 272.03V272.958C25.9506 273.047 25.9984 273.094 26.0701 273.094C26.1418 273.094 26.1896 273.047 26.1896 272.952V272.018Z" fill="#989FB5"/>
<path d="M26.9902 273.46V271.498H27.5101V273.46H26.9902Z" fill="#989FB5"/>
<path d="M28.7704 273.459L28.4298 272.549L28.3521 272.691V273.453H27.7725V270.865H28.3581V271.675L28.7286 270.871H29.3083L28.7704 271.958L29.3501 273.459H28.7704Z" fill="#989FB5"/>
<path d="M30.4921 272.036C30.3607 271.989 30.014 271.983 30.014 272.296V273.46H29.4941V271.498H29.9782L29.9722 271.705C30.1515 271.451 30.3427 271.445 30.4861 271.445L30.4921 272.036Z" fill="#989FB5"/>
<path d="M31.9431 272.97C31.9431 273.36 31.6683 273.513 31.2977 273.513C30.9571 273.513 30.6523 273.348 30.6523 272.964V272.048C30.6523 271.676 30.8794 271.463 31.2977 271.463C31.6384 271.463 31.9431 271.599 31.9431 272.048V272.562H31.1842V273.035C31.1842 273.117 31.2201 273.159 31.2977 273.159C31.3754 273.159 31.4113 273.112 31.4113 273.035V272.745H31.9491L31.9431 272.97ZM31.3993 271.936C31.3993 271.859 31.3635 271.812 31.2918 271.812C31.2141 271.812 31.1782 271.859 31.1782 271.936V272.202H31.4053L31.3993 271.936Z" fill="#989FB5"/>
<path d="M32.9656 273.459V273.258C32.9178 273.43 32.7564 273.501 32.5592 273.501C32.2425 273.501 32.1768 273.235 32.1768 272.987V272.035C32.1768 271.722 32.2544 271.45 32.5712 271.45C32.7564 271.45 32.8998 271.533 32.9596 271.627V270.871H33.4795V273.459H32.9656ZM32.9656 272C32.9656 271.911 32.9178 271.864 32.8461 271.864C32.7744 271.864 32.7265 271.911 32.7265 272L32.7325 272.933C32.7325 273.022 32.7803 273.069 32.852 273.069C32.9238 273.069 32.9716 273.016 32.9716 272.928L32.9656 272Z" fill="#989FB5"/>
<path d="M33.7236 273.466V271.504H34.2435V273.466H33.7236Z" fill="#989FB5"/>
<path d="M22.215 271.806C21.8803 270.855 20.9242 270.801 20.8226 270.801C20.3923 270.796 19.9202 270.937 19.5617 271.286C19.4183 271.416 19.3107 271.564 19.2031 271.723C19.0956 271.564 18.988 271.41 18.8446 271.286C18.486 270.937 18.0079 270.79 17.5836 270.801C17.488 270.801 16.5259 270.855 16.1912 271.806C16.0717 272.149 16.1016 272.586 16.2749 272.911C16.4482 273.283 16.8725 273.591 17.3147 273.561C17.6374 273.555 17.99 273.348 18.1215 273.023C18.229 272.728 18.1992 272.421 17.9482 272.166C17.9541 272.231 17.9601 272.32 17.8944 272.403C17.7928 272.545 17.6314 272.574 17.4641 272.515C17.3147 272.45 17.2609 272.344 17.2789 272.208C17.2908 272.09 17.3864 272.001 17.482 271.954C17.6792 271.871 17.8585 271.912 18.0318 272.078C18.3187 272.397 18.3545 272.876 18.492 273.242C18.5876 273.543 18.743 273.803 19.0776 273.88C19.1195 273.892 19.1613 273.892 19.2031 273.892C19.2449 273.892 19.2868 273.886 19.3286 273.88C19.6633 273.803 19.8186 273.543 19.9143 273.242C20.0517 272.876 20.0816 272.397 20.3684 272.078C20.5417 271.912 20.721 271.871 20.9182 271.954C21.0198 272.001 21.1154 272.09 21.1214 272.208C21.1333 272.344 21.0796 272.45 20.9361 272.515C20.7688 272.574 20.6075 272.539 20.5059 272.403C20.4401 272.32 20.4461 272.231 20.4521 272.166C20.2011 272.421 20.1652 272.728 20.2788 273.023C20.4103 273.348 20.7628 273.555 21.0855 273.561C21.5278 273.591 21.9521 273.289 22.1313 272.911C22.3106 272.592 22.3345 272.149 22.215 271.806ZM21.5397 272.941C21.3365 273.118 21.0676 273.171 20.8465 273.071C20.715 273.012 20.6194 272.893 20.5895 272.775C20.7748 272.958 21.1094 273.047 21.4142 272.734C21.4142 272.734 21.7011 272.474 21.5397 271.977C21.462 271.735 21.1573 271.528 20.9063 271.505C20.5298 271.446 20.1772 271.57 19.9322 271.912C19.6453 272.356 19.6035 272.846 19.3943 273.337C19.3585 273.419 19.2868 273.455 19.2091 273.449C19.1374 273.455 19.0597 273.419 19.0238 273.337C18.8147 272.846 18.7788 272.356 18.486 271.912C18.241 271.57 17.8884 271.446 17.5119 271.505C17.2609 271.528 16.9562 271.735 16.8785 271.977C16.7171 272.474 17.004 272.734 17.004 272.734C17.3087 273.053 17.6434 272.958 17.8286 272.775C17.7988 272.893 17.7032 273.006 17.5717 273.071C17.3506 273.171 17.0817 273.118 16.8785 272.941C16.5797 272.645 16.5319 272.267 16.6514 271.918C16.7948 271.493 17.2311 271.286 17.5717 271.256C17.978 271.221 18.5398 271.469 18.7669 271.889C18.8207 271.983 18.9282 272.237 18.9282 272.237H19.2151H19.5019C19.5019 272.237 19.6095 271.983 19.6633 271.889C19.8904 271.469 20.4521 271.221 20.8585 271.256C21.2051 271.286 21.6353 271.493 21.7788 271.918C21.8863 272.273 21.8445 272.651 21.5397 272.941Z" fill="#989FB5"/>
</g>
<defs>
<clipPath id="clip0_880_7141">
<rect width="21.1587" height="21.1587" fill="white" transform="translate(1.0293 228.152) rotate(0.0783239)"/>
</clipPath>
<clipPath id="clip1_880_7141">
<rect width="28.9807" height="8.7339" fill="white" transform="translate(49.0361 270.799)"/>
</clipPath>
<clipPath id="clip2_880_7141">
<rect width="53.4515" height="8.7339" fill="white" transform="translate(1 288.266)"/>
</clipPath>
<clipPath id="clip3_880_7141">
<rect width="20.743" height="13.1008" fill="white" transform="translate(118.362 283.9)"/>
</clipPath>
<clipPath id="clip4_880_7141">
<rect width="33.298" height="8.7339" fill="white" transform="translate(1 270.799)"/>
</clipPath>
</defs>
</svg>
