<svg width="26" height="26" viewBox="0 0 26 26" fill="none" xmlns="http://www.w3.org/2000/svg">
<path d="M15.4615 24.4999H10.641C6.0962 24.4999 3.82379 24.4999 2.4119 23.088C1 21.6761 1 19.4037 1 14.8589V12.4486C1 7.90382 1 5.63141 2.4119 4.21951C3.82379 2.80762 6.0962 2.80762 10.641 2.80762H15.4615C20.0064 2.80762 22.2788 2.80762 23.6907 4.21951C25.1026 5.63141 25.1026 7.90382 25.1026 12.4486V14.8589C25.1026 19.4037 25.1026 21.6761 23.6907 23.088C22.9035 23.8752 21.8489 24.2235 20.2821 24.3776" stroke="#1C274C" stroke-width="1.5" stroke-linecap="round"/>
<path d="M7.02734 2.80769V1" stroke="#1C274C" stroke-width="1.5" stroke-linecap="round"/>
<path d="M19.0781 2.80769V1" stroke="#1C274C" stroke-width="1.5" stroke-linecap="round"/>
<path d="M24.5 8.83325H18.625H11.5449M1 8.83325H5.66987" stroke="#1C274C" stroke-width="1.5" stroke-linecap="round"/>
<path d="M20.2814 18.4744C20.2814 19.1399 19.7418 19.6795 19.0762 19.6795C18.4106 19.6795 17.8711 19.1399 17.8711 18.4744C17.8711 17.8088 18.4106 17.2692 19.0762 17.2692C19.7418 17.2692 20.2814 17.8088 20.2814 18.4744Z" fill="#1C274C"/>
<path d="M20.2814 13.6539C20.2814 14.3194 19.7418 14.859 19.0762 14.859C18.4106 14.859 17.8711 14.3194 17.8711 13.6539C17.8711 12.9883 18.4106 12.4487 19.0762 12.4487C19.7418 12.4487 20.2814 12.9883 20.2814 13.6539Z" fill="#1C274C"/>
<path d="M14.2579 18.4744C14.2579 19.1399 13.7184 19.6795 13.0528 19.6795C12.3872 19.6795 11.8477 19.1399 11.8477 18.4744C11.8477 17.8088 12.3872 17.2692 13.0528 17.2692C13.7184 17.2692 14.2579 17.8088 14.2579 18.4744Z" fill="#1C274C"/>
<path d="M14.2579 13.6539C14.2579 14.3194 13.7184 14.859 13.0528 14.859C12.3872 14.859 11.8477 14.3194 11.8477 13.6539C11.8477 12.9883 12.3872 12.4487 13.0528 12.4487C13.7184 12.4487 14.2579 12.9883 14.2579 13.6539Z" fill="#1C274C"/>
<path d="M8.23057 18.4744C8.23057 19.1399 7.69101 19.6795 7.02544 19.6795C6.35987 19.6795 5.82031 19.1399 5.82031 18.4744C5.82031 17.8088 6.35987 17.2692 7.02544 17.2692C7.69101 17.2692 8.23057 17.8088 8.23057 18.4744Z" fill="#1C274C"/>
<path d="M8.23057 13.6539C8.23057 14.3194 7.69101 14.859 7.02544 14.859C6.35987 14.859 5.82031 14.3194 5.82031 13.6539C5.82031 12.9883 6.35987 12.4487 7.02544 12.4487C7.69101 12.4487 8.23057 12.9883 8.23057 13.6539Z" fill="#1C274C"/>
</svg>
