<svg width="256" height="256" viewBox="0 0 256 256" fill="none" xmlns="http://www.w3.org/2000/svg">
    <circle cx="128" cy="128" r="128" fill="#F4F4F4" fill-opacity=".5"/>
    <circle cx="128" cy="128" r="108" fill="#F4F4F4"/>
    <circle cx="128" cy="128" r="91" fill="#F5841F"/>
    <path d="M161.754 99.277a21.307 21.307 0 0 0-6.915-4.646 21.224 21.224 0 0 0-16.317 0 21.322 21.322 0 0 0-6.916 4.646l-4.107 4.128-4.108-4.128a21.262 21.262 0 0 0-15.073-6.275 21.265 21.265 0 0 0-15.074 6.275A21.48 21.48 0 0 0 87 114.426a21.475 21.475 0 0 0 6.244 15.148l4.107 4.128L127.5 164l30.148-30.298 4.107-4.128a21.433 21.433 0 0 0 4.623-6.949 21.53 21.53 0 0 0 0-16.398 21.439 21.439 0 0 0-4.623-6.95z" fill="#fff"/>
</svg>
