<svg width="611" height="465" viewBox="0 0 611 465" fill="none" xmlns="http://www.w3.org/2000/svg">
    <g clip-path="url(#wj02fec1qa)" style="mix-blend-mode:multiply">
        <path d="M859.353-110.336v53.416l-1.637.8-24.89 12.15-26.527 12.957-33.588-16.4-17.83-8.707-1.637-.8v-53.416l-1.647-.801-1.637.801v53.416l-1.647.8-24.88 12.15-26.537 12.957-33.578-16.4-17.84-8.707-1.637-.8v-53.416l-1.647-.801-1.637.801v53.416l-1.637.8-24.89 12.15-26.528 12.957-33.587-16.4-17.83-8.707-1.647-.8v-53.416l-1.637-.801-1.647.801h.01v9.7h-.01v43.716l-1.637.8-24.89 12.15L478.1-31.014l-33.588-16.4-17.83-8.707-1.637-.8v-53.416l-1.647-.801-1.637.801v53.416l-1.647.8-24.88 12.15-26.537 12.957-33.578-16.4-17.84-8.707-1.637-.8v-53.416l-1.637-.801-1.647.801v53.416l-1.637.8-24.89 12.15-26.528 12.957-33.587-16.4-17.83-8.707-1.647-.8v-53.416l-1.637-.801-1.647.801v53.416l-1.637.8-24.89 12.15L149.9-31.014l-33.587-16.4-17.83-8.707-1.647-.8v-53.416l-1.637-.801-1.637.801v53.416l-1.647.8-24.89 12.15-26.527 12.957-33.578-16.4-17.84-8.707-1.637-.8v-53.416l-1.647-.801-1.637.801v53.416l-1.637.8-24.89 12.15-26.528 12.957-33.587-16.4-17.84-8.707-1.637-.8v-53.416l-1.637-.801-1.647.801v53.416l-1.637.8-24.89 12.15-26.528 12.957-33.587-16.4-17.83-8.707-1.647-.8v-53.416l-1.637-.801V-54.52l44.622 21.786 8.433 4.122v53.416l1.646.8 1.638-.8v-53.416l26.527-12.95 26.537-12.958 44.613 21.786 8.441 4.122v53.416l1.647.8 1.638-.8v-53.416l26.527-12.95 26.527-12.958L30.42-32.733l8.441 4.122v53.416l1.638.8 1.646-.8v-53.416l26.528-12.95L95.199-54.52l44.622 21.786 8.442 4.122v53.416l1.637.8 1.638-.8v-53.416l26.537-12.95 26.527-12.958 44.613 21.786 8.442 4.122v53.416l1.646.8 1.638-.8v-53.416l26.527-12.95 26.527-12.958h.01l44.613 21.786 8.441 4.122v53.416l1.638.8 1.646-.8v-53.416l26.528-12.95 26.527-12.958 44.622 21.786 8.442 4.122v53.416l1.638.8 1.646-.8v-53.416l26.528-12.95 26.527-12.958 44.622 21.786 8.433 4.122v53.416l1.646.8 1.638-.8v-53.416l26.527-12.95 26.527-12.958 44.623 21.786 8.442 4.122v53.416l1.637.8 1.646-.8v-53.416l26.528-12.95 26.527-12.958 44.623 21.786 8.441 4.122v53.416l1.638.8 1.637-.8v-53.416l26.537-12.95L861-54.52V-111.137l-1.647.801z" fill="#B6BFDA" fill-opacity=".15"/>
        <path d="M850.24 1.77v43.842l-10.761 5.265-33.18 16.254-33.181-16.254-10.76-5.265V-7.957l-10.761-5.266-10.751 5.266V45.61l-10.76 5.266-33.19 16.254-33.181-16.254-10.76-5.265V-7.957l-10.761-5.266-10.751 5.266V45.61l-10.76 5.266-33.181 16.254-33.19-16.254-10.751-5.265V-7.957l-10.76-5.266-10.761 5.266V45.61l-10.76 5.266h.009L478.1 67.131l-33.181-16.254-10.76-5.265V-7.957l-10.761-5.266-10.76 5.266V45.61l-10.751 5.266-33.19 16.254-33.181-16.254-10.76-5.265V-7.957l-10.751-5.266-10.761 5.266V45.61l-10.76 5.266-33.181 16.254-33.19-16.254-10.76-5.265V-7.957l-10.751-5.266-10.761 5.266V45.61l-10.76 5.266L149.9 67.131l-33.189-16.254-10.751-5.265V-7.957L95.2-13.223 84.438-7.957V45.61l-10.751 5.266-33.19 16.254-33.18-16.254-10.761-5.265V-7.957l-10.76-5.266-10.752 5.266V45.61l-10.76 5.266-33.18 16.254-33.191-16.254-10.76-5.265V-7.957l-10.751-5.266-10.761 5.266V45.61l-10.76 5.266-33.181 16.254-33.19-16.254-10.751-5.265V-7.957L-233-13.223v3.21l7.476 3.661V47.217l7.477 3.66 39.748 19.464 39.749-19.464 7.476-3.66V-6.352l7.477-3.66 7.476 3.66V47.217l7.477 3.66 39.748 19.464 39.749-19.464 7.467-3.66V-6.352l7.476-3.66 7.477 3.66V47.217l7.476 3.66 39.749 19.464 39.748-19.464 7.477-3.66V-6.352l7.476-3.66 7.477 3.66V47.217l7.476 3.66L149.9 70.341l39.749-19.464 7.476-3.66V-6.352l7.477-3.66 7.476 3.66V47.217l7.477 3.66 39.748 19.464 39.749-19.464 7.476-3.66V-6.352l7.477-3.66 7.467 3.66V47.217l7.476 3.66 39.749 19.464 39.748-19.464 7.477-3.66V-6.352l7.476-3.66 7.477 3.66V47.217l7.476 3.66L478.1 70.341l39.748-19.464 7.476-3.66V-6.352l7.477-3.66 7.476 3.66V47.217l7.477 3.66 39.748 19.464 39.749-19.464 7.476-3.66V-6.352l7.467-3.66 7.477 3.66V47.217l7.476 3.66 39.749 19.464 39.748-19.464 7.477-3.66V-6.352l7.476-3.66 7.477 3.66V47.217l7.476 3.66 39.749 19.464 39.748-19.464 7.476-3.66V-6.352l7.477-3.66v-3.21l-10.76 5.265V1.77z" fill="#B6BFDA" fill-opacity=".15"/>
        <path d="M841.126-2.398V40.996l-19.874 9.628-14.953 7.246-14.953-7.246-19.875-9.629v-53.022l-19.874-9.637-19.874 9.637v53.023l-19.874 9.628-14.953 7.246-14.944-7.246-19.874-9.629v-53.022l-19.884-9.637-19.874 9.637v53.023l-19.874 9.628-14.944 7.246-14.953-7.246-19.874-9.629v-53.022l-19.874-9.637-19.874 9.637v53.023l-19.874 9.628L478.1 57.87l-14.953-7.246-19.875-9.629v-53.022l-19.874-9.637-19.874 9.637v53.023l-19.874 9.628-14.953 7.246-14.944-7.246-19.874-9.629v-53.022l-19.874-9.637-19.884 9.637v53.023l-19.874 9.628-14.944 7.246-14.953-7.246-19.874-9.629v-53.022l-19.874-9.637-19.874 9.637v53.023l-19.875 9.628L149.9 57.87l-14.953-7.246-19.874-9.629v-53.022l-19.874-9.637-19.874 9.637v53.023L55.45 50.623 40.498 57.87l-14.953-7.246L5.67 40.995v-53.022l-19.874-9.637-19.874 9.637v53.023l-19.874 9.628-14.944 7.246-14.953-7.246-19.874-9.629v-53.022l-19.874-9.637-19.874 9.637v53.023l-19.875 9.628-14.953 7.246-14.953-7.246-19.874-9.629v-53.022L-233-21.664v3.186l16.59 8.04V42.584l16.59 8.04 21.521 10.432 21.512-10.432 16.59-8.04v-53.022l16.6-8.04 16.59 8.04V42.584l16.59 8.04 21.521 10.432 21.512-10.432 16.59-8.04v-53.022l16.59-8.04 16.6 8.04V42.584l16.59 8.04 21.512 10.432 21.52-10.432 16.59-8.04v-53.022l16.591-8.04 16.59 8.04V42.584l16.6 8.04L149.9 61.056l21.512-10.432 16.6-8.04v-53.022l16.59-8.04 16.59 8.04V42.584l16.59 8.04 21.521 10.432 21.512-10.432 16.59-8.04v-53.022l16.6-8.04 16.59 8.04V42.584l16.59 8.04 21.512 10.432 21.521-10.432 16.59-8.04v-53.022l16.59-8.04 16.59 8.04V42.584l16.6 8.04L478.1 61.056l21.511-10.432 16.6-8.04v-53.022l16.59-8.04 16.59 8.04V42.584l16.59 8.04 21.521 10.432 21.512-10.432 16.59-8.04v-53.022l16.59-8.04 16.6 8.04V42.584l16.59 8.04 21.512 10.432 21.521-10.432 16.59-8.04v-53.022l16.59-8.04 16.59 8.04V42.584l16.6 8.04 21.512 10.432 21.511-10.432 16.6-8.04v-53.022l16.59-8.04v-3.186l-19.874 9.637v9.629z" fill="#B6BFDA" fill-opacity=".15"/>
        <path d="M832.012-16.75V36.819l-25.713 12.585-25.704-12.586V-16.75l-28.998-14.2-28.988 14.2V36.819l-25.713 12.585-25.704-12.586V-16.75l-28.998-14.2-28.988 14.2V36.819l-25.704 12.585-25.713-12.586V-16.75l-28.988-14.2-28.998 14.2V36.819L478.1 49.404l-25.704-12.586V-16.75l-28.998-14.2-28.988 14.2V36.819l-25.713 12.585-25.704-12.586V-16.75l-28.988-14.2h-.01l-28.988 14.2V36.819l-25.704 12.585-25.713-12.586V-16.75l-28.988-14.2-28.998 14.2V36.819L149.9 49.404l-25.713-12.586V-16.75l-28.988-14.2-28.988 14.2V36.819L40.498 49.404 14.794 36.818V-16.75l-28.998-14.2-28.988 14.2V36.819l-25.704 12.585-25.713-12.586V-16.75l-28.988-14.2-28.998 14.2V36.819l-25.704 12.585-25.713-12.586V-16.75L-233-30.95v3.211l25.704 12.594v53.569l25.713 12.585 3.284 1.606 3.284-1.606 25.704-12.585V-15.145l25.714-12.594 25.704 12.594v53.569l25.713 12.585 3.284 1.606 3.275-1.606 25.713-12.585V-15.145l25.704-12.594L11.51-15.145v53.569l25.704 12.585 3.284 1.606 3.284-1.606 25.713-12.585V-15.145L95.2-27.74l25.713 12.594v53.569l25.704 12.585 3.284 1.606 3.284-1.606 25.704-12.585V-15.145l25.714-12.594 25.704 12.594v53.569l25.713 12.585 3.284 1.606 3.275-1.606 25.713-12.585V-15.145l25.714-12.594 25.704 12.594v53.569l25.713 12.585 3.275 1.606 3.284-1.606 25.713-12.585V-15.145l25.704-12.594 25.714 12.594v53.569l25.704 12.585 3.284 1.606 3.283-1.606 25.705-12.585V-15.145l25.713-12.594 25.704 12.594v53.569l25.713 12.585 3.284 1.606 3.284-1.606 25.704-12.585V-15.145l25.704-12.594 25.714 12.594v53.569l25.713 12.585 3.275 1.606 3.284-1.606 25.713-12.585V-15.145l25.704-12.594 25.714 12.594v53.569l25.704 12.585 3.284 1.606 3.284-1.606 25.704-12.585V-15.145L861-27.74v-3.21L832.012-16.75z" fill="#B6BFDA" fill-opacity=".15"/>
        <path d="M822.889-20.917V32.105l-16.59 8.048-16.591-8.048V-20.917L751.597-39.39v.008-.008l-38.102 18.472V32.105l-16.599 8.048-16.591-8.048V-20.917L642.194-39.39v.008-.008l-38.101 18.472V32.105l-16.591 8.048-16.59-8.048V-20.917L532.801-39.39v.008-.008L494.69-20.917V32.105l-16.59 8.048-16.591-8.048V-20.917L423.398-39.39v.008-.008l-38.102 18.472V32.105l-16.599 8.048-16.591-8.048V-20.917L314.005-39.39v.008l-.01-.008-38.101 18.472V32.105l-16.591 8.048-16.599-8.048V-20.917L204.602-39.39v.008-.008l-38.111 18.472V32.105L149.9 40.153l-16.59-8.048V-20.917L95.2-39.39v.008-.008L57.087-20.917V32.105l-16.59 8.048-16.59-8.048V-20.917L-14.205-39.39v.008-.008l-38.102 18.472V32.105l-16.59 8.048-16.6-8.048V-20.917l-38.101-18.472v.008-.008l-38.111 18.472V32.105l-16.591 8.048-16.59-8.048V-20.917L-233-39.39v3.186l34.827 16.883v53.022l19.874 9.63 19.875-9.63V-19.32l34.827-16.882L-88.77-19.32v53.022l19.874 9.63 19.874-9.63V-19.32l34.818-16.882L20.623-19.32v53.022l19.875 9.63 19.874-9.63V-19.32l34.827-16.882 34.827 16.883v53.022l19.874 9.63 19.875-9.63V-19.32l34.827-16.882 34.827 16.883v53.022l19.874 9.63 19.875-9.63V-19.32l34.827-16.882 34.817 16.883v53.022l19.875 9.63 19.874-9.63V-19.32l34.827-16.882 34.827 16.883v53.022l19.875 9.63 19.874-9.63V-19.32l34.827-16.882 34.827 16.883v53.022l19.874 9.63 19.875-9.63V-19.32l34.817-16.882 34.828 16.883v53.022l19.874 9.63 19.874-9.63V-19.32l34.827-16.882 34.827 16.883v53.022l19.875 9.63 19.874-9.63V-19.32L861-36.203v-3.186l-38.111 18.472z" fill="#B6BFDA" fill-opacity=".15"/>
        <path d="M813.775-15.816v43.828l-7.476 3.66-7.477-3.66v-53.564l-47.225-23.122-47.225 23.122V28.012l-7.476 3.66-7.477-3.66v-53.564l-47.225-23.122-47.215 23.122V28.012l-7.477 3.66-7.476-3.66v-53.564l-47.225-23.122-47.225 23.122V28.012l-7.476 3.66-7.477-3.66v-53.564l-47.225-23.122-47.225 23.122V28.012l-7.476 3.66-7.477-3.66v-53.564l-47.215-23.122-47.225 23.122V28.012l-7.477 3.66-7.476-3.66v-53.564l-47.225-23.122-47.225 23.122V28.012l-7.477 3.66-7.476-3.66v-53.564L95.199-48.674 47.974-25.552V28.012l-7.476 3.66-7.477-3.66v-53.564l-47.225-23.122-47.225 23.122V28.012l-7.467 3.66-7.476-3.66v-53.564l-47.225-23.122-47.225 23.122V28.012l-7.477 3.66-7.476-3.66v-53.564L-233-48.674v3.218l43.941 21.51v53.563l10.76 5.273 10.761-5.273v-53.563l43.941-21.51 43.94 21.51v53.563l10.761 5.273 10.751-5.273v-53.563l43.941-21.51 43.95 21.51v53.563l10.752 5.273 10.76-5.273v-53.563L95.2-45.457l43.941 21.51v53.563l10.76 5.273 10.761-5.273v-53.563l43.941-21.51 43.941 21.51v53.563l10.76 5.273 10.751-5.273v-53.563l43.951-21.51 43.941 21.51v53.563l10.751 5.273 10.76-5.273v-53.563l43.941-21.51 43.941 21.51v53.563L478.1 34.89l10.76-5.273v-53.563l43.941-21.51 43.941 21.51v53.563l10.76 5.273 10.751-5.273v-53.563l43.941-21.51 43.951 21.51v53.563l10.751 5.273 10.76-5.273v-53.563l43.941-21.51 43.941 21.51v53.563l10.761 5.273 10.76-5.273v-53.563L861-45.457v-3.218l-47.225 23.122v9.736z" fill="#B6BFDA" fill-opacity=".15"/>
        <path d="M859.353-3.142v53.086l-1.637.795-24.89 12.083-26.527 12.87-33.588-16.298-17.83-8.655-1.637-.795V-3.142l-1.647-.796-1.637.796v53.086l-1.647.795-24.88 12.083-26.537 12.87-33.578-16.298-17.84-8.655-1.637-.795V-3.142l-1.647-.796-1.637.796v53.086l-1.637.795-24.89 12.083-26.528 12.87-33.587-16.298-17.83-8.655-1.647-.795V-3.142l-1.637-.796-1.647.796h.01v9.64h-.01v43.446l-1.637.795-24.89 12.083-26.527 12.87-33.588-16.298-17.83-8.655-1.637-.795V-3.142l-1.647-.796-1.637.796v53.086l-1.647.795-24.88 12.083-26.537 12.87-33.578-16.298-17.84-8.655-1.637-.795V-3.142l-1.637-.796-1.647.796v53.086l-1.637.795-24.89 12.083-26.528 12.87-33.587-16.298-17.83-8.655-1.647-.795V-3.142l-1.637-.796-1.647.796v53.086l-1.637.795-24.89 12.083-26.528 12.87-33.587-16.298-17.83-8.655-1.647-.795V-3.142L95.2-3.938l-1.637.796v53.086l-1.647.795-24.89 12.083-26.527 12.87L6.92 59.394l-17.84-8.655-1.637-.795V-3.142l-1.647-.796-1.637.796v53.086l-1.637.795-24.89 12.083-26.528 12.87-33.587-16.298-17.84-8.655-1.637-.795V-3.142l-1.637-.796-1.647.796v53.086l-1.637.795-24.89 12.083-26.528 12.87-33.587-16.298-17.83-8.655-1.647-.795V-3.142L-233-3.938V52.33l44.622 21.66 8.433 4.088v53.086l1.646.795 1.638-.795V78.078l26.527-12.87 26.537-12.878 44.613 21.66 8.441 4.088v53.086l1.647.795 1.638-.795V78.078l26.527-12.87 26.527-12.878L30.42 73.99l8.441 4.088v53.086l1.638.795 1.646-.795V78.078l26.528-12.87L95.199 52.33l44.622 21.66 8.442 4.088v53.086l1.637.795 1.638-.795V78.078l26.537-12.87 26.527-12.878 44.613 21.66 8.442 4.088v53.086l1.646.795 1.638-.795V78.078l26.527-12.87 26.527-12.878h.01l44.613 21.66 8.441 4.088v53.086l1.638.795 1.646-.795V78.078l26.528-12.87 26.527-12.878 44.622 21.66 8.442 4.088v53.086l1.638.795 1.646-.795V78.078l26.528-12.87 26.527-12.878 44.622 21.66 8.433 4.088v53.086l1.646.795 1.638-.795V78.078l26.527-12.87 26.527-12.878 44.623 21.66 8.442 4.088v53.086l1.637.795 1.646-.795V78.078l26.528-12.87 26.527-12.878 44.623 21.66 8.441 4.088v53.086l1.638.795 1.637-.795V78.078l26.537-12.87L861 52.33V-3.938l-1.647.796z" fill="#B6BFDA" fill-opacity=".15"/>
        <path d="M850.24 108.817v43.398l-10.761 5.212-33.18 16.089-33.181-16.089-10.76-5.212V99.187l-10.761-5.212-10.751 5.212V152.215l-10.76 5.212-33.19 16.089-33.181-16.089-10.76-5.212V99.187l-10.761-5.212-10.751 5.212V152.215l-10.76 5.212-33.181 16.089-33.19-16.089-10.751-5.212V99.187l-10.76-5.212-10.761 5.212V152.215l-10.76 5.212h.009L478.1 173.516l-33.181-16.089-10.76-5.212V99.187l-10.761-5.212-10.76 5.212V152.215l-10.751 5.212-33.19 16.089-33.181-16.089-10.76-5.212V99.187l-10.751-5.212-10.761 5.212V152.215l-10.76 5.212-33.181 16.089-33.19-16.089-10.76-5.212V99.187l-10.751-5.212-10.761 5.212V152.215l-10.76 5.212-33.181 16.089-33.189-16.089-10.751-5.212V99.187L95.2 93.975l-10.761 5.212V152.215l-10.751 5.212-33.19 16.089-33.18-16.089-10.761-5.212V99.187l-10.76-5.212-10.752 5.212V152.215l-10.76 5.212-33.18 16.089-33.191-16.089-10.76-5.212V99.187l-10.751-5.212-10.761 5.212V152.215l-10.76 5.212-33.181 16.089-33.19-16.089-10.751-5.212V99.187L-233 93.975v3.178l7.476 3.623v53.028l7.477 3.623 39.748 19.267 39.749-19.267 7.476-3.623V100.776l7.477-3.623 7.476 3.623v53.028l7.477 3.623 39.748 19.267 39.749-19.267 7.467-3.623V100.776l7.476-3.623 7.477 3.623v53.028l7.476 3.623 39.749 19.267 39.748-19.267 7.477-3.623V100.776l7.476-3.623 7.477 3.623v53.028l7.476 3.623 39.748 19.267 39.749-19.267 7.476-3.623V100.776l7.477-3.623 7.476 3.623v53.028l7.477 3.623 39.748 19.267 39.749-19.267 7.476-3.623V100.776l7.477-3.623 7.467 3.623v53.028l7.476 3.623 39.749 19.267 39.748-19.267 7.477-3.623V100.776l7.476-3.623 7.477 3.623v53.028l7.476 3.623 39.749 19.267 39.748-19.267 7.476-3.623V100.776l7.477-3.623 7.476 3.623v53.028l7.477 3.623 39.748 19.267 39.749-19.267 7.476-3.623V100.776l7.467-3.623 7.477 3.623v53.028l7.476 3.623 39.749 19.267 39.748-19.267 7.477-3.623V100.776l7.476-3.623 7.477 3.623v53.028l7.476 3.623 39.749 19.267 39.748-19.267 7.476-3.623V100.776L861 97.153v-3.178l-10.76 5.212v9.63z" fill="#B6BFDA" fill-opacity=".15"/>
        <path d="M841.126 104.152V147.988l-19.874 9.728-14.953 7.319-14.953-7.319-19.875-9.728V94.424l-19.874-9.735-19.874 9.736v53.563l-19.874 9.728-14.953 7.319-14.944-7.319-19.874-9.728V94.424l-19.884-9.735-19.874 9.736v53.563l-19.874 9.728-14.944 7.319-14.953-7.319-19.874-9.728V94.424l-19.874-9.735-19.874 9.736v53.563l-19.874 9.728-14.953 7.319-14.953-7.319-19.875-9.728V94.424l-19.874-9.735-19.874 9.736v53.563l-19.874 9.728-14.953 7.319-14.944-7.319-19.874-9.728V94.424l-19.874-9.735-19.884 9.736v53.563l-19.874 9.728-14.944 7.319-14.953-7.319-19.874-9.728V94.424l-19.874-9.735-19.874 9.736v53.563l-19.875 9.728-14.953 7.319-14.953-7.319-19.874-9.728V94.424L95.199 84.69l-19.874 9.736v53.563l-19.874 9.728-14.953 7.319-14.953-7.319-19.875-9.728V94.424l-19.874-9.735-19.874 9.736v53.563l-19.874 9.728-14.944 7.319-14.953-7.319-19.874-9.728V94.424l-19.874-9.735-19.874 9.736v53.563l-19.875 9.728-14.953 7.319-14.953-7.319-19.874-9.728V94.424L-233 84.69v3.219l16.59 8.122v53.563l16.59 8.123 21.521 10.537 21.512-10.537 16.59-8.123V96.03l16.6-8.122 16.59 8.122v53.563l16.59 8.123 21.521 10.537 21.512-10.537 16.59-8.123V96.03l16.59-8.122 16.6 8.122v53.563l16.59 8.123 21.512 10.537 21.52-10.537 16.59-8.123V96.03L95.2 87.908l16.59 8.122v53.563l16.6 8.123 21.511 10.537 21.512-10.537 16.6-8.123V96.03l16.59-8.122 16.59 8.122v53.563l16.59 8.123 21.521 10.537 21.512-10.537 16.59-8.123V96.03l16.6-8.122 16.59 8.122v53.563l16.59 8.123 21.512 10.537 21.521-10.537 16.59-8.123V96.03l16.59-8.122 16.59 8.122v53.563l16.6 8.123 21.512 10.537 21.511-10.537 16.6-8.123V96.03l16.59-8.122 16.59 8.122v53.563l16.59 8.123 21.521 10.537 21.512-10.537 16.59-8.123V96.03l16.59-8.122 16.6 8.122v53.563l16.59 8.123 21.512 10.537 21.521-10.537 16.59-8.123V96.03l16.59-8.122 16.59 8.122v53.563l16.6 8.123 21.512 10.537 21.511-10.537 16.6-8.123V96.03L861 87.908v-3.219l-19.874 9.736v9.727z" fill="#B6BFDA" fill-opacity=".15"/>
        <path d="M832.012 90.304V143.327l-25.713 12.457-25.704-12.457V90.304L751.597 76.25l-28.988 14.054V143.327l-25.713 12.457-25.704-12.457V90.304L642.194 76.25l-28.988 14.054V143.327l-25.704 12.457-25.713-12.457V90.304L532.801 76.25l-28.998 14.054V143.327L478.1 155.784l-25.704-12.457V90.304L423.398 76.25 394.41 90.304V143.327l-25.713 12.457-25.704-12.457V90.304L314.005 76.25h-.01l-28.988 14.054V143.327l-25.704 12.457-25.713-12.457V90.304L204.602 76.25l-28.998 14.054V143.327L149.9 155.784l-25.713-12.457V90.304L95.199 76.25 66.211 90.304V143.327l-25.713 12.457-25.704-12.457V90.304L-14.204 76.25l-28.988 14.054V143.327l-25.704 12.457-25.713-12.457V90.304l-28.988-14.054-28.998 14.054V143.327l-25.704 12.457-25.713-12.457V90.304L-233 76.25v3.178l25.704 12.465v53.023l25.713 12.457 3.284 1.597 3.284-1.597 25.704-12.457V91.893l25.714-12.465 25.704 12.465v53.023l25.713 12.457 3.284 1.597 3.275-1.597 25.713-12.457V91.893l25.704-12.465L11.51 91.893v53.023l25.704 12.457 3.284 1.597 3.284-1.597 25.713-12.457V91.893L95.2 79.428l25.713 12.465v53.023l25.704 12.457 3.284 1.597 3.284-1.597 25.704-12.457V91.893l25.714-12.465 25.704 12.465v53.023l25.713 12.457 3.284 1.597 3.275-1.597 25.713-12.457V91.893l25.714-12.465 25.704 12.465v53.023l25.713 12.457 3.275 1.597 3.284-1.597 25.713-12.457V91.893l25.704-12.465 25.714 12.465v53.023l25.704 12.457 3.284 1.597 3.283-1.597 25.705-12.457V91.893l25.713-12.465 25.704 12.465v53.023l25.713 12.457 3.284 1.597 3.284-1.597 25.704-12.457V91.893l25.704-12.465 25.714 12.465v53.023l25.713 12.457 3.275 1.597 3.284-1.597 25.713-12.457V91.893l25.704-12.465 25.714 12.465v53.023l25.704 12.457 3.284 1.597 3.284-1.597 25.704-12.457V91.893L861 79.428V76.25l-28.988 14.054z" fill="#B6BFDA" fill-opacity=".15"/>
        <path d="M822.889 85.618v53.569l-16.59 8.131-16.591-8.131V85.619l-38.111-18.654-38.102 18.653v53.569l-16.599 8.131-16.591-8.131V85.619l-38.111-18.654-38.101 18.653v53.569l-16.591 8.131-16.59-8.131V85.619l-38.111-18.654-38.111 18.653v53.569l-16.59 8.131-16.591-8.131V85.619l-38.111-18.654-38.102 18.653v53.569l-16.599 8.131-16.591-8.131V85.619l-38.101-18.654h-.01l-38.101 18.653v53.569l-16.591 8.131-16.599-8.131V85.619l-38.102-18.654-38.111 18.653v53.569l-16.591 8.131-16.59-8.131V85.619L95.2 66.964 57.087 85.618v53.569l-16.59 8.131-16.59-8.131V85.619l-38.112-18.654-38.102 18.653v53.569l-16.59 8.131-16.6-8.131V85.619l-38.101-18.654-38.111 18.653v53.569l-16.591 8.131-16.59-8.131V85.619L-233 66.964v3.21l34.827 17.057V140.8l19.874 9.728 19.875-9.728V87.232l34.827-17.057 34.827 17.057V140.8l19.874 9.728 19.874-9.728V87.232l34.818-17.057 34.827 17.057V140.8l19.875 9.728 19.874-9.728V87.232l34.827-17.057 34.827 17.057V140.8l19.874 9.728 19.875-9.728V87.232l34.827-17.057 34.827 17.057V140.8l19.874 9.728 19.875-9.728V87.232l34.827-17.057 34.817 17.057V140.8l19.875 9.728 19.874-9.728V87.232l34.827-17.057 34.827 17.057V140.8l19.875 9.728 19.874-9.728V87.232l34.827-17.057 34.827 17.057V140.8l19.874 9.728 19.875-9.728V87.232l34.817-17.057 34.828 17.057V140.8l19.874 9.728 19.874-9.728V87.232l34.827-17.057 34.827 17.057V140.8l19.875 9.728 19.874-9.728V87.232L861 70.175v-3.21l-38.111 18.653z" fill="#B6BFDA" fill-opacity=".15"/>
        <path d="M813.775 90.537v43.829l-7.476 3.659-7.477-3.659V80.802L751.597 57.68l-47.225 23.122V134.366l-7.476 3.659-7.477-3.659V80.802L642.194 57.68l-47.215 23.122V134.366l-7.477 3.659-7.476-3.659V80.802L532.801 57.68l-47.225 23.122V134.366l-7.476 3.659-7.477-3.659V80.802L423.398 57.68l-47.225 23.122V134.366l-7.476 3.659-7.477-3.659V80.802L314.005 57.68 266.78 80.802V134.366l-7.477 3.659-7.476-3.659V80.802L204.602 57.68l-47.225 23.122V134.366l-7.477 3.659-7.476-3.659V80.802L95.199 57.68 47.974 80.802V134.366l-7.476 3.659-7.477-3.659V80.802L-14.204 57.68l-47.225 23.122V134.366l-7.467 3.659-7.476-3.659V80.802l-47.225-23.122-47.225 23.122V134.366l-7.477 3.659-7.476-3.659V80.802L-233 57.68v3.218l43.941 21.517V135.971l10.76 5.273 10.761-5.273V82.415l43.941-21.517 43.94 21.517V135.971l10.761 5.273 10.751-5.273V82.415l43.941-21.517 43.95 21.517V135.971l10.752 5.273 10.76-5.273V82.415L95.2 60.898l43.941 21.517V135.971l10.76 5.273 10.761-5.273V82.415l43.941-21.517 43.941 21.517V135.971l10.76 5.273 10.751-5.273V82.415l43.951-21.517 43.941 21.517V135.971l10.751 5.273 10.76-5.273V82.415l43.941-21.517 43.941 21.517V135.971l10.761 5.273 10.76-5.273V82.415l43.941-21.517 43.941 21.517V135.971l10.76 5.273 10.751-5.273V82.415l43.941-21.517 43.951 21.517V135.971l10.751 5.273 10.76-5.273V82.415l43.941-21.517 43.941 21.517V135.971l10.761 5.273 10.76-5.273V82.415L861 60.898V57.68l-47.225 23.122v9.735z" fill="#B6BFDA" fill-opacity=".15"/>
        <path d="M859.353 103.216v53.413l-1.637.8-24.89 12.157-26.527 12.949-33.588-16.398-17.83-8.708-1.637-.8v-53.413l-1.647-.8-1.637.8v53.413l-1.647.8-24.88 12.157-26.537 12.949-33.578-16.398-17.84-8.708-1.637-.8v-53.413l-1.647-.8-1.637.8v53.413l-1.637.8-24.89 12.157-26.528 12.949-33.587-16.398-17.83-8.708-1.647-.8v-53.413l-1.637-.8-1.647.8h.01v9.708h-.01v43.705l-1.637.8-24.89 12.157-26.527 12.949-33.588-16.398-17.83-8.708-1.637-.8v-53.413l-1.647-.8-1.637.8v53.413l-1.647.8-24.88 12.157-26.537 12.949-33.578-16.398-17.84-8.708-1.637-.8v-53.413l-1.637-.8-1.647.8v53.413l-1.637.8-24.89 12.157-26.528 12.949-33.587-16.398-17.83-8.708-1.647-.8v-53.413l-1.637-.8-1.647.8v53.413l-1.637.8-24.89 12.157-26.528 12.949-33.587-16.398-17.83-8.708-1.647-.8v-53.413l-1.637-.8-1.637.8v53.413l-1.647.8-24.89 12.157-26.527 12.949L6.92 166.137l-17.84-8.708-1.637-.8v-53.413l-1.647-.8-1.637.8v53.413l-1.637.8-24.89 12.157-26.528 12.949-33.587-16.398-17.84-8.708-1.637-.8v-53.413l-1.637-.8-1.647.8v53.413l-1.637.8-24.89 12.157-26.528 12.949-33.587-16.398-17.83-8.708-1.647-.8v-53.413l-1.637-.8v56.622l44.622 21.784 8.433 4.114v53.421l1.646.8 1.638-.8v-53.421l26.527-12.949 26.537-12.949 44.613 21.784 8.441 4.114v53.421l1.647.8 1.638-.8v-53.421l26.527-12.949 26.527-12.949 44.623 21.784 8.441 4.114v53.421l1.638.8 1.646-.8v-53.421l26.528-12.949 26.527-12.949 44.622 21.784 8.442 4.114v53.421l1.637.8 1.638-.8v-53.421l26.537-12.949 26.527-12.949 44.613 21.784 8.442 4.114v53.421l1.646.8 1.638-.8v-53.421l26.527-12.949 26.527-12.949h.01l44.613 21.784 8.441 4.114v53.421l1.638.8 1.646-.8v-53.421l26.528-12.949 26.527-12.949 44.622 21.784 8.442 4.114v53.421l1.638.8 1.646-.8v-53.421l26.528-12.949 26.527-12.949 44.622 21.784 8.433 4.114v53.421l1.646.8 1.638-.8v-53.421l26.527-12.949 26.527-12.949 44.623 21.784 8.442 4.114v53.421l1.637.8 1.646-.8v-53.421l26.528-12.949 26.527-12.949 44.623 21.784 8.441 4.114v53.421l1.638.8 1.637-.8v-53.421l26.537-12.949L861 159.038v-56.622l-1.647.8z" fill="#B6BFDA" fill-opacity=".15"/>
        <path d="M850.24 215.33v43.832l-10.761 5.266-33.18 16.253-33.181-16.253-10.76-5.266V205.594l-10.761-5.266-10.751 5.266v53.568l-10.76 5.266-33.19 16.253-33.181-16.253-10.76-5.266V205.594l-10.761-5.266-10.751 5.266v53.568l-10.76 5.266-33.181 16.253-33.19-16.253-10.751-5.266V205.594l-10.76-5.266-10.761 5.266v53.568l-10.76 5.266h.009L478.1 280.681l-33.181-16.253-10.76-5.266V205.594l-10.761-5.266-10.76 5.266v53.568l-10.751 5.266-33.19 16.253-33.181-16.253-10.76-5.266V205.594l-10.751-5.266-10.761 5.266v53.568l-10.76 5.266-33.181 16.253-33.19-16.253-10.76-5.266V205.594l-10.751-5.266-10.761 5.266v53.568l-10.76 5.266-33.181 16.253-33.189-16.253-10.751-5.266V205.594l-10.76-5.266-10.761 5.266v53.568l-10.751 5.266-33.19 16.253-33.18-16.253-10.761-5.266V205.594l-10.76-5.266-10.752 5.266v53.568l-10.76 5.266-33.18 16.253-33.191-16.253-10.76-5.266V205.594l-10.751-5.266-10.761 5.266v53.568l-10.76 5.266-33.181 16.253-33.19-16.253-10.751-5.266V205.594l-10.76-5.266v3.211l7.476 3.66v53.569l7.477 3.66 39.748 19.464 39.749-19.464 7.476-3.66v-53.569l7.477-3.66 7.476 3.66v53.569l7.477 3.66 39.748 19.464 39.749-19.464 7.467-3.66v-53.569l7.476-3.66 7.477 3.66v53.569l7.476 3.66 39.749 19.464 39.748-19.464 7.477-3.66v-53.569l7.476-3.66 7.477 3.66v53.569l7.476 3.66 39.748 19.464 39.749-19.464 7.476-3.66v-53.569l7.477-3.66 7.476 3.66v53.569l7.477 3.66 39.748 19.464 39.749-19.464 7.476-3.66v-53.569l7.477-3.66 7.467 3.66v53.569l7.476 3.66 39.749 19.464 39.748-19.464 7.477-3.66v-53.569l7.476-3.66 7.477 3.66v53.569l7.476 3.66 39.749 19.464 39.748-19.464 7.476-3.66v-53.569l7.477-3.66 7.476 3.66v53.569l7.477 3.66 39.748 19.464 39.749-19.464 7.476-3.66v-53.569l7.467-3.66 7.477 3.66v53.569l7.476 3.66 39.749 19.464 39.748-19.464 7.477-3.66v-53.569l7.476-3.66 7.477 3.66v53.569l7.476 3.66 39.749 19.464 39.748-19.464 7.476-3.66v-53.569l7.477-3.66v-3.211l-10.76 5.266v9.736z" fill="#B6BFDA" fill-opacity=".15"/>
        <path d="M841.126 210.501V254.342l-19.874 9.728-14.953 7.32-14.953-7.32-19.875-9.728V200.773l-19.874-9.728-19.874 9.728V254.342l-19.874 9.728-14.953 7.32-14.944-7.32-19.874-9.728V200.773l-19.884-9.728-19.874 9.728V254.342l-19.874 9.728-14.944 7.32-14.953-7.32-19.874-9.728V200.773l-19.874-9.728-19.874 9.728V254.342l-19.874 9.728-14.953 7.32-14.953-7.32-19.875-9.728V200.773l-19.874-9.728-19.874 9.728V254.342l-19.874 9.728-14.953 7.32-14.944-7.32-19.874-9.728V200.773l-19.874-9.728-19.884 9.728V254.342l-19.874 9.728-14.944 7.32-14.953-7.32-19.874-9.728V200.773l-19.874-9.728-19.874 9.728V254.342l-19.875 9.728-14.953 7.32-14.953-7.32-19.874-9.728V200.773l-19.874-9.728-19.874 9.728V254.342L55.45 264.07l-14.953 7.32-14.953-7.32-19.875-9.728V200.773l-19.874-9.728-19.874 9.728V254.342l-19.874 9.728-14.944 7.32-14.953-7.32-19.874-9.728V200.773l-19.874-9.728-19.874 9.728V254.342l-19.875 9.728-14.953 7.32-14.953-7.32-19.874-9.728V200.773L-233 191.045v3.211l16.59 8.122v53.569l16.59 8.123 21.521 10.539 21.512-10.539 16.59-8.123V202.378l16.6-8.122 16.59 8.122v53.569l16.59 8.123 21.521 10.539 21.512-10.539 16.59-8.123V202.378l16.59-8.122 16.6 8.122v53.569l16.59 8.123 21.512 10.539 21.52-10.539 16.59-8.123V202.378l16.591-8.122 16.59 8.122v53.569l16.6 8.123 21.511 10.539 21.512-10.539 16.6-8.123V202.378l16.59-8.122 16.59 8.122v53.569l16.59 8.123 21.521 10.539 21.512-10.539 16.59-8.123V202.378l16.6-8.122 16.59 8.122v53.569l16.59 8.123 21.512 10.539 21.521-10.539 16.59-8.123V202.378l16.59-8.122 16.59 8.122v53.569l16.6 8.123 21.512 10.539 21.511-10.539 16.6-8.123V202.378l16.59-8.122 16.59 8.122v53.569l16.59 8.123 21.521 10.539 21.512-10.539 16.59-8.123V202.378l16.59-8.122 16.6 8.122v53.569l16.59 8.123 21.512 10.539 21.521-10.539 16.59-8.123V202.378l16.59-8.122 16.59 8.122v53.569l16.6 8.123 21.512 10.539 21.511-10.539 16.6-8.123V202.378l16.59-8.122v-3.211l-19.874 9.728v9.728z" fill="#B6BFDA" fill-opacity=".15"/>
        <path d="M832.012 196.658v53.022l-25.713 12.457-25.704-12.457v-53.022l-28.998-14.054-28.988 14.054v53.022l-25.713 12.457-25.704-12.457v-53.022l-28.998-14.054-28.988 14.054v53.022l-25.704 12.457-25.713-12.457v-53.022l-28.988-14.054-28.998 14.054v53.022L478.1 262.137l-25.704-12.457v-53.022l-28.998-14.054-28.988 14.054v53.022l-25.713 12.457-25.704-12.457v-53.022l-28.988-14.054h-.01l-28.988 14.054v53.022l-25.704 12.457-25.713-12.457v-53.022l-28.988-14.054-28.998 14.054v53.022L149.9 262.137l-25.713-12.457v-53.022l-28.988-14.054-28.988 14.054v53.022l-25.713 12.457-25.704-12.457v-53.022l-28.998-14.054-28.988 14.054v53.022l-25.704 12.457-25.713-12.457v-53.022l-28.988-14.054-28.998 14.054v53.022l-25.704 12.457-25.713-12.457v-53.022L-233 182.604v3.185l25.704 12.458v53.022l25.713 12.457 3.284 1.597 3.284-1.597 25.704-12.457v-53.022l25.714-12.458 25.704 12.458v53.022l25.713 12.457 3.284 1.597 3.275-1.597 25.713-12.457v-53.022l25.704-12.458 25.714 12.458v53.022l25.704 12.457 3.284 1.597 3.284-1.597 25.713-12.457v-53.022L95.2 185.789l25.713 12.458v53.022l25.704 12.457 3.284 1.597 3.284-1.597 25.704-12.457v-53.022l25.714-12.458 25.704 12.458v53.022l25.713 12.457 3.284 1.597 3.275-1.597 25.713-12.457v-53.022l25.714-12.458 25.704 12.458v53.022l25.713 12.457 3.275 1.597 3.284-1.597 25.713-12.457v-53.022l25.704-12.458 25.714 12.458v53.022l25.704 12.457 3.284 1.597 3.283-1.597 25.705-12.457v-53.022l25.713-12.458 25.704 12.458v53.022l25.713 12.457 3.284 1.597 3.284-1.597 25.704-12.457v-53.022l25.704-12.458 25.714 12.458v53.022l25.713 12.457 3.275 1.597 3.284-1.597 25.713-12.457v-53.022l25.704-12.458 25.714 12.458v53.022l25.704 12.457 3.284 1.597 3.284-1.597 25.704-12.457v-53.022L861 185.789v-3.185l-28.988 14.054z" fill="#B6BFDA" fill-opacity=".15"/>
        <path d="M822.889 191.98v53.569l-16.59 8.123-16.591-8.123V191.98l-38.111-18.662-38.102 18.662v53.569l-16.599 8.123-16.591-8.123V191.98l-38.111-18.662-38.101 18.662v53.569l-16.591 8.123-16.59-8.123V191.98l-38.111-18.662-38.111 18.662v53.569l-16.59 8.123-16.591-8.123V191.98l-38.111-18.662-38.102 18.662v53.569l-16.599 8.123-16.591-8.123V191.98l-38.101-18.662h-.01l-38.101 18.662v53.569l-16.591 8.123-16.599-8.123V191.98l-38.102-18.662-38.111 18.662v53.569l-16.591 8.123-16.59-8.123V191.98L95.2 173.318 57.087 191.98v53.569l-16.59 8.123-16.59-8.123V191.98l-38.112-18.662-38.102 18.662v53.569l-16.59 8.123-16.6-8.123V191.98l-38.101-18.662-38.111 18.662v53.569l-16.591 8.123-16.59-8.123V191.98L-233 173.318v3.211l34.827 17.056v53.569l19.874 9.728 19.875-9.728v-53.569l34.827-17.056 34.827 17.056v53.569l19.874 9.728 19.874-9.728v-53.569l34.818-17.056 34.827 17.056v53.569l19.875 9.728 19.874-9.728v-53.569l34.827-17.056 34.827 17.056v53.569l19.874 9.728 19.875-9.728v-53.569l34.827-17.056 34.827 17.056v53.569l19.874 9.728 19.875-9.728v-53.569l34.827-17.056 34.817 17.056v53.569l19.875 9.728 19.874-9.728v-53.569l34.827-17.056 34.827 17.056v53.569l19.875 9.728 19.874-9.728v-53.569l34.827-17.056 34.827 17.056v53.569l19.874 9.728 19.875-9.728v-53.569l34.817-17.056 34.828 17.056v53.569l19.874 9.728 19.874-9.728v-53.569l34.827-17.056 34.827 17.056v53.569l19.875 9.728 19.874-9.728v-53.569L861 176.529v-3.211l-38.111 18.662z" fill="#B6BFDA" fill-opacity=".15"/>
        <path d="M813.775 197.402v43.386l-7.476 3.631-7.477-3.631v-53.015l-47.225-22.896-47.225 22.896V240.788l-7.476 3.631-7.477-3.631v-53.015l-47.225-22.896-47.215 22.896V240.788l-7.477 3.631-7.476-3.631v-53.015l-47.225-22.896-47.225 22.896V240.788l-7.476 3.631-7.477-3.631v-53.015l-47.225-22.896-47.225 22.896V240.788l-7.476 3.631-7.477-3.631v-53.015l-47.215-22.896-47.225 22.896V240.788l-7.477 3.631-7.476-3.631v-53.015l-47.225-22.896-47.225 22.896V240.788l-7.477 3.631-7.476-3.631v-53.015l-47.225-22.896-47.225 22.896V240.788l-7.476 3.631-7.477-3.631v-53.015l-47.225-22.896-47.225 22.896V240.788l-7.467 3.631-7.476-3.631v-53.015l-47.225-22.896-47.225 22.896V240.788l-7.477 3.631-7.476-3.631v-53.015L-233 164.877v3.186l43.941 21.299v53.023l10.76 5.212 10.761-5.212v-53.023l43.941-21.299 43.94 21.299v53.023l10.761 5.212 10.751-5.212v-53.023l43.941-21.299 43.95 21.299v53.023l10.752 5.212 10.76-5.212v-53.023L95.2 168.063l43.941 21.299v53.023l10.76 5.212 10.761-5.212v-53.023l43.941-21.299 43.941 21.299v53.023l10.76 5.212 10.751-5.212v-53.023l43.951-21.299 43.941 21.299v53.023l10.751 5.212 10.76-5.212v-53.023l43.941-21.299 43.941 21.299v53.023l10.761 5.212 10.76-5.212v-53.023l43.941-21.299 43.941 21.299v53.023l10.76 5.212 10.751-5.212v-53.023l43.941-21.299 43.951 21.299v53.023l10.751 5.212 10.76-5.212v-53.023l43.941-21.299 43.941 21.299v53.023l10.761 5.212 10.76-5.212v-53.023L861 168.063v-3.186l-47.225 22.896v9.629z" fill="#B6BFDA" fill-opacity=".15"/>
        <path d="M859.353 209.57V262.982l-1.637.801-24.89 12.157-26.527 12.949-33.588-16.399-17.83-8.707-1.637-.801V209.57l-1.647-.8-1.637.8V262.982l-1.647.801-24.88 12.157-26.537 12.949-33.578-16.399-17.84-8.707-1.637-.801V209.57l-1.647-.8-1.637.8V262.982l-1.637.801-24.89 12.157-26.528 12.949-33.587-16.399-17.83-8.707-1.647-.801V209.57l-1.637-.8-1.647.8h.01v9.708h-.01V262.982l-1.637.801-24.89 12.157-26.527 12.949-33.588-16.399-17.83-8.707-1.637-.801V209.57l-1.647-.8-1.637.8V262.982l-1.647.801-24.88 12.157-26.537 12.949-33.578-16.399-17.84-8.707-1.637-.801V209.57l-1.637-.8-1.647.8V262.982l-1.637.801-24.89 12.157-26.528 12.949-33.587-16.399-17.83-8.707-1.647-.801V209.57l-1.637-.8-1.647.8V262.982l-1.637.801-24.89 12.157-26.528 12.949-33.587-16.399-17.83-8.707-1.647-.801V209.57l-1.637-.8-1.637.8V262.982l-1.647.801-24.89 12.157-26.527 12.949L6.92 272.49l-17.84-8.707-1.637-.801V209.57l-1.647-.8-1.637.8V262.982l-1.637.801-24.89 12.157-26.528 12.949-33.587-16.399-17.84-8.707-1.637-.801V209.57l-1.637-.8-1.647.8V262.982l-1.637.801-24.89 12.157-26.528 12.949-33.587-16.399-17.83-8.707-1.647-.801V209.57l-1.637-.8V265.391l44.622 21.785 8.433 4.121v53.413l1.646.8 1.638-.8v-53.413l26.527-12.957 26.537-12.949 44.613 21.785 8.441 4.121v53.413l1.647.8 1.638-.8v-53.413l26.527-12.957 26.527-12.949 44.623 21.785 8.441 4.121v53.413l1.638.8 1.646-.8v-53.413l26.528-12.957 26.527-12.949 44.622 21.785 8.442 4.121v53.413l1.637.8 1.638-.8v-53.413l26.537-12.957 26.527-12.949 44.613 21.785 8.442 4.121v53.413l1.646.8 1.638-.8v-53.413l26.527-12.957 26.527-12.949h.01l44.613 21.785 8.441 4.121v53.413l1.638.8 1.646-.8v-53.413l26.528-12.957 26.527-12.949 44.622 21.785 8.442 4.121v53.413l1.638.8 1.646-.8v-53.413l26.528-12.957 26.527-12.949 44.622 21.785 8.433 4.121v53.413l1.646.8 1.638-.8v-53.413l26.527-12.957 26.527-12.949 44.623 21.785 8.442 4.121v53.413l1.637.8 1.646-.8v-53.413l26.528-12.957 26.527-12.949 44.623 21.785 8.441 4.121v53.413l1.638.8 1.637-.8v-53.413l26.537-12.957L861 265.391V208.77l-1.647.8z" fill="#B6BFDA" fill-opacity=".15"/>
        <path d="M-3.752 357.429V311.952l-10.753-5.268-10.743 5.268V365.557L-36 370.834h6.563l7.461-3.663v-53.604l7.471-3.671 7.471 3.671v53.604l7.471 3.663H7l-10.752-5.277v-8.128z" fill="#B6BFDA" fill-opacity=".15"/>
        <path d="M6 353.082v-45.171l-20-9.669-20 9.669v53.245l-20 9.677h6.61l16.695-8.082V309.507L-14 301.433l16.705 8.074v53.244l16.695 8.082H26l-20-9.677v-8.074zM97.245 361.952v-45.185l-1.745-.798-1.745.798V370.028l-1.755.806h7l-1.755-.806v-8.076z" fill="#B6BFDA" fill-opacity=".15"/>
        <path d="M106.255 357.429V311.952L95.5 306.684l-10.755 5.268V365.557L74 370.834h6.555l7.472-3.663v-53.604l7.473-3.671 7.473 3.671v53.604l7.472 3.663H117l-10.745-5.277v-8.128z" fill="#B6BFDA" fill-opacity=".15"/>
        <path d="M115.25 353.082v-45.171l-19.75-9.669-19.75 9.669v53.245L56 370.833h6.527l16.486-8.082V309.507l16.487-8.074 16.487 8.074v53.244l16.495 8.082H135l-19.75-9.677v-8.074zM206.245 361.952v-45.185l-1.745-.798-1.755.798V370.028l-1.745.806h7l-1.755-.806v-8.076z" fill="#B6BFDA" fill-opacity=".15"/>
        <path d="M215.248 357.429V311.952l-10.743-5.268-10.753 5.268V365.557L183 370.834h6.563l7.471-3.663v-53.604l7.471-3.671 7.471 3.671v53.604l7.47 3.663H226l-10.752-5.277v-8.128z" fill="#B6BFDA" fill-opacity=".15"/>
        <path d="M225 353.082v-45.171l-20-9.669-20 9.669v53.245l-20 9.677h6.6l16.705-8.082V309.507L205 301.433l16.695 8.074v53.244l16.695 8.082H245l-20-9.677v-8.074zM316.252 361.952v-45.185l-1.747-.798-1.758.798V370.028l-1.747.806h7l-1.748-.806v-8.076z" fill="#B6BFDA" fill-opacity=".15"/>
        <path d="M325.248 357.429V311.952l-10.743-5.268-10.753 5.268V365.557L293 370.834h6.563l7.471-3.663v-53.604l7.471-3.671 7.461 3.671v53.604l7.471 3.663H336l-10.752-5.277v-8.128z" fill="#B6BFDA" fill-opacity=".15"/>
        <path d="M334.002 353.082v-45.171l-19.997-9.669-20.007 9.669v53.245L274 370.833h6.609l16.693-8.082V309.507l16.703-8.074 16.693 8.074v53.244l16.693 8.082H354l-19.998-9.677v-8.074zM425.255 361.952v-45.185l-1.755-.798-1.745.798V370.028l-1.755.806h7l-1.745-.806v-8.076z" fill="#B6BFDA" fill-opacity=".15"/>
        <path d="M434.248 357.429V311.952l-10.753-5.268-10.752 5.268V365.557L402 370.834h6.554l7.47-3.663v-53.604l7.471-3.671 7.471 3.671v53.604l7.471 3.663H445l-10.752-5.277v-8.128z" fill="#B6BFDA" fill-opacity=".15"/>
        <path d="M443.25 353.082v-45.171l-19.75-9.669-19.75 9.669v53.245L384 370.833h6.527l16.486-8.082V309.507l16.487-8.074 16.487 8.074v53.244l16.496 8.082H463l-19.75-9.677v-8.074zM534.496 361.952v-45.185l-1.496-.798-1.504.798h.008v9.68h-.008v43.581l-1.496.806h6l-1.504-.806v-8.076z" fill="#B6BFDA" fill-opacity=".15"/>
        <path d="M544.257 357.429V311.952l-10.752-5.268-10.753 5.268V365.557L512 370.834h6.563l7.471-3.663v-53.604l7.471-3.671 7.471 3.671v53.604l7.47 3.663H555l-10.743-5.277v-8.128z" fill="#B6BFDA" fill-opacity=".15"/>
        <path d="M553 353.082v-45.171l-20-9.669-20 9.669v53.245l-20 9.677h6.6l16.705-8.082V309.507L533 301.433l16.695 8.074v53.244l16.695 8.082H573l-20-9.677v-8.074zM662.252 353.082v-45.171l-19.757-9.669-19.747 9.669v53.245L603 370.833h6.526l16.485-8.082V309.507l16.484-8.074 16.494 8.074v53.244l16.485 8.082H682l-19.748-9.677v-8.074z" fill="#B6BFDA" fill-opacity=".15"/>
        <path d="M832.012 303.14v53.51l-25.713 12.571-25.704-12.571v-53.51l-28.998-14.183-28.988 14.183v53.51l-25.713 12.571-25.704-12.571v-53.51l-28.998-14.183-28.988 14.183v53.51l-25.704 12.571-25.713-12.571v-53.51l-28.988-14.183-28.998 14.183v53.51L478.1 369.221l-25.704-12.571v-53.51l-28.998-14.183-28.988 14.183v53.51l-25.713 12.571-25.704-12.571v-53.51l-28.988-14.183h-.01l-28.988 14.183v53.51l-25.704 12.571-25.713-12.571v-53.51l-28.988-14.183-28.998 14.183v53.51L149.9 369.221l-25.713-12.571v-53.51l-28.988-14.183-28.988 14.183v53.51l-25.713 12.571-25.704-12.571v-53.51l-28.998-14.183-28.988 14.183v53.51l-25.704 12.571-25.713-12.571v-53.51l-28.988-14.183-28.998 14.183v53.51l-25.704 12.571-25.713-12.571v-53.51L-233 288.957v3.215l25.704 12.572V358.253l25.713 12.58h6.568l25.704-12.58v-53.509l25.714-12.572 25.704 12.572V358.253l25.713 12.58h6.559l25.713-12.58v-53.509l25.704-12.572 25.714 12.572V358.253l25.704 12.58h6.568l25.713-12.58v-53.509L95.2 292.172l25.713 12.572V358.253l25.704 12.58h6.568l25.704-12.58v-53.509l25.714-12.572 25.704 12.572V358.253l25.713 12.58h6.559l25.713-12.58v-53.509l25.714-12.572 25.704 12.572V358.253l25.713 12.58h6.559l25.713-12.58v-53.509l25.704-12.572 25.714 12.572V358.253l25.704 12.58h6.567l25.705-12.58v-53.509l25.713-12.572 25.704 12.572V358.253l25.713 12.58h6.568l25.704-12.58v-53.509l25.704-12.572 25.714 12.572V358.253l25.713 12.58h6.559l25.713-12.58v-53.509l25.704-12.572 25.714 12.572V358.253l25.704 12.58h6.568l25.704-12.58v-53.509L861 292.172v-3.215l-28.988 14.183z" fill="#B6BFDA" fill-opacity=".15"/>
        <path d="M822.889 298.991v53.027l-16.59 8.041-16.591-8.041v-53.027l-38.111-18.473-38.102 18.473v53.027l-16.599 8.041-16.591-8.041v-53.027l-38.111-18.473-38.101 18.473v53.027l-16.591 8.041-16.59-8.041v-53.027l-38.111-18.473-38.111 18.473v53.027l-16.59 8.041-16.591-8.041v-53.027l-38.111-18.473-38.102 18.473v53.027l-16.599 8.041-16.591-8.041v-53.027l-38.101-18.473h-.01l-38.101 18.473v53.027l-16.591 8.041-16.599-8.041v-53.027l-38.102-18.473-38.111 18.473v53.027l-16.591 8.041-16.59-8.041v-53.027L95.2 280.518l-38.112 18.473v53.027l-16.59 8.041-16.59-8.041v-53.027l-38.112-18.473-38.102 18.473v53.027l-16.59 8.041-16.6-8.041v-53.027l-38.101-18.473-38.111 18.473v53.027l-16.591 8.041-16.59-8.041v-53.027L-233 280.518v3.178l34.827 16.884v53.027l19.874 9.63 19.875-9.63V300.58l34.827-16.884 34.827 16.884v53.027l19.874 9.63 19.874-9.63V300.58l34.818-16.884 34.827 16.884v53.027l19.875 9.63 19.874-9.63V300.58l34.827-16.884 34.827 16.884v53.027l19.874 9.63 19.875-9.63V300.58l34.827-16.884 34.827 16.884v53.027l19.874 9.63 19.875-9.63V300.58l34.827-16.884 34.817 16.884v53.027l19.875 9.63 19.874-9.63V300.58l34.827-16.884 34.827 16.884v53.027l19.875 9.63 19.874-9.63V300.58l34.827-16.884 34.827 16.884v53.027l19.874 9.63 19.875-9.63V300.58l34.817-16.884 34.828 16.884v53.027l19.874 9.63 19.874-9.63V300.58l34.827-16.884 34.827 16.884v53.027l19.875 9.63 19.874-9.63V300.58L861 283.696v-3.178l-38.111 18.473z" fill="#B6BFDA" fill-opacity=".15"/>
        <path d="M813.775 304.085v43.841l-7.476 3.66-7.477-3.66v-53.569l-47.225-23.125-47.225 23.125v53.569l-7.476 3.66-7.477-3.66v-53.569l-47.225-23.125-47.215 23.125v53.569l-7.477 3.66-7.476-3.66v-53.569l-47.225-23.125-47.225 23.125v53.569l-7.476 3.66-7.477-3.66v-53.569l-47.225-23.125-47.225 23.125v53.569l-7.476 3.66-7.477-3.66v-53.569l-47.215-23.125-47.225 23.125v53.569l-7.477 3.66-7.476-3.66v-53.569l-47.225-23.125-47.225 23.125v53.569l-7.477 3.66-7.476-3.66v-53.569l-47.225-23.125-47.225 23.125v53.569l-7.476 3.66-7.477-3.66v-53.569l-47.225-23.125-47.225 23.125v53.569l-7.467 3.66-7.476-3.66v-53.569l-47.225-23.125-47.225 23.125v53.569l-7.477 3.66-7.476-3.66v-53.569L-233 271.232v3.211l43.941 21.519v53.569l10.76 5.265 10.761-5.265V295.962l43.941-21.519 43.94 21.519v53.569l10.761 5.265 10.751-5.265V295.962l43.941-21.519 43.95 21.519v53.569l10.752 5.265 10.76-5.265V295.962L95.2 274.443l43.941 21.519v53.569l10.76 5.265 10.761-5.265V295.962l43.941-21.519 43.941 21.519v53.569l10.76 5.265 10.751-5.265V295.962l43.951-21.519 43.941 21.519v53.569l10.751 5.265 10.76-5.265V295.962l43.941-21.519 43.941 21.519v53.569l10.761 5.265 10.76-5.265V295.962l43.941-21.519 43.941 21.519v53.569l10.76 5.265 10.751-5.265V295.962l43.941-21.519 43.951 21.519v53.569l10.751 5.265 10.76-5.265V295.962l43.941-21.519 43.941 21.519v53.569l10.761 5.265 10.76-5.265V295.962L861 274.443v-3.211l-47.225 23.125v9.728z" fill="#B6BFDA" fill-opacity=".15"/>
        <path fill="url(#ts36xuti2b)" d="M-1344-99.848H677v582.415h-2021z"/>
    </g>
    <defs>
        <linearGradient id="ts36xuti2b" x1="-333.5" y1="-99.848" x2="-333.5" y2="482.567" gradientUnits="userSpaceOnUse">
            <stop stop-color="#fff" stop-opacity="0"/>
            <stop offset="1" stop-color="#fff"/>
        </linearGradient>
        <clipPath id="wj02fec1qa">
            <path fill="#fff" transform="translate(-1308)" d="M0 0h1919v465H0z"/>
        </clipPath>
    </defs>
</svg>
