<svg width="23" height="23" viewBox="0 0 23 23" fill="none" xmlns="http://www.w3.org/2000/svg">
<path d="M21.1435 14.5112C21.1914 14.4079 21.1698 14.2857 21.0892 14.2051C21.0087 14.1248 20.8866 14.103 20.783 14.1508C19.7038 14.6519 18.5516 14.906 17.3583 14.906C12.8663 14.906 9.21177 11.2516 9.21177 6.75948C9.21177 5.56596 9.46566 4.41373 9.96661 3.33474C10.0145 3.23137 9.99293 3.10925 9.91227 3.0286C9.83162 2.94832 9.70969 2.92598 9.60613 2.97426C6.54679 4.39423 4.57031 7.48881 4.57031 10.8581C4.57031 15.6492 8.4682 19.5474 13.2596 19.5474C16.6291 19.5472 19.7238 17.5704 21.1434 14.5111L21.1435 14.5112ZM13.2597 19.0045C8.76768 19.0045 5.1132 15.3502 5.1132 10.8581C5.1132 7.94431 6.69011 5.24983 9.18601 3.80403C8.84257 4.74954 8.66896 5.74028 8.66896 6.75946C8.66896 11.5506 12.5668 15.4488 17.3583 15.4488C18.3772 15.4488 19.3682 15.2752 20.3135 14.9317C18.868 17.4275 16.1735 19.0045 13.2595 19.0045H13.2597Z" fill="white"/>
<path d="M7.31334 18.52L5.46399 18.104L4.49711 16.4739C4.44826 16.3916 4.35947 16.3408 4.26367 16.3408C4.16786 16.3408 4.07907 16.3914 4.03022 16.4739L3.06314 18.104L1.2138 18.52C1.12027 18.541 1.04473 18.6099 1.01519 18.701C0.985658 18.7919 1.00629 18.892 1.06953 18.964L2.32117 20.3875L2.14509 22.2748C2.13619 22.3702 2.17822 22.4631 2.25566 22.5194C2.33347 22.5762 2.43476 22.587 2.52261 22.5491L4.26329 21.7988L6.00377 22.5491C6.0388 22.5641 6.07534 22.5714 6.11188 22.5714C6.1683 22.5714 6.22434 22.554 6.27148 22.5196C6.34892 22.4633 6.39095 22.3704 6.38205 22.275L6.20598 20.3877L7.45761 18.9642C7.52085 18.8924 7.54149 18.7921 7.51195 18.7012C7.48241 18.6099 7.40705 18.541 7.31334 18.52ZM5.72107 20.117C5.67184 20.1728 5.6478 20.2468 5.65461 20.3212L5.79888 21.8694L4.37116 21.2539C4.30243 21.2241 4.22481 21.2241 4.15628 21.2539L2.72836 21.8694L2.87263 20.3212C2.87945 20.2468 2.85559 20.1728 2.80618 20.117L1.77924 18.9492L3.29633 18.608C3.36922 18.5915 3.43227 18.5459 3.47013 18.4815L4.26341 17.1443L5.05668 18.4815C5.09474 18.5459 5.15759 18.5915 5.23048 18.608L6.74758 18.9492L5.72107 20.117Z" fill="white"/>
<path d="M22.5042 3.65384L20.0973 3.11255L18.8386 0.990764C18.7898 0.908218 18.701 0.857666 18.6052 0.857666C18.5094 0.857666 18.4206 0.908218 18.3718 0.990764L17.1129 3.11255L14.706 3.65384C14.6125 3.67485 14.5369 3.74377 14.5074 3.83483C14.4778 3.92571 14.4985 4.02587 14.5617 4.09781L16.1909 5.95074L15.9618 8.4071C15.9529 8.50252 15.9949 8.59548 16.0723 8.65171C16.15 8.70851 16.2516 8.71911 16.3393 8.68143L18.605 7.70471L20.8705 8.68143C20.9049 8.6962 20.9415 8.70377 20.978 8.70377C21.0344 8.70377 21.0905 8.68636 21.1376 8.6519C21.2151 8.59567 21.2571 8.50271 21.2482 8.40729L21.0191 5.95093L22.6484 4.09781C22.7117 4.02605 22.7323 3.92571 22.7028 3.83483C22.6731 3.74357 22.5977 3.67466 22.5042 3.65383L22.5042 3.65384ZM20.5344 5.68023C20.4852 5.73608 20.4612 5.81011 20.468 5.88451L20.6653 8.00179L18.7125 7.16005C18.6438 7.13032 18.5662 7.13032 18.4977 7.16005L16.5449 8.00179L16.7422 5.88451C16.749 5.81011 16.7252 5.73608 16.6758 5.68023L15.2715 4.08307L17.3464 3.61656C17.4192 3.60009 17.4823 3.55447 17.5202 3.49009L18.6052 1.6612L19.6901 3.49009C19.7281 3.55446 19.791 3.60009 19.8639 3.61656L21.9387 4.08307L20.5344 5.68023Z" fill="white"/>
<path d="M1.25587 8.70389H2.04915V9.48771C2.04915 9.63766 2.1707 9.75921 2.32065 9.75921C2.4706 9.75921 2.59214 9.63785 2.59214 9.48771V8.70389H3.38542C3.53537 8.70389 3.65692 8.58253 3.65692 8.43239C3.65692 8.28244 3.53537 8.16089 3.38542 8.16089H2.59214V7.37746C2.59214 7.22751 2.4706 7.10596 2.32065 7.10596C2.1707 7.10596 2.04915 7.22732 2.04915 7.37746V8.16089H1.25587C1.10592 8.16089 0.984375 8.28225 0.984375 8.43239C0.984375 8.58253 1.10592 8.70389 1.25587 8.70389Z" fill="white"/>
<path d="M4.84194 3.51097C4.99189 3.51097 5.11343 3.38961 5.11343 3.23947V2.45603H5.90671C6.05666 2.45603 6.17821 2.33468 6.17821 2.18454C6.17821 2.03459 6.05666 1.91304 5.90671 1.91304H5.11343V1.12941C5.11343 0.979458 4.99189 0.85791 4.84194 0.85791C4.69199 0.85791 4.57044 0.979269 4.57044 1.12941V1.91323L3.77736 1.91304C3.62741 1.91304 3.50586 2.0344 3.50586 2.18454C3.50586 2.33449 3.62741 2.45604 3.77736 2.45604H4.57063V3.23948C4.57063 3.38943 4.69218 3.51097 4.84194 3.51097Z" fill="white"/>
<path d="M12.5589 6.26538C12.409 6.26538 12.2874 6.38674 12.2874 6.53688V7.32031H11.4942C11.3442 7.32031 11.2227 7.44167 11.2227 7.59181C11.2227 7.74176 11.3442 7.86331 11.4942 7.86331H12.2874V8.64713C12.2874 8.79708 12.409 8.91863 12.5589 8.91863C12.7089 8.91863 12.8304 8.79727 12.8304 8.64713V7.86331H13.6237C13.7736 7.86331 13.8952 7.74195 13.8952 7.59181C13.8952 7.44186 13.7736 7.32031 13.6237 7.32031H12.8304V6.53688C12.8302 6.38693 12.7089 6.26538 12.5589 6.26538Z" fill="white"/>
<path d="M21.0885 20.9734H20.2953V20.19C20.2953 20.04 20.1737 19.9185 20.0238 19.9185C19.8738 19.9185 19.7523 20.0398 19.7523 20.19V20.9734H18.959C18.809 20.9734 18.6875 21.0947 18.6875 21.2449C18.6875 21.3948 18.809 21.5164 18.959 21.5164H19.7523V22.3C19.7523 22.45 19.8738 22.5715 20.0238 22.5715C20.1737 22.5715 20.2953 22.4502 20.2953 22.3V21.5162H21.0885C21.2385 21.5162 21.36 21.3948 21.36 21.2447C21.3599 21.0949 21.2383 20.9734 21.0885 20.9734Z" fill="white"/>
</svg>
