<svg width="35" height="31" viewBox="0 0 35 31" fill="none" xmlns="http://www.w3.org/2000/svg">
<path d="M28.5407 20.2119C29.1381 18.761 29.4624 17.2076 29.4624 15.5006C29.4624 14.2716 29.2747 13.0938 28.9503 12.0013C27.8408 12.2574 26.6801 12.3939 25.4681 12.3939C22.9861 12.3966 20.5398 11.8025 18.3355 10.6617C16.1312 9.52097 14.2335 7.86697 12.8023 5.83915C11.2713 9.54359 8.38318 12.5233 4.72833 14.1692C4.66005 14.5959 4.66005 15.0568 4.66005 15.5006C4.66005 17.1303 4.98103 18.744 5.60468 20.2496C6.22833 21.7553 7.14242 23.1233 8.29477 24.2756C10.622 26.6029 13.7785 27.9104 17.0698 27.9104C18.8621 27.9104 20.5861 27.5178 22.1395 26.8179C23.1125 28.6785 23.5563 29.6003 23.5221 29.6003C20.7227 30.5391 18.5548 31 17.0698 31C12.9389 31 8.99577 29.3784 6.09391 26.4594C4.32889 24.6999 3.01686 22.5385 2.27028 20.1607H0V12.3939H1.86061C2.42432 9.65 3.72034 7.10985 5.61116 5.04301C7.50197 2.97617 9.91704 1.45975 12.6001 0.654652C15.2832 -0.150441 18.1341 -0.214176 20.8505 0.47021C23.5669 1.1546 26.0473 2.56158 28.0286 4.54185C30.1797 6.68454 31.647 9.41715 32.2448 12.3939H34.1395V20.1607H34.0371L27.9603 25.7425L18.9133 24.7183V21.8677H27.158L28.5407 20.2119ZM12.4097 15.108C12.9218 15.108 13.4168 15.3129 13.7753 15.6884C14.1356 16.0516 14.3377 16.5424 14.3377 17.054C14.3377 17.5656 14.1356 18.0564 13.7753 18.4196C13.4168 18.778 12.9218 18.9829 12.4097 18.9829C11.3343 18.9829 10.4638 18.1294 10.4638 17.054C10.4638 15.9786 11.3343 15.108 12.4097 15.108ZM21.7128 15.108C22.7881 15.108 23.6416 15.9786 23.6416 17.054C23.6416 18.1294 22.7881 18.9829 21.7128 18.9829C20.6374 18.9829 19.7668 18.1294 19.7668 17.054C19.7668 16.5379 19.9718 16.0429 20.3368 15.678C20.7017 15.3131 21.1967 15.108 21.7128 15.108Z" fill="#F5F5F5"/>
</svg>
