<svg width="29" height="29" viewBox="0 0 29 29" fill="none" xmlns="http://www.w3.org/2000/svg">
<path d="M25.7867 14.4598C25.7867 11.3269 24.6952 8.66894 22.5123 6.48604C20.3305 4.30421 17.6731 3.2133 14.5402 3.2133V0C16.5485 0 18.4299 0.381311 20.1843 1.14393C21.9377 1.90763 23.464 2.9391 24.7633 4.23834C26.0614 5.53651 27.0924 7.06283 27.8561 8.81729C28.6187 10.5707 29 12.4515 29 14.4598H25.7867ZM19.3601 14.4598C19.3601 13.121 18.8915 11.9829 17.9543 11.0457C17.0171 10.1085 15.879 9.63989 14.5402 9.63989V6.42659C16.7627 6.42659 18.6575 7.20957 20.2245 8.77551C21.7904 10.3425 22.5734 12.2373 22.5734 14.4598H19.3601ZM27.313 29C23.8587 29 20.4917 28.2299 17.212 26.6896C13.9312 25.1505 11.0259 23.1154 8.49594 20.5844C5.96494 18.0544 3.92985 15.1491 2.39068 11.8683C0.850443 8.58861 0.0803223 5.22161 0.0803223 1.76731C0.0803223 1.28532 0.240987 0.883656 0.562317 0.562327C0.883646 0.240997 1.28531 0.0803323 1.7673 0.0803323H8.27423C8.64911 0.0803323 8.98383 0.200831 9.27838 0.441828C9.57294 0.682825 9.74699 0.990766 9.80054 1.36565L10.8449 6.98892C10.8984 7.36381 10.892 7.70495 10.8256 8.01235C10.7581 8.32083 10.6039 8.59557 10.3629 8.83657L6.50692 12.7729C7.63157 14.7008 9.03739 16.5083 10.7244 18.1953C12.4113 19.8823 14.2724 21.3416 16.3075 22.5734L20.0831 18.7978C20.3241 18.5568 20.639 18.3758 21.0278 18.2547C21.4155 18.1348 21.7969 18.1016 22.1717 18.1551L27.7147 19.2798C28.0896 19.3601 28.3975 19.5406 28.6385 19.8212C28.8795 20.1029 29 20.4312 29 20.8061V27.313C29 27.795 28.8393 28.1967 28.518 28.518C28.1967 28.8393 27.795 29 27.313 29Z" fill="#F5F5F5"/>
</svg>
