<svg width="20" height="21" viewBox="0 0 20 21" fill="none" xmlns="http://www.w3.org/2000/svg">
<path fill-rule="evenodd" clip-rule="evenodd" d="M15.1015 5.82208C15.3944 5.52918 15.3944 5.05431 15.1015 4.76142C14.8086 4.46852 14.3337 4.46852 14.0408 4.76142L9.68109 9.12116L5.32135 4.76142C5.02845 4.46852 4.55358 4.46852 4.26069 4.76142C3.96779 5.05431 3.96779 5.52918 4.26069 5.82208L8.62043 10.1818L4.26069 14.5416C3.96779 14.8345 3.96779 15.3093 4.26069 15.6022C4.55358 15.8951 5.02845 15.8951 5.32135 15.6022L9.68109 11.2425L14.0408 15.6022C14.3337 15.8951 14.8086 15.8951 15.1015 15.6022C15.3944 15.3093 15.3944 14.8345 15.1015 14.5416L10.7417 10.1818L15.1015 5.82208Z" fill="black"/>
</svg>
