<svg width="60" height="60" viewBox="0 0 60 60" fill="none" xmlns="http://www.w3.org/2000/svg">
    <path d="M53.696 18.563a57.193 57.193 0 0 1-5.72 9.772 5.934 5.934 0 0 1-9.704 0c-3.822-5.438-6.157-9.955-6.986-13.476a10.13 10.13 0 0 0-1.736 3.194c-2.765 8.278.163 9.73 5.016 12.137l.685.342c3.286 1.645 4.726 4.02 6 6.115a15.058 15.058 0 0 0 2.056 2.877 6.146 6.146 0 0 0 2.344 1.374c1.367.528 2.568.998 3.232 4.838-.108.148-.205.302-.318.448A23.405 23.405 0 0 1 17.27 51.54c.469-1.5 1.282-1.82 2.71-2.376a14.214 14.214 0 0 0 6.375-4.458c1.735-2.022 2.363-3.96 1.865-5.761-.851-3.086-4.73-4.413-4.963-4.488-.03-.008-3.008-.787-4.256-2.96a4.673 4.673 0 0 1-.302-3.73c1.5-5.239-3.615-9.713-6.117-11.531A23.309 23.309 0 0 1 30 8.438a23.9 23.9 0 0 1 1.513.054 12.165 12.165 0 0 1 1.861-3.581A27.403 27.403 0 0 0 30 4.688a27.188 27.188 0 1 0 4.405 54.015 27.174 27.174 0 0 0 17.121-10.23 27.15 27.15 0 0 0 2.17-29.91z" fill="#162651"/>
    <path d="M43.125 2.813a9.375 9.375 0 0 0-9.375 9.374c0 4.108 4.048 10.576 6.824 14.532a3.118 3.118 0 0 0 5.102 0c2.776-3.956 6.824-10.424 6.824-14.532a9.375 9.375 0 0 0-9.375-9.374zm0 14.062a4.687 4.687 0 1 1 0-9.374 4.687 4.687 0 0 1 0 9.374z" fill="#F5841F"/>
</svg>
