<svg width="40" height="40" viewBox="0 0 40 40" fill="none" xmlns="http://www.w3.org/2000/svg">
<g clip-path="url(#clip0_1203_11988)">
<path d="M17.6 3.2V14.4C17.6 15.2487 17.2629 16.0626 16.6627 16.6627C16.0626 17.2629 15.2487 17.6 14.4 17.6H3.2C2.35131 17.6 1.53737 17.2629 0.937258 16.6627C0.337142 16.0626 0 15.2487 0 14.4V3.2C0 2.35131 0.337142 1.53737 0.937258 0.937258C1.53737 0.337142 2.35131 0 3.2 0H14.4C15.2487 0 16.0626 0.337142 16.6627 0.937258C17.2629 1.53737 17.6 2.35131 17.6 3.2ZM36.8 0H25.6C24.7513 0 23.9374 0.337142 23.3373 0.937258C22.7371 1.53737 22.4 2.35131 22.4 3.2V14.4C22.4 15.2487 22.7371 16.0626 23.3373 16.6627C23.9374 17.2629 24.7513 17.6 25.6 17.6H36.8C37.6487 17.6 38.4626 17.2629 39.0627 16.6627C39.6629 16.0626 40 15.2487 40 14.4V3.2C40 2.35131 39.6629 1.53737 39.0627 0.937258C38.4626 0.337142 37.6487 0 36.8 0ZM14.4 22.4H3.2C2.35131 22.4 1.53737 22.7371 0.937258 23.3373C0.337142 23.9374 0 24.7513 0 25.6V36.8C0 37.6487 0.337142 38.4626 0.937258 39.0627C1.53737 39.6629 2.35131 40 3.2 40H14.4C15.2487 40 16.0626 39.6629 16.6627 39.0627C17.2629 38.4626 17.6 37.6487 17.6 36.8V25.6C17.6 24.7513 17.2629 23.9374 16.6627 23.3373C16.0626 22.7371 15.2487 22.4 14.4 22.4Z" fill="#102754"/>
<path d="M25.9999 23.5168C27.4799 22.5278 29.22 22 31 22C33.387 22 35.6761 22.9482 37.364 24.636C39.0518 26.3239 40 28.6131 40 31C40 32.78 39.4722 34.5201 38.4832 36.0001C37.4943 37.4802 36.0887 38.6337 34.4442 39.3149C32.7996 39.9961 30.99 40.1743 29.2442 39.8271C27.4984 39.4798 25.8947 38.6226 24.636 37.364C23.3774 36.1053 22.5202 34.5016 22.1729 32.7558C21.8257 31.01 22.0039 29.2004 22.6851 27.5558C23.3663 25.9113 24.5198 24.5057 25.9999 23.5168Z" fill="#F5841F"/>
</g>
<defs>
<clipPath id="clip0_1203_11988">
<rect width="40" height="40" fill="white"/>
</clipPath>
</defs>
</svg>
