<svg width="79" height="420" viewBox="0 0 79 420" fill="none" xmlns="http://www.w3.org/2000/svg">
<path d="M14.3 402.05L13.3 402.05L13.3 403.05L14.3 403.05L14.3 402.05ZM34.65 402.05L34.65 403.05L35.65 403.05L35.65 402.05L34.65 402.05ZM34.65 366.41L34.65 365.41L33.65 365.41L33.65 366.41L34.65 366.41ZM48.95 366.41L49.95 366.41L49.95 365.41L48.95 365.41L48.95 366.41ZM48.95 402.05L47.95 402.05L47.95 403.05L48.95 403.05L48.95 402.05ZM77 402.05L78 402.05L78 401.05L77 401.05L77 402.05ZM77 419.87L77 420.87L78 420.87L78 419.87L77 419.87ZM-6.12113e-06 419.87L-1.00001 419.87L-1.00001 420.87L-6.07742e-06 420.87L-6.12113e-06 419.87ZM-8.6647e-06 361.68L-8.70841e-06 360.68L-1.00001 360.68L-1.00001 361.68L-8.6647e-06 361.68ZM14.3 361.68L15.3 361.68L15.3 360.68L14.3 360.68L14.3 361.68ZM14.3 403.05L34.65 403.05L34.65 401.05L14.3 401.05L14.3 403.05ZM35.65 402.05L35.65 366.41L33.65 366.41L33.65 402.05L35.65 402.05ZM34.65 367.41L48.95 367.41L48.95 365.41L34.65 365.41L34.65 367.41ZM47.95 366.41L47.95 402.05L49.95 402.05L49.95 366.41L47.95 366.41ZM48.95 403.05L77 403.05L77 401.05L48.95 401.05L48.95 403.05ZM76 402.05L76 419.87L78 419.87L78 402.05L76 402.05ZM77 418.87L-6.16484e-06 418.87L-6.07742e-06 420.87L77 420.87L77 418.87ZM0.999994 419.87L0.999991 361.68L-1.00001 361.68L-1.00001 419.87L0.999994 419.87ZM-8.62099e-06 362.68L14.3 362.68L14.3 360.68L-8.70841e-06 360.68L-8.62099e-06 362.68ZM13.3 361.68L13.3 402.05L15.3 402.05L15.3 361.68L13.3 361.68ZM60.5 309.829L60.118 308.905L59.5 309.16L59.5 309.829L60.5 309.829ZM60.5 345.579L59.5 345.579L59.5 346.247L60.118 346.503L60.5 345.579ZM77 352.399L78 352.399L78 351.73L77.382 351.475L77 352.399ZM77 370.659L76.5929 371.572L78 372.199L78 370.659L77 370.659ZM-9.7724e-06 336.339L-1.00001 336.339L-1.00001 336.988L-0.407116 337.252L-9.7724e-06 336.339ZM-1.05417e-05 318.739L-0.408204 317.826L-1.00001 318.09L-1.00001 318.739L-1.05417e-05 318.739ZM77 284.309L78 284.309L78 282.766L76.5918 283.396L77 284.309ZM77 303.009L77.382 303.933L78 303.677L78 303.009L77 303.009ZM46.97 315.439L47.97 315.439L47.97 313.942L46.5873 314.515L46.97 315.439ZM17.49 327.649L17.1073 326.725L14.8767 327.649L17.1073 328.573L17.49 327.649ZM46.97 339.859L46.5873 340.783L47.97 341.355L47.97 339.859L46.97 339.859ZM59.5 309.829L59.5 345.579L61.5 345.579L61.5 309.829L59.5 309.829ZM60.118 346.503L76.618 353.323L77.382 351.475L60.882 344.655L60.118 346.503ZM76 352.399L76 370.659L78 370.659L78 352.399L76 352.399ZM77.4071 369.745L0.407097 335.425L-0.407116 337.252L76.5929 371.572L77.4071 369.745ZM0.99999 336.339L0.999989 318.739L-1.00001 318.739L-1.00001 336.339L0.99999 336.339ZM0.408185 319.652L77.4082 285.222L76.5918 283.396L-0.408204 317.826L0.408185 319.652ZM76 284.309L76 303.009L78 303.009L78 284.309L76 284.309ZM76.618 302.085L60.118 308.905L60.882 310.753L77.382 303.933L76.618 302.085ZM46.5873 314.515L17.1073 326.725L17.8726 328.573L47.3526 316.363L46.5873 314.515ZM17.1073 328.573L46.5873 340.783L47.3526 338.935L17.8726 326.725L17.1073 328.573ZM47.97 339.859L47.97 315.439L45.97 315.439L45.97 339.859L47.97 339.859ZM14.52 271.937L14.52 270.937L13.52 270.937L13.52 271.937L14.52 271.937ZM14.52 296.577L14.52 297.577L15.52 297.577L15.52 296.577L14.52 296.577ZM-1.15104e-05 296.577L-1.00001 296.577L-1.00001 297.577L-1.14667e-05 297.577L-1.15104e-05 296.577ZM-1.44435e-05 229.477L-1.44872e-05 228.477L-1.00001 228.477L-1.00001 229.477L-1.44435e-05 229.477ZM14.52 229.477L15.52 229.477L15.52 228.477L14.52 228.477L14.52 229.477ZM14.52 254.117L13.52 254.117L13.52 255.117L14.52 255.117L14.52 254.117ZM77 254.117L78 254.117L78 253.117L77 253.117L77 254.117ZM77 271.937L77 272.937L78 272.937L78 271.937L77 271.937ZM13.52 271.937L13.52 296.577L15.52 296.577L15.52 271.937L13.52 271.937ZM14.52 295.577L-1.15541e-05 295.577L-1.14667e-05 297.577L14.52 297.577L14.52 295.577ZM0.999988 296.577L0.999986 229.477L-1.00001 229.477L-1.00001 296.577L0.999988 296.577ZM-1.43998e-05 230.477L14.52 230.477L14.52 228.477L-1.44872e-05 228.477L-1.43998e-05 230.477ZM13.52 229.477L13.52 254.117L15.52 254.117L15.52 229.477L13.52 229.477ZM14.52 255.117L77 255.117L77 253.117L14.52 253.117L14.52 255.117ZM76 254.117L76 271.937L78 271.937L78 254.117L76 254.117ZM77 270.937L14.52 270.937L14.52 272.937L77 272.937L77 270.937ZM69.19 220.408L69.8971 221.115L69.9013 221.111L69.19 220.408ZM-1.44408e-05 229.538L-1.00001 229.538L-1.00001 230.538L-1.43971e-05 230.538L-1.44408e-05 229.538ZM-1.52197e-05 211.718L-1.52634e-05 210.718L-1.00002 210.718L-1.00002 211.718L-1.52197e-05 211.718ZM58.19 181.798L58.8544 181.051L58.8462 181.044L58.19 181.798ZM-1.67199e-05 177.398L-1.00002 177.398L-1.00002 178.398L-1.66762e-05 178.398L-1.67199e-05 177.398ZM-1.74892e-05 159.798L-1.75329e-05 158.798L-1.00002 158.798L-1.00002 159.798L-1.74892e-05 159.798ZM69.19 169.038L68.4786 169.741L68.4829 169.745L69.19 169.038ZM77.32 194.668C77.32 205.48 74.3339 213.78 68.4787 219.705L69.9013 221.111C76.2195 214.717 79.32 205.857 79.32 194.668L77.32 194.668ZM68.4829 219.701C62.6369 225.547 54.2341 228.538 43.12 228.538L43.12 230.538C54.5926 230.538 63.5698 227.443 69.8971 221.115L68.4829 219.701ZM43.12 228.538L-1.44845e-05 228.538L-1.43971e-05 230.538L43.12 230.538L43.12 228.538ZM0.999986 229.538L0.999985 211.718L-1.00002 211.718L-1.00001 229.538L0.999986 229.538ZM-1.5176e-05 212.718L42.46 212.718L42.46 210.718L-1.52634e-05 210.718L-1.5176e-05 212.718ZM42.46 212.718C49.4668 212.718 54.9079 211.269 58.6086 208.198C62.3449 205.097 64.14 200.487 64.14 194.558L62.14 194.558C62.14 200.07 60.4884 204.039 57.3314 206.659C54.1387 209.308 49.2399 210.718 42.46 210.718L42.46 212.718ZM64.14 194.558C64.14 188.78 62.4214 184.221 58.8544 181.051L57.5256 182.546C60.5586 185.242 62.14 189.19 62.14 194.558L64.14 194.558ZM58.8462 181.044C55.2099 177.882 49.6797 176.398 42.46 176.398L42.46 178.398C49.467 178.398 54.4234 179.848 57.5338 182.553L58.8462 181.044ZM42.46 176.398L-1.67636e-05 176.398L-1.66762e-05 178.398L42.46 178.398L42.46 176.398ZM0.999983 177.398L0.999983 159.798L-1.00002 159.798L-1.00002 177.398L0.999983 177.398ZM-1.74455e-05 160.798L43.12 160.798L43.12 158.798L-1.75329e-05 158.798L-1.74455e-05 160.798ZM43.12 160.798C54.2308 160.798 62.6321 163.824 68.4787 169.741L69.9013 168.335C63.5746 161.932 54.5958 158.798 43.12 158.798L43.12 160.798ZM68.4829 169.745C74.3336 175.596 77.32 183.856 77.32 194.668L79.32 194.668C79.32 183.48 76.2197 174.654 69.8971 168.331L68.4829 169.745ZM77 100.829L77.5692 101.651L78 101.353L78 100.829L77 100.829ZM55.55 115.679L54.9808 114.857L54.55 115.155L54.55 115.679L55.55 115.679ZM55.55 132.069L54.55 132.069L54.55 133.069L55.55 133.069L55.55 132.069ZM77 132.069L78 132.069L78 131.069L77 131.069L77 132.069ZM77 149.889L77 150.889L78 150.889L78 149.889L77 149.889ZM-1.79224e-05 149.889L-1.00002 149.889L-1.00002 150.889L-1.78787e-05 150.889L-1.79224e-05 149.889ZM3.40998 98.8487L4.3199 99.2635L4.32215 99.2585L3.40998 98.8487ZM42.79 87.2987L42.2353 88.1308L42.2387 88.1331L42.79 87.2987ZM52.25 98.9587L51.3329 99.3574L51.8201 100.478L52.8222 99.7788L52.25 98.9587ZM77 81.6887L78 81.6887L78 79.7716L76.4277 80.8686L77 81.6887ZM18.04 105.339L18.8049 105.983L18.8099 105.977L18.8149 105.971L18.04 105.339ZM14.52 132.069L13.52 132.069L13.52 133.069L14.52 133.069L14.52 132.069ZM41.36 132.069L41.36 133.069L42.36 133.069L42.36 132.069L41.36 132.069ZM37.84 105.339L38.6049 104.695L37.84 105.339ZM76.4308 100.007L54.9808 114.857L56.1192 116.501L77.5692 101.651L76.4308 100.007ZM54.55 115.679L54.55 116.559L56.55 116.559L56.55 115.679L54.55 115.679ZM54.55 116.559L54.55 132.069L56.55 132.069L56.55 116.559L54.55 116.559ZM55.55 133.069L77 133.069L77 131.069L55.55 131.069L55.55 133.069ZM76 132.069L76 149.889L78 149.889L78 132.069L76 132.069ZM77 148.889L-1.79661e-05 148.889L-1.78787e-05 150.889L77 150.889L77 148.889ZM0.999982 149.889L0.999981 116.559L-1.00002 116.559L-1.00002 149.889L0.999982 149.889ZM0.999981 116.559C0.99998 109.848 2.11858 104.092 4.31989 99.2635L2.50008 98.4339C0.154716 103.579 -1.00002 109.63 -1.00002 116.559L0.999981 116.559ZM4.32215 99.2585C6.52592 94.3534 9.63359 90.6246 13.6345 88.0275L12.5455 86.3499C8.18638 89.1796 4.84071 93.2241 2.49781 98.4389L4.32215 99.2585ZM13.6345 88.0275C17.6294 85.4343 22.3839 84.1187 27.94 84.1187L27.94 82.1187C22.056 82.1187 16.9106 83.5165 12.5455 86.3499L13.6345 88.0275ZM27.94 84.1187C33.4908 84.1187 38.2416 85.4683 42.2353 88.1308L43.3447 86.4667C38.9784 83.5558 33.8292 82.1187 27.94 82.1187L27.94 84.1187ZM42.2387 88.1331C46.1648 90.7271 49.2005 94.4528 51.3329 99.3574L53.1671 98.56C50.8995 93.3447 47.6285 89.2971 43.3412 86.4644L42.2387 88.1331ZM52.8222 99.7788L77.5722 82.5088L76.4277 80.8686L51.6777 98.1386L52.8222 99.7788ZM76 81.6887L76 100.829L78 100.829L78 81.6887L76 81.6887ZM27.94 100.159C23.3804 100.159 19.7673 101.639 17.2651 104.707L18.8149 105.971C20.8594 103.465 23.8462 102.159 27.94 102.159L27.94 100.159ZM17.2751 104.695C14.7193 107.73 13.52 112.067 13.52 117.549L15.52 117.549C15.52 112.324 16.6673 108.521 18.8049 105.983L17.2751 104.695ZM13.52 117.549L13.52 132.069L15.52 132.069L15.52 117.549L13.52 117.549ZM14.52 133.069L41.36 133.069L41.36 131.069L14.52 131.069L14.52 133.069ZM42.36 132.069L42.36 117.549L40.36 117.549L40.36 132.069L42.36 132.069ZM42.36 117.549C42.36 112.067 41.1607 107.73 38.6049 104.695L37.0751 105.983C39.2126 108.521 40.36 112.324 40.36 117.549L42.36 117.549ZM38.6049 104.695C36.0355 101.643 32.4334 100.159 27.94 100.159L27.94 102.159C31.9532 102.159 34.9511 103.461 37.0751 105.983L38.6049 104.695ZM60.5 25.9901L60.118 25.0659L59.5 25.3213L59.5 25.9901L60.5 25.9901ZM60.5 61.7401L59.5 61.7401L59.5 62.4088L60.118 62.6642L60.5 61.7401ZM77 68.5601L78 68.5601L78 67.8914L77.382 67.6359L77 68.5601ZM77 86.8201L76.5929 87.7335L78 88.3606L78 86.8201L77 86.8201ZM-2.21794e-05 52.5001L-1.00002 52.5001L-1.00002 53.1492L-0.407129 53.4135L-2.21794e-05 52.5001ZM-2.29487e-05 34.9001L-0.408217 33.9872L-1.00002 34.2518L-1.00002 34.9001L-2.29487e-05 34.9001ZM77 0.470058L78 0.470058L78 -1.07248L76.5918 -0.442815L77 0.470058ZM77 19.1701L77.382 20.0942L78 19.8388L78 19.1701L77 19.1701ZM46.97 31.6001L47.97 31.6001L47.97 30.1035L46.5873 30.6762L46.97 31.6001ZM17.49 43.8101L17.1073 42.8862L14.8767 43.8101L17.1073 44.734L17.49 43.8101ZM46.97 56.0201L46.5873 56.944L47.97 57.5166L47.97 56.0201L46.97 56.0201ZM59.5 25.9901L59.5 61.7401L61.5 61.7401L61.5 25.9901L59.5 25.9901ZM60.118 62.6642L76.618 69.4842L77.382 67.6359L60.882 60.8159L60.118 62.6642ZM76 68.5601L76 86.8201L78 86.8201L78 68.5601L76 68.5601ZM77.4071 85.9067L0.407084 51.5867L-0.407129 53.4135L76.5929 87.7335L77.4071 85.9067ZM0.999978 52.5001L0.999977 34.9001L-1.00002 34.9001L-1.00002 52.5001L0.999978 52.5001ZM0.408173 35.813L77.4082 1.38296L76.5918 -0.442815L-0.408217 33.9872L0.408173 35.813ZM76 0.470058L76 19.1701L78 19.1701L78 0.470058L76 0.470058ZM76.618 18.2459L60.118 25.0659L60.882 26.9142L77.382 20.0942L76.618 18.2459ZM46.5873 30.6762L17.1073 42.8862L17.8726 44.734L47.3526 32.524L46.5873 30.6762ZM17.1073 44.734L46.5873 56.944L47.3526 55.0962L17.8726 42.8862L17.1073 44.734ZM47.97 56.0201L47.97 31.6001L45.97 31.6001L45.97 56.0201L47.97 56.0201Z" fill="white"/>
</svg>
