<svg width="24" height="24" viewBox="0 0 24 24" fill="none" xmlns="http://www.w3.org/2000/svg">
<g clip-path="url(#clip0_1702_19346)">
<path d="M9.57764 0.248047L14.6773 23.698C21.0799 22.2345 25.1251 15.8841 23.726 9.45069C22.3269 3.01723 16.0098 -1.07962 9.57764 0.248047Z" fill="#FFB751"/>
<path d="M9.57764 0.247456C9.53507 0.256186 9.49251 0.264962 9.45005 0.274196C2.97413 1.68251 -1.13417 8.07423 0.274144 14.5501C1.68245 21.0261 8.07418 25.1344 14.5501 23.7261C14.5926 23.7168 14.6349 23.7071 14.6773 23.6974C20.0342 22.4474 23.2359 16.286 21.8385 9.86056C20.4412 3.43512 14.9699 -0.840186 9.57764 0.247456Z" fill="#FFD764"/>
<path d="M17.0497 9.4284L16.3419 9.58233L13.0289 16.443L17.7424 15.418C18.3267 14.2121 18.5261 12.8088 18.2193 11.3979L17.9114 9.9823C17.8267 9.59296 17.439 9.34375 17.0497 9.4284Z" fill="#401510"/>
<path d="M6.33819 11.7582C5.9489 11.8428 5.69964 12.2306 5.7843 12.6199L6.09214 14.0355C6.39896 15.4464 7.16314 16.6402 8.19546 17.4945L16.8543 14.805C17.0423 13.8449 17.0381 12.7848 16.8035 11.7061L16.6496 10.9983L7.04596 11.6043L6.33819 11.7582Z" fill="#901C0F"/>
<path d="M16.8548 14.8055L13.5346 18.7674C15.444 18.3329 16.9484 17.0584 17.7428 15.4189C17.465 15.1892 17.1678 14.9835 16.8548 14.8055Z" fill="#E0230D"/>
<path d="M16.8546 14.8063C16.4646 16.8031 15.243 18.367 13.5344 18.7682C13.5147 18.773 13.4944 18.7774 13.4746 18.7817C11.5366 19.2031 9.61386 18.6695 8.19581 17.4958C8.99846 15.8397 10.5259 14.5552 12.4638 14.1338C14.022 13.7949 15.5706 14.0739 16.8546 14.8063Z" fill="#FF5440"/>
<path d="M14.9266 9.89099L14.6805 12.1683L16.0961 11.8605C16.4854 11.7758 16.7347 11.388 16.65 10.9987L16.3421 9.58315L14.9266 9.89099Z" fill="#FFE7A3"/>
<path d="M14.9261 9.89177L15.2339 11.3074C15.3186 11.6967 15.0693 12.0844 14.68 12.1691L8.21549 13.5749C7.8262 13.6596 7.4384 13.4103 7.35374 13.0211L7.0459 11.6055L14.9261 9.89177Z" fill="white"/>
<path d="M3.54435 14.8177C4.19587 14.676 4.60918 14.033 4.46749 13.3814C4.32581 12.7299 3.68278 12.3166 3.03125 12.4583C2.37973 12.6 1.96642 13.243 2.10811 13.8945C2.2498 14.5461 2.89282 14.9594 3.54435 14.8177Z" fill="#FF804C"/>
<path d="M20.8661 11.0696C21.5177 10.9279 21.931 10.2849 21.7893 9.6334C21.6476 8.98187 21.0046 8.56856 20.353 8.71025C19.7015 8.85194 19.2882 9.49496 19.4299 10.1465C19.5716 10.798 20.2146 11.2113 20.8661 11.0696Z" fill="#FF804C"/>
<path d="M8.07749 9.52841C7.88204 9.57091 7.68915 9.44693 7.64665 9.25148C7.51934 8.66605 6.93949 8.29336 6.35406 8.42067C5.76864 8.54798 5.39594 9.12783 5.52325 9.71325C5.56575 9.9087 5.44177 10.1016 5.24632 10.1441C5.05087 10.1866 4.85798 10.0626 4.81548 9.86717C4.60329 8.89145 5.22445 7.92503 6.20018 7.71284C7.17591 7.50065 8.14232 8.12182 8.35451 9.09754C8.39692 9.29301 8.27294 9.4859 8.07749 9.52841Z" fill="#401510"/>
<path d="M17.3734 7.50692C17.1779 7.54944 16.9851 7.42544 16.9425 7.23C16.8152 6.64457 16.2353 6.27188 15.65 6.39918C15.0646 6.52649 14.6918 7.10634 14.8191 7.69177C14.8617 7.88722 14.7377 8.0801 14.5422 8.12261C14.3467 8.16513 14.1539 8.04114 14.1114 7.84569C13.8992 6.86996 14.5204 5.90355 15.4961 5.69136C16.4718 5.47917 17.4382 6.10033 17.6504 7.07606C17.6929 7.27152 17.5689 7.46441 17.3734 7.50692Z" fill="#401510"/>
<path d="M14.2132 20.473L13.5054 20.6269C13.3099 20.6694 13.117 20.5454 13.0745 20.35C13.032 20.1545 13.156 19.9616 13.3514 19.9191L14.0593 19.7652C14.2548 19.7227 14.4476 19.8467 14.4901 20.0421C14.5327 20.2376 14.4087 20.4305 14.2132 20.473Z" fill="#FFB751"/>
</g>
<defs>
<clipPath id="clip0_1702_19346">
<rect width="24" height="24" fill="white"/>
</clipPath>
</defs>
</svg>
