<svg width="62" height="13" viewBox="0 0 62 13" fill="none" xmlns="http://www.w3.org/2000/svg">
<g clip-path="url(#clip0_877_7854)">
<path d="M11.2831 5.56268H10.0078V3.74577H11.3397V1.09766H13.7351V3.74577H15.9731V5.56268H13.7351V9.13C13.7351 10.6418 15.0083 10.8569 15.6836 10.8569C15.8327 10.8586 15.9817 10.8468 16.1283 10.8217V12.8205C15.8803 12.8599 15.629 12.8782 15.3774 12.8753C14.0056 12.8753 11.2831 12.4959 11.2831 9.4175V5.56268Z" fill="#989FB5"/>
<path d="M21.2435 3.38477C24.0835 3.38477 25.6084 5.3112 25.6084 7.74026C25.6084 8.01212 25.5517 8.62427 25.5517 8.62427H18.7537C18.9068 10.226 20.2409 11.0553 21.7091 11.0553C23.2906 11.0553 24.547 10.0461 24.547 10.0461L25.493 11.6851C24.38 12.5427 22.9789 13.0079 21.535 12.9993C18.2713 12.9993 16.2451 10.803 16.2451 8.19205C16.2451 5.364 18.3112 3.38477 21.2435 3.38477ZM23.1312 7.0577C23.0914 5.81383 22.2607 5.14887 21.1805 5.14887C19.922 5.14887 19.0579 5.86859 18.825 7.0577H23.1312Z" fill="#989FB5"/>
<path d="M26.6738 0H29.1069V9.58327C29.1069 10.5905 29.474 10.8428 30.1116 10.8428C30.3046 10.8428 30.4766 10.8252 30.4766 10.8252V12.8201C30.221 12.8553 29.9631 12.8736 29.7047 12.8748C28.3539 12.8748 26.6738 12.5502 26.6738 9.92162V0Z" fill="#989FB5"/>
<path d="M31.2842 0H33.7362V3.94283C33.7362 4.39266 33.6984 4.72514 33.6984 4.72514H33.7362C33.7362 4.72514 34.6066 3.39326 36.6915 3.39326C39.3554 3.39326 41.0564 5.34903 41.0564 8.20054C41.0564 11.1166 39.1435 13.0078 36.5363 13.0078C35.9637 13.0233 35.3959 12.9063 34.8835 12.6675C34.3711 12.4286 33.9301 12.0752 33.5998 11.6388H33.56C33.5857 11.8485 33.5983 12.0594 33.5977 12.2705V12.7907H31.2905L31.2842 0ZM36.1084 11.0736C37.4613 11.0736 38.5793 10.0468 38.5793 8.22792C38.5793 6.48142 37.5746 5.34707 36.1273 5.34707C34.8541 5.34707 33.6544 6.21152 33.6544 8.24552C33.6586 9.66932 34.4703 11.0736 36.1126 11.0736H36.1084Z" fill="#989FB5"/>
<path d="M41.9268 3.6014H44.2822V4.66339C44.2819 4.87444 44.2693 5.08532 44.2445 5.2951H44.2822C44.6146 4.70332 45.1186 4.21057 45.7369 3.87306C46.3551 3.53555 47.0627 3.36687 47.7788 3.38627C49.9602 3.38627 51.1956 4.44825 51.1956 6.87927V12.7837H48.7625V7.3467C48.7625 6.22996 48.4521 5.47699 47.1936 5.47699C45.8805 5.47699 44.9157 6.25929 44.5486 7.34866C44.4212 7.74554 44.3624 8.15883 44.3745 8.57297V12.7837H41.9268V3.6014Z" fill="#989FB5"/>
<path d="M52.2275 0H54.6774V3.94283C54.6774 4.39266 54.6397 4.72514 54.6397 4.72514H54.6774C54.6774 4.72514 55.5479 3.39326 57.6328 3.39326C60.2966 3.39326 61.9977 5.34903 61.9977 8.20054C61.9977 11.1166 60.0848 13.0078 57.4776 13.0078C56.905 13.0233 56.3372 12.9063 55.8248 12.6675C55.3124 12.4286 54.8714 12.0752 54.5411 11.6388H54.5033C54.5291 11.8485 54.5417 12.0594 54.5411 12.2705V12.7907H52.2275V0ZM57.0518 11.0736C58.4047 11.0736 59.5226 10.0468 59.5226 8.22792C59.5226 6.48142 58.5179 5.34707 57.0707 5.34707C55.7975 5.34707 54.5998 6.21152 54.5998 8.24552C54.604 9.66932 55.4136 11.0736 57.0518 11.0736Z" fill="#989FB5"/>
<path d="M4.89991 3.74414C3.93115 3.74337 2.98391 4.0105 2.17799 4.51174C1.37206 5.01298 0.743665 5.72582 0.372267 6.56009C0.000870144 7.39437 -0.096841 8.31261 0.0914924 9.19867C0.279826 10.0847 0.745744 10.8988 1.43032 11.5379C2.11489 12.1771 2.98737 12.6126 3.9374 12.7893C4.88743 12.9661 5.87233 12.8761 6.76754 12.5309C7.66276 12.1857 8.42806 11.6006 8.96666 10.8498C9.50526 10.099 9.79296 9.21612 9.79337 8.31282C9.79393 7.10199 9.27875 5.94052 8.36111 5.08378C7.44346 4.22704 6.19848 3.74518 4.89991 3.74414ZM4.89991 10.9492C4.3401 10.9496 3.79275 10.7951 3.32712 10.5054C2.86148 10.2156 2.49849 9.80359 2.28407 9.32141C2.06965 8.83924 2.01344 8.3086 2.12255 7.79663C2.23166 7.28466 2.50119 6.81438 2.89703 6.44528C3.29287 6.07619 3.79724 5.82487 4.34631 5.72313C4.89538 5.62139 5.46448 5.67381 5.98159 5.87374C6.49871 6.07367 6.9406 6.41213 7.25135 6.8463C7.5621 7.28048 7.72775 7.79084 7.72734 8.31282C7.72623 9.01207 7.42812 9.68245 6.89823 10.1773C6.36835 10.6721 5.64983 10.951 4.89991 10.9531V10.9492Z" fill="#989FB5"/>
</g>
<defs>
<clipPath id="clip0_877_7854">
<rect width="62" height="13" fill="white"/>
</clipPath>
</defs>
</svg>
