<svg width="81" height="29" viewBox="0 0 81 29" fill="none" xmlns="http://www.w3.org/2000/svg">
<path fill-rule="evenodd" clip-rule="evenodd" d="M1.37305 20.5503C1.50529 20.4372 1.63753 20.3725 1.78447 20.3079C2.19589 20.1139 2.62201 19.9523 3.04812 19.823C3.76811 19.6129 4.4881 19.4513 5.22278 19.322C5.72236 19.225 6.22195 19.1604 6.73622 19.0796C6.89785 19.0634 7.07418 19.0472 7.23581 19.0311C7.706 18.9664 8.1762 18.9341 8.6464 18.8856C9.17537 18.821 9.70434 18.7886 10.248 18.7563C10.7476 18.724 11.2472 18.6917 11.7468 18.6593C12.1141 18.6432 12.4814 18.627 12.8488 18.6109C14.4651 18.5462 16.0814 18.5624 17.6977 18.5947C18.256 18.6109 18.7997 18.6593 19.3581 18.7401C19.8723 18.821 20.3866 18.9341 20.8862 19.0634C22.1499 19.3866 23.3106 19.92 24.3833 20.7119C24.6919 20.9382 25.0004 21.1968 25.2649 21.4715C25.309 21.52 25.3384 21.5524 25.3825 21.6008C25.4118 21.6332 25.3971 21.6655 25.3678 21.6978C25.3531 21.714 25.3384 21.7301 25.3237 21.7301C25.0151 21.9726 24.7065 22.215 24.3833 22.4574C24.3686 22.4736 24.3539 22.4736 24.3539 22.4736C24.3245 22.4898 24.2951 22.4898 24.2657 22.4574C24.1335 22.215 23.9278 22.0534 23.6927 21.9079C23.3694 21.714 23.0168 21.5685 22.6494 21.4554C22.1205 21.2938 21.5768 21.1806 21.0184 21.0837C20.5189 21.0028 20.0046 20.9382 19.505 20.9059C19.0642 20.8735 18.6087 20.8412 18.1679 20.8089C17.1687 20.7604 16.1695 20.7443 15.1557 20.7927C14.7443 20.8089 14.3475 20.8412 13.9361 20.9059C13.5835 20.9544 13.2308 21.0028 12.8782 21.0513C12.4961 21.116 12.1141 21.1645 11.7321 21.2453C10.9974 21.3907 10.2774 21.5362 9.54271 21.714C8.54354 21.9564 7.52968 22.215 6.54521 22.4898C5.60481 22.7484 4.67912 23.0393 3.73872 23.3463C3.70934 23.3625 3.67995 23.3625 3.66525 23.3625C3.62117 23.3787 3.57709 23.3787 3.54771 23.314C3.38608 23.0393 3.19506 22.7968 3.00404 22.5544C2.50446 21.9241 1.99018 21.3261 1.46121 20.7281C1.46121 20.6796 1.40243 20.6311 1.37305 20.5503Z" fill="#989FB5"/>
<path fill-rule="evenodd" clip-rule="evenodd" d="M14.4267 10.6594C14.0969 10.6145 13.7814 10.7043 13.4802 10.824C12.9066 11.0484 12.3186 11.2429 11.745 11.4673C11.2574 11.6468 10.7555 11.8263 10.2679 11.9909C9.85199 12.1255 9.43611 12.1255 9.00588 12.0507C8.87682 12.0208 8.76209 11.9759 8.64736 11.8862C8.50395 11.7815 8.40357 11.6618 8.34621 11.4972C8.21714 11.1531 8.2028 10.809 8.30318 10.45C8.34621 10.2704 8.46093 10.1059 8.59 9.97123C8.73341 9.82163 8.89116 9.68699 9.06325 9.58226C9.27836 9.43266 9.49347 9.29801 9.70858 9.14841C10.7124 8.49014 11.5872 7.69724 12.3473 6.73976C12.6771 6.33583 13.0357 5.94686 13.4229 5.57284C13.6523 5.3634 13.8961 5.16891 14.1686 5.0193C14.3694 4.91458 14.5701 4.83978 14.7852 4.83978C15.0434 4.82482 15.2872 4.89962 15.5166 5.03427C15.7461 5.18387 15.9468 5.3634 16.1333 5.57284C16.4058 5.88701 16.6352 6.23111 16.879 6.5752C17.6247 7.66732 18.3704 8.75943 19.1162 9.85155C19.3169 10.1508 19.5177 10.45 19.6898 10.7492C19.7328 10.824 19.7758 10.8988 19.8189 10.9886C19.9336 11.2279 19.9336 11.4523 19.8332 11.6917C19.7328 11.9311 19.5607 12.1106 19.3456 12.2303C19.0875 12.3649 18.8007 12.4098 18.5139 12.3799C18.2557 12.35 18.0119 12.2752 17.7825 12.1854C17.3092 11.9909 16.8503 11.7515 16.4201 11.4673C16.1333 11.2728 15.8321 11.0933 15.531 10.9137C15.4449 10.8689 15.3589 10.824 15.2728 10.7641C15.1151 10.6744 14.943 10.6295 14.7709 10.6445C14.6131 10.6744 14.5128 10.6594 14.4267 10.6594Z" fill="#989FB5"/>
<path fill-rule="evenodd" clip-rule="evenodd" d="M24.7115 22.5766C24.697 22.6069 24.6826 22.6372 24.6682 22.6675C24.5673 22.8342 24.4664 23.0009 24.3654 23.1676C24.2645 23.3495 24.1636 23.5162 24.0482 23.6981C24.005 23.7738 23.9761 23.7738 23.9041 23.7284C23.6878 23.5768 23.4571 23.501 23.212 23.4404C22.7074 23.304 22.1883 23.1979 21.6693 23.1373C21.2223 23.0919 20.7753 23.0464 20.314 23.0161C20.0256 23.0009 19.7228 23.0009 19.4345 22.9706C18.9731 22.9403 18.5117 22.9403 18.0648 22.9555C17.6755 22.9555 17.2718 22.9706 16.8825 23.0009C16.2193 23.0464 15.5704 23.1222 14.9216 23.2737C13.6817 23.5617 12.4417 23.8496 11.2018 24.1375C10.2214 24.3649 9.24093 24.6073 8.24609 24.8346C7.43868 25.0165 6.63127 25.2135 5.83828 25.4105C5.82386 25.4105 5.80944 25.4257 5.79503 25.4257C5.72294 25.4408 5.70852 25.4257 5.66526 25.3651C5.54992 25.1226 5.43457 24.865 5.31923 24.6225C5.16063 24.2739 5.01645 23.9405 4.85785 23.592C4.84344 23.5617 4.82902 23.5465 4.82902 23.5162C4.78576 23.4253 4.80018 23.4101 4.87227 23.3798C5.03087 23.3192 5.18947 23.2586 5.36248 23.2131C6.22757 22.9555 7.09265 22.7585 7.95773 22.5766C8.66421 22.4251 9.35628 22.3038 10.0628 22.1826C10.5674 22.0917 11.072 22.0159 11.5767 21.9553C12.038 21.8947 12.485 21.834 12.9464 21.7886C13.4654 21.7431 13.97 21.6825 14.4891 21.6219C14.936 21.5764 15.383 21.5309 15.8444 21.5006C16.2337 21.4703 16.6085 21.44 16.9978 21.4097C17.5313 21.3794 18.0648 21.3491 18.6126 21.3339C18.9731 21.3188 19.348 21.3036 19.7084 21.3188C20.1986 21.3339 20.6888 21.3642 21.1791 21.4249C21.8134 21.5006 22.4334 21.6219 23.0534 21.8037C23.5724 21.9704 24.0915 22.1674 24.5529 22.4705C24.5961 22.5008 24.625 22.516 24.6682 22.5463C24.6826 22.5311 24.697 22.5463 24.7115 22.5766Z" fill="#989FB5"/>
<path fill-rule="evenodd" clip-rule="evenodd" d="M11.9399 17.6802C11.9399 17.9518 11.9399 18.2092 11.9399 18.4809C11.9399 18.538 11.9247 18.5666 11.8334 18.5666C11.6659 18.5666 11.4984 18.5666 11.3309 18.5666C11.0721 18.5523 10.8284 18.4809 10.6 18.3522C10.3717 18.2235 10.2194 18.0233 10.1737 17.7803C10.0976 17.48 10.0519 17.1797 10.0215 16.8795C9.9301 16.2647 9.85397 15.6356 9.77784 15.0208C9.73216 14.6061 9.68648 14.1772 9.6408 13.7626C9.62558 13.6482 9.61035 13.5481 9.61035 13.4337C9.61035 13.3765 9.62558 13.3479 9.68648 13.3336C10.0062 13.2049 10.3412 13.0906 10.6762 12.9762C11.2548 12.776 11.8334 12.6044 12.4424 12.4758C13.0514 12.3328 13.6453 12.3757 14.2391 12.533C15.1831 12.7903 16.051 13.1764 16.8732 13.6768C17.1168 13.8198 17.33 13.977 17.5431 14.1629C17.7563 14.3488 17.8476 14.5775 17.8476 14.8349C17.8476 15.2066 17.802 15.5784 17.7411 15.9358C17.6192 16.6793 17.4518 17.4228 17.2691 18.152C17.2538 18.1949 17.2386 18.2378 17.2386 18.2807C17.2234 18.3379 17.1929 18.3522 17.132 18.3522C16.7361 18.3522 16.325 18.3522 15.9292 18.3522C15.8835 18.3522 15.853 18.3236 15.853 18.2807C15.8683 18.0662 15.8835 17.8517 15.8987 17.6373C15.9139 17.4085 15.9444 17.1797 15.9596 16.951C15.9901 16.6793 16.0053 16.3934 16.0357 16.1217C16.0357 16.0645 16.0357 16.0073 16.0205 15.9501C15.9444 15.6785 15.8074 15.4354 15.6094 15.2209C15.3049 14.8921 14.8938 14.7491 14.437 14.7777C13.7823 14.8349 13.2189 15.078 12.7317 15.4783C12.3815 15.7643 12.1531 16.1217 12.0161 16.5363C11.9704 16.6793 11.9399 16.808 11.9399 16.951C11.9399 17.2226 11.9399 17.4514 11.9399 17.6802Z" fill="#989FB5"/>
<path fill-rule="evenodd" clip-rule="evenodd" d="M67.7057 16.0372C67.7337 16.0935 67.7896 16.1076 67.8176 16.1499C68.2234 16.4739 68.6291 16.8119 69.0208 17.1641C69.4266 17.5163 69.8183 17.8684 70.2101 18.2488C70.322 18.3614 70.4339 18.4741 70.5598 18.5727C70.7417 18.7136 70.7557 19.0376 70.5738 19.2207C70.4899 19.3052 70.3919 19.3897 70.308 19.4602C70.2101 19.5306 70.0981 19.5869 69.9722 19.5869C69.9442 19.5869 69.9162 19.5869 69.9023 19.5869C69.7064 19.601 69.5665 19.5306 69.4266 19.4038C69.1468 19.1221 68.8529 18.8545 68.5451 18.6009C68.2513 18.3614 67.9715 18.1079 67.6917 17.8684C67.5098 17.7135 67.3279 17.5585 67.1461 17.4177C67.1041 17.3754 67.0481 17.3331 66.9922 17.3191C66.9362 17.305 66.8662 17.3472 66.8662 17.4036C66.9082 17.6571 66.8662 17.9248 66.9082 18.1924C66.9642 18.5868 67.0341 18.9812 67.0061 19.3757C67.0061 19.4743 66.9782 19.5729 66.9222 19.6715C66.8662 19.756 66.7963 19.8264 66.7123 19.8546C66.5025 19.9391 66.2786 19.9673 66.0548 19.9109C65.9288 19.8828 65.8449 19.8123 65.7889 19.6856C65.621 19.3052 65.5091 18.8967 65.4252 18.4882C65.3692 18.2206 65.3412 17.9529 65.2993 17.6994C65.2293 17.15 65.2153 16.5866 65.2293 16.0372C65.2433 15.7555 65.2573 15.4738 65.2853 15.192C65.2993 15.0371 65.3132 14.8821 65.3272 14.7272C65.3552 14.4877 65.3832 14.2623 65.3972 14.0229C65.4112 13.8116 65.4112 13.6003 65.3832 13.389C65.3552 13.2199 65.3552 13.065 65.3272 12.896C65.3132 12.741 65.2853 12.5861 65.2713 12.417C65.2293 12.093 65.1873 11.7831 65.2293 11.4592C65.2573 11.2197 65.2993 10.9802 65.3972 10.7548C65.4671 10.6281 65.5511 10.5295 65.691 10.459C65.8169 10.4027 65.9428 10.3604 66.0688 10.3463C66.2227 10.3323 66.3766 10.3182 66.5165 10.3463C66.6844 10.3886 66.8383 10.5436 66.8522 10.7126C66.8522 10.7408 66.8522 10.783 66.8522 10.8112C66.8522 11.5578 66.8662 12.3043 66.8522 13.0368C66.8383 13.5298 66.8383 14.0088 66.8243 14.5018C66.8243 14.6567 66.8522 14.8258 66.8522 14.9807C66.8522 15.0512 66.8942 15.0793 66.9642 15.0934C67.0901 15.1075 67.202 15.0934 67.3 15.0089C67.4818 14.8399 67.6777 14.6849 67.8736 14.53C68.0974 14.3328 68.3493 14.1919 68.6431 14.1356C68.769 14.1074 68.8809 14.1215 69.0068 14.1496C69.1747 14.1778 69.3286 14.2623 69.4685 14.375C69.5805 14.4736 69.6084 14.6004 69.5525 14.7413C69.5105 14.854 69.4126 14.9385 69.3146 15.0089C69.0628 15.1639 68.797 15.3188 68.5451 15.4738C68.3353 15.5864 68.1394 15.7132 67.9435 15.8541C67.8736 15.9104 67.8036 15.9809 67.7337 16.0372C67.7337 15.9949 67.7197 16.009 67.7057 16.0372Z" fill="#989FB5"/>
<path fill-rule="evenodd" clip-rule="evenodd" d="M52.3916 12.834C52.3916 13.4957 52.3916 14.1715 52.3916 14.8332C52.3916 14.8896 52.3916 14.9318 52.3916 14.9881C52.3916 15.0444 52.4197 15.0867 52.49 15.0867C52.5603 15.1007 52.6306 15.1007 52.7009 15.1007C52.7431 15.1007 52.7712 15.0726 52.7994 15.0444C52.9962 14.8755 53.2071 14.7206 53.404 14.5376C53.5587 14.4109 53.7133 14.2982 53.8961 14.2138C54.2899 14.0167 54.6695 14.0871 55.0211 14.3264C55.1335 14.3968 55.1757 14.5798 55.1195 14.6924C55.0632 14.8192 54.9789 14.9177 54.8523 14.9881C54.5008 15.1852 54.1633 15.3964 53.8118 15.6076C53.629 15.7061 53.4743 15.8328 53.3196 15.9595C53.2212 16.0299 53.2212 16.0722 53.3196 16.1426C53.5165 16.2974 53.7274 16.4664 53.9243 16.6212C54.1492 16.8043 54.3602 16.9873 54.5852 17.1844C55.0492 17.5927 55.5132 18.001 55.9491 18.4233C56.0194 18.4937 56.0897 18.55 56.16 18.6204C56.3288 18.7894 56.3288 19.0146 56.1741 19.1836C56.0757 19.2821 55.9772 19.3807 55.8647 19.4652C55.7663 19.5496 55.6398 19.5919 55.5132 19.5919C55.457 19.5919 55.4148 19.5919 55.3585 19.5919C55.2179 19.5919 55.1054 19.5356 55.0211 19.4511C54.8242 19.254 54.6133 19.0569 54.4024 18.8739C54.0789 18.5923 53.7555 18.3107 53.4181 18.0432C53.1649 17.832 52.9118 17.6208 52.6587 17.3956C52.6166 17.3674 52.5884 17.3252 52.5322 17.3111C52.4619 17.297 52.4056 17.3252 52.4197 17.3956C52.4197 17.5645 52.4056 17.7335 52.4338 17.9165C52.4759 18.184 52.49 18.4515 52.5322 18.719C52.5603 18.9302 52.5603 19.1414 52.5744 19.3525C52.5744 19.62 52.4197 19.8031 52.1806 19.8875C51.9978 19.9438 51.801 19.9579 51.6182 19.9157C51.4916 19.8875 51.4073 19.8312 51.3651 19.7045C51.2948 19.5356 51.2245 19.3666 51.1682 19.1836C51.0417 18.7894 50.9573 18.3811 50.9011 17.9728C50.8729 17.7898 50.8589 17.6068 50.8448 17.4237C50.7886 16.8747 50.8026 16.3397 50.8167 15.7906C50.8167 15.5513 50.8589 15.3119 50.8729 15.0585C50.887 14.9177 50.9011 14.7628 50.9151 14.6221C50.9432 14.3968 50.9714 14.1715 50.9854 13.9322C50.9854 13.8618 50.9995 13.7914 50.9854 13.721C50.9573 13.4535 50.9432 13.186 50.9151 12.9185C50.887 12.6651 50.8308 12.4258 50.8167 12.1723C50.7886 11.7781 50.7745 11.398 50.887 11.0038C50.9151 10.9334 50.9292 10.863 50.9714 10.7926C51.0557 10.6096 51.1963 10.4688 51.3791 10.4125C51.6182 10.3421 51.8572 10.2999 52.1103 10.3562C52.265 10.3843 52.4056 10.5251 52.4197 10.68C52.4197 10.7363 52.4197 10.7785 52.4197 10.8349C52.3916 11.4966 52.3916 12.1583 52.3916 12.834Z" fill="#989FB5"/>
<path fill-rule="evenodd" clip-rule="evenodd" d="M8.92383 6.81819C8.92383 6.57311 8.97871 6.34165 9.03359 6.09657C9.17079 5.48388 9.39031 4.89842 9.62355 4.31296C9.92539 3.5505 10.2821 2.81527 10.6388 2.08004C10.6937 1.98474 10.7486 1.88943 10.8172 1.79412C11.1739 1.27674 11.5992 0.813817 12.1069 0.432587C12.4224 0.214741 12.7517 0.0649723 13.1359 0.0377416C13.4926 0.0105109 13.8356 0.105818 14.1237 0.323664C14.3021 0.459817 14.3844 0.650432 14.4119 0.868278C14.4256 1.08612 14.3981 1.29035 14.3433 1.49458C14.2335 1.87581 14.0689 2.22981 13.8768 2.5702C13.5063 3.25096 13.0536 3.89089 12.5871 4.50358C12.3264 4.84396 12.052 5.18434 11.7776 5.52473C11.5169 5.8515 11.2425 6.17827 10.9544 6.4778C10.8995 6.53226 10.8584 6.61396 10.8172 6.68203C10.6388 6.95434 10.4468 7.21303 10.1724 7.39003C10.0214 7.49895 9.85679 7.56703 9.67843 7.58065C9.52751 7.59426 9.37659 7.56703 9.23939 7.49895C9.06103 7.41726 8.96499 7.26749 8.93755 7.07688C8.92383 6.99519 8.92383 6.89988 8.92383 6.81819Z" fill="#989FB5"/>
<path fill-rule="evenodd" clip-rule="evenodd" d="M6.86426 25.9829C6.97769 25.9318 7.10531 25.9318 7.21874 25.9063C7.45979 25.8552 7.70083 25.8296 7.94188 25.7913C8.32472 25.7274 8.70756 25.6636 9.0904 25.5869C9.55832 25.5103 10.0121 25.4337 10.48 25.357C11.0188 25.2676 11.5576 25.1782 12.0964 25.1016C12.5643 25.0249 13.0464 24.9483 13.5143 24.8717C13.9114 24.8078 14.2942 24.7439 14.6912 24.6928C15.1024 24.629 15.5278 24.5523 15.939 24.4885C16.2935 24.4374 16.6479 24.3863 17.0024 24.3352C17.286 24.2969 17.5696 24.2458 17.8532 24.2075C18.1084 24.1692 18.3636 24.1564 18.6189 24.1181C18.8599 24.0798 19.1151 24.0925 19.3562 24.0798C19.5831 24.0542 19.8099 24.0542 20.0368 24.067C20.3771 24.0798 20.7032 24.0925 21.0435 24.1181C21.4689 24.1692 21.8943 24.233 22.3055 24.3735C22.6174 24.4757 22.9152 24.6034 23.1704 24.795C23.3973 24.9738 23.3831 24.9355 23.1988 25.1016C22.8868 25.3953 22.5891 25.6763 22.2771 25.9701C22.2488 25.9957 22.2346 26.0084 22.2062 26.034C22.107 26.1234 22.0928 26.1362 21.9935 26.034C21.8801 25.919 21.7241 25.8552 21.5682 25.8041C21.2846 25.7019 21.001 25.6508 20.7032 25.6125C20.2211 25.5614 19.7532 25.5742 19.2711 25.5869C19.0726 25.5869 18.8741 25.6253 18.6756 25.638C18.5054 25.6508 18.3353 25.6508 18.1793 25.6763C17.9099 25.7019 17.6405 25.7019 17.3711 25.7274C17.0733 25.7658 16.7614 25.7402 16.4636 25.7785C16.4494 25.7785 16.4353 25.7785 16.4211 25.7785C16.1233 25.7913 15.8114 25.8041 15.5136 25.8168C15.1733 25.8296 14.8188 25.8552 14.4785 25.8807C14.4643 25.8807 14.4502 25.8807 14.436 25.8807C14.1524 25.8935 13.8546 25.9063 13.571 25.919C13.3584 25.9318 13.1315 25.9573 12.9188 25.9701C12.8763 25.9701 12.8479 25.9701 12.8054 25.9829C12.5501 25.9957 12.3091 26.0212 12.0539 26.0468C11.8979 26.0595 11.7419 26.0723 11.586 26.0851C11.3307 26.1106 11.0755 26.1362 10.8203 26.1617C10.5367 26.2 10.2531 26.2511 9.96952 26.2894C9.5725 26.3533 9.17548 26.4299 8.77846 26.5321C8.50905 26.596 8.25383 26.6726 7.9986 26.7876C7.94188 26.8131 7.89934 26.8131 7.84263 26.762C7.60158 26.5704 7.34635 26.3661 7.10531 26.1745C7.03441 26.1362 6.93515 26.0851 6.86426 25.9829Z" fill="#989FB5"/>
<path fill-rule="evenodd" clip-rule="evenodd" d="M29.6629 16.6904C29.8827 16.3209 30.0475 15.9217 30.1986 15.5226C30.4459 14.9017 30.6244 14.2661 30.803 13.6156C30.9404 13.1426 31.0777 12.6843 31.2014 12.2113C31.2838 11.9008 31.4899 11.7382 31.7921 11.7087C31.9706 11.6939 32.1355 11.7087 32.3141 11.753C32.5201 11.8121 32.7124 11.9304 32.8773 12.0635C32.9322 12.1078 32.9597 12.1669 32.946 12.2408C32.9185 12.3887 32.891 12.5365 32.8498 12.6695C32.8361 12.7139 32.7948 12.7582 32.7536 12.8026C32.424 13.1574 32.5064 13.0539 32.369 13.5417C31.8882 15.3304 31.2426 17.0452 30.4596 18.7009C30.4321 18.76 30.4046 18.8044 30.3772 18.8635C30.2673 19.0705 30.0887 19.1887 29.8689 19.2331C29.7728 19.2478 29.6903 19.2626 29.5942 19.2478C29.4843 19.2331 29.3881 19.1887 29.292 19.1C29.0997 18.9078 28.9348 18.6861 28.7837 18.4496C28.4952 18.0061 28.2617 17.5331 28.0557 17.0452C27.8771 16.6165 27.6848 16.1878 27.4787 15.7739C27.2315 15.2713 27.0117 14.7687 26.8331 14.2365C26.8194 14.1922 26.8056 14.1478 26.7919 14.1035C26.7369 13.8669 26.7919 13.66 26.9705 13.5122C27.0941 13.4087 27.2315 13.3348 27.3826 13.2904C27.5749 13.2461 27.7535 13.2461 27.932 13.3052C28.0557 13.3495 28.1518 13.4235 28.2342 13.5269C28.3441 13.6896 28.4403 13.8669 28.5227 14.0443C28.6601 14.3252 28.77 14.6209 28.8661 14.9165C29.0035 15.3304 29.1409 15.7591 29.3194 16.1583C29.3881 16.3061 29.4705 16.4539 29.5392 16.6017C29.5942 16.6165 29.6079 16.6609 29.6629 16.6904Z" fill="#989FB5"/>
<path fill-rule="evenodd" clip-rule="evenodd" d="M77.7098 16.0255C77.7574 16.0119 77.7733 15.9711 77.7892 15.944C77.9639 15.6994 78.1387 15.4684 78.3293 15.2374C78.4722 15.0607 78.647 14.9112 78.8535 14.8025C79.1076 14.653 79.3777 14.5987 79.6795 14.6395C79.6954 14.6395 79.7271 14.6395 79.743 14.6395C79.9178 14.6395 80.029 14.6938 80.1084 14.8433C80.3784 15.3053 80.569 15.7673 80.6802 16.2701C80.7438 16.569 80.7914 16.868 80.8232 17.1669C80.8391 17.3843 80.8391 17.6154 80.8709 17.8328C80.9026 18.0774 80.8867 18.322 80.9185 18.553C80.9503 18.784 80.9185 19.015 80.9821 19.2324C81.0138 19.3275 80.9979 19.4362 80.9821 19.5449C80.9821 19.6672 80.9026 19.7759 80.7597 19.8167C80.5055 19.8846 80.2355 19.9526 79.9495 19.939C79.9019 19.939 79.8701 19.939 79.8225 19.9254C79.6477 19.8846 79.5683 19.8031 79.5524 19.6536C79.5206 19.3003 79.473 18.947 79.4571 18.6073C79.4412 18.3763 79.4412 18.1453 79.4253 17.9007C79.3936 17.5338 79.3777 17.1669 79.33 16.7865C79.3141 16.6098 79.2824 16.4331 79.2506 16.2565C79.2506 16.2157 79.2347 16.1886 79.2188 16.1478C79.2029 16.1206 79.1871 16.1206 79.1712 16.1342C79.1235 16.175 79.06 16.2157 79.0282 16.2701C78.9329 16.3788 78.8535 16.5011 78.7741 16.6098C78.5517 16.9495 78.3928 17.3164 78.2181 17.6833C78.0434 18.091 77.8527 18.485 77.6145 18.8791C77.5668 18.9742 77.5033 19.0422 77.408 19.1237C77.2015 19.2867 76.9632 19.3139 76.6931 19.2596C76.5661 19.2324 76.4707 19.1644 76.3913 19.0557C76.3119 18.9199 76.2642 18.784 76.2484 18.6345C76.2325 18.5258 76.2325 18.4307 76.2166 18.322C76.1848 18.1453 76.2325 17.9687 76.2642 17.792C76.296 17.6154 76.3437 17.4251 76.3754 17.2485C76.4072 17.099 76.3913 16.9359 76.3754 16.7865C76.3437 16.5419 76.2801 16.2837 76.2325 16.0391C76.1689 15.645 76.1848 15.2509 76.296 14.8569C76.3278 14.7753 76.3437 14.7074 76.4072 14.6395C76.5184 14.5172 76.6614 14.4628 76.8361 14.4492C76.9314 14.4492 77.0426 14.4492 77.1379 14.4492C77.3603 14.4492 77.6145 14.6123 77.678 14.8433C77.7257 15.0199 77.678 15.1694 77.6462 15.3325C77.6303 15.4276 77.5986 15.5227 77.5668 15.6178C77.5509 15.6586 77.5509 15.6994 77.535 15.7401C77.5509 15.9032 77.5509 15.9032 77.7098 16.0255Z" fill="#989FB5"/>
<path fill-rule="evenodd" clip-rule="evenodd" d="M38.3939 14.5199C38.4096 15.5779 38.4254 16.6359 38.4096 17.6939C38.4096 18.1313 38.3466 18.5545 38.2363 18.9636C38.1732 19.1611 38.1102 19.3586 38.0156 19.542C37.8895 19.81 37.6689 19.9652 37.2591 19.937C37.0857 19.9229 36.9123 19.8805 36.7389 19.81C36.534 19.7254 36.4237 19.5702 36.3922 19.3727C36.3764 19.2457 36.3764 19.1188 36.408 18.9918C36.5813 18.4134 36.6601 17.8209 36.6917 17.2284C36.7547 16.2409 36.7705 15.2393 36.7862 14.2518C36.7862 13.885 36.7547 13.5324 36.7074 13.1797C36.6601 12.7565 36.5971 12.3333 36.5971 11.9101C36.5971 11.6279 36.6128 11.3599 36.7074 11.0919C36.7389 10.9931 36.7862 10.8803 36.8493 10.7956C36.9911 10.5417 37.2275 10.4006 37.527 10.3442C37.6689 10.3301 37.8265 10.316 37.9683 10.3583C38.1575 10.4147 38.2835 10.5135 38.3624 10.6828C38.3939 10.7674 38.4096 10.852 38.4254 10.9508C38.4412 11.2047 38.4412 11.4586 38.4412 11.7267C38.3939 12.6577 38.3781 13.5888 38.3939 14.5199Z" fill="#989FB5"/>
<path fill-rule="evenodd" clip-rule="evenodd" d="M41.1548 12.8311C41.1548 13.381 41.139 13.9167 41.1548 14.4666C41.1705 15.524 41.1705 16.5673 41.1705 17.6247C41.1705 18.0759 41.1075 18.5271 40.9814 18.9782C40.9341 19.1756 40.8553 19.3589 40.7607 19.5422C40.6346 19.8101 40.414 19.9652 40.0042 19.937C39.8308 19.9229 39.6574 19.8806 39.4841 19.8101C39.2792 19.7255 39.1688 19.5704 39.1373 19.373C39.1215 19.2461 39.1215 19.1192 39.1531 18.9923C39.3107 18.4284 39.4052 17.8644 39.4368 17.2864C39.4998 16.2854 39.5156 15.2702 39.5313 14.2692C39.5313 13.9026 39.4998 13.522 39.4525 13.1554C39.4052 12.7465 39.3422 12.3236 39.3422 11.9147C39.3422 11.6468 39.3422 11.3789 39.4368 11.1111C39.4683 11.0124 39.5156 10.8996 39.5629 10.8009C39.7047 10.5471 39.9254 10.392 40.2406 10.3497C40.3982 10.3215 40.5558 10.3215 40.7134 10.3638C40.9026 10.4202 41.0287 10.5189 41.1075 10.6881C41.139 10.7727 41.1548 10.8432 41.1705 10.9278C41.1863 11.1393 41.1863 11.3367 41.1863 11.5481C41.1863 11.9711 41.1705 12.4082 41.1548 12.8311Z" fill="#989FB5"/>
<path fill-rule="evenodd" clip-rule="evenodd" d="M64.5094 11.6629C64.5094 11.8604 64.5251 12.0579 64.5094 12.2553C64.462 12.9465 64.4936 13.6235 64.4778 14.3146C64.4778 14.4697 64.4778 14.639 64.5094 14.7941C64.5251 14.9493 64.5094 15.1185 64.4936 15.2737C64.4936 15.316 64.4778 15.3583 64.4778 15.4006C64.5251 15.6968 64.4936 16.0071 64.5094 16.3033C64.5094 16.6136 64.4936 16.9239 64.5094 17.2342C64.5251 17.5445 64.4936 17.8689 64.462 18.1792C64.4147 18.6305 64.32 19.0819 64.1149 19.505C63.9414 19.8435 63.6574 19.9846 63.2315 19.9282C63.0737 19.8999 62.9317 19.8717 62.8055 19.8012C62.6319 19.7166 62.5373 19.5755 62.49 19.4063C62.4426 19.2511 62.4742 19.096 62.5057 18.9549C62.6004 18.6164 62.6635 18.2779 62.7108 17.9394C62.7582 17.6009 62.7739 17.2624 62.8055 16.9239C62.837 16.4444 62.837 15.9789 62.837 15.4994C62.837 15.175 62.8686 14.8506 62.8844 14.5262C62.8844 14.1594 62.8686 13.7927 62.837 13.426C62.8055 13.1298 62.7582 12.8477 62.7266 12.5515C62.7108 12.2553 62.6477 11.9591 62.6793 11.6629C62.7108 11.3668 62.7739 11.0706 62.9317 10.7885C63.0737 10.5487 63.2946 10.4077 63.5943 10.3512C63.7363 10.323 63.8783 10.323 64.0203 10.3512C64.2727 10.4077 64.4305 10.5487 64.4778 10.7885C64.5094 10.9013 64.5251 11.0282 64.5251 11.1552C64.5094 11.3244 64.5094 11.4937 64.5094 11.6629Z" fill="#989FB5"/>
<path fill-rule="evenodd" clip-rule="evenodd" d="M13.1264 28.8602C12.9366 28.8602 12.7321 28.8602 12.5131 28.8602C12.2941 28.8602 12.0751 28.8175 11.8561 28.7891C11.6955 28.7748 11.5495 28.7321 11.3889 28.7037C11.0238 28.6325 10.688 28.5187 10.3522 28.3764C10.0164 28.2341 9.69517 28.0633 9.41775 27.8356C9.27174 27.7218 9.12573 27.6079 8.99433 27.4799C8.96513 27.4514 8.95052 27.4372 8.93592 27.4087C8.90672 27.3802 8.93592 27.3375 8.96513 27.3375C9.09653 27.3375 9.22794 27.3375 9.35935 27.3375C9.49076 27.3375 9.62216 27.3518 9.75357 27.3091C9.79737 27.2949 9.84118 27.3091 9.89958 27.3091C10.1478 27.3091 10.396 27.3091 10.6296 27.3091C10.7464 27.3091 10.8632 27.3091 10.98 27.2806C11.0238 27.2664 11.0676 27.2806 11.126 27.2806C11.3013 27.2806 11.4911 27.2806 11.6663 27.2806C11.7539 27.2806 11.8415 27.2806 11.9291 27.2522C11.9875 27.2379 12.0605 27.2379 12.1335 27.2379C12.3379 27.2237 12.5423 27.2522 12.7467 27.2095C12.8051 27.1952 12.8781 27.2095 12.9512 27.2095C13.0972 27.2095 13.2286 27.2237 13.36 27.181C13.4038 27.1668 13.433 27.181 13.4768 27.181C13.5936 27.181 13.7104 27.181 13.8272 27.1525C13.8564 27.1383 13.9002 27.1525 13.9294 27.1525C14.309 27.1241 14.6741 27.0814 15.0391 26.9818C15.1705 26.9533 15.3019 26.9391 15.4333 26.9106C15.6523 26.8679 15.8859 26.9106 16.1049 26.8537C16.1487 26.8395 16.2071 26.8537 16.2655 26.8395C16.4992 26.8252 16.7474 26.8537 16.981 26.811C17.0248 26.7968 17.054 26.811 17.0978 26.811C17.9738 26.811 18.8353 26.811 19.7113 26.811C19.7697 26.811 19.8135 26.811 19.8719 26.811C19.9012 26.811 19.9158 26.8537 19.9012 26.8679C19.7697 27.0529 19.6091 27.2237 19.4339 27.366C19.0981 27.6222 18.7185 27.8072 18.3243 27.9779C17.7402 28.2198 17.127 28.3906 16.5138 28.5329C16.1925 28.6041 15.8859 28.661 15.5647 28.7037C15.2581 28.7464 14.9515 28.7891 14.6449 28.8175C14.1338 28.846 13.6374 28.8745 13.1264 28.8602Z" fill="#989FB5"/>
<path fill-rule="evenodd" clip-rule="evenodd" d="M8.9235 4.79286C8.90802 5.30394 8.90802 5.78583 8.87706 6.26771C8.86158 6.58897 8.75323 6.89562 8.58297 7.17307C8.53654 7.24608 8.47462 7.31909 8.41271 7.3775C8.22697 7.56734 7.99479 7.62575 7.71618 7.55273C7.45304 7.47972 7.22086 7.3483 7.01964 7.18767C6.72555 6.93943 6.50885 6.64738 6.33859 6.31152C6.29216 6.2239 6.2612 6.13629 6.2612 6.04867C6.24572 5.87344 6.23024 5.69821 6.21476 5.50838C6.18381 5.08491 6.16833 4.66143 6.18381 4.23796C6.19929 3.68306 6.2612 3.12817 6.38503 2.57327C6.4779 2.20821 6.60173 1.84314 6.80295 1.52189C6.97321 1.25904 7.17443 1.0254 7.45304 0.850173C7.56139 0.77716 7.68522 0.71875 7.82453 0.71875C7.96383 0.71875 8.07218 0.747955 8.16505 0.83557C8.24244 0.908583 8.31984 0.996198 8.36627 1.08381C8.47462 1.27365 8.55201 1.47808 8.61393 1.69712C8.7068 2.01838 8.75323 2.33963 8.79967 2.67549C8.86158 3.14277 8.87706 3.59545 8.89254 4.06273C8.89254 4.32558 8.90802 4.57382 8.9235 4.79286Z" fill="#989FB5"/>
<path fill-rule="evenodd" clip-rule="evenodd" d="M1.49762 17.1626C1.35448 17.1626 1.22725 17.1465 1.08412 17.1144C0.829658 17.0342 0.702427 16.8576 0.686523 16.5848C0.686523 16.3761 0.734235 16.1675 0.813754 15.9749C0.940985 15.6539 1.10002 15.3489 1.27497 15.06C1.65666 14.4341 2.10197 13.8723 2.57908 13.3106C2.81764 13.0217 3.0721 12.7488 3.34247 12.5081C3.64464 12.2352 3.97862 11.9945 4.34441 11.834C4.53525 11.7538 4.7261 11.6896 4.93285 11.7056C5.18731 11.7056 5.36225 11.8661 5.42587 12.0747C5.50539 12.3155 5.52129 12.5562 5.42587 12.813C5.09189 13.7921 4.67839 14.723 4.07404 15.5736C3.78777 15.9749 3.45379 16.344 3.0562 16.649C2.6745 16.9379 2.261 17.1305 1.79979 17.1947C1.70437 17.1465 1.59304 17.1465 1.49762 17.1626Z" fill="#989FB5"/>
<path fill-rule="evenodd" clip-rule="evenodd" d="M8.05343 13.0746C7.63166 13.0596 7.20989 13.0596 6.78812 12.9998C6.46008 12.9548 6.14766 12.895 5.85085 12.7303C5.38222 12.4608 5.0698 12.0566 4.91359 11.5626C4.67927 10.8739 4.81986 9.84092 5.3666 9.22712C5.78837 8.74806 6.30387 8.43367 6.94433 8.3139C7.38172 8.22408 7.80349 8.26899 8.20964 8.46361C8.50644 8.61332 8.72514 8.83788 8.89697 9.12233C8.94383 9.19718 8.92821 9.21215 8.85011 9.24209C8.50644 9.36186 8.19402 9.54151 7.94408 9.79601C7.5848 10.1403 7.39734 10.5595 7.3661 11.0386C7.33486 11.4278 7.38172 11.8021 7.47545 12.1764C7.52231 12.3261 7.56918 12.4758 7.64728 12.6105C7.74101 12.7602 7.85036 12.9099 8.00657 13.0147C8.02219 13.0147 8.05343 13.0297 8.05343 13.0746Z" fill="#989FB5"/>
<path fill-rule="evenodd" clip-rule="evenodd" d="M1.19827 6.24324C1.40573 6.22709 1.58553 6.324 1.76534 6.40476C1.95897 6.50167 2.13877 6.61473 2.31857 6.74394C2.59519 6.93776 2.85798 7.16388 3.10694 7.39C3.25908 7.53536 3.36972 7.69688 3.4942 7.87455C3.70167 8.16527 3.88147 8.48831 4.00595 8.84364C4.0751 9.03746 4.13042 9.24743 4.11659 9.4574C4.11659 9.50585 4.11659 9.55431 4.10276 9.60276C4.00595 9.90964 3.85381 10.1681 3.57719 10.2811C3.42505 10.3457 3.25908 10.3457 3.0931 10.2811C2.67818 10.1196 2.27708 9.90964 1.90364 9.61891C1.54404 9.31203 1.22593 8.9567 1.00463 8.50446C0.811002 8.11682 0.686523 7.69688 0.686523 7.22848C0.686523 7.09927 0.686523 6.98621 0.686523 6.857C0.686523 6.74394 0.714185 6.63088 0.755678 6.51782C0.838664 6.30785 0.976973 6.21094 1.17061 6.21094C1.17061 6.24324 1.18444 6.24324 1.19827 6.24324Z" fill="#989FB5"/>
<path fill-rule="evenodd" clip-rule="evenodd" d="M33.7155 17.5051C33.7597 17.1528 33.745 16.7392 33.7597 16.3103C33.7744 15.9426 33.8039 15.5903 33.9071 15.238C33.9365 15.1461 33.966 15.0388 34.0102 14.9469C34.1281 14.6559 34.3638 14.4874 34.6585 14.4567C34.9531 14.4261 35.2183 14.4874 35.4541 14.6712C35.513 14.7172 35.5572 14.7631 35.6014 14.8091C35.7046 14.9623 35.734 15.1308 35.6309 15.2993C35.4541 15.6056 35.3952 15.9273 35.3804 16.2796C35.3657 16.586 35.3509 16.9077 35.3067 17.2141C35.3067 17.26 35.292 17.2907 35.2773 17.3366C35.2183 17.5511 35.2036 17.7655 35.2036 17.98C35.2036 18.317 35.2183 18.6693 35.2183 19.0063C35.2183 19.1748 35.2183 19.3586 35.2036 19.5271C35.2036 19.6037 35.1889 19.665 35.1594 19.7263C35.1447 19.7876 35.1005 19.8182 35.0415 19.8335C34.8353 19.8795 34.629 19.9254 34.4227 19.9407C34.3343 19.9407 34.2312 19.9254 34.1428 19.9101C33.9365 19.8642 33.8039 19.7263 33.745 19.5118C33.7008 19.328 33.6713 19.1442 33.6566 18.9604C33.6418 18.6693 33.6271 18.3936 33.6418 18.1025C33.7008 17.9187 33.7008 17.7502 33.7155 17.5051Z" fill="#989FB5"/>
<path fill-rule="evenodd" clip-rule="evenodd" d="M8.89009 15.9619C8.89009 16.342 8.89009 16.707 8.89009 17.0872C8.89009 17.1784 8.87335 17.2848 8.83987 17.3761C8.72267 17.6346 8.60547 17.8931 8.42131 18.1364C8.33759 18.2429 8.25388 18.3493 8.13668 18.4406C8.06971 18.5014 7.986 18.5318 7.90229 18.5622C7.78509 18.5774 7.6679 18.5622 7.5507 18.5014C7.45024 18.4406 7.38327 18.3645 7.3163 18.2885C7.18236 18.1212 7.08191 17.9387 6.9982 17.741C6.93123 17.589 6.94797 17.4217 6.93123 17.2696C6.86426 16.5853 6.84752 15.8858 6.881 15.2015C6.89774 14.8062 6.94797 14.3956 7.06517 14.0154C7.11539 13.8329 7.18236 13.6504 7.29956 13.4832C7.41676 13.3007 7.56744 13.179 7.80184 13.103C8.00274 13.0422 8.17017 13.0878 8.30411 13.2094C8.42131 13.3007 8.50502 13.4223 8.57199 13.544C8.68919 13.7569 8.75616 13.985 8.80638 14.2131C8.89009 14.5476 8.92358 14.8974 8.92358 15.2471C8.89009 15.4448 8.89009 15.7033 8.89009 15.9619Z" fill="#989FB5"/>
<path fill-rule="evenodd" clip-rule="evenodd" d="M4.11864 11.5813C4.09036 11.6338 4.0338 11.66 3.99138 11.6862C3.46816 12.0009 2.90253 12.2369 2.28033 12.3418C1.75711 12.4335 1.26218 12.3942 0.76725 12.2107C0.583418 12.1451 0.413727 12.0402 0.272318 11.9091C-0.0812042 11.5813 -0.0953451 11.07 0.258178 10.716C0.45615 10.5193 0.682405 10.4144 0.951082 10.3489C0.993505 10.3358 1.03593 10.3358 1.07835 10.3358C1.46015 10.3096 1.82782 10.3751 2.19548 10.5062C2.67627 10.6767 3.12878 10.9127 3.55301 11.188C3.75098 11.3191 3.94895 11.4371 4.11864 11.5813Z" fill="#989FB5"/>
<path fill-rule="evenodd" clip-rule="evenodd" d="M4.84434 19.2532C4.82812 19.0792 4.8119 18.9209 4.8119 18.7626C4.8119 18.2087 4.79567 17.6707 4.8119 17.1168C4.82812 16.4521 4.86057 15.7874 4.97413 15.1386C5.02279 14.9012 5.07146 14.6796 5.15258 14.4422C5.18502 14.3314 5.23369 14.2048 5.3148 14.1099C5.47703 13.8725 5.68793 13.7617 5.97994 13.7617C6.14217 13.7617 6.27195 13.825 6.38551 13.92C6.48285 13.9991 6.56396 14.0941 6.62885 14.2048C6.75863 14.4264 6.82353 14.6638 6.85597 14.917C6.88842 15.3918 6.82353 15.8349 6.64508 16.278C6.48285 16.7053 6.27195 17.1168 6.06105 17.5124C5.75282 18.0663 5.39592 18.5886 5.02279 19.095C4.97413 19.1425 4.94168 19.1899 4.84434 19.2532Z" fill="#989FB5"/>
<path fill-rule="evenodd" clip-rule="evenodd" d="M2.74765 5.74095C2.74765 5.56715 2.78052 5.39335 2.86268 5.21954C2.94484 5.04574 3.0763 4.91934 3.28992 4.85614C3.38851 4.84033 3.48711 4.82453 3.56927 4.85614C3.81575 4.91934 4.01294 5.02994 4.1937 5.18794C4.34159 5.33015 4.48948 5.47235 4.60451 5.64615C4.8017 5.94636 4.99889 6.23077 5.14678 6.56257C5.21251 6.70478 5.27824 6.83118 5.27824 6.98918C5.27824 7.03658 5.3111 7.08398 5.32753 7.13139C5.39326 7.28939 5.44256 7.46319 5.47542 7.6212C5.49186 7.7002 5.49186 7.7792 5.49186 7.8582C5.49186 8.12681 5.3111 8.28481 4.99889 8.26901C4.86743 8.26901 4.7524 8.22161 4.63737 8.17421C4.37446 8.06361 4.12797 7.9372 3.91435 7.7634C3.55284 7.47899 3.25705 7.14719 3.027 6.75218C2.84624 6.43617 2.73122 6.10436 2.74765 5.74095Z" fill="#989FB5"/>
<path fill-rule="evenodd" clip-rule="evenodd" d="M33.6417 12.792C33.6417 12.6006 33.6769 12.4267 33.7297 12.2701C33.8 12.0961 33.9056 11.9744 34.064 11.8874C34.3455 11.7308 34.6446 11.6786 34.9614 11.7134C35.1725 11.7482 35.3661 11.8352 35.5068 11.9918C35.6828 12.1831 35.718 12.4093 35.6828 12.6528C35.63 12.966 35.4892 13.2443 35.2605 13.4879C35.0142 13.7488 34.6271 13.8358 34.2751 13.6966C34.0464 13.6096 33.888 13.4531 33.7473 13.2791C33.6417 13.1225 33.6241 12.9486 33.6417 12.792Z" fill="#989FB5"/>
<path fill-rule="evenodd" clip-rule="evenodd" d="M46.1009 13.1981C46.5863 13.3461 46.9308 13.642 47.1344 14.0712C47.3536 14.5299 47.4162 15.0182 47.3223 15.5065C47.2853 15.9495 47.2094 16.3741 47.1329 16.802C47.1123 16.9173 47.0917 17.0328 47.0718 17.149L47.0718 17.1491C47.0091 17.5634 46.9465 17.9777 46.9152 18.4068V18.4068C46.8838 18.8656 46.8525 19.3243 46.7586 19.7682C46.7273 19.9458 46.6646 20.1233 46.5863 20.2861C46.5394 20.3749 46.4924 20.4637 46.4141 20.5229C46.2888 20.6264 46.1322 20.656 45.9756 20.5969C45.8504 20.5525 45.7564 20.4785 45.6938 20.3897C45.6311 20.3157 45.5842 20.2417 45.5372 20.1529C45.4746 20.0493 45.3806 19.9754 45.2397 19.9606C45.0987 19.9384 44.9539 19.9162 44.809 19.894C44.6642 19.8718 44.5194 19.8496 44.3784 19.8274C44.2856 19.8119 44.1909 19.7982 44.0956 19.7845C43.9176 19.7587 43.7376 19.7328 43.5642 19.6942C42.8909 19.561 42.3741 19.2059 42.0453 18.6288C41.9044 18.3772 41.873 18.1109 41.873 17.8297C41.8887 17.6374 41.9044 17.445 41.9513 17.2674C42.014 17.0159 42.1236 16.7791 42.2802 16.5719C42.8126 15.8913 43.5329 15.4917 44.4098 15.3438C44.8795 15.2698 45.3649 15.2698 45.8347 15.2994C46.0539 15.2994 46.0696 15.2994 46.1166 15.107C46.1479 14.9886 46.1479 14.8702 46.1322 14.7519C46.1009 14.5891 46.0226 14.5151 45.8504 14.4855C45.4902 14.4115 45.1144 14.4263 44.7543 14.5151C44.4603 14.5768 44.174 14.6528 43.8899 14.7283C43.7654 14.7613 43.6413 14.7943 43.5172 14.8258C43.4702 14.8258 43.4233 14.8406 43.3763 14.8554C43.2197 14.885 43.1101 14.8406 43.0005 14.7519L43.0005 14.7519C42.9692 14.7223 42.9378 14.6927 42.9222 14.6631C42.7499 14.4115 42.6873 14.1304 42.7186 13.8344C42.7343 13.7604 42.7813 13.716 42.8439 13.6864L42.8439 13.6864C43.1414 13.5385 43.4389 13.3905 43.7521 13.2869C44.2062 13.1537 44.676 13.0797 45.177 13.0797C45.4746 13.0649 45.7877 13.0945 46.1009 13.1981ZM45.741 18.0891C45.788 17.9226 45.835 17.7561 45.882 17.5934C45.9289 17.4306 45.9446 17.2678 45.9446 17.1199C45.9446 16.9423 45.8976 16.7499 45.835 16.5724C45.8037 16.4688 45.788 16.4688 45.6784 16.4836C45.4357 16.528 45.1969 16.5761 44.9581 16.6241C44.7193 16.6722 44.4805 16.7203 44.2378 16.7647C44.0186 16.8091 43.7993 16.8831 43.6114 17.0015C43.2826 17.2086 43.126 17.5046 43.1104 17.8745C43.0947 18.0077 43.1417 18.1261 43.2513 18.2149C43.3296 18.2741 43.4079 18.3332 43.5018 18.3776C44.0342 18.6292 44.5979 18.7624 45.193 18.7624C45.2713 18.7624 45.3652 18.7476 45.4435 18.7328C45.5218 18.718 45.5844 18.6736 45.6001 18.5848C45.6471 18.422 45.6941 18.2556 45.741 18.0891Z" fill="#989FB5"/>
<path fill-rule="evenodd" clip-rule="evenodd" d="M75.0384 13.2417C75.4596 13.4043 75.7715 13.6999 75.9587 14.1138C76.1303 14.4834 76.2083 14.8677 76.1927 15.2964L76.1927 15.2964C76.1771 15.5033 76.1615 15.7103 76.1303 15.9172C76.0947 16.2044 76.0386 16.4916 75.9826 16.7788C75.9406 16.9942 75.8986 17.2096 75.8651 17.425C75.8183 17.7206 75.7715 18.031 75.7559 18.3414C75.7559 18.5632 75.7247 18.7997 75.6935 19.0362L75.6468 19.4796C75.6156 19.7309 75.5376 19.9822 75.444 20.2335C75.4128 20.3074 75.366 20.3813 75.3192 20.4405C75.1476 20.6622 74.8512 20.6918 74.6328 20.4996C74.5776 20.4603 74.5468 20.421 74.5079 20.3714C74.5029 20.3651 74.4978 20.3585 74.4925 20.3518C74.4691 20.3222 74.4496 20.289 74.4301 20.2557C74.4106 20.2224 74.3911 20.1892 74.3677 20.1596C74.3053 20.0561 74.2117 19.9822 74.0713 19.9674C73.9699 19.9527 73.8646 19.9342 73.7593 19.9157C73.654 19.8972 73.5487 19.8788 73.4474 19.864C73.3212 19.8422 73.193 19.8225 73.0634 19.8026C72.8404 19.7683 72.6135 19.7333 72.3866 19.6866C71.7783 19.5683 71.2947 19.2727 70.9672 18.7701C70.7332 18.4154 70.6708 18.0458 70.7176 17.6319C70.7332 17.4841 70.7488 17.3363 70.7956 17.1885C70.8892 16.8633 71.0764 16.5824 71.3103 16.3311C71.8095 15.8138 72.4178 15.4885 73.151 15.3555L73.1575 15.3543C73.5574 15.2814 73.6376 15.2668 74.2117 15.2668C74.3053 15.2742 74.4028 15.2779 74.5003 15.2816C74.5977 15.2853 74.6952 15.289 74.7888 15.2964C74.8512 15.2964 74.8824 15.2816 74.898 15.2373C74.904 15.2147 74.9144 15.1901 74.9251 15.1649C74.9425 15.124 74.9604 15.0817 74.9604 15.0451C74.976 14.9564 74.976 14.8529 74.9604 14.7495C74.9448 14.5869 74.8512 14.4982 74.6952 14.4686C74.4145 14.4243 74.1493 14.4243 73.8685 14.4538C73.5885 14.4884 73.3275 14.5591 73.0632 14.6306C72.9889 14.6507 72.9143 14.6709 72.839 14.6903C72.7249 14.7153 72.6158 14.7449 72.5088 14.774C72.4256 14.7965 72.3437 14.8188 72.2619 14.8381C72.0435 14.8973 71.9031 14.8529 71.7627 14.6755C71.6379 14.5129 71.5755 14.3208 71.5599 14.1138C71.5287 13.7739 71.5443 13.7591 71.8563 13.5965C72.2931 13.36 72.761 13.2121 73.2602 13.1382C73.3194 13.1323 73.3787 13.1258 73.438 13.1193C73.6751 13.0933 73.9122 13.0673 74.1493 13.0791C74.4457 13.0939 74.7576 13.1382 75.0384 13.2417ZM74.5556 18.1058C74.5931 17.9818 74.6302 17.8589 74.6643 17.7361C74.6728 17.6985 74.6819 17.6613 74.6907 17.6248C74.7307 17.4602 74.7679 17.3074 74.7423 17.1744C74.7423 16.8935 74.7111 16.7457 74.6487 16.5683C74.6175 16.4796 74.5863 16.4648 74.4928 16.4796C74.0248 16.5831 73.5724 16.6718 73.1045 16.7605C72.9017 16.8048 72.6833 16.8639 72.4961 16.9674C72.1374 17.1596 71.9502 17.47 71.9346 17.8691C71.919 18.0465 71.997 18.1647 72.1374 18.2682C72.1998 18.3126 72.2778 18.3569 72.3401 18.3865C72.4493 18.4456 72.5585 18.4899 72.6833 18.5343C73.1201 18.6969 73.588 18.7856 74.056 18.7708C74.1184 18.7708 74.1964 18.756 74.2588 18.7412C74.3524 18.7117 74.3992 18.6821 74.4148 18.5934C74.4586 18.4271 74.5075 18.2654 74.5556 18.1058Z" fill="#989FB5"/>
<path fill-rule="evenodd" clip-rule="evenodd" d="M60.4721 13.1983C61.0382 13.3607 61.3998 13.715 61.6043 14.217C61.7301 14.5123 61.793 14.8076 61.7772 15.1914C61.7772 15.5162 61.7458 15.841 61.6986 16.1658C61.671 16.3905 61.6272 16.6201 61.5831 16.8519C61.5518 17.0162 61.5203 17.1816 61.4942 17.3469C61.4511 17.6032 61.4211 17.8717 61.3923 18.13C61.3896 18.1545 61.3868 18.1789 61.3841 18.2032C61.38 18.2606 61.377 18.319 61.374 18.378C61.3652 18.5471 61.3562 18.7221 61.3212 18.8971C61.3 18.9966 61.2931 19.1027 61.2861 19.211C61.2826 19.2635 61.2792 19.3165 61.274 19.3696C61.2583 19.6353 61.1797 19.9011 61.0853 20.1668C61.0738 20.1884 61.0629 20.21 61.052 20.2314C61.0031 20.3276 60.9552 20.4219 60.8652 20.5064C60.6922 20.654 60.4721 20.6688 60.2833 20.5359C60.2047 20.4769 60.1418 20.4178 60.0946 20.344C60.072 20.2908 60.0412 20.2453 60.0081 20.1965C59.9952 20.1775 59.982 20.158 59.9688 20.1373C59.9059 20.0487 59.8273 19.9897 59.7015 19.9749C59.4971 19.9454 59.2927 19.9122 59.0882 19.8789C58.8838 19.8457 58.6794 19.8125 58.475 19.783C58.3885 19.7682 58.3059 19.7535 58.2234 19.7387C58.1408 19.7239 58.0582 19.7092 57.9718 19.6944C57.4685 19.591 57.0282 19.3548 56.698 18.971C56.4307 18.6609 56.2734 18.3066 56.2892 17.8932C56.2892 17.7013 56.3049 17.5093 56.3521 17.3174C56.4307 16.9778 56.6037 16.6678 56.8553 16.4021C57.3742 15.8558 58.0032 15.531 58.758 15.3834C59.1197 15.3243 59.4656 15.3095 59.8273 15.3095C59.9217 15.3169 60.02 15.3206 60.1182 15.3243C60.2165 15.328 60.3148 15.3317 60.4091 15.3391C60.4563 15.3391 60.4878 15.3243 60.5035 15.2948C60.5979 15.1028 60.6293 14.8961 60.5507 14.6895C60.5192 14.5861 60.4406 14.5271 60.3305 14.5123C60.0475 14.4532 59.7644 14.4532 59.4814 14.4828C59.1804 14.5246 58.8952 14.6036 58.609 14.6828C58.4915 14.7154 58.3738 14.748 58.2548 14.778C58.0976 14.8076 57.956 14.8371 57.8145 14.8814C57.6573 14.9257 57.5314 14.8814 57.4214 14.778C57.2641 14.6156 57.1855 14.4237 57.154 14.217C57.1383 14.1137 57.1383 13.9956 57.1383 13.8922C57.1383 13.8036 57.1698 13.7593 57.2484 13.715C57.4843 13.5822 57.7202 13.4493 57.9875 13.3607C58.3649 13.2278 58.758 13.1393 59.1669 13.1097C59.2101 13.106 59.2534 13.1014 59.2966 13.0968C59.4263 13.083 59.5561 13.0691 59.6858 13.0802C59.9531 13.095 60.2204 13.1245 60.4721 13.1983ZM60.2674 17.6858C60.2949 17.5825 60.3225 17.4791 60.346 17.3758C60.3932 17.0953 60.3618 16.8148 60.2674 16.5343C60.236 16.4457 60.2202 16.4457 60.1259 16.4604C59.6384 16.5638 59.1667 16.6524 58.6949 16.741C58.5219 16.7705 58.3647 16.8148 58.2074 16.8886C57.7829 17.0953 57.5312 17.4053 57.5312 17.863C57.5312 18.0106 57.5784 18.1435 57.7042 18.2321C57.7514 18.2764 57.7986 18.3059 57.8615 18.3355C58.3647 18.6012 58.9151 18.7341 59.4969 18.7488H59.7485C59.7745 18.7488 59.7957 18.7399 59.8147 18.7318C59.8303 18.7253 59.8444 18.7193 59.8586 18.7193C59.9529 18.7045 60.0158 18.6455 60.0315 18.5569C60.0551 18.4609 60.0827 18.3687 60.1102 18.2764C60.1377 18.1841 60.1652 18.0918 60.1888 17.9959C60.2124 17.8925 60.2399 17.7892 60.2674 17.6858Z" fill="#989FB5"/>
</svg>
