<svg width="61" height="18" viewBox="0 0 61 18" fill="none" xmlns="http://www.w3.org/2000/svg">
<path fill-rule="evenodd" clip-rule="evenodd" d="M7.59167 0.554239C8.10065 0.688943 8.72131 0.921652 8.97066 1.07132L9.42404 1.34346L8.84647 1.94439C8.27046 2.54354 8.26713 2.54468 7.7778 2.28252C7.01582 1.87423 5.25618 1.9196 4.27717 2.37264C2.58103 3.1575 1.60489 4.70265 1.61265 6.58975C1.61819 7.90668 2.0155 8.84491 2.95109 9.75001C3.33191 10.1184 5.16522 11.586 7.02518 13.011L10.4068 15.6021L14.2952 12.6726C18.4585 9.53597 18.8823 9.09678 19.2509 7.53572C19.598 6.06624 19.2097 4.64695 18.1376 3.46522C17.2001 2.43202 16.2645 2.0123 14.8909 2.00893C13.2035 2.00459 12.6138 2.35492 10.1258 4.83991L7.99989 6.96329V7.9815V8.99974H10.4553H12.9107V7.99938C12.9107 7.03265 12.8871 6.9747 12.2072 6.26932L11.5037 5.53965L11.9674 5.01662C12.2224 4.72887 12.4877 4.49358 12.557 4.49358C12.6264 4.49358 13.0907 4.91216 13.5889 5.42363L14.4949 6.35367V8.48412V10.6146L10.4949 10.5716L6.49497 10.5286L6.4541 8.51693L6.41306 6.50527L8.83031 3.98503C11.3125 1.39672 11.9122 0.949495 13.4652 0.528009C17.873 -0.668054 22.052 3.82009 20.6979 8.29598C20.1399 10.1408 19.6232 10.6623 14.7726 14.2792L10.39 17.5468L6.54153 14.6181C2.06239 11.2097 1.33907 10.5482 0.659954 9.24115C0.659954 9.24115 0 8.1764 0 6.58975C0 5.17306 0.517857 4.10413 0.517857 4.10413C1.29424 2.39388 2.84702 1.01966 4.51479 0.566954C5.65395 0.2578 6.45869 0.254418 7.59167 0.554239Z" fill="#989FB5"/>
<path d="M28.6142 4.92713C29.2187 4.71924 29.6113 4.05391 29.6113 3.37822C29.6113 2.21394 28.699 1.49665 27.1399 1.49665H23.5762V8.56552H27.352C28.9537 8.56552 29.9294 7.79627 29.9294 6.60081C29.9294 5.80034 29.4628 5.10387 28.6142 4.92713ZM25.3687 2.93123H26.8536C27.5536 2.93123 27.9035 3.15991 27.9035 3.61732C27.9035 4.08512 27.5217 4.37618 26.8536 4.37618H25.3687V2.93123ZM25.3687 7.11018V5.7172H27.1504C27.8398 5.7172 28.1793 5.93548 28.1793 6.3721C28.1793 6.81909 27.8188 7.11018 27.1081 7.11018H25.3687ZM35.5515 7.34925L36.0393 8.56552H37.9486L34.8939 1.45508H33.1756L30.1104 8.56552H32.0194L32.4968 7.34925H35.5515ZM34.9576 5.85234H33.0907L34.0243 3.50297L34.9576 5.85234ZM44.0651 7.01661H40.5015V1.49665H38.7091V8.56552H44.0651V7.01661ZM49.8454 7.34925L50.3332 8.56552H52.2422L49.1875 1.45508H47.4695L44.404 8.56552H46.3133L46.7907 7.34925H49.8454ZM49.2512 5.85234H47.3846L48.3179 3.50297L49.2512 5.85234ZM58.5098 1.49665H56.5263L54.7549 4.57371L52.9943 1.49665H51.011L53.8642 6.43446V8.56552H55.6672V6.43446L58.5098 1.49665ZM60.9996 1.49665H59.2071V8.56552H60.9996V1.49665Z" fill="#989FB5"/>
<path d="M27.8529 10.5111H26.7148L25.5275 13.4446L24.3404 10.5111H23.2021L25.0074 14.8636H26.0538L27.8529 10.5111ZM28.797 10.0975C29.1153 10.0975 29.3722 9.84937 29.3722 9.51851C29.3722 9.18762 29.1153 8.93945 28.797 8.93945C28.4726 8.93945 28.2156 9.18762 28.2156 9.51851C28.2156 9.84937 28.4726 10.0975 28.797 10.0975ZM29.3171 10.5111H28.2828V14.8381H29.3171V10.5111ZM33.1422 13.89H31.0859V10.5111H30.0519V14.8381H33.1422V13.89ZM36.7218 13.89H34.6655V10.5111H33.6315V14.8381H36.7218V13.89ZM40.0565 14.0936L40.3381 14.8381H41.4396L39.6772 10.4857H38.6857L36.9172 14.8381H38.019L38.2941 14.0936H40.0565ZM39.7139 13.1773H38.637L39.1753 11.7393L39.7139 13.1773ZM43.3045 10.4157C42.8087 10.4157 42.411 10.543 42.105 10.8039C41.8052 11.0584 41.6521 11.402 41.6521 11.8283C41.6521 12.5156 42.0317 12.9101 42.8577 13.101L43.5432 13.26C43.8369 13.33 43.9838 13.4446 43.9838 13.6291C43.9838 13.8646 43.7817 14.0109 43.3963 14.0109C42.9067 14.0109 42.5884 13.7818 42.5212 13.4H41.4869C41.5298 13.9027 41.7319 14.2845 42.0807 14.5454C42.4294 14.7999 42.8577 14.9272 43.3658 14.9272C43.8858 14.9272 44.308 14.7999 44.6201 14.5518C44.9322 14.2972 45.0915 13.9536 45.0915 13.5209C45.0915 12.8146 44.6629 12.4838 43.8369 12.2865L43.2555 12.1465C42.9311 12.0701 42.7782 11.9683 42.7782 11.7393C42.7782 11.4656 43.0108 11.3065 43.3719 11.3065C43.7574 11.3065 43.9838 11.4911 44.0448 11.8538H45.0853C45.0363 11.3002 44.767 10.8993 44.3998 10.6957C44.0387 10.4984 43.6779 10.4157 43.3045 10.4157ZM46.7789 10.5111H45.7449V14.8381H46.7789V10.5111Z" fill="#989FB5"/>
</svg>
