<svg width="81" height="16" viewBox="0 0 81 16" fill="none" xmlns="http://www.w3.org/2000/svg">
<path d="M63.961 8.21545C63.9595 8.12628 63.9765 8.0378 64.0109 7.95558C64.0452 7.87336 64.0962 7.79919 64.1605 7.73783C64.2887 7.60995 64.4617 7.53787 64.6422 7.53711C64.7783 7.53711 64.9113 7.5777 65.0245 7.65376C65.1377 7.72982 65.2259 7.83793 65.278 7.96441C65.3301 8.09089 65.3437 8.23006 65.3171 8.36433C65.2906 8.49861 65.225 8.62195 65.1288 8.71876C65.0326 8.81556 64.9099 8.88149 64.7765 8.9082C64.643 8.93491 64.5046 8.92121 64.3789 8.86882C64.2531 8.81643 64.1457 8.72769 64.0701 8.61385C63.9945 8.50002 63.9541 8.36621 63.9541 8.22931L63.961 8.21545Z" fill="#989FB5"/>
<path d="M65.9087 8.29122C65.6273 7.9998 65.4371 7.63172 65.3616 7.23264C65.2861 6.83356 65.3286 6.42099 65.4839 6.04597C65.6391 5.67095 65.9004 5.34997 66.2352 5.1228C66.57 4.89563 66.9637 4.77224 67.3675 4.76791C67.637 4.76298 67.9047 4.81319 68.1543 4.91552C68.4039 5.01786 68.6302 5.17017 68.8195 5.36319C68.8946 5.44026 68.9658 5.52114 69.0328 5.60548L69.136 5.75775L68.2965 6.38767L68.1727 6.22844C68.066 6.09482 67.9276 5.99045 67.7702 5.92501C67.6128 5.85957 67.4415 5.83517 67.2722 5.85407C67.1029 5.87298 66.9411 5.93458 66.8018 6.03317C66.6625 6.13175 66.5502 6.26412 66.4753 6.41801C66.4004 6.57189 66.3653 6.74231 66.3734 6.91345C66.3814 7.0846 66.4323 7.25094 66.5213 7.39703C66.6103 7.54312 66.7345 7.66425 66.8824 7.74917C67.0304 7.83409 67.1972 7.88005 67.3675 7.8828C67.5288 7.87572 67.686 7.82994 67.8261 7.74926C67.9661 7.66858 68.085 7.55535 68.1727 7.41904L68.2827 7.25981L69.1636 7.88973L69.0328 8.05585C69.0138 8.08454 68.9906 8.1102 68.964 8.13198C68.9227 8.18736 68.8677 8.24273 68.8195 8.29811C68.4322 8.68089 67.9105 8.8948 67.3675 8.89343C66.8212 8.89478 66.2966 8.67823 65.9087 8.29122Z" fill="#989FB5"/>
<path d="M69.7276 8.29218C69.3484 7.89829 69.1341 7.37294 69.1289 6.82468C69.1276 6.27511 69.3428 5.74741 69.7276 5.35722C70.1216 4.97609 70.6467 4.76282 71.1933 4.76194C71.4616 4.75795 71.728 4.80864 71.9763 4.91095C72.2247 5.01325 72.4499 5.16505 72.6384 5.35722C72.9236 5.64714 73.1176 6.01515 73.1962 6.41529C73.2748 6.81542 73.2346 7.22998 73.0804 7.60724C72.9263 7.9845 72.6652 8.30772 72.3296 8.53663C71.994 8.76553 71.5987 8.88998 71.1933 8.89439C70.646 8.89021 70.1213 8.67462 69.7276 8.29218ZM70.1405 6.82468C70.1445 7.03321 70.2097 7.23592 70.3278 7.40732C70.446 7.57873 70.6118 7.71121 70.8045 7.78819C70.9972 7.86518 71.2082 7.88321 71.4111 7.84003C71.6139 7.79685 71.7996 7.69438 71.9448 7.54548C72.0899 7.39657 72.1882 7.20786 72.2272 7.00301C72.2661 6.79815 72.2441 6.58631 72.1639 6.39399C72.0836 6.20168 71.9487 6.03747 71.776 5.922C71.6034 5.80652 71.4006 5.74489 71.1933 5.74485C70.9116 5.7485 70.6428 5.86413 70.4456 6.06644C70.2483 6.26875 70.1386 6.54131 70.1405 6.82468Z" fill="#989FB5"/>
<path d="M79.0382 8.80511V6.68699C79.0488 6.57013 79.035 6.45234 78.9978 6.34114C78.9605 6.22994 78.9007 6.12773 78.822 6.04109C78.7434 5.95445 78.6476 5.88526 78.5409 5.83792C78.4342 5.79057 78.3188 5.7661 78.2021 5.7661C78.0855 5.7661 77.9701 5.79057 77.8634 5.83792C77.7567 5.88526 77.6609 5.95445 77.5822 6.04109C77.5036 6.12773 77.4437 6.22994 77.4065 6.34114C77.3693 6.45234 77.3555 6.57013 77.3661 6.68699V8.80511H76.2857V6.68699C76.2857 6.46485 76.198 6.25182 76.0418 6.09475C75.8857 5.93767 75.6739 5.84941 75.4531 5.84941C75.2322 5.84941 75.0205 5.93767 74.8643 6.09475C74.7082 6.25182 74.6205 6.46485 74.6205 6.68699V8.80511H73.5332V4.84571H74.6067V5.12954C74.7137 5.01558 74.8428 4.92485 74.986 4.86295C75.1292 4.80105 75.2835 4.76927 75.4393 4.76958C75.6925 4.76935 75.9431 4.82115 76.1756 4.92185C76.4041 5.03258 76.6133 5.17986 76.7949 5.35793C76.9729 5.17547 77.1829 5.02762 77.4142 4.92185C77.6468 4.82115 77.8974 4.76935 78.1505 4.76958C78.4014 4.76774 78.6501 4.81608 78.8821 4.91179C79.1142 5.0075 79.3251 5.14864 79.5024 5.32705C79.6798 5.50546 79.8201 5.7176 79.9153 5.95106C80.0104 6.18452 80.0585 6.43468 80.0566 6.68699V8.80511H79.0382Z" fill="#989FB5"/>
<path d="M54.5411 6.72089V3.80672H56.4059V2.10394H54.5411V0.0273438H52.6901V2.10394H51.7061V3.80672H52.7038V6.75549C52.6997 7.08928 52.7622 7.42051 52.8875 7.72962C53.0127 8.03872 53.1983 8.31943 53.4332 8.55519C53.9098 9.02801 54.553 9.29181 55.2224 9.28892H56.5986V7.47537H55.2224C55.0368 7.45508 54.865 7.36714 54.7395 7.22813C54.6139 7.08911 54.5434 6.90867 54.5411 6.72089Z" fill="#989FB5"/>
<path d="M41.0812 6.72089V3.80672H42.946V2.10394H41.0812V0.0273438H39.2302V2.10394H38.2461V3.80672H39.237V6.75549C39.2326 7.08994 39.2956 7.42179 39.4222 7.7311C39.5487 8.0404 39.7362 8.32072 39.9733 8.55519C40.4494 9.02866 41.093 9.29257 41.7625 9.28892H43.1387V7.47537H41.7625C41.5769 7.45508 41.4051 7.36714 41.2795 7.22813C41.154 7.08911 41.0835 6.90867 41.0812 6.72089Z" fill="#989FB5"/>
<path d="M37.496 2.11133H35.5898V9.28943H37.496V2.11133Z" fill="#989FB5"/>
<path d="M37.496 0H35.5898V1.48131H37.496V0Z" fill="#989FB5"/>
<path d="M59.3788 2.11133H57.4727V9.28943H59.3788V2.11133Z" fill="#989FB5"/>
<path d="M62.3299 0H60.4238V9.28931H62.3299V0Z" fill="#989FB5"/>
<path d="M18.2489 0H16.3428V9.28931H18.2489V0Z" fill="#989FB5"/>
<path d="M59.3788 0H57.4727V1.48131H59.3788V0Z" fill="#989FB5"/>
<path d="M1.96803 8.79786L1.88546 8.72173L1.57579 9.28241H0V0H1.88546V2.7688L1.96803 2.70652C2.44587 2.25805 3.07612 2.0104 3.72963 2.01432C4.2172 2.00915 4.70086 2.10198 5.15225 2.28742C5.60365 2.47285 6.0137 2.74714 6.35828 3.09415C6.87841 3.61691 7.23267 4.28314 7.37623 5.00851C7.5198 5.73389 7.4462 6.48577 7.16476 7.16906C6.88333 7.85234 6.40672 8.43631 5.79523 8.847C5.18375 9.25769 4.46489 9.47665 3.72963 9.4762C3.40537 9.49146 3.08146 9.43908 2.77829 9.32233C2.47513 9.20559 2.19928 9.02703 1.96803 8.79786ZM3.72963 7.59344C4.10419 7.6017 4.47271 7.49752 4.78816 7.2942C5.1036 7.09087 5.35167 6.7976 5.50073 6.45185C5.64979 6.10609 5.69307 5.72353 5.62505 5.35292C5.55703 4.98232 5.38079 4.64049 5.11882 4.37107C4.85685 4.10165 4.52104 3.91683 4.15421 3.84022C3.78738 3.7636 3.40617 3.79869 3.05923 3.94094C2.7123 4.08319 2.41536 4.32619 2.2063 4.63892C1.99724 4.95166 1.88555 5.31996 1.88546 5.69683C1.88525 6.19039 2.07633 6.6646 2.4181 7.01874C2.75988 7.37287 3.2254 7.57903 3.71586 7.59344H3.72963Z" fill="#989FB5"/>
<path d="M28.7435 11.6489L29.7619 9.29543L26.9131 2.10352H28.9775L30.7528 6.56816L32.5626 2.10352H34.627L30.7528 11.6489H28.7435Z" fill="#989FB5"/>
<path d="M13.4939 2.741L13.4182 2.67869C12.9432 2.23004 12.315 1.98222 11.6635 1.98649C11.175 1.98194 10.6904 2.07506 10.238 2.26043C9.78558 2.4458 9.37427 2.71972 9.02795 3.06632C8.50639 3.58855 8.15104 4.25508 8.00714 4.98106C7.86325 5.70703 7.9373 6.45965 8.21987 7.14316C8.50244 7.82668 8.98077 8.41019 9.59398 8.81946C10.2072 9.22872 10.9276 9.44525 11.6635 9.44148C11.9832 9.46257 12.3038 9.41753 12.6056 9.3092C12.9074 9.20087 13.184 9.03155 13.4182 8.8116L13.4939 8.73542L13.8379 9.2961H15.3793V2.11108H14.0031L13.4939 2.741ZM11.6635 7.58639C11.2884 7.59741 10.9186 7.49563 10.6014 7.29403C10.2842 7.09244 10.034 6.80022 9.88277 6.45477C9.73159 6.10932 9.68633 5.72635 9.75274 5.35487C9.81916 4.98339 9.99424 4.64028 10.2556 4.36947C10.517 4.09865 10.8527 3.91243 11.2199 3.83465C11.587 3.75686 11.9689 3.79105 12.3167 3.93283C12.6644 4.07461 12.9622 4.31754 13.1719 4.63052C13.3816 4.94351 13.4937 5.31233 13.4939 5.68978C13.4977 6.18506 13.3079 6.66202 12.9656 7.01802C12.6233 7.37403 12.1557 7.58064 11.6635 7.59332V7.58639Z" fill="#989FB5"/>
<path d="M24.7654 2.741L24.6828 2.67869C24.2083 2.22943 23.5798 1.9815 22.9281 1.98649C22.4396 1.98194 21.9551 2.07506 21.5027 2.26043C21.0502 2.4458 20.6389 2.71972 20.2926 3.06632C19.771 3.58855 19.4157 4.25508 19.2718 4.98106C19.1279 5.70703 19.2019 6.45965 19.4845 7.14316C19.7671 7.82668 20.2454 8.41019 20.8586 8.81946C21.4718 9.22872 22.1922 9.44525 22.9281 9.44148C23.2479 9.46257 23.5685 9.41753 23.8703 9.3092C24.1721 9.20087 24.4486 9.03155 24.6828 8.8116L24.7654 8.73542L25.1026 9.2961H26.644V2.11108H25.2677L24.7654 2.741ZM22.9281 7.58639C22.5533 7.59603 22.1841 7.49303 21.8678 7.29057C21.5515 7.08811 21.3023 6.79539 21.1522 6.44978C21.0021 6.10418 20.9578 5.72139 21.025 5.35035C21.0923 4.97931 21.2679 4.63684 21.5296 4.36672C21.7912 4.09661 22.127 3.91112 22.494 3.83393C22.861 3.75673 23.2426 3.79132 23.5899 3.93334C23.9373 4.07535 24.2346 4.31834 24.444 4.6312C24.6534 4.94406 24.7653 5.31262 24.7654 5.68978C24.7692 6.18623 24.5785 6.66423 24.2347 7.02043C23.8909 7.37663 23.4216 7.58242 22.9281 7.59332V7.58639Z" fill="#989FB5"/>
<path d="M49.0973 2.74097L49.0217 2.67865C48.5438 2.23018 47.9136 1.98253 47.2601 1.98645C46.7727 1.98244 46.2893 2.07583 45.8381 2.26119C45.3868 2.44656 44.9767 2.72021 44.6314 3.06628C44.1103 3.58811 43.7551 4.25401 43.611 4.97933C43.4669 5.70466 43.5404 6.45669 43.8221 7.13992C44.1038 7.82315 44.581 8.40671 45.1932 8.81651C45.8053 9.2263 46.5248 9.44384 47.2601 9.44145C47.5809 9.46267 47.9026 9.41774 48.2055 9.30942C48.5084 9.2011 48.7862 9.03171 49.0217 8.81156L49.0973 8.73539L49.4414 9.29607H50.9828V2.11104H49.6066L49.0973 2.74097ZM47.2601 7.58636C46.8853 7.59599 46.5161 7.49299 46.1997 7.29053C45.8834 7.08807 45.6343 6.79535 45.4841 6.44975C45.334 6.10414 45.2897 5.72136 45.357 5.35032C45.4242 4.97927 45.5998 4.6368 45.8615 4.36669C46.1232 4.09657 46.459 3.91109 46.826 3.83389C47.193 3.7567 47.5745 3.79129 47.9219 3.9333C48.2692 4.07532 48.5665 4.3183 48.7759 4.63116C48.9853 4.94402 49.0972 5.31259 49.0973 5.68974C49.0993 6.18567 48.9081 6.66264 48.5647 7.01845C48.2212 7.37427 47.7529 7.58062 47.2601 7.59329V7.58636Z" fill="#989FB5"/>
<path d="M58.3945 15.8297L52.8413 13.0609C52.123 12.7012 51.3316 12.514 50.5292 12.514H39.4229V10.7835H50.5292C51.5938 10.773 52.6465 11.0099 53.6051 11.4757L59.1583 14.2445L58.3945 15.8297Z" fill="#989FB5"/>
</svg>
