<svg width="81" height="23" viewBox="0 0 81 23" fill="none" xmlns="http://www.w3.org/2000/svg">
<g clip-path="url(#clip0_2267_17997)">
<path d="M5.06037 7.22993C4.29214 7.22993 3.59926 7.43203 3.01177 7.82073V3.79395H0.917969V14.8326H3.01177V14.3973C3.59926 14.786 4.29214 14.9881 5.06037 14.9881C6.05455 14.9881 6.89811 14.615 7.59103 13.8687C8.29899 13.1069 8.64545 12.1896 8.64545 11.1012C8.64545 10.0285 8.28392 9.11118 7.59103 8.36488C6.88305 7.60307 6.05455 7.22993 5.06037 7.22993ZM4.71394 13.169C3.99089 13.169 3.41848 12.8737 3.01177 12.2984V9.91961C3.43355 9.34436 4.00595 9.06452 4.71394 9.06452C5.24115 9.06452 5.67799 9.26663 6.03951 9.67088C6.38597 10.0595 6.58179 10.5415 6.58179 11.1012C6.58179 11.6609 6.40101 12.1429 6.03951 12.5627C5.69305 12.9669 5.24115 13.169 4.71394 13.169ZM16.989 7.38541H14.8952V7.82073C14.3077 7.43203 13.6148 7.22993 12.8466 7.22993C11.8524 7.22993 11.0088 7.60307 10.3009 8.36488C9.59287 9.11118 9.24644 10.0285 9.24644 11.1168C9.24644 12.1896 9.59287 13.1069 10.3009 13.8687C11.0088 14.615 11.8524 14.9881 12.8466 14.9881C13.6148 14.9881 14.3077 14.786 14.8952 14.3973V14.8326H16.989V7.38541ZM13.193 13.1535C12.6507 13.1535 12.1988 12.9514 11.8524 12.5627C11.5059 12.1585 11.3252 11.6765 11.3252 11.1168C11.3252 10.5415 11.5059 10.0595 11.8524 9.65533C12.1988 9.25108 12.6507 9.04897 13.193 9.04897C13.916 9.04897 14.4885 9.34436 14.8952 9.91961V12.2984C14.4734 12.8737 13.901 13.1535 13.193 13.1535ZM20.3616 3.79395H18.2678V14.8326H20.3616V3.79395ZM29.0284 7.38541H26.9346V7.82073C26.3471 7.43203 25.6542 7.22993 24.886 7.22993C23.8918 7.22993 23.0482 7.60307 22.3402 8.36488C21.6323 9.11118 21.2858 10.0285 21.2858 11.1168C21.2858 12.1896 21.6323 13.1069 22.3402 13.8687C23.0482 14.615 23.8918 14.9881 24.886 14.9881C25.6542 14.9881 26.3471 14.786 26.9346 14.3973V14.8326H29.0284V7.38541ZM25.2324 13.1535C24.6901 13.1535 24.2382 12.9514 23.8918 12.5627C23.5453 12.1585 23.3646 11.6765 23.3646 11.1168C23.3646 10.5415 23.5453 10.0595 23.8918 9.65533C24.2382 9.25108 24.6901 9.04897 25.2324 9.04897C25.9555 9.04897 26.5279 9.34436 26.9346 9.91961V12.2984C26.5128 12.8737 25.9404 13.1535 25.2324 13.1535ZM38.46 7.36986H36.2606L34.1519 12.4538L31.8171 7.36986H29.5877L33.0974 15.0192L31.6966 18.4085H33.8958L38.46 7.36986ZM41.3279 7.38541H39.2339V14.8326H41.3279V7.38541Z" fill="#989FB5"/>
<path d="M42.8965 12.0226C42.9718 13.002 43.3185 13.7172 43.9509 14.1681C44.5837 14.619 45.3672 14.8366 46.301 14.8366C48.229 14.8366 49.5548 13.9349 49.5548 12.318C49.5548 11.1208 48.8314 10.3745 47.3706 10.1258L46.0601 9.9081C45.4874 9.81483 45.2013 9.56606 45.2013 9.20847C45.2013 8.83532 45.5928 8.57104 46.2709 8.57104C47.0091 8.57104 47.5513 8.86642 47.5963 9.50385L49.5095 9.48834C49.4341 8.49328 48.952 7.77812 48.2743 7.43604C47.5963 7.094 46.9787 6.9541 46.2709 6.9541C44.4029 6.9541 43.1526 7.90247 43.1526 9.41057C43.1526 10.701 44.0262 11.4007 45.2766 11.6183L46.8131 11.8826C47.2952 11.9604 47.5361 12.178 47.5361 12.5045C47.5361 12.8932 47.0392 13.142 46.3162 13.142C45.4273 13.142 44.9151 12.7688 44.8097 12.0381L42.8965 12.0226ZM57.4121 10.7321C57.4121 9.62823 57.0658 8.74204 56.3878 8.0424C55.71 7.34276 54.8664 7.00072 53.8421 7.00072C52.6975 7.00072 51.7633 7.37387 51.0556 8.10461C50.3474 8.83532 50.0011 9.75262 50.0011 10.8876C50.0011 12.007 50.3626 12.9399 51.0704 13.6706C51.7937 14.4013 52.7276 14.7745 53.8725 14.7745C55.5746 14.7745 56.9452 13.8572 57.3219 12.4268H55.1377C54.9117 12.7999 54.505 12.9865 53.9174 12.9865C52.9684 12.9865 52.3661 12.5512 52.11 11.665H57.3672C57.3973 11.4628 57.4121 11.1519 57.4121 10.7321ZM53.782 8.77315C54.6404 8.77315 55.2131 9.28619 55.3333 10.1569H52.0799C52.3059 9.23957 52.8782 8.77315 53.782 8.77315ZM72.0805 10.7321C72.0805 9.62823 71.7343 8.74204 71.0562 8.0424C70.3785 7.34276 69.5349 7.00072 68.5105 7.00072C67.3659 7.00072 66.4318 7.37387 65.724 8.10461C65.0159 8.83532 64.6696 9.75262 64.6696 10.8876C64.6696 12.007 65.0311 12.9399 65.7388 13.6706C66.4618 14.4013 67.396 14.7745 68.5406 14.7745C70.243 14.7745 71.6136 13.8572 71.9903 12.4268H69.8062C69.5801 12.7999 69.1734 12.9865 68.5859 12.9865C67.6369 12.9865 67.0345 12.5512 66.7784 11.665H72.0353C72.0657 11.4628 72.0805 11.1519 72.0805 10.7321ZM68.4504 8.77315C69.3088 8.77315 69.8815 9.28619 70.0018 10.1569H66.7483C66.974 9.23957 67.5467 8.77315 68.4504 8.77315Z" fill="#989FB5"/>
<path d="M58.1406 7.25684V14.7876H59.9537V12.8717H60.941C61.9388 12.8717 62.7223 12.617 63.3016 12.1075C63.881 11.587 64.1707 10.8893 64.1707 10.0144C64.1707 9.16167 63.8916 8.49719 63.3338 7.99886C62.7866 7.50049 62.0353 7.25684 61.0807 7.25684H58.1406ZM59.9537 11.2327V8.90696H61.0485C61.8532 8.90696 62.3682 9.33888 62.3682 10.0144C62.3682 10.7565 61.8532 11.2327 61.0485 11.2327H59.9537Z" fill="#989FB5"/>
<path d="M77.3465 12.732C76.8654 12.829 76.5248 12.8775 76.337 12.8775C75.7381 12.8775 75.4445 12.5866 75.4445 11.9929V10.3086H77.3818V8.62432H75.4445V6.625H73.543V8.62432H72.4277V10.3086H73.543V12.0535C73.543 12.8411 73.7425 13.4833 74.1652 13.968C74.5758 14.4406 75.1396 14.6829 75.8322 14.6829C76.384 14.6829 76.9591 14.586 77.558 14.3921L77.3465 12.732Z" fill="#989FB5"/>
<path d="M80.4473 8.39648L79.4855 8.66383L78.5234 8.39648V14.5066H80.4473V8.39648Z" fill="#989FB5"/>
<path d="M66.7736 22.6922L59.9428 19.2096C59.0592 18.7572 58.0858 18.5218 57.0989 18.5218H43.4375V16.3451H57.0989C58.4084 16.3319 59.7029 16.6299 60.8822 17.2158L67.7131 20.6984L66.7736 22.6922Z" fill="#989FB5"/>
<path d="M80.7769 5.15639C80.4802 4.8437 79.9991 4.8437 79.7024 5.15639L79.4597 5.41195L79.2171 5.15639C78.9203 4.8437 78.4393 4.8437 78.1425 5.15639C77.8457 5.46908 77.8457 5.97603 78.1425 6.28865L78.3851 6.54417L79.4597 7.67654L80.5343 6.54417L80.7769 6.28865C81.0737 5.97603 81.0737 5.46908 80.7769 5.15639Z" fill="#989FB5"/>
</g>
<defs>
<clipPath id="clip0_2267_17997">
<rect width="81" height="23" fill="white"/>
</clipPath>
</defs>
</svg>
