<svg width="81" height="81" viewBox="0 0 81 81" fill="none" xmlns="http://www.w3.org/2000/svg">
<circle cx="41.0329" cy="41.0329" r="28.0329" fill="#102754"/>
<circle cx="41.0797" cy="41.0797" r="32.724" stroke="#102754" stroke-width="0.711392"/>
<circle cx="40.5" cy="40.5" r="40.0645" stroke="#102754" stroke-width="0.870968"/>
<path fill-rule="evenodd" clip-rule="evenodd" d="M40.8706 42.1442C39.1947 42.1442 37.6191 41.4914 36.4342 40.3067C35.2489 39.1215 34.5967 37.5462 34.5967 35.8703C34.5967 34.1945 35.2495 32.6189 36.4342 31.4339C37.6194 30.2487 39.1947 29.5964 40.8706 29.5964C42.5464 29.5964 44.122 30.2493 45.307 31.4339C46.4922 32.6192 47.1445 34.1945 47.1445 35.8703C47.1445 37.5462 46.4916 39.1218 45.307 40.3067C44.122 41.4917 42.5464 42.1442 40.8706 42.1442ZM40.8706 30.6075C37.9686 30.6075 35.608 32.9684 35.608 35.8701C35.608 38.7718 37.9689 41.1327 40.8706 41.1327C43.7723 41.1327 46.1332 38.7718 46.1332 35.8701C46.1332 32.9684 43.7723 30.6075 40.8706 30.6075Z" fill="white"/>
<path fill-rule="evenodd" clip-rule="evenodd" d="M40.8708 56.3608C40.7462 56.3608 40.6216 56.315 40.5244 56.2236C40.4958 56.1965 37.6173 53.4741 34.7821 49.6469C33.1116 47.3923 31.7795 45.1976 30.8224 43.1232C29.6134 40.5026 29 38.0626 29 35.8706C29 34.2685 29.3139 32.7136 29.933 31.25C30.531 29.8362 31.3867 28.5668 32.4769 27.4769C33.567 26.3868 34.8362 25.5311 36.25 24.933C37.7139 24.3139 39.2685 24 40.8706 24C42.473 24 44.0276 24.3139 45.4912 24.933C46.9049 25.531 48.1744 26.3867 49.2643 27.4769C50.3544 28.567 51.2101 29.8362 51.8082 31.25C52.4273 32.7139 52.7412 34.2685 52.7412 35.8706C52.7412 38.0629 52.1281 40.5029 50.9188 43.1232C49.9617 45.1973 48.6295 47.3923 46.9591 49.6469C44.1236 53.4742 41.2457 56.1968 41.2168 56.2236C41.1196 56.3153 40.9947 56.3611 40.8703 56.3611L40.8708 56.3608ZM40.8708 25.0106C34.8829 25.0106 30.0114 29.882 30.0114 35.8701C30.0114 40.5253 33.0422 45.5961 35.5846 49.031C37.795 52.0173 40.0309 54.317 40.8706 55.1493C41.7103 54.317 43.9463 52.0173 46.1566 49.0313C48.6993 45.5969 51.7298 40.5257 51.7298 35.8704C51.7298 29.8824 46.8585 25.0109 40.8704 25.0109L40.8708 25.0106Z" fill="white"/>
</svg>
