<svg width="50" height="50" viewBox="0 0 50 50" fill="none" xmlns="http://www.w3.org/2000/svg">
    <path d="M4.688 38.031c.862 0 1.562-.699 1.562-1.563V18.75c0-1.242.49-2.423 1.363-3.31a4.717 4.717 0 0 1 3.324-1.377 7.763 7.763 0 0 0 6.251-3.126l.935-1.248a4.66 4.66 0 0 1 3.752-1.877h6.25c1.337 0 2.613.577 3.502 1.581a1.562 1.562 0 1 0 2.34-2.07 7.808 7.808 0 0 0-5.842-2.636h-6.25a7.763 7.763 0 0 0-6.25 3.125l-.935 1.249a4.66 4.66 0 0 1-3.752 1.877c-2.07 0-4.03.808-5.536 2.293a7.827 7.827 0 0 0-2.277 5.519v17.718c0 .864.7 1.563 1.563 1.563z" fill="#989FB5"/>
    <path d="M21.337 17.824A11.028 11.028 0 0 0 14.7 24.46a1.563 1.563 0 0 0 2.945 1.047 7.871 7.871 0 0 1 4.738-4.74 1.564 1.564 0 0 0-1.046-2.944z" fill="#989FB5"/>
    <path d="M46.417 3.583c-.61-.61-1.599-.61-2.21 0L3.584 44.208a1.562 1.562 0 1 0 2.21 2.21l1.85-1.851a7.736 7.736 0 0 0 3.295.745h28.124c4.308 0 7.813-3.504 7.813-7.812V18.75c0-1.764-.58-3.438-1.677-4.84a7.72 7.72 0 0 0-4.179-2.72l5.398-5.398c.61-.61.61-1.599 0-2.21zm-16.38 18.589a7.745 7.745 0 0 1 2.331 3.342c.295.846.444 1.723.444 2.611 0 4.308-3.504 7.813-7.812 7.813-.888 0-1.766-.15-2.608-.443a7.743 7.743 0 0 1-3.345-2.332l10.99-10.991zm12.701-6.335a4.69 4.69 0 0 1 1.012 2.913V37.5a4.693 4.693 0 0 1-4.688 4.688H10.939c-.281 0-.558-.034-.832-.085l6.722-6.722a10.876 10.876 0 0 0 4.532 3.063c1.177.411 2.401.618 3.64.618 6.031 0 10.938-4.907 10.938-10.937 0-1.239-.209-2.464-.62-3.642a10.871 10.871 0 0 0-3.062-4.53l5.943-5.942c.277.032.561.052.864.052 1.45 0 2.79.646 3.675 1.774z" fill="#fff"/>
</svg>
