<svg width="165" height="145" viewBox="0 0 165 145" fill="none" xmlns="http://www.w3.org/2000/svg">
    <mask id="409lkcmoqa" fill="#fff">
        <path fill-rule="evenodd" clip-rule="evenodd" d="M164.831 2.331a6.248 6.248 0 0 1 8.838 0 6.248 6.248 0 0 1 0 8.838L152.077 32.76c6.564 1.677 12.431 5.421 16.715 10.879 4.392 5.609 6.708 12.304 6.708 19.36v75c0 17.23-14.02 31.25-31.25 31.25H31.75c-4.58 0-9.049-1.044-13.179-2.983l-7.402 7.402A6.228 6.228 0 0 1 6.75 175.5c-1.6 0-3.198-.61-4.419-1.831a6.248 6.248 0 0 1 0-8.838l162.5-162.5zm-47.357 87.726c-1.827-5.201-5.089-9.806-9.322-13.37L64.187 120.65c3.564 4.235 8.168 7.497 13.382 9.329A31.667 31.667 0 0 0 88 131.75c17.23 0 31.25-14.02 31.25-31.25 0-3.552-.598-7.062-1.776-10.443zM163 63c0-4.236-1.401-8.27-4.047-11.652-3.54-4.51-8.902-7.098-14.703-7.098-1.208 0-2.347-.08-3.454-.208l-23.773 23.773c5.537 4.897 9.795 11.126 12.249 18.116a44.097 44.097 0 0 1 2.478 14.569c0 24.121-19.626 43.75-43.75 43.75-4.956 0-9.854-.83-14.56-2.472-6.997-2.457-13.228-6.716-18.127-12.253l-26.889 26.889c1.095.202 2.203.336 3.326.336h112.5c10.339 0 18.75-8.411 18.75-18.75V63zM6.75 140.124a6.248 6.248 0 0 0 6.25-6.25V63c0-4.968 1.96-9.692 5.45-13.239 3.605-3.552 8.329-5.511 13.3-5.511 9.91 0 19.019-4.553 25.003-12.5l3.739-4.993c3.591-4.773 9.063-7.507 15.008-7.507h25a18.73 18.73 0 0 1 14.008 6.323 6.257 6.257 0 0 0 8.822.543 6.248 6.248 0 0 0 .54-8.82A31.23 31.23 0 0 0 100.5 6.75h-25c-9.91 0-19.019 4.553-25.003 12.5l-3.739 4.993c-3.591 4.773-9.063 7.507-15.008 7.507-8.276 0-16.116 3.235-22.14 9.174C3.735 46.887.5 54.73.5 63v70.874a6.248 6.248 0 0 0 6.25 6.25zm66.596-80.829c-12.269 4.358-22.193 14.288-26.548 26.55a6.253 6.253 0 0 0 5.89 8.344c2.573 0 4.98-1.6 5.89-4.156 3.11-8.76 10.193-15.845 18.954-18.958a6.254 6.254 0 0 0 3.797-7.983c-1.16-3.254-4.733-4.938-7.983-3.797z"/>
    </mask>
    <path d="m173.669 11.169.707.707-.707-.707zM152.077 32.76l-.707-.707-1.242 1.242 1.701.434.248-.969zm16.715 10.879.788-.617h-.001l-.787.617zM18.572 166.267l.424-.906-.635-.298-.497.496.707.708zm-7.403 7.402-.707-.707.707.707zm96.983-96.983.644-.765-.702-.59-.65.648.708.707zm9.322 13.37.944-.328-.001-.002-.943.33zm-53.287 30.595-.707-.707-.649.649.591.702.765-.644zm13.382 9.329-.331.943.002.001.33-.944zm81.384-78.632.788-.616-.001-.001-.787.617zm-18.157-7.306.114-.993-.48-.056-.341.342.707.707zm-23.773 23.773-.707-.707-.752.752.796.704.663-.75zm12.249 18.116.944-.33V85.6l-.944.33zM73.44 141.778l-.331.944h.002l.33-.944zm-18.127-12.253.75-.663-.705-.796-.752.751.707.708zm-26.889 26.889-.707-.707-1.346 1.346 1.872.344.181-.983zM18.45 49.762l-.701-.713-.006.005-.005.006.712.701zM56.753 31.75l.799.602.002-.003-.8-.599zm3.739-4.993-.8-.601-.001.002.8.6zm54.016-1.184-.749.663.001.001.748-.664zm8.822.543.661.75h.002l-.663-.75zm.54-8.82-.749.663h.001l.748-.662zM50.497 19.25l-.799-.602-.002.003.8.599zm-3.739 4.993.8.601.001-.002-.8-.6zM9.61 40.923l-.702-.712-.005.006-.005.005.713.702zM46.8 85.846l-.943-.334.942.335zm26.547-26.55-.332-.943h-.003l.335.943zM50.597 93.83l-.334.942.334-.942zm7.98-3.796.942.335-.942-.335zm18.954-18.958-.334-.942.335.942zm3.797-7.983.942-.335v-.001l-.942.336zm93.047-61.468a7.248 7.248 0 0 0-10.252 0l1.414 1.414a5.248 5.248 0 0 1 7.424 0l1.414-1.414zm0 10.252a7.248 7.248 0 0 0 0-10.252l-1.414 1.414a5.247 5.247 0 0 1 0 7.424l1.414 1.414zm-21.592 21.592 21.592-21.592-1.414-1.414-21.592 21.592 1.414 1.414zm16.795 9.554c-4.424-5.634-10.482-9.5-17.255-11.23l-.495 1.938c6.355 1.624 12.031 5.247 16.177 10.527l1.573-1.235zM176.5 63c0-7.28-2.392-14.193-6.92-19.977l-1.575 1.233C172.26 49.691 174.5 56.17 174.5 63h2zm0 75V63h-2v75h2zm-32.25 32.25c17.783 0 32.25-14.467 32.25-32.25h-2c0 16.678-13.572 30.25-30.25 30.25v2zm-112.5 0h112.5v-2H31.75v2zm-13.604-3.078c4.257 1.998 8.87 3.078 13.604 3.078v-2c-4.427 0-8.75-1.009-12.754-2.889l-.85 1.811zm-6.27 7.204 7.403-7.402-1.415-1.415-7.402 7.403 1.414 1.414zM6.75 176.5c1.854 0 3.71-.708 5.126-2.124l-1.414-1.414A5.229 5.229 0 0 1 6.75 174.5v2zm-5.126-2.124A7.228 7.228 0 0 0 6.75 176.5v-2a5.229 5.229 0 0 1-3.712-1.538l-1.414 1.414zm0-10.252a7.248 7.248 0 0 0 0 10.252l1.414-1.414a5.248 5.248 0 0 1 0-7.424l-1.414-1.414zm162.5-162.5-162.5 162.5 1.414 1.414 162.5-162.5-1.414-1.414zm-56.617 75.827c4.104 3.456 7.259 7.913 9.023 12.937l1.887-.663c-1.889-5.378-5.258-10.13-9.621-13.803l-1.289 1.53zm-42.613 43.907 43.965-43.965-1.415-1.414-43.964 43.965 1.414 1.414zm13.006 7.679c-5.037-1.77-9.493-4.925-12.948-9.03l-1.53 1.288c3.674 4.365 8.425 7.735 13.816 9.628l.662-1.886zM88 130.75c-3.44 0-6.84-.579-10.102-1.714l-.658 1.888A32.653 32.653 0 0 0 88 132.75v-2zm30.25-30.25c0 16.678-13.572 30.25-30.25 30.25v2c17.783 0 32.25-14.467 32.25-32.25h-2zm-1.72-10.114a30.67 30.67 0 0 1 1.72 10.114h2c0-3.665-.617-7.286-1.832-10.772l-1.888.658zm41.636-38.421C160.676 55.173 162 58.99 162 63h2c0-4.462-1.478-8.713-4.259-12.268l-1.575 1.233zM144.25 45.25c5.499 0 10.569 2.45 13.917 6.716l1.573-1.235c-3.732-4.756-9.386-7.481-15.49-7.481v2zm-3.569-.215c1.138.132 2.316.215 3.569.215v-2c-1.164 0-2.263-.077-3.34-.201l-.229 1.986zM117.73 68.522l23.773-23.773-1.414-1.414-23.773 23.773 1.414 1.414zM130.216 85.6c-2.513-7.156-6.87-13.527-12.53-18.534l-1.326 1.498c5.413 4.788 9.572 10.874 11.968 17.698l1.888-.662zm2.534 14.9a45.09 45.09 0 0 0-2.534-14.899l-1.888.66a43.103 43.103 0 0 1 2.422 14.239h2zM88 145.25c24.676 0 44.75-20.077 44.75-44.75h-2c0 23.569-19.178 42.75-42.75 42.75v2zm-14.89-2.528A45.084 45.084 0 0 0 88 145.25v-2c-4.844 0-9.63-.811-14.23-2.416l-.66 1.888zm-18.546-12.535c5.009 5.662 11.382 10.02 18.545 12.535l.662-1.887c-6.831-2.399-12.92-6.559-17.709-11.973l-1.498 1.325zm-25.433 26.934 26.89-26.889-1.415-1.415-26.89 26.89 1.415 1.414zm2.619-1.371c-1.044 0-2.089-.125-3.145-.32l-.362 1.967c1.134.209 2.305.353 3.507.353v-2zm112.5 0H31.75v2h112.5v-2zM162 138c0 9.787-7.963 17.75-17.75 17.75v2c10.892 0 19.75-8.858 19.75-19.75h-2zm0-75v75h2V63h-2zM12 133.874c0 2.902-2.35 5.25-5.25 5.25v2a7.248 7.248 0 0 0 7.25-7.25h-2zM12 63v70.874h2V63h-2zm5.738-13.94C14.065 52.79 12 57.766 12 63h2c0-4.702 1.854-9.175 5.163-12.537l-1.425-1.403zm14.012-5.81c-5.24 0-10.214 2.066-14.002 5.8l1.404 1.424c3.421-3.372 7.895-5.224 12.598-5.224v-2zm24.204-12.102C50.158 38.845 41.344 43.25 31.75 43.25v2c10.224 0 19.63-4.702 25.802-12.898l-1.598-1.204zm3.737-4.99-3.738 4.993 1.6 1.198 3.739-4.992-1.601-1.199zM75.5 18.25c-6.26 0-12.028 2.883-15.808 7.906l1.599 1.203c3.403-4.523 8.58-7.109 14.209-7.109v-2zm25 0h-25v2h25v-2zm14.756 6.66a19.727 19.727 0 0 0-14.756-6.66v2a17.73 17.73 0 0 1 13.259 5.986l1.497-1.326zm7.413.456a5.258 5.258 0 0 1-7.414-.457l-1.495 1.328a7.257 7.257 0 0 0 10.231.63l-1.322-1.5zm.453-7.406a5.249 5.249 0 0 1-.455 7.408l1.326 1.497a7.249 7.249 0 0 0 .626-10.231l-1.497 1.326zM100.5 7.75a30.23 30.23 0 0 1 22.621 10.21l1.498-1.326A32.23 32.23 0 0 0 100.5 5.75v2zm-25 0h25v-2h-25v2zM51.296 19.852C57.092 12.155 65.906 7.75 75.5 7.75v-2c-10.225 0-19.63 4.702-25.802 12.898l1.598 1.204zm-3.737 4.99 3.738-4.993-1.6-1.198-3.739 4.992 1.601 1.199zM31.75 32.75c6.26 0 12.028-2.883 15.808-7.906l-1.599-1.203c-3.403 4.523-8.58 7.109-14.209 7.109v2zm-21.438 8.886c5.84-5.758 13.43-8.886 21.438-8.886v-2c-8.544 0-16.635 3.342-22.843 9.461l1.405 1.425zM1.5 63c0-8.004 3.13-15.596 8.822-21.375l-1.425-1.403C2.841 46.37-.5 54.464-.5 63h2zm0 70.874V63h-2v70.874h2zm5.25 5.25c-2.9 0-5.25-2.348-5.25-5.25h-2a7.248 7.248 0 0 0 7.25 7.25v-2zM47.74 86.18c4.255-11.978 13.956-21.685 25.94-25.943l-.67-1.884C60.46 62.812 50.312 72.965 45.857 85.51l1.885.67zm3.192 6.706a5.253 5.253 0 0 1-3.191-6.706l-1.885-.669c-1.338 3.773.633 7.922 4.407 9.26l.669-1.885zm1.756.303a5.264 5.264 0 0 1-1.757-.303l-.667 1.886c.799.282 1.62.417 2.424.417v-2zm4.948-3.492a5.253 5.253 0 0 1-4.948 3.492v2a7.253 7.253 0 0 0 6.832-4.821l-1.884-.67zm19.562-19.564c-9.046 3.213-16.352 10.523-19.562 19.565l1.884.67c3.01-8.476 9.87-15.339 18.347-18.35l-.67-1.885zm3.188-6.707a5.254 5.254 0 0 1-3.188 6.707l.669 1.884c3.772-1.338 5.742-5.487 4.404-9.26l-1.885.669zm-6.71-3.187c2.736-.96 5.738.458 6.71 3.188l1.885-.671c-1.346-3.776-5.492-5.727-9.257-4.404l.663 1.887z" fill="#fff" fill-opacity=".1" mask="url(#409lkcmoqa)"/>
</svg>
