<svg width="59" height="59" viewBox="0 0 59 59" fill="none" xmlns="http://www.w3.org/2000/svg">
    <path d="M25.306 44.521h5.728l.305.082c.008.004 2.732 1.527-.377 3.32-1.52.878-4.95.599-7.353.403l-.406-.033c-1.058-.085-1.788-.283-2.426-.975-.576-.626-1.007-1.634-1.496-3.354l1.18-.331c.433 1.524.787 2.386 1.218 2.854.37.4.87.522 1.62.582l.405.033c2.252.183 5.463.445 6.649-.239.938-.541.672-.947.487-1.112h-5.534v-1.23z" fill="#1F355F"/>
    <path d="m35.275 36.725.896 3.346 1.73 6.458h2.66c.248-.84-1.13-.969-1.134-.969l-.424-.042-.109-.409-2.332-8.703-.007-.286c1.569-7.355-1.096-9.486-1.103-9.493l-.224-.186V20.3l.593-.021c.004 0 1.385-.056 3.903-.056.832 0 1.439-.555 1.716-1.178a1.82 1.82 0 0 0 .16-.623.964.964 0 0 0-.069-.455c-.086-.188-.298-.31-.661-.29-2.178.114-5.28-2.702-6.347-3.742l-.85.616-.692.502-.254-.82c-.133-.431-.159-.77-.182-1.072-.028-.372-.05-.66-.56-1.031v3.238l-.458.122c-.01.002-3.274.816-2.412 5.983l.062.374-.307.224c-.034.025-12.104 8.626-8.408 21.561l.252.88-.91-.102c-3.966-.445-5.872-2.938-6.492-5.741a10.365 10.365 0 0 1-.205-2.965c.07-.97.266-1.907.553-2.73.679-1.944 1.904-3.283 3.278-3.153l.88.084-.386.792c-.004.01-1.706 3.482-1.247 6.149.116.677.378 1.296.854 1.773.36.36.851.649 1.507.834-.408-10.065 7.636-16.854 9.303-18.15-.648-4.722 1.845-6.356 2.907-6.83v-4.358l.876.413c1.945.915 2.06 1.553 2.129 2.442l.464-.336.432-.314.37.386c.01.01 3.677 3.856 5.779 3.746.949-.05 1.547.368 1.838 1 .144.313.2.671.178 1.041-.02.345-.111.705-.265 1.05-.449 1.009-1.449 1.908-2.835 1.908-1.583 0-2.66.019-3.267.034v4.422c.698.767 2.713 3.652 1.329 10.322l2.192 8.183c.913.193 2.853.873 1.484 3.057l-.182.29H36.96l-.123-.456-1.852-6.914-.897-3.346 1.186-.316zM19.043 43.04a19.39 19.39 0 0 1-.4-2.302c-1.085-.228-1.888-.671-2.472-1.255-.674-.675-1.038-1.52-1.195-2.431-.32-1.859.248-4 .743-5.396-.343.415-.655 1.015-.902 1.72a9.444 9.444 0 0 0-.486 2.413 9.153 9.153 0 0 0 .176 2.615c.468 2.115 1.819 4.018 4.536 4.636z" fill="#1F355F"/>
    <path d="M26.662 39.5c.009 0 3.099.492 2.112 5.75l-1.204-.226c.756-4.026-1.114-4.314-1.119-4.315l.211-1.21z" fill="#1F355F"/>
    <path d="M35.872 40.766c-.015.008-5.082 2.798-7.769 2.076l.317-1.185c2.213.594 6.852-1.96 6.866-1.966l.586 1.075z" fill="#1F355F"/>
    <path d="M29.5 0c8.146 0 15.522 3.302 20.86 8.64C55.698 13.98 59 21.353 59 29.5s-3.302 15.522-8.64 20.86C45.02 55.698 37.647 59 29.5 59c-8.146 0-15.521-3.302-20.86-8.64C3.302 45.02 0 37.647 0 29.5c0-8.146 3.302-15.521 8.64-20.86C13.98 3.302 21.353 0 29.5 0zm19.99 9.51C44.374 4.392 37.306 1.228 29.5 1.228c-7.807 0-14.874 3.164-19.99 8.28-5.117 5.117-8.28 12.184-8.28 19.99 0 7.808 3.163 14.875 8.28 19.991 5.116 5.116 12.184 8.28 19.99 8.28 7.807 0 14.874-3.164 19.99-8.28 5.117-5.116 8.28-12.184 8.28-19.99 0-7.807-3.163-14.874-8.28-19.99z" fill="#1F355F"/>
    <path d="m9.295 8.73 41.28 41.28-.869.869-41.28-41.28.869-.87z" fill="#1F355F"/>
</svg>
