<svg width="56" height="56" viewBox="0 0 56 56" fill="none" xmlns="http://www.w3.org/2000/svg">
    <path d="M28 0C12.561 0 0 12.561 0 28c0 15.44 12.561 28 28 28 15.44 0 28-12.561 28-28S43.439 0 28 0zM2.286 28c0-6.576 2.484-12.582 6.56-17.134l21.418 21.418v3.821c-1.792-1.136-4.525-1.524-7.375-.848-4.468 1.06-7.52 4.322-6.816 7.287.703 2.965 4.895 4.51 9.362 3.45 4.429-1.05 7.46-4.265 6.829-7.208v-4.502l12.87 12.87C40.58 51.23 34.575 53.714 28 53.714 13.82 53.715 2.285 42.18 2.285 28V28zm44.868 17.134-14.89-14.891v-18.42l3.4 2.867c1.625 1.37 2.745 3.101 3.24 5.01.497 1.918-.592 4.335-1.312 5.935-.233.516-.416.924-.528 1.266a1 1 0 0 0 1.902.62c.078-.24.25-.622.45-1.065.784-1.743 2.098-4.66 1.424-7.258-.6-2.312-1.943-4.4-3.886-6.037l-5.046-4.254a1 1 0 0 0-1.645.765v18.571L10.866 8.845C15.418 4.77 21.423 2.285 28 2.285c14.178 0 25.714 11.536 25.714 25.714 0 6.577-2.485 12.582-6.56 17.134z" fill="#1F355F"/>
</svg>
