<svg width="57" height="57" viewBox="0 0 57 57" fill="none" xmlns="http://www.w3.org/2000/svg">
<path d="M41.0823 16.4186C40.1731 16.0066 39.5236 14.8225 39.6645 13.8336L39.996 11.5126C40.0634 11.0403 39.7353 10.6026 39.2631 10.5356C38.7916 10.4706 38.353 10.7966 38.2856 11.2681L37.9541 13.5895C37.7062 15.3324 38.7671 17.2663 40.3696 17.9919C41.2804 18.4047 41.9298 19.5889 41.7889 20.5777L41.4853 22.7051C41.4178 23.177 41.7459 23.6147 42.2182 23.6818C42.2595 23.6877 42.3009 23.6906 42.3414 23.6906C42.7647 23.6906 43.1341 23.3798 43.1957 22.9489L43.4993 20.8214C43.7473 19.079 42.6855 17.1455 41.0821 16.4186L41.0823 16.4186Z" fill="#1F355F"/>
<path d="M28.4862 0.00107955C20.8738 0.00107955 13.7171 2.96557 8.33461 8.34843C-2.77806 19.46 -2.77806 37.5411 8.33377 48.6526C13.7171 54.0355 20.8736 57 28.4864 57C36.0993 57 43.2554 54.0355 48.638 48.6526C54.0213 43.2698 56.9858 36.1128 56.9858 28.5C56.9858 20.8872 54.0213 13.731 48.638 8.34735C43.2556 2.9645 36.0982 0 28.4864 0L28.4862 0.00107955ZM9.55448 47.4313C-0.679133 37.1972 -0.872262 20.6762 8.96031 10.1951L23.8092 25.044H8.66128C7.97645 25.044 7.41896 25.6015 7.41896 26.2867V31.6148C7.41896 32.3 7.97644 32.8575 8.66128 32.8575H31.6229L46.7913 48.0271C41.812 52.702 35.3483 55.2725 28.4858 55.2725C21.3347 55.2725 14.6116 52.4877 9.55406 47.4312L9.55448 47.4313ZM43.3006 26.7712V31.1303H39.954V26.7712H43.3006ZM38.2268 31.1303H32.3374L27.9784 26.7712H38.2268V31.1303ZM29.895 31.1303H18.8071V26.7712H25.536L29.895 31.1303ZM9.14534 31.1303V26.7712H17.0799V31.1303H9.14534ZM48.0127 46.805L34.0652 32.8575H43.8787C44.513 32.8575 45.0282 32.3422 45.0282 31.7084V26.193C45.0282 25.5592 44.5129 25.0439 43.8787 25.0439H26.2511L10.1802 8.97294C15.1595 4.29804 21.6232 1.72746 28.4857 1.72746C35.6368 1.72746 42.3599 4.51232 47.4164 9.56884C52.4733 14.6254 55.2582 21.3487 55.2582 28.4995C55.2582 35.3616 52.6879 41.8252 48.0123 46.805H48.0127Z" fill="#1F355F"/>
</svg>
