<svg width="1920" height="284" viewBox="0 0 1920 284" fill="none" xmlns="http://www.w3.org/2000/svg">
<g clip-path="url(#clip0_1737_12499)">
<path d="M0 -3H1948V282H0V-3Z" fill="#FFF2E7"/>
<mask id="mask0_1737_12499" style="mask-type:luminance" maskUnits="userSpaceOnUse" x="1" y="-181" width="1919" height="465">
<path d="M1 284H1920V-181H1V284Z" fill="white"/>
</mask>
<g mask="url(#mask0_1737_12499)">
<path d="M1074.35 394.336V340.921L1072.72 340.12L1047.83 327.971L1021.3 315.013L987.711 331.412L969.881 340.12L968.244 340.921V394.336L966.597 395.138L964.96 394.336V340.921L963.313 340.12L938.433 327.971L911.896 315.013L878.318 331.412L860.478 340.12L858.841 340.921V394.336L857.194 395.138L855.557 394.336V340.921L853.92 340.12L829.03 327.971L802.502 315.013L768.915 331.412L751.085 340.12L749.438 340.921V394.336L747.801 395.138L746.154 394.336H746.164V384.636H746.154V340.921L744.517 340.12L719.627 327.971L693.1 315.013L659.512 331.412L641.682 340.12L640.045 340.921V394.336L638.398 395.138L636.761 394.336V340.921L635.114 340.12L610.234 327.971L583.697 315.013L550.119 331.412L532.279 340.12L530.642 340.921V394.336L529.005 395.138L527.358 394.336V340.921L525.721 340.12L500.831 327.971L474.303 315.013L440.716 331.412L422.886 340.12L421.239 340.921V394.336L419.602 395.138L417.955 394.336V340.921L416.318 340.12L391.428 327.971L364.9 315.013L331.313 331.412L313.483 340.12L311.836 340.921V394.336L310.199 395.138L308.562 394.336V340.921L306.915 340.12L282.025 327.971L255.498 315.013L221.92 331.412L204.08 340.12L202.443 340.921V394.336L200.796 395.138L199.159 394.336V340.921L197.522 340.12L172.632 327.971L146.104 315.013L112.517 331.412L94.677 340.12L93.04 340.921V394.336L91.403 395.138L89.756 394.336V340.921L88.119 340.12L63.229 327.971L36.7 315.013L3.114 331.412L-14.716 340.12L-16.363 340.921V394.336L-18 395.138V338.52L26.622 316.734L35.055 312.612V259.197L36.701 258.396L38.339 259.197V312.612L64.866 325.562L91.403 338.52L136.016 316.734L144.458 312.612V259.197L146.104 258.396L147.742 259.197V312.612L174.269 325.562L200.796 338.52L245.419 316.734L253.86 312.612V259.197L255.498 258.396L257.144 259.197V312.612L283.672 325.562L310.199 338.52L354.821 316.734L363.263 312.612V259.197L364.9 258.396L366.538 259.197V312.612L393.075 325.562L419.602 338.52L464.215 316.734L472.657 312.612V259.197L474.303 258.396L475.941 259.197V312.612L502.468 325.562L528.995 338.52H529.005L573.618 316.734L582.059 312.612V259.197L583.697 258.396L585.343 259.197V312.612L611.871 325.562L638.398 338.52L683.02 316.734L691.462 312.612V259.197L693.1 258.396L694.746 259.197V312.612L721.274 325.562L747.801 338.52L792.423 316.734L800.856 312.612V259.197L802.502 258.396L804.14 259.197V312.612L830.667 325.562L857.194 338.52L901.817 316.734L910.258 312.612V259.197L911.896 258.396L913.542 259.197V312.612L940.07 325.562L966.597 338.52L1011.22 316.734L1019.66 312.612V259.197L1021.3 258.396L1022.94 259.197V312.612L1049.47 325.562L1076 338.52V395.138L1074.35 394.336Z" fill="#F5841F" fill-opacity="0.08"/>
<path d="M2168.35 394.335V340.92L2166.72 340.119L2141.83 327.97L2115.3 315.012L2081.71 331.411L2063.88 340.119L2062.24 340.92V394.335L2060.6 395.136L2058.96 394.335V340.92L2057.31 340.119L2032.43 327.97L2005.9 315.012L1972.32 331.411L1954.48 340.119L1952.84 340.92V394.335L1951.19 395.136L1949.56 394.335V340.92L1947.92 340.119L1923.03 327.97L1896.5 315.012L1862.91 331.411L1845.08 340.119L1843.44 340.92V394.335L1841.8 395.136L1840.15 394.335H1840.16V384.635H1840.15V340.92L1838.52 340.119L1813.63 327.97L1787.1 315.012L1753.51 331.411L1735.68 340.119L1734.04 340.92V394.335L1732.4 395.136L1730.76 394.335V340.92L1729.11 340.119L1704.23 327.97L1677.7 315.012L1644.12 331.411L1626.28 340.119L1624.64 340.92V394.335L1623 395.136L1621.36 394.335V340.92L1619.72 340.119L1594.83 327.97L1568.3 315.012L1534.72 331.411L1516.89 340.119L1515.24 340.92V394.335L1513.6 395.136L1511.96 394.335V340.92L1510.32 340.119L1485.43 327.97L1458.9 315.012L1425.31 331.411L1407.48 340.119L1405.84 340.92V394.335L1404.2 395.136L1402.56 394.335V340.92L1400.92 340.119L1376.02 327.97L1349.5 315.012L1315.92 331.411L1298.08 340.119L1296.44 340.92V394.335L1294.8 395.136L1293.16 394.335V340.92L1291.52 340.119L1266.63 327.97L1240.1 315.012L1206.52 331.411L1188.68 340.119L1187.04 340.92V394.335L1185.4 395.136L1183.76 394.335V340.92L1182.12 340.119L1157.23 327.97L1130.7 315.012L1097.11 331.411L1079.28 340.119L1077.64 340.92V394.335L1076 395.136V338.519L1120.62 316.733L1129.05 312.611V259.195L1130.7 258.395L1132.34 259.195V312.611L1158.87 325.561L1185.4 338.519L1230.02 316.733L1238.46 312.611V259.195L1240.1 258.395L1241.74 259.195V312.611L1268.27 325.561L1294.8 338.519L1339.42 316.733L1347.86 312.611V259.195L1349.5 258.395L1351.14 259.195V312.611L1377.67 325.561L1404.2 338.519L1448.82 316.733L1457.26 312.611V259.195L1458.9 258.395L1460.54 259.195V312.611L1487.07 325.561L1513.6 338.519L1558.21 316.733L1566.66 312.611V259.195L1568.3 258.395L1569.94 259.195V312.611L1596.47 325.561L1623 338.519L1667.62 316.733L1676.06 312.611V259.195L1677.7 258.395L1679.34 259.195V312.611L1705.87 325.561L1732.4 338.519L1777.02 316.733L1785.46 312.611V259.195L1787.1 258.395L1788.75 259.195V312.611L1815.27 325.561L1841.8 338.519L1886.42 316.733L1894.86 312.611V259.195L1896.5 258.395L1898.14 259.195V312.611L1924.67 325.561L1951.19 338.519L1995.82 316.733L2004.26 312.611V259.195L2005.9 258.395L2007.54 259.195V312.611L2034.07 325.561L2060.6 338.519L2105.22 316.733L2113.66 312.611V259.195L2115.3 258.395L2116.94 259.195V312.611L2143.47 325.561L2170 338.519V395.136L2168.35 394.335ZM1065.24 282.228V238.387L1054.48 233.122L1021.3 216.868L988.118 233.122L977.358 238.387V291.956L966.597 297.222L955.846 291.956V238.387L945.086 233.122L911.896 216.868L878.715 233.122L867.955 238.387V291.956L857.194 297.222L846.443 291.956V238.387L835.683 233.122L802.502 216.868L769.312 233.122L758.561 238.387V291.956L747.801 297.222L737.04 291.956V238.387L726.28 233.122H726.289L693.1 216.868L659.919 233.122L649.159 238.387V291.956L638.398 297.222L627.638 291.956V238.387L616.887 233.122L583.697 216.868L550.516 233.122L539.756 238.387V291.956L529.005 297.222L518.244 291.956V238.387L507.484 233.122L474.303 216.868L441.113 233.122L430.353 238.387V291.956L419.602 297.222L408.841 291.956V238.387L398.081 233.122L364.9 216.868L331.711 233.122L320.96 238.387V291.956L310.199 297.222L299.439 291.956V238.387L288.688 233.122L255.498 216.868L222.317 233.122L211.557 238.387V291.956L200.796 297.222L190.045 291.956V238.387L179.285 233.122L146.104 216.868L112.914 233.122L102.154 238.387V291.956L91.403 297.222L80.643 291.956V238.387L69.882 233.122L36.702 216.868L3.512 233.122L-7.24 238.387V291.956L-18 297.222V294.011L-10.524 290.351V236.782L-3.047 233.122L36.701 213.658L76.45 233.122L83.926 236.782V290.351L91.403 294.011L98.879 290.351V236.782L106.356 233.122L146.104 213.658L185.853 233.122L193.32 236.782V290.351L200.796 294.011L208.273 290.351V236.782L215.749 233.122L255.498 213.658L295.246 233.122L302.723 236.782V290.351L310.199 294.011L317.676 290.351V236.782L325.152 233.122L364.9 213.658L404.649 233.122L412.125 236.782V290.351L419.602 294.011L427.078 290.351V236.782L434.555 233.122L474.303 213.658L514.052 233.122L521.528 236.782V290.351L529.005 294.011L536.472 290.351V236.782L543.948 233.122L583.697 213.658L623.445 233.122L630.922 236.782V290.351L638.398 294.011L645.875 290.351V236.782L653.351 233.122L693.1 213.658L732.848 233.122L740.324 236.782V290.351L747.801 294.011L755.277 290.351V236.782L762.754 233.122L802.502 213.658L842.251 233.122L849.727 236.782V290.351L857.194 294.011L864.671 290.351V236.782L872.147 233.122L911.896 213.658L951.644 233.122L959.121 236.782V290.351L966.597 294.011L974.074 290.351V236.782L981.55 233.122L1021.3 213.658L1061.05 233.122L1068.52 236.782V290.351L1076 294.011V297.222L1065.24 291.956V282.228Z" fill="#F5841F" fill-opacity="0.08"/>
<path d="M2159.24 282.228V238.387L2148.48 233.122L2115.3 216.868L2082.12 233.122L2071.36 238.387V291.956L2060.6 297.222L2049.85 291.956V238.387L2039.09 233.122L2005.9 216.868L1972.72 233.122L1961.95 238.387V291.956L1951.19 297.222L1940.44 291.956V238.387L1929.68 233.122L1896.5 216.868L1863.31 233.122L1852.56 238.387V291.956L1841.8 297.222L1831.04 291.956V238.387L1820.28 233.122H1820.29L1787.1 216.868L1753.92 233.122L1743.16 238.387V291.956L1732.4 297.222L1721.64 291.956V238.387L1710.89 233.122L1677.7 216.868L1644.52 233.122L1633.76 238.387V291.956L1623 297.222L1612.24 291.956V238.387L1601.48 233.122L1568.3 216.868L1535.11 233.122L1524.35 238.387V291.956L1513.6 297.222L1502.84 291.956V238.387L1492.08 233.122L1458.9 216.868L1425.71 233.122L1414.96 238.387V291.956L1404.2 297.222L1393.44 291.956V238.387L1382.69 233.122L1349.5 216.868L1316.32 233.122L1305.56 238.387V291.956L1294.8 297.222L1284.05 291.956V238.387L1273.28 233.122L1240.1 216.868L1206.91 233.122L1196.15 238.387V291.956L1185.4 297.222L1174.64 291.956V238.387L1163.88 233.122L1130.7 216.868L1097.51 233.122L1086.76 238.387V291.956L1076 297.222V294.011L1083.48 290.351V236.782L1090.95 233.122L1130.7 213.658L1170.45 233.122L1177.93 236.782V290.351L1185.4 294.011L1192.88 290.351V236.782L1200.36 233.122L1240.1 213.658L1279.85 233.122L1287.32 236.782V290.351L1294.8 294.011L1302.27 290.351V236.782L1309.75 233.122L1349.5 213.658L1389.25 233.122L1396.72 236.782V290.351L1404.2 294.011L1411.68 290.351V236.782L1419.15 233.122L1458.9 213.658L1498.65 233.122L1506.13 236.782V290.351L1513.6 294.011L1521.08 290.351V236.782L1528.55 233.122L1568.3 213.658L1608.05 233.122L1615.53 236.782V290.351L1623 294.011L1630.47 290.351V236.782L1637.95 233.122L1677.7 213.658L1717.45 233.122L1724.92 236.782V290.351L1732.4 294.011L1739.87 290.351V236.782L1747.35 233.122L1787.1 213.658L1826.85 233.122L1834.32 236.782V290.351L1841.8 294.011L1849.28 290.351V236.782L1856.75 233.122L1896.5 213.658L1936.25 233.122L1943.73 236.782V290.351L1951.19 294.011L1958.67 290.351V236.782L1966.15 233.122L2005.9 213.658L2045.64 233.122L2053.12 236.782V290.351L2060.6 294.011L2068.07 290.351V236.782L2075.55 233.122L2115.3 213.658L2155.05 233.122L2162.52 236.782V290.351L2170 294.011V297.222L2159.24 291.956V282.228ZM1056.13 286.397V243.004L1036.25 233.375L1021.3 226.129L1006.35 233.375L986.471 243.004V296.026L966.597 305.663L946.723 296.026V243.004L926.849 233.375L911.896 226.129L896.952 233.375L877.078 243.004V296.026L857.194 305.663L837.32 296.026V243.004L817.446 233.375L802.502 226.129L787.549 233.375L767.675 243.004V296.026L747.801 305.663L727.927 296.026V243.004L708.052 233.375L693.1 226.129L678.147 233.375L658.272 243.004V296.026L638.398 305.663L618.524 296.026V243.004L598.65 233.375L583.697 226.129L568.753 233.375L548.879 243.004V296.026L529.005 305.663L509.121 296.026V243.004L489.247 233.375L474.303 226.129L459.35 233.375L439.476 243.004V296.026L419.602 305.663L399.728 296.026V243.004L379.853 233.375L364.9 226.129L349.948 233.375L330.073 243.004V296.026L310.199 305.663L290.325 296.026V243.004L270.451 233.375L255.498 226.129L240.545 233.375L220.67 243.004V296.026L200.796 305.663L180.922 296.026V243.004L161.048 233.375L146.104 226.129L131.151 233.375L111.277 243.004V296.026L91.403 305.663L71.529 296.026V243.004L51.654 233.375L36.701 226.129L21.748 233.375L1.874 243.004V296.026L-18 305.663V302.477L-1.41 294.437V241.415L15.18 233.375L36.701 222.943L58.213 233.375L74.803 241.415V294.437L91.403 302.477L107.993 294.437V241.415L124.583 233.375L146.104 222.943L167.616 233.375L184.206 241.415V294.437L200.796 302.477L217.396 294.437V241.415L233.986 233.375L255.498 222.943L277.019 233.375L293.609 241.415V294.437L310.199 302.477L326.789 294.437V241.415L343.389 233.375L364.9 222.943L386.412 233.375L403.012 241.415V294.437L419.602 302.477L436.192 294.437V241.415L452.782 233.375L474.303 222.943L495.815 233.375L512.405 241.415V294.437L529.005 302.477L545.595 294.437V241.415L562.185 233.375L583.697 222.943L605.218 233.375L621.808 241.415V294.437L638.398 302.477L654.988 294.437V241.415L671.588 233.375L693.1 222.943L714.611 233.375L731.211 241.415V294.437L747.801 302.477L764.391 294.437V241.415L780.981 233.375L802.502 222.943L824.014 233.375L840.604 241.415V294.437L857.194 302.477L873.794 294.437V241.415L890.384 233.375L911.896 222.943L933.417 233.375L950.007 241.415V294.437L966.597 302.477L983.187 294.437V241.415L999.787 233.375L1021.3 222.943L1042.81 233.375L1059.41 241.415V294.437L1076 302.477V305.663L1056.13 296.026V286.397Z" fill="#F5841F" fill-opacity="0.08"/>
<path d="M2150.13 286.397V243.004L2130.25 233.375L2115.3 226.129L2100.35 233.375L2080.47 243.004V296.026L2060.6 305.663L2040.72 296.026V243.004L2020.85 233.375L2005.9 226.129L1990.95 233.375L1971.08 243.004V296.026L1951.19 305.663L1931.32 296.026V243.004L1911.45 233.375L1896.5 226.129L1881.55 233.375L1861.68 243.004V296.026L1841.8 305.663L1821.93 296.026V243.004L1802.05 233.375L1787.1 226.129L1772.15 233.375L1752.27 243.004V296.026L1732.4 305.663L1712.52 296.026V243.004L1692.65 233.375L1677.7 226.129L1662.75 233.375L1642.88 243.004V296.026L1623 305.663L1603.12 296.026V243.004L1583.25 233.375L1568.3 226.129L1553.35 233.375L1533.48 243.004V296.026L1513.6 305.663L1493.73 296.026V243.004L1473.85 233.375L1458.9 226.129L1443.95 233.375L1424.07 243.004V296.026L1404.2 305.663L1384.32 296.026V243.004L1364.45 233.375L1349.5 226.129L1334.54 233.375L1314.67 243.004V296.026L1294.8 305.663L1274.92 296.026V243.004L1255.05 233.375L1240.1 226.129L1225.15 233.375L1205.28 243.004V296.026L1185.4 305.663L1165.53 296.026V243.004L1145.65 233.375L1130.7 226.129L1115.75 233.375L1095.87 243.004V296.026L1076 305.663V302.477L1092.59 294.437V241.415L1109.18 233.375L1130.7 222.943L1152.21 233.375L1168.8 241.415V294.437L1185.4 302.477L1201.99 294.437V241.415L1218.58 233.375L1240.1 222.943L1261.62 233.375L1278.21 241.415V294.437L1294.8 302.477L1311.4 294.437V241.415L1327.99 233.375L1349.5 222.943L1371.02 233.375L1387.61 241.415V294.437L1404.2 302.477L1420.79 294.437V241.415L1437.39 233.375L1458.9 222.943L1480.41 233.375L1497.01 241.415V294.437L1513.6 302.477L1530.19 294.437V241.415L1546.78 233.375L1568.3 222.943L1589.81 233.375L1606.41 241.415V294.437L1623 302.477L1639.59 294.437V241.415L1656.19 233.375L1677.7 222.943L1699.22 233.375L1715.81 241.415V294.437L1732.4 302.477L1748.99 294.437V241.415L1765.59 233.375L1787.1 222.943L1808.61 233.375L1825.21 241.415V294.437L1841.8 302.477L1858.39 294.437V241.415L1874.98 233.375L1896.5 222.943L1918.01 233.375L1934.6 241.415V294.437L1951.19 302.477L1967.79 294.437V241.415L1984.38 233.375L2005.9 222.943L2027.42 233.375L2044.01 241.415V294.437L2060.6 302.477L2077.19 294.437V241.415L2093.79 233.375L2115.3 222.943L2136.81 233.375L2153.41 241.415V294.437L2170 302.477V305.663L2150.13 296.026V286.397ZM1047.01 300.749V247.18L1021.3 234.595L995.595 247.18V300.749L966.597 314.948L937.609 300.749V247.18L911.896 234.595L886.192 247.18V300.749L857.194 314.948L828.206 300.749V247.18L802.502 234.595L776.789 247.18V300.749L747.801 314.948L718.803 300.749V247.18L693.1 234.595L667.396 247.18V300.749L638.398 314.948L609.41 300.749V247.18L583.697 234.595L557.993 247.18V300.749L529.005 314.948H528.995L500.007 300.749V247.18L474.303 234.595L448.59 247.18V300.749L419.602 314.948L390.604 300.749V247.18L364.9 234.595L339.187 247.18V300.749L310.199 314.948L281.211 300.749V247.18L255.498 234.595L229.794 247.18V300.749L200.796 314.948L171.808 300.749V247.18L146.104 234.595L120.391 247.18V300.749L91.403 314.948L62.405 300.749V247.18L36.701 234.595L10.988 247.18V300.749L-18 314.948V311.738L7.704 299.144V245.575L33.417 232.99L36.701 231.384L39.985 232.99L65.689 245.575V299.144L91.403 311.738L117.107 299.144V245.575L142.82 232.99L146.104 231.384L149.379 232.99L175.092 245.575V299.144L200.796 311.738L226.51 299.144V245.575L252.214 232.99L255.498 231.384L258.782 232.99L284.495 245.575V299.144L310.199 311.738L335.913 299.144V245.575L361.616 232.99L364.9 231.384L368.184 232.99L393.888 245.575V299.144L419.602 311.738L445.306 299.144V245.575L471.019 232.99L474.303 231.384L477.578 232.99L503.291 245.575V299.144L529.005 311.738L554.709 299.144V245.575L580.422 232.99L583.697 231.384L586.981 232.99L612.694 245.575V299.144L638.398 311.738L664.112 299.144V245.575L689.816 232.99L693.1 231.384L696.383 232.99L722.088 245.575V299.144L747.801 311.738L773.505 299.144V245.575L799.218 232.99L802.502 231.384L805.786 232.99L831.49 245.575V299.144L857.194 311.738L882.908 299.144V245.575L908.621 232.99L911.896 231.384L915.18 232.99L940.893 245.575V299.144L966.597 311.738L992.311 299.144V245.575L1018.01 232.99L1021.3 231.384L1024.58 232.99L1050.29 245.575V299.144L1076 311.738V314.948L1047.01 300.749Z" fill="#F5841F" fill-opacity="0.08"/>
<path d="M2141.01 300.75V247.181L2115.3 234.596L2089.59 247.181V300.75L2060.6 314.949L2031.61 300.75V247.181L2005.9 234.596L1980.19 247.181V300.75L1951.19 314.949L1922.21 300.75V247.181L1896.5 234.596L1870.79 247.181V300.75L1841.8 314.949L1812.8 300.75V247.181L1787.1 234.596L1761.4 247.181V300.75L1732.4 314.949L1703.41 300.75V247.181L1677.7 234.596L1651.99 247.181V300.75L1623 314.949L1594.01 300.75V247.181L1568.3 234.596L1542.59 247.181V300.75L1513.6 314.949L1484.6 300.75V247.181L1458.9 234.596L1433.19 247.181V300.75L1404.2 314.949L1375.21 300.75V247.181L1349.5 234.596L1323.79 247.181V300.75L1294.8 314.949L1265.81 300.75V247.181L1240.1 234.596L1214.39 247.181V300.75L1185.4 314.949L1156.41 300.75V247.181L1130.7 234.596L1104.99 247.181V300.75L1076 314.949V311.739L1101.7 299.145V245.576L1127.42 232.991L1130.7 231.385L1133.99 232.991L1159.69 245.576V299.145L1185.4 311.739L1211.11 299.145V245.576L1236.82 232.991L1240.1 231.385L1243.38 232.991L1269.09 245.576V299.145L1294.8 311.739L1320.51 299.145V245.576L1346.21 232.991L1349.5 231.385L1352.78 232.991L1378.5 245.576V299.145L1404.2 311.739L1429.91 299.145V245.576L1455.62 232.991L1458.9 231.385L1462.18 232.991L1487.89 245.576V299.145L1513.6 311.739L1539.31 299.145V245.576L1565.02 232.991L1568.3 231.385L1571.58 232.991L1597.29 245.576V299.145L1623 311.739L1648.71 299.145V245.576L1674.42 232.991L1677.7 231.385L1680.98 232.991L1706.69 245.576V299.145L1732.4 311.739L1758.11 299.145V245.576L1783.82 232.991L1787.1 231.385L1790.38 232.991L1816.09 245.576V299.145L1841.8 311.739L1867.5 299.145V245.576L1893.22 232.991L1896.5 231.385L1899.79 232.991L1925.49 245.576V299.145L1951.19 311.739L1976.91 299.145V245.576L2002.62 232.991L2005.9 231.385L2009.18 232.991L2034.89 245.576V299.145L2060.6 311.739L2086.31 299.145V245.576L2112.01 232.991L2115.3 231.385L2118.58 232.991L2144.29 245.576V299.145L2170 311.739V314.949L2141.01 300.75ZM1037.89 304.917V251.895L1021.3 243.847L1004.71 251.895V304.917L966.597 323.389L928.495 304.917V251.895L911.896 243.847L895.305 251.895V304.917L857.194 323.389L819.093 304.917V251.895L802.502 243.847L785.912 251.895V304.917L747.801 323.389L709.69 304.917V251.895L693.1 243.847L676.509 251.895V304.917L638.398 323.389L600.296 304.917V251.895L583.697 243.847L567.106 251.895V304.917L529.005 323.389V323.381L528.995 323.389L490.894 304.917V251.895L474.303 243.847L457.704 251.895V304.917L419.602 323.389L381.491 304.917V251.895L364.9 243.847L348.31 251.895V304.917L310.199 323.389L272.088 304.917V251.895L255.498 243.847L238.907 251.895V304.917L200.796 323.389L162.694 304.917V251.895L146.104 243.847L129.505 251.895V304.917L91.403 323.389L53.292 304.917V251.895L36.702 243.847L20.112 251.895V304.917L-18 323.389V320.203L16.827 303.32V250.298L36.701 240.669L56.576 250.298V303.32L91.403 320.203L126.23 303.32V250.298L146.104 240.669L165.978 250.298V303.32L200.796 320.203L235.623 303.32V250.298L255.498 240.669L275.372 250.298V303.32L310.199 320.203L345.026 303.32V250.298L364.9 240.669L384.775 250.298V303.32L419.602 320.203L454.429 303.32V250.298L474.303 240.669L494.178 250.298V303.32L529.005 320.203L563.823 303.32V250.298L583.697 240.669L603.571 250.298V303.32L638.398 320.203L673.225 303.32V250.298L693.1 240.669L712.974 250.298V303.32L747.801 320.203L782.628 303.32V250.298L802.502 240.669L822.377 250.298V303.32L857.194 320.203L892.022 303.32V250.298L911.896 240.669L931.77 250.298V303.32L966.597 320.203L1001.42 303.32V250.298L1021.3 240.669L1041.17 250.298V303.32L1076 320.203V323.389L1037.89 304.917Z" fill="#F5841F" fill-opacity="0.08"/>
<path d="M2131.89 304.918V251.896L2115.3 243.848L2098.71 251.896V304.918L2060.6 323.39L2022.5 304.918V251.896L2005.9 243.848L1989.31 251.896V304.918L1951.19 323.39L1913.09 304.918V251.896L1896.5 243.848L1879.91 251.896V304.918L1841.8 323.39L1803.69 304.918V251.896L1787.1 243.848L1770.51 251.896V304.918L1732.4 323.39L1694.3 304.918V251.896L1677.7 243.848L1661.11 251.896V304.918L1623 323.39L1584.89 304.918V251.896L1568.3 243.848L1551.7 251.896V304.918L1513.6 323.39L1475.49 304.918V251.896L1458.9 243.848L1442.31 251.896V304.918L1404.2 323.39L1366.09 304.918V251.896L1349.5 243.848L1332.91 251.896V304.918L1294.8 323.39L1256.69 304.918V251.896L1240.1 243.848L1223.5 251.896V304.918L1185.4 323.39L1147.29 304.918V251.896L1130.7 243.848L1114.11 251.896V304.918L1076 323.39V320.204L1110.83 303.321V250.299L1130.7 240.67L1150.58 250.299V303.321L1185.4 320.204L1220.23 303.321V250.299L1240.1 240.67L1259.98 250.299V303.321L1294.8 320.204L1329.62 303.321V250.299L1349.5 240.67L1369.37 250.299V303.321L1404.2 320.204L1439.03 303.321V250.299L1458.9 240.67L1478.77 250.299V303.321L1513.6 320.204L1548.43 303.321V250.299L1568.3 240.67L1588.18 250.299V303.321L1623 320.204L1657.82 303.321V250.299L1677.7 240.67L1697.57 250.299V303.321L1732.4 320.204L1767.23 303.321V250.299L1787.1 240.67L1806.97 250.299V303.321L1841.8 320.204L1876.63 303.321V250.299L1896.5 240.67L1916.38 250.299V303.321L1951.19 320.204L1986.02 303.321V250.299L2005.9 240.67L2025.77 250.299V303.321L2060.6 320.204L2095.42 303.321V250.299L2115.3 240.67L2135.17 250.299V303.321L2170 320.204V323.39L2131.89 304.918ZM1028.78 299.818V255.989L1021.3 252.329L1013.82 255.989V309.553L966.597 332.675L919.372 309.553V255.989L911.896 252.329L904.419 255.989V309.553L857.194 332.675L809.979 309.553V255.989L802.502 252.329L795.026 255.989V309.553L747.801 332.675L700.576 309.553V255.989L693.1 252.329L685.623 255.989V309.553L638.398 332.675L591.173 309.553V255.989L583.697 252.329L576.22 255.989V309.553L529.005 332.675L481.78 309.553V255.989L474.303 252.329L466.827 255.989V309.553L419.602 332.675L372.377 309.553V255.989L364.9 252.329L357.424 255.989V309.553L310.199 332.675L262.974 309.553V255.989L255.498 252.329L248.021 255.989V309.553L200.796 332.675L153.571 309.553V255.989L146.104 252.329L138.628 255.989V309.553L91.403 332.675L44.178 309.553V255.989L36.701 252.329L29.225 255.989V309.553L-18 332.675V329.457L25.941 307.948V254.384L36.701 249.111L47.461 254.384V307.948L91.403 329.457L135.344 307.948V254.384L146.104 249.111L156.855 254.384V307.948L200.796 329.457L244.747 307.948V254.384L255.498 249.111L266.258 254.384V307.948L310.199 329.457L354.14 307.948V254.384L364.9 249.111L375.661 254.384V307.948L419.602 329.457L463.543 307.948V254.384L474.303 249.111L485.054 254.384V307.948L529.005 329.457L572.946 307.948V254.384L583.697 249.111L594.457 254.384V307.948L638.398 329.457L682.339 307.948V254.384L693.1 249.111L703.86 254.384V307.948L747.801 329.457L791.742 307.948V254.384L802.502 249.111L813.253 254.384V307.948L857.194 329.457L901.145 307.948V254.384L911.896 249.111L922.656 254.384V307.948L966.597 329.457L1010.54 307.948V254.384L1021.3 249.111L1032.06 254.384V307.948L1076 329.457V332.675L1028.78 309.553V299.818Z" fill="#F5841F" fill-opacity="0.08"/>
<path d="M2122.78 299.817V255.988L2115.3 252.328L2107.82 255.988V309.552L2060.6 332.674L2013.37 309.552V255.988L2005.9 252.328L1998.42 255.988V309.552L1951.19 332.674L1903.98 309.552V255.988L1896.5 252.328L1889.03 255.988V309.552L1841.8 332.674L1794.58 309.552V255.988L1787.1 252.328L1779.62 255.988V309.552L1732.4 332.674L1685.17 309.552V255.988L1677.7 252.328L1670.22 255.988V309.552L1623 332.674L1575.78 309.552V255.988L1568.3 252.328L1560.83 255.988V309.552L1513.6 332.674L1466.38 309.552V255.988L1458.9 252.328L1451.42 255.988V309.552L1404.2 332.674L1356.97 309.552V255.988L1349.5 252.328L1342.02 255.988V309.552L1294.8 332.674L1247.57 309.552V255.988L1240.1 252.328L1232.63 255.988V309.552L1185.4 332.674L1138.18 309.552V255.988L1130.7 252.328L1123.22 255.988V309.552L1076 332.674V329.456L1119.94 307.947V254.383L1130.7 249.11L1141.46 254.383V307.947L1185.4 329.456L1229.34 307.947V254.383L1240.1 249.11L1250.86 254.383V307.947L1294.8 329.456L1338.75 307.947V254.383L1349.5 249.11L1360.26 254.383V307.947L1404.2 329.456L1448.14 307.947V254.383L1458.9 249.11L1469.66 254.383V307.947L1513.6 329.456L1557.54 307.947V254.383L1568.3 249.11L1579.05 254.383V307.947L1623 329.456L1666.95 307.947V254.383L1677.7 249.11L1688.46 254.383V307.947L1732.4 329.456L1776.34 307.947V254.383L1787.1 249.11L1797.86 254.383V307.947L1841.8 329.456L1885.74 307.947V254.383L1896.5 249.11L1907.25 254.383V307.947L1951.19 329.456L1995.14 307.947V254.383L2005.9 249.11L2016.66 254.383V307.947L2060.6 329.456L2104.54 307.947V254.383L2115.3 249.11L2126.06 254.383V307.947L2170 329.456V332.674L2122.78 309.552V299.817ZM1074.35 287.142V234.056L1072.72 233.261L1047.83 221.178L1021.3 208.308L987.711 224.607L969.881 233.261L968.244 234.056V287.142L966.597 287.938L964.96 287.142V234.056L963.313 233.261L938.433 221.178L911.896 208.308L878.318 224.607L860.478 233.261L858.841 234.056V287.142L857.194 287.938L855.557 287.142V234.056L853.92 233.261L829.03 221.178L802.502 208.308L768.915 224.607L751.085 233.261L749.438 234.056V287.142L747.801 287.938L746.154 287.142H746.164V277.502H746.154V234.056L744.517 233.261L719.627 221.178L693.1 208.308L659.512 224.607L641.682 233.261L640.045 234.056V287.142L638.398 287.938L636.761 287.142V234.056L635.114 233.261L610.234 221.178L583.697 208.308L550.119 224.607L532.279 233.261L530.642 234.056V287.142L529.005 287.938L527.358 287.142V234.056L525.721 233.261L500.831 221.178L474.303 208.308L440.716 224.607L422.886 233.261L421.239 234.056V287.142L419.602 287.938L417.955 287.142V234.056L416.318 233.261L391.428 221.178L364.9 208.308L331.313 224.607L313.483 233.261L311.836 234.056V287.142L310.199 287.938L308.562 287.142V234.056L306.915 233.261L282.025 221.178L255.498 208.308L221.92 224.607L204.08 233.261L202.443 234.056V287.142L200.796 287.938L199.159 287.142V234.056L197.522 233.261L172.632 221.178L146.104 208.308L112.517 224.607L94.677 233.261L93.04 234.056V287.142L91.403 287.938L89.756 287.142V234.056L88.119 233.261L63.229 221.178L36.701 208.308L3.114 224.607L-14.716 233.261L-16.363 234.056V287.142L-18 287.938V231.67L26.622 210.011L35.055 205.922V152.836L36.701 152.041L38.339 152.836V205.922L64.866 218.792L91.403 231.67L136.016 210.011L144.458 205.922V152.836L146.104 152.041L147.742 152.836V205.922L174.269 218.792L200.796 231.67L245.419 210.011L253.86 205.922V152.836L255.498 152.041L257.144 152.836V205.922L283.672 218.792L310.199 231.67L354.821 210.011L363.263 205.922V152.836L364.9 152.041L366.538 152.836V205.922L393.075 218.792L419.602 231.67L464.215 210.011L472.657 205.922V152.836L474.303 152.041L475.941 152.836V205.922L502.468 218.792L528.995 231.67H529.005L573.618 210.011L582.059 205.922V152.836L583.697 152.041L585.343 152.836V205.922L611.871 218.792L638.398 231.67L683.02 210.011L691.462 205.922V152.836L693.1 152.041L694.746 152.836V205.922L721.274 218.792L747.801 231.67L792.423 210.011L800.856 205.922V152.836L802.502 152.041L804.14 152.836V205.922L830.667 218.792L857.194 231.67L901.817 210.011L910.258 205.922V152.836L911.896 152.041L913.542 152.836V205.922L940.07 218.792L966.597 231.67L1011.22 210.011L1019.66 205.922V152.836L1021.3 152.041L1022.94 152.836V205.922L1049.47 218.792L1076 231.67V287.938L1074.35 287.142Z" fill="#F5841F" fill-opacity="0.08"/>
<path d="M2168.35 287.143V234.057L2166.72 233.262L2141.83 221.179L2115.3 208.309L2081.71 224.608L2063.88 233.262L2062.24 234.057V287.143L2060.6 287.939L2058.96 287.143V234.057L2057.31 233.262L2032.43 221.179L2005.9 208.309L1972.32 224.608L1954.48 233.262L1952.84 234.057V287.143L1951.19 287.939L1949.56 287.143V234.057L1947.92 233.262L1923.03 221.179L1896.5 208.309L1862.91 224.608L1845.08 233.262L1843.44 234.057V287.143L1841.8 287.939L1840.15 287.143H1840.16V277.503H1840.15V234.057L1838.52 233.262L1813.63 221.179L1787.1 208.309L1753.51 224.608L1735.68 233.262L1734.04 234.057V287.143L1732.4 287.939L1730.76 287.143V234.057L1729.11 233.262L1704.23 221.179L1677.7 208.309L1644.12 224.608L1626.28 233.262L1624.64 234.057V287.143L1623 287.939L1621.36 287.143V234.057L1619.72 233.262L1594.83 221.179L1568.3 208.309L1534.72 224.608L1516.89 233.262L1515.24 234.057V287.143L1513.6 287.939L1511.96 287.143V234.057L1510.32 233.262L1485.43 221.179L1458.9 208.309L1425.31 224.608L1407.48 233.262L1405.84 234.057V287.143L1404.2 287.939L1402.56 287.143V234.057L1400.92 233.262L1376.02 221.179L1349.5 208.309L1315.92 224.608L1298.08 233.262L1296.44 234.057V287.143L1294.8 287.939L1293.16 287.143V234.057L1291.52 233.262L1266.63 221.179L1240.1 208.309L1206.52 224.608L1188.68 233.262L1187.04 234.057V287.143L1185.4 287.939L1183.76 287.143V234.057L1182.12 233.262L1157.23 221.179L1130.7 208.309L1097.11 224.608L1079.28 233.262L1077.64 234.057V287.143L1076 287.939V231.671L1120.62 210.012L1129.05 205.923V152.837L1130.7 152.042L1132.34 152.837V205.923L1158.87 218.793L1185.4 231.671L1230.02 210.012L1238.46 205.923V152.837L1240.1 152.042L1241.74 152.837V205.923L1268.27 218.793L1294.8 231.671L1339.42 210.012L1347.86 205.923V152.837L1349.5 152.042L1351.14 152.837V205.923L1377.67 218.793L1404.2 231.671L1448.82 210.012L1457.26 205.923V152.837L1458.9 152.042L1460.54 152.837V205.923L1487.07 218.793L1513.6 231.671L1558.21 210.012L1566.66 205.923V152.837L1568.3 152.042L1569.94 152.837V205.923L1596.47 218.793L1623 231.671L1667.62 210.012L1676.06 205.923V152.837L1677.7 152.042L1679.34 152.837V205.923L1705.87 218.793L1732.4 231.671L1777.02 210.012L1785.46 205.923V152.837L1787.1 152.042L1788.75 152.837V205.923L1815.27 218.793L1841.8 231.671L1886.42 210.012L1894.86 205.923V152.837L1896.5 152.042L1898.14 152.837V205.923L1924.67 218.793L1951.19 231.671L1995.82 210.012L2004.26 205.923V152.837L2005.9 152.042L2007.54 152.837V205.923L2034.07 218.793L2060.6 231.671L2105.22 210.012L2113.66 205.923V152.837L2115.3 152.042L2116.94 152.837V205.923L2143.47 218.793L2170 231.671V287.939L2168.35 287.143ZM1065.24 175.184V131.786L1054.48 126.574L1021.3 110.485L988.118 126.574L977.358 131.786V184.814L966.597 190.026L955.846 184.814V131.786L945.086 126.574L911.896 110.485L878.715 126.574L867.955 131.786V184.814L857.194 190.026L846.443 184.814V131.786L835.683 126.574L802.502 110.485L769.312 126.574L758.561 131.786V184.814L747.801 190.026L737.04 184.814V131.786L726.28 126.574H726.289L693.1 110.485L659.919 126.574L649.159 131.786V184.814L638.398 190.026L627.638 184.814V131.786L616.887 126.574L583.697 110.485L550.516 126.574L539.756 131.786V184.814L529.005 190.026L518.244 184.814V131.786L507.484 126.574L474.303 110.485L441.113 126.574L430.353 131.786V184.814L419.602 190.026L408.841 184.814V131.786L398.081 126.574L364.9 110.485L331.711 126.574L320.96 131.786V184.814L310.199 190.026L299.439 184.814V131.786L288.688 126.574L255.498 110.485L222.317 126.574L211.557 131.786V184.814L200.796 190.026L190.045 184.814V131.786L179.285 126.574L146.104 110.485L112.914 126.574L102.154 131.786V184.814L91.403 190.026L80.643 184.814V131.786L69.882 126.574L36.702 110.485L3.512 126.574L-7.24 131.786V184.814L-18 190.026V186.848L-10.524 183.225V130.197L-3.047 126.574L36.701 107.307L76.45 126.574L83.926 130.197V183.225L91.403 186.848L98.879 183.225V130.197L106.356 126.574L146.104 107.307L185.853 126.574L193.32 130.197V183.225L200.796 186.848L208.273 183.225V130.197L215.749 126.574L255.498 107.307L295.246 126.574L302.723 130.197V183.225L310.199 186.848L317.676 183.225V130.197L325.152 126.574L364.9 107.307L404.649 126.574L412.125 130.197V183.225L419.602 186.848L427.078 183.225V130.197L434.555 126.574L474.303 107.307L514.052 126.574L521.528 130.197V183.225L529.005 186.848L536.472 183.225V130.197L543.948 126.574L583.697 107.307L623.445 126.574L630.922 130.197V183.225L638.398 186.848L645.875 183.225V130.197L653.351 126.574L693.1 107.307L732.848 126.574L740.324 130.197V183.225L747.801 186.848L755.277 183.225V130.197L762.754 126.574L802.502 107.307L842.251 126.574L849.727 130.197V183.225L857.194 186.848L864.671 183.225V130.197L872.147 126.574L911.896 107.307L951.644 126.574L959.121 130.197V183.225L966.597 186.848L974.074 183.225V130.197L981.55 126.574L1021.3 107.307L1061.05 126.574L1068.52 130.197V183.225L1076 186.848V190.026L1065.24 184.814V175.184Z" fill="#F5841F" fill-opacity="0.08"/>
<path d="M2159.24 175.184V131.786L2148.48 126.574L2115.3 110.485L2082.12 126.574L2071.36 131.786V184.814L2060.6 190.026L2049.85 184.814V131.786L2039.09 126.574L2005.9 110.485L1972.72 126.574L1961.95 131.786V184.814L1951.19 190.026L1940.44 184.814V131.786L1929.68 126.574L1896.5 110.485L1863.31 126.574L1852.56 131.786V184.814L1841.8 190.026L1831.04 184.814V131.786L1820.28 126.574H1820.29L1787.1 110.485L1753.92 126.574L1743.16 131.786V184.814L1732.4 190.026L1721.64 184.814V131.786L1710.89 126.574L1677.7 110.485L1644.52 126.574L1633.76 131.786V184.814L1623 190.026L1612.24 184.814V131.786L1601.48 126.574L1568.3 110.485L1535.11 126.574L1524.35 131.786V184.814L1513.6 190.026L1502.84 184.814V131.786L1492.08 126.574L1458.9 110.485L1425.71 126.574L1414.96 131.786V184.814L1404.2 190.026L1393.44 184.814V131.786L1382.69 126.574L1349.5 110.485L1316.32 126.574L1305.56 131.786V184.814L1294.8 190.026L1284.05 184.814V131.786L1273.28 126.574L1240.1 110.485L1206.91 126.574L1196.15 131.786V184.814L1185.4 190.026L1174.64 184.814V131.786L1163.88 126.574L1130.7 110.485L1097.51 126.574L1086.76 131.786V184.814L1076 190.026V186.848L1083.48 183.225V130.197L1090.95 126.574L1130.7 107.307L1170.45 126.574L1177.93 130.197V183.225L1185.4 186.848L1192.88 183.225V130.197L1200.36 126.574L1240.1 107.307L1279.85 126.574L1287.32 130.197V183.225L1294.8 186.848L1302.27 183.225V130.197L1309.75 126.574L1349.5 107.307L1389.25 126.574L1396.72 130.197V183.225L1404.2 186.848L1411.68 183.225V130.197L1419.15 126.574L1458.9 107.307L1498.65 126.574L1506.13 130.197V183.225L1513.6 186.848L1521.08 183.225V130.197L1528.55 126.574L1568.3 107.307L1608.05 126.574L1615.53 130.197V183.225L1623 186.848L1630.47 183.225V130.197L1637.95 126.574L1677.7 107.307L1717.45 126.574L1724.92 130.197V183.225L1732.4 186.848L1739.87 183.225V130.197L1747.35 126.574L1787.1 107.307L1826.85 126.574L1834.32 130.197V183.225L1841.8 186.848L1849.28 183.225V130.197L1856.75 126.574L1896.5 107.307L1936.25 126.574L1943.73 130.197V183.225L1951.19 186.848L1958.67 183.225V130.197L1966.15 126.574L2005.9 107.307L2045.64 126.574L2053.12 130.197V183.225L2060.6 186.848L2068.07 183.225V130.197L2075.55 126.574L2115.3 107.307L2155.05 126.574L2162.52 130.197V183.225L2170 186.848V190.026L2159.24 184.814V175.184ZM1056.13 179.849V136.013L1036.25 126.285L1021.3 118.966L1006.35 126.285L986.471 136.013V189.576L966.597 199.312L946.723 189.576V136.013L926.849 126.285L911.896 118.966L896.952 126.285L877.078 136.013V189.576L857.194 199.312L837.32 189.576V136.013L817.446 126.285L802.502 118.966L787.549 126.285L767.675 136.013V189.576L747.801 199.312L727.927 189.576V136.013L708.052 126.285L693.1 118.966L678.147 126.285L658.272 136.013V189.576L638.398 199.312L618.524 189.576V136.013L598.65 126.285L583.697 118.966L568.753 126.285L548.879 136.013V189.576L529.005 199.312L509.121 189.576V136.013L489.247 126.285L474.303 118.966L459.35 126.285L439.476 136.013V189.576L419.602 199.312L399.728 189.576V136.013L379.853 126.285L364.9 118.966L349.948 126.285L330.073 136.013V189.576L310.199 199.312L290.325 189.576V136.013L270.451 126.285L255.498 118.966L240.545 126.285L220.67 136.013V189.576L200.796 199.312L180.922 189.576V136.013L161.048 126.285L146.104 118.966L131.151 126.285L111.277 136.013V189.576L91.403 199.312L71.529 189.576V136.013L51.654 126.285L36.701 118.966L21.748 126.285L1.874 136.013V189.576L-18 199.312V196.093L-1.41 187.971V134.408L15.18 126.285L36.701 115.748L58.213 126.285L74.803 134.408V187.971L91.403 196.093L107.993 187.971V134.408L124.583 126.285L146.104 115.748L167.616 126.285L184.206 134.408V187.971L200.796 196.093L217.396 187.971V134.408L233.986 126.285L255.498 115.748L277.019 126.285L293.609 134.408V187.971L310.199 196.093L326.789 187.971V134.408L343.389 126.285L364.9 115.748L386.412 126.285L403.012 134.408V187.971L419.602 196.093L436.192 187.971V134.408L452.782 126.285L474.303 115.748L495.815 126.285L512.405 134.408V187.971L529.005 196.093L545.595 187.971V134.408L562.185 126.285L583.697 115.748L605.218 126.285L621.808 134.408V187.971L638.398 196.093L654.988 187.971V134.408L671.588 126.285L693.1 115.748L714.611 126.285L731.211 134.408V187.971L747.801 196.093L764.391 187.971V134.408L780.981 126.285L802.502 115.748L824.014 126.285L840.604 134.408V187.971L857.194 196.093L873.794 187.971V134.408L890.384 126.285L911.896 115.748L933.417 126.285L950.007 134.408V187.971L966.597 196.093L983.187 187.971V134.408L999.787 126.285L1021.3 115.748L1042.81 126.285L1059.41 134.408V187.971L1076 196.093V199.312L1056.13 189.576V179.849Z" fill="#F5841F" fill-opacity="0.08"/>
<path d="M2150.13 179.847V136.011L2130.25 126.283L2115.3 118.964L2100.35 126.283L2080.47 136.011V189.574L2060.6 199.31L2040.72 189.574V136.011L2020.85 126.283L2005.9 118.964L1990.95 126.283L1971.08 136.011V189.574L1951.19 199.31L1931.32 189.574V136.011L1911.45 126.283L1896.5 118.964L1881.55 126.283L1861.68 136.011V189.574L1841.8 199.31L1821.93 189.574V136.011L1802.05 126.283L1787.1 118.964L1772.15 126.283L1752.27 136.011V189.574L1732.4 199.31L1712.52 189.574V136.011L1692.65 126.283L1677.7 118.964L1662.75 126.283L1642.88 136.011V189.574L1623 199.31L1603.12 189.574V136.011L1583.25 126.283L1568.3 118.964L1553.35 126.283L1533.48 136.011V189.574L1513.6 199.31L1493.73 189.574V136.011L1473.85 126.283L1458.9 118.964L1443.95 126.283L1424.07 136.011V189.574L1404.2 199.31L1384.32 189.574V136.011L1364.45 126.283L1349.5 118.964L1334.54 126.283L1314.67 136.011V189.574L1294.8 199.31L1274.92 189.574V136.011L1255.05 126.283L1240.1 118.964L1225.15 126.283L1205.28 136.011V189.574L1185.4 199.31L1165.53 189.574V136.011L1145.65 126.283L1130.7 118.964L1115.75 126.283L1095.87 136.011V189.574L1076 199.31V196.091L1092.59 187.969V134.406L1109.18 126.283L1130.7 115.746L1152.21 126.283L1168.8 134.406V187.969L1185.4 196.091L1201.99 187.969V134.406L1218.58 126.283L1240.1 115.746L1261.62 126.283L1278.21 134.406V187.969L1294.8 196.091L1311.4 187.969V134.406L1327.99 126.283L1349.5 115.746L1371.02 126.283L1387.61 134.406V187.969L1404.2 196.091L1420.79 187.969V134.406L1437.39 126.283L1458.9 115.746L1480.41 126.283L1497.01 134.406V187.969L1513.6 196.091L1530.19 187.969V134.406L1546.78 126.283L1568.3 115.746L1589.81 126.283L1606.41 134.406V187.969L1623 196.091L1639.59 187.969V134.406L1656.19 126.283L1677.7 115.746L1699.22 126.283L1715.81 134.406V187.969L1732.4 196.091L1748.99 187.969V134.406L1765.59 126.283L1787.1 115.746L1808.61 126.283L1825.21 134.406V187.969L1841.8 196.091L1858.39 187.969V134.406L1874.98 126.283L1896.5 115.746L1918.01 126.283L1934.6 134.406V187.969L1951.19 196.091L1967.79 187.969V134.406L1984.38 126.283L2005.9 115.746L2027.42 126.283L2044.01 134.406V187.969L2060.6 196.091L2077.19 187.969V134.406L2093.79 126.283L2115.3 115.746L2136.81 126.283L2153.41 134.406V187.969L2170 196.091V199.31L2150.13 189.574V179.847ZM1047.01 193.695V140.672L1021.3 128.215L995.595 140.672V193.695L966.597 207.749L937.609 193.695V140.672L911.896 128.215L886.192 140.672V193.695L857.194 207.749L828.206 193.695V140.672L802.502 128.215L776.789 140.672V193.695L747.801 207.749L718.803 193.695V140.672L693.1 128.215L667.396 140.672V193.695L638.398 207.749L609.41 193.695V140.672L583.697 128.215L557.993 140.672V193.695L529.005 207.749H528.995L500.007 193.695V140.672L474.303 128.215L448.59 140.672V193.695L419.602 207.749L390.604 193.695V140.672L364.9 128.215L339.187 140.672V193.695L310.199 207.749L281.211 193.695V140.672L255.498 128.215L229.794 140.672V193.695L200.796 207.749L171.808 193.695V140.672L146.104 128.215L120.391 140.672V193.695L91.403 207.749L62.405 193.695V140.672L36.701 128.215L10.988 140.672V193.695L-18 207.749V204.571L7.704 192.106V139.083L33.417 126.626L36.701 125.029L39.985 126.626L65.689 139.083V192.106L91.403 204.571L117.107 192.106V139.083L142.82 126.626L146.104 125.029L149.379 126.626L175.092 139.083V192.106L200.796 204.571L226.51 192.106V139.083L252.214 126.626L255.498 125.029L258.782 126.626L284.495 139.083V192.106L310.199 204.571L335.913 192.106V139.083L361.616 126.626L364.9 125.029L368.184 126.626L393.888 139.083V192.106L419.602 204.571L445.306 192.106V139.083L471.019 126.626L474.303 125.029L477.578 126.626L503.291 139.083V192.106L529.005 204.571L554.709 192.106V139.083L580.422 126.626L583.697 125.029L586.981 126.626L612.694 139.083V192.106L638.398 204.571L664.112 192.106V139.083L689.816 126.626L693.1 125.029L696.383 126.626L722.088 139.083V192.106L747.801 204.571L773.505 192.106V139.083L799.218 126.626L802.502 125.029L805.786 126.626L831.49 139.083V192.106L857.194 204.571L882.908 192.106V139.083L908.621 126.626L911.896 125.029L915.18 126.626L940.893 139.083V192.106L966.597 204.571L992.311 192.106V139.083L1018.01 126.626L1021.3 125.029L1024.58 126.626L1050.29 139.083V192.106L1076 204.571V207.749L1047.01 193.695Z" fill="#F5841F" fill-opacity="0.08"/>
<path d="M2141.01 193.695V140.672L2115.3 128.215L2089.59 140.672V193.695L2060.6 207.749L2031.61 193.695V140.672L2005.9 128.215L1980.19 140.672V193.695L1951.19 207.749L1922.21 193.695V140.672L1896.5 128.215L1870.79 140.672V193.695L1841.8 207.749L1812.8 193.695V140.672L1787.1 128.215L1761.4 140.672V193.695L1732.4 207.749L1703.41 193.695V140.672L1677.7 128.215L1651.99 140.672V193.695L1623 207.749L1594.01 193.695V140.672L1568.3 128.215L1542.59 140.672V193.695L1513.6 207.749L1484.6 193.695V140.672L1458.9 128.215L1433.19 140.672V193.695L1404.2 207.749L1375.21 193.695V140.672L1349.5 128.215L1323.79 140.672V193.695L1294.8 207.749L1265.81 193.695V140.672L1240.1 128.215L1214.39 140.672V193.695L1185.4 207.749L1156.41 193.695V140.672L1130.7 128.215L1104.99 140.672V193.695L1076 207.749V204.571L1101.7 192.106V139.083L1127.42 126.626L1130.7 125.029L1133.99 126.626L1159.69 139.083V192.106L1185.4 204.571L1211.11 192.106V139.083L1236.82 126.626L1240.1 125.029L1243.38 126.626L1269.09 139.083V192.106L1294.8 204.571L1320.51 192.106V139.083L1346.21 126.626L1349.5 125.029L1352.78 126.626L1378.5 139.083V192.106L1404.2 204.571L1429.91 192.106V139.083L1455.62 126.626L1458.9 125.029L1462.18 126.626L1487.89 139.083V192.106L1513.6 204.571L1539.31 192.106V139.083L1565.02 126.626L1568.3 125.029L1571.58 126.626L1597.29 139.083V192.106L1623 204.571L1648.71 192.106V139.083L1674.42 126.626L1677.7 125.029L1680.98 126.626L1706.69 139.083V192.106L1732.4 204.571L1758.11 192.106V139.083L1783.82 126.626L1787.1 125.029L1790.38 126.626L1816.09 139.083V192.106L1841.8 204.571L1867.5 192.106V139.083L1893.22 126.626L1896.5 125.029L1899.79 126.626L1925.49 139.083V192.106L1951.19 204.571L1976.91 192.106V139.083L2002.62 126.626L2005.9 125.029L2009.18 126.626L2034.89 139.083V192.106L2060.6 204.571L2086.31 192.106V139.083L2112.01 126.626L2115.3 125.029L2118.58 126.626L2144.29 139.083V192.106L2170 204.571V207.749L2141.01 193.695ZM1037.89 198.381V144.812L1021.3 136.681L1004.71 144.812V198.381L966.597 217.034L928.495 198.381V144.812L911.896 136.681L895.305 144.812V198.381L857.194 217.034L819.093 198.381V144.812L802.502 136.681L785.912 144.812V198.381L747.801 217.034L709.69 198.381V144.812L693.1 136.681L676.509 144.812V198.381L638.398 217.034L600.296 198.381V144.812L583.697 136.681L567.106 144.812V198.381L529.005 217.034H528.995L490.894 198.381V144.812L474.303 136.681L457.704 144.812V198.381L419.602 217.034L381.491 198.381V144.812L364.9 136.681L348.31 144.812V198.381L310.199 217.034L272.088 198.381V144.812L255.498 136.681L238.907 144.812V198.381L200.796 217.034L162.694 198.381V144.812L146.104 136.681L129.505 144.812V198.381L91.403 217.034L53.292 198.381V144.812L36.702 136.681L20.112 144.812V198.381L-18 217.034V213.824L16.827 196.767V143.198L36.701 133.47L56.576 143.198V196.767L91.403 213.824L126.23 196.767V143.198L146.104 133.47L165.978 143.198V196.767L200.796 213.824L235.623 196.767V143.198L255.498 133.47L275.372 143.198V196.767L310.199 213.824L345.026 196.767V143.198L364.9 133.47L384.775 143.198V196.767L419.602 213.824L454.429 196.767V143.198L474.303 133.47L494.178 143.198V196.767L529.005 213.824L563.823 196.767V143.198L583.697 133.47L603.571 143.198V196.767L638.398 213.824L673.225 196.767V143.198L693.1 133.47L712.974 143.198V196.767L747.801 213.824L782.628 196.767V143.198L802.502 133.47L822.377 143.198V196.767L857.194 213.824L892.022 196.767V143.198L911.896 133.47L931.77 143.198V196.767L966.597 213.824L1001.42 196.767V143.198L1021.3 133.47L1041.17 143.198V196.767L1076 213.824V217.034L1037.89 198.381Z" fill="#F5841F" fill-opacity="0.08"/>
<path d="M2131.89 198.382V144.813L2115.3 136.682L2098.71 144.813V198.382L2060.6 217.035L2022.5 198.382V144.813L2005.9 136.682L1989.31 144.813V198.382L1951.19 217.035L1913.09 198.382V144.813L1896.5 136.682L1879.91 144.813V198.382L1841.8 217.035L1803.69 198.382V144.813L1787.1 136.682L1770.51 144.813V198.382L1732.4 217.035L1694.3 198.382V144.813L1677.7 136.682L1661.11 144.813V198.382L1623 217.035L1584.89 198.382V144.813L1568.3 136.682L1551.7 144.813V198.382L1513.6 217.035L1475.49 198.382V144.813L1458.9 136.682L1442.31 144.813V198.382L1404.2 217.035L1366.09 198.382V144.813L1349.5 136.682L1332.91 144.813V198.382L1294.8 217.035L1256.69 198.382V144.813L1240.1 136.682L1223.5 144.813V198.382L1185.4 217.035L1147.29 198.382V144.813L1130.7 136.682L1114.11 144.813V198.382L1076 217.035V213.825L1110.83 196.768V143.199L1130.7 133.471L1150.58 143.199V196.768L1185.4 213.825L1220.23 196.768V143.199L1240.1 133.471L1259.98 143.199V196.768L1294.8 213.825L1329.62 196.768V143.199L1349.5 133.471L1369.37 143.199V196.768L1404.2 213.825L1439.03 196.768V143.199L1458.9 133.471L1478.77 143.199V196.768L1513.6 213.825L1548.43 196.768V143.199L1568.3 133.471L1588.18 143.199V196.768L1623 213.825L1657.82 196.768V143.199L1677.7 133.471L1697.57 143.199V196.768L1732.4 213.825L1767.23 196.768V143.199L1787.1 133.471L1806.97 143.199V196.768L1841.8 213.825L1876.63 196.768V143.199L1896.5 133.471L1916.38 143.199V196.768L1951.19 213.825L1986.02 196.768V143.199L2005.9 133.471L2025.77 143.199V196.768L2060.6 213.825L2095.42 196.768V143.199L2115.3 133.471L2135.17 143.199V196.768L2170 213.825V217.035L2131.89 198.382ZM1028.78 193.463V149.634L1021.3 145.975L1013.82 149.634V203.198L966.597 226.32L919.372 203.198V149.634L911.896 145.975L904.419 149.634V203.198L857.194 226.32L809.979 203.198V149.634L802.502 145.975L795.026 149.634V203.198L747.801 226.32L700.576 203.198V149.634L693.1 145.975L685.623 149.634V203.198L638.398 226.32L591.173 203.198V149.634L583.697 145.975L576.22 149.634V203.198L529.005 226.32L481.78 203.198V149.634L474.303 145.975L466.827 149.634V203.198L419.602 226.32L372.377 203.198V149.634L364.9 145.975L357.424 149.634V203.198L310.199 226.32L262.974 203.198V149.634L255.498 145.975L248.021 149.634V203.198L200.796 226.32L153.571 203.198V149.634L146.104 145.975L138.628 149.634V203.198L91.403 226.32L44.178 203.198V149.634L36.701 145.975L29.225 149.634V203.198L-18 226.32V223.102L25.941 201.585V148.029L36.701 142.756L47.461 148.029V201.585L91.403 223.102L135.344 201.585V148.029L146.104 142.756L156.855 148.029V201.585L200.796 223.102L244.747 201.585V148.029L255.498 142.756L266.258 148.029V201.585L310.199 223.102L354.14 201.585V148.029L364.9 142.756L375.661 148.029V201.585L419.602 223.102L463.543 201.585V148.029L474.303 142.756L485.054 148.029V201.585L529.005 223.102L572.946 201.585V148.029L583.697 142.756L594.457 148.029V201.585L638.398 223.102L682.339 201.585V148.029L693.1 142.756L703.86 148.029V201.585L747.801 223.102L791.742 201.585V148.029L802.502 142.756L813.253 148.029V201.585L857.194 223.102L901.145 201.585V148.029L911.896 142.756L922.656 148.029V201.585L966.597 223.102L1010.54 201.585V148.029L1021.3 142.756L1032.06 148.029V201.585L1076 223.102V226.32L1028.78 203.198V193.463Z" fill="#F5841F" fill-opacity="0.08"/>
<path d="M2122.78 193.464V149.635L2115.3 145.976L2107.82 149.635V203.199L2060.6 226.321L2013.37 203.199V149.635L2005.9 145.976L1998.42 149.635V203.199L1951.19 226.321L1903.98 203.199V149.635L1896.5 145.976L1889.03 149.635V203.199L1841.8 226.321L1794.58 203.199V149.635L1787.1 145.976L1779.62 149.635V203.199L1732.4 226.321L1685.17 203.199V149.635L1677.7 145.976L1670.22 149.635V203.199L1623 226.321L1575.78 203.199V149.635L1568.3 145.976L1560.83 149.635V203.199L1513.6 226.321L1466.38 203.199V149.635L1458.9 145.976L1451.42 149.635V203.199L1404.2 226.321L1356.97 203.199V149.635L1349.5 145.976L1342.02 149.635V203.199L1294.8 226.321L1247.57 203.199V149.635L1240.1 145.976L1232.63 149.635V203.199L1185.4 226.321L1138.18 203.199V149.635L1130.7 145.976L1123.22 149.635V203.199L1076 226.321V223.103L1119.94 201.586V148.03L1130.7 142.757L1141.46 148.03V201.586L1185.4 223.103L1229.34 201.586V148.03L1240.1 142.757L1250.86 148.03V201.586L1294.8 223.103L1338.75 201.586V148.03L1349.5 142.757L1360.26 148.03V201.586L1404.2 223.103L1448.14 201.586V148.03L1458.9 142.757L1469.66 148.03V201.586L1513.6 223.103L1557.54 201.586V148.03L1568.3 142.757L1579.05 148.03V201.586L1623 223.103L1666.95 201.586V148.03L1677.7 142.757L1688.46 148.03V201.586L1732.4 223.103L1776.34 201.586V148.03L1787.1 142.757L1797.86 148.03V201.586L1841.8 223.103L1885.74 201.586V148.03L1896.5 142.757L1907.25 148.03V201.586L1951.19 223.103L1995.14 201.586V148.03L2005.9 142.757L2016.66 148.03V201.586L2060.6 223.103L2104.54 201.586V148.03L2115.3 142.757L2126.06 148.03V201.586L2170 223.103V226.321L2122.78 203.199V193.464ZM1074.35 180.785V127.372L1072.72 126.572L1047.83 114.415L1021.3 101.466L987.711 117.864L969.881 126.572L968.244 127.372V180.785L966.597 181.585L964.96 180.785V127.372L963.313 126.572L938.433 114.415L911.896 101.466L878.318 117.864L860.478 126.572L858.841 127.372V180.785L857.194 181.585L855.557 180.785V127.372L853.92 126.572L829.03 114.415L802.502 101.466L768.915 117.864L751.085 126.572L749.438 127.372V180.785L747.801 181.585L746.154 180.785H746.164V171.077H746.154V127.372L744.517 126.572L719.627 114.415L693.1 101.466L659.512 117.864L641.682 126.572L640.045 127.372V180.785L638.398 181.585L636.761 180.785V127.372L635.114 126.572L610.234 114.415L583.697 101.466L550.119 117.864L532.279 126.572L530.642 127.372V180.785L529.005 181.585L527.358 180.785V127.372L525.721 126.572L500.831 114.415L474.303 101.466L440.716 117.864L422.886 126.572L421.239 127.372V180.785L419.602 181.585L417.955 180.785V127.372L416.318 126.572L391.428 114.415L364.9 101.466L331.313 117.864L313.483 126.572L311.836 127.372V180.785L310.199 181.585L308.562 180.785V127.372L306.915 126.572L282.025 114.415L255.498 101.466L221.92 117.864L204.08 126.572L202.443 127.372V180.785L200.796 181.585L199.159 180.785V127.372L197.522 126.572L172.632 114.415L146.104 101.466L112.517 117.864L94.677 126.572L93.04 127.372V180.785L91.403 181.585L89.756 180.785V127.372L88.119 126.572L63.229 114.415L36.7 101.466L3.114 117.864L-14.716 126.572L-16.363 127.372V180.785L-18 181.585V124.963L26.622 103.179L35.055 99.0647V45.6438L36.701 44.8438L38.339 45.6438V99.0647L64.866 112.014L91.403 124.963L136.016 103.179L144.458 99.0647V45.6438L146.104 44.8438L147.742 45.6438V99.0647L174.269 112.014L200.796 124.963L245.419 103.179L253.86 99.0647V45.6438L255.498 44.8438L257.144 45.6438V99.0647L283.672 112.014L310.199 124.963L354.821 103.179L363.263 99.0647V45.6438L364.9 44.8438L366.538 45.6438V99.0647L393.075 112.014L419.602 124.963L464.215 103.179L472.657 99.0647V45.6438L474.303 44.8438L475.941 45.6438V99.0647L502.468 112.014L528.995 124.963H529.005L573.618 103.179L582.059 99.0647V45.6438L583.697 44.8438L585.343 45.6438V99.0647L611.871 112.014L638.398 124.963L683.02 103.179L691.462 99.0647V45.6438L693.1 44.8438L694.746 45.6438V99.0647L721.274 112.014L747.801 124.963L792.423 103.179L800.856 99.0647V45.6438L802.502 44.8438L804.14 45.6438V99.0647L830.667 112.014L857.194 124.963L901.817 103.179L910.258 99.0647V45.6438L911.896 44.8438L913.542 45.6438V99.0647L940.07 112.014L966.597 124.963L1011.22 103.179L1019.66 99.0647V45.6438L1021.3 44.8438L1022.94 45.6438V99.0647L1049.47 112.014L1076 124.963V181.585L1074.35 180.785Z" fill="#F5841F" fill-opacity="0.08"/>
<path d="M2168.35 180.783V127.37L2166.72 126.57L2141.83 114.413L2115.3 101.464L2081.71 117.862L2063.88 126.57L2062.24 127.37V180.783L2060.6 181.583L2058.96 180.783V127.37L2057.31 126.57L2032.43 114.413L2005.9 101.464L1972.32 117.862L1954.48 126.57L1952.84 127.37V180.783L1951.19 181.583L1949.56 180.783V127.37L1947.92 126.57L1923.03 114.413L1896.5 101.464L1862.91 117.862L1845.08 126.57L1843.44 127.37V180.783L1841.8 181.583L1840.15 180.783H1840.16V171.075H1840.15V127.37L1838.52 126.57L1813.63 114.413L1787.1 101.464L1753.51 117.862L1735.68 126.57L1734.04 127.37V180.783L1732.4 181.583L1730.76 180.783V127.37L1729.11 126.57L1704.23 114.413L1677.7 101.464L1644.12 117.862L1626.28 126.57L1624.64 127.37V180.783L1623 181.583L1621.36 180.783V127.37L1619.72 126.57L1594.83 114.413L1568.3 101.464L1534.72 117.862L1516.89 126.57L1515.24 127.37V180.783L1513.6 181.583L1511.96 180.783V127.37L1510.32 126.57L1485.43 114.413L1458.9 101.464L1425.31 117.862L1407.48 126.57L1405.84 127.37V180.783L1404.2 181.583L1402.56 180.783V127.37L1400.92 126.57L1376.02 114.413L1349.5 101.464L1315.92 117.862L1298.08 126.57L1296.44 127.37V180.783L1294.8 181.583L1293.16 180.783V127.37L1291.52 126.57L1266.63 114.413L1240.1 101.464L1206.52 117.862L1188.68 126.57L1187.04 127.37V180.783L1185.4 181.583L1183.76 180.783V127.37L1182.12 126.57L1157.23 114.413L1130.7 101.464L1097.11 117.862L1079.28 126.57L1077.64 127.37V180.783L1076 181.583V124.961L1120.62 103.177L1129.05 99.0634V45.6424L1130.7 44.8424L1132.34 45.6424V99.0634L1158.87 112.012L1185.4 124.961L1230.02 103.177L1238.46 99.0634V45.6424L1240.1 44.8424L1241.74 45.6424V99.0634L1268.27 112.012L1294.8 124.961L1339.42 103.177L1347.86 99.0634V45.6424L1349.5 44.8424L1351.14 45.6424V99.0634L1377.67 112.012L1404.2 124.961L1448.82 103.177L1457.26 99.0634V45.6424L1458.9 44.8424L1460.54 45.6424V99.0634L1487.07 112.012L1513.6 124.961L1558.21 103.177L1566.66 99.0634V45.6424L1568.3 44.8424L1569.94 45.6424V99.0634L1596.47 112.012L1623 124.961L1667.62 103.177L1676.06 99.0634V45.6424L1677.7 44.8424L1679.34 45.6424V99.0634L1705.87 112.012L1732.4 124.961L1777.02 103.177L1785.46 99.0634V45.6424L1787.1 44.8424L1788.75 45.6424V99.0634L1815.27 112.012L1841.8 124.961L1886.42 103.177L1894.86 99.0634V45.6424L1896.5 44.8424L1898.14 45.6424V99.0634L1924.67 112.012L1951.19 124.961L1995.82 103.177L2004.26 99.0634V45.6424L2005.9 44.8424L2007.54 45.6424V99.0634L2034.07 112.012L2060.6 124.961L2105.22 103.177L2113.66 99.0634V45.6424L2115.3 44.8424L2116.94 45.6424V99.0634L2143.47 112.012L2170 124.961V181.583L2168.35 180.783ZM1065.24 68.6694V24.8374L1054.48 19.5714L1021.3 3.31842L988.118 19.5714L977.358 24.8374V78.4054L966.597 83.6714L955.846 78.4054V24.8374L945.086 19.5714L911.896 3.31842L878.715 19.5714L867.955 24.8374V78.4054L857.194 83.6714L846.443 78.4054V24.8374L835.683 19.5714L802.502 3.31842L769.312 19.5714L758.561 24.8374V78.4054L747.801 83.6714L737.04 78.4054V24.8374L726.28 19.5714H726.289L693.1 3.31842L659.919 19.5714L649.159 24.8374V78.4054L638.398 83.6714L627.638 78.4054V24.8374L616.887 19.5714L583.697 3.31842L550.516 19.5714L539.756 24.8374V78.4054L529.005 83.6714L518.244 78.4054V24.8374L507.484 19.5714L474.303 3.31842L441.113 19.5714L430.353 24.8374V78.4054L419.602 83.6714L408.841 78.4054V24.8374L398.081 19.5714L364.9 3.31842L331.711 19.5714L320.96 24.8374V78.4054L310.199 83.6714L299.439 78.4054V24.8374L288.688 19.5714L255.498 3.31842L222.317 19.5714L211.557 24.8374V78.4054L200.796 83.6714L190.045 78.4054V24.8374L179.285 19.5714L146.104 3.31842L112.914 19.5714L102.154 24.8374V78.4054L91.403 83.6714L80.643 78.4054V24.8374L69.882 19.5714L36.702 3.31842L3.512 19.5714L-7.24 24.8374V78.4054L-18 83.6714V80.4604L-10.524 76.8004V23.2314L-3.047 19.5714L36.701 0.107422L76.45 19.5714L83.926 23.2314V76.8004L91.403 80.4604L98.879 76.8004V23.2314L106.356 19.5714L146.104 0.107422L185.853 19.5714L193.32 23.2314V76.8004L200.796 80.4604L208.273 76.8004V23.2314L215.749 19.5714L255.498 0.107422L295.246 19.5714L302.723 23.2314V76.8004L310.199 80.4604L317.676 76.8004V23.2314L325.152 19.5714L364.9 0.107422L404.649 19.5714L412.125 23.2314V76.8004L419.602 80.4604L427.078 76.8004V23.2314L434.555 19.5714L474.303 0.107422L514.052 19.5714L521.528 23.2314V76.8004L529.005 80.4604L536.472 76.8004V23.2314L543.948 19.5714L583.697 0.107422L623.445 19.5714L630.922 23.2314V76.8004L638.398 80.4604L645.875 76.8004V23.2314L653.351 19.5714L693.1 0.107422L732.848 19.5714L740.324 23.2314V76.8004L747.801 80.4604L755.277 76.8004V23.2314L762.754 19.5714L802.502 0.107422L842.251 19.5714L849.727 23.2314V76.8004L857.194 80.4604L864.671 76.8004V23.2314L872.147 19.5714L911.896 0.107422L951.644 19.5714L959.121 23.2314V76.8004L966.597 80.4604L974.074 76.8004V23.2314L981.55 19.5714L1021.3 0.107422L1061.05 19.5714L1068.52 23.2314V76.8004L1076 80.4604V83.6714L1065.24 78.4054V68.6694Z" fill="#F5841F" fill-opacity="0.08"/>
<path d="M2159.24 68.6694V24.8374L2148.48 19.5714L2115.3 3.31842L2082.12 19.5714L2071.36 24.8374V78.4054L2060.6 83.6714L2049.85 78.4054V24.8374L2039.09 19.5714L2005.9 3.31842L1972.72 19.5714L1961.95 24.8374V78.4054L1951.19 83.6714L1940.44 78.4054V24.8374L1929.68 19.5714L1896.5 3.31842L1863.31 19.5714L1852.56 24.8374V78.4054L1841.8 83.6714L1831.04 78.4054V24.8374L1820.28 19.5714H1820.29L1787.1 3.31842L1753.92 19.5714L1743.16 24.8374V78.4054L1732.4 83.6714L1721.64 78.4054V24.8374L1710.89 19.5714L1677.7 3.31842L1644.52 19.5714L1633.76 24.8374V78.4054L1623 83.6714L1612.24 78.4054V24.8374L1601.48 19.5714L1568.3 3.31842L1535.11 19.5714L1524.35 24.8374V78.4054L1513.6 83.6714L1502.84 78.4054V24.8374L1492.08 19.5714L1458.9 3.31842L1425.71 19.5714L1414.96 24.8374V78.4054L1404.2 83.6714L1393.44 78.4054V24.8374L1382.69 19.5714L1349.5 3.31842L1316.32 19.5714L1305.56 24.8374V78.4054L1294.8 83.6714L1284.05 78.4054V24.8374L1273.28 19.5714L1240.1 3.31842L1206.91 19.5714L1196.15 24.8374V78.4054L1185.4 83.6714L1174.64 78.4054V24.8374L1163.88 19.5714L1130.7 3.31842L1097.51 19.5714L1086.76 24.8374V78.4054L1076 83.6714V80.4604L1083.48 76.8004V23.2314L1090.95 19.5714L1130.7 0.107422L1170.45 19.5714L1177.93 23.2314V76.8004L1185.4 80.4604L1192.88 76.8004V23.2314L1200.36 19.5714L1240.1 0.107422L1279.85 19.5714L1287.32 23.2314V76.8004L1294.8 80.4604L1302.27 76.8004V23.2314L1309.75 19.5714L1349.5 0.107422L1389.25 19.5714L1396.72 23.2314V76.8004L1404.2 80.4604L1411.68 76.8004V23.2314L1419.15 19.5714L1458.9 0.107422L1498.65 19.5714L1506.13 23.2314V76.8004L1513.6 80.4604L1521.08 76.8004V23.2314L1528.55 19.5714L1568.3 0.107422L1608.05 19.5714L1615.53 23.2314V76.8004L1623 80.4604L1630.47 76.8004V23.2314L1637.95 19.5714L1677.7 0.107422L1717.45 19.5714L1724.92 23.2314V76.8004L1732.4 80.4604L1739.87 76.8004V23.2314L1747.35 19.5714L1787.1 0.107422L1826.85 19.5714L1834.32 23.2314V76.8004L1841.8 80.4604L1849.28 76.8004V23.2314L1856.75 19.5714L1896.5 0.107422L1936.25 19.5714L1943.73 23.2314V76.8004L1951.19 80.4604L1958.67 76.8004V23.2314L1966.15 19.5714L2005.9 0.107422L2045.64 19.5714L2053.12 23.2314V76.8004L2060.6 80.4604L2068.07 76.8004V23.2314L2075.55 19.5714L2115.3 0.107422L2155.05 19.5714L2162.52 23.2314V76.8004L2170 80.4604V83.6714L2159.24 78.4054V68.6694ZM1056.13 73.4984V29.6574L1036.25 19.9294L1021.3 12.6094L1006.35 19.9294L986.471 29.6574V83.2264L966.597 92.9544L946.723 83.2264V29.6574L926.849 19.9294L911.896 12.6094L896.952 19.9294L877.078 29.6574V83.2264L857.194 92.9544L837.32 83.2264V29.6574L817.446 19.9294L802.502 12.6094L787.549 19.9294L767.675 29.6574V83.2264L747.801 92.9544L727.927 83.2264V29.6574L708.052 19.9294L693.1 12.6094L678.147 19.9294L658.272 29.6574V83.2264L638.398 92.9544L618.524 83.2264V29.6574L598.65 19.9294L583.697 12.6094L568.753 19.9294L548.879 29.6574V83.2264L529.005 92.9544L509.121 83.2264V29.6574L489.247 19.9294L474.303 12.6094L459.35 19.9294L439.476 29.6574V83.2264L419.602 92.9544L399.728 83.2264V29.6574L379.853 19.9294L364.9 12.6094L349.948 19.9294L330.073 29.6574V83.2264L310.199 92.9544L290.325 83.2264V29.6574L270.451 19.9294L255.498 12.6094L240.545 19.9294L220.67 29.6574V83.2264L200.796 92.9544L180.922 83.2264V29.6574L161.048 19.9294L146.104 12.6094L131.151 19.9294L111.277 29.6574V83.2264L91.403 92.9544L71.529 83.2264V29.6574L51.654 19.9294L36.701 12.6094L21.748 19.9294L1.874 29.6574V83.2264L-18 92.9544V89.7434L-1.41 81.6214V28.0524L15.18 19.9294L36.701 9.39043L58.213 19.9294L74.803 28.0524V81.6214L91.403 89.7434L107.993 81.6214V28.0524L124.583 19.9294L146.104 9.39043L167.616 19.9294L184.206 28.0524V81.6214L200.796 89.7434L217.396 81.6214V28.0524L233.986 19.9294L255.498 9.39043L277.019 19.9294L293.609 28.0524V81.6214L310.199 89.7434L326.789 81.6214V28.0524L343.389 19.9294L364.9 9.39043L386.412 19.9294L403.012 28.0524V81.6214L419.602 89.7434L436.192 81.6214V28.0524L452.782 19.9294L474.303 9.39043L495.815 19.9294L512.405 28.0524V81.6214L529.005 89.7434L545.595 81.6214V28.0524L562.185 19.9294L583.697 9.39043L605.218 19.9294L621.808 28.0524V81.6214L638.398 89.7434L654.988 81.6214V28.0524L671.588 19.9294L693.1 9.39043L714.611 19.9294L731.211 28.0524V81.6214L747.801 89.7434L764.391 81.6214V28.0524L780.981 19.9294L802.502 9.39043L824.014 19.9294L840.604 28.0524V81.6214L857.194 89.7434L873.794 81.6214V28.0524L890.384 19.9294L911.896 9.39043L933.417 19.9294L950.007 28.0524V81.6214L966.597 89.7434L983.187 81.6214V28.0524L999.787 19.9294L1021.3 9.39043L1042.81 19.9294L1059.41 28.0524V81.6214L1076 89.7434V92.9544L1056.13 83.2264V73.4984Z" fill="#F5841F" fill-opacity="0.08"/>
<path d="M2150.13 73.4986V29.6576L2130.25 19.9296L2115.3 12.6096L2100.35 19.9296L2080.47 29.6576V83.2266L2060.6 92.9546L2040.72 83.2266V29.6576L2020.85 19.9296L2005.9 12.6096L1990.95 19.9296L1971.08 29.6576V83.2266L1951.19 92.9546L1931.32 83.2266V29.6576L1911.45 19.9296L1896.5 12.6096L1881.55 19.9296L1861.68 29.6576V83.2266L1841.8 92.9546L1821.93 83.2266V29.6576L1802.05 19.9296L1787.1 12.6096L1772.15 19.9296L1752.27 29.6576V83.2266L1732.4 92.9546L1712.52 83.2266V29.6576L1692.65 19.9296L1677.7 12.6096L1662.75 19.9296L1642.88 29.6576V83.2266L1623 92.9546L1603.12 83.2266V29.6576L1583.25 19.9296L1568.3 12.6096L1553.35 19.9296L1533.48 29.6576V83.2266L1513.6 92.9546L1493.73 83.2266V29.6576L1473.85 19.9296L1458.9 12.6096L1443.95 19.9296L1424.07 29.6576V83.2266L1404.2 92.9546L1384.32 83.2266V29.6576L1364.45 19.9296L1349.5 12.6096L1334.54 19.9296L1314.67 29.6576V83.2266L1294.8 92.9546L1274.92 83.2266V29.6576L1255.05 19.9296L1240.1 12.6096L1225.15 19.9296L1205.28 29.6576V83.2266L1185.4 92.9546L1165.53 83.2266V29.6576L1145.65 19.9296L1130.7 12.6096L1115.75 19.9296L1095.87 29.6576V83.2266L1076 92.9546V89.7436L1092.59 81.6216V28.0526L1109.18 19.9296L1130.7 9.39062L1152.21 19.9296L1168.8 28.0526V81.6216L1185.4 89.7436L1201.99 81.6216V28.0526L1218.58 19.9296L1240.1 9.39062L1261.62 19.9296L1278.21 28.0526V81.6216L1294.8 89.7436L1311.4 81.6216V28.0526L1327.99 19.9296L1349.5 9.39062L1371.02 19.9296L1387.61 28.0526V81.6216L1404.2 89.7436L1420.79 81.6216V28.0526L1437.39 19.9296L1458.9 9.39062L1480.41 19.9296L1497.01 28.0526V81.6216L1513.6 89.7436L1530.19 81.6216V28.0526L1546.78 19.9296L1568.3 9.39062L1589.81 19.9296L1606.41 28.0526V81.6216L1623 89.7436L1639.59 81.6216V28.0526L1656.19 19.9296L1677.7 9.39062L1699.22 19.9296L1715.81 28.0526V81.6216L1732.4 89.7436L1748.99 81.6216V28.0526L1765.59 19.9296L1787.1 9.39062L1808.61 19.9296L1825.21 28.0526V81.6216L1841.8 89.7436L1858.39 81.6216V28.0526L1874.98 19.9296L1896.5 9.39062L1918.01 19.9296L1934.6 28.0526V81.6216L1951.19 89.7436L1967.79 81.6216V28.0526L1984.38 19.9296L2005.9 9.39062L2027.42 19.9296L2044.01 28.0526V81.6216L2060.6 89.7436L2077.19 81.6216V28.0526L2093.79 19.9296L2115.3 9.39062L2136.81 19.9296L2153.41 28.0526V81.6216L2170 89.7436V92.9546L2150.13 83.2266V73.4986ZM1047.01 87.3416V34.3196L1021.3 21.8626L995.595 34.3196V87.3416L966.597 101.396L937.609 87.3416V34.3196L911.896 21.8626L886.192 34.3196V87.3416L857.194 101.396L828.206 87.3416V34.3196L802.502 21.8626L776.789 34.3196V87.3416L747.801 101.396L718.803 87.3416V34.3196L693.1 21.8626L667.396 34.3196V87.3416L638.398 101.396L609.41 87.3416V34.3196L583.697 21.8626L557.993 34.3196V87.3416L529.005 101.396H528.995L500.007 87.3416V34.3196L474.303 21.8626L448.59 34.3196V87.3416L419.602 101.396L390.604 87.3416V34.3196L364.9 21.8626L339.187 34.3196V87.3416L310.199 101.396L281.211 87.3416V34.3196L255.498 21.8626L229.794 34.3196V87.3416L200.796 101.396L171.808 87.3416V34.3196L146.104 21.8626L120.391 34.3196V87.3416L91.403 101.396L62.405 87.3416V34.3196L36.701 21.8626L10.988 34.3196V87.3416L-18 101.396V98.2106L7.704 85.7526V32.7306L33.417 20.2736L36.701 18.6766L39.985 20.2736L65.689 32.7306V85.7526L91.403 98.2106L117.107 85.7526V32.7306L142.82 20.2736L146.104 18.6766L149.379 20.2736L175.092 32.7306V85.7526L200.796 98.2106L226.51 85.7526V32.7306L252.214 20.2736L255.498 18.6766L258.782 20.2736L284.495 32.7306V85.7526L310.199 98.2106L335.913 85.7526V32.7306L361.616 20.2736L364.9 18.6766L368.184 20.2736L393.888 32.7306V85.7526L419.602 98.2106L445.306 85.7526V32.7306L471.019 20.2736L474.303 18.6766L477.578 20.2736L503.291 32.7306V85.7526L529.005 98.2106L554.709 85.7526V32.7306L580.422 20.2736L583.697 18.6766L586.981 20.2736L612.694 32.7306V85.7526L638.398 98.2106L664.112 85.7526V32.7306L689.816 20.2736L693.1 18.6766L696.383 20.2736L722.088 32.7306V85.7526L747.801 98.2106L773.505 85.7526V32.7306L799.218 20.2736L802.502 18.6766L805.786 20.2736L831.49 32.7306V85.7526L857.194 98.2106L882.908 85.7526V32.7306L908.621 20.2736L911.896 18.6766L915.18 20.2736L940.893 32.7306V85.7526L966.597 98.2106L992.311 85.7526V32.7306L1018.01 20.2736L1021.3 18.6766L1024.58 20.2736L1050.29 32.7306V85.7526L1076 98.2106V101.396L1047.01 87.3416Z" fill="#F5841F" fill-opacity="0.08"/>
<path d="M2141.01 87.3427V34.3207L2115.3 21.8637L2089.59 34.3207V87.3427L2060.6 101.397L2031.61 87.3427V34.3207L2005.9 21.8637L1980.19 34.3207V87.3427L1951.19 101.397L1922.21 87.3427V34.3207L1896.5 21.8637L1870.79 34.3207V87.3427L1841.8 101.397L1812.8 87.3427V34.3207L1787.1 21.8637L1761.4 34.3207V87.3427L1732.4 101.397L1703.41 87.3427V34.3207L1677.7 21.8637L1651.99 34.3207V87.3427L1623 101.397L1594.01 87.3427V34.3207L1568.3 21.8637L1542.59 34.3207V87.3427L1513.6 101.397L1484.6 87.3427V34.3207L1458.9 21.8637L1433.19 34.3207V87.3427L1404.2 101.397L1375.21 87.3427V34.3207L1349.5 21.8637L1323.79 34.3207V87.3427L1294.8 101.397L1265.81 87.3427V34.3207L1240.1 21.8637L1214.39 34.3207V87.3427L1185.4 101.397L1156.41 87.3427V34.3207L1130.7 21.8637L1104.99 34.3207V87.3427L1076 101.397V98.2117L1101.7 85.7537V32.7317L1127.42 20.2747L1130.7 18.6777L1133.99 20.2747L1159.69 32.7317V85.7537L1185.4 98.2117L1211.11 85.7537V32.7317L1236.82 20.2747L1240.1 18.6777L1243.38 20.2747L1269.09 32.7317V85.7537L1294.8 98.2117L1320.51 85.7537V32.7317L1346.21 20.2747L1349.5 18.6777L1352.78 20.2747L1378.5 32.7317V85.7537L1404.2 98.2117L1429.91 85.7537V32.7317L1455.62 20.2747L1458.9 18.6777L1462.18 20.2747L1487.89 32.7317V85.7537L1513.6 98.2117L1539.31 85.7537V32.7317L1565.02 20.2747L1568.3 18.6777L1571.58 20.2747L1597.29 32.7317V85.7537L1623 98.2117L1648.71 85.7537V32.7317L1674.42 20.2747L1677.7 18.6777L1680.98 20.2747L1706.69 32.7317V85.7537L1732.4 98.2117L1758.11 85.7537V32.7317L1783.82 20.2747L1787.1 18.6777L1790.38 20.2747L1816.09 32.7317V85.7537L1841.8 98.2117L1867.5 85.7537V32.7317L1893.22 20.2747L1896.5 18.6777L1899.79 20.2747L1925.49 32.7317V85.7537L1951.19 98.2117L1976.91 85.7537V32.7317L2002.62 20.2747L2005.9 18.6777L2009.18 20.2747L2034.89 32.7317V85.7537L2060.6 98.2117L2086.31 85.7537V32.7317L2112.01 20.2747L2115.3 18.6777L2118.58 20.2747L2144.29 32.7317V85.7537L2170 98.2117V101.397L2141.01 87.3427ZM1037.89 92.0207V38.4517L1021.3 30.3287L1004.71 38.4517V92.0207L966.597 110.683L928.495 92.0207V38.4517L911.896 30.3287L895.305 38.4517V92.0207L857.194 110.683L819.093 92.0207V38.4517L802.502 30.3287L785.912 38.4517V92.0207L747.801 110.683L709.69 92.0207V38.4517L693.1 30.3287L676.509 38.4517V92.0207L638.398 110.683L600.296 92.0207V38.4517L583.697 30.3287L567.106 38.4517V92.0207L529.005 110.683H528.995L490.894 92.0207V38.4517L474.303 30.3287L457.704 38.4517V92.0207L419.602 110.683L381.491 92.0207V38.4517L364.9 30.3287L348.31 38.4517V92.0207L310.199 110.683L272.088 92.0207V38.4517L255.498 30.3287L238.907 38.4517V92.0207L200.796 110.683L162.694 92.0207V38.4517L146.104 30.3287L129.505 38.4517V92.0207L91.403 110.683L53.292 92.0207V38.4517L36.702 30.3287L20.112 38.4517V92.0207L-18 110.683V107.472L16.827 90.4157V36.8467L36.701 27.1187L56.576 36.8467V90.4157L91.403 107.472L126.23 90.4157V36.8467L146.104 27.1187L165.978 36.8467V90.4157L200.796 107.472L235.623 90.4157V36.8467L255.498 27.1187L275.372 36.8467V90.4157L310.199 107.472L345.026 90.4157V36.8467L364.9 27.1187L384.775 36.8467V90.4157L419.602 107.472L454.429 90.4157V36.8467L474.303 27.1187L494.178 36.8467V90.4157L529.005 107.472L563.823 90.4157V36.8467L583.697 27.1187L603.571 36.8467V90.4157L638.398 107.472L673.225 90.4157V36.8467L693.1 27.1187L712.974 36.8467V90.4157L747.801 107.472L782.628 90.4157V36.8467L802.502 27.1187L822.377 36.8467V90.4157L857.194 107.472L892.022 90.4157V36.8467L911.896 27.1187L931.77 36.8467V90.4157L966.597 107.472L1001.42 90.4157V36.8467L1021.3 27.1187L1041.17 36.8467V90.4157L1076 107.472V110.683L1037.89 92.0207Z" fill="#F5841F" fill-opacity="0.08"/>
<path d="M2131.89 92.0192V38.4502L2115.3 30.3272L2098.71 38.4502V92.0192L2060.6 110.681L2022.5 92.0192V38.4502L2005.9 30.3272L1989.31 38.4502V92.0192L1951.19 110.681L1913.09 92.0192V38.4502L1896.5 30.3272L1879.91 38.4502V92.0192L1841.8 110.681L1803.69 92.0192V38.4502L1787.1 30.3272L1770.51 38.4502V92.0192L1732.4 110.681L1694.3 92.0192V38.4502L1677.7 30.3272L1661.11 38.4502V92.0192L1623 110.681L1584.89 92.0192V38.4502L1568.3 30.3272L1551.7 38.4502V92.0192L1513.6 110.681L1475.49 92.0192V38.4502L1458.9 30.3272L1442.31 38.4502V92.0192L1404.2 110.681L1366.09 92.0192V38.4502L1349.5 30.3272L1332.91 38.4502V92.0192L1294.8 110.681L1256.69 92.0192V38.4502L1240.1 30.3272L1223.5 38.4502V92.0192L1185.4 110.681L1147.29 92.0192V38.4502L1130.7 30.3272L1114.11 38.4502V92.0192L1076 110.681V107.47L1110.83 90.4142V36.8452L1130.7 27.1172L1150.58 36.8452V90.4142L1185.4 107.47L1220.23 90.4142V36.8452L1240.1 27.1172L1259.98 36.8452V90.4142L1294.8 107.47L1329.62 90.4142V36.8452L1349.5 27.1172L1369.37 36.8452V90.4142L1404.2 107.47L1439.03 90.4142V36.8452L1458.9 27.1172L1478.77 36.8452V90.4142L1513.6 107.47L1548.43 90.4142V36.8452L1568.3 27.1172L1588.18 36.8452V90.4142L1623 107.47L1657.82 90.4142V36.8452L1677.7 27.1172L1697.57 36.8452V90.4142L1732.4 107.47L1767.23 90.4142V36.8452L1787.1 27.1172L1806.97 36.8452V90.4142L1841.8 107.47L1876.63 90.4142V36.8452L1896.5 27.1172L1916.38 36.8452V90.4142L1951.19 107.47L1986.02 90.4142V36.8452L2005.9 27.1172L2025.77 36.8452V90.4142L2060.6 107.47L2095.42 90.4142V36.8452L2115.3 27.1172L2135.17 36.8452V90.4142L2170 107.47V110.681L2131.89 92.0192ZM1028.78 86.5972V43.2112L1021.3 39.5802L1013.82 43.2112V96.2262L966.597 119.122L919.372 96.2262V43.2112L911.896 39.5802L904.419 43.2112V96.2262L857.194 119.122L809.979 96.2262V43.2112L802.502 39.5802L795.026 43.2112V96.2262L747.801 119.122L700.576 96.2262V43.2112L693.1 39.5802L685.623 43.2112V96.2262L638.398 119.122L591.173 96.2262V43.2112L583.697 39.5802L576.22 43.2112V96.2262L529.005 119.122L481.78 96.2262V43.2112L474.303 39.5802L466.827 43.2112V96.2262L419.602 119.122L372.377 96.2262V43.2112L364.9 39.5802L357.424 43.2112V96.2262L310.199 119.122L262.974 96.2262V43.2112L255.498 39.5802L248.021 43.2112V96.2262L200.796 119.122L153.571 96.2262V43.2112L146.104 39.5802L138.628 43.2112V96.2262L91.403 119.122L44.178 96.2262V43.2112L36.701 39.5802L29.225 43.2112V96.2262L-18 119.122V115.936L25.941 94.6372V41.6142L36.701 36.4022L47.461 41.6142V94.6372L91.403 115.936L135.344 94.6372V41.6142L146.104 36.4022L156.855 41.6142V94.6372L200.796 115.936L244.747 94.6372V41.6142L255.498 36.4022L266.258 41.6142V94.6372L310.199 115.936L354.14 94.6372V41.6142L364.9 36.4022L375.661 41.6142V94.6372L419.602 115.936L463.543 94.6372V41.6142L474.303 36.4022L485.054 41.6142V94.6372L529.005 115.936L572.946 94.6372V41.6142L583.697 36.4022L594.457 41.6142V94.6372L638.398 115.936L682.339 94.6372V41.6142L693.1 36.4022L703.86 41.6142V94.6372L747.801 115.936L791.742 94.6372V41.6142L802.502 36.4022L813.253 41.6142V94.6372L857.194 115.936L901.145 94.6372V41.6142L911.896 36.4022L922.656 41.6142V94.6372L966.597 115.936L1010.54 94.6372V41.6142L1021.3 36.4022L1032.06 41.6142V94.6372L1076 115.936V119.122L1028.78 96.2262V86.5972Z" fill="#F5841F" fill-opacity="0.08"/>
<path d="M2122.78 86.5982V43.2122L2115.3 39.5812L2107.82 43.2122V96.2272L2060.6 119.123L2013.37 96.2272V43.2122L2005.9 39.5812L1998.42 43.2122V96.2272L1951.19 119.123L1903.98 96.2272V43.2122L1896.5 39.5812L1889.03 43.2122V96.2272L1841.8 119.123L1794.58 96.2272V43.2122L1787.1 39.5812L1779.62 43.2122V96.2272L1732.4 119.123L1685.17 96.2272V43.2122L1677.7 39.5812L1670.22 43.2122V96.2272L1623 119.123L1575.78 96.2272V43.2122L1568.3 39.5812L1560.83 43.2122V96.2272L1513.6 119.123L1466.38 96.2272V43.2122L1458.9 39.5812L1451.42 43.2122V96.2272L1404.2 119.123L1356.97 96.2272V43.2122L1349.5 39.5812L1342.02 43.2122V96.2272L1294.8 119.123L1247.57 96.2272V43.2122L1240.1 39.5812L1232.63 43.2122V96.2272L1185.4 119.123L1138.18 96.2272V43.2122L1130.7 39.5812L1123.22 43.2122V96.2272L1076 119.123V115.937L1119.94 94.6382V41.6152L1130.7 36.4032L1141.46 41.6152V94.6382L1185.4 115.937L1229.34 94.6382V41.6152L1240.1 36.4032L1250.86 41.6152V94.6382L1294.8 115.937L1338.75 94.6382V41.6152L1349.5 36.4032L1360.26 41.6152V94.6382L1404.2 115.937L1448.14 94.6382V41.6152L1458.9 36.4032L1469.66 41.6152V94.6382L1513.6 115.937L1557.54 94.6382V41.6152L1568.3 36.4032L1579.05 41.6152V94.6382L1623 115.937L1666.95 94.6382V41.6152L1677.7 36.4032L1688.46 41.6152V94.6382L1732.4 115.937L1776.34 94.6382V41.6152L1787.1 36.4032L1797.86 41.6152V94.6382L1841.8 115.937L1885.74 94.6382V41.6152L1896.5 36.4032L1907.25 41.6152V94.6382L1951.19 115.937L1995.14 94.6382V41.6152L2005.9 36.4032L2016.66 41.6152V94.6382L2060.6 115.937L2104.54 94.6382V41.6152L2115.3 36.4032L2126.06 41.6152V94.6382L2170 115.937V119.123L2122.78 96.2272V86.5982ZM1074.35 74.4302V21.0182L1072.72 20.2172L1047.83 8.06023L1021.3 -4.88877L987.711 11.5102L969.881 20.2172L968.244 21.0182V74.4302L966.597 75.2302L964.96 74.4302V21.0182L963.313 20.2172L938.433 8.06023L911.896 -4.88877L878.318 11.5102L860.478 20.2172L858.841 21.0182V74.4302L857.194 75.2302L855.557 74.4302V21.0182L853.92 20.2172L829.03 8.06023L802.502 -4.88877L768.915 11.5102L751.085 20.2172L749.438 21.0182V74.4302L747.801 75.2302L746.154 74.4302H746.164V64.7222H746.154V21.0182L744.517 20.2172L719.627 8.06023L693.1 -4.88877L659.512 11.5102L641.682 20.2172L640.045 21.0182V74.4302L638.398 75.2302L636.761 74.4302V21.0182L635.114 20.2172L610.234 8.06023L583.697 -4.88877L550.119 11.5102L532.279 20.2172L530.642 21.0182V74.4302L529.005 75.2302L527.358 74.4302V21.0182L525.721 20.2172L500.831 8.06023L474.303 -4.88877L440.716 11.5102L422.886 20.2172L421.239 21.0182V74.4302L419.602 75.2302L417.955 74.4302V21.0182L416.318 20.2172L391.428 8.06023L364.9 -4.88877L331.313 11.5102L313.483 20.2172L311.836 21.0182V74.4302L310.199 75.2302L308.562 74.4302V21.0182L306.915 20.2172L282.025 8.06023L255.498 -4.88877L221.92 11.5102L204.08 20.2172L202.443 21.0182V74.4302L200.796 75.2302L199.159 74.4302V21.0182L197.522 20.2172L172.632 8.06023L146.104 -4.88877L112.517 11.5102L94.677 20.2172L93.04 21.0182V74.4302L91.403 75.2302L89.756 74.4302V21.0182L88.119 20.2172L63.229 8.06023L36.7 -4.88877L3.114 11.5102L-14.716 20.2172L-16.363 21.0182V74.4302L-18 75.2302V18.6092L26.622 -3.17576L35.055 -7.29676V-60.7098L36.701 -61.5098L38.339 -60.7098V-7.29676L64.866 5.66024L91.403 18.6092L136.016 -3.17576L144.458 -7.29676V-60.7098L146.104 -61.5098L147.742 -60.7098V-7.29676L174.269 5.66024L200.796 18.6092L245.419 -3.17576L253.86 -7.29676V-60.7098L255.498 -61.5098L257.144 -60.7098V-7.29676L283.672 5.66024L310.199 18.6092L354.821 -3.17576L363.263 -7.29676V-60.7098L364.9 -61.5098L366.538 -60.7098V-7.29676L393.075 5.66024L419.602 18.6092L464.215 -3.17576L472.657 -7.29676V-60.7098L474.303 -61.5098L475.941 -60.7098V-7.29676L502.468 5.66024L528.995 18.6092H529.005L573.618 -3.17576L582.059 -7.29676V-60.7098L583.697 -61.5098L585.343 -60.7098V-7.29676L611.871 5.66024L638.398 18.6092L683.02 -3.17576L691.462 -7.29676V-60.7098L693.1 -61.5098L694.746 -60.7098V-7.29676L721.274 5.66024L747.801 18.6092L792.423 -3.17576L800.856 -7.29676V-60.7098L802.502 -61.5098L804.14 -60.7098V-7.29676L830.667 5.66024L857.194 18.6092L901.817 -3.17576L910.258 -7.29676V-60.7098L911.896 -61.5098L913.542 -60.7098V-7.29676L940.07 5.66024L966.597 18.6092L1011.22 -3.17576L1019.66 -7.29676V-60.7098L1021.3 -61.5098L1022.94 -60.7098V-7.29676L1049.47 5.66024L1076 18.6092V75.2302L1074.35 74.4302Z" fill="#F5841F" fill-opacity="0.08"/>
<path d="M2168.35 74.43V21.018L2166.72 20.217L2141.83 8.06001L2115.3 -4.88899L2081.71 11.51L2063.88 20.217L2062.24 21.018V74.43L2060.6 75.23L2058.96 74.43V21.018L2057.31 20.217L2032.43 8.06001L2005.9 -4.88899L1972.32 11.51L1954.48 20.217L1952.84 21.018V74.43L1951.19 75.23L1949.56 74.43V21.018L1947.92 20.217L1923.03 8.06001L1896.5 -4.88899L1862.91 11.51L1845.08 20.217L1843.44 21.018V74.43L1841.8 75.23L1840.15 74.43H1840.16V64.722H1840.15V21.018L1838.52 20.217L1813.63 8.06001L1787.1 -4.88899L1753.51 11.51L1735.68 20.217L1734.04 21.018V74.43L1732.4 75.23L1730.76 74.43V21.018L1729.11 20.217L1704.23 8.06001L1677.7 -4.88899L1644.12 11.51L1626.28 20.217L1624.64 21.018V74.43L1623 75.23L1621.36 74.43V21.018L1619.72 20.217L1594.83 8.06001L1568.3 -4.88899L1534.72 11.51L1516.89 20.217L1515.24 21.018V74.43L1513.6 75.23L1511.96 74.43V21.018L1510.32 20.217L1485.43 8.06001L1458.9 -4.88899L1425.31 11.51L1407.48 20.217L1405.84 21.018V74.43L1404.2 75.23L1402.56 74.43V21.018L1400.92 20.217L1376.02 8.06001L1349.5 -4.88899L1315.92 11.51L1298.08 20.217L1296.44 21.018V74.43L1294.8 75.23L1293.16 74.43V21.018L1291.52 20.217L1266.63 8.06001L1240.1 -4.88899L1206.52 11.51L1188.68 20.217L1187.04 21.018V74.43L1185.4 75.23L1183.76 74.43V21.018L1182.12 20.217L1157.23 8.06001L1130.7 -4.88899L1097.11 11.51L1079.28 20.217L1077.64 21.018V74.43L1076 75.23V18.609L1120.62 -3.17598L1129.05 -7.29698V-60.71L1130.7 -61.51L1132.34 -60.71V-7.29698L1158.87 5.66002L1185.4 18.609L1230.02 -3.17598L1238.46 -7.29698V-60.71L1240.1 -61.51L1241.74 -60.71V-7.29698L1268.27 5.66002L1294.8 18.609L1339.42 -3.17598L1347.86 -7.29698V-60.71L1349.5 -61.51L1351.14 -60.71V-7.29698L1377.67 5.66002L1404.2 18.609L1448.82 -3.17598L1457.26 -7.29698V-60.71L1458.9 -61.51L1460.54 -60.71V-7.29698L1487.07 5.66002L1513.6 18.609L1558.21 -3.17598L1566.66 -7.29698V-60.71L1568.3 -61.51L1569.94 -60.71V-7.29698L1596.47 5.66002L1623 18.609L1667.62 -3.17598L1676.06 -7.29698V-60.71L1677.7 -61.51L1679.34 -60.71V-7.29698L1705.87 5.66002L1732.4 18.609L1777.02 -3.17598L1785.46 -7.29698V-60.71L1787.1 -61.51L1788.75 -60.71V-7.29698L1815.27 5.66002L1841.8 18.609L1886.42 -3.17598L1894.86 -7.29698V-60.71L1896.5 -61.51L1898.14 -60.71V-7.29698L1924.67 5.66002L1951.19 18.609L1995.82 -3.17598L2004.26 -7.29698V-60.71L2005.9 -61.51L2007.54 -60.71V-7.29698L2034.07 5.66002L2060.6 18.609L2105.22 -3.17598L2113.66 -7.29698V-60.71L2115.3 -61.51L2116.94 -60.71V-7.29698L2143.47 5.66002L2170 18.609V75.23L2168.35 74.43ZM1077.5 -77.952V-32.767L1076 -31.969V-86.834H1079L1077.5 -86.028V-77.952ZM-6.995 -73.428V-27.952L-18 -22.684V-25.896L-10.354 -29.567V-83.171L-2.707 -86.834H4L-6.995 -81.557V-73.428Z" fill="#F5841F" fill-opacity="0.08"/>
<path d="M1037.89 -14.9913V-68.0183L1021.3 -76.0593L1004.71 -68.0193V-14.9903L966.597 3.48272L928.495 -14.9903V-68.0183L911.896 -76.0593L895.305 -68.0193V-14.9903L857.194 3.48272L819.093 -14.9903V-68.0183L802.502 -76.0593L785.912 -68.0193V-14.9903L747.801 3.48272L709.69 -14.9903V-68.0183L693.1 -76.0603L676.509 -68.0203V-14.9903L638.398 3.48272L600.296 -14.9903V-68.0183L583.697 -76.0593L567.106 -68.0193V-14.9903L529.005 3.48272H528.995L490.894 -14.9903V-68.0183L474.303 -76.0593L457.704 -68.0193V-14.9903L419.602 3.48272L381.491 -14.9903V-68.0183L364.9 -76.0603L348.31 -68.0203V-14.9903L310.199 3.48272L272.088 -14.9903V-68.0183L255.498 -76.0593L238.907 -68.0193V-14.9903L200.796 3.48272L162.694 -14.9903V-68.0183L146.104 -76.0593L129.505 -68.0193V-14.9903L91.403 3.48272L53.292 -14.9903V-68.0183L36.702 -76.0593L20.112 -68.0193V-14.9903L-18 3.48171V0.303719L16.827 -16.5803V-69.6083L36.701 -79.2383L56.576 -69.6083V-16.5803L91.403 0.303719L126.23 -16.5803V-69.6083L146.104 -79.2383L165.978 -69.6083V-16.5803L200.796 0.303719L235.623 -16.5803V-69.6083L255.498 -79.2383L275.372 -69.6083V-16.5803L310.199 0.303719L345.026 -16.5803V-69.6083L364.9 -79.2383L384.775 -69.6083V-16.5803L419.602 0.303719L454.429 -16.5803V-69.6083L474.303 -79.2383L494.178 -69.6083V-16.5803L529.005 0.303719L563.823 -16.5803V-69.6083L583.697 -79.2383L603.571 -69.6083V-16.5803L638.398 0.303719L673.225 -16.5803V-69.6083L693.1 -79.2383L712.974 -69.6083V-16.5803L747.801 0.303719L782.628 -16.5803V-69.6083L802.502 -79.2383L822.377 -69.6083V-16.5803L857.194 0.303719L892.022 -16.5803V-69.6083L911.896 -79.2383L931.77 -69.6083V-16.5803L966.597 0.303719L1001.42 -16.5803V-69.6083L1021.3 -79.2383L1041.17 -69.6083V-16.5803L1076 0.303719V3.48171L1037.89 -14.9913ZM2131.89 -14.9913V-68.0183L2115.3 -76.0593L2098.71 -68.0193V-14.9903L2060.6 3.48272L2022.5 -14.9903V-68.0183L2005.9 -76.0593L1989.31 -68.0193V-14.9903L1951.19 3.48272L1913.09 -14.9903V-68.0183L1896.5 -76.0593L1879.91 -68.0193V-14.9903L1841.8 3.48272L1803.69 -14.9903V-68.0183L1787.1 -76.0593L1770.51 -68.0193V-14.9903L1732.4 3.48272L1694.3 -14.9903V-68.0183L1677.7 -76.0593L1661.11 -68.0193V-14.9903L1623 3.48171L1584.89 -14.9913V-68.0183L1568.3 -76.0593L1551.7 -68.0193V-14.9903L1513.6 3.48272L1475.49 -14.9903V-68.0183L1458.9 -76.0593L1442.31 -68.0193V-14.9903L1404.2 3.48272L1366.09 -14.9903V-68.0183L1349.5 -76.0593L1332.91 -68.0193V-14.9903L1294.8 3.48272L1256.69 -14.9903V-68.0183L1240.1 -76.0593L1223.5 -68.0193V-14.9903L1185.4 3.48272L1147.29 -14.9903V-68.0183L1130.7 -76.0593L1114.11 -68.0193V-14.9903L1076 3.48171V0.303719L1110.83 -16.5803V-69.6083L1130.7 -79.2383L1150.58 -69.6083V-16.5803L1185.4 0.303719L1220.23 -16.5803V-69.6083L1240.1 -79.2383L1259.98 -69.6083V-16.5803L1294.8 0.303719L1329.62 -16.5803V-69.6083L1349.5 -79.2383L1369.37 -69.6083V-16.5803L1404.2 0.303719L1439.03 -16.5803V-69.6083L1458.9 -79.2383L1478.77 -69.6083V-16.5803L1513.6 0.303719L1548.43 -16.5803V-69.6083L1568.3 -79.2383L1588.18 -69.6083V-16.5803L1623 0.303719L1657.82 -16.5803V-69.6083L1677.7 -79.2383L1697.57 -69.6083V-16.5803L1732.4 0.303719L1767.23 -16.5803V-69.6083L1787.1 -79.2383L1806.97 -69.6083V-16.5803L1841.8 0.303719L1876.63 -16.5803V-69.6083L1896.5 -79.2383L1916.38 -69.6083V-16.5803L1951.19 0.303719L1986.02 -16.5803V-69.6083L2005.9 -79.2383L2025.77 -69.6083V-16.5803L2060.6 0.303719L2095.42 -16.5803V-69.6083L2115.3 -79.2383L2135.17 -69.6083V-16.5803L2170 0.303719V3.48171L2131.89 -14.9913Z" fill="#F5841F" fill-opacity="0.08"/>
<path d="M1028.78 -20.0859V-63.9259L1021.3 -67.5859L1013.82 -63.9259V-10.3589L966.597 12.7661L919.372 -10.3589V-63.9259L911.896 -67.5859L904.419 -63.9259V-10.3589L857.194 12.7661L809.979 -10.3589V-63.9259L802.502 -67.5859L795.026 -63.9259V-10.3589L747.801 12.7661L700.576 -10.3589V-63.9259L693.1 -67.5859L685.623 -63.9259V-10.3589L638.398 12.7661L591.173 -10.3589V-63.9259L583.697 -67.5859L576.22 -63.9259V-10.3589L529.005 12.7661L481.78 -10.3589V-63.9259L474.303 -67.5859L466.827 -63.9259V-10.3589L419.602 12.7661L372.377 -10.3589V-63.9259L364.9 -67.5859L357.424 -63.9259V-10.3589L310.199 12.7661L262.974 -10.3589V-63.9259L255.498 -67.5859L248.021 -63.9259V-10.3589L200.796 12.7661L153.571 -10.3589V-63.9259L146.104 -67.5859L138.628 -63.9259V-10.3589L91.403 12.7661L44.178 -10.3589V-63.9259L36.701 -67.5859L29.225 -63.9259V-10.3589L-18 12.7671V9.55613L25.941 -11.9629V-65.5319L36.701 -70.7969L47.461 -65.5319V-11.9629L91.403 9.55613L135.344 -11.9629V-65.5319L146.104 -70.7969L156.855 -65.5319V-11.9629L200.796 9.55613L244.747 -11.9629V-65.5319L255.498 -70.7969L266.258 -65.5319V-11.9629L310.199 9.55613L354.14 -11.9629V-65.5319L364.9 -70.7969L375.661 -65.5319V-11.9629L419.602 9.55613L463.543 -11.9629V-65.5319L474.303 -70.7969L485.054 -65.5319V-11.9629L529.005 9.55613L572.946 -11.9629V-65.5319L583.697 -70.7969L594.457 -65.5319V-11.9629L638.398 9.55613L682.339 -11.9629V-65.5319L693.1 -70.7969L703.86 -65.5319V-11.9629L747.801 9.55613L791.742 -11.9629V-65.5319L802.502 -70.7969L813.253 -65.5319V-11.9629L857.194 9.55613L901.145 -11.9629V-65.5319L911.896 -70.7969L922.656 -65.5319V-11.9629L966.597 9.55613L1010.54 -11.9629V-65.5319L1021.3 -70.7969L1032.06 -65.5319V-11.9629L1076 9.55613V12.7671L1028.78 -10.3579V-20.0859Z" fill="#F5841F" fill-opacity="0.08"/>
<path d="M2122.78 -20.085V-63.925L2115.3 -67.585L2107.82 -63.925V-10.358L2060.6 12.767L2013.37 -10.358V-63.925L2005.9 -67.585L1998.42 -63.925V-10.358L1951.19 12.767L1903.98 -10.358V-63.925L1896.5 -67.585L1889.03 -63.925V-10.358L1841.8 12.767L1794.58 -10.358V-63.925L1787.1 -67.585L1779.62 -63.925V-10.358L1732.4 12.767L1685.17 -10.358V-63.925L1677.7 -67.585L1670.22 -63.925V-10.358L1623 12.768L1575.78 -10.357V-63.925L1568.3 -67.585L1560.83 -63.925V-10.358L1513.6 12.767L1466.38 -10.358V-63.925L1458.9 -67.585L1451.42 -63.925V-10.358L1404.2 12.767L1356.97 -10.358V-63.925L1349.5 -67.585L1342.02 -63.925V-10.358L1294.8 12.767L1247.57 -10.358V-63.925L1240.1 -67.585L1232.63 -63.925V-10.358L1185.4 12.767L1138.18 -10.358V-63.925L1130.7 -67.585L1123.22 -63.925V-10.358L1076 12.768V9.55702L1119.94 -11.962V-65.531L1130.7 -70.796L1141.46 -65.531V-11.962L1185.4 9.55702L1229.34 -11.962V-65.531L1240.1 -70.796L1250.86 -65.531V-11.962L1294.8 9.55702L1338.75 -11.962V-65.531L1349.5 -70.796L1360.26 -65.531V-11.962L1404.2 9.55702L1448.14 -11.962V-65.531L1458.9 -70.796L1469.66 -65.531V-11.962L1513.6 9.55702L1557.54 -11.962V-65.531L1568.3 -70.796L1579.05 -65.531V-11.962L1623 9.55702L1666.95 -11.962V-65.531L1677.7 -70.796L1688.46 -65.531V-11.962L1732.4 9.55702L1776.34 -11.962V-65.531L1787.1 -70.796L1797.86 -65.531V-11.962L1841.8 9.55702L1885.74 -11.962V-65.531L1896.5 -70.796L1907.25 -65.531V-11.962L1951.19 9.55702L1995.14 -11.962V-65.531L2005.9 -70.796L2016.66 -65.531V-11.962L2060.6 9.55702L2104.54 -11.962V-65.531L2115.3 -70.796L2126.06 -65.531V-11.962L2170 9.55702V12.768L2122.78 -10.357V-20.085ZM1074.5 -32.767V-86.028L1073 -86.834H1076V-31.969L1074.5 -32.767Z" fill="#F5841F" fill-opacity="0.08"/>
<path d="M-35 288H1986V0H-35V288Z" fill="url(#paint0_linear_1737_12499)"/>
</g>
</g>
<defs>
<linearGradient id="paint0_linear_1737_12499" x1="975.5" y1="288" x2="975.5" y2="0" gradientUnits="userSpaceOnUse">
<stop stop-color="white" stop-opacity="0"/>
<stop offset="1" stop-color="white"/>
</linearGradient>
<clipPath id="clip0_1737_12499">
<rect width="1920" height="284" fill="white"/>
</clipPath>
</defs>
</svg>
