<svg width="40" height="40" viewBox="0 0 40 40" fill="none" xmlns="http://www.w3.org/2000/svg">
<path d="M10.5103 17.4195C8.5762 15.4854 8.39659 12.4511 9.9712 10.3126H4.55419C2.78802 10.3126 1.35107 11.7495 1.35107 13.5157V36.7968C1.35107 38.563 2.78802 39.9999 4.55419 39.9999H16.1166C17.8828 39.9999 19.3198 38.563 19.3198 36.7968V24.2406C17.9659 24.1717 16.7027 23.612 15.7371 22.6463L10.5103 17.4195ZM14.3727 34.1406C14.3727 34.7878 13.8481 35.3125 13.2009 35.3125C12.5537 35.3125 12.029 34.7878 12.029 34.1406V30.625H8.64183V34.1406C8.64183 34.7878 8.11714 35.3125 7.46996 35.3125C6.82277 35.3125 6.29809 34.7878 6.29809 34.1406V24.7656C6.29809 24.1184 6.82277 23.5938 7.46996 23.5938C8.11714 23.5938 8.64183 24.1184 8.64183 24.7656V28.2812H12.029V24.7656C12.029 24.1184 12.5537 23.5938 13.2009 23.5938C13.8481 23.5938 14.3727 24.1184 14.3727 24.7656V34.1406Z" fill="#F5841F"/>
<path d="M38.6359 30.6552L37.9693 26.9794L35.3744 25.6906L34.7929 23.803L32.9054 23.2216L32.3239 21.334L30.4363 20.7525L29.8548 18.8649L26.9912 16.0013C27.0367 15.8961 27.0789 15.7899 27.1195 15.6832L28.0608 14.7419C29.2812 13.5215 29.2812 11.5429 28.0608 10.3225L22.8339 5.0957C22.0023 4.26406 20.8187 3.99968 19.7628 4.30148C20.4704 5.5414 20.8753 6.97545 20.8753 8.50248C20.8753 9.84247 20.5552 11.1778 19.9496 12.3639C19.7424 12.7697 19.3312 13.0032 18.9049 13.0032C18.7256 13.0032 18.5436 12.962 18.3729 12.8748C17.7965 12.5805 17.5678 11.8747 17.8621 11.2982C18.3062 10.4283 18.5314 9.48763 18.5314 8.50256C18.5314 7.48201 18.2804 6.51944 17.8392 5.67108L12.1672 11.343C10.9469 12.5634 10.9469 14.5421 12.1672 15.7625L17.3941 20.9893C18.6145 22.2097 20.5931 22.2097 21.8135 20.9893L22.7548 20.0481C22.8616 20.0074 22.9678 19.9653 23.073 19.9197L34.0511 30.8978L37.7279 31.5636C38.2646 31.6606 38.7332 31.1919 38.6359 30.6552Z" fill="#102754"/>
<path d="M19.7631 4.30141C18.298 1.73437 15.5344 0 12.3731 0C7.84994 0 4.14096 3.55039 3.88525 8.01062C4.10471 7.98406 4.32768 7.96883 4.55416 7.96883H6.239C6.51057 4.82203 9.15705 2.34375 12.3731 2.34375C14.7485 2.34375 16.8125 3.69633 17.8396 5.67094L18.4149 5.09562C18.8035 4.70687 19.2694 4.4425 19.7631 4.30141Z" fill="#102754"/>
</svg>
