<svg width="531" height="436" viewBox="0 0 531 436" fill="none" xmlns="http://www.w3.org/2000/svg">
<g opacity="0.4" clip-path="url(#clip0_1800_22618)">
<path d="M518.715 0.00976562H32.2852C14.4831 0.00976562 0 14.4929 0 32.2949V462.764C0 480.566 14.4831 495.049 32.2852 495.049H152.009C157.952 495.049 162.771 490.23 162.771 484.287C162.771 478.344 157.952 473.525 152.009 473.525H32.2852C26.3511 473.525 21.5234 468.698 21.5234 462.764V107.627H529.477V462.764C529.477 468.698 524.649 473.525 518.715 473.525H465.683L355.873 363.715C367.759 341.987 374.525 317.075 374.525 290.61C374.525 206.346 305.972 137.793 221.709 137.793C137.445 137.793 68.8922 206.346 68.8922 290.61C68.8922 374.873 137.445 443.426 221.709 443.426C248.171 443.426 273.082 436.661 294.809 424.776L343.557 473.524H248.865C242.922 473.524 238.103 478.343 238.103 484.286C238.103 490.229 242.922 495.048 248.865 495.048H365.081L408.399 538.367C416.815 546.784 427.873 550.993 438.93 550.991C449.986 550.991 461.044 546.784 469.462 538.366C481.164 526.662 484.722 509.861 480.156 495.048H518.715C536.517 495.048 551 480.565 551 462.763V32.2938C551 14.4929 536.517 0.00976562 518.715 0.00976562ZM90.4157 290.61C90.4157 218.214 149.313 159.317 221.709 159.317C294.104 159.317 353.002 218.214 353.002 290.61C353.002 363.005 294.104 421.902 221.709 421.902C149.313 421.902 90.4157 363.006 90.4157 290.61ZM343.941 382.224L364.436 402.719L333.812 433.342L313.318 412.848C324.911 404.136 335.231 393.817 343.941 382.224ZM454.244 523.148C445.799 531.59 432.061 531.59 423.619 523.148L349.033 448.561L379.656 417.938L454.242 492.524C462.686 500.967 462.686 514.704 454.244 523.148ZM21.5234 86.1035V32.2949C21.5234 26.3609 26.3511 21.5332 32.2852 21.5332H518.715C524.649 21.5332 529.477 26.3609 529.477 32.2949V86.1035H21.5234Z" fill="#F2F5FB"/>
<path d="M482.125 43.0547H249.672C243.729 43.0547 238.91 47.8738 238.91 53.8164C238.91 59.759 243.729 64.5781 249.672 64.5781H482.125C488.068 64.5781 492.887 59.759 492.887 53.8164C492.887 47.8738 488.068 43.0547 482.125 43.0547Z" fill="#F2F5FB"/>
<path d="M116.227 43.0586C113.396 43.0586 110.62 44.1993 108.618 46.2118C106.615 48.2135 105.465 50.99 105.465 53.8203C105.465 56.6506 106.615 59.4272 108.618 61.4278C110.62 63.4295 113.396 64.582 116.227 64.582C119.057 64.582 121.833 63.4305 123.834 61.4278C125.837 59.4272 126.988 56.6506 126.988 53.8203C126.988 50.99 125.837 48.2135 123.834 46.2118C121.833 44.1983 119.057 43.0586 116.227 43.0586Z" fill="#F2F5FB"/>
<path d="M68.875 43.0586C66.0447 43.0586 63.2681 44.1993 61.2665 46.2118C59.2637 48.2135 58.1133 50.99 58.1133 53.8203C58.1133 56.6506 59.2637 59.4272 61.2665 61.4278C63.2681 63.4295 66.0447 64.582 68.875 64.582C71.7053 64.582 74.4819 63.4305 76.4825 61.4278C78.4852 59.4164 79.6367 56.6506 79.6367 53.8203C79.6367 50.99 78.4852 48.2135 76.4825 46.2118C74.4819 44.1983 71.7053 43.0586 68.875 43.0586Z" fill="#F2F5FB"/>
<path d="M163.578 43.0586C160.748 43.0586 157.971 44.1993 155.97 46.2118C153.968 48.2135 152.816 50.99 152.816 53.8203C152.816 56.6506 153.967 59.4272 155.97 61.4278C157.971 63.4295 160.748 64.582 163.578 64.582C166.408 64.582 169.185 63.4305 171.186 61.4278C173.188 59.4272 174.34 56.6506 174.34 53.8203C174.34 50.99 173.188 48.2135 171.186 46.2118C169.185 44.1983 166.408 43.0586 163.578 43.0586Z" fill="#F2F5FB"/>
<path d="M221.709 283.074C215.766 283.074 210.947 287.893 210.947 293.836V335.807C210.947 341.749 215.766 346.568 221.709 346.568C227.652 346.568 232.471 341.749 232.471 335.807V293.836C232.471 287.893 227.652 283.074 221.709 283.074Z" fill="#F2F5FB"/>
<path d="M221.713 234.648C218.872 234.648 216.095 235.799 214.094 237.802C212.093 239.802 210.951 242.579 210.951 245.41C210.951 248.24 212.093 251.017 214.094 253.018C216.095 255.019 218.872 256.172 221.713 256.172C224.543 256.172 227.32 255.02 229.321 253.018C231.323 251.017 232.475 248.24 232.475 245.41C232.475 242.579 231.324 239.802 229.321 237.802C227.319 235.799 224.542 234.648 221.713 234.648Z" fill="#F2F5FB"/>
<path d="M221.709 180.838C161.182 180.838 111.939 230.08 111.939 290.607C111.939 351.135 161.182 400.377 221.709 400.377C282.236 400.377 331.479 351.135 331.479 290.607C331.479 230.08 282.236 180.838 221.709 180.838ZM221.709 378.854C173.05 378.854 133.463 339.267 133.463 290.607C133.463 241.948 173.05 202.361 221.709 202.361C270.368 202.361 309.955 241.948 309.955 290.607C309.955 339.267 270.367 378.854 221.709 378.854Z" fill="#F2F5FB"/>
<path d="M389.862 217.438C389.862 223.38 394.681 228.199 400.624 228.199H482.125C488.067 228.199 492.886 223.38 492.886 217.438C492.886 211.495 488.067 206.676 482.125 206.676H400.624C394.68 206.676 389.862 211.494 389.862 217.438Z" fill="#F2F5FB"/>
<path d="M400.625 155.023H378.525C372.583 155.023 367.764 159.843 367.764 165.785C367.764 171.728 372.583 176.547 378.525 176.547H400.625C406.567 176.547 411.386 171.728 411.386 165.785C411.386 159.843 406.567 155.023 400.625 155.023Z" fill="#F2F5FB"/>
<path d="M482.125 176.547C488.067 176.547 492.886 171.728 492.886 165.785C492.886 159.843 488.067 155.023 482.125 155.023H447.976C442.033 155.023 437.214 159.843 437.214 165.785C437.214 171.728 442.033 176.547 447.976 176.547H482.125Z" fill="#F2F5FB"/>
<path d="M482.125 258.33H455.49C449.548 258.33 444.729 263.149 444.729 269.092C444.729 275.034 449.548 279.853 455.49 279.853H482.125C488.068 279.853 492.887 275.034 492.887 269.092C492.887 263.149 488.068 258.33 482.125 258.33Z" fill="#F2F5FB"/>
</g>
<defs>
<clipPath id="clip0_1800_22618">
<rect width="551" height="551" fill="white"/>
</clipPath>
</defs>
</svg>
