<svg width="35" height="33" viewBox="0 0 35 33" fill="none" xmlns="http://www.w3.org/2000/svg">
<path d="M16.4666 1.75084C16.9309 0.964121 18.0691 0.96412 18.5334 1.75084L22.9507 9.23471C23.1168 9.51606 23.3904 9.71754 23.7083 9.79262L32.0896 11.7718C32.9627 11.978 33.3091 13.0344 32.7275 13.7176L27.0644 20.3692C26.8568 20.6131 26.7553 20.9298 26.7824 21.2489L27.5274 30.0011C27.6044 30.9051 26.6888 31.5643 25.8559 31.2045L17.9759 27.8006C17.6722 27.6695 17.3278 27.6695 17.0241 27.8006L9.14411 31.2045C8.31117 31.5643 7.39563 30.9051 7.47258 30.0011L8.21756 21.2489C8.24472 20.9298 8.1432 20.6131 7.93559 20.3692L2.27252 13.7176C1.69091 13.0344 2.03727 11.978 2.91044 11.7718L11.2917 9.79262C11.6096 9.71754 11.8832 9.51606 12.0493 9.23471L16.4666 1.75084Z" stroke="white" stroke-width="2"/>
</svg>
