<svg width="41" height="41" viewBox="0 0 41 41" fill="none" xmlns="http://www.w3.org/2000/svg">
<g clip-path="url(#clip0_1856_20972)">
<path d="M20.5051 0H20.4949C9.19169 0 0 9.19425 0 20.5C0 24.9844 1.44525 29.1408 3.90269 32.5156L1.34788 40.1313L9.22756 37.6124C12.4691 39.7598 16.3359 41 20.5051 41C31.8083 41 41 31.8032 41 20.5C41 9.19681 31.8083 0 20.5051 0Z" fill="#4CAF50"/>
<path d="M32.4339 28.9474C31.9393 30.3439 29.9765 31.5022 28.4108 31.8404C27.3397 32.0685 25.9405 32.2504 21.2307 30.2978C15.2062 27.8019 11.3266 21.6801 11.0242 21.2829C10.7347 20.8857 8.58984 18.0414 8.58984 15.0996C8.58984 12.1579 10.0838 10.7254 10.686 10.1104C11.1805 9.60563 11.998 9.375 12.7821 9.375C13.0358 9.375 13.2638 9.38781 13.4688 9.39806C14.071 9.42369 14.3734 9.45956 14.7706 10.4103C15.2652 11.6018 16.4695 14.5436 16.613 14.8459C16.7591 15.1483 16.9052 15.5583 16.7002 15.9555C16.508 16.3655 16.3388 16.5474 16.0365 16.8959C15.7341 17.2444 15.4471 17.5109 15.1447 17.8851C14.868 18.2105 14.5553 18.559 14.9038 19.1612C15.2523 19.7506 16.4567 21.716 18.23 23.2945C20.5183 25.3317 22.3735 25.9826 23.0372 26.2593C23.5318 26.4643 24.1212 26.4156 24.4825 26.0313C24.9412 25.5367 25.5075 24.7167 26.084 23.9095C26.494 23.3304 27.0117 23.2586 27.5549 23.4636C28.1084 23.6558 31.0373 25.1036 31.6395 25.4034C32.2417 25.7058 32.6389 25.8493 32.785 26.103C32.9285 26.3567 32.9285 27.5483 32.4339 28.9474Z" fill="#FAFAFA"/>
</g>
<defs>
<clipPath id="clip0_1856_20972">
<rect width="41" height="41" fill="white"/>
</clipPath>
</defs>
</svg>
