<svg width="56" height="56" viewBox="0 0 56 56" fill="none" xmlns="http://www.w3.org/2000/svg">
<rect width="56" height="56" rx="28" fill="white"/>
<g clip-path="url(#clip0_1702_19219)">
<path d="M28 50C40.1503 50 50 40.1503 50 28C50 15.8497 40.1503 6 28 6C15.8497 6 6 15.8497 6 28C6 40.1503 15.8497 50 28 50Z" fill="#F0F0F0"/>
<path d="M28 22.2606H49.2421C48.6905 20.2141 47.8521 18.2856 46.771 16.5215H28V22.2606Z" fill="#338AF3"/>
<path d="M14.3048 45.2177H41.6942C43.7019 43.6186 45.4238 41.6762 46.7704 39.4785H9.22852C10.5752 41.6761 12.2971 43.6186 14.3048 45.2177Z" fill="#338AF3"/>
<path d="M13.6516 11.3223C11.9221 12.8116 10.4268 14.5655 9.22852 16.5211H13.6516V11.3223Z" fill="#338AF3"/>
<path d="M28 28.0009C28 25.76 28 23.8846 28 22.2617H19.3913V28.0009H13.6521V22.2617H6.75788C6.26469 24.0917 6 26.0151 6 28.0009C6 29.9866 6.26469 31.9101 6.75788 33.74H49.2422C49.7353 31.9101 50 29.9866 50 28.0009H28Z" fill="#338AF3"/>
<path d="M28.0003 6C24.9453 6 22.0359 6.6233 19.3916 7.74866V16.5218H28.0003C28.0003 14.5184 28.0003 12.8145 28.0003 10.7826H41.695C37.9369 7.78956 33.178 6 28.0003 6Z" fill="#338AF3"/>
</g>
<defs>
<clipPath id="clip0_1702_19219">
<rect width="44" height="44" fill="white" transform="translate(6 6)"/>
</clipPath>
</defs>
</svg>
