<?xml version="1.0" encoding="UTF-8"?>
<svg width="13px" height="12px" viewBox="0 0 13 12" version="1.1" xmlns="http://www.w3.org/2000/svg" xmlns:xlink="http://www.w3.org/1999/xlink">
    <title>heart</title>
    <g id="Anasayfa" stroke="none" stroke-width="1" fill="none" fill-rule="evenodd">
        <g id="anasayfa" transform="translate(-1226.000000, -35.000000)" fill="#FFFFFF" fill-rule="nonzero">
            <g id="heart" transform="translate(1226.000000, 35.000000)">
                <path d="M11.7845703,1.11445313 C11.1219727,0.395800775 10.212793,0 9.2243164,0 C8.48544923,0 7.80878905,0.23359375 7.21308595,0.694238275 C6.9125,0.9267578 6.64013673,1.21123048 6.4,1.54326173 C6.15996095,1.21132813 5.8875,0.9267578 5.5868164,0.694238275 C4.99121095,0.23359375 4.31455078,0 3.5756836,0 C2.58720703,0 1.6779297,0.395800775 1.01533203,1.11445313 C0.360644525,1.82470703 1.42108547e-15,2.79501953 1.42108547e-15,3.84677735 C1.42108547e-15,4.92929688 0.403417975,5.92021485 1.26953125,6.96533203 C2.04433595,7.9001953 3.15791015,8.84921875 4.44746095,9.94814453 C4.88779298,10.3234375 5.38691405,10.7488281 5.90517578,11.2019531 C6.04208985,11.321875 6.21777345,11.3878906 6.4,11.3878906 C6.5821289,11.3878906 6.75791015,11.321875 6.8946289,11.2021485 C7.41289063,10.7489258 7.9123047,10.3233398 8.35283203,9.94785155 C9.6421875,8.8491211 10.7557617,7.9001953 11.5305664,6.96523438 C12.3966797,5.92021485 12.8,4.92929688 12.8,3.8466797 C12.8,2.79501953 12.4393555,1.82470703 11.7845703,1.11445313 Z" id="Path"></path>
            </g>
        </g>
    </g>
</svg>