<?xml version="1.0" encoding="UTF-8"?>
<svg width="47px" height="47px" viewBox="0 0 47 47" version="1.1" xmlns="http://www.w3.org/2000/svg" xmlns:xlink="http://www.w3.org/1999/xlink">
    <title>001-map</title>
    <g id="Anasayfa" stroke="none" stroke-width="1" fill="none" fill-rule="evenodd">
        <g id="Villa-Mesafeler" transform="translate(-890.000000, -1251.000000)" fill-rule="nonzero">
            <g id="001-map" transform="translate(890.000000, 1251.000000)">
                <path d="M12.67794,18.83961 C12.43809,19.15551 12.20265,19.45962 11.97558,19.7478 C10.78011,21.26538 8.4798,21.26538 7.28433,19.7478 C4.97313,16.81389 1.8,12.27213 1.8,9.65034 C1.74411,4.7772 6.35895,0.97812 11.12328,1.94859 C8.77635,3.30327 7.2,5.8419 7.2,8.75034 C7.2,11.3697 10.36728,15.90543 12.67794,18.83961 Z M34.02,23.15034 C34.02,20.24199 35.59635,17.70327 37.94328,16.34868 C33.17868,15.37956 28.5642,19.17621 28.62,24.05043 C28.61991,26.67222 31.79304,31.21398 34.10433,34.14789 C35.2998,35.66547 37.60011,35.66547 38.79558,34.14789 C39.02256,33.85971 39.25809,33.5556 39.49794,33.2397 C37.18728,30.30543 34.02,25.7697 34.02,23.15034 Z" id="Shape" fill="#4247A3"></path>
                <path d="M11.88,28.53594 C11.88,29.77857 10.87263,30.78594 9.63,30.78594 C6.64542,30.66741 6.64623,26.40402 9.63,26.28594 C10.87263,26.28594 11.88,27.29331 11.88,28.53594 Z M16.29,30.06594 C15.04737,30.06594 14.04,31.07331 14.04,32.31594 C14.15853,35.30052 18.42192,35.29971 18.54,32.31594 C18.54,31.07331 17.53263,30.06594 16.29,30.06594 Z M22.95,33.93594 C21.70737,33.93594 20.7,34.94331 20.7,36.18594 C20.81853,39.17052 25.08192,39.16971 25.2,36.18594 C25.2,34.94331 24.19263,33.93594 22.95,33.93594 Z M29.7,37.80594 C28.45737,37.80594 27.45,38.81331 27.45,40.05594 C27.56853,43.04052 31.83192,43.03971 31.95,40.05594 C31.95,38.81331 30.94263,37.80594 29.7,37.80594 Z M36.45,41.58594 C35.20737,41.58594 34.2,42.59331 34.2,43.83594 C34.31853,46.82052 38.58192,46.81971 38.7,43.83594 C38.7,42.59331 37.69263,41.58594 36.45,41.58594 Z M13.38957,20.86164 C17.28495,15.91686 19.26,12.14478 19.26,9.65034 C19.26,4.33242 14.94,0.00594 9.63,0.00594 C4.32,0.00594 0,4.33242 0,9.65034 C0,12.14487 1.97505,15.91686 5.87043,20.86173 C6.78375,22.02111 8.15409,22.68603 9.63,22.68603 C11.10591,22.68603 12.47625,22.02102 13.38957,20.86164 Z M15.66,9.65034 C15.66,10.86453 14.32062,13.86216 10.56168,18.63396 C10.07073,19.24128 9.19017,19.24218 8.69841,18.63396 C4.93938,13.86216 3.6,10.86453 3.6,9.65034 C3.6,6.31746 6.30504,3.60594 9.63,3.60594 C12.95496,3.60594 15.66,6.31746 15.66,9.65034 Z M40.20957,35.26173 C44.10495,30.31686 46.08,26.54487 46.08,24.05034 C46.08,18.73242 41.76,14.40594 36.45,14.40594 C31.14,14.40594 26.82,18.73242 26.82,24.05034 C26.82,26.54487 28.79505,30.31686 32.69043,35.26173 C33.60375,36.42111 34.97409,37.08603 36.45,37.08603 C37.92591,37.08603 39.29625,36.42102 40.20957,35.26173 L40.20957,35.26173 Z M42.48,24.05034 C42.48,25.26453 41.14062,28.26216 37.38168,33.03396 C36.89073,33.64128 36.01017,33.64218 35.51841,33.03396 C31.75938,28.26216 30.42,25.26453 30.42,24.05034 C30.42,20.71746 33.12504,18.00594 36.45,18.00594 C39.77496,18.00594 42.48,20.71746 42.48,24.05034 Z" id="Shape" fill="#FFFFFF"></path>
                <path d="M9.63,7.20594 C10.87263,7.20594 11.88,8.21331 11.88,9.45594 C11.76147,12.44052 7.49808,12.43971 7.38,9.45594 C7.38,8.21331 8.38737,7.20594 9.63,7.20594 Z M34.2,23.85594 C34.2,25.09857 35.20737,26.10594 36.45,26.10594 C39.43458,25.98741 39.43377,21.72402 36.45,21.60594 C35.20737,21.60594 34.2,22.61331 34.2,23.85594 Z" id="Shape" fill="#5DC1B2"></path>
            </g>
        </g>
    </g>
</svg>