<?xml version="1.0" encoding="UTF-8"?>
<svg width="47px" height="47px" viewBox="0 0 47 47" version="1.1" xmlns="http://www.w3.org/2000/svg" xmlns:xlink="http://www.w3.org/1999/xlink">
    <title>002-maps</title>
    <g id="Anasayfa" stroke="none" stroke-width="1" fill="none" fill-rule="evenodd">
        <g id="Villa-Mesafeler" transform="translate(-480.000000, -1251.000000)" fill-rule="nonzero">
            <g id="002-maps" transform="translate(480.000000, 1251.000000)">
                <path d="M16.2582456,44.2385965 L10.7789474,44.2385965 C5.81802667,44.2385965 1.79649123,40.2169712 1.79649123,35.2561404 L1.79649123,10.8238596 C1.79649123,5.86293895 5.81802667,1.84140351 10.7789474,1.84140351 L16.2582456,1.84140351 C11.2973249,1.84140351 7.27578947,5.86293895 7.27578947,10.8238596 L7.27578947,35.2561404 C7.27578947,40.2169712 11.2973249,44.2385965 16.2582456,44.2385965 Z M34.0435088,32.1266526 C34.0435088,29.2239719 35.616786,26.6902007 37.9591411,25.3382512 C37.4767832,25.245193 36.9786161,25.1958793 36.4687719,25.1958793 C32.144887,25.1958793 28.6540351,28.7011032 28.6540351,33.0249881 C28.6540351,35.6416674 31.8209796,40.174574 34.1277642,43.1027649 C35.3209039,44.6173867 37.6167298,44.6173867 38.8098695,43.1027649 C39.036407,42.8151467 39.2714779,42.5116295 39.5108604,42.1963453 C37.2046147,39.2677951 34.0435088,34.7409067 34.0435088,32.1266526 L34.0435088,32.1266526 Z" id="Shape" fill="#4247A3"></path>
                <path d="M26.5880702,46.0350877 L10.7789474,46.0350877 C4.83543579,46.0350877 0,41.1996519 0,35.2561404 L0,10.8238596 C0,4.88034807 4.83543579,0.0449122807 10.7789474,0.0449122807 L35.2112281,0.0449122807 C41.1547396,0.0449122807 45.9901754,4.88034807 45.9901754,10.8238596 L45.9901754,19.8961404 C45.9901754,20.8883425 45.1858863,21.6926316 44.1936842,21.6926316 C43.2014821,21.6926316 42.397193,20.8883425 42.397193,19.8961404 L42.397193,10.8238596 C42.397193,6.8615186 39.1735691,3.63789474 35.2112281,3.63789474 L10.7789474,3.63789474 C6.81660632,3.63789474 3.59298246,6.8615186 3.59298246,10.8238596 L3.59298246,35.2561404 C3.59298246,39.2184814 6.81660632,42.4421053 10.7789474,42.4421053 L26.5880702,42.4421053 C27.5802723,42.4421053 28.3845614,43.2463944 28.3845614,44.2385965 C28.3845614,45.2307986 27.5802723,46.0350877 26.5880702,46.0350877 Z M24.3596126,15.8624786 L29.924334,10.2976674 C30.6259537,9.59604772 30.6258639,8.4585993 29.9242442,7.75706947 C29.2228042,7.05544982 28.0851761,7.05544982 27.3836463,7.75706947 L21.8189249,13.3218807 C21.4786695,13.6621361 21.0255046,13.8460968 20.5451228,13.848073 C20.0640225,13.8471747 19.6123846,13.6585432 19.2734765,13.3170302 L13.7607635,7.76200982 C13.0618386,7.05769544 11.9243004,7.05338386 11.2201656,7.75230877 C10.5159411,8.45123368 10.5115396,9.58868211 11.2104646,10.2929067 L16.7231775,15.847927 C17.7399018,16.872466 19.0948154,17.4382709 20.5382961,17.4410554 L20.5489853,17.4410554 C21.988334,17.4410554 23.3413614,16.88064 24.3596126,15.8624786 L24.3596126,15.8624786 Z M10.3514723,29.8704393 L14.2102456,25.9571425 C16.2748632,23.8632421 16.2689347,20.4622147 14.1969516,18.3755902 L10.3469811,14.4984028 C9.64787649,13.7944477 8.51051789,13.7904056 7.80638316,14.4894204 C7.10233825,15.1885249 7.09838596,16.3259733 7.7974007,17.0300182 L11.6473712,20.9072056 C12.3380323,21.6027172 12.3400084,22.7364828 11.6517726,23.4344196 L7.7929993,27.3477165 C7.09640982,28.0541867 7.10431439,29.1916351 7.81087439,29.8883144 C8.16083088,30.2334204 8.6166007,30.405614 9.07219088,30.405614 C9.53622456,30.405614 9.99998877,30.226953 10.3514723,29.8704393 L10.3514723,29.8704393 Z M40.2210133,44.2143439 C44.1088,39.2792028 46.08,35.5144758 46.08,33.0248982 C46.08,27.7173446 41.7684211,23.3992982 36.4687719,23.3992982 C31.1691228,23.3992982 26.8575439,27.7173446 26.8575439,33.0248982 C26.8575439,35.5145656 28.8287439,39.2792028 32.7165305,44.2144337 C33.6280702,45.3715537 34.9957389,46.0351775 36.4687719,46.0351775 C37.9418049,46.0351775 39.3094737,45.3714639 40.2210133,44.2143439 L40.2210133,44.2143439 Z M42.4870175,33.0248982 C42.4870175,34.2367214 41.1502484,37.2285081 37.3986358,41.9910063 C37.0894596,42.3835396 36.6833628,42.4421053 36.4687719,42.4421053 C36.2541811,42.4421053 35.848174,42.3835396 35.5389081,41.9910063 C31.7872954,37.2285081 30.4505263,34.2367214 30.4505263,33.0248982 C30.4505263,29.6985151 33.1502933,26.9922807 36.4687719,26.9922807 C39.7872505,26.9922807 42.4870175,29.6985151 42.4870175,33.0248982 L42.4870175,33.0248982 Z" id="Shape" fill="#FFFFFF"></path>
                <path d="M10.8687719,38.8491228 C10.40896,38.8491228 9.94923789,38.6736954 9.59847298,38.3229305 C8.89685333,37.6213109 8.89685333,36.4838625 9.59847298,35.7823326 L35.7374204,9.64338526 C36.43904,8.94176561 37.5765782,8.94176561 38.2781081,9.64338526 C38.9796379,10.3450049 38.9796379,11.4824533 38.2781081,12.1839832 L12.1391607,38.3229305 C11.788306,38.6736954 11.3285839,38.8491228 10.8687719,38.8491228 Z M34.2231579,32.8308772 C34.2231579,34.0710849 35.2285642,35.0764912 36.4687719,35.0764912 C37.7089796,35.0764912 38.714386,34.0710849 38.714386,32.8308772 C38.714386,31.5906695 37.7089796,30.5852632 36.4687719,30.5852632 C35.2285642,30.5852632 34.2231579,31.5906695 34.2231579,32.8308772 Z" id="Shape" fill="#5DC1B2"></path>
            </g>
        </g>
    </g>
</svg>