<?xml version="1.0" encoding="UTF-8"?>
<svg width="19px" height="22px" viewBox="0 0 19 22" version="1.1" xmlns="http://www.w3.org/2000/svg" xmlns:xlink="http://www.w3.org/1999/xlink">
    <g id="Anasayfa" stroke="none" stroke-width="1" fill="none" fill-rule="evenodd">
        <g id="anasayfa" transform="translate(-409.000000, -198.000000)" fill="#5DC1B2" fill-rule="nonzero">
            <g id="002-pin" transform="translate(409.000000, 198.000000)">
                <path d="M9.11047186,0 C4.08515052,0 0.00720089989,4.07357574 0.00720089989,9.10353766 C0.00720089989,11.6157983 1.0258882,13.8912827 2.67430754,15.5394353 L9.11047186,21.8480637 L15.5485564,15.5380484 C17.1967091,13.891496 18.2156631,11.616065 18.2137455,9.10161742 C18.2137455,4.07794962 14.1385135,0 9.11047186,0 Z M14.2622623,14.2487673 L9.11047186,19.2984117 L3.94913352,14.2380993 C2.58528308,12.8764358 1.82769507,11.0477273 1.82769507,9.10353766 C1.82769507,5.08756912 5.09482336,1.82076087 9.11047186,1.82076087 C11.0555149,1.82076087 12.8850236,2.57914898 14.2603421,3.95452086 C15.6356606,5.33069284 16.3932514,7.15854793 16.3932514,9.10167076 C16.3949022,11.0477273 15.6373142,12.8747823 14.2622623,14.2487673 Z" id="Shape"></path>
                <polygon id="Path" points="11.9195696 7.36198669 9.11047186 10.1702843 7.43911633 8.49972887 6.15196881 9.78682305 9.11047186 12.744526 13.2069838 8.64908087"></polygon>
            </g>
        </g>
    </g>
</svg>