<?xml version="1.0" encoding="UTF-8"?>
<svg width="16px" height="18px" viewBox="0 0 16 18" version="1.1" xmlns="http://www.w3.org/2000/svg" xmlns:xlink="http://www.w3.org/1999/xlink">
    <title>Group</title>
    <g id="Anasayfa" stroke="none" stroke-width="1" fill="none" fill-rule="evenodd">
        <g id="anasayfa" transform="translate(-1492.000000, -198.000000)" fill="#FEFEFE">
            <g id="Group" transform="translate(1492.000000, 198.000000)">
                <path d="M16,16.0001989 C16,17.1047032 15.1047922,18 14,18 C12.8956055,18 12,17.1047032 12,16.0001989 C12,14.8956945 12.8956055,14 14,14 C15.1047922,14 16,14.8956945 16,16.0001989" id="Fill-13"></path>
                <path d="M7.0041979,11.0452141 C4.77031484,11.0452141 2.95472264,9.22958299 2.95472264,7.00434792 C2.95472264,4.77041701 4.77031484,2.95508578 7.0041979,2.95508578 C9.22908546,2.95508578 11.0449775,4.77041701 11.0449775,7.00434792 C11.0449775,9.22958299 9.22908546,11.0452141 7.0041979,11.0452141 M7.0041979,0 C3.13283358,0 0,3.13260083 0,7.00434792 C0,10.8670993 3.13283358,14 7.0041979,14 C10.8668666,14 14,10.8670993 14,7.00434792 C14,3.13260083 10.8668666,0 7.0041979,0" id="Fill-15"></path>
            </g>
        </g>
    </g>
</svg>