<?xml version="1.0" encoding="UTF-8"?>
<svg width="13px" height="13px" viewBox="0 0 13 13" version="1.1" xmlns="http://www.w3.org/2000/svg" xmlns:xlink="http://www.w3.org/1999/xlink">
    <title>star (1) copy 3</title>
    <g id="Anasayfa" stroke="none" stroke-width="1" fill="none" fill-rule="evenodd">
        <g id="anasayfa" transform="translate(-1476.000000, -1006.000000)" fill="#FFC107" fill-rule="nonzero">
            <g id="star-(1)-copy-3" transform="translate(1476.000000, 1006.000000)">
                <path d="M11.7624924,4.32175811 L8.04791512,3.75435115 L6.38295076,0.207931745 C6.25859449,-0.0568917366 5.82410273,-0.0568917366 5.69974646,0.207931745 L4.03528556,3.75435115 L0.320708285,4.32175811 C0.0156074675,4.36858051 -0.106231473,4.73963547 0.107741873,4.95864348 L2.80632336,7.7246895 L2.16843106,11.6351153 C2.11758092,11.9457543 2.44936547,12.1788594 2.72375482,12.0263089 L6.04160034,10.1926832 L9.35944586,12.0268124 C9.63131788,12.1778524 9.96612323,11.9492785 9.91476963,11.6356188 L9.27687732,7.72519297 L11.9754588,4.95914695 C12.1894322,4.73963547 12.0670897,4.36858051 11.7624924,4.32175811 L11.7624924,4.32175811 Z" id="Path"></path>
            </g>
        </g>
    </g>
</svg>