<?xml version="1.0" encoding="UTF-8"?>
<svg width="20px" height="17px" viewBox="0 0 20 17" version="1.1" xmlns="http://www.w3.org/2000/svg" xmlns:xlink="http://www.w3.org/1999/xlink">
    <title>fence copy 5</title>
    <g id="Anasayfa" stroke="none" stroke-width="1" fill="none" fill-rule="evenodd">
        <g id="List-Otel" transform="translate(-1103.000000, -1861.000000)" fill="#2C318C" fill-rule="nonzero">
            <g id="fence-copy-5" transform="translate(1103.000000, 1861.000000)">
                <path d="M17.1374561,0.00139680004 C15.6331413,0.00139680004 14.4093116,1.22526524 14.4093116,2.72954128 L14.4093116,4.25081173 L12.6609836,4.25081173 L12.6609836,2.72958008 C12.6609836,1.22526524 11.4371539,0.00139680004 9.93283909,0.00139680004 C8.42852425,0.00139680004 7.20469461,1.22530404 7.20469461,2.72958008 L7.20469461,4.25085053 L5.45636656,4.25085053 L5.45636656,2.72958008 C5.45636656,1.22526524 4.23253692,0.00139680004 2.72822208,0.00139680004 C1.22390724,0.00139680004 0,1.22526524 0,2.72958008 L0,16.3722037 L5.45632776,16.3722037 L5.45632776,13.6759916 L7.20465581,13.6759916 L7.20465581,16.3722037 L12.6609836,16.3722037 L12.6609836,13.6759916 L14.4093116,13.6759916 L14.4093116,16.3722037 L19.8656006,16.3722037 L19.8656006,2.72958008 C19.8656006,1.22526524 18.6417709,0.00139680004 17.1374561,0.00139680004 Z M1.16400003,15.2082036 L1.16400003,2.72958008 C1.16400003,1.86709486 1.86569806,1.16543563 2.72814448,1.16543563 C3.59059091,1.16543563 4.29228893,1.86713366 4.29228893,2.72958008 L4.29228893,15.2082036 L1.16400003,15.2082036 Z M7.20465581,12.5119916 L5.45632776,12.5119916 L5.45632776,11.3461291 L7.20465581,11.3461291 L7.20465581,12.5119916 Z M7.20465581,7.74471303 L7.20465581,10.1820903 L5.45632776,10.1820903 L5.45632776,7.74471303 L7.20465581,7.74471303 L7.20465581,7.74471303 Z M7.20465581,6.58075179 L5.45632776,6.58075179 L5.45632776,5.41485056 L7.20465581,5.41485056 L7.20465581,6.58075179 Z M8.36861705,15.2082036 L8.36861705,2.72958008 C8.36861705,1.86709486 9.07031507,1.16543563 9.93276149,1.16543563 C10.7952079,1.16543563 11.4969059,1.86713366 11.4969059,2.72958008 L11.4969059,15.2082036 L8.36861705,15.2082036 Z M14.4092728,12.5119916 L12.6609448,12.5119916 L12.6609448,11.3461291 L14.4092728,11.3461291 L14.4092728,12.5119916 Z M14.4092728,7.74471303 L14.4092728,10.1820903 L12.6609448,10.1820903 L12.6609448,7.74471303 L14.4092728,7.74471303 L14.4092728,7.74471303 Z M14.4092728,6.58075179 L12.6609448,6.58075179 L12.6609448,5.41485056 L14.4092728,5.41485056 L14.4092728,6.58075179 Z M18.7016006,15.2082036 L15.5732729,15.2082036 L15.5732729,2.72958008 C15.5732729,1.86709486 16.2749709,1.16543563 17.1374173,1.16543563 C17.9998637,1.16543563 18.7016006,1.86709486 18.7016006,2.72958008 L18.7016006,15.2082036 Z" id="Shape"></path>
            </g>
        </g>
    </g>
</svg>