<?xml version="1.0" encoding="UTF-8"?>
<svg width="15px" height="18px" viewBox="0 0 15 18" version="1.1" xmlns="http://www.w3.org/2000/svg" xmlns:xlink="http://www.w3.org/1999/xlink">
    <title>002-parking copy 5</title>
    <g id="Anasayfa" stroke="none" stroke-width="1" fill="none" fill-rule="evenodd">
        <g id="List-Otel" transform="translate(-989.000000, -1908.000000)" fill="#5DC1B2" fill-rule="nonzero">
            <g id="002-parking-copy-5" transform="translate(989.000000, 1908.160938)">
                <path d="M14.9154297,7.4578125 C14.9154297,3.3457031 11.5699219,0 7.4578125,0 C3.3455078,0 0,3.3457031 0,7.4578125 C0,10.7513672 2.1464844,13.5529297 5.1136719,14.5378906 L5.1136719,17.4390625 L6.6214844,17.4390625 L6.6214844,14.8683594 C6.89609375,14.8992187 7.175,14.9154297 7.4578125,14.9154297 C7.7404297,14.9154297 8.01933595,14.8992187 8.2941406,14.8683594 L8.2941406,17.4390625 L9.8017578,17.4390625 L9.8017578,14.5378906 C12.7691406,13.5529297 14.9154297,10.7513672 14.9154297,7.4578125 Z M7.4578125,13.4078125 C4.1769531,13.4078125 1.5076172,10.7386719 1.5076172,7.4578125 C1.5076172,4.1769531 4.1769531,1.5078125 7.4578125,1.5078125 C10.7386719,1.5078125 13.4078125,4.1769531 13.4078125,7.4578125 C13.4078125,10.7386719 10.7386719,13.4078125 7.4578125,13.4078125 Z" id="Shape"></path>
                <path d="M8.23339845,4.0863281 L5.59609375,4.0863281 L5.59609375,11.6355469 L7.10371095,11.6355469 L7.10371095,9.0667969 L8.23339845,9.0667969 C9.6064453,9.0667969 10.7236328,7.9496094 10.7236328,6.5765625 C10.7236328,5.2035156 9.6064453,4.0863281 8.23339845,4.0863281 Z M8.23339845,7.5589844 L7.10371095,7.5589844 L7.10371095,5.5941406 L8.23339845,5.5941406 C8.7751953,5.5941406 9.2158203,6.0347656 9.2158203,6.5765625 C9.2158203,7.1183594 8.7751953,7.5589844 8.23339845,7.5589844 Z" id="Shape"></path>
            </g>
        </g>
    </g>
</svg>