<?xml version="1.0" encoding="UTF-8"?>
<svg width="112px" height="112px" viewBox="0 0 112 112" version="1.1" xmlns="http://www.w3.org/2000/svg" xmlns:xlink="http://www.w3.org/1999/xlink">
    <title>traffic-signal</title>
    <g id="Anasayfa" stroke="none" stroke-width="1" fill="none" fill-rule="evenodd">
        <g id="OtelDetay" transform="translate(-1041.000000, -3628.000000)" fill="#E6EFF1" fill-rule="nonzero">
            <g id="traffic-signal" transform="translate(768.000000, 3639.000000)">
                <g transform="translate(273.000000, -11.000000)" id="Shape">
                    <path d="M56,112 C86.8767903,112 112,86.8790691 112,56 C112,41.0292969 106.17806,26.9643555 95.6062826,16.3937174 C85.033366,5.82194025 70.9707031,0 56,0 C25.1209309,0 0,25.1209309 0,56 C0,70.9707031 5.82194025,85.0356445 16.3937174,95.6062826 C26.9643555,106.17806 41.0292969,112 56,112 Z M56,102.666667 C45.094401,102.666667 34.7664389,98.9593097 26.4550781,92.1438802 L92.1438802,26.4550781 C98.9593098,34.7664389 102.666667,45.094401 102.666667,56 C102.666667,81.731608 81.731608,102.666667 56,102.666667 Z M56,9.33333333 C66.9033202,9.33333333 77.2335611,13.0406903 85.5426431,19.8561198 L19.8561198,85.5449219 C13.0406903,77.2335611 9.33333333,66.905599 9.33333333,56 C9.33333333,30.268392 30.268392,9.33333333 56,9.33333333 Z"></path>
                </g>
            </g>
        </g>
    </g>
</svg>