<?xml version="1.0" encoding="UTF-8"?>
<svg width="32px" height="32px" viewBox="0 0 32 32" version="1.1" xmlns="http://www.w3.org/2000/svg" xmlns:xlink="http://www.w3.org/1999/xlink">
    <title>dashboard-interface</title>
    <g id="Anasayfa" stroke="none" stroke-width="1" fill="none" fill-rule="evenodd">
        <g id="MusteriPaneli-Bildirim" transform="translate(-413.000000, -167.000000)" fill="#5CC2B2">
            <g id="dashboard-interface" transform="translate(413.000000, 167.000000)">
                <g id="Group">
                    <path d="M14.9328782,3.20008534 C14.9328782,1.43363823 13.49924,0 11.7327929,0 L3.20008534,0 C1.43363823,0 0,1.43363823 0,3.20008534 L0,11.7327929 C0,13.49924 1.43363823,14.9328782 3.20008534,14.9328782 L11.7327929,14.9328782 C13.49924,14.9328782 14.9328782,13.49924 14.9328782,11.7327929 L14.9328782,3.20008534 Z M12.8003413,3.20008534 L12.8003413,11.7327929 C12.8003413,12.3216086 12.3216086,12.8003413 11.7327929,12.8003413 L3.20008534,12.8003413 C2.61126963,12.8003413 2.13253687,12.3216086 2.13253687,11.7327929 L2.13253687,3.20008534 C2.13253687,2.61126963 2.61126963,2.13253687 3.20008534,2.13253687 L11.7327929,2.13253687 C12.3216086,2.13253687 12.8003413,2.61126963 12.8003413,3.20008534 Z" id="Shape"></path>
                </g>
                <g id="Group" transform="translate(0.000000, 17.067122)">
                    <path d="M14.9328782,3.20008534 C14.9328782,1.43363823 13.49924,0 11.7327929,0 L3.20008534,0 C1.43363823,0 0,1.43363823 0,3.20008534 L0,11.7327929 C0,13.49924 1.43363823,14.9328782 3.20008534,14.9328782 L11.7327929,14.9328782 C13.49924,14.9328782 14.9328782,13.49924 14.9328782,11.7327929 L14.9328782,3.20008534 Z M12.8003413,3.20008534 L12.8003413,11.7327929 C12.8003413,12.3216086 12.3216086,12.8003413 11.7327929,12.8003413 L3.20008534,12.8003413 C2.61126963,12.8003413 2.13253687,12.3216086 2.13253687,11.7327929 L2.13253687,3.20008534 C2.13253687,2.61126963 2.61126963,2.13253687 3.20008534,2.13253687 L11.7327929,2.13253687 C12.3216086,2.13253687 12.8003413,2.61126963 12.8003413,3.20008534 Z" id="Shape"></path>
                </g>
                <g id="Group" transform="translate(17.067122, 0.000000)">
                    <path d="M14.9328782,3.20008534 C14.9328782,1.43363823 13.49924,0 11.7327929,0 L3.20008534,0 C1.43363823,0 0,1.43363823 0,3.20008534 L0,11.7327929 C0,13.49924 1.43363823,14.9328782 3.20008534,14.9328782 L11.7327929,14.9328782 C13.49924,14.9328782 14.9328782,13.49924 14.9328782,11.7327929 L14.9328782,3.20008534 Z M12.8003413,3.20008534 L12.8003413,11.7327929 C12.8003413,12.3216086 12.3216086,12.8003413 11.7327929,12.8003413 L3.20008534,12.8003413 C2.61126963,12.8003413 2.13253687,12.3216086 2.13253687,11.7327929 L2.13253687,3.20008534 C2.13253687,2.61126963 2.61126963,2.13253687 3.20008534,2.13253687 L11.7327929,2.13253687 C12.3216086,2.13253687 12.8003413,2.61126963 12.8003413,3.20008534 Z" id="Shape"></path>
                </g>
                <g id="Group" transform="translate(17.067122, 17.067122)">
                    <path d="M14.9328782,3.20008534 C14.9328782,1.43363823 13.49924,0 11.7327929,0 L3.20008534,0 C1.43363823,0 0,1.43363823 0,3.20008534 L0,11.7327929 C0,13.49924 1.43363823,14.9328782 3.20008534,14.9328782 L11.7327929,14.9328782 C13.49924,14.9328782 14.9328782,13.49924 14.9328782,11.7327929 L14.9328782,3.20008534 Z M12.8003413,3.20008534 L12.8003413,11.7327929 C12.8003413,12.3216086 12.3216086,12.8003413 11.7327929,12.8003413 L3.20008534,12.8003413 C2.61126963,12.8003413 2.13253687,12.3216086 2.13253687,11.7327929 L2.13253687,3.20008534 C2.13253687,2.61126963 2.61126963,2.13253687 3.20008534,2.13253687 L11.7327929,2.13253687 C12.3216086,2.13253687 12.8003413,2.61126963 12.8003413,3.20008534 Z" id="Shape"></path>
                </g>
            </g>
        </g>
    </g>
</svg>