<?xml version="1.0" encoding="UTF-8"?>
<svg width="42px" height="55px" viewBox="0 0 42 55" version="1.1" xmlns="http://www.w3.org/2000/svg" xmlns:xlink="http://www.w3.org/1999/xlink">
    <title>transfer (1)</title>
    <g id="Anasayfa" stroke="none" stroke-width="1" fill="none" fill-rule="evenodd">
        <g id="OtelRezervasyon" transform="translate(-857.000000, -1283.000000)" fill="#7F8090" fill-rule="nonzero">
            <g id="Group" transform="translate(840.876894, 1273.376894)">
                <g id="transfer-(1)" transform="translate(37.123106, 37.123106) rotate(-315.000000) translate(-37.123106, -37.123106) translate(6.123106, 15.623106)">
                    <path d="M61.44,28.30884 C61.44,28.59084 61.31604,28.85856 61.101,29.04096 L44.9988,42.69876 C44.82192,42.84888 44.601,42.92664 44.37768,42.92664 C44.24088,42.92664 44.10336,42.89748 43.97448,42.83784 C43.63512,42.68052 43.41792,42.34056 43.41792,41.96664 L43.41792,36.0978 L17.06232,36.0978 C16.53216,36.0978 16.10232,35.66796 16.10232,35.1378 C16.10232,34.60764 16.53216,34.1778 17.06232,34.1778 L44.37792,34.1778 C44.90808,34.1778 45.33792,34.60764 45.33792,35.1378 L45.33792,39.89364 L58.99596,28.30884 L45.33792,16.72416 L45.33792,21.48 C45.33792,22.01016 44.90808,22.44 44.37792,22.44 L18.02232,22.44 L18.02232,28.30884 C18.02232,28.68288 17.80512,29.02272 17.46576,29.18004 C17.12628,29.33712 16.72656,29.28288 16.44132,29.04096 L0.339,15.38316 C0.12396,15.20076 0,14.93304 0,14.65104 C0,14.36904 0.12396,14.10132 0.339,13.91892 L16.4412,0.26112 C16.72644,0.0192 17.12628,-0.03504 17.46564,0.12216 C17.805,0.27936 18.0222,0.61932 18.0222,0.99324 L18.0222,6.86208 L44.3778,6.86208 C44.90796,6.86208 45.3378,7.29192 45.3378,7.82208 C45.3378,8.35224 44.90796,8.78208 44.3778,8.78208 L17.0622,8.78208 C16.53204,8.78208 16.1022,8.35224 16.1022,7.82208 L16.1022,3.06624 L2.44416,14.65104 L16.1022,26.23584 L16.1022,21.48 C16.1022,20.94984 16.53204,20.52 17.0622,20.52 L43.4178,20.52 L43.4178,14.65116 C43.4178,14.27712 43.635,13.93716 43.97436,13.78008 C44.31384,13.62276 44.71356,13.67712 44.9988,13.91904 L61.101,27.57684 C61.31604,27.75912 61.44,28.02696 61.44,28.30884 L61.44,28.30884 Z" id="Path"></path>
                </g>
            </g>
        </g>
    </g>
</svg>