<?xml version="1.0" encoding="UTF-8"?>
<svg width="39px" height="51px" viewBox="0 0 39 51" version="1.1" xmlns="http://www.w3.org/2000/svg" xmlns:xlink="http://www.w3.org/1999/xlink">
    <title>Path</title>
    <g id="Anasayfa" stroke="none" stroke-width="1" fill="none" fill-rule="evenodd">
        <g id="OtelDetay" transform="translate(-413.000000, -4722.000000)" fill="#FFE177" fill-rule="nonzero">
            <path d="M452,4725.04884 L452,4770.0651 C452,4771.39068 450.399815,4772.07879 449.422258,4771.17025 L443.295234,4765.4896 C442.7087,4764.94447 441.7913,4764.94447 441.204766,4765.4896 L433.546738,4772.59115 C432.957196,4773.13628 432.042804,4773.13628 431.453262,4772.59115 L423.795234,4765.4896 C423.2087,4764.94447 422.2913,4764.94447 421.704766,4765.4896 L420.655021,4766.46368 L415.577742,4771.17025 C414.600185,4772.07879 413,4771.39068 413,4770.0651 L413,4725.04884 C413,4723.69347 414.657335,4723.01727 415.619852,4723.97944 L420.655021,4729.01666 L421.662656,4730.02649 C422.261222,4730.62524 423.238778,4730.62524 423.837344,4730.02649 L431.411152,4722.45129 C432.012726,4721.84957 432.990282,4721.84957 433.588848,4722.45129 L441.162656,4730.02649 C441.761222,4730.62524 442.738778,4730.62524 443.337344,4730.02649 L449.380148,4723.97944 C450.342665,4723.01727 452,4723.69347 452,4725.04884 L452,4725.04884 Z" id="Path"></path>
        </g>
    </g>
</svg>