<?xml version="1.0" encoding="UTF-8"?>
<svg width="24px" height="21px" viewBox="0 0 24 21" version="1.1" xmlns="http://www.w3.org/2000/svg" xmlns:xlink="http://www.w3.org/1999/xlink">
    <title>warning</title>
    <g id="Anasayfa" stroke="none" stroke-width="1" fill="none" fill-rule="evenodd">
        <g id="Havale-EFT-3" transform="translate(-668.000000, -825.000000)" fill="#D41515" fill-rule="nonzero">
            <g id="Group" transform="translate(668.000000, 824.000000)">
                <g id="warning" transform="translate(0.000000, 1.000000)">
                    <path d="M11.9996968,14.7571396 C11.3287314,14.7571396 10.7663045,15.2954801 10.7663045,15.9377108 C10.7663045,16.5799415 11.3287314,17.118282 11.9996968,17.118282 C12.6459943,17.118282 13.233089,16.5799415 13.2034876,15.9660445 C13.233089,15.2907578 12.6755957,14.7571396 11.9996968,14.7571396 Z" id="Path"></path>
                    <path d="M23.4159755,18.9410839 C24.1905458,17.6613447 24.1954794,16.1360468 23.4258426,14.8610299 L15.6998735,2.05419384 C14.9351703,0.765010119 13.553771,0 12.0046304,0 C10.4554897,0 9.07409036,0.769732404 8.30938717,2.04947155 L0.573550965,14.8704745 C-0.1960858,16.1596582 -0.191152231,17.6944007 0.588351672,18.9741399 C1.35798844,20.2397122 2.73445419,21 4.27372772,21 L19.7059316,21 C21.2501387,21 22.6364716,20.2302676 23.4159755,18.9410839 Z M21.738562,18.0155161 C21.3093415,18.7238588 20.5495719,19.1441421 19.700998,19.1441421 L4.26879415,19.1441421 C3.43008742,19.1441421 2.67525136,18.7333034 2.255898,18.0391275 C1.83161106,17.3355071 1.82667749,16.4949404 2.25096443,15.7865977 L9.98680063,2.97031707 C10.406154,2.26669665 11.1560565,1.8511356 12.0046304,1.8511356 C12.8482707,1.8511356 13.6031067,2.27141893 14.0224601,2.97503935 L21.7533627,15.79132 C22.1677825,16.4807736 22.1628489,17.3118957 21.738562,18.0155161 Z" id="Shape"></path>
                    <path d="M11.6938155,6.46953002 C11.1067208,6.6300877 10.7416367,7.14009445 10.7416367,7.75871374 C10.7712381,8.13177423 10.7959059,8.509557 10.8255074,8.88261749 C10.909378,10.3040252 10.9932487,11.6970992 11.0771194,13.1185069 C11.1067208,13.6001799 11.4964727,13.949629 11.9996968,13.949629 C12.5029208,13.949629 12.8976063,13.5765685 12.9222742,13.0901732 C12.9222742,12.7973915 12.9222742,12.5282213 12.9518756,12.2307173 C13.0061449,11.3193164 13.0653477,10.4079154 13.119617,9.4965145 C13.1492184,8.90622892 13.2034876,8.31594333 13.233089,7.72565775 C13.233089,7.51315494 13.2034876,7.32426355 13.119617,7.13537216 C12.8680049,6.60647628 12.2809102,6.33730605 11.6938155,6.46953002 Z" id="Path"></path>
                </g>
            </g>
        </g>
    </g>
</svg>