<svg width="23" height="27" viewBox="0 0 23 27" fill="none" xmlns="http://www.w3.org/2000/svg">
    <path fill-rule="evenodd" clip-rule="evenodd" d="M0 11.197C0 5.01 5.016 0 11.197 0c6.184 0 11.197 5.016 11.197 11.195a11.142 11.142 0 0 1-3.278 7.917l-7.919 7.761-7.916-7.76A11.16 11.16 0 0 1 0 11.197zm11.197 12.54 6.336-6.21a8.878 8.878 0 0 0 2.621-6.331c0-2.39-.931-4.639-2.623-6.331a8.902 8.902 0 0 0-6.334-2.625c-4.94 0-8.958 4.018-8.958 8.958 0 2.391.932 4.64 2.61 6.316l6.348 6.224z" fill="#F5841F"/>
    <path d="m14.652 9.055-3.455 3.454-2.056-2.054-1.583 1.583 3.64 3.638 5.038-5.038-1.584-1.583z" fill="#F5841F"/>
</svg>
