<svg width="26" height="26" viewBox="0 0 26 26" fill="none" xmlns="http://www.w3.org/2000/svg">
<path fill-rule="evenodd" clip-rule="evenodd" d="M10.399 1.82031H15.3651C17.603 1.8203 19.3596 1.82029 20.7308 2.00464C22.1355 2.1935 23.2482 2.58817 24.1222 3.46217C24.9962 4.33617 25.3909 5.44888 25.5797 6.85354C25.7641 8.22476 25.7641 9.98138 25.7641 12.2193V14.7599C25.7641 16.9979 25.7641 18.7545 25.5797 20.1257C25.3909 21.5304 24.9962 22.6431 24.1222 23.5171C23.1472 24.4921 21.8751 24.8706 20.2323 25.0322C19.8175 25.073 19.4481 24.7698 19.4073 24.355C19.3665 23.9402 19.6697 23.5708 20.0845 23.53C21.5951 23.3814 22.4456 23.059 23.0549 22.4497C23.6017 21.9029 23.9174 21.1618 24.0837 19.9246C24.253 18.6656 24.2546 17.0104 24.2546 14.7023V12.2769C24.2546 9.9688 24.253 8.31367 24.0837 7.05467C23.9174 5.81739 23.6017 5.07632 23.0549 4.52952C22.5081 3.98272 21.767 3.66699 20.5297 3.50065C19.2707 3.33138 17.6156 3.32978 15.3075 3.32978H10.4566C8.14849 3.32978 6.49335 3.33138 5.23436 3.50065C3.99708 3.66699 3.25601 3.98272 2.70921 4.52952C2.16241 5.07632 1.84668 5.81739 1.68033 7.05467C1.51107 8.31367 1.50946 9.9688 1.50946 12.2769V14.7023C1.50946 17.0104 1.51107 18.6656 1.68033 19.9246C1.84668 21.1618 2.16241 21.9029 2.70921 22.4497C3.25601 22.9965 3.99708 23.3122 5.23436 23.4786C6.49335 23.6479 8.14849 23.6495 10.4566 23.6495H15.3075C15.7243 23.6495 16.0622 23.9874 16.0622 24.4042C16.0622 24.821 15.7243 25.1589 15.3075 25.1589H10.399C8.16106 25.1589 6.40444 25.1589 5.03323 24.9746C3.62856 24.7857 2.51586 24.3911 1.64186 23.5171C0.767855 22.6431 0.373183 21.5304 0.184331 20.1257C-2.37972e-05 18.7545 -1.3241e-05 16.9979 2.29652e-07 14.7599V12.2193C-1.3241e-05 9.98136 -2.37972e-05 8.22475 0.184331 6.85354C0.373183 5.44888 0.767855 4.33617 1.64186 3.46217C2.51586 2.58817 3.62856 2.1935 5.03323 2.00464C6.40444 1.82029 8.16105 1.8203 10.399 1.82031Z" fill="#B22A41"/>
<path fill-rule="evenodd" clip-rule="evenodd" d="M6.81723 0C7.23406 0 7.57196 0.337905 7.57196 0.754731V2.57383C7.57196 2.99065 7.23406 3.32856 6.81723 3.32856C6.4004 3.32856 6.0625 2.99065 6.0625 2.57383V0.754731C6.0625 0.337905 6.4004 0 6.81723 0Z" fill="#B22A41"/>
<path fill-rule="evenodd" clip-rule="evenodd" d="M18.9461 0C19.363 0 19.7009 0.337905 19.7009 0.754731V2.57383C19.7009 2.99065 19.363 3.32856 18.9461 3.32856C18.5293 3.32856 18.1914 2.99065 18.1914 2.57383V0.754731C18.1914 0.337905 18.5293 0 18.9461 0Z" fill="#B22A41"/>
<path fill-rule="evenodd" clip-rule="evenodd" d="M25.1579 8.63754C25.1579 8.22072 24.82 7.88281 24.4032 7.88281H11.3663C10.9495 7.88281 10.6116 8.22072 10.6116 8.63754C10.6116 9.05437 10.9495 9.39227 11.3663 9.39227H24.4032C24.82 9.39227 25.1579 9.05437 25.1579 8.63754ZM6.20899 8.63754C6.20899 8.22072 5.87108 7.88281 5.45426 7.88281H0.754927C0.3381 7.88281 0.000196457 8.22072 0.000196457 8.63754C0.000196457 9.05437 0.3381 9.39227 0.754927 9.39227H5.45426C5.87108 9.39227 6.20899 9.05437 6.20899 8.63754Z" fill="#B22A41"/>
<path d="M20.1568 18.3399C20.1568 19.0097 19.6138 19.5526 18.9441 19.5526C18.2743 19.5526 17.7313 19.0097 17.7313 18.3399C17.7313 17.6701 18.2743 17.1272 18.9441 17.1272C19.6138 17.1272 20.1568 17.6701 20.1568 18.3399Z" fill="#B22A41"/>
<path d="M20.1568 13.489C20.1568 14.1587 19.6138 14.7017 18.9441 14.7017C18.2743 14.7017 17.7313 14.1587 17.7313 13.489C17.7313 12.8192 18.2743 12.2762 18.9441 12.2762C19.6138 12.2762 20.1568 12.8192 20.1568 13.489Z" fill="#B22A41"/>
<path d="M14.0982 18.3399C14.0982 19.0097 13.5552 19.5526 12.8855 19.5526C12.2157 19.5526 11.6727 19.0097 11.6727 18.3399C11.6727 17.6701 12.2157 17.1272 12.8855 17.1272C13.5552 17.1272 14.0982 17.6701 14.0982 18.3399Z" fill="#B22A41"/>
<path d="M14.0982 13.489C14.0982 14.1587 13.5552 14.7017 12.8855 14.7017C12.2157 14.7017 11.6727 14.1587 11.6727 13.489C11.6727 12.8192 12.2157 12.2762 12.8855 12.2762C13.5552 12.2762 14.0982 12.8192 14.0982 13.489Z" fill="#B22A41"/>
<path d="M8.03178 18.3399C8.03178 19.0097 7.48883 19.5526 6.81905 19.5526C6.14928 19.5526 5.60632 19.0097 5.60632 18.3399C5.60632 17.6701 6.14928 17.1272 6.81905 17.1272C7.48883 17.1272 8.03178 17.6701 8.03178 18.3399Z" fill="#B22A41"/>
<path d="M8.03178 13.489C8.03178 14.1587 7.48883 14.7017 6.81905 14.7017C6.14928 14.7017 5.60632 14.1587 5.60632 13.489C5.60632 12.8192 6.14928 12.2762 6.81905 12.2762C7.48883 12.2762 8.03178 12.8192 8.03178 13.489Z" fill="#B22A41"/>
</svg>
