<svg width="43" height="75" viewBox="0 0 43 75" fill="none" xmlns="http://www.w3.org/2000/svg">
<g clip-path="url(#clip0_25_63)">
<path fill-rule="evenodd" clip-rule="evenodd" d="M42.0895 0.349511C38.1156 0.346923 33.622 0.345703 33.2722 0.345703C18.9234 0.345703 7.29165 11.9776 7.29165 26.3263V30.7931H7.10931C2.9159 30.7931 -0.00115203 35.4423 -0.000976555 39.3617V50.7567C-0.000976555 54.312 2.46032 56.7733 6.38014 57.0467L8.11226 59.5993C11.5364 64.1528 16.9093 66.8224 22.6066 66.8008C22.8626 68.4516 23.6273 69.9813 24.7945 71.1766C26.5243 72.9469 28.8832 73.9624 31.3579 74.0025C36.3571 74.0029 40.424 69.9768 40.4739 64.9778C40.4402 60.7156 37.4292 57.058 33.2528 56.2064C28.3692 55.2102 23.6026 58.362 22.6066 63.2457C18.0571 63.2673 13.7647 61.1381 11.0293 57.5026L10.847 57.2292H12.9436C12.978 57.2276 13.0123 57.225 13.0465 57.2214C13.9977 57.1196 14.6862 56.2661 14.5845 55.3149V32.9808C14.5845 31.8868 13.9464 30.7929 12.9436 30.7929H10.9381V26.3261C10.9381 13.9913 20.9375 3.99193 33.2722 3.99193C33.626 3.99193 38.1174 3.99227 42.0895 3.99324V0.349511ZM31.3578 70.3565C29.8677 70.3471 28.4482 69.7198 27.4379 68.6244C26.4908 67.6546 25.9946 66.3314 26.0705 64.978V64.9736C26.0717 62.0031 28.4807 59.5961 31.4511 59.5973C34.4216 59.5986 36.8285 62.0075 36.8273 64.978C36.7305 67.9426 34.3237 70.3094 31.3578 70.3565ZM7.10931 53.583C6.01546 53.583 3.64525 53.2183 3.64525 50.757V39.3621C3.64525 37.2655 5.10378 34.4395 7.10931 34.4395H10.9381V53.583H7.10931Z" fill="#E8435E"/>
</g>
<defs>
<clipPath id="clip0_25_63">
<rect width="43" height="75" fill="white"/>
</clipPath>
</defs>
</svg>
