<svg width="41" height="41" viewBox="0 0 41 41" fill="none" xmlns="http://www.w3.org/2000/svg">
<g clip-path="url(#clip0_272_248)">
<mask id="mask0_272_248" style="mask-type:luminance" maskUnits="userSpaceOnUse" x="0" y="0" width="41" height="41">
<path d="M0 0H41V41H0V0Z" fill="white"/>
</mask>
<g mask="url(#mask0_272_248)">
<path d="M37.556 3.307H31.604V0.854C31.604 0.627505 31.514 0.410287 31.3539 0.250131C31.1937 0.0899747 30.9765 0 30.75 0C30.5235 0 30.3063 0.0899747 30.1461 0.250131C29.986 0.410287 29.896 0.627505 29.896 0.854V3.307H11.104V0.854C11.104 0.627505 11.014 0.410287 10.8539 0.250131C10.6937 0.0899747 10.4765 0 10.25 0C10.0235 0 9.80629 0.0899747 9.64613 0.250131C9.48597 0.410287 9.396 0.627505 9.396 0.854V3.307H3.444C2.53101 3.30779 1.65563 3.67076 1.00995 4.31625C0.36428 4.96173 0.00105911 5.83701 0 6.75L0 37.556C0.00105865 38.4691 0.364248 39.3445 1.00989 39.9901C1.65554 40.6358 2.53092 40.9989 3.444 41H37.556C38.4692 40.9992 39.3447 40.6361 39.9904 39.9904C40.6361 39.3447 40.9992 38.4692 41 37.556V6.75C40.9987 5.83709 40.6354 4.96197 39.9898 4.31654C39.3441 3.67111 38.4689 3.30806 37.556 3.307ZM39.292 13.557H30.75C30.5234 13.557 30.306 13.647 30.1458 13.8073C29.9855 13.9675 29.8955 14.1849 29.8955 14.4115C29.8955 14.6381 29.9855 14.8555 30.1458 15.0157C30.306 15.176 30.5234 15.266 30.75 15.266H39.292V37.556C39.2915 38.0163 39.1084 38.4575 38.783 38.783C38.4575 39.1084 38.0163 39.2915 37.556 39.292H3.444C2.98375 39.2915 2.5425 39.1084 2.21705 38.783C1.8916 38.4575 1.70853 38.0163 1.708 37.556V15.266H10.25C10.4766 15.266 10.694 15.176 10.8542 15.0157C11.0145 14.8555 11.1045 14.6381 11.1045 14.4115C11.1045 14.1849 11.0145 13.9675 10.8542 13.8073C10.694 13.647 10.4766 13.557 10.25 13.557H1.708V6.75C1.70879 6.29001 1.89201 5.84912 2.21746 5.52405C2.54291 5.19897 2.98401 5.01626 3.444 5.016H9.396V5.979C9.396 6.20549 9.48597 6.42271 9.64613 6.58287C9.80629 6.74303 10.0235 6.833 10.25 6.833C10.4765 6.833 10.6937 6.74303 10.8539 6.58287C11.014 6.42271 11.104 6.20549 11.104 5.979V5.016H29.896V5.979C29.896 6.20549 29.986 6.42271 30.1461 6.58287C30.3063 6.74303 30.5235 6.833 30.75 6.833C30.9765 6.833 31.1937 6.74303 31.3539 6.58287C31.514 6.42271 31.604 6.20549 31.604 5.979V5.016H37.556C38.016 5.01626 38.4571 5.19897 38.7825 5.52405C39.108 5.84912 39.2912 6.29001 39.292 6.75V13.557ZM25.348 17.047C25.2273 17.0295 25.1041 17.0393 24.9877 17.0757C24.8712 17.112 24.7644 17.174 24.675 17.257C24.5839 17.3378 24.5111 17.4372 24.4616 17.5484C24.4121 17.6597 24.387 17.7802 24.388 17.902C24.479 19.202 24.237 20.502 23.684 21.682C22.6548 20.2163 22.0088 18.5163 21.805 16.737C21.6876 16.1597 21.6933 15.5641 21.8216 14.9891C21.95 14.4141 22.1982 13.8726 22.55 13.4C22.6736 13.2735 22.7549 13.1118 22.7827 12.9372C22.8104 12.7625 22.7833 12.5836 22.705 12.425C22.6241 12.2684 22.4977 12.14 22.3424 12.0567C22.1871 11.9733 22.0102 11.9389 21.835 11.958C20.4142 12.2149 19.1025 12.8902 18.0679 13.8974C17.0333 14.9045 16.323 16.1976 16.028 17.611C15.657 19.2482 15.6254 20.9441 15.935 22.594C15.1484 21.768 14.5383 20.7905 14.142 19.721C14.0882 19.5515 13.9829 19.4031 13.8408 19.2962C13.6986 19.1894 13.5267 19.1296 13.349 19.125C13.1726 19.1265 13.0006 19.1801 12.8546 19.2793C12.7087 19.3784 12.5954 19.5185 12.529 19.682C12.444 19.909 10.479 25.319 13.069 29.052C14.596 31.249 17.323 32.362 21.175 32.362C28.076 32.362 29.125 27.455 29.257 25.345C29.489 21.503 27.519 17.316 25.348 17.047ZM27.547 25.234C27.393 27.706 26.161 30.649 21.17 30.649C17.914 30.649 15.66 29.785 14.471 28.087C13.4767 26.3706 13.165 24.3428 13.598 22.407C14.4478 23.7275 15.6057 24.8219 16.972 25.596C17.121 25.6602 17.2852 25.6807 17.4454 25.655C17.6056 25.6294 17.7552 25.5587 17.8767 25.4512C17.9983 25.3438 18.0867 25.2039 18.1317 25.0481C18.1768 24.8922 18.1765 24.7267 18.131 24.571C17.4239 22.4759 17.2662 20.2344 17.673 18.061C18.0127 16.5583 18.9148 15.2426 20.194 14.384C19.8833 16.4729 20.1898 18.607 21.076 20.524C21.64 21.864 22.535 23.457 23.592 23.457C23.8297 23.4562 24.0648 23.4072 24.2831 23.313C24.5014 23.2188 24.6983 23.0814 24.862 22.909C25.5904 21.9058 25.9961 20.7045 26.025 19.465C27.1388 21.1746 27.6724 23.1974 27.547 25.234Z" fill="#E8435E"/>
</g>
</g>
<defs>
<clipPath id="clip0_272_248">
<rect width="41" height="41" fill="white"/>
</clipPath>
</defs>
</svg>
