<svg width="45" height="45" viewBox="0 0 45 45" fill="none" xmlns="http://www.w3.org/2000/svg">
<path d="M40.272 13.9222C39.0879 16.5011 37.6509 18.9562 35.982 21.2512C35.5712 21.8347 35.0262 22.3108 34.3929 22.6394C33.7596 22.968 33.0565 23.1396 32.343 23.1396C31.6295 23.1396 30.9264 22.968 30.2931 22.6394C29.6598 22.3108 29.1148 21.8347 28.704 21.2512C25.8375 17.1727 24.0862 13.785 23.4645 11.1442C22.8896 11.8577 22.4485 12.6693 22.1625 13.5397C20.0887 19.7482 22.2847 20.8372 25.9245 22.6425L26.4382 22.899C28.9027 24.1327 29.9827 25.914 30.9382 27.4852C31.3657 28.2626 31.8833 28.9868 32.4802 29.643C32.982 30.1133 33.5827 30.4654 34.2382 30.6735C35.2635 31.0695 36.1642 31.422 36.6622 34.302C36.5812 34.413 36.5085 34.5285 36.4237 34.638C33.7326 38.1352 29.8229 40.4905 25.4734 41.2349C21.1239 41.9793 16.6535 41.0582 12.9525 38.655C13.3042 37.53 13.914 37.29 14.985 36.873C16.8586 36.2248 18.5144 35.0669 19.7662 33.5295C21.0675 32.013 21.5385 30.5595 21.165 29.2087C20.5267 26.8942 17.6175 25.899 17.4427 25.8427C17.4202 25.8367 15.1867 25.2525 14.2507 23.6227C14.0223 23.1972 13.8842 22.7291 13.8452 22.2477C13.8063 21.7662 13.8672 21.282 14.0242 20.8252C15.1492 16.896 11.313 13.5405 9.43649 12.177C11.0781 10.3356 13.0908 8.86253 15.3423 7.85454C17.5938 6.84654 20.0331 6.32646 22.5 6.32849C22.8786 6.33001 23.257 6.34351 23.6347 6.36899C23.9472 5.40228 24.419 4.49454 25.0305 3.68324C24.1912 3.57545 23.3461 3.5196 22.5 3.51599C19.6818 3.51487 16.8941 4.09793 14.3126 5.22835C11.7311 6.35878 9.41193 8.01204 7.50149 10.0838C5.59105 12.1556 4.13079 14.6008 3.21287 17.2653C2.29495 19.9298 1.9393 22.7556 2.16836 25.5644C2.39743 28.3732 3.20623 31.1041 4.54373 33.5846C5.88123 36.0651 7.71839 38.2415 9.93927 39.9764C12.1601 41.7112 14.7165 42.9668 17.4471 43.6641C20.1776 44.3613 23.023 44.485 25.8037 44.0272C30.9017 43.1897 35.4914 40.4473 38.6445 36.3547C41.089 33.1888 42.547 29.373 42.8364 25.3836C43.1259 21.3942 42.234 17.4079 40.272 13.9222Z" fill="#221A52"/>
<path d="M32.3438 2.10974C30.4791 2.10974 28.6908 2.85043 27.3722 4.16888C26.0536 5.48733 25.3127 7.27557 25.3125 9.14024C25.3125 12.2212 28.3485 17.0722 30.4305 20.0392C30.6463 20.3463 30.9328 20.5968 31.2658 20.7698C31.5988 20.9428 31.9685 21.0331 32.3438 21.0331C32.719 21.0331 33.0887 20.9428 33.4217 20.7698C33.7547 20.5968 34.0412 20.3463 34.257 20.0392C36.339 17.0722 39.375 12.2212 39.375 9.14024C39.3748 7.27557 38.6339 5.48733 37.3153 4.16888C35.9967 2.85043 34.2084 2.10974 32.3438 2.10974ZM32.3438 12.6562C31.4114 12.6562 30.5173 12.2859 29.8581 11.6266C29.1989 10.9674 28.8285 10.0733 28.8285 9.14099C28.8285 8.20869 29.1989 7.31457 29.8581 6.65533C30.5173 5.9961 31.4114 5.62574 32.3438 5.62574C33.2761 5.62574 34.1702 5.9961 34.8294 6.65533C35.4886 7.31457 35.859 8.20869 35.859 9.14099C35.859 10.0733 35.4886 10.9674 34.8294 11.6266C34.1702 12.2859 33.2761 12.6562 32.3438 12.6562Z" fill="#E8435E"/>
</svg>
