<svg width="163" height="46" viewBox="0 0 163 46" fill="none" xmlns="http://www.w3.org/2000/svg">
<path fill-rule="evenodd" clip-rule="evenodd" d="M20.2859 0.593766C21.6459 0.953712 23.3044 1.57554 23.9707 1.97548L25.1822 2.70267L23.6389 4.30843C22.0997 5.90944 22.0908 5.91248 20.7833 5.21194C18.7471 4.12096 14.0452 4.24219 11.4291 5.45277C6.89685 7.55001 4.28847 11.6788 4.3092 16.7214C4.32402 20.2404 5.38566 22.7475 7.88568 25.166C8.90329 26.1504 13.8021 30.0719 18.7722 33.8798L27.8084 40.8034L38.1987 32.9755C49.3235 24.5941 50.4558 23.4205 51.4409 19.2492C52.3683 15.3225 51.3308 11.53 48.4659 8.37228C45.9608 5.61143 43.4607 4.48988 39.7903 4.48089C35.2813 4.46929 33.7058 5.40542 27.0574 12.0456L21.3767 17.7196V20.4403V23.1612H27.9379H34.4991V20.4881C34.4991 17.9049 34.436 17.7501 32.6192 15.8652L30.7393 13.9154L31.9783 12.5178C32.6598 11.7489 33.3688 11.1202 33.5538 11.1202C33.7392 11.1202 34.9799 12.2387 36.3112 13.6054L38.7321 16.0906V21.7834V27.4762L28.0437 27.3614L17.3554 27.2466L17.2462 21.8711L17.1365 16.4957L23.5957 9.76127C30.2284 2.84499 31.831 1.64994 35.9806 0.523676C47.759 -2.67235 58.9257 9.32052 55.3073 21.2807C53.8164 26.2102 52.4356 27.6039 39.4741 37.2686L27.7635 46L17.4798 38.1742C5.51097 29.0665 3.57817 27.299 1.76348 23.8063C1.76348 23.8063 0 20.9611 0 16.7214C0 12.9358 1.38378 10.0795 1.38378 10.0795C3.45838 5.50952 7.6076 1.83744 12.0641 0.627742C15.1081 -0.198354 17.2584 -0.207392 20.2859 0.593766Z" fill="#D84D64"/>
<path d="M76.4624 12.2778C78.0774 11.7222 79.1265 9.94441 79.1265 8.13888C79.1265 5.02778 76.6888 3.11109 72.5228 3.11109H63V22H73.0895C77.3694 22 79.9766 19.9444 79.9766 16.75C79.9766 14.6111 78.7299 12.75 76.4624 12.2778ZM67.7897 6.94447H71.7578C73.6281 6.94447 74.5632 7.55553 74.5632 8.77778C74.5632 10.0278 73.543 10.8056 71.7578 10.8056H67.7897V6.94447ZM67.7897 18.1111V14.3889H72.5509C74.3931 14.3889 75.3001 14.9722 75.3001 16.1389C75.3001 17.3333 74.3368 18.1111 72.4377 18.1111H67.7897ZM94.9995 18.75L96.3031 22H101.405L93.2424 3H88.651L80.4603 22H85.5615L86.8369 18.75H94.9995ZM93.4126 14.75H88.4239L90.9186 8.47221L93.4126 14.75ZM117.749 17.8611H108.227V3.11109H103.437V22H117.749V17.8611ZM133.195 18.75L134.498 22H139.599L131.437 3H126.846L118.655 22H123.757L125.032 18.75H133.195ZM131.607 14.75H126.619L129.113 8.47221L131.607 14.75ZM156.347 3.11109H151.047L146.313 11.3334L141.609 3.11109H136.309L143.933 16.3055V22H148.751V16.3055L156.347 3.11109ZM163 3.11109H158.21V22H163V3.11109Z" fill="#221A52"/>
<path d="M74.4275 27.1998H71.3862L68.2137 35.0382L65.0414 27.1998H62L66.8238 38.83H69.62L74.4275 27.1998ZM76.9502 26.0945C77.8006 26.0945 78.4873 25.4314 78.4873 24.5473C78.4873 23.6631 77.8006 23 76.9502 23C76.0833 23 75.3966 23.6631 75.3966 24.5473C75.3966 25.4314 76.0833 26.0945 76.9502 26.0945ZM78.3399 27.1998H75.5762V38.762H78.3399V27.1998ZM88.561 36.2285H83.0664V27.1998H80.3033V38.762H88.561V36.2285ZM98.1262 36.2285H92.6316V27.1998H89.8685V38.762H98.1262V36.2285ZM107.037 36.7726L107.789 38.762H110.733L106.023 27.1318H103.374L98.6483 38.762H101.592L102.328 36.7726H107.037ZM106.121 34.3241H103.244L104.682 30.4814L106.121 34.3241ZM115.716 26.9447C114.391 26.9447 113.328 27.2848 112.511 27.982C111.71 28.662 111.301 29.5802 111.301 30.7194C111.301 32.5558 112.315 33.61 114.522 34.1201L116.354 34.5451C117.139 34.7322 117.531 35.0382 117.531 35.5314C117.531 36.1605 116.991 36.5516 115.961 36.5516C114.653 36.5516 113.803 35.9395 113.623 34.9192H110.859C110.974 36.2625 111.514 37.2827 112.446 37.9798C113.378 38.66 114.522 39 115.88 39C117.269 39 118.397 38.66 119.231 37.9968C120.065 37.3167 120.491 36.3985 120.491 35.2423C120.491 33.3549 119.346 32.4708 117.139 31.9437L115.585 31.5696C114.718 31.3656 114.31 31.0935 114.31 30.4814C114.31 29.7502 114.931 29.3252 115.896 29.3252C116.926 29.3252 117.531 29.8183 117.694 30.7875H120.475C120.344 29.3081 119.624 28.237 118.643 27.6929C117.678 27.1658 116.714 26.9447 115.716 26.9447ZM125 27.1998H122.237V38.762H125V27.1998Z" fill="#221A52"/>
</svg>
