<?xml version="1.0" encoding="UTF-8"?>
<svg width="170px" height="53px" viewBox="0 0 170 53" version="1.1" xmlns="http://www.w3.org/2000/svg" xmlns:xlink="http://www.w3.org/1999/xlink">
    <title>Artboard</title>
    <g id="Artboard" stroke="none" stroke-width="1" fill="none" fill-rule="evenodd">
        <g id="logo" transform="translate(4.000000, 3.000000)" fill="#FFFFFF" fill-rule="nonzero">
            <path d="M20.2858842,0.593765714 C21.6459438,0.953712194 23.3044308,1.57554022 23.9707374,1.9754784 L25.1822103,2.70267474 L23.6388728,4.30842867 C22.099715,5.90944106 22.0907984,5.91248413 20.7832631,5.21193948 C18.7471443,4.12096097 14.0451722,4.24218867 11.4291263,5.45276719 C6.89684814,7.55001345 4.288465,11.6788321 4.30920305,16.7214231 C4.32401992,20.2404233 5.38565917,22.7474942 7.88568477,25.1660328 C8.90329136,26.1503621 13.8021253,30.0718977 18.7721526,33.8798486 L27.808357,40.8034151 L38.1986998,32.9754886 C49.3234776,24.5940758 50.4558157,23.4205096 51.4408907,19.2491587 C52.3682864,15.3225277 51.3307568,11.5300044 48.4658821,8.37228118 C45.9608061,5.61143181 43.4607457,4.48988099 39.7903123,4.48089329 C35.2813009,4.46928714 33.70578,5.40542257 27.0574124,12.0456291 L21.3767044,17.7195524 L21.3767044,20.4403464 L21.3767044,23.1612112 L27.9378566,23.1612112 L34.4990785,23.1612112 L34.4990785,20.4881156 C34.4990785,17.904897 34.4359657,17.750054 32.6192091,15.8651862 L30.7392701,13.915423 L31.9783288,12.5178014 C32.6598215,11.7488937 33.3688302,11.1201798 33.5538496,11.1201798 C33.7392173,11.1201798 34.9799478,12.2386875 36.3112374,13.605383 L38.7320934,16.0905862 L38.7320934,21.7834049 L38.7320934,27.4762237 L28.0437412,27.3613652 L17.355389,27.2465775 L17.2461607,21.871088 L17.1365144,16.4956693 L23.5956831,9.76126894 C30.228377,2.84499167 31.8309959,1.64993992 35.9806267,0.523675864 C47.7589632,-2.67235476 58.9256769,9.32051815 55.3072802,21.2806603 C53.8163974,26.2101621 52.4355788,27.6038914 39.4741214,37.2685626 L27.7634954,46 L17.4798034,38.1741965 C5.51096522,29.0664791 3.57817448,27.2990175 1.76347989,23.8062727 C1.76347989,23.8062727 0,20.9611372 0,16.7214231 C0,12.9358353 1.38377916,10.0795182 1.38377916,10.0795182 C3.45837862,5.50952411 7.60759842,1.83743593 12.0640855,0.627742024 C15.1080584,-0.198354326 17.258421,-0.207391557 20.2858842,0.593765714 Z" id="Path"></path>
            <path d="M76.4623565,12.277754 C78.0774315,11.7222424 79.1264919,9.9444122 79.1264919,8.13887881 C79.1264919,5.02777939 76.6887623,3.11108854 72.5227548,3.11108854 L63,3.11108854 L63,22 L73.0894725,22 C77.369386,22 79.9765684,19.9444485 79.9765684,16.7500326 C79.9765684,14.6110885 78.7299302,12.7500181 76.4623565,12.277754 Z M67.7897485,6.94447024 L71.7577563,6.94447024 C73.6280652,6.94447024 74.5632196,7.55552614 74.5632196,8.77777576 C74.5632196,10.0277975 73.5429872,10.8055552 71.7577563,10.8055552 L67.7897485,10.8055552 L67.7897485,6.94447024 Z M67.7897485,18.1111429 L67.7897485,14.3889187 L72.5508798,14.3889187 C74.3930637,14.3889187 75.3000932,14.9722025 75.3000932,16.1389078 C75.3000932,17.3333164 74.3368138,18.1111429 72.4376769,18.1111429 L67.7897485,18.1111429 Z M94.9995078,18.749971 L96.303099,22 L101.404964,22 L93.2424019,3 L88.6510046,3 L80.4603175,22 L85.5614794,22 L86.8369456,18.749971 L94.9995078,18.749971 Z M93.4125578,14.7500254 L88.4238957,14.7500254 L90.9185783,8.47221336 L93.4125578,14.7500254 Z M117.749073,17.8611248 L108.226669,17.8611248 L108.226669,3.11108854 L103.436991,3.11108854 L103.436991,22 L117.749073,22 L117.749073,17.8611248 Z M133.194589,18.749971 L134.498181,22 L139.599343,22 L131.43678,3 L126.846086,3 L118.654696,22 L123.756561,22 L125.032027,18.749971 L133.194589,18.749971 Z M131.606936,14.7500254 L126.618977,14.7500254 L129.112957,8.47221336 L131.606936,14.7500254 Z M156.347044,3.11108854 L151.046898,3.11108854 L146.31347,11.3333636 L141.60887,3.11108854 L136.309427,3.11108854 L143.933397,16.3055406 L143.933397,22 L148.7512,22 L148.7512,16.3055406 L156.347044,3.11108854 Z M163,3.11108854 L158.210322,3.11108854 L158.210322,22 L163,22 L163,3.11108854 Z" id="Shape"></path>
            <path d="M74.4274504,27.1997536 L71.3861594,27.1997536 L68.2136894,35.0382475 L65.0414341,27.1997536 L62,27.1997536 L66.8237937,38.8299779 L69.6199646,38.8299779 L74.4274504,27.1997536 Z M76.9501769,26.0945357 C77.8006226,26.0945357 78.4872735,25.431405 78.4872735,24.5473051 C78.4872735,23.6631307 77.8006226,23 76.9501769,23 C76.0832803,23 75.3966294,23.6631307 75.3966294,24.5473051 C75.3966294,25.431405 76.0832803,26.0945357 76.9501769,26.0945357 Z M78.3399296,27.1997536 L75.57616,27.1997536 L75.57616,38.7619988 L78.3399296,38.7619988 L78.3399296,27.1997536 Z M88.5610135,36.2284765 L83.0663762,36.2284765 L83.0663762,27.1997536 L80.3033219,27.1997536 L80.3033219,38.7619988 L88.5610135,38.7619988 L88.5610135,36.2284765 Z M98.1262027,36.2284765 L92.6315655,36.2284765 L92.6315655,27.1997536 L89.8685111,27.1997536 L89.8685111,38.7619988 L98.1262027,38.7619988 L98.1262027,36.2284765 Z M107.036928,36.7726066 L107.789383,38.7619988 L110.732683,38.7619988 L106.023403,27.1317745 L103.374075,27.1317745 L98.6483435,38.7619988 L101.592359,38.7619988 L102.327648,36.7726066 L107.036928,36.7726066 Z M106.121393,34.3240953 L103.243897,34.3240953 L104.682288,30.4814178 L106.121393,34.3240953 Z M115.715908,26.9447205 C114.391245,26.9447205 113.328366,27.2847647 112.510823,27.9819593 C111.70973,28.6620476 111.3006,29.5802115 111.3006,30.7194189 C111.3006,32.555821 112.314841,33.6100174 114.522137,34.1200837 L116.353922,34.5451389 C117.138563,34.7321929 117.531242,35.0382475 117.531242,35.5313562 C117.531242,36.1604974 116.991219,36.551563 115.961243,36.551563 C114.65303,36.551563 113.802584,35.9394538 113.623054,34.9192469 L110.859284,34.9192469 C110.973726,36.262466 111.513748,37.2826729 112.445734,37.9797931 C113.377719,38.6599558 114.522137,39 115.879703,39 C117.269456,39 118.397423,38.6599558 119.231418,37.9968251 C120.065412,37.3166624 120.490993,36.3984985 120.490993,35.2423335 C120.490993,33.3549099 119.345859,32.47081 117.138563,31.9437118 L115.585016,31.5696037 C114.718119,31.3655921 114.309705,31.093527 114.309705,30.4814178 C114.309705,29.7502336 114.931267,29.3251784 115.896154,29.3251784 C116.926131,29.3251784 117.531242,29.818287 117.694321,30.7874724 L120.474542,30.7874724 C120.343649,29.3081464 119.624096,28.2369924 118.642758,27.6928623 C117.67787,27.1657641 116.713698,26.9447205 115.715908,26.9447205 Z M125,27.1997536 L122.236946,27.1997536 L122.236946,38.7619988 L125,38.7619988 L125,27.1997536 Z" id="Shape"></path>
        </g>
    </g>
</svg>