<svg width="170" height="53" viewBox="0 0 170 53" fill="none" xmlns="http://www.w3.org/2000/svg">
<path fill-rule="evenodd" clip-rule="evenodd" d="M23.2859 6.59377C24.6459 6.95371 26.3044 7.57554 26.9707 7.97548L28.1822 8.70267L26.6389 10.3084C25.0997 11.9094 25.0908 11.9125 23.7833 11.2119C21.7471 10.121 17.0452 10.2422 14.4291 11.4528C9.89685 13.55 7.28847 17.6788 7.3092 22.7214C7.32402 26.2404 8.38566 28.7475 10.8857 31.166C11.9033 32.1504 16.8021 36.0719 21.7722 39.8798L30.8084 46.8034L41.1987 38.9755C52.3235 30.5941 53.4558 29.4205 54.4409 25.2492C55.3683 21.3225 54.3308 17.53 51.4659 14.3723C48.9608 11.6114 46.4607 10.4899 42.7903 10.4809C38.2813 10.4693 36.7058 11.4054 30.0574 18.0456L24.3767 23.7196V26.4403V29.1612H30.9379H37.4991V26.4881C37.4991 23.9049 37.436 23.7501 35.6192 21.8652L33.7393 19.9154L34.9783 18.5178C35.6598 17.7489 36.3688 17.1202 36.5538 17.1202C36.7392 17.1202 37.9799 18.2387 39.3112 19.6054L41.7321 22.0906V27.7834V33.4762L31.0437 33.3614L20.3554 33.2466L20.2462 27.8711L20.1365 22.4957L26.5957 15.7613C33.2284 8.84499 34.831 7.64994 38.9806 6.52368C50.759 3.32765 61.9257 15.3205 58.3073 27.2807C56.8164 32.2102 55.4356 33.6039 42.4741 43.2686L30.7635 52L20.4798 44.1742C8.51097 35.0665 6.57817 33.299 4.76348 29.8063C4.76348 29.8063 3 26.9611 3 22.7214C3 18.9358 4.38378 16.0795 4.38378 16.0795C6.45838 11.5095 10.6076 7.83744 15.0641 6.62774C18.1081 5.80165 20.2584 5.79261 23.2859 6.59377Z" fill="#D84D64"/>
<path d="M79.4624 18.2778C81.0774 17.7222 82.1265 15.9444 82.1265 14.1389C82.1265 11.0278 79.6888 9.11109 75.5228 9.11109H66V28H76.0895C80.3694 28 82.9766 25.9444 82.9766 22.75C82.9766 20.6111 81.7299 18.75 79.4624 18.2778ZM70.7897 12.9445H74.7578C76.6281 12.9445 77.5632 13.5555 77.5632 14.7778C77.5632 16.0278 76.543 16.8056 74.7578 16.8056H70.7897V12.9445ZM70.7897 24.1111V20.3889H75.5509C77.3931 20.3889 78.3001 20.9722 78.3001 22.1389C78.3001 23.3333 77.3368 24.1111 75.4377 24.1111H70.7897ZM97.9995 24.75L99.3031 28H104.405L96.2424 9H91.651L83.4603 28H88.5615L89.8369 24.75H97.9995ZM96.4126 20.75H91.4239L93.9186 14.4722L96.4126 20.75ZM120.749 23.8611H111.227V9.11109H106.437V28H120.749V23.8611ZM136.195 24.75L137.498 28H142.599L134.437 9H129.846L121.655 28H126.757L128.032 24.75H136.195ZM134.607 20.75H129.619L132.113 14.4722L134.607 20.75ZM159.347 9.11109H154.047L149.313 17.3334L144.609 9.11109H139.309L146.933 22.3055V28H151.751V22.3055L159.347 9.11109ZM166 9.11109H161.21V28H166V9.11109Z" fill="#221A52"/>
<path d="M77.4275 33.1998H74.3862L71.2137 41.0382L68.0414 33.1998H65L69.8238 44.83H72.62L77.4275 33.1998ZM79.9502 32.0945C80.8006 32.0945 81.4873 31.4314 81.4873 30.5473C81.4873 29.6631 80.8006 29 79.9502 29C79.0833 29 78.3966 29.6631 78.3966 30.5473C78.3966 31.4314 79.0833 32.0945 79.9502 32.0945ZM81.3399 33.1998H78.5762V44.762H81.3399V33.1998ZM91.561 42.2285H86.0664V33.1998H83.3033V44.762H91.561V42.2285ZM101.126 42.2285H95.6316V33.1998H92.8685V44.762H101.126V42.2285ZM110.037 42.7726L110.789 44.762H113.733L109.023 33.1318H106.374L101.648 44.762H104.592L105.328 42.7726H110.037ZM109.121 40.3241H106.244L107.682 36.4814L109.121 40.3241ZM118.716 32.9447C117.391 32.9447 116.328 33.2848 115.511 33.982C114.71 34.662 114.301 35.5802 114.301 36.7194C114.301 38.5558 115.315 39.61 117.522 40.1201L119.354 40.5451C120.139 40.7322 120.531 41.0382 120.531 41.5314C120.531 42.1605 119.991 42.5516 118.961 42.5516C117.653 42.5516 116.803 41.9395 116.623 40.9192H113.859C113.974 42.2625 114.514 43.2827 115.446 43.9798C116.378 44.66 117.522 45 118.88 45C120.269 45 121.397 44.66 122.231 43.9968C123.065 43.3167 123.491 42.3985 123.491 41.2423C123.491 39.3549 122.346 38.4708 120.139 37.9437L118.585 37.5696C117.718 37.3656 117.31 37.0935 117.31 36.4814C117.31 35.7502 117.931 35.3252 118.896 35.3252C119.926 35.3252 120.531 35.8183 120.694 36.7875H123.475C123.344 35.3081 122.624 34.237 121.643 33.6929C120.678 33.1658 119.714 32.9447 118.716 32.9447ZM128 33.1998H125.237V44.762H128V33.1998Z" fill="#221A52"/>
</svg>
