<svg width="100" height="124" viewBox="0 0 100 124" fill="none" xmlns="http://www.w3.org/2000/svg">
<g clip-path="url(#clip0_212_288)">
<path d="M61.8105 76.3132C61.8105 66.5958 69.6881 58.7183 79.4055 58.7183C89.1229 58.7183 97.0005 66.5958 97.0005 76.3132C97.0005 86.0307 89.1229 93.9082 79.4055 93.9082C69.6881 93.9082 61.8105 86.0307 61.8105 76.3132Z" stroke="#221A52" stroke-width="5.93185"/>
<path d="M3.16211 46.9878C3.16211 56.7052 11.0396 64.5828 20.7571 64.5828C30.4745 64.5828 38.352 56.7052 38.352 46.9878C38.352 37.2704 30.4745 29.3928 20.7571 29.3928C11.0396 29.3928 3.16211 37.2704 3.16211 46.9878Z" stroke="#221A52" stroke-width="5.93185"/>
<path d="M20.7578 67.5125V96.8373M20.7578 114.433V120.298" stroke="#221A52" stroke-width="5.93185" stroke-linecap="round"/>
<path d="M79.4043 55.7853V26.4605M79.4043 8.86511V3" stroke="#221A52" stroke-width="5.93185" stroke-linecap="round"/>
<path d="M79.4043 120.301V96.8408" stroke="#221A52" stroke-width="5.93185" stroke-linecap="round"/>
<path d="M20.7578 3V26.46" stroke="#221A52" stroke-width="5.93185" stroke-linecap="round"/>
<path d="M20.7321 55.6564C25.4415 55.6564 29.2591 51.8387 29.2591 47.1293C29.2591 42.42 25.4415 38.6023 20.7321 38.6023C16.0228 38.6023 12.2051 42.42 12.2051 47.1293C12.2051 51.8387 16.0228 55.6564 20.7321 55.6564Z" fill="#E8435E"/>
</g>
<defs>
<clipPath id="clip0_212_288">
<rect width="100" height="124" fill="white"/>
</clipPath>
</defs>
</svg>
