<svg width="40" height="40" viewBox="0 0 40 40" fill="none" xmlns="http://www.w3.org/2000/svg">
<g clip-path="url(#clip0_239_344)">
<mask id="mask0_239_344" style="mask-type:luminance" maskUnits="userSpaceOnUse" x="0" y="0" width="40" height="40">
<path d="M40 0H0V40H40V0Z" fill="white"/>
</mask>
<g mask="url(#mask0_239_344)">
<mask id="mask1_239_344" style="mask-type:luminance" maskUnits="userSpaceOnUse" x="0" y="0" width="40" height="40">
<path d="M40 0H0V40H40V0Z" fill="white"/>
</mask>
<g mask="url(#mask1_239_344)">
<mask id="mask2_239_344" style="mask-type:luminance" maskUnits="userSpaceOnUse" x="0" y="0" width="40" height="40">
<path d="M0 0H40V40H0V0Z" fill="white"/>
</mask>
<g mask="url(#mask2_239_344)">
<path d="M36 4H34V2C34 0.8 33.2 0 32 0C30.8 0 30 0.8 30 2V4H10V2C10 0.8 9.2 0 8 0C6.8 0 6 0.8 6 2V4H2C1 4 0 4.8 0 6V34C0 35.2 1 36 2 36H14.2C12.8 33.6 12 30.8 12 28C12 19.2 19.2 12 28 12C31.8 12 35.2 13.4 38 15.6V6C38 5 37 4 36 4Z" fill="white"/>
<path d="M28 16C21.4 16 16 21.4 16 28C16 34.6 21.4 40 28 40C34.6 40 40 34.6 40 28C40 21.4 34.6 16 28 16ZM32 30H28C26.8 30 26 29.2 26 28V22C26 20.8 26.8 20 28 20C29.2 20 30 20.8 30 22V26H32C33.2 26 34 26.8 34 28C34 29.2 33.2 30 32 30Z" fill="#E8435E"/>
</g>
</g>
</g>
</g>
<defs>
<clipPath id="clip0_239_344">
<rect width="40" height="40" fill="white"/>
</clipPath>
</defs>
</svg>
