<svg width="28" height="28" viewBox="0 0 28 28" fill="none" xmlns="http://www.w3.org/2000/svg">
<g clip-path="url(#clip0_212_248)">
<path d="M19.4528 22.638C18.6365 22.638 17.8389 22.3084 17.2592 21.7302C17.0539 21.5254 16.8091 21.3982 16.6203 21.3982C16.4301 21.3982 16.1843 21.5254 15.9791 21.7302C15.4068 22.3011 14.6165 22.6319 13.8107 22.6378C13.8035 22.6379 13.7961 22.6379 13.7889 22.6379C12.9755 22.6379 12.1788 22.3078 11.5997 21.7301C11.4229 21.5538 11.189 21.4524 10.9579 21.4521C10.9575 21.4521 10.957 21.4521 10.9566 21.4521C10.7256 21.4521 10.4995 21.5508 10.3196 21.7302C9.73251 22.3159 8.91991 22.6444 8.09141 22.6378C7.29402 22.6292 6.50993 22.2984 5.94027 21.7302C5.7632 21.5535 5.52976 21.4522 5.29966 21.4521C5.29983 21.4521 5.29956 21.4521 5.29966 21.4521C5.05992 21.4521 4.83068 21.5495 4.65486 21.7265C4.07128 22.3142 3.29922 22.6379 2.48069 22.6379C2.47999 22.6379 2.47945 22.6379 2.47875 22.6379C1.67074 22.6374 0.902879 22.315 0.316662 21.7301C-0.104782 21.3096 -0.10559 20.6271 0.314938 20.2056C0.735465 19.7841 1.418 19.7833 1.83945 20.2038C2.0164 20.3804 2.24989 20.4817 2.48015 20.4819C2.7199 20.4819 2.94925 20.3844 3.12507 20.2074C3.70864 19.6197 4.48076 19.2961 5.29929 19.2961H5.30074C6.1087 19.2964 6.87662 19.6188 7.46299 20.2038C7.63499 20.3754 7.87862 20.4794 8.11459 20.4819C8.11756 20.482 8.12052 20.482 8.12354 20.482C8.36722 20.482 8.62443 20.3759 8.79691 20.2038C9.38512 19.6171 10.1527 19.2946 10.9614 19.2961C11.7578 19.2973 12.5455 19.6282 13.1224 20.2038C13.2947 20.3756 13.5497 20.4819 13.7892 20.4819H13.7951C14.0329 20.4801 14.2862 20.3736 14.4564 20.2038C15.0691 19.5927 15.8578 19.2422 16.6203 19.2422C17.3815 19.2422 18.1694 19.5927 18.7819 20.2038C18.9545 20.3759 19.2109 20.482 19.4534 20.482C19.4567 20.482 19.4599 20.482 19.4631 20.482C19.7001 20.4792 19.9441 20.3752 20.1159 20.2038C20.7285 19.5927 21.5188 19.2422 22.2841 19.2422C23.0536 19.2422 23.8197 19.5837 24.4414 20.2038C24.6133 20.3754 24.8719 20.4819 25.1162 20.4819C25.3464 20.4818 25.5805 20.3804 25.7575 20.2038C26.179 19.7834 26.8616 19.7842 27.282 20.2057C27.7025 20.6272 27.7017 21.3097 27.2802 21.7302C26.7024 22.3066 25.9144 22.6374 25.1182 22.6379C25.1175 22.6379 25.1169 22.6379 25.1163 22.6379C24.298 22.6379 23.4972 22.3071 22.9188 21.7302C22.7135 21.5254 22.4704 21.3982 22.2843 21.3982C22.0943 21.3982 21.8408 21.5285 21.6386 21.7302C21.0699 22.2976 20.2862 22.6284 19.4886 22.6378C19.4767 22.638 19.4647 22.638 19.4528 22.638ZM19.4886 17.4634C20.2862 17.454 21.0698 17.1231 21.6385 16.5558C21.8408 16.3541 22.0941 16.2238 22.2842 16.2238C22.4703 16.2238 22.7135 16.351 22.9187 16.5558C23.4971 17.1327 24.2979 17.4635 25.1162 17.4635H25.1181C25.9143 17.463 26.7024 17.1322 27.2801 16.5558C27.7016 16.1354 27.7024 15.4528 27.282 15.0313C26.8615 14.6098 26.179 14.6089 25.7575 15.0294C25.5805 15.206 25.3469 15.3074 25.1167 15.3075C25.1169 15.3075 25.1165 15.3075 25.1167 15.3075C24.8724 15.3075 24.6133 15.2009 24.4413 15.0294C23.8196 14.4093 23.0535 14.0678 22.284 14.0678C21.5188 14.0678 20.7285 14.4183 20.1158 15.0294C19.944 15.2008 19.7 15.3048 19.4631 15.3076C19.4598 15.3076 19.4566 15.3076 19.4533 15.3076C19.2109 15.3076 18.9544 15.2015 18.7819 15.0294C18.1693 14.4183 17.3815 14.0678 16.6203 14.0678C15.8578 14.0678 15.069 14.4183 14.4564 15.0294C14.2862 15.1992 14.0329 15.3057 13.7951 15.3075C13.7931 15.3075 13.7911 15.3075 13.7892 15.3075C13.5497 15.3075 13.2947 15.2012 13.1224 15.0294C12.5454 14.4538 11.7578 14.1229 10.9614 14.1217C10.9598 14.1217 10.9581 14.1217 10.9565 14.1217C10.1507 14.1217 9.38383 14.4439 8.79686 15.0294C8.62438 15.2015 8.36711 15.3076 8.12348 15.3076C8.12047 15.3076 8.1175 15.3076 8.11454 15.3075C7.87856 15.305 7.63499 15.201 7.46294 15.0294C6.87656 14.4444 6.10865 14.122 5.30069 14.1217C5.30015 14.1217 5.29966 14.1217 5.29923 14.1217C4.48071 14.1217 3.70859 14.4453 3.12501 15.033C2.94919 15.21 2.72039 15.3075 2.48064 15.3075C2.4808 15.3075 2.48042 15.3075 2.48064 15.3075C2.25043 15.3073 2.01635 15.206 1.83939 15.0294C1.41795 14.6089 0.735412 14.6097 0.314884 15.0312C-0.105644 15.4527 -0.104835 16.1352 0.316609 16.5557C0.902825 17.1406 1.67068 17.463 2.4787 17.4635H2.48064C3.29917 17.4635 4.07123 17.1398 4.6548 16.5521C4.83063 16.3751 5.05943 16.2777 5.29918 16.2777C5.52928 16.2778 5.76315 16.3791 5.94021 16.5558C6.50988 17.124 7.29396 17.4549 8.09136 17.4634C8.91986 17.4713 9.73245 17.1415 10.3195 16.5558C10.4994 16.3763 10.7256 16.2777 10.9566 16.2777H10.9579C11.1889 16.278 11.4229 16.3794 11.5997 16.5557C12.1787 17.1334 12.9754 17.4635 13.7888 17.4635C13.7961 17.4635 13.8034 17.4635 13.8107 17.4634C14.6164 17.4575 15.4067 17.1267 15.979 16.5558C16.1843 16.351 16.43 16.2238 16.6202 16.2238C16.8091 16.2238 17.0539 16.351 17.2592 16.5558C17.8389 17.134 18.6365 17.4636 19.4528 17.4636C19.4647 17.4636 19.4767 17.4636 19.4886 17.4634ZM19.4886 27.5966C20.2862 27.5872 21.0698 27.2563 21.6385 26.689C21.8408 26.4873 22.0941 26.357 22.2842 26.357C22.4703 26.357 22.7135 26.4842 22.9187 26.689C23.4971 27.2659 24.2979 27.5967 25.1162 27.5967H25.1181C25.9143 27.5962 26.7024 27.2654 27.2801 26.689C27.7016 26.2686 27.7024 25.586 27.282 25.1645C26.8615 24.743 26.179 24.7422 25.7575 25.1626C25.5805 25.3392 25.3469 25.4406 25.1167 25.4407C25.1169 25.4407 25.1165 25.4407 25.1167 25.4407C24.8724 25.4407 24.6133 25.3341 24.4413 25.1626C23.8196 24.5425 23.0535 24.201 22.284 24.201C21.5188 24.201 20.7285 24.5515 20.1158 25.1626C19.944 25.334 19.7 25.438 19.4631 25.4408C19.4598 25.4408 19.4566 25.4408 19.4533 25.4408C19.2109 25.4408 18.9544 25.3347 18.7819 25.1626C18.1693 24.5515 17.3815 24.201 16.6203 24.201C15.8578 24.201 15.069 24.5515 14.4564 25.1626C14.2862 25.3324 14.0329 25.4389 13.7951 25.4407C13.7931 25.4407 13.7911 25.4407 13.7892 25.4407C13.5497 25.4407 13.2947 25.3344 13.1224 25.1626C12.5454 24.587 11.7578 24.2561 10.9614 24.2549C10.9598 24.2549 10.9581 24.2549 10.9565 24.2549C10.1507 24.2549 9.38383 24.5771 8.79686 25.1626C8.62438 25.3347 8.36711 25.4408 8.12348 25.4408C8.12047 25.4408 8.1175 25.4408 8.11454 25.4407C7.87856 25.4382 7.63499 25.3342 7.46294 25.1626C6.87656 24.5776 6.10865 24.2552 5.30069 24.2549C5.30015 24.2549 5.29966 24.2549 5.29923 24.2549C4.48071 24.2549 3.70859 24.5785 3.12501 25.1662C2.94919 25.3432 2.72039 25.4407 2.48064 25.4407C2.4808 25.4407 2.48042 25.4407 2.48064 25.4407C2.25043 25.4405 2.01635 25.3392 1.83939 25.1626C1.41795 24.7421 0.735412 24.7429 0.314884 25.1644C-0.105644 25.5859 -0.104835 26.2684 0.316609 26.6889C0.902825 27.2738 1.67068 27.5962 2.4787 27.5967H2.48064C3.29917 27.5967 4.07123 27.273 4.6548 26.6853C4.83063 26.5083 5.05943 26.4109 5.29918 26.4109C5.52928 26.411 5.76315 26.5123 5.94021 26.689C6.50988 27.2572 7.29396 27.5881 8.09136 27.5966C8.91986 27.6034 9.73245 27.2747 10.3195 26.689C10.4994 26.5095 10.7256 26.4109 10.9566 26.4109H10.9579C11.1889 26.4112 11.4229 26.5126 11.5997 26.6889C12.1787 27.2666 12.9754 27.5967 13.7888 27.5967C13.7961 27.5967 13.8034 27.5967 13.8107 27.5966C14.6164 27.5907 15.4067 27.2599 15.979 26.689C16.1843 26.4842 16.43 26.357 16.6202 26.357C16.8091 26.357 17.0539 26.4842 17.2592 26.689C17.8389 27.2672 18.6365 27.5968 19.4528 27.5968C19.4647 27.5968 19.4767 27.5968 19.4886 27.5966ZM27.5968 7.54602C27.5968 6.95064 27.1142 6.46802 26.5188 6.46802H18.4338C17.8384 6.46802 17.3558 6.95064 17.3558 7.54602C17.3558 8.1414 17.8384 8.62402 18.4338 8.62402H26.5188C27.1142 8.62402 27.5968 8.1414 27.5968 7.54602ZM4.4198 7.54602C4.4198 6.95064 3.93718 6.46802 3.3418 6.46802H1.078C0.482621 6.46802 0 6.95064 0 7.54602C0 8.1414 0.482621 8.62402 1.078 8.62402H3.3418C3.93718 8.62402 4.4198 8.1414 4.4198 7.54602Z" fill="#221A52"/>
<path d="M10.8878 0H10.3488C9.75342 0 9.27079 0.482621 9.27079 1.078C9.27079 1.67338 9.75342 2.156 10.3488 2.156H10.8878C12.0766 2.156 13.0438 3.12318 13.0438 4.312V6.468H8.7318V4.312C8.7318 1.93436 6.79743 0 4.4198 0H3.8808C3.28542 0 2.8028 0.482621 2.8028 1.078C2.8028 1.67338 3.28542 2.156 3.8808 2.156H4.4198C5.60861 2.156 6.5758 3.12318 6.5758 4.312V11.858C6.5758 12.4534 7.05842 12.936 7.6538 12.936C8.24917 12.936 8.7318 12.4534 8.7318 11.858V8.624H13.0438V11.858C13.0438 12.4534 13.5264 12.936 14.1218 12.936C14.7172 12.936 15.1998 12.4534 15.1998 11.858V4.312C15.1998 1.93436 13.2654 0 10.8878 0Z" fill="#E8435E"/>
</g>
<defs>
<clipPath id="clip0_212_248">
<rect width="28" height="28" fill="white"/>
</clipPath>
</defs>
</svg>
