<?xml version="1.0" encoding="UTF-8"?>
<svg width="29px" height="28px" viewBox="0 0 29 28" version="1.1" xmlns="http://www.w3.org/2000/svg" xmlns:xlink="http://www.w3.org/1999/xlink">
    <title>002-watch-your-children</title>
    <g id="Anasayfa" stroke="none" stroke-width="1" fill="none" fill-rule="evenodd">
        <g id="Villa-Aciklama" transform="translate(-409.000000, -2108.000000)" fill-rule="nonzero">
            <g id="002-watch-your-children" transform="translate(409.000000, 2108.000000)">
                <path d="M23.6633936,25.2569471 C23.6633936,20.6976 21.7217539,17.787 21.7217539,17.787 L21.7217539,13.7792116 C21.7217539,12.1836638 22.7317321,10.8240363 24.1472539,10.3047098 C23.749957,10.1589642 23.3206974,10.0793 22.8728423,10.0793 L22.1876655,10.0793 C20.1442626,10.0793 18.4877539,11.7358087 18.4877539,13.7792116 L18.4877539,18.326 C18.4877539,18.326 20.4294475,20.6976 20.4294475,25.2569471 C20.4294475,25.9732242 21.0877282,26.5188 21.8040053,26.5188 L23.2565025,26.5188 C23.5849691,26.5188 23.9010387,26.4038313 24.1472539,26.210492 C23.8565712,25.9822794 23.6633936,25.6447576 23.6633936,25.2569471 Z" id="Path" fill="#C6E1F2"></path>
                <g id="Group" transform="translate(0.053900, 0.000000)" fill="#2C318C">
                    <path d="M22.4224539,7.3304 C24.4434344,7.3304 26.0876539,5.6861805 26.0876539,3.6652 C26.0876539,1.6442195 24.4434344,0 22.4224539,0 C20.4014734,0 18.7572539,1.6442195 18.7572539,3.6652 C18.7572539,5.6861805 20.4014195,7.3304 22.4224539,7.3304 Z M22.4224539,2.156 C23.254616,2.156 23.9316539,2.8330379 23.9316539,3.6652 C23.9316539,4.4973621 23.254616,5.1744 22.4224539,5.1744 C21.5902918,5.1744 20.9132539,4.4973621 20.9132539,3.6652 C20.9132539,2.8330379 21.5902379,2.156 22.4224539,2.156 Z" id="Shape"></path>
                    <path d="M22.8189423,9.0013 L22.1337116,9.0013 C19.4991874,9.0013 17.3558,11.1446874 17.3558,13.7792116 L17.3558,18.326 C17.3558,18.5749641 17.4419861,18.8162744 17.5996975,19.008913 C17.6166221,19.0296645 19.2974397,21.196175 19.2974397,25.2569471 C19.2974397,26.5471514 20.3976465,27.5968 21.7499975,27.5968 L23.2025486,27.5968 C24.5548996,27.5968 25.6551064,26.5470975 25.6551064,25.2569471 C25.6551064,21.2536324 27.2869289,19.0943445 27.3553819,19.0059485 C27.5172436,18.812178 27.5968,18.5786832 27.5968,18.326 L27.5968,13.7792116 C27.5968,11.1446874 25.4534665,9.0013 22.8189423,9.0013 L22.8189423,9.0013 Z M25.4408539,17.9809322 C24.8685437,18.8393436 23.4992142,21.3061849 23.4992142,25.2569471 C23.4992142,25.3278795 23.363494,25.4408 23.2026564,25.4408 L21.7501053,25.4408 C21.5892677,25.4408 21.4535475,25.3278795 21.4535475,25.2569471 C21.4535475,21.3061849 20.084218,18.8393436 19.5119078,17.9809322 L19.5119078,13.7792116 C19.5119078,12.3335058 20.6880597,11.1573 22.1338194,11.1573 L22.8190501,11.1573 C24.2647559,11.1573 25.4409617,12.3335058 25.4409617,13.7792116 L25.4409617,17.9809322 L25.4408539,17.9809322 Z" id="Shape"></path>
                    <path d="M2.4787532,22.638 L2.4806936,22.638 C3.299219,22.638 4.0712826,22.3143844 4.6548579,21.7267127 C4.8306797,21.5497051 5.0594313,21.4522 5.2991785,21.4522 L5.2996097,21.4522 C5.5297627,21.4523078 5.7632575,21.5536937 5.9402651,21.730324 C6.5099342,22.2985378 7.2765539,22.638 8.1389539,22.638 C8.956563,22.638 9.7403229,22.3082937 10.3196401,21.7302701 C10.4994505,21.5508909 10.725561,21.4522 10.9565764,21.4522 L10.95787,21.4522 C11.1889932,21.4525773 11.4229731,21.5539632 11.5997112,21.7302701 C12.1839333,22.3130908 12.9905468,22.6439829 13.8106892,22.6378922 C14.6163864,22.6321249 15.4067221,22.3012867 15.9790862,21.7302162 C16.4005303,21.3097423 16.4013388,20.6272066 15.980811,20.2057086 C15.5602832,19.7842106 14.8777475,19.783456 14.4563034,20.2039838 C14.2861411,20.3737149 14.0328111,20.4802752 13.7950043,20.482 C13.79301,20.482 13.7910696,20.482 13.7891292,20.482 C13.5495976,20.482 13.2945967,20.3757631 13.1223323,20.2039299 C12.5453867,19.6283857 11.757746,19.2975475 10.9613735,19.2962 C10.9597026,19.2962 10.9580317,19.2962 10.9563608,19.2962 C10.1505019,19.2962 9.3837205,19.6184681 8.7968034,20.2039838 C8.6222213,20.3781347 8.3624233,20.4856652 8.1144833,20.4820539 C7.8785091,20.4795206 7.634935,20.3754936 7.4628862,20.2039838 C6.8766698,19.619061 6.1087565,19.2966312 5.3007416,19.2962 C5.3001487,19.2962 5.2996636,19.2962 5.2991246,19.2962 C4.4806531,19.2962 3.7085895,19.6198156 3.1250142,20.2074873 C2.9491924,20.3845488 2.7203869,20.482 2.4806397,20.482 C2.480478,20.482 2.4802624,20.482 2.4801007,20.482 C2.2498938,20.4818383 2.0163451,20.3805063 1.8393914,20.2039838 C1.4178934,19.7834021 0.7353577,19.7843184 0.3148838,20.2057086 C-0.105644,20.6271527 -0.1048355,21.3097423 0.3166086,21.7302162 C0.9028789,22.315139 1.6707383,22.6375149 2.4787532,22.638 Z" id="Path"></path>
                    <path d="M17.0817724,25.0191403 C16.8834204,24.4577718 16.2675051,24.1636395 15.7061905,24.3618837 C15.2533227,24.5219128 14.8210986,24.7987971 14.4564112,25.1626221 C14.2862489,25.3323532 14.0328111,25.4389135 13.795166,25.4406922 C13.7932256,25.4406922 13.7912852,25.4406922 13.7893448,25.4406922 C13.5497593,25.4406922 13.2946506,25.3344553 13.1224401,25.162676 C12.5454406,24.5869701 11.757746,24.2561858 10.9614274,24.2548922 C10.1543827,24.2559163 9.3850141,24.5758667 8.7969112,25.1626221 C8.6222752,25.336773 8.3608602,25.4455971 8.114645,25.4407461 C7.878563,25.4382128 7.634935,25.3341858 7.462994,25.1627299 C6.8766159,24.5776454 6.1087026,24.2552156 5.3007416,24.2548922 C5.3001487,24.2548922 5.2996636,24.2548922 5.2991246,24.2548922 C4.4806531,24.2548922 3.7085895,24.5785078 3.1250142,25.1661795 C2.9491924,25.3431871 2.720333,25.4406922 2.4805858,25.4406922 C2.4804241,25.4406922 2.4802624,25.4406922 2.4801007,25.4406922 C2.2498938,25.4405305 2.0163451,25.3391985 1.8393375,25.1626221 C1.4177856,24.7420943 0.7352499,24.7429567 0.3148299,25.1644547 C-0.105644,25.5859527 -0.1048355,26.2684884 0.3166625,26.6889623 C0.9029328,27.2738312 1.6707922,27.5961532 2.4788071,27.5966922 L2.4804241,27.5966922 C3.2990573,27.5966922 4.0712287,27.2730766 4.654804,26.6854049 C4.8306258,26.5083973 5.0594313,26.4108922 5.2992324,26.4108922 L5.2997175,26.4108922 C5.5297627,26.411 5.7631497,26.512332 5.9402112,26.6890162 C6.5098803,27.2571761 7.2765539,27.5968 8.0850539,27.5968 C8.9026091,27.5968 9.7402151,27.2670398 10.3196401,26.6889623 C10.4994505,26.5095831 10.725561,26.4108922 10.9566842,26.4108922 L10.9579778,26.4108922 C11.1890471,26.4112695 11.4229192,26.5126015 11.5997112,26.6889623 C12.1787589,27.2666086 12.9755087,27.5966922 13.789237,27.5966922 C13.7964057,27.5966922 13.8036822,27.5966383 13.810797,27.5965844 C14.6164403,27.5907093 15.4067221,27.2598711 15.9790862,26.6889623 C16.1161539,26.552218 16.2743504,26.4477059 16.4244619,26.3946683 C16.9858304,26.1963702 17.2800705,25.5804549 17.0817724,25.0191403 L17.0817724,25.0191403 Z" id="Path"></path>
                </g>
                <g id="Group" transform="translate(0.000000, 5.443900)" fill="#5DC1B2">
                    <path d="M4.3659539,6.468 C6.1491815,6.468 7.5999539,5.0172276 7.5999539,3.234 C7.5999539,1.4507724 6.1491815,0 4.3659539,0 C2.5827263,0 1.1319539,1.4507724 1.1319539,3.234 C1.1319539,5.0172276 2.5827263,6.468 4.3659539,6.468 Z M4.3659539,2.156 C4.9603631,2.156 5.4439539,2.6395908 5.4439539,3.234 C5.4439539,3.8284092 4.9603631,4.312 4.3659539,4.312 C3.7715447,4.312 3.2879539,3.8284092 3.2879539,3.234 C3.2879539,2.6395908 3.7714908,2.156 4.3659539,2.156 Z" id="Shape"></path>
                    <g transform="translate(0.000000, 7.492100)" id="Path">
                        <g transform="translate(0.000000, 3.934700)">
                            <path d=""></path>
                            <path d=""></path>
                        </g>
                        <g transform="translate(0.053900, 0.000000)">
                            <path d="M7.3901751,1.1586883 C6.6342276,0.4115265 5.6280224,0 4.5568677,0 L4.0133401,0 C2.9421854,0 1.9359802,0.4114726 1.1800327,1.1586883 C0.431739,1.8981963 0.0137445,2.935933 4.83998575e-05,3.9886 C-0.0018326,4.5848418 0.4818121,5.0666 1.0780539,5.0666 L1.079078,5.0666 C1.673595,5.0666 2.1557305,4.583117 2.1560539,3.9886 C2.1560539,2.9780828 2.9892401,2.156 4.0133401,2.156 L4.5568677,2.156 C5.5809677,2.156 6.4141539,2.9780828 6.4141539,3.9886 C6.4141539,4.5888304 6.9046978,5.0744694 7.5067608,5.0664922 C8.1053203,5.0585689 8.5773226,4.5356311 8.5698844,3.9371255 C8.556625,2.88365 8.1389,1.8986814 7.3901751,1.1586883 L7.3901751,1.1586883 Z"></path>
                            <path d="M7.3901751,1.1586883 C6.6342276,0.4115265 5.6280224,0 4.5568677,0 L4.0133401,0 C2.9421854,0 1.9359802,0.4114726 1.1800327,1.1586883 C0.431739,1.8981963 0.0137445,2.935933 4.83998575e-05,3.9886 C-0.0018326,4.5848418 0.4818121,5.0666 1.0780539,5.0666 L1.079078,5.0666 C1.673595,5.0666 2.1557305,4.583117 2.1560539,3.9886 C2.1560539,2.9780828 2.9892401,2.156 4.0133401,2.156 L4.5568677,2.156 C5.5809677,2.156 6.4141539,2.9780828 6.4141539,3.9886 C6.4141539,4.5888304 6.9046978,5.0744694 7.5067608,5.0664922 C8.1053203,5.0585689 8.5773226,4.5356311 8.5698844,3.9371255 C8.556625,2.88365 8.1389,1.8986814 7.3901751,1.1586883 L7.3901751,1.1586883 Z"></path>
                        </g>
                    </g>
                </g>
            </g>
        </g>
    </g>
</svg>