<svg width="29" height="28" viewBox="0 0 29 28" fill="none" xmlns="http://www.w3.org/2000/svg">
<path d="M23.6634 25.2569C23.6634 20.6976 21.7218 17.787 21.7218 17.787V13.7792C21.7218 12.1836 22.7317 10.824 24.1473 10.3047C23.75 10.1589 23.3207 10.0793 22.8729 10.0793H22.1877C20.1443 10.0793 18.4878 11.7358 18.4878 13.7792V18.326C18.4878 18.326 20.4295 20.6976 20.4295 25.2569C20.4295 25.9732 21.0877 26.5188 21.804 26.5188H23.2565C23.585 26.5188 23.901 26.4038 24.1473 26.2105C23.8566 25.9823 23.6634 25.6447 23.6634 25.2569Z" fill="#C6E1F2"/>
<path d="M22.4764 7.3304C24.4973 7.3304 26.1416 5.68618 26.1416 3.6652C26.1416 1.64422 24.4973 0 22.4764 0C20.4554 0 18.8112 1.64422 18.8112 3.6652C18.8112 5.68618 20.4553 7.3304 22.4764 7.3304ZM22.4764 2.156C23.3085 2.156 23.9856 2.83304 23.9856 3.6652C23.9856 4.49736 23.3085 5.1744 22.4764 5.1744C21.6442 5.1744 20.9672 4.49736 20.9672 3.6652C20.9672 2.83304 21.6441 2.156 22.4764 2.156Z" fill="#221A52"/>
<path d="M22.8728 9.00128H22.1876C19.5531 9.00128 17.4097 11.1447 17.4097 13.7792V18.326C17.4097 18.5749 17.4959 18.8163 17.6536 19.0089C17.6705 19.0296 19.3513 21.1962 19.3513 25.2569C19.3513 26.5471 20.4515 27.5968 21.8039 27.5968H23.2564C24.6088 27.5968 25.709 26.5471 25.709 25.2569C25.709 21.2536 27.3408 19.0943 27.4093 19.0059C27.5711 18.8122 27.6507 18.5787 27.6507 18.326V13.7792C27.6507 11.1447 25.5074 9.00128 22.8728 9.00128ZM25.4948 17.9809C24.9224 18.8393 23.5531 21.3062 23.5531 25.2569C23.5531 25.3279 23.4174 25.4408 23.2566 25.4408H21.804C21.6432 25.4408 21.5074 25.3279 21.5074 25.2569C21.5074 21.3062 20.1381 18.8393 19.5658 17.9809V13.7792C19.5658 12.3335 20.742 11.1573 22.1877 11.1573H22.8729C24.3187 11.1573 25.4949 12.3335 25.4949 13.7792L25.4948 17.9809Z" fill="#221A52"/>
<path d="M2.53264 22.638H2.53458C3.35311 22.638 4.12517 22.3144 4.70875 21.7267C4.88457 21.5497 5.11332 21.4522 5.35307 21.4522C5.58322 21.4523 5.81715 21.5537 5.99415 21.7303C6.56382 22.2985 7.33044 22.638 8.19284 22.638C9.01045 22.638 9.79421 22.3083 10.3735 21.7303C10.5533 21.5509 10.7794 21.4522 11.0105 21.4522H11.0118C11.2429 21.4526 11.4769 21.554 11.6536 21.7303C12.2378 22.3131 13.0444 22.644 13.8646 22.6379C14.6703 22.6321 15.4606 22.3013 16.033 21.7302C16.4544 21.3097 16.4552 20.6272 16.0347 20.2057C15.6142 19.7842 14.9316 19.7835 14.5102 20.204C14.34 20.3737 14.0867 20.4803 13.8489 20.482C13.8469 20.482 13.845 20.482 13.843 20.482C13.6035 20.482 13.3485 20.3758 13.1762 20.2039C12.5993 19.6284 11.8116 19.2976 11.0153 19.2962C11.0136 19.2962 11.0119 19.2962 11.0102 19.2962C10.2044 19.2962 9.43761 19.6185 8.85069 20.204C8.67611 20.3781 8.41631 20.4857 8.16837 20.4821C7.9324 20.4795 7.68882 20.3755 7.51677 20.204C6.93056 19.6191 6.16264 19.2966 5.35463 19.2962C5.35404 19.2962 5.35355 19.2962 5.35301 19.2962C4.53454 19.2962 3.76248 19.6198 3.1789 20.2075C3.00308 20.3846 2.77427 20.482 2.53453 20.482C2.53469 20.482 2.53437 20.482 2.53453 20.482C2.30432 20.4818 2.07023 20.3805 1.89328 20.204C1.47178 19.7834 0.789246 19.7843 0.368772 20.2057C-0.051756 20.6272 -0.0509475 21.3097 0.370497 21.7302C0.956767 22.3151 1.72463 22.6375 2.53264 22.638Z" fill="#221A52"/>
<path d="M17.1357 25.0191C16.9373 24.4578 16.3214 24.1636 15.7601 24.3619C15.3072 24.5219 14.875 24.7988 14.5103 25.1626C14.3401 25.3323 14.0867 25.4389 13.8491 25.4407C13.8471 25.4407 13.8452 25.4407 13.8432 25.4407C13.6036 25.4407 13.3485 25.3344 13.1763 25.1627C12.5993 24.587 11.8116 24.2562 11.0153 24.2549C10.2083 24.2559 9.4389 24.5759 8.8508 25.1626C8.67616 25.3368 8.41475 25.4456 8.16853 25.4407C7.93245 25.4382 7.68882 25.3342 7.51688 25.1627C6.9305 24.5776 6.16259 24.2552 5.35463 24.2549C5.35404 24.2549 5.35355 24.2549 5.35301 24.2549C4.53454 24.2549 3.76248 24.5785 3.1789 25.1662C3.00308 25.3432 2.77422 25.4407 2.53447 25.4407C2.53464 25.4407 2.53431 25.4407 2.53447 25.4407C2.30427 25.4405 2.07023 25.3392 1.89323 25.1626C1.47167 24.7421 0.789138 24.7429 0.368718 25.1644C-0.0517559 25.5859 -0.0509474 26.2685 0.370551 26.689C0.956821 27.2738 1.72468 27.5961 2.5327 27.5967H2.53431C3.35295 27.5967 4.12512 27.2731 4.70869 26.6854C4.88451 26.5084 5.11332 26.4109 5.35312 26.4109C5.58317 26.411 5.81704 26.5123 5.9941 26.689C6.56377 27.2572 7.33044 27.5968 8.13894 27.5968C8.9565 27.5968 9.7941 27.267 10.3735 26.689C10.5533 26.5096 10.7794 26.4109 11.0106 26.4109H11.0119C11.2429 26.4113 11.4768 26.5126 11.6536 26.689C12.2326 27.2666 13.0294 27.5967 13.8431 27.5967C13.8503 27.5967 13.8576 27.5966 13.8647 27.5966C14.6703 27.5907 15.4606 27.2599 16.033 26.689C16.17 26.5522 16.3282 26.4477 16.4783 26.3947C17.0397 26.1964 17.334 25.5804 17.1357 25.0191Z" fill="#221A52"/>
<path d="M4.36596 11.9119C6.14919 11.9119 7.59996 10.4611 7.59996 8.67791C7.59996 6.89468 6.14919 5.44391 4.36596 5.44391C2.58273 5.44391 1.13196 6.89468 1.13196 8.67791C1.13196 10.4611 2.58273 11.9119 4.36596 11.9119ZM4.36596 7.59991C4.96037 7.59991 5.44396 8.0835 5.44396 8.67791C5.44396 9.27232 4.96037 9.75591 4.36596 9.75591C3.77155 9.75591 3.28796 9.27232 3.28796 8.67791C3.28796 8.0835 3.77149 7.59991 4.36596 7.59991Z" fill="#E8435E"/>
<path d="M7.44403 14.0947C6.68808 13.3476 5.68187 12.936 4.61072 12.936H4.06719C2.99604 12.936 1.98983 13.3475 1.23388 14.0947C0.48559 14.8342 0.0675956 15.872 0.0538995 16.9246C0.0520185 17.5209 0.535663 18.0026 1.13191 18.0026H1.13293C1.72745 18.0026 2.20958 17.5192 2.2099 16.9246C2.2099 15.9141 3.04309 15.092 4.06719 15.092H4.61072C5.63482 15.092 6.46801 15.9141 6.46801 16.9246C6.46801 17.5249 6.95855 18.0105 7.56061 18.0025C8.15917 17.9946 8.63117 17.4717 8.62374 16.8732C8.61048 15.8197 8.19275 14.8347 7.44403 14.0947Z" fill="#E8435E"/>
<path d="M7.44403 14.0947C6.68808 13.3476 5.68187 12.936 4.61072 12.936H4.06719C2.99604 12.936 1.98983 13.3475 1.23388 14.0947C0.48559 14.8342 0.0675956 15.872 0.0538995 16.9246C0.0520185 17.5209 0.535663 18.0026 1.13191 18.0026H1.13293C1.72745 18.0026 2.20958 17.5192 2.2099 16.9246C2.2099 15.9141 3.04309 15.092 4.06719 15.092H4.61072C5.63482 15.092 6.46801 15.9141 6.46801 16.9246C6.46801 17.5249 6.95855 18.0105 7.56061 18.0025C8.15917 17.9946 8.63117 17.4717 8.62374 16.8732C8.61048 15.8197 8.19275 14.8347 7.44403 14.0947Z" fill="#E8435E"/>
</svg>
