<svg width="29" height="29" viewBox="0 0 29 29" fill="none" xmlns="http://www.w3.org/2000/svg">
<g clip-path="url(#clip0_212_254)">
<path d="M4.49972 23.1286V11.9011C4.49972 9.42072 6.51435 7.41016 8.99943 7.41016H5.62465C3.13957 7.41016 1.12494 9.42072 1.12494 11.9011V23.1286C1.12494 25.6089 3.13957 27.6196 5.62465 27.6196H8.99943C6.51435 27.6196 4.49972 25.6089 4.49972 23.1286Z" fill="#CEE1F2"/>
<path d="M23.1735 6.28738H20.0237V3.36824C20.0237 2.74916 20.5284 2.24549 21.1486 2.24549C21.7689 2.24549 22.2736 2.74916 22.2736 3.36824C22.2736 3.98833 22.7772 4.49099 23.3985 4.49099C24.0198 4.49099 24.5234 3.98833 24.5234 3.36824C24.5234 1.51099 23.0095 0 21.1486 0C19.2878 0 17.7739 1.51099 17.7739 3.36824V14.1466C17.7739 14.7667 18.2775 15.2694 18.8988 15.2694C19.5201 15.2694 20.0237 14.7667 20.0237 14.1466V8.53288H23.1735C25.0344 8.53288 26.5483 10.0439 26.5483 11.9011V23.1286C26.5483 24.9858 25.0344 26.4968 23.1735 26.4968H5.62464C3.76378 26.4968 2.24986 24.9858 2.24986 23.1286V11.9011C2.24986 10.0439 3.76378 8.53288 5.62464 8.53288H8.77444V14.1466C8.77444 14.7667 9.27807 15.2694 9.89936 15.2694C10.5207 15.2694 11.0243 14.7667 11.0243 14.1466V13.0239H14.3991C15.0204 13.0239 15.524 12.5212 15.524 11.9011C15.524 11.281 15.0204 10.7784 14.3991 10.7784H11.0243V8.53288H14.3991C15.0204 8.53288 15.524 8.03022 15.524 7.41013C15.524 6.79004 15.0204 6.28738 14.3991 6.28738H11.0243V3.36824C11.0243 2.74916 11.5289 2.24549 12.1492 2.24549C12.7695 2.24549 13.2741 2.74916 13.2741 3.36824C13.2741 3.98833 13.7778 4.49099 14.3991 4.49099C15.0204 4.49099 15.524 3.98833 15.524 3.36824C15.524 1.51099 14.0101 0 12.1492 0C10.2884 0 8.77444 1.51099 8.77444 3.36824V6.28738H5.62464C2.52321 6.28738 0 8.8057 0 11.9011V23.1286C0 26.224 2.52321 28.7423 5.62464 28.7423H23.1735C26.275 28.7423 28.7981 26.224 28.7981 23.1286V11.9011C28.7981 8.8057 26.275 6.28738 23.1735 6.28738Z" fill="#221A52"/>
<path d="M5.60163 22.1639C6.92865 22.1913 7.92275 21.5393 8.64169 20.463C8.93957 20.0169 9.41851 19.7612 9.95555 19.7612C10.4926 19.7612 10.9715 20.017 11.2694 20.463C11.9811 21.5286 13.1722 22.1647 14.4553 22.1647C15.7385 22.1647 16.9294 21.5285 17.6411 20.463C17.939 20.017 18.418 19.7612 18.955 19.7612C19.4921 19.7612 19.9709 20.0171 20.2688 20.4631C21.0171 21.5833 21.9597 22.1396 23.1504 22.1639C23.7739 22.1775 24.2854 21.6843 24.2981 21.0644C24.3109 20.4445 23.8176 19.9316 23.1964 19.9189C22.829 19.9114 22.5242 19.7914 22.1408 19.2175C21.429 18.1519 20.2381 17.5158 18.9549 17.5157C18.955 17.5157 18.9549 17.5157 18.9549 17.5157C17.6718 17.5157 16.4807 18.1519 15.7689 19.2174C15.4711 19.6634 14.9922 19.9192 14.4551 19.9192C13.918 19.9192 13.4392 19.6634 13.1413 19.2174C12.4295 18.1519 11.2385 17.5157 9.95543 17.5157C8.6724 17.5157 7.48132 18.1519 6.76958 19.2174C6.37344 19.8105 6.0345 19.9259 5.64752 19.9189C5.02431 19.9065 4.51253 20.3985 4.49987 21.0184C4.48722 21.6384 4.9805 22.1512 5.60163 22.1639Z" fill="#E8435E"/>
</g>
<defs>
<clipPath id="clip0_212_254">
<rect width="29" height="29" fill="white"/>
</clipPath>
</defs>
</svg>
