<svg width="65" height="53" viewBox="0 0 65 53" fill="none" xmlns="http://www.w3.org/2000/svg">
<g clip-path="url(#clip0_100_133)">
<path fill-rule="evenodd" clip-rule="evenodd" d="M23.2859 6.59377C24.6459 6.95371 26.3044 7.57554 26.9707 7.97548L28.1822 8.70267L26.6389 10.3084C25.0997 11.9094 25.0908 11.9125 23.7833 11.2119C21.7471 10.121 17.0452 10.2422 14.4291 11.4528C9.89685 13.55 7.28847 17.6788 7.3092 22.7214C7.32402 26.2404 8.38566 28.7475 10.8857 31.166C11.9033 32.1504 16.8021 36.0719 21.7722 39.8798L30.8084 46.8034L41.1987 38.9755C52.3235 30.5941 53.4558 29.4205 54.4409 25.2492C55.3683 21.3225 54.3308 17.53 51.4659 14.3723C48.9608 11.6114 46.4607 10.4899 42.7903 10.4809C38.2813 10.4693 36.7058 11.4054 30.0574 18.0456L24.3767 23.7196V26.4403V29.1612H30.9379H37.4991V26.4881C37.4991 23.9049 37.436 23.7501 35.6192 21.8652L33.7393 19.9154L34.9783 18.5178C35.6598 17.7489 36.3688 17.1202 36.5538 17.1202C36.7392 17.1202 37.9799 18.2387 39.3112 19.6054L41.7321 22.0906V27.7834V33.4762L31.0437 33.3614L20.3554 33.2466L20.2462 27.8711L20.1365 22.4957L26.5957 15.7613C33.2284 8.84499 34.831 7.64994 38.9806 6.52368C50.759 3.32765 61.9257 15.3205 58.3073 27.2807C56.8164 32.2102 55.4356 33.6039 42.4741 43.2686L30.7635 52L20.4798 44.1742C8.51097 35.0665 6.57817 33.299 4.76348 29.8063C4.76348 29.8063 3 26.9611 3 22.7214C3 18.9358 4.38378 16.0795 4.38378 16.0795C6.45838 11.5095 10.6076 7.83744 15.0641 6.62774C18.1081 5.80165 20.2584 5.79261 23.2859 6.59377Z" fill="#D84D64"/>
</g>
<defs>
<clipPath id="clip0_100_133">
<rect width="65" height="53" fill="white"/>
</clipPath>
</defs>
</svg>
