<svg width="41" height="41" viewBox="0 0 41 41" fill="none" xmlns="http://www.w3.org/2000/svg">
    <g clip-path="url(#wt3fk5fsma)">
        <path d="M37.556 3.307h-5.952V.854a.854.854 0 0 0-1.708 0v2.453H11.104V.854a.854.854 0 0 0-1.708 0v2.453H3.444A3.447 3.447 0 0 0 0 6.75v30.806A3.448 3.448 0 0 0 3.444 41h34.112A3.447 3.447 0 0 0 41 37.556V6.75a3.448 3.448 0 0 0-3.444-3.443zm1.736 10.25H30.75a.854.854 0 0 0 0 1.709h8.542v22.29a1.738 1.738 0 0 1-1.736 1.736H3.444a1.738 1.738 0 0 1-1.736-1.736v-22.29h8.542a.854.854 0 0 0 0-1.709H1.708V6.75a1.737 1.737 0 0 1 1.736-1.734h5.952v.963a.854.854 0 0 0 1.708 0v-.963h18.792v.963a.854.854 0 0 0 1.708 0v-.963h5.952a1.737 1.737 0 0 1 1.736 1.734v6.807zm-13.944 3.49a.817.817 0 0 0-.673.21.853.853 0 0 0-.287.645c.091 1.3-.151 2.6-.704 3.78a10.73 10.73 0 0 1-1.879-4.945 4.19 4.19 0 0 1 .745-3.337.854.854 0 0 0 .155-.975.873.873 0 0 0-.87-.467 7.25 7.25 0 0 0-5.807 5.653 12.29 12.29 0 0 0-.093 4.983 8.397 8.397 0 0 1-1.793-2.873.855.855 0 0 0-.793-.596.893.893 0 0 0-.82.557c-.085.227-2.05 5.637.54 9.37 1.527 2.197 4.254 3.31 8.106 3.31 6.901 0 7.95-4.907 8.082-7.017.232-3.842-1.738-8.028-3.909-8.297zm2.199 8.187c-.154 2.472-1.386 5.415-6.377 5.415-3.256 0-5.51-.864-6.699-2.562a7.894 7.894 0 0 1-.873-5.68 9.696 9.696 0 0 0 3.374 3.189.855.855 0 0 0 1.159-1.025 12.923 12.923 0 0 1-.458-6.51 6.03 6.03 0 0 1 2.521-3.677 10.834 10.834 0 0 0 .882 6.14c.564 1.34 1.459 2.933 2.516 2.933a1.76 1.76 0 0 0 1.27-.548 6.104 6.104 0 0 0 1.163-3.444 9.499 9.499 0 0 1 1.522 5.769z" fill="#F5841F"/>
    </g>
    <defs>
        <clipPath id="wt3fk5fsma">
            <path fill="#fff" d="M0 0h41v41H0z"/>
        </clipPath>
    </defs>
</svg>
