<svg width="30" height="30" viewBox="0 0 30 30" fill="none" xmlns="http://www.w3.org/2000/svg">
    <g clip-path="url(#id3u14fj1a)">
        <path d="M8.014 27.2c-1.34-1.522-2.68-3.105-3.532-4.993a11.322 11.322 0 0 1-.67-6.516 14.054 14.054 0 0 1 2.801-6.03c-.122 1.523.427 3.107 1.462 4.264-.61-2.924.365-6.09 2.314-8.404 1.949-2.315 4.628-3.837 7.43-4.872-1.401 1.461-1.584 3.775-1.036 5.724.548 1.949 1.705 3.654 2.74 5.42 1.036 1.766 2.01 3.593 2.071 5.603.548-1.036 1.157-2.07 1.523-3.228.365-1.157.548-2.375.243-3.532 1.097 1.34 1.706 2.68 2.01 4.385.304 1.705.244 3.47.061 5.176-.244 1.888-.73 3.837-1.766 5.42-1.218 1.888-3.167 3.228-5.298 3.958-3.776.67-7.49.122-10.353-2.375z" fill="#F3705A"/>
        <path d="M12.642 29.454c4.994 1.948 9.927-3.959 7.186-8.526 0-.061-.06-.061-.06-.122.243 2.497-.366 4.324-1.523 5.36.609-1.462.182-3.168-.548-4.63-.731-1.4-1.766-2.679-2.558-4.018-.792-1.401-1.4-2.985-1.035-4.568-1.462 1.096-2.497 2.74-2.923 4.507-.427 1.766-.183 3.715.609 5.359-.914-.67-1.584-1.766-1.645-2.923-.974 1.157-1.583 2.68-1.522 4.202 0 2.375 1.888 4.506 4.02 5.359z" fill="#FFD15C"/>
    </g>
    <defs>
        <clipPath id="id3u14fj1a">
            <path fill="#fff" transform="translate(0 .649)" d="M0 0h29.189v29.189H0z"/>
        </clipPath>
    </defs>
</svg>
