<svg width="90" height="32" viewBox="0 0 90 32" fill="none" xmlns="http://www.w3.org/2000/svg">
<g clip-path="url(#clip0_70_131)">
<path d="M1.96389 22.624C2.10789 22.512 2.25089 22.448 2.41089 22.384C2.85789 22.192 3.32089 22.032 3.78489 21.904C4.56789 21.696 5.34989 21.536 6.14889 21.408C6.69189 21.312 7.23489 21.248 7.79389 21.168C7.96989 21.152 8.16089 21.136 8.33689 21.12C8.84789 21.056 9.35889 21.024 9.86989 20.976C10.4449 20.912 11.0199 20.88 11.6109 20.848C12.1539 20.816 12.6969 20.784 13.2399 20.752C13.6389 20.736 14.0389 20.72 14.4379 20.704C16.1949 20.64 17.9519 20.656 19.7089 20.688C20.3159 20.704 20.9069 20.752 21.5139 20.832C22.0729 20.912 22.6319 21.024 23.1749 21.152C24.5489 21.472 25.8099 22 26.9759 22.784C27.3109 23.008 27.6469 23.264 27.9339 23.536C27.9819 23.584 28.0139 23.616 28.0619 23.664C28.0939 23.696 28.0779 23.728 28.0459 23.76C28.0299 23.776 28.0139 23.792 27.9979 23.792C27.6629 24.032 27.3269 24.272 26.9759 24.512C26.9599 24.528 26.9439 24.528 26.9439 24.528C26.9119 24.544 26.8799 24.544 26.8479 24.512C26.7039 24.272 26.4809 24.112 26.2249 23.968C25.8739 23.776 25.4899 23.632 25.0909 23.52C24.5159 23.36 23.9249 23.248 23.3179 23.152C22.7749 23.072 22.2159 23.008 21.6729 22.976C21.1939 22.944 20.6989 22.912 20.2199 22.88C19.1339 22.832 18.0479 22.816 16.9459 22.864C16.4989 22.88 16.0679 22.912 15.6199 22.976C15.2369 23.024 14.8529 23.072 14.4699 23.12C14.0549 23.184 13.6389 23.232 13.2239 23.312C12.4249 23.456 11.6429 23.6 10.8439 23.776C9.75789 24.016 8.65589 24.272 7.58589 24.544C6.56389 24.8 5.55789 25.088 4.53489 25.392C4.50289 25.408 4.47089 25.408 4.45489 25.408C4.40689 25.424 4.35889 25.424 4.32689 25.36C4.15089 25.088 3.94389 24.848 3.73589 24.608C3.19289 23.984 2.63389 23.392 2.05889 22.8C2.05889 22.752 1.99589 22.704 1.96389 22.624Z" fill="white"/>
<path d="M15.7961 12.24C15.4291 12.192 15.0771 12.288 14.7421 12.416C14.1031 12.656 13.4481 12.864 12.8091 13.104C12.2661 13.296 11.7071 13.488 11.1641 13.664C10.7011 13.808 10.2381 13.808 9.75906 13.728C9.61506 13.696 9.48806 13.648 9.36006 13.552C9.20006 13.44 9.08906 13.312 9.02506 13.136C8.88106 12.768 8.86506 12.4 8.97706 12.016C9.02506 11.824 9.15306 11.648 9.29606 11.504C9.45606 11.344 9.63106 11.2 9.82306 11.088C10.0631 10.928 10.3021 10.784 10.5421 10.624C11.6601 9.92 12.6341 9.072 13.4811 8.048C13.8481 7.616 14.2481 7.2 14.6791 6.8C14.9351 6.576 15.2061 6.368 15.5101 6.208C15.7341 6.096 15.9571 6.016 16.1971 6.016C16.4851 6 16.7561 6.08 17.0121 6.224C17.2681 6.384 17.4911 6.576 17.6991 6.8C18.0021 7.136 18.2581 7.504 18.5301 7.872C19.3611 9.04 20.1911 10.208 21.0221 11.376C21.2461 11.696 21.4691 12.016 21.6611 12.336C21.7091 12.416 21.7571 12.496 21.8051 12.592C21.9331 12.848 21.9331 13.088 21.8211 13.344C21.7091 13.6 21.5181 13.792 21.2781 13.92C20.9901 14.064 20.6711 14.112 20.3521 14.08C20.0641 14.048 19.7931 13.968 19.5371 13.872C19.0101 13.664 18.4991 13.408 18.0201 13.104C17.7011 12.896 17.3651 12.704 17.0301 12.512C16.9341 12.464 16.8381 12.416 16.7421 12.352C16.5661 12.256 16.3751 12.208 16.1831 12.224C16.0071 12.256 15.8961 12.24 15.8001 12.24H15.7961Z" fill="white"/>
<path d="M26.8801 25.024C26.8641 25.056 26.8481 25.088 26.8321 25.12C26.7201 25.296 26.6081 25.472 26.4971 25.648C26.3851 25.84 26.2731 26.016 26.1461 26.208C26.0981 26.288 26.0661 26.288 25.9861 26.24C25.7461 26.08 25.4911 26 25.2191 25.936C24.6601 25.792 24.0851 25.68 23.5101 25.616C23.0151 25.568 22.5201 25.52 22.0091 25.488C21.6901 25.472 21.3541 25.472 21.0351 25.44C20.5241 25.408 20.0131 25.408 19.5181 25.424C19.0871 25.424 18.6401 25.44 18.2081 25.472C17.4731 25.52 16.7551 25.6 16.0361 25.76C14.6621 26.064 13.2891 26.368 11.9151 26.672C10.8291 26.912 9.7431 27.168 8.6411 27.408C7.7471 27.6 6.8521 27.808 5.9741 28.016C5.9581 28.016 5.9421 28.032 5.9261 28.032C5.8461 28.048 5.8301 28.032 5.7821 27.968C5.6541 27.712 5.5261 27.44 5.3991 27.184C5.2231 26.816 5.0641 26.464 4.8881 26.096C4.8721 26.064 4.8561 26.048 4.8561 26.016C4.8081 25.92 4.8241 25.904 4.9041 25.872C5.0801 25.808 5.2551 25.744 5.4471 25.696C6.4051 25.424 7.3641 25.216 8.3221 25.024C9.1051 24.864 9.8711 24.736 10.6541 24.608C11.2131 24.512 11.7721 24.432 12.3311 24.368C12.8421 24.304 13.3371 24.24 13.8481 24.192C14.4231 24.144 14.9821 24.08 15.5571 24.016C16.0521 23.968 16.5471 23.92 17.0581 23.888C17.4891 23.856 17.9041 23.824 18.3361 23.792C18.9271 23.76 19.5181 23.728 20.1251 23.712C20.5241 23.696 20.9401 23.68 21.3391 23.696C21.8821 23.712 22.4251 23.744 22.9681 23.808C23.6711 23.888 24.3581 24.016 25.0441 24.208C25.6191 24.384 26.1941 24.592 26.7051 24.912C26.7531 24.944 26.7851 24.96 26.8331 24.992C26.8491 24.976 26.8651 24.992 26.8811 25.024H26.8801Z" fill="white"/>
<path d="M14.007 19.248C14.007 19.552 14.007 19.84 14.007 20.144C14.007 20.208 13.991 20.24 13.895 20.24C13.719 20.24 13.544 20.24 13.368 20.24C13.097 20.224 12.841 20.144 12.601 20C12.361 19.856 12.202 19.632 12.154 19.36C12.074 19.024 12.026 18.688 11.994 18.352C11.898 17.664 11.818 16.96 11.738 16.272C11.69 15.808 11.642 15.328 11.594 14.864C11.578 14.736 11.562 14.624 11.562 14.496C11.562 14.432 11.578 14.4 11.642 14.384C11.977 14.24 12.329 14.112 12.68 13.984C13.287 13.76 13.894 13.568 14.533 13.424C15.172 13.264 15.795 13.312 16.418 13.488C17.408 13.776 18.319 14.208 19.181 14.768C19.437 14.928 19.66 15.104 19.884 15.312C20.108 15.52 20.203 15.776 20.203 16.064C20.203 16.48 20.155 16.896 20.091 17.296C19.963 18.128 19.788 18.96 19.596 19.776C19.58 19.824 19.564 19.872 19.564 19.92C19.548 19.984 19.516 20 19.452 20C19.037 20 18.606 20 18.19 20C18.142 20 18.11 19.968 18.11 19.92C18.126 19.68 18.142 19.44 18.158 19.2C18.174 18.944 18.206 18.688 18.222 18.432C18.254 18.128 18.27 17.808 18.302 17.504C18.302 17.44 18.302 17.376 18.286 17.312C18.206 17.008 18.062 16.736 17.855 16.496C17.536 16.128 17.104 15.968 16.625 16C15.938 16.064 15.347 16.336 14.836 16.784C14.469 17.104 14.229 17.504 14.085 17.968C14.037 18.128 14.005 18.272 14.005 18.432C14.005 18.736 14.005 18.992 14.005 19.248H14.007Z" fill="white"/>
<path d="M74.603 18.192C74.635 18.256 74.699 18.272 74.731 18.32C75.194 18.688 75.657 19.072 76.105 19.472C76.568 19.872 77.015 20.272 77.463 20.704C77.591 20.832 77.719 20.96 77.862 21.072C78.07 21.232 78.086 21.6 77.878 21.808C77.782 21.904 77.67 22 77.575 22.08C77.463 22.16 77.335 22.224 77.192 22.224C77.16 22.224 77.128 22.224 77.112 22.224C76.888 22.24 76.729 22.16 76.569 22.016C76.25 21.696 75.914 21.392 75.563 21.104C75.228 20.832 74.908 20.544 74.589 20.272C74.381 20.096 74.174 19.92 73.966 19.76C73.918 19.712 73.854 19.664 73.79 19.648C73.726 19.632 73.646 19.68 73.646 19.744C73.694 20.032 73.646 20.336 73.694 20.64C73.758 21.088 73.838 21.536 73.806 21.984C73.806 22.096 73.774 22.208 73.71 22.32C73.646 22.416 73.566 22.496 73.47 22.528C73.23 22.624 72.975 22.656 72.719 22.592C72.575 22.56 72.479 22.48 72.416 22.336C72.224 21.904 72.097 21.44 72.001 20.976C71.937 20.672 71.905 20.368 71.857 20.08C71.777 19.456 71.761 18.816 71.777 18.192C71.793 17.872 71.809 17.552 71.841 17.232C71.857 17.056 71.873 16.88 71.889 16.704C71.921 16.432 71.953 16.176 71.969 15.904C71.985 15.664 71.985 15.424 71.953 15.184C71.921 14.992 71.921 14.816 71.889 14.624C71.873 14.448 71.841 14.272 71.825 14.08C71.777 13.712 71.729 13.36 71.777 12.992C71.809 12.72 71.857 12.448 71.969 12.192C72.049 12.048 72.145 11.936 72.304 11.856C72.448 11.792 72.591 11.744 72.735 11.728C72.911 11.712 73.086 11.696 73.246 11.728C73.438 11.776 73.613 11.952 73.629 12.144C73.629 12.176 73.629 12.224 73.629 12.256C73.629 13.104 73.645 13.952 73.629 14.784C73.613 15.344 73.613 15.888 73.597 16.448C73.597 16.624 73.629 16.816 73.629 16.992C73.629 17.072 73.677 17.104 73.757 17.12C73.901 17.136 74.029 17.12 74.14 17.024C74.348 16.832 74.571 16.656 74.795 16.48C75.051 16.256 75.338 16.096 75.673 16.032C75.817 16 75.945 16.016 76.088 16.048C76.28 16.08 76.455 16.176 76.615 16.304C76.743 16.416 76.775 16.56 76.711 16.72C76.663 16.848 76.551 16.944 76.439 17.024C76.152 17.2 75.848 17.376 75.561 17.552C75.321 17.68 75.098 17.824 74.874 17.984C74.794 18.048 74.714 18.128 74.634 18.192C74.634 18.144 74.619 18.16 74.603 18.192Z" fill="white"/>
<path d="M57.8811 14.512C57.8811 15.264 57.8811 16.032 57.8811 16.784C57.8811 16.848 57.8811 16.896 57.8811 16.96C57.8811 17.024 57.9131 17.072 57.9931 17.072C58.0731 17.088 58.1531 17.088 58.2331 17.088C58.2811 17.088 58.3131 17.056 58.3451 17.024C58.5691 16.832 58.8081 16.656 59.0321 16.448C59.2081 16.304 59.3831 16.176 59.5911 16.08C60.0381 15.856 60.4691 15.936 60.8691 16.208C60.9971 16.288 61.0451 16.496 60.9811 16.624C60.9171 16.768 60.8211 16.88 60.6781 16.96C60.2791 17.184 59.8951 17.424 59.4961 17.664C59.2881 17.776 59.1131 17.92 58.9371 18.064C58.8251 18.144 58.8251 18.192 58.9371 18.272C59.1611 18.448 59.4001 18.64 59.6241 18.816C59.8801 19.024 60.1191 19.232 60.3751 19.456C60.9021 19.92 61.4291 20.384 61.9241 20.864C62.0041 20.944 62.0841 21.008 62.1641 21.088C62.3561 21.28 62.3561 21.536 62.1801 21.728C62.0681 21.84 61.9561 21.952 61.8291 22.048C61.7171 22.144 61.5731 22.192 61.4301 22.192C61.3661 22.192 61.3181 22.192 61.2541 22.192C61.0941 22.192 60.9661 22.128 60.8711 22.032C60.6471 21.808 60.4081 21.584 60.1681 21.376C59.8011 21.056 59.4331 20.736 59.0501 20.432C58.7621 20.192 58.4751 19.952 58.1881 19.696C58.1401 19.664 58.1081 19.616 58.0441 19.6C57.9641 19.584 57.9001 19.616 57.9161 19.696C57.9161 19.888 57.9001 20.08 57.9321 20.288C57.9801 20.592 57.9961 20.896 58.0441 21.2C58.0761 21.44 58.0761 21.68 58.0921 21.92C58.0921 22.224 57.9161 22.432 57.6451 22.528C57.4371 22.592 57.2141 22.608 57.0061 22.56C56.8621 22.528 56.7661 22.464 56.7181 22.32C56.6381 22.128 56.5581 21.936 56.4941 21.728C56.3501 21.28 56.2541 20.816 56.1911 20.352C56.1591 20.144 56.1431 19.936 56.1271 19.728C56.0631 19.104 56.0791 18.496 56.0951 17.872C56.0951 17.6 56.1431 17.328 56.1591 17.04C56.1751 16.88 56.1911 16.704 56.2071 16.544C56.2391 16.288 56.2711 16.032 56.2871 15.76C56.2871 15.68 56.3031 15.6 56.2871 15.52C56.2551 15.216 56.2391 14.912 56.2071 14.608C56.1751 14.32 56.1111 14.048 56.0951 13.76C56.0631 13.312 56.0471 12.88 56.1751 12.432C56.2071 12.352 56.2231 12.272 56.2711 12.192C56.3671 11.984 56.5271 11.824 56.7341 11.76C57.0061 11.68 57.2771 11.632 57.5651 11.696C57.7411 11.728 57.9001 11.888 57.9161 12.064C57.9161 12.128 57.9161 12.176 57.9161 12.24C57.8841 12.992 57.8841 13.744 57.8841 14.512H57.8811Z" fill="white"/>
<path d="M10.2859 8.03199C10.2859 7.74399 10.3499 7.47199 10.4139 7.18399C10.5739 6.46399 10.8289 5.77599 11.1009 5.08799C11.4519 4.19199 11.8679 3.32799 12.2829 2.46399C12.3469 2.35199 12.4109 2.23999 12.4909 2.12799C12.9059 1.51999 13.4009 0.975988 13.9919 0.527988C14.3589 0.271988 14.7429 0.0959881 15.1899 0.0639881C15.6049 0.0319881 16.0049 0.143988 16.3399 0.399988C16.5479 0.559988 16.6429 0.783988 16.6749 1.03999C16.6909 1.29599 16.6589 1.53599 16.5949 1.77599C16.4669 2.22399 16.2759 2.63999 16.0519 3.03999C15.6209 3.83999 15.0939 4.59199 14.5509 5.31199C14.2479 5.71199 13.9279 6.11199 13.6089 6.51199C13.3059 6.89599 12.9859 7.27999 12.6509 7.63199C12.5869 7.69599 12.5389 7.79199 12.4909 7.87199C12.2829 8.19199 12.0599 8.49599 11.7399 8.70399C11.5639 8.83199 11.3729 8.91199 11.1649 8.92799C10.9889 8.94399 10.8139 8.91199 10.6539 8.83199C10.4459 8.73599 10.3349 8.55999 10.3029 8.33599C10.2869 8.23999 10.2859 8.12799 10.2859 8.03199Z" fill="white"/>
<path d="M7.09106 28.688C7.21906 28.624 7.36206 28.624 7.49006 28.592C7.76106 28.528 8.03306 28.496 8.30506 28.448C8.73606 28.368 9.16706 28.288 9.59906 28.192C10.1261 28.096 10.6371 28 11.1641 27.904C11.7711 27.792 12.3781 27.68 12.9851 27.584C13.5121 27.488 14.0551 27.392 14.5821 27.296C15.0291 27.216 15.4601 27.136 15.9081 27.072C16.3711 26.992 16.8501 26.896 17.3131 26.816C17.7121 26.752 18.1121 26.688 18.5111 26.624C18.8301 26.576 19.1501 26.512 19.4691 26.464C19.7571 26.416 20.0441 26.4 20.3311 26.352C20.6021 26.304 20.8901 26.32 21.1621 26.304C21.4181 26.272 21.6731 26.272 21.9291 26.288C22.3121 26.304 22.6801 26.32 23.0631 26.352C23.5421 26.416 24.0211 26.496 24.4841 26.672C24.8351 26.8 25.1711 26.96 25.4581 27.2C25.7141 27.424 25.6981 27.376 25.4901 27.584C25.1391 27.952 24.8031 28.304 24.4521 28.672C24.4201 28.704 24.4041 28.72 24.3721 28.752C24.2601 28.864 24.2441 28.88 24.1321 28.752C24.0041 28.608 23.8291 28.528 23.6531 28.464C23.3341 28.336 23.0141 28.272 22.6791 28.224C22.1361 28.16 21.6091 28.176 21.0661 28.192C20.8421 28.192 20.6191 28.24 20.3951 28.256C20.2031 28.272 20.0121 28.272 19.8361 28.304C19.5331 28.336 19.2291 28.336 18.9261 28.368C18.5911 28.416 18.2391 28.384 17.9041 28.432C17.8881 28.432 17.8721 28.432 17.8561 28.432C17.5211 28.448 17.1691 28.464 16.8341 28.48C16.4511 28.496 16.0511 28.528 15.6681 28.56C15.6521 28.56 15.6361 28.56 15.6201 28.56C15.3011 28.576 14.9651 28.592 14.6461 28.608C14.4061 28.624 14.1511 28.656 13.9111 28.672C13.8631 28.672 13.8311 28.672 13.7831 28.688C13.4961 28.704 13.2241 28.736 12.9361 28.768C12.7601 28.784 12.5851 28.8 12.4091 28.816C12.1221 28.848 11.8341 28.88 11.5471 28.912C11.2281 28.96 10.9081 29.024 10.5891 29.072C10.1421 29.152 9.69506 29.248 9.24706 29.376C8.94406 29.456 8.65606 29.552 8.36906 29.696C8.30506 29.728 8.25706 29.728 8.19306 29.664C7.92206 29.424 7.63406 29.168 7.36206 28.928C7.28206 28.88 7.17006 28.816 7.09106 28.688Z" fill="white"/>
<path d="M33.0451 18.528C33.3011 18.128 33.4921 17.696 33.6681 17.264C33.9561 16.592 34.1631 15.904 34.3711 15.2C34.5311 14.688 34.6901 14.192 34.8341 13.68C34.9301 13.344 35.1691 13.168 35.5211 13.136C35.7291 13.12 35.9201 13.136 36.1281 13.184C36.3681 13.248 36.5911 13.376 36.7831 13.52C36.8471 13.568 36.8791 13.632 36.8631 13.712C36.8311 13.872 36.7991 14.032 36.7511 14.176C36.7351 14.224 36.6871 14.272 36.6391 14.32C36.2561 14.704 36.3511 14.592 36.1921 15.12C35.6331 17.056 34.8821 18.912 33.9721 20.704C33.9401 20.768 33.9081 20.816 33.8761 20.88C33.7481 21.104 33.5411 21.232 33.2851 21.28C33.1731 21.296 33.0771 21.312 32.9661 21.296C32.8381 21.28 32.7261 21.232 32.6151 21.136C32.3911 20.928 32.2001 20.688 32.0241 20.432C31.6891 19.952 31.4171 19.44 31.1781 18.912C30.9701 18.448 30.7471 17.984 30.5071 17.536C30.2191 16.992 29.9641 16.448 29.7561 15.872C29.7401 15.824 29.7241 15.776 29.7081 15.728C29.6441 15.472 29.7081 15.248 29.9161 15.088C30.0601 14.976 30.2191 14.896 30.3951 14.848C30.6191 14.8 30.8261 14.8 31.0341 14.864C31.1781 14.912 31.2901 14.992 31.3851 15.104C31.5131 15.28 31.6251 15.472 31.7201 15.664C31.8801 15.968 32.0081 16.288 32.1191 16.608C32.2791 17.056 32.4381 17.52 32.6461 17.952C32.7261 18.112 32.8221 18.272 32.9021 18.432C32.9661 18.448 32.9821 18.496 33.0461 18.528H33.0451Z" fill="white"/>
<path d="M86.1499 17.536C86.1979 17.52 86.2139 17.472 86.2299 17.44C86.4059 17.152 86.5809 16.88 86.7729 16.608C86.9169 16.4 87.0919 16.224 87.2999 16.096C87.5559 15.92 87.8269 15.856 88.1309 15.904C88.1469 15.904 88.1789 15.904 88.1949 15.904C88.3709 15.904 88.4819 15.968 88.5619 16.144C88.8339 16.688 89.0249 17.232 89.1369 17.824C89.2009 18.176 89.2489 18.528 89.2809 18.88C89.2969 19.136 89.2969 19.408 89.3289 19.664C89.3609 19.952 89.3449 20.24 89.3769 20.512C89.4089 20.784 89.3769 21.056 89.4409 21.312C89.4729 21.424 89.4569 21.552 89.4409 21.68C89.4409 21.824 89.3609 21.952 89.2169 22C88.9609 22.08 88.6899 22.16 88.4019 22.144C88.3539 22.144 88.3219 22.144 88.2739 22.128C88.0979 22.08 88.0179 21.984 88.0019 21.808C87.9699 21.392 87.9219 20.976 87.9059 20.576C87.8899 20.304 87.8899 20.032 87.8739 19.744C87.8419 19.312 87.8259 18.88 87.7779 18.432C87.7619 18.224 87.7299 18.016 87.6979 17.808C87.6979 17.76 87.6819 17.728 87.6659 17.68C87.6499 17.648 87.6339 17.648 87.6179 17.664C87.5699 17.712 87.5059 17.76 87.4739 17.824C87.3779 17.952 87.2979 18.096 87.2179 18.224C86.9939 18.624 86.8349 19.056 86.6589 19.488C86.4829 19.968 86.2919 20.432 86.0519 20.896C86.0039 21.008 85.9399 21.088 85.8439 21.184C85.6359 21.376 85.3969 21.408 85.1249 21.344C84.9969 21.312 84.9009 21.232 84.8219 21.104C84.7419 20.944 84.6939 20.784 84.6779 20.608C84.6619 20.48 84.6619 20.368 84.6459 20.24C84.6139 20.032 84.6619 19.824 84.6939 19.616C84.7259 19.408 84.7739 19.184 84.8059 18.976C84.8379 18.8 84.8219 18.608 84.8059 18.432C84.7739 18.144 84.7099 17.84 84.6619 17.552C84.5979 17.088 84.6139 16.624 84.7259 16.16C84.7579 16.064 84.7739 15.984 84.8379 15.904C84.9499 15.76 85.0939 15.696 85.2689 15.68C85.3649 15.68 85.4769 15.68 85.5719 15.68C85.7959 15.68 86.0509 15.872 86.1149 16.144C86.1629 16.352 86.1149 16.528 86.0829 16.72C86.0669 16.832 86.0349 16.944 86.0029 17.056C85.9869 17.104 85.9869 17.152 85.9709 17.2C85.9869 17.392 85.9869 17.392 86.1469 17.536H86.1499Z" fill="white"/>
<path d="M42.74 16.4C42.756 17.6 42.772 18.8 42.756 20C42.756 20.496 42.692 20.976 42.58 21.44C42.516 21.664 42.4519 21.888 42.3559 22.096C42.2279 22.4 42.005 22.576 41.589 22.544C41.413 22.528 41.2379 22.48 41.0619 22.4C40.8539 22.304 40.7429 22.128 40.7109 21.904C40.6949 21.76 40.695 21.616 40.727 21.472C40.903 20.816 40.9829 20.144 41.0149 19.472C41.0789 18.352 41.0949 17.216 41.1109 16.096C41.1109 15.68 41.0789 15.28 41.0309 14.88C40.9829 14.4 40.9189 13.92 40.9189 13.44C40.9189 13.12 40.9349 12.816 41.0309 12.512C41.0629 12.4 41.1109 12.272 41.1749 12.176C41.3189 11.888 41.5579 11.728 41.8619 11.664C42.0059 11.648 42.1649 11.632 42.3089 11.68C42.5009 11.744 42.6279 11.856 42.7079 12.048C42.7399 12.144 42.7559 12.24 42.7719 12.352C42.7879 12.64 42.7879 12.928 42.7879 13.232C42.7399 14.288 42.724 15.344 42.74 16.4Z" fill="white"/>
<path d="M46.046 14.496C46.046 15.12 46.03 15.728 46.046 16.352C46.062 17.552 46.062 18.736 46.062 19.936C46.062 20.448 45.998 20.96 45.87 21.472C45.822 21.696 45.742 21.904 45.646 22.112C45.518 22.416 45.295 22.592 44.879 22.56C44.703 22.544 44.528 22.496 44.352 22.416C44.144 22.32 44.033 22.144 44.001 21.92C43.985 21.776 43.985 21.632 44.017 21.488C44.177 20.848 44.273 20.208 44.305 19.552C44.369 18.416 44.385 17.264 44.401 16.128C44.401 15.712 44.369 15.28 44.321 14.864C44.273 14.4 44.209 13.92 44.209 13.456C44.209 13.152 44.209 12.848 44.305 12.544C44.337 12.432 44.385 12.304 44.433 12.192C44.577 11.904 44.8 11.728 45.12 11.68C45.28 11.648 45.439 11.648 45.599 11.696C45.791 11.76 45.918 11.872 45.998 12.064C46.03 12.16 46.046 12.24 46.062 12.336C46.078 12.576 46.078 12.8 46.078 13.04C46.078 13.52 46.062 14.016 46.046 14.496Z" fill="white"/>
<path d="M70.961 13.184C70.961 13.408 70.977 13.632 70.961 13.856C70.913 14.64 70.945 15.408 70.929 16.192C70.929 16.368 70.929 16.56 70.961 16.736C70.977 16.912 70.961 17.104 70.945 17.28C70.945 17.328 70.929 17.376 70.929 17.424C70.977 17.76 70.945 18.112 70.961 18.448C70.961 18.8 70.945 19.152 70.961 19.504C70.977 19.856 70.945 20.224 70.913 20.576C70.865 21.088 70.769 21.6 70.562 22.08C70.386 22.464 70.099 22.624 69.668 22.56C69.508 22.528 69.365 22.496 69.237 22.416C69.061 22.32 68.965 22.16 68.918 21.968C68.87 21.792 68.902 21.616 68.934 21.456C69.03 21.072 69.094 20.688 69.142 20.304C69.19 19.92 69.206 19.536 69.238 19.152C69.27 18.608 69.27 18.08 69.27 17.536C69.27 17.168 69.302 16.8 69.318 16.432C69.318 16.016 69.302 15.6 69.27 15.184C69.238 14.848 69.19 14.528 69.158 14.192C69.142 13.856 69.078 13.52 69.11 13.184C69.142 12.848 69.206 12.512 69.366 12.192C69.51 11.92 69.733 11.76 70.037 11.696C70.181 11.664 70.324 11.664 70.468 11.696C70.724 11.76 70.883 11.92 70.931 12.192C70.963 12.32 70.979 12.464 70.979 12.608C70.963 12.8 70.963 12.992 70.963 13.184H70.961Z" fill="white"/>
<path d="M14.566 31.904C14.358 31.904 14.135 31.904 13.895 31.904C13.655 31.904 13.416 31.856 13.176 31.824C13 31.808 12.841 31.76 12.665 31.728C12.266 31.648 11.898 31.52 11.531 31.36C11.164 31.2 10.812 31.008 10.509 30.752C10.349 30.624 10.19 30.496 10.046 30.352C10.014 30.32 9.998 30.304 9.982 30.272C9.95 30.24 9.982 30.192 10.014 30.192C10.158 30.192 10.301 30.192 10.445 30.192C10.589 30.192 10.732 30.208 10.876 30.16C10.924 30.144 10.972 30.16 11.036 30.16C11.307 30.16 11.579 30.16 11.835 30.16C11.963 30.16 12.091 30.16 12.218 30.128C12.266 30.112 12.314 30.128 12.378 30.128C12.57 30.128 12.777 30.128 12.969 30.128C13.065 30.128 13.161 30.128 13.256 30.096C13.32 30.08 13.4 30.08 13.48 30.08C13.704 30.064 13.927 30.096 14.151 30.048C14.215 30.032 14.295 30.048 14.375 30.048C14.535 30.048 14.678 30.064 14.822 30.016C14.87 30 14.902 30.016 14.95 30.016C15.078 30.016 15.206 30.016 15.333 29.984C15.365 29.968 15.413 29.984 15.445 29.984C15.86 29.952 16.26 29.904 16.659 29.792C16.803 29.76 16.947 29.744 17.09 29.712C17.33 29.664 17.585 29.712 17.825 29.648C17.873 29.632 17.937 29.648 18.001 29.632C18.257 29.616 18.528 29.648 18.784 29.6C18.832 29.584 18.864 29.6 18.912 29.6C19.87 29.6 20.813 29.6 21.771 29.6C21.835 29.6 21.883 29.6 21.947 29.6C21.979 29.6 21.995 29.648 21.979 29.664C21.835 29.872 21.66 30.064 21.468 30.224C21.101 30.512 20.685 30.72 20.254 30.912C19.615 31.184 18.944 31.376 18.274 31.536C17.923 31.616 17.587 31.68 17.236 31.728C16.901 31.776 16.565 31.824 16.23 31.856C15.671 31.888 15.128 31.92 14.569 31.904H14.566Z" fill="white"/>
<path d="M9.77495 5.344C9.75895 5.904 9.75895 6.432 9.72695 6.96C9.71095 7.312 9.59895 7.648 9.42395 7.952C9.37595 8.032 9.31195 8.112 9.24795 8.176C9.05595 8.384 8.81695 8.448 8.52895 8.368C8.25795 8.288 8.01795 8.144 7.80995 7.968C7.50695 7.696 7.28295 7.376 7.10695 7.008C7.05895 6.912 7.02695 6.816 7.02695 6.72C7.01095 6.528 6.99495 6.336 6.97895 6.128C6.94695 5.664 6.93095 5.2 6.94695 4.736C6.96295 4.128 7.02695 3.52 7.15495 2.912C7.25095 2.512 7.37895 2.112 7.58595 1.76C7.76195 1.472 7.96895 1.216 8.25695 1.024C8.36895 0.944005 8.49695 0.880005 8.63995 0.880005C8.78295 0.880005 8.89595 0.912005 8.99095 1.008C9.07095 1.088 9.15095 1.184 9.19895 1.28C9.31095 1.488 9.39095 1.712 9.45495 1.952C9.55095 2.304 9.59895 2.656 9.64695 3.024C9.71095 3.536 9.72695 4.032 9.74295 4.544C9.74295 4.832 9.75895 5.104 9.77495 5.344Z" fill="white"/>
<path d="M1.42093 19.376C1.27693 19.376 1.14893 19.36 1.00593 19.328C0.749934 19.248 0.622934 19.072 0.606934 18.8C0.606934 18.592 0.654934 18.384 0.734934 18.192C0.862934 17.872 1.02293 17.568 1.19793 17.28C1.58093 16.656 2.02893 16.096 2.50793 15.536C2.74793 15.248 3.00293 14.976 3.27493 14.736C3.57793 14.464 3.91393 14.224 4.28093 14.064C4.47293 13.984 4.66393 13.92 4.87193 13.936C5.12793 13.936 5.30293 14.096 5.36693 14.304C5.44693 14.544 5.46293 14.784 5.36693 15.04C5.03193 16.016 4.61593 16.944 4.00893 17.792C3.72093 18.192 3.38593 18.56 2.98693 18.864C2.60393 19.152 2.18793 19.344 1.72493 19.408C1.62893 19.36 1.51693 19.36 1.42193 19.376H1.42093Z" fill="white"/>
<path d="M8.80009 14.416C8.36909 14.4 7.93809 14.4 7.50609 14.336C7.17109 14.288 6.85109 14.224 6.54809 14.048C6.06909 13.76 5.74909 13.328 5.59009 12.8C5.35009 12.064 5.49409 10.96 6.05309 10.304C6.48409 9.792 7.01109 9.456 7.66609 9.328C8.11309 9.232 8.54409 9.28 8.96009 9.488C9.26309 9.648 9.48709 9.888 9.66309 10.192C9.71109 10.272 9.69509 10.288 9.61509 10.32C9.26409 10.448 8.94409 10.64 8.68909 10.912C8.32209 11.28 8.13009 11.728 8.09809 12.24C8.06609 12.656 8.11409 13.056 8.21009 13.456C8.25809 13.616 8.30609 13.776 8.38609 13.92C8.48209 14.08 8.59409 14.24 8.75309 14.352C8.76909 14.352 8.80009 14.368 8.80009 14.416Z" fill="white"/>
<path d="M1.75702 7.18398C1.99702 7.16798 2.20402 7.26398 2.41202 7.34398C2.63602 7.43998 2.84302 7.55198 3.05102 7.67998C3.37002 7.87198 3.67402 8.09598 3.96102 8.31998C4.13702 8.46398 4.26402 8.62398 4.40802 8.79998C4.64802 9.08798 4.85502 9.40798 4.99902 9.75998C5.07902 9.95198 5.14302 10.16 5.12702 10.368C5.12702 10.416 5.12702 10.464 5.11102 10.512C4.99902 10.816 4.82402 11.072 4.50402 11.184C4.32802 11.248 4.13702 11.248 3.94502 11.184C3.46602 11.024 3.00302 10.816 2.57102 10.528C2.15602 10.224 1.78802 9.87198 1.53302 9.42398C1.30902 9.03998 1.16602 8.62398 1.16602 8.15998C1.16602 8.03198 1.16602 7.91998 1.16602 7.79198C1.16602 7.67998 1.19802 7.56798 1.24602 7.45598C1.34202 7.24798 1.50202 7.15198 1.72502 7.15198C1.72502 7.18398 1.74102 7.18398 1.75702 7.18398Z" fill="white"/>
<path d="M37.613 18.96C37.661 18.592 37.645 18.16 37.661 17.712C37.677 17.328 37.709 16.96 37.821 16.592C37.853 16.496 37.885 16.384 37.933 16.288C38.061 15.984 38.316 15.808 38.636 15.776C38.956 15.744 39.243 15.808 39.498 16C39.562 16.048 39.61 16.096 39.658 16.144C39.77 16.304 39.802 16.48 39.69 16.656C39.498 16.976 39.434 17.312 39.418 17.68C39.402 18 39.386 18.336 39.338 18.656C39.338 18.704 39.322 18.736 39.306 18.784C39.242 19.008 39.226 19.232 39.226 19.456C39.226 19.808 39.242 20.176 39.242 20.528C39.242 20.704 39.242 20.896 39.226 21.072C39.226 21.152 39.21 21.216 39.178 21.28C39.162 21.344 39.114 21.376 39.05 21.392C38.826 21.44 38.603 21.488 38.379 21.504C38.283 21.504 38.171 21.488 38.076 21.472C37.852 21.424 37.709 21.28 37.645 21.056C37.597 20.864 37.565 20.672 37.549 20.48C37.533 20.176 37.517 19.888 37.533 19.584C37.597 19.392 37.597 19.216 37.613 18.96Z" fill="white"/>
<path d="M10.525 17.616C10.525 18.016 10.525 18.4 10.525 18.8C10.525 18.896 10.509 19.008 10.477 19.104C10.365 19.376 10.253 19.648 10.078 19.904C9.99802 20.016 9.91802 20.128 9.80702 20.224C9.74302 20.288 9.66302 20.32 9.58302 20.352C9.47102 20.368 9.35902 20.352 9.24802 20.288C9.15202 20.224 9.08802 20.144 9.02402 20.064C8.89602 19.888 8.80002 19.696 8.72102 19.488C8.65702 19.328 8.67302 19.152 8.65702 18.992C8.59302 18.272 8.57702 17.536 8.60902 16.816C8.62502 16.4 8.67302 15.968 8.78502 15.568C8.83302 15.376 8.89702 15.184 9.00902 15.008C9.12102 14.816 9.26502 14.688 9.48802 14.608C9.68002 14.544 9.83902 14.592 9.96702 14.72C10.079 14.816 10.159 14.944 10.223 15.072C10.335 15.296 10.399 15.536 10.447 15.776C10.527 16.128 10.559 16.496 10.559 16.864C10.527 17.072 10.527 17.344 10.527 17.616H10.525Z" fill="white"/>
<path d="M4.77493 13.088C4.74293 13.152 4.67893 13.184 4.63093 13.216C4.03993 13.6 3.40093 13.888 2.69793 14.016C2.10693 14.128 1.54793 14.08 0.988929 13.856C0.780929 13.776 0.589929 13.648 0.429929 13.488C0.0309289 13.088 0.0149289 12.464 0.413929 12.032C0.637929 11.792 0.892929 11.664 1.19693 11.584C1.24493 11.568 1.29293 11.568 1.34093 11.568C1.77193 11.536 2.18793 11.616 2.60293 11.776C3.14593 11.984 3.65693 12.272 4.13593 12.608C4.35993 12.768 4.58293 12.912 4.77493 13.088Z" fill="white"/>
<path d="M5.62212 20.848C5.60612 20.672 5.59012 20.512 5.59012 20.352C5.59012 19.792 5.57412 19.248 5.59012 18.688C5.60612 18.016 5.63812 17.344 5.75012 16.688C5.79812 16.448 5.84612 16.224 5.92612 15.984C5.95812 15.872 6.00612 15.744 6.08612 15.648C6.24612 15.408 6.45312 15.296 6.74112 15.296C6.90112 15.296 7.02812 15.36 7.14012 15.456C7.23612 15.536 7.31612 15.632 7.38012 15.744C7.50812 15.968 7.57212 16.208 7.60412 16.464C7.63612 16.944 7.57212 17.392 7.39612 17.84C7.23612 18.272 7.02912 18.688 6.82112 19.088C6.51812 19.648 6.16612 20.176 5.79912 20.688C5.75112 20.736 5.71812 20.784 5.62212 20.848Z" fill="white"/>
<path d="M3.78496 6.22398C3.78496 6.04798 3.81696 5.87198 3.89696 5.69598C3.97696 5.51998 4.10496 5.39198 4.31196 5.32798C4.40796 5.31198 4.50396 5.29598 4.58296 5.32798C4.82296 5.39198 5.01396 5.50398 5.18996 5.66398C5.33396 5.80798 5.47696 5.95198 5.58896 6.12798C5.78096 6.43198 5.97196 6.71998 6.11596 7.05598C6.17996 7.19998 6.24396 7.32798 6.24396 7.48798C6.24396 7.53598 6.27596 7.58398 6.29196 7.63198C6.35596 7.79198 6.40396 7.96798 6.43596 8.12798C6.45196 8.20798 6.45196 8.28798 6.45196 8.36798C6.45196 8.63998 6.27596 8.79998 5.97296 8.78398C5.84496 8.78398 5.73296 8.73598 5.62196 8.68798C5.36596 8.57598 5.12696 8.44798 4.91896 8.27198C4.56796 7.98398 4.27996 7.64798 4.05696 7.24798C3.88096 6.92798 3.76896 6.59198 3.78496 6.22398Z" fill="white"/>
<path d="M37.9961 13.92C37.9961 13.744 38.0281 13.584 38.0761 13.44C38.1401 13.28 38.2361 13.168 38.3791 13.088C38.6351 12.944 38.9061 12.896 39.1941 12.928C39.3861 12.96 39.5611 13.04 39.6891 13.184C39.8491 13.36 39.8811 13.568 39.8491 13.792C39.8011 14.08 39.6731 14.336 39.4661 14.56C39.2421 14.8 38.8911 14.88 38.5721 14.752C38.3641 14.672 38.2211 14.528 38.0931 14.368C37.9971 14.224 37.9811 14.064 37.9971 13.92H37.9961Z" fill="white"/>
<path d="M52.259 15.888C52.051 15.424 51.7 15.104 51.205 14.944C50.886 14.832 50.566 14.8 50.263 14.816C49.752 14.816 49.273 14.896 48.81 15.04C48.491 15.152 48.187 15.312 47.884 15.472C47.82 15.504 47.772 15.552 47.756 15.632C47.724 15.952 47.788 16.256 47.964 16.528C47.98 16.56 48.012 16.592 48.044 16.624C48.156 16.72 48.268 16.768 48.427 16.736C48.475 16.72 48.523 16.704 48.571 16.704C48.986 16.592 49.402 16.464 49.833 16.368C50.2 16.272 50.584 16.256 50.951 16.336C51.127 16.368 51.207 16.448 51.239 16.624C51.255 16.752 51.255 16.88 51.223 17.008C51.175 17.216 51.159 17.216 50.935 17.216C50.456 17.184 49.961 17.184 49.482 17.264C48.588 17.424 47.853 17.856 47.31 18.592C47.15 18.816 47.038 19.072 46.975 19.344C46.927 19.536 46.911 19.744 46.895 19.952C46.895 20.256 46.927 20.544 47.071 20.816C47.406 21.44 47.933 21.824 48.62 21.968C48.892 22.032 49.179 22.064 49.451 22.112C49.739 22.16 50.042 22.208 50.329 22.256C50.473 22.272 50.569 22.352 50.632 22.464C50.68 22.56 50.728 22.64 50.792 22.72C50.856 22.816 50.952 22.896 51.08 22.944C51.24 23.008 51.399 22.976 51.527 22.864C51.607 22.8 51.655 22.704 51.703 22.608C51.783 22.432 51.847 22.24 51.879 22.048C51.975 21.568 52.007 21.072 52.039 20.576C52.071 20.112 52.135 19.664 52.199 19.216C52.295 18.624 52.407 18.048 52.455 17.44C52.551 16.912 52.487 16.384 52.263 15.888H52.259ZM50.981 19.696C50.885 20.048 50.789 20.416 50.693 20.768C50.677 20.864 50.613 20.912 50.533 20.928C50.453 20.944 50.357 20.96 50.277 20.96C49.67 20.96 49.095 20.816 48.552 20.544C48.456 20.496 48.376 20.432 48.296 20.368C48.184 20.272 48.136 20.144 48.152 20C48.168 19.6 48.328 19.28 48.663 19.056C48.855 18.928 49.078 18.848 49.302 18.8C49.797 18.704 50.276 18.592 50.771 18.496C50.883 18.48 50.899 18.48 50.931 18.592C50.995 18.784 51.043 18.992 51.043 19.184C51.043 19.344 51.027 19.52 50.979 19.696H50.981Z" fill="white"/>
<path d="M83.5791 15.936C83.3871 15.488 83.0681 15.168 82.6371 14.992C82.3501 14.88 82.03 14.832 81.727 14.816C81.424 14.8 81.1201 14.848 80.8171 14.88C80.3061 14.96 79.827 15.12 79.38 15.376C79.061 15.552 79.0451 15.568 79.0771 15.936C79.0931 16.16 79.1571 16.368 79.2851 16.544C79.4291 16.736 79.572 16.784 79.796 16.72C79.988 16.672 80.179 16.608 80.387 16.56C80.738 16.464 81.0741 16.352 81.4411 16.304C81.7281 16.272 82.0001 16.272 82.2881 16.32C82.4481 16.352 82.544 16.448 82.56 16.624C82.576 16.736 82.576 16.848 82.56 16.944C82.56 17.008 82.5121 17.088 82.4961 17.152C82.4801 17.2 82.4481 17.216 82.3841 17.216C82.1921 17.2 81.985 17.2 81.793 17.184C81.202 17.184 81.122 17.2 80.707 17.28C79.956 17.424 79.333 17.776 78.822 18.336C78.582 18.608 78.391 18.912 78.295 19.264C78.247 19.424 78.231 19.584 78.215 19.744C78.167 20.192 78.231 20.592 78.471 20.976C78.806 21.52 79.3021 21.84 79.9241 21.968C80.2911 22.048 80.6591 22.096 81.0101 22.16C81.2181 22.192 81.4411 22.24 81.6491 22.272C81.7931 22.288 81.8891 22.368 81.9521 22.48C82.0001 22.544 82.0321 22.624 82.0801 22.688C82.1281 22.752 82.16 22.8 82.224 22.848C82.448 23.056 82.7511 23.024 82.9271 22.784C82.9751 22.72 83.023 22.64 83.055 22.56C83.151 22.288 83.231 22.016 83.263 21.744C83.279 21.584 83.295 21.424 83.311 21.264C83.343 21.008 83.375 20.752 83.375 20.512C83.391 20.176 83.439 19.84 83.487 19.52C83.567 18.976 83.6951 18.432 83.7591 17.888C83.7911 17.664 83.807 17.44 83.823 17.216C83.839 16.752 83.759 16.336 83.583 15.936H83.5791ZM82.253 19.856C82.173 20.16 82.0771 20.464 81.9971 20.784C81.9811 20.88 81.933 20.912 81.837 20.944C81.773 20.96 81.693 20.976 81.629 20.976C81.15 20.992 80.671 20.896 80.223 20.72C80.095 20.672 79.9831 20.624 79.8721 20.56C79.8081 20.528 79.7281 20.48 79.6641 20.432C79.5201 20.32 79.4401 20.192 79.4561 20C79.4721 19.568 79.664 19.232 80.031 19.024C80.223 18.912 80.446 18.848 80.654 18.8C81.133 18.704 81.596 18.608 82.075 18.496C82.171 18.48 82.203 18.496 82.235 18.592C82.299 18.784 82.3311 18.944 82.3311 19.248C82.3631 19.424 82.299 19.632 82.251 19.856H82.253Z" fill="white"/>
<path d="M67.863 16.048C67.655 15.504 67.288 15.12 66.713 14.944C66.457 14.864 66.186 14.832 65.914 14.816C65.738 14.8 65.563 14.832 65.387 14.848C64.972 14.88 64.572 14.976 64.189 15.12C63.917 15.216 63.678 15.36 63.438 15.504C63.358 15.552 63.326 15.6 63.326 15.696C63.326 15.808 63.326 15.936 63.342 16.048C63.374 16.272 63.454 16.48 63.614 16.656C63.726 16.768 63.854 16.816 64.013 16.768C64.157 16.72 64.3 16.688 64.46 16.656C64.875 16.544 65.275 16.4 65.706 16.336C65.993 16.304 66.281 16.304 66.568 16.368C66.68 16.384 66.76 16.448 66.792 16.56C66.872 16.784 66.84 17.008 66.744 17.216C66.728 17.248 66.696 17.264 66.648 17.264C66.456 17.248 66.249 17.248 66.057 17.232C65.69 17.232 65.338 17.248 64.971 17.312C64.204 17.472 63.565 17.824 63.038 18.416C62.782 18.704 62.607 19.04 62.527 19.408C62.479 19.616 62.463 19.824 62.463 20.032C62.447 20.48 62.607 20.864 62.878 21.2C63.213 21.616 63.661 21.872 64.172 21.984C64.348 22.016 64.507 22.048 64.683 22.08C65.098 22.144 65.514 22.224 65.929 22.288C66.057 22.304 66.137 22.368 66.201 22.464C66.249 22.544 66.297 22.608 66.329 22.688C66.377 22.768 66.441 22.832 66.521 22.896C66.713 23.04 66.936 23.024 67.112 22.864C67.224 22.752 67.272 22.624 67.336 22.496C67.432 22.208 67.512 21.92 67.528 21.632C67.544 21.456 67.544 21.28 67.576 21.12C67.624 20.864 67.624 20.608 67.64 20.368C67.672 20.064 67.704 19.744 67.752 19.44C67.816 19.008 67.912 18.576 67.96 18.16C68.008 17.808 68.04 17.456 68.04 17.104C68.056 16.688 67.991 16.368 67.863 16.048ZM66.585 19.472C66.537 19.696 66.473 19.92 66.425 20.144C66.377 20.352 66.313 20.544 66.265 20.752C66.249 20.848 66.185 20.912 66.089 20.928C66.057 20.928 66.025 20.96 65.977 20.96C65.897 20.96 65.801 20.96 65.721 20.96C65.13 20.944 64.571 20.8 64.06 20.512C63.996 20.48 63.948 20.448 63.9 20.4C63.772 20.304 63.724 20.16 63.724 20C63.724 19.504 63.98 19.168 64.411 18.944C64.571 18.864 64.73 18.816 64.906 18.784C65.385 18.688 65.864 18.592 66.359 18.48C66.455 18.464 66.471 18.464 66.503 18.56C66.599 18.864 66.631 19.168 66.583 19.472H66.585Z" fill="white"/>
</g>
<defs>
<clipPath id="clip0_70_131">
<rect width="90" height="32" fill="white"/>
</clipPath>
</defs>
</svg>
