<svg width="138" height="49" viewBox="0 0 138 49" fill="none" xmlns="http://www.w3.org/2000/svg">
<path fill-rule="evenodd" clip-rule="evenodd" d="M2.33301 34.8718C2.55777 34.6795 2.78252 34.5697 3.03226 34.4598C3.7315 34.1301 4.45572 33.8555 5.17994 33.6357C6.40363 33.2786 7.62731 33.0039 8.87597 32.7842C9.72506 32.6194 10.5741 32.5095 11.4482 32.3721C11.7229 32.3447 12.0226 32.3172 12.2973 32.2897C13.0964 32.1799 13.8956 32.1249 14.6947 32.0425C15.5937 31.9326 16.4928 31.8777 17.4168 31.8228C18.2659 31.7678 19.115 31.7129 19.964 31.6579C20.5884 31.6305 21.2127 31.603 21.837 31.5755C24.5841 31.4657 27.3311 31.4931 30.0782 31.5481C31.0271 31.5755 31.9511 31.6579 32.9001 31.7953C33.7742 31.9326 34.6482 32.1249 35.4973 32.3447C37.645 32.894 39.6179 33.8005 41.4409 35.1465C41.9654 35.5311 42.4898 35.9706 42.9393 36.4375C43.0142 36.5199 43.0642 36.5749 43.1391 36.6573C43.1891 36.7122 43.1641 36.7672 43.1141 36.8221C43.0892 36.8496 43.0642 36.877 43.0392 36.877C42.5148 37.2891 41.9903 37.7011 41.4409 38.1131C41.416 38.1406 41.391 38.1406 41.391 38.1406C41.341 38.1681 41.2911 38.1681 41.2411 38.1131C41.0164 37.7011 40.6668 37.4264 40.2672 37.1792C39.7178 36.8496 39.1184 36.6024 38.4941 36.4101C37.5951 36.1354 36.6711 35.9431 35.7221 35.7783C34.873 35.6409 33.9989 35.5311 33.1499 35.4761C32.4007 35.4212 31.6265 35.3663 30.8773 35.3113C29.1791 35.2289 27.481 35.2014 25.7578 35.2838C25.0586 35.3113 24.3843 35.3663 23.685 35.4761C23.0857 35.5585 22.4863 35.6409 21.887 35.7233C21.2377 35.8332 20.5884 35.9156 19.9391 36.053C18.6904 36.3002 17.4667 36.5474 16.2181 36.8496C14.5199 37.2616 12.7968 37.7011 11.1236 38.1681C9.52527 38.6076 7.95196 39.102 6.35368 39.6239C6.30374 39.6514 6.25379 39.6514 6.22882 39.6514C6.1539 39.6789 6.07898 39.6789 6.02903 39.569C5.75433 39.102 5.42968 38.69 5.10503 38.278C4.25594 37.2067 3.38188 36.1903 2.48285 35.174C2.48285 35.0916 2.38295 35.0092 2.33301 34.8718Z" fill="white"/>
<path fill-rule="evenodd" clip-rule="evenodd" d="M24.5195 18.0622C23.9589 17.9859 23.4226 18.1384 22.9108 18.3419C21.9359 18.7233 20.9365 19.0538 19.9616 19.4352C19.1329 19.7403 18.2798 20.0455 17.4511 20.3251C16.7443 20.554 16.0375 20.554 15.3063 20.4269C15.0869 20.376 14.8919 20.2997 14.6969 20.1472C14.4532 19.9692 14.2826 19.7658 14.1851 19.4861C13.9657 18.9013 13.9414 18.3164 14.112 17.7062C14.1851 17.4011 14.3801 17.1214 14.5994 16.8925C14.8432 16.6383 15.1113 16.4094 15.4038 16.2314C15.7694 15.9772 16.135 15.7483 16.5006 15.4941C18.2067 14.3753 19.6935 13.0277 20.9853 11.4004C21.5459 10.7138 22.1552 10.0528 22.8133 9.41709C23.2033 9.06111 23.6176 8.73056 24.0807 8.4763C24.422 8.29831 24.7632 8.17118 25.1288 8.17118C25.5675 8.14575 25.9819 8.27288 26.3718 8.50172C26.7618 8.75599 27.103 9.06111 27.4199 9.41709C27.883 9.95105 28.273 10.5359 28.6873 11.1207C29.9547 12.9768 31.2222 14.833 32.4896 16.6891C32.8308 17.1977 33.172 17.7062 33.4645 18.2147C33.5377 18.3419 33.6108 18.469 33.6839 18.6216C33.8789 19.0284 33.8789 19.4098 33.7083 19.8166C33.5377 20.2234 33.2452 20.5286 32.8796 20.732C32.4408 20.9608 31.9534 21.0371 31.4659 20.9862C31.0272 20.9354 30.6128 20.8083 30.2229 20.6557C29.4185 20.3251 28.6386 19.9183 27.9074 19.4352C27.4199 19.1047 26.9081 18.7995 26.3962 18.4944C26.25 18.4181 26.1037 18.3419 25.9575 18.2402C25.6894 18.0876 25.3969 18.0113 25.1044 18.0367C24.8363 18.0876 24.6657 18.0622 24.5195 18.0622Z" fill="white"/>
<path fill-rule="evenodd" clip-rule="evenodd" d="M42.0003 38.3164C41.9758 38.3679 41.9513 38.4195 41.9268 38.471C41.7553 38.7543 41.5837 39.0376 41.4122 39.3209C41.2407 39.63 41.0691 39.9133 40.8731 40.2224C40.7996 40.3512 40.7506 40.3512 40.6281 40.2739C40.2605 40.0164 39.8684 39.8876 39.4518 39.7846C38.5942 39.5528 37.712 39.3725 36.8298 39.2694C36.0702 39.1922 35.3105 39.1149 34.5264 39.0634C34.0363 39.0376 33.5217 39.0376 33.0316 38.9861C32.2474 38.9346 31.4633 38.9346 30.7037 38.9604C30.042 38.9604 29.3559 38.9861 28.6943 39.0376C27.5671 39.1149 26.4643 39.2437 25.3616 39.5012C23.2542 39.9906 21.1468 40.48 19.0394 40.9694C17.3731 41.3557 15.7068 41.7678 14.016 42.1542C12.6437 42.4632 11.2714 42.7981 9.92367 43.1329C9.89917 43.1329 9.87466 43.1587 9.85016 43.1587C9.72763 43.1844 9.70313 43.1587 9.62962 43.0557C9.43358 42.6435 9.23754 42.2057 9.0415 41.7936C8.77195 41.2012 8.5269 40.6345 8.25735 40.0421C8.23285 39.9906 8.20834 39.9649 8.20834 39.9133C8.13483 39.7588 8.15933 39.733 8.28186 39.6815C8.55141 39.5785 8.82096 39.4755 9.11502 39.3982C10.5853 38.9604 12.0556 38.6255 13.5259 38.3164C14.7266 38.0589 15.9028 37.8528 17.1035 37.6468C17.9612 37.4922 18.8189 37.3634 19.6765 37.2604C20.4607 37.1574 21.2203 37.0544 22.0045 36.9771C22.8867 36.8998 23.7443 36.7968 24.6265 36.6938C25.3861 36.6165 26.1458 36.5392 26.9299 36.4877C27.5916 36.4362 28.2287 36.3847 28.8903 36.3332C29.797 36.2817 30.7037 36.2302 31.6348 36.2044C32.2474 36.1786 32.8846 36.1529 33.4972 36.1786C34.3303 36.2044 35.1635 36.2559 35.9967 36.3589C37.0749 36.4877 38.1286 36.6938 39.1823 37.0028C40.0644 37.2862 40.9466 37.621 41.7308 38.1361C41.8043 38.1877 41.8533 38.2134 41.9268 38.2649C41.9513 38.2392 41.9758 38.2649 42.0003 38.3164Z" fill="white"/>
<path fill-rule="evenodd" clip-rule="evenodd" d="M20.2923 29.9934C20.2923 30.4551 20.2923 30.8925 20.2923 31.3542C20.2923 31.4514 20.2665 31.5 20.1112 31.5C19.8265 31.5 19.5419 31.5 19.2572 31.5C18.8173 31.4757 18.4032 31.3542 18.0151 31.1355C17.6269 30.9168 17.3681 30.5766 17.2905 30.1635C17.1611 29.6532 17.0835 29.1429 17.0317 28.6325C16.8764 27.5876 16.7471 26.5184 16.6177 25.4735C16.54 24.7688 16.4624 24.0398 16.3848 23.3351C16.3589 23.1406 16.333 22.9705 16.333 22.7761C16.333 22.6789 16.3589 22.6303 16.4624 22.606C17.0058 22.3873 17.5752 22.1929 18.1445 21.9985C19.1278 21.6583 20.1112 21.3667 21.1463 21.148C22.1814 20.905 23.1907 20.9779 24.1999 21.2452C25.8044 21.6826 27.2794 22.3387 28.6768 23.1892C29.0909 23.4323 29.4532 23.6996 29.8154 24.0155C30.1777 24.3314 30.333 24.7202 30.333 25.1576C30.333 25.7894 30.2554 26.4212 30.1519 27.0287C29.9448 28.2923 29.6602 29.556 29.3496 30.7953C29.3238 30.8682 29.2979 30.9411 29.2979 31.014C29.272 31.1112 29.2203 31.1355 29.1167 31.1355C28.4439 31.1355 27.7452 31.1355 27.0724 31.1355C26.9947 31.1355 26.943 31.0869 26.943 31.014C26.9689 30.6495 26.9947 30.285 27.0206 29.9205C27.0465 29.5317 27.0983 29.1429 27.1241 28.754C27.1759 28.2923 27.2018 27.8063 27.2535 27.3446C27.2535 27.2474 27.2535 27.1502 27.2276 27.053C27.0983 26.5913 26.8654 26.1782 26.5289 25.8137C26.0114 25.2548 25.3127 25.0118 24.5363 25.0604C23.4236 25.1576 22.4661 25.5707 21.638 26.2511C21.0428 26.7371 20.6546 27.3446 20.4217 28.0493C20.3441 28.2923 20.2923 28.511 20.2923 28.754C20.2923 29.2158 20.2923 29.6046 20.2923 29.9934Z" fill="white"/>
<path fill-rule="evenodd" clip-rule="evenodd" d="M115.071 27.1998C115.119 27.2955 115.214 27.3195 115.262 27.3913C115.951 27.9419 116.641 28.5165 117.307 29.115C117.996 29.7136 118.662 30.3121 119.328 30.9585C119.518 31.15 119.708 31.3415 119.922 31.5091C120.231 31.7485 120.255 32.2992 119.946 32.6104C119.803 32.7541 119.637 32.8977 119.494 33.0174C119.328 33.1371 119.138 33.2329 118.924 33.2329C118.876 33.2329 118.828 33.2329 118.805 33.2329C118.472 33.2568 118.234 33.1371 117.996 32.9216C117.521 32.4428 117.021 31.9879 116.498 31.557C115.999 31.15 115.523 30.7191 115.048 30.3121C114.738 30.0487 114.429 29.7854 114.12 29.546C114.049 29.4741 113.954 29.4023 113.859 29.3784C113.764 29.3544 113.645 29.4263 113.645 29.522C113.716 29.953 113.645 30.4078 113.716 30.8627C113.811 31.5331 113.93 32.2034 113.882 32.8738C113.882 33.0413 113.835 33.2089 113.74 33.3765C113.645 33.5202 113.526 33.6399 113.383 33.6877C113.026 33.8314 112.646 33.8793 112.266 33.7835C112.051 33.7356 111.909 33.6159 111.814 33.4005C111.528 32.754 111.338 32.0598 111.195 31.3655C111.1 30.9106 111.053 30.4557 110.981 30.0248C110.863 29.0911 110.839 28.1335 110.863 27.1998C110.886 26.7209 110.91 26.2421 110.958 25.7633C110.981 25.5 111.005 25.2366 111.029 24.9733C111.077 24.5663 111.124 24.1832 111.148 23.7762C111.172 23.4171 111.172 23.058 111.124 22.6989C111.077 22.4116 111.077 22.1482 111.029 21.8609C111.005 21.5976 110.958 21.3342 110.934 21.047C110.863 20.4963 110.791 19.9696 110.863 19.419C110.91 19.012 110.981 18.605 111.148 18.2219C111.267 18.0065 111.409 17.8389 111.647 17.7192C111.861 17.6234 112.075 17.5516 112.289 17.5276C112.551 17.5037 112.812 17.4798 113.05 17.5276C113.336 17.5995 113.597 17.8628 113.621 18.1501C113.621 18.198 113.621 18.2698 113.621 18.3177C113.621 19.5866 113.645 20.8554 113.621 22.1004C113.597 22.9383 113.597 23.7523 113.573 24.5902C113.573 24.8536 113.621 25.1408 113.621 25.4042C113.621 25.5239 113.692 25.5718 113.811 25.5957C114.025 25.6197 114.215 25.5957 114.382 25.4521C114.691 25.1648 115.024 24.9014 115.357 24.6381C115.737 24.3029 116.165 24.0635 116.665 23.9677C116.879 23.9199 117.069 23.9438 117.283 23.9917C117.568 24.0396 117.83 24.1832 118.068 24.3747C118.258 24.5423 118.305 24.7578 118.21 24.9972C118.139 25.1887 117.972 25.3324 117.806 25.4521C117.378 25.7154 116.926 25.9788 116.498 26.2421C116.141 26.4337 115.809 26.6491 115.476 26.8885C115.357 26.9843 115.238 27.104 115.119 27.1998C115.119 27.1279 115.095 27.1519 115.071 27.1998Z" fill="white"/>
<path fill-rule="evenodd" clip-rule="evenodd" d="M89.0433 21.7557C89.0433 22.8803 89.0433 24.0289 89.0433 25.1535C89.0433 25.2492 89.0433 25.321 89.0433 25.4167C89.0433 25.5124 89.0911 25.5842 89.2106 25.5842C89.3301 25.6082 89.4496 25.6082 89.5691 25.6082C89.6408 25.6082 89.6886 25.5603 89.7364 25.5124C90.071 25.2253 90.4295 24.9621 90.764 24.651C91.0269 24.4357 91.2898 24.2442 91.6005 24.1007C92.2696 23.7657 92.9149 23.8853 93.5124 24.2921C93.7036 24.4117 93.7753 24.7228 93.6797 24.9142C93.5841 25.1296 93.4407 25.2971 93.2256 25.4167C92.6281 25.7517 92.0546 26.1106 91.4571 26.4696C91.1464 26.6371 90.8835 26.8524 90.6206 27.0678C90.4534 27.1874 90.4534 27.2592 90.6206 27.3788C90.9552 27.642 91.3137 27.9292 91.6483 28.1924C92.0307 28.5035 92.3891 28.8145 92.7715 29.1495C93.5602 29.8434 94.3488 30.5374 95.0897 31.2552C95.2092 31.3748 95.3287 31.4706 95.4482 31.5902C95.735 31.8773 95.735 32.2602 95.4721 32.5473C95.3048 32.7148 95.1375 32.8823 94.9463 33.0259C94.779 33.1695 94.5639 33.2412 94.3488 33.2412C94.2532 33.2412 94.1815 33.2412 94.0859 33.2412C93.847 33.2412 93.6558 33.1455 93.5124 33.002C93.1778 32.667 92.8193 32.332 92.4608 32.0209C91.9112 31.5423 91.3615 31.0638 90.7879 30.6091C90.3578 30.2502 89.9276 29.8913 89.4974 29.5084C89.4257 29.4606 89.3779 29.3888 89.2823 29.3649C89.1628 29.3409 89.0672 29.3888 89.0911 29.5084C89.0911 29.7956 89.0672 30.0827 89.115 30.3938C89.1867 30.8484 89.2106 31.3031 89.2823 31.7577C89.3301 32.1166 89.3301 32.4755 89.354 32.8345C89.354 33.2891 89.0911 33.6002 88.6849 33.7437C88.3742 33.8394 88.0396 33.8634 87.7289 33.7916C87.5138 33.7437 87.3704 33.648 87.2987 33.4327C87.1792 33.1455 87.0597 32.8584 86.9642 32.5473C86.7491 31.8773 86.6057 31.1834 86.5101 30.4895C86.4623 30.1784 86.4384 29.8674 86.4145 29.5563C86.3189 28.6231 86.3428 27.7138 86.3667 26.7806C86.3667 26.3739 86.4384 25.9671 86.4623 25.5364C86.4862 25.2971 86.5101 25.0339 86.534 24.7946C86.5818 24.4117 86.6296 24.0289 86.6535 23.6221C86.6535 23.5025 86.6774 23.3828 86.6535 23.2632C86.6057 22.8086 86.5818 22.3539 86.534 21.8993C86.4862 21.4686 86.3906 21.0618 86.3667 20.6311C86.3189 19.9611 86.295 19.315 86.4862 18.645C86.534 18.5254 86.5579 18.4058 86.6296 18.2861C86.773 17.9751 87.0119 17.7358 87.3226 17.6401C87.7289 17.5204 88.1352 17.4486 88.5654 17.5444C88.8282 17.5922 89.0672 17.8315 89.0911 18.0947C89.0911 18.1904 89.0911 18.2622 89.0911 18.3579C89.0433 19.4825 89.0433 20.6072 89.0433 21.7557Z" fill="white"/>
<path fill-rule="evenodd" clip-rule="evenodd" d="M15.167 11.5317C15.167 11.1151 15.2603 10.7218 15.3535 10.3052C15.5867 9.26391 15.9598 8.26887 16.3562 7.27383C16.8692 5.97796 17.4755 4.72837 18.0818 3.47879C18.1751 3.3168 18.2683 3.15482 18.3849 2.99284C18.9912 2.1135 19.7141 1.32672 20.5769 0.678788C21.1132 0.30854 21.6728 0.0539945 22.3258 0.0077135C22.932 -0.0385675 23.515 0.123416 24.0047 0.493664C24.3078 0.725069 24.4477 1.04904 24.4944 1.41928C24.5177 1.78953 24.4711 2.13664 24.3778 2.48375C24.1912 3.13168 23.9114 3.73333 23.585 4.31185C22.9554 5.46887 22.1859 6.55647 21.393 7.5978C20.95 8.17631 20.4836 8.75482 20.0172 9.33333C19.5742 9.8887 19.1078 10.4441 18.6181 10.9532C18.5249 11.0457 18.4549 11.1846 18.3849 11.3003C18.0818 11.7631 17.7553 12.2028 17.289 12.5036C17.0325 12.6887 16.7526 12.8044 16.4495 12.8275C16.193 12.8507 15.9365 12.8044 15.7033 12.6887C15.4002 12.5499 15.2369 12.2953 15.1903 11.9713C15.167 11.8325 15.167 11.6705 15.167 11.5317Z" fill="white"/>
<path fill-rule="evenodd" clip-rule="evenodd" d="M11.667 44.1025C11.8598 44.0157 12.0767 44.0157 12.2695 43.9723C12.6791 43.8855 13.0888 43.842 13.4985 43.7769C14.1492 43.6684 14.7999 43.5598 15.4505 43.4296C16.2458 43.2993 17.0169 43.1691 17.8122 43.0388C18.728 42.8869 19.6437 42.7349 20.5595 42.6047C21.3548 42.4744 22.1741 42.3442 22.9694 42.2139C23.6441 42.1054 24.2948 41.9968 24.9696 41.91C25.6685 41.8015 26.3914 41.6712 27.0903 41.5627C27.6928 41.4758 28.2952 41.389 28.8977 41.3022C29.3797 41.237 29.8617 41.1502 30.3436 41.0851C30.7774 41.02 31.2112 40.9982 31.645 40.9331C32.0547 40.868 32.4884 40.8897 32.8981 40.868C33.2837 40.8246 33.6693 40.8246 34.0549 40.8463C34.6333 40.868 35.1875 40.8897 35.7659 40.9331C36.4889 41.02 37.2118 41.1285 37.9107 41.3673C38.4409 41.541 38.947 41.758 39.3807 42.0837C39.7663 42.3876 39.7422 42.3225 39.4289 42.6047C38.8988 43.104 38.3927 43.5815 37.8625 44.0808C37.8143 44.1243 37.7902 44.146 37.742 44.1894C37.5733 44.3413 37.5492 44.3631 37.3805 44.1894C37.1877 43.994 36.9226 43.8855 36.6576 43.7986C36.1756 43.625 35.6936 43.5381 35.1875 43.473C34.3682 43.3862 33.5729 43.4079 32.7535 43.4296C32.4162 43.4296 32.0788 43.4947 31.7414 43.5164C31.4522 43.5381 31.163 43.5381 30.8979 43.5815C30.44 43.625 29.9822 43.625 29.5243 43.6684C29.0182 43.7335 28.488 43.6901 27.982 43.7552C27.9579 43.7552 27.9338 43.7552 27.9097 43.7552C27.4036 43.7769 26.8734 43.7986 26.3673 43.8203C25.789 43.842 25.1865 43.8855 24.6081 43.9289C24.584 43.9289 24.5599 43.9289 24.5358 43.9289C24.0538 43.9506 23.5478 43.9723 23.0658 43.994C22.7043 44.0157 22.3187 44.0591 21.9572 44.0808C21.8849 44.0808 21.8367 44.0808 21.7644 44.1025C21.3307 44.1243 20.921 44.1677 20.4872 44.2111C20.2221 44.2328 19.957 44.2545 19.6919 44.2762C19.2581 44.3196 18.8244 44.3631 18.3906 44.4065C17.9086 44.4716 17.4266 44.5584 16.9447 44.6236C16.2699 44.7321 15.5951 44.8623 14.9203 45.036C14.4625 45.1446 14.0287 45.2748 13.5949 45.4702C13.4985 45.5136 13.4262 45.5136 13.3298 45.4268C12.9201 45.1011 12.4864 44.7538 12.0767 44.4282C11.9562 44.3631 11.7875 44.2762 11.667 44.1025Z" fill="white"/>
<path fill-rule="evenodd" clip-rule="evenodd" d="M50.4142 28.3084C50.7877 27.6803 51.0679 27.0019 51.3247 26.3236C51.7449 25.2683 52.0484 24.188 52.3519 23.0825C52.5854 22.2785 52.8189 21.4997 53.029 20.6957C53.1691 20.1681 53.5193 19.8917 54.0329 19.8415C54.3364 19.8163 54.6166 19.8415 54.9201 19.9168C55.2703 20.0173 55.5972 20.2183 55.8773 20.4444C55.9707 20.5198 56.0174 20.6203 55.994 20.7459C55.9474 20.9972 55.9007 21.2484 55.8306 21.4745C55.8073 21.5499 55.7372 21.6253 55.6672 21.7007C55.1069 22.3037 55.247 22.1278 55.0135 22.9569C54.1963 25.997 53.099 28.9114 51.7683 31.7253C51.7216 31.8258 51.6749 31.9012 51.6282 32.0017C51.4414 32.3535 51.1379 32.5545 50.7644 32.6298C50.6009 32.655 50.4608 32.6801 50.2974 32.655C50.1106 32.6298 49.9472 32.5545 49.7838 32.4037C49.4569 32.0771 49.1768 31.7002 48.92 31.2982C48.4297 30.5445 48.0328 29.7405 47.6826 28.9114C47.3791 28.1828 47.0522 27.4542 46.702 26.7507C46.2818 25.8965 45.9082 25.0422 45.6047 24.1377C45.5814 24.0624 45.558 23.987 45.5347 23.9116C45.4413 23.5096 45.5347 23.1579 45.8382 22.9066C46.0483 22.7308 46.2818 22.6051 46.5386 22.5298C46.8654 22.4544 47.1689 22.4544 47.4725 22.5549C47.6826 22.6303 47.846 22.7559 47.9861 22.9318C48.1729 23.2081 48.3363 23.5096 48.4764 23.8111C48.7098 24.2885 48.8966 24.791 49.06 25.2935C49.2935 25.997 49.527 26.7256 49.8305 27.4039C49.9472 27.6552 50.0873 27.9064 50.204 28.1577C50.2974 28.1828 50.3208 28.2582 50.4142 28.3084Z" fill="white"/>
<path fill-rule="evenodd" clip-rule="evenodd" d="M132.074 27.179C132.155 27.1559 132.182 27.0866 132.209 27.0404C132.506 26.6247 132.803 26.2321 133.127 25.8395C133.37 25.5393 133.667 25.2852 134.018 25.1005C134.45 24.8464 134.909 24.754 135.422 24.8233C135.449 24.8233 135.503 24.8233 135.53 24.8233C135.827 24.8233 136.016 24.9157 136.151 25.1698C136.61 25.955 136.934 26.7402 137.123 27.5947C137.231 28.1028 137.312 28.6109 137.366 29.119C137.393 29.4885 137.393 29.8811 137.447 30.2506C137.501 30.6664 137.474 31.0821 137.527 31.4747C137.581 31.8673 137.527 32.2599 137.635 32.6294C137.689 32.7911 137.662 32.9758 137.635 33.1606C137.635 33.3685 137.501 33.5532 137.258 33.6225C136.826 33.738 136.367 33.8535 135.881 33.8304C135.8 33.8304 135.746 33.8304 135.665 33.8073C135.368 33.738 135.233 33.5994 135.206 33.3454C135.152 32.7449 135.071 32.1444 135.044 31.5671C135.017 31.1744 135.017 30.7818 134.99 30.3661C134.936 29.7426 134.909 29.119 134.828 28.4723C134.801 28.1721 134.747 27.8719 134.693 27.5716C134.693 27.5023 134.666 27.4562 134.639 27.3869C134.612 27.3407 134.585 27.3407 134.558 27.3638C134.477 27.4331 134.369 27.5023 134.315 27.5947C134.153 27.7795 134.018 27.9873 133.883 28.1721C133.505 28.7495 133.235 29.373 132.938 29.9966C132.641 30.6894 132.317 31.3592 131.912 32.029C131.831 32.1906 131.723 32.3061 131.561 32.4447C131.21 32.7218 130.805 32.768 130.346 32.6756C130.13 32.6294 129.968 32.5139 129.833 32.3292C129.698 32.0982 129.617 31.8673 129.59 31.6132C129.563 31.4285 129.563 31.2668 129.536 31.0821C129.482 30.7818 129.563 30.4816 129.617 30.1814C129.671 29.8811 129.752 29.5578 129.806 29.2576C129.86 29.0035 129.833 28.7264 129.806 28.4723C129.752 28.0566 129.644 27.6178 129.563 27.2021C129.455 26.5324 129.482 25.8626 129.671 25.1928C129.725 25.0543 129.752 24.9388 129.86 24.8233C130.049 24.6155 130.292 24.5231 130.589 24.5C130.751 24.5 130.94 24.5 131.102 24.5C131.48 24.5 131.912 24.7771 132.02 25.1698C132.101 25.47 132.02 25.724 131.966 26.0012C131.939 26.1628 131.885 26.3245 131.831 26.4862C131.804 26.5555 131.804 26.6247 131.777 26.694C131.804 26.9712 131.804 26.9712 132.074 27.179Z" fill="white"/>
<path fill-rule="evenodd" clip-rule="evenodd" d="M65.2526 24.6209C65.2794 26.4191 65.3062 28.2173 65.2794 30.0155C65.2794 30.7588 65.1723 31.4781 64.9848 32.1734C64.8776 32.5091 64.7705 32.8447 64.6097 33.1564C64.3954 33.612 64.0204 33.8757 63.3239 33.8277C63.0293 33.8038 62.7346 33.7318 62.4399 33.612C62.0917 33.4681 61.9042 33.2044 61.8506 32.8687C61.8238 32.6529 61.8238 32.4371 61.8774 32.2213C62.1721 31.2383 62.306 30.2313 62.3596 29.2243C62.4667 27.546 62.4935 25.8437 62.5203 24.1654C62.5203 23.542 62.4667 22.9426 62.3864 22.3432C62.306 21.6239 62.1988 20.9046 62.1988 20.1853C62.1988 19.7058 62.2256 19.2503 62.3864 18.7947C62.4399 18.6269 62.5203 18.4351 62.6274 18.2912C62.8685 17.8596 63.2704 17.6199 63.7793 17.524C64.0204 17.5 64.2883 17.476 64.5294 17.548C64.8508 17.6439 65.0651 17.8117 65.1991 18.0994C65.2526 18.2433 65.2794 18.3871 65.3062 18.5549C65.333 18.9865 65.333 19.4181 65.333 19.8736C65.2526 21.4561 65.2259 23.0385 65.2526 24.6209Z" fill="white"/>
<path fill-rule="evenodd" clip-rule="evenodd" d="M69.9464 21.7508C69.9464 22.6853 69.9196 23.5959 69.9464 24.5304C69.9732 26.3276 69.9732 28.1008 69.9732 29.8979C69.9732 30.6647 69.8661 31.4315 69.6518 32.1983C69.5714 32.5338 69.4375 32.8453 69.2767 33.1568C69.0624 33.6121 68.6874 33.8757 67.9909 33.8277C67.6963 33.8038 67.4016 33.7319 67.1069 33.6121C66.7587 33.4683 66.5712 33.2047 66.5176 32.8693C66.4908 32.6536 66.4908 32.4379 66.5444 32.2223C66.8123 31.2638 66.973 30.3053 67.0266 29.3228C67.1337 27.6215 67.1605 25.8962 67.1873 24.1949C67.1873 23.5719 67.1337 22.9249 67.0534 22.3019C66.973 21.607 66.8658 20.8881 66.8658 20.1932C66.8658 19.7379 66.8658 19.2826 67.0266 18.8274C67.0801 18.6596 67.1605 18.4679 67.2409 18.3002C67.482 17.8689 67.857 17.6053 68.3927 17.5334C68.6606 17.4855 68.9285 17.4855 69.1964 17.5574C69.5178 17.6532 69.7321 17.8209 69.8661 18.1085C69.9196 18.2523 69.9464 18.3721 69.9732 18.5159C70 18.8753 70 19.2108 70 19.5702C70 20.2891 69.9732 21.0319 69.9464 21.7508Z" fill="white"/>
<path fill-rule="evenodd" clip-rule="evenodd" d="M109.64 19.7653C109.64 20.1009 109.667 20.4365 109.64 20.7721C109.56 21.9468 109.613 23.0974 109.587 24.272C109.587 24.5357 109.587 24.8234 109.64 25.0871C109.667 25.3508 109.64 25.6384 109.613 25.9021C109.613 25.974 109.587 26.0459 109.587 26.1178C109.667 26.6213 109.613 27.1486 109.64 27.652C109.64 28.1794 109.613 28.7068 109.64 29.2342C109.667 29.7616 109.613 30.3129 109.56 30.8403C109.479 31.6074 109.318 32.3745 108.97 33.0936C108.675 33.669 108.192 33.9087 107.468 33.8128C107.2 33.7648 106.959 33.7169 106.744 33.597C106.449 33.4532 106.288 33.2135 106.208 32.9258C106.128 32.6621 106.181 32.3984 106.235 32.1587C106.396 31.5834 106.503 31.0081 106.583 30.4328C106.664 29.8574 106.691 29.2821 106.744 28.7068C106.798 27.8918 106.798 27.1007 106.798 26.2856C106.798 25.7343 106.852 25.1829 106.878 24.6316C106.878 24.0083 106.852 23.3851 106.798 22.7618C106.744 22.2584 106.664 21.779 106.61 21.2756C106.583 20.7721 106.476 20.2687 106.53 19.7653C106.583 19.2619 106.691 18.7585 106.959 18.2791C107.2 17.8716 107.576 17.6318 108.085 17.536C108.326 17.488 108.568 17.488 108.809 17.536C109.238 17.6318 109.506 17.8716 109.587 18.2791C109.64 18.4709 109.667 18.6866 109.667 18.9023C109.64 19.19 109.64 19.4777 109.64 19.7653Z" fill="white"/>
<path fill-rule="evenodd" clip-rule="evenodd" d="M22.3096 48.9936C21.987 48.9936 21.6396 48.9936 21.2673 48.9936C20.8951 48.9936 20.5229 48.921 20.1506 48.8726C19.8777 48.8484 19.6295 48.7759 19.3565 48.7275C18.7362 48.6066 18.1654 48.4131 17.5946 48.1712C17.0239 47.9294 16.478 47.6391 16.0065 47.2522C15.7583 47.0587 15.5102 46.8652 15.2868 46.6475C15.2372 46.5991 15.2124 46.5749 15.1875 46.5266C15.1379 46.4782 15.1875 46.4056 15.2372 46.4056C15.4605 46.4056 15.6839 46.4056 15.9072 46.4056C16.1305 46.4056 16.3539 46.4298 16.5772 46.3573C16.6517 46.3331 16.7261 46.3573 16.8254 46.3573C17.2472 46.3573 17.6691 46.3573 18.0661 46.3573C18.2647 46.3573 18.4632 46.3573 18.6617 46.3089C18.7362 46.2847 18.8106 46.3089 18.9099 46.3089C19.2076 46.3089 19.5302 46.3089 19.828 46.3089C19.9769 46.3089 20.1258 46.3089 20.2747 46.2605C20.374 46.2363 20.498 46.2363 20.6221 46.2363C20.9695 46.2122 21.317 46.2605 21.6644 46.188C21.7636 46.1638 21.8877 46.188 22.0118 46.188C22.2599 46.188 22.4833 46.2122 22.7066 46.1396C22.7811 46.1154 22.8307 46.1396 22.9051 46.1396C23.1037 46.1396 23.3022 46.1396 23.5007 46.0912C23.5503 46.067 23.6248 46.0912 23.6744 46.0912C24.3196 46.0428 24.94 45.9703 25.5604 45.801C25.7837 45.7526 26.0071 45.7284 26.2304 45.6801C26.6026 45.6075 26.9997 45.6801 27.3719 45.5833C27.4464 45.5591 27.5456 45.5833 27.6449 45.5591C28.0419 45.5349 28.4638 45.5833 28.8608 45.5107C28.9353 45.4866 28.9849 45.5107 29.0594 45.5107C30.5483 45.5107 32.0124 45.5107 33.5013 45.5107C33.6006 45.5107 33.675 45.5107 33.7743 45.5107C33.8239 45.5107 33.8487 45.5833 33.8239 45.6075C33.6006 45.9219 33.3276 46.2122 33.0298 46.454C32.4591 46.8894 31.8139 47.2038 31.1439 47.494C30.1512 47.9052 29.109 48.1954 28.0667 48.4373C27.5208 48.5582 26.9997 48.655 26.4537 48.7275C25.9326 48.8001 25.4115 48.8726 24.8904 48.921C24.0218 48.9694 23.1781 49.0178 22.3096 48.9936Z" fill="white"/>
<path fill-rule="evenodd" clip-rule="evenodd" d="M15.1667 8.09227C15.1404 8.96091 15.1404 9.77992 15.0877 10.5989C15.0614 11.1449 14.8773 11.6661 14.5879 12.1377C14.509 12.2617 14.4038 12.3858 14.2985 12.4851C13.9828 12.8077 13.5882 12.907 13.1147 12.7829C12.6675 12.6588 12.2729 12.4355 11.9309 12.1625C11.4311 11.7406 11.0628 11.2442 10.7734 10.6734C10.6945 10.5245 10.6419 10.3756 10.6419 10.2266C10.6155 9.92883 10.5892 9.63101 10.5629 9.30837C10.5103 8.58864 10.484 7.86891 10.5103 7.14918C10.5366 6.20608 10.6419 5.26299 10.8523 4.31989C11.0102 3.69943 11.2206 3.07898 11.5626 2.53297C11.852 2.08625 12.194 1.68915 12.6675 1.39133C12.8516 1.26724 13.0621 1.16797 13.2989 1.16797C13.5356 1.16797 13.7198 1.21761 13.8776 1.36652C14.0092 1.49061 14.1407 1.63952 14.2196 1.78843C14.4038 2.11106 14.5353 2.45852 14.6405 2.83079C14.7984 3.3768 14.8773 3.9228 14.9562 4.49362C15.0614 5.28781 15.0877 6.05717 15.1141 6.85136C15.1141 7.29809 15.1404 7.72 15.1667 8.09227Z" fill="white"/>
<path fill-rule="evenodd" clip-rule="evenodd" d="M2.54552 29.1108C2.30225 29.1108 2.08601 29.0835 1.84274 29.029C1.41026 28.8926 1.19402 28.5925 1.16699 28.1288C1.16699 27.7742 1.24808 27.4196 1.38323 27.0922C1.59947 26.5467 1.86977 26.0284 2.1671 25.5374C2.81582 24.4735 3.57266 23.5188 4.38356 22.5641C4.78901 22.073 5.22149 21.6093 5.681 21.2001C6.19457 20.7364 6.7622 20.3272 7.38389 20.0545C7.70825 19.9181 8.03261 19.809 8.384 19.8362C8.81648 19.8362 9.11381 20.109 9.22193 20.4636C9.35708 20.8728 9.38411 21.282 9.22193 21.7184C8.6543 23.3824 7.95152 24.9645 6.92438 26.4103C6.43784 27.0922 5.87021 27.7196 5.19446 28.2379C4.54574 28.7289 3.84296 29.0563 3.05909 29.1654C2.89691 29.0835 2.7077 29.0835 2.54552 29.1108Z" fill="white"/>
<path fill-rule="evenodd" clip-rule="evenodd" d="M13.6885 22.1667C12.9717 22.1412 12.2548 22.1412 11.538 22.0394C10.9805 21.9631 10.4495 21.8613 9.94505 21.5814C9.14856 21.1235 8.61757 20.4365 8.35208 19.5968C7.95384 18.4264 8.19278 16.6707 9.12201 15.6275C9.83885 14.8133 10.715 14.279 11.8035 14.0754C12.5469 13.9228 13.2637 13.9991 13.954 14.3299C14.4585 14.5843 14.8301 14.966 15.1222 15.4494C15.2018 15.5766 15.1753 15.6021 15.0425 15.653C14.4585 15.8565 13.9275 16.1618 13.5027 16.5944C12.892 17.1796 12.5734 17.892 12.5203 18.7063C12.4672 19.3678 12.5469 20.0039 12.7062 20.64C12.7858 20.8945 12.8655 21.1489 12.9982 21.3779C13.1575 21.6323 13.3434 21.8868 13.6089 22.0649C13.6354 22.0649 13.6885 22.0903 13.6885 22.1667Z" fill="white"/>
<path fill-rule="evenodd" clip-rule="evenodd" d="M2.03675 10.5549C2.38935 10.5275 2.69494 10.6922 3.00053 10.8294C3.32963 10.9941 3.63521 11.1863 3.9408 11.4059C4.41094 11.7353 4.85757 12.1196 5.2807 12.5039C5.53927 12.751 5.72733 13.0255 5.93889 13.3275C6.29149 13.8216 6.59708 14.3706 6.80864 14.9745C6.92618 15.3039 7.02021 15.6608 6.9967 16.0176C6.9967 16.1 6.9967 16.1824 6.97319 16.2647C6.80864 16.7863 6.55007 17.2255 6.07993 17.4176C5.82135 17.5275 5.53927 17.5275 5.25719 17.4176C4.55198 17.1431 3.87028 16.7863 3.2356 16.2922C2.62442 15.7706 2.08376 15.1667 1.70765 14.398C1.37855 13.7392 1.16699 13.0255 1.16699 12.2294C1.16699 12.0098 1.16699 11.8176 1.16699 11.598C1.16699 11.4059 1.21401 11.2137 1.28453 11.0216C1.42557 10.6647 1.66064 10.5 1.98973 10.5C1.98973 10.5549 2.01324 10.5549 2.03675 10.5549Z" fill="white"/>
<path fill-rule="evenodd" clip-rule="evenodd" d="M57.3026 29.6938C57.3777 29.095 57.3527 28.392 57.3777 27.663C57.4027 27.0382 57.4528 26.4394 57.6281 25.8406C57.6782 25.6844 57.7283 25.5021 57.8034 25.3459C58.0037 24.8512 58.4044 24.5649 58.9052 24.5128C59.406 24.4607 59.8568 24.5649 60.2574 24.8773C60.3576 24.9554 60.4327 25.0335 60.5078 25.1116C60.6831 25.3719 60.7332 25.6583 60.5579 25.9447C60.2574 26.4654 60.1573 27.0122 60.1322 27.611C60.1072 28.1317 60.0821 28.6784 60.007 29.1991C60.007 29.2772 59.982 29.3293 59.9569 29.4074C59.8568 29.7719 59.8317 30.1364 59.8317 30.5008C59.8317 31.0736 59.8568 31.6724 59.8568 32.2452C59.8568 32.5316 59.8568 32.844 59.8317 33.1304C59.8317 33.2606 59.8067 33.3647 59.7566 33.4688C59.7316 33.573 59.6564 33.6251 59.5563 33.6511C59.2057 33.7292 58.8551 33.8073 58.5045 33.8333C58.3543 33.8333 58.179 33.8073 58.0288 33.7813C57.6782 33.7032 57.4528 33.4688 57.3527 33.1044C57.2775 32.7919 57.2274 32.4795 57.2024 32.1671C57.1774 31.6724 57.1523 31.2038 57.1774 30.7091C57.2775 30.3967 57.2775 30.1103 57.3026 29.6938Z" fill="white"/>
<path fill-rule="evenodd" clip-rule="evenodd" d="M15.1101 27.0725C15.1101 27.7186 15.1101 28.3389 15.1101 28.985C15.1101 29.1401 15.0816 29.321 15.0247 29.4761C14.8255 29.9154 14.6263 30.3548 14.3133 30.7683C14.1711 30.9492 14.0288 31.1301 13.8296 31.2852C13.7158 31.3886 13.5735 31.4403 13.4312 31.492C13.232 31.5178 13.0328 31.492 12.8337 31.3886C12.6629 31.2852 12.5491 31.156 12.4353 31.0268C12.2076 30.7425 12.0369 30.4323 11.8946 30.0963C11.7808 29.8379 11.8093 29.5536 11.7808 29.2951C11.667 28.1321 11.6385 26.9432 11.6954 25.7802C11.7239 25.1082 11.8093 24.4104 12.0085 23.7643C12.0938 23.4541 12.2076 23.144 12.4068 22.8597C12.606 22.5495 12.8621 22.3428 13.2605 22.2136C13.602 22.1102 13.8865 22.1877 14.1141 22.3945C14.3133 22.5495 14.4556 22.7563 14.5694 22.9631C14.7686 23.3249 14.8824 23.7126 14.9678 24.1003C15.1101 24.6689 15.167 25.2633 15.167 25.8577C15.1101 26.1937 15.1101 26.6331 15.1101 27.0725Z" fill="white"/>
<path fill-rule="evenodd" clip-rule="evenodd" d="M7 19.6266C6.95193 19.7157 6.8558 19.7603 6.7837 19.8049C5.89445 20.3397 4.9331 20.7408 3.87562 20.919C2.98637 21.075 2.14519 21.0082 1.30401 20.6962C0.991571 20.5848 0.703166 20.4065 0.462829 20.1837C-0.138014 19.6266 -0.162047 18.7576 0.438795 18.1559C0.775267 17.8217 1.15981 17.6434 1.61645 17.532C1.68855 17.5097 1.76065 17.5097 1.83275 17.5097C2.48166 17.4651 3.10654 17.5765 3.73141 17.7994C4.54856 18.0891 5.31764 18.4902 6.03865 18.9581C6.37512 19.1809 6.71159 19.3815 7 19.6266Z" fill="white"/>
<path fill-rule="evenodd" clip-rule="evenodd" d="M8.23439 32.6654C8.20682 32.3695 8.17925 32.1005 8.17925 31.8315C8.17925 30.8901 8.15167 29.9756 8.17925 29.0342C8.20682 27.9046 8.26196 26.7749 8.45497 25.6721C8.53768 25.2686 8.6204 24.8921 8.75826 24.4886C8.8134 24.3003 8.89612 24.0852 9.03398 23.9238C9.3097 23.5203 9.66814 23.332 10.1644 23.332C10.4402 23.332 10.6607 23.4396 10.8537 23.601C11.0192 23.7355 11.157 23.8969 11.2673 24.0852C11.4879 24.4617 11.5982 24.8652 11.6533 25.2955C11.7085 26.1024 11.5982 26.8556 11.2949 27.6087C11.0192 28.3349 10.6607 29.0342 10.3023 29.7067C9.77843 30.6481 9.17184 31.5357 8.53768 32.3964C8.45497 32.4771 8.39982 32.5578 8.23439 32.6654Z" fill="white"/>
<path fill-rule="evenodd" clip-rule="evenodd" d="M4.66964 9.70281C4.66964 9.40741 4.72549 9.11202 4.86514 8.81662C5.00478 8.52123 5.2282 8.30639 5.59127 8.19898C5.75884 8.17212 5.92641 8.14527 6.06605 8.19898C6.48498 8.30639 6.82011 8.49437 7.12733 8.76291C7.37868 9.0046 7.63003 9.24629 7.82553 9.54168C8.16067 10.0519 8.49581 10.5353 8.74716 11.0992C8.85888 11.3409 8.97059 11.5557 8.97059 11.8243C8.97059 11.9048 9.02645 11.9854 9.05438 12.066C9.16609 12.3345 9.24987 12.6299 9.30573 12.8984C9.33366 13.0327 9.33366 13.167 9.33366 13.3013C9.33366 13.7578 9.02645 14.0263 8.49581 13.9995C8.27238 13.9995 8.07689 13.9189 7.88139 13.8383C7.43454 13.6504 7.01561 13.4355 6.65254 13.1401C6.03812 12.6568 5.53541 12.0928 5.14442 11.4215C4.83721 10.8844 4.64171 10.3205 4.66964 9.70281Z" fill="white"/>
<path fill-rule="evenodd" clip-rule="evenodd" d="M57.1771 21.6827C57.1771 21.3574 57.2369 21.0618 57.3266 20.7957C57.4462 20.5 57.6257 20.293 57.8948 20.1452C58.3733 19.8791 58.8817 19.7904 59.42 19.8495C59.7789 19.9087 60.1078 20.0565 60.3471 20.3226C60.6461 20.6478 60.706 21.0322 60.6461 21.4461C60.5564 21.9783 60.3172 22.4514 59.9284 22.8653C59.5097 23.3088 58.8518 23.4567 58.2537 23.2201C57.8649 23.0723 57.5958 22.8062 57.3565 22.5105C57.1771 22.2444 57.1472 21.9488 57.1771 21.6827Z" fill="white"/>
<path fill-rule="evenodd" clip-rule="evenodd" d="M78.3526 22.3752C79.1776 22.6267 79.7631 23.1297 80.1091 23.8591C80.4817 24.6387 80.5881 25.4686 80.4285 26.2986C80.3656 27.0514 80.2366 27.773 80.1067 28.5003C80.0716 28.6963 80.0365 28.8927 80.0027 29.0902C79.8962 29.7944 79.7897 30.4986 79.7365 31.2279L79.7365 31.2279C79.6833 32.0075 79.6301 32.7872 79.4704 33.5417C79.4172 33.8434 79.3107 34.1452 79.1776 34.4219C79.0978 34.5728 79.018 34.7237 78.8849 34.8243C78.672 35.0003 78.4058 35.0506 78.1397 34.95C77.9268 34.8746 77.7671 34.7488 77.6607 34.5979C77.5542 34.4722 77.4744 34.3464 77.3945 34.1955C77.2881 34.0195 77.1284 33.8937 76.8889 33.8686C76.6494 33.8309 76.4032 33.7931 76.157 33.7554C75.9108 33.7177 75.6647 33.68 75.4251 33.6423C75.2674 33.6159 75.1063 33.5927 74.9443 33.5693C74.6418 33.5256 74.3359 33.4814 74.0412 33.4159C72.8969 33.1896 72.0186 32.586 71.4597 31.6051C71.2202 31.1776 71.167 30.7249 71.167 30.2471C71.1936 29.9201 71.2202 29.5932 71.3001 29.2914C71.4065 28.8638 71.5928 28.4614 71.8589 28.1093C72.7638 26.9525 73.988 26.2734 75.4784 26.0219C76.2768 25.8962 77.1018 25.8962 77.9002 25.9465C78.2728 25.9465 78.2994 25.9465 78.3792 25.6195C78.4325 25.4183 78.4325 25.2171 78.4058 25.0159C78.3526 24.7393 78.2196 24.6136 77.9268 24.5633C77.3147 24.4375 76.676 24.4627 76.0639 24.6136C75.5643 24.7185 75.0776 24.8477 74.5949 24.9758C74.3832 25.032 74.1723 25.088 73.9614 25.1417C73.8816 25.1417 73.8017 25.1668 73.7219 25.192C73.4557 25.2423 73.2695 25.1668 73.0832 25.0159C73.0299 24.9656 72.9767 24.9153 72.9501 24.865C72.6573 24.4375 72.5509 23.9597 72.6041 23.4567C72.6307 23.3309 72.7106 23.2555 72.817 23.2052C73.3227 22.9537 73.8283 22.7022 74.3606 22.5261C75.1324 22.2998 75.9308 22.174 76.7824 22.174C77.2881 22.1489 77.8204 22.1992 78.3526 22.3752ZM77.7407 30.686C77.8205 30.403 77.9004 30.1201 77.9802 29.8434C78.0601 29.5668 78.0867 29.2901 78.0867 29.0386C78.0867 28.7369 78.0068 28.4099 77.9004 28.1081C77.8471 27.9321 77.8205 27.9321 77.6342 27.9572C77.2217 28.0327 76.8159 28.1144 76.41 28.1961C76.0042 28.2779 75.5983 28.3596 75.1858 28.4351C74.8132 28.5105 74.4406 28.6363 74.1213 28.8375C73.5624 29.1895 73.2963 29.6925 73.2696 30.3213C73.243 30.5476 73.3229 30.7488 73.5092 30.8997C73.6422 31.0003 73.7753 31.1009 73.935 31.1764C74.8398 31.6039 75.7979 31.8303 76.8092 31.8303C76.9423 31.8303 77.102 31.8051 77.235 31.78C77.3681 31.7548 77.4746 31.6794 77.5012 31.5285C77.581 31.2518 77.6608 30.9689 77.7407 30.686Z" fill="white"/>
<path fill-rule="evenodd" clip-rule="evenodd" d="M127.535 22.4493C128.251 22.7257 128.781 23.2281 129.099 23.9316C129.391 24.5596 129.524 25.2128 129.497 25.9414C129.47 26.2931 129.444 26.6449 129.391 26.9966C129.33 27.4847 129.235 27.9728 129.14 28.4609C129.069 28.827 128.997 29.1931 128.94 29.5591C128.861 30.0616 128.781 30.5892 128.755 31.1168C128.755 31.4936 128.702 31.8956 128.649 32.2976L128.569 33.0512C128.516 33.4783 128.384 33.9054 128.224 34.3325C128.171 34.4581 128.092 34.5837 128.012 34.6842C127.721 35.0611 127.217 35.1113 126.846 34.7847C126.752 34.718 126.7 34.6512 126.634 34.5669C126.625 34.5561 126.616 34.545 126.607 34.5335C126.568 34.4833 126.534 34.4267 126.501 34.3702C126.468 34.3137 126.435 34.2571 126.395 34.2069C126.289 34.031 126.13 33.9054 125.891 33.8803C125.719 33.8552 125.54 33.8238 125.361 33.7924C125.182 33.761 125.003 33.7296 124.831 33.7044C124.617 33.6675 124.399 33.634 124.178 33.6001C123.8 33.5418 123.414 33.4824 123.028 33.403C121.994 33.202 121.173 32.6995 120.616 31.8453C120.218 31.2424 120.112 30.6143 120.192 29.9109C120.218 29.6596 120.245 29.4084 120.324 29.1572C120.483 28.6045 120.801 28.1271 121.199 27.7C122.047 26.8207 123.081 26.268 124.327 26.0419L124.338 26.0399C125.018 25.916 125.154 25.8912 126.13 25.8912C126.289 25.9037 126.455 25.91 126.621 25.9163C126.786 25.9226 126.952 25.9289 127.111 25.9414C127.217 25.9414 127.27 25.9163 127.297 25.8409C127.307 25.8027 127.324 25.7607 127.343 25.718C127.372 25.6484 127.403 25.5765 127.403 25.5143C127.429 25.3636 127.429 25.1877 127.403 25.0119C127.376 24.7355 127.217 24.5848 126.952 24.5345C126.475 24.4592 126.024 24.4592 125.547 24.5094C125.071 24.5682 124.627 24.6883 124.178 24.8098C124.052 24.844 123.925 24.8783 123.797 24.9114C123.603 24.9538 123.418 25.0041 123.236 25.0535C123.094 25.0919 122.955 25.1296 122.816 25.1626C122.445 25.2631 122.206 25.1877 121.968 24.8862C121.756 24.6099 121.65 24.2833 121.623 23.9316C121.57 23.3537 121.597 23.3286 122.127 23.0523C122.869 22.6503 123.665 22.3991 124.513 22.2735C124.614 22.2634 124.714 22.2523 124.815 22.2413C125.218 22.1971 125.621 22.1529 126.024 22.173C126.528 22.1981 127.058 22.2735 127.535 22.4493ZM126.714 30.7138C126.778 30.5029 126.841 30.2941 126.899 30.0854C126.913 30.0214 126.928 29.9583 126.944 29.8962C127.011 29.6166 127.075 29.3568 127.031 29.1307C127.031 28.6533 126.978 28.4021 126.872 28.1006C126.819 27.9499 126.766 27.9248 126.607 27.9499C125.812 28.1258 125.043 28.2765 124.248 28.4272C123.903 28.5026 123.532 28.6031 123.214 28.779C122.604 29.1056 122.286 29.6331 122.259 30.3115C122.233 30.6129 122.365 30.8139 122.604 30.9898C122.71 31.0652 122.842 31.1405 122.948 31.1908C123.134 31.2913 123.32 31.3666 123.532 31.442C124.274 31.7184 125.069 31.8691 125.865 31.844C125.971 31.844 126.103 31.8188 126.209 31.7937C126.368 31.7435 126.448 31.6932 126.474 31.5425C126.549 31.2598 126.632 30.9851 126.714 30.7138Z" fill="white"/>
<path fill-rule="evenodd" clip-rule="evenodd" d="M102.778 22.3755C103.74 22.6516 104.355 23.2538 104.702 24.1069C104.916 24.6088 105.023 25.1106 104.996 25.763C104.996 26.3151 104.943 26.8671 104.863 27.4191C104.816 27.8009 104.741 28.1912 104.666 28.5852C104.613 28.8644 104.56 29.1455 104.515 29.4265C104.442 29.862 104.391 30.3184 104.342 30.7574C104.337 30.7991 104.333 30.8406 104.328 30.8819C104.321 30.9794 104.316 31.0785 104.311 31.179C104.296 31.4662 104.281 31.7637 104.221 32.0612C104.185 32.2302 104.173 32.4105 104.161 32.5946C104.156 32.6839 104.15 32.774 104.141 32.8642C104.114 33.3159 103.981 33.7675 103.82 34.2192C103.801 34.2558 103.782 34.2925 103.764 34.329C103.681 34.4924 103.599 34.6527 103.446 34.7963C103.152 35.0472 102.778 35.0723 102.457 34.8465C102.324 34.7461 102.217 34.6458 102.137 34.5203C102.098 34.4299 102.046 34.3526 101.989 34.2695C101.968 34.2373 101.945 34.2041 101.923 34.169C101.816 34.0184 101.682 33.9181 101.468 33.893C101.121 33.8428 100.774 33.7863 100.426 33.7299C100.079 33.6734 99.7312 33.617 99.3838 33.5668C99.2368 33.5417 99.0965 33.5166 98.9562 33.4915C98.8158 33.4664 98.6755 33.4413 98.5285 33.4162C97.6733 33.2406 96.925 32.8391 96.3637 32.1867C95.9094 31.6598 95.6421 31.0575 95.6688 30.3549C95.6688 30.0287 95.6956 29.7025 95.7757 29.3763C95.9094 28.7992 96.2033 28.2723 96.631 27.8206C97.5129 26.8922 98.582 26.3402 99.8648 26.0892C100.48 25.9889 101.068 25.9638 101.682 25.9638C101.843 25.9763 102.01 25.9826 102.177 25.9889C102.344 25.9951 102.511 26.0014 102.671 26.014C102.751 26.014 102.805 25.9889 102.831 25.9387C102.992 25.6125 103.045 25.2612 102.912 24.9099C102.858 24.7342 102.725 24.6339 102.537 24.6088C102.056 24.5084 101.575 24.5084 101.094 24.5586C100.583 24.6297 100.098 24.764 99.6115 24.8986C99.4118 24.9539 99.2119 25.0093 99.0096 25.0604C98.7423 25.1106 98.5018 25.1608 98.2613 25.2361C97.994 25.3114 97.7802 25.2361 97.5931 25.0604C97.3259 24.7844 97.1922 24.4582 97.1388 24.1069C97.112 23.9313 97.112 23.7305 97.112 23.5549C97.112 23.4043 97.1655 23.3291 97.2991 23.2538C97.7 23.028 98.1009 22.8021 98.5553 22.6516C99.1967 22.4257 99.8648 22.2752 100.56 22.225C100.633 22.2187 100.707 22.2109 100.78 22.203C101.001 22.1795 101.221 22.156 101.442 22.1748C101.896 22.1999 102.35 22.2501 102.778 22.3755ZM102.431 30.0053C102.477 29.8296 102.524 29.654 102.564 29.4783C102.644 29.0016 102.591 28.5248 102.431 28.0481C102.377 27.8975 102.35 27.8975 102.19 27.9226C101.362 28.0982 100.56 28.2488 99.758 28.3994C99.464 28.4495 99.1968 28.5248 98.9295 28.6503C98.2079 29.0016 97.7803 29.5285 97.7803 30.3064C97.7803 30.5573 97.8605 30.7831 98.0743 30.9337C98.1544 31.009 98.2346 31.0592 98.3415 31.1093C99.1968 31.561 100.132 31.7868 101.121 31.8119H101.549C101.593 31.8119 101.629 31.7967 101.661 31.783C101.688 31.7719 101.712 31.7617 101.736 31.7617C101.896 31.7366 102.003 31.6363 102.03 31.4857C102.07 31.3226 102.117 31.1658 102.163 31.009C102.21 30.8521 102.257 30.6953 102.297 30.5322C102.337 30.3566 102.384 30.1809 102.431 30.0053Z" fill="white"/>
</svg>
