<svg width="112" height="112" viewBox="0 0 112 112" fill="none" xmlns="http://www.w3.org/2000/svg">
<circle cx="56" cy="56" r="35.5" fill="#F5841F" fill-opacity="0.4" stroke="#F5841F"/>
<circle cx="56" cy="56" r="55.5" fill="#F5841F" fill-opacity="0.4" stroke="#F5841F"/>
<path d="M56.5 70.24C56.3645 70.2406 56.2302 70.2142 56.1051 70.1623C55.9799 70.1103 55.8664 70.0339 55.7712 69.9375L47.8512 62.0175C46.1385 60.3066 44.9717 58.1261 44.4985 55.7519C44.0253 53.3777 44.2669 50.9165 45.1928 48.6796C46.1186 46.4428 47.6871 44.5308 49.6999 43.1856C51.7126 41.8404 54.0791 41.1223 56.5 41.1223C58.9208 41.1223 61.2873 41.8404 63.3001 43.1856C65.3128 44.5308 66.8813 46.4428 67.8071 48.6796C68.733 50.9165 68.9746 53.3777 68.5014 55.7519C68.0282 58.1261 66.8614 60.3066 65.1487 62.0175L57.2287 69.9375C57.1335 70.0339 57.02 70.1103 56.8948 70.1623C56.7697 70.2142 56.6355 70.2406 56.5 70.24ZM56.5 43.1938C54.4886 43.1952 52.5227 43.7927 50.8508 44.9108C49.1788 46.029 47.8757 47.6175 47.1062 49.4759C46.3367 51.3343 46.1352 53.379 46.5272 55.3518C46.9192 57.3247 47.8871 59.137 49.3087 60.56L56.5 67.7513L63.6912 60.56C65.1128 59.137 66.0807 57.3247 66.4727 55.3518C66.8647 53.379 66.6632 51.3343 65.8937 49.4759C65.1242 47.6175 63.8211 46.029 62.1492 44.9108C60.4772 43.7927 58.5113 43.1952 56.5 43.1938Z" fill="white"/>
<path d="M56.5 57.9063C55.4802 57.9063 54.4833 57.6038 53.6353 57.0373C52.7874 56.4707 52.1265 55.6654 51.7362 54.7232C51.346 53.781 51.2439 52.7443 51.4428 51.7441C51.6418 50.7439 52.1329 49.8251 52.854 49.104C53.5751 48.3829 54.4939 47.8918 55.4941 47.6928C56.4943 47.4939 57.531 47.596 58.4732 47.9862C59.4154 48.3765 60.2207 49.0374 60.7873 49.8853C61.3538 50.7333 61.6563 51.7302 61.6563 52.75C61.6563 54.1175 61.113 55.429 60.146 56.396C59.179 57.363 57.8675 57.9063 56.5 57.9063ZM56.5 49.6563C55.8881 49.6563 55.29 49.8377 54.7812 50.1776C54.2724 50.5176 53.8759 51.0008 53.6418 51.5661C53.4076 52.1314 53.3463 52.7534 53.4657 53.3536C53.5851 53.9537 53.8797 54.5049 54.3124 54.9376C54.7451 55.3703 55.2963 55.6649 55.8964 55.7843C56.4966 55.9037 57.1186 55.8424 57.6839 55.6083C58.2492 55.3741 58.7324 54.9776 59.0724 54.4688C59.4123 53.96 59.5938 53.3619 59.5938 52.75C59.5938 51.9295 59.2678 51.1426 58.6876 50.5624C58.1074 49.9822 57.3205 49.6563 56.5 49.6563Z" fill="white"/>
</svg>
