<svg width="40" height="40" viewBox="0 0 40 40" fill="none" xmlns="http://www.w3.org/2000/svg">
    <path d="M38.75 13.75V35A3.754 3.754 0 0 1 35 38.75H5A3.754 3.754 0 0 1 1.25 35V13.75h37.5zm-15 14.108 3.75-4.285h-5.359L20 18.75l-2.141 4.823H12.5l3.75 4.285-1.609 5.892L20 30.538l5.359 3.212-1.609-5.892z" fill="#F5841F"/>
    <path d="M10 1.895v1.25h8.75v-1.25c0-.687.563-1.25 1.25-1.25s1.25.563 1.25 1.25v1.25H30v-1.25c0-.687.563-1.25 1.25-1.25s1.25.563 1.25 1.25v1.25H35a3.76 3.76 0 0 1 3.75 3.75v3.75H1.25v-3.75A3.76 3.76 0 0 1 5 3.145h2.5v-1.25c0-.687.563-1.25 1.25-1.25S10 1.208 10 1.895z" fill="#fff"/>
</svg>
