<svg width="28" height="28" viewBox="0 0 28 28" fill="none" xmlns="http://www.w3.org/2000/svg">
<path fill-rule="evenodd" clip-rule="evenodd" d="M3.3418 6.46875C3.93718 6.46875 4.4198 6.95137 4.4198 7.54675C4.4198 8.14213 3.93718 8.62475 3.3418 8.62475H1.078C0.482621 8.62475 0 8.14213 0 7.54675C0 6.95137 0.482621 6.46875 1.078 6.46875H3.3418ZM27.5965 7.54675C27.5965 6.95137 27.1138 6.46875 26.5185 6.46875H18.4335C17.8381 6.46875 17.3555 6.95137 17.3555 7.54675C17.3555 8.14213 17.8381 8.62475 18.4335 8.62475H26.5185C27.1138 8.62475 27.5965 8.14213 27.5965 7.54675ZM19.4886 17.4641C20.2862 17.4548 21.0698 17.1239 21.6385 16.5566C21.8408 16.3549 22.0941 16.2245 22.2842 16.2245C22.4703 16.2245 22.7135 16.3517 22.9187 16.5565C23.4971 17.1335 24.2979 17.4642 25.1162 17.4642H25.1181C25.9143 17.4638 26.7024 17.1329 27.2801 16.5566C27.7016 16.1361 27.7024 15.4536 27.282 15.032C26.8615 14.6106 26.179 14.6096 25.7575 15.0302C25.5805 15.2067 25.3469 15.3081 25.1167 15.3082H25.1162C24.8719 15.3082 24.6133 15.2017 24.4413 15.0302C23.8196 14.41 23.0535 14.0685 22.284 14.0685C21.5188 14.0685 20.7285 14.4191 20.1158 15.0302C19.944 15.2015 19.7 15.3055 19.4631 15.3083L19.4533 15.3083C19.2109 15.3083 18.9544 15.2023 18.7819 15.0302C18.1693 14.4191 17.3815 14.0685 16.6203 14.0685C15.8578 14.0685 15.069 14.419 14.4564 15.0302C14.2862 15.1999 14.0329 15.3065 13.7951 15.3082H13.7892C13.5497 15.3082 13.2947 15.202 13.1224 15.0301C12.5454 14.4545 11.7578 14.1237 10.9614 14.1224H10.9565C10.1507 14.1224 9.38383 14.4447 8.79686 15.0301C8.62438 15.2022 8.36711 15.3083 8.12348 15.3083L8.11454 15.3082C7.87856 15.3057 7.63499 15.2017 7.46294 15.0301C6.87656 14.4451 6.10865 14.1228 5.30069 14.1224H5.29923C4.48071 14.1224 3.70859 14.446 3.12501 15.0337C2.94919 15.2107 2.72039 15.3082 2.48064 15.3082H2.4801C2.24989 15.3081 2.01635 15.2067 1.83939 15.0301C1.41795 14.6096 0.735412 14.6105 0.314884 15.0319C-0.105644 15.4534 -0.104835 16.1359 0.316609 16.5565C0.902825 17.1413 1.67068 17.4637 2.4787 17.4642H2.48064C3.29917 17.4642 4.07123 17.1406 4.6548 16.5528C4.83063 16.3758 5.05943 16.2784 5.29918 16.2784H5.29961C5.52971 16.2785 5.76315 16.3798 5.94021 16.5565C6.50988 17.1248 7.29396 17.4556 8.09136 17.4641C8.91986 17.472 9.73245 17.1422 10.3195 16.5565C10.4994 16.3771 10.7256 16.2784 10.9566 16.2784H10.9579C11.1889 16.2788 11.4229 16.3801 11.5997 16.5565C12.1787 17.1341 12.9754 17.4642 13.7888 17.4642L13.8107 17.4641C14.6164 17.4583 15.4067 17.1274 15.979 16.5565C16.1843 16.3517 16.43 16.2245 16.6202 16.2245C16.8091 16.2245 17.0539 16.3517 17.2592 16.5565C17.8389 17.1347 18.6365 17.4643 19.4528 17.4643L19.4886 17.4641ZM19.4528 22.638C18.6364 22.638 17.8388 22.3083 17.2592 21.7302C17.0538 21.5253 16.8091 21.3981 16.6202 21.3981C16.43 21.3981 16.1843 21.5253 15.979 21.7302C15.4068 22.3011 14.6164 22.6319 13.8107 22.6378L13.7888 22.6378C12.9754 22.6378 12.1787 22.3077 11.5997 21.7301C11.4229 21.5537 11.1889 21.4524 10.9579 21.452H10.9566C10.7256 21.452 10.4994 21.5508 10.3195 21.7302C9.73245 22.3158 8.91985 22.6444 8.09135 22.6378C7.29396 22.6292 6.50987 22.2984 5.94021 21.7302C5.76314 21.5535 5.5297 21.4521 5.2996 21.452H5.29917C5.05943 21.452 4.83062 21.5495 4.6548 21.7265C4.07122 22.3142 3.29916 22.6378 2.48063 22.6378H2.47869C1.67068 22.6373 0.902819 22.315 0.316603 21.7301C-0.104842 21.3096 -0.10565 20.627 0.314878 20.2055C0.735406 19.7841 1.41794 19.7833 1.83939 20.2038C2.01634 20.3803 2.24983 20.4817 2.48009 20.4818H2.48063C2.72038 20.4818 2.94919 20.3844 3.12501 20.2074C3.70858 19.6196 4.4807 19.296 5.29923 19.296H5.30068C6.10864 19.2964 6.87656 19.6188 7.46293 20.2038C7.63493 20.3754 7.87856 20.4794 8.11453 20.4819L8.12348 20.4819C8.36716 20.4819 8.62437 20.3759 8.79685 20.2038C9.38506 19.6171 10.1526 19.2946 10.9614 19.296C11.7577 19.2973 12.5454 19.6282 13.1224 20.2038C13.2946 20.3756 13.5496 20.4818 13.7892 20.4818H13.7951C14.0328 20.4801 14.2862 20.3735 14.4564 20.2038C15.069 19.5926 15.8578 19.2422 16.6203 19.2422C17.3815 19.2422 18.1693 19.5927 18.7819 20.2038C18.9544 20.3759 19.2109 20.482 19.4533 20.482L19.4631 20.4819C19.7 20.4791 19.9441 20.3752 20.1158 20.2038C20.7285 19.5927 21.5187 19.2422 22.284 19.2422C23.0535 19.2421 23.8196 19.5836 24.4413 20.2038C24.6133 20.3754 24.8718 20.4819 25.1162 20.4819H25.1167C25.3469 20.4818 25.5804 20.3804 25.7575 20.2038C26.179 19.7833 26.8615 19.7842 27.282 20.2057C27.7024 20.6271 27.7016 21.3097 27.2801 21.7302C26.7023 22.3066 25.9143 22.6374 25.1181 22.6379H25.1162C24.2979 22.6379 23.4971 22.3071 22.9187 21.7302C22.7134 21.5254 22.4703 21.3982 22.2842 21.3982C22.0942 21.3982 21.8408 21.5285 21.6385 21.7302C21.0698 22.2976 20.2862 22.6284 19.4886 22.6378L19.4528 22.638ZM21.6385 26.6892C21.0698 27.2565 20.2862 27.5874 19.4886 27.5968L19.4528 27.597C18.6365 27.597 17.8388 27.2673 17.2592 26.6891C17.0538 26.4843 16.8091 26.3571 16.6202 26.3571C16.43 26.3571 16.1843 26.4844 15.979 26.6891C15.4067 27.2601 14.6164 27.5909 13.8107 27.5968L13.7888 27.5968C12.9754 27.5968 12.1787 27.2667 11.5997 26.6891C11.4229 26.5127 11.1889 26.4114 10.9579 26.411H10.9566C10.7256 26.411 10.4994 26.5097 10.3195 26.6891C9.73245 27.2748 8.91985 27.6036 8.09135 27.5968C7.29396 27.5882 6.50987 27.2574 5.94021 26.6891C5.76314 26.5125 5.5297 26.4111 5.2996 26.411H5.29917C5.05943 26.411 4.83062 26.5085 4.6548 26.6855C4.07122 27.2732 3.29916 27.5968 2.48063 27.5968H2.47869C1.67068 27.5963 0.902819 27.274 0.316603 26.6891C-0.104842 26.2686 -0.10565 25.586 0.314878 25.1645C0.735406 24.7431 1.41794 24.7423 1.83939 25.1627C2.01634 25.3393 2.24989 25.4407 2.48009 25.4408H2.48063C2.72038 25.4408 2.94919 25.3434 3.12501 25.1664C3.70858 24.5786 4.4807 24.255 5.29923 24.255H5.30068C6.10864 24.2554 6.87656 24.5778 7.46293 25.1627C7.63498 25.3344 7.87856 25.4383 8.11453 25.4409L8.12348 25.4409C8.36711 25.4409 8.62437 25.3349 8.79685 25.1627C9.38382 24.5773 10.1507 24.255 10.9565 24.255H10.9614C11.7578 24.2563 12.5454 24.5872 13.1224 25.1627C13.2946 25.3346 13.5496 25.4408 13.7892 25.4408H13.7951C14.0329 25.4391 14.2862 25.3325 14.4564 25.1628C15.069 24.5516 15.8578 24.2012 16.6203 24.2012C17.3815 24.2012 18.1693 24.5517 18.7819 25.1628C18.9544 25.3349 19.2109 25.441 19.4533 25.441L19.4631 25.4409C19.7 25.4381 19.944 25.3342 20.1158 25.1628C20.7285 24.5517 21.5188 24.2012 22.284 24.2012C23.0535 24.2011 23.8196 24.5426 24.4413 25.1628C24.6133 25.3343 24.8719 25.4409 25.1162 25.4409H25.1167C25.3469 25.4408 25.5804 25.3394 25.7575 25.1628C26.179 24.7423 26.8615 24.7431 27.282 25.1646C27.7024 25.5862 27.7016 26.2687 27.2801 26.6892C26.7024 27.2655 25.9143 27.5964 25.1181 27.5969H25.1162C24.2979 27.5969 23.4971 27.2661 22.9187 26.6891C22.7135 26.4844 22.4703 26.3572 22.2842 26.3572C22.0941 26.3572 21.8408 26.4875 21.6385 26.6892Z" fill="#102754"/>
<path d="M10.8877 0H10.3487C9.75336 0 9.27073 0.482621 9.27073 1.078C9.27073 1.67338 9.75336 2.156 10.3487 2.156H10.8877C12.0766 2.156 13.0437 3.12318 13.0437 4.312V6.468H8.73173V4.312C8.73173 1.93436 6.79737 0 4.41973 0H3.88073C3.28535 0 2.80273 0.482621 2.80273 1.078C2.80273 1.67338 3.28535 2.156 3.88073 2.156H4.41973C5.60855 2.156 6.57573 3.12318 6.57573 4.312V11.858C6.57573 12.4534 7.05835 12.936 7.65373 12.936C8.24911 12.936 8.73173 12.4534 8.73173 11.858V8.624H13.0437V11.858C13.0437 12.4534 13.5264 12.936 14.1217 12.936C14.7171 12.936 15.1997 12.4534 15.1997 11.858V4.312C15.1997 1.93436 13.2654 0 10.8877 0Z" fill="#F5841F"/>
</svg>
