<svg width="28" height="28" viewBox="0 0 28 28" fill="none" xmlns="http://www.w3.org/2000/svg">
<path d="M23.6092 25.2577C23.6092 20.6984 21.6676 17.7878 21.6676 17.7878V13.78C21.6676 12.1844 22.6776 10.8248 24.0931 10.3055C23.6958 10.1597 23.2665 10.0801 22.8187 10.0801H22.1335C20.0901 10.0801 18.4336 11.7366 18.4336 13.78V18.3268C18.4336 18.3268 20.3753 20.6984 20.3753 25.2577C20.3753 25.974 21.0336 26.5196 21.7498 26.5196H23.2023C23.5308 26.5196 23.8469 26.4046 24.0931 26.2113C23.8024 25.9831 23.6092 25.6455 23.6092 25.2577Z" fill="#C6E1F2"/>
<path fill-rule="evenodd" clip-rule="evenodd" d="M26.0882 3.6652C26.0882 5.68618 24.444 7.3304 22.423 7.3304C20.402 7.3304 18.7578 5.68618 18.7578 3.6652C18.7578 1.64422 20.402 0 22.423 0C24.444 0 26.0882 1.64422 26.0882 3.6652ZM23.9325 3.66545C23.9325 2.83329 23.2554 2.15625 22.4233 2.15625C21.591 2.15625 20.9141 2.83329 20.9141 3.66545C20.9141 4.49761 21.5911 5.17465 22.4233 5.17465C23.2554 5.17465 23.9325 4.49761 23.9325 3.66545Z" fill="#102754"/>
<path fill-rule="evenodd" clip-rule="evenodd" d="M22.1334 9.00195H22.8186C25.4531 9.00195 27.5965 11.1453 27.5965 13.7799V18.3267C27.5965 18.5793 27.5169 18.8128 27.3551 19.0066C27.2866 19.095 25.6548 21.2543 25.6548 25.2576C25.6548 26.5478 24.5546 27.5975 23.2022 27.5975H21.7497C20.3973 27.5975 19.2971 26.5478 19.2971 25.2576C19.2971 21.1968 17.6163 19.0303 17.5994 19.0096C17.4417 18.8169 17.3555 18.5756 17.3555 18.3267V13.7799C17.3555 11.1453 19.4989 9.00195 22.1334 9.00195ZM23.499 25.2579C23.499 21.3071 24.8684 18.8402 25.4407 17.9818H25.4408V13.7801C25.4408 12.3344 24.2646 11.1582 22.8189 11.1582H22.1336C20.6879 11.1582 19.5117 12.3344 19.5117 13.7801V17.9818C20.084 18.8402 21.4534 21.3071 21.4534 25.2579C21.4534 25.3288 21.5891 25.4417 21.7499 25.4417H23.2025C23.3633 25.4417 23.499 25.3288 23.499 25.2579Z" fill="#102754"/>
<path d="M2.47875 22.6387H2.48069C3.29921 22.6387 4.07128 22.3151 4.65485 21.7274C4.83067 21.5504 5.05943 21.4529 5.29917 21.4529H5.2996C5.52976 21.453 5.76325 21.5544 5.94026 21.731C6.50993 22.2992 7.27655 22.6387 8.13895 22.6387C8.95656 22.6387 9.74032 22.309 10.3196 21.7309C10.4994 21.5516 10.7256 21.4529 10.9566 21.4529H10.9579C11.189 21.4533 11.423 21.5546 11.5997 21.7309C12.1839 22.3138 12.9905 22.6447 13.8107 22.6386C14.6164 22.6328 15.4067 22.302 15.9791 21.7309C16.4005 21.3104 16.4013 20.6279 15.9808 20.2064C15.5603 19.7849 14.8777 19.7841 14.4563 20.2047C14.2861 20.3744 14.0328 20.481 13.795 20.4827C13.793 20.4827 13.7911 20.4827 13.7891 20.4827C13.5496 20.4827 13.2946 20.3764 13.1223 20.2046C12.5454 19.6291 11.7577 19.2982 10.9614 19.2969C10.9597 19.2969 10.958 19.2969 10.9564 19.2969C10.1505 19.2969 9.38371 19.6191 8.7968 20.2047C8.62222 20.3788 8.36242 20.4863 8.11448 20.4827C7.8785 20.4802 7.63493 20.3762 7.46288 20.2047C6.87666 19.6197 6.10875 19.2973 5.30074 19.2969C5.30014 19.2969 5.29966 19.2969 5.29912 19.2969C4.48065 19.2969 3.70858 19.6205 3.12501 20.2082C2.94919 20.3852 2.72038 20.4827 2.48063 20.4827C2.48047 20.4827 2.48026 20.4827 2.48009 20.4827C2.24989 20.4825 2.01634 20.3812 1.83939 20.2047C1.41789 19.7841 0.735352 19.785 0.314878 20.2064C-0.10565 20.6278 -0.104842 21.3104 0.316603 21.7309C0.902873 22.3158 1.67073 22.6382 2.47875 22.6387Z" fill="#102754"/>
<path d="M17.0818 25.0201C16.8834 24.4587 16.2675 24.1646 15.7062 24.3629C15.2533 24.5229 14.8211 24.7998 14.4564 25.1636C14.2862 25.3333 14.0328 25.4399 13.7952 25.4417C13.7932 25.4417 13.7913 25.4417 13.7893 25.4417C13.5498 25.4417 13.2946 25.3354 13.1224 25.1636C12.5454 24.5879 11.7577 24.2572 10.9614 24.2559C10.1544 24.2569 9.38501 24.5768 8.79691 25.1636C8.62227 25.3377 8.36085 25.4466 8.11464 25.4417C7.87856 25.4392 7.63493 25.3352 7.46299 25.1637C6.87661 24.5786 6.1087 24.2562 5.30074 24.2559C5.30014 24.2559 5.29966 24.2559 5.29912 24.2559C4.48065 24.2559 3.70858 24.5795 3.12501 25.1671C2.94919 25.3442 2.72033 25.4417 2.48058 25.4417C2.48042 25.4417 2.48026 25.4417 2.48009 25.4417C2.24989 25.4415 2.01634 25.3402 1.83933 25.1636C1.41778 24.7431 0.735244 24.7439 0.314824 25.1654C-0.10565 25.5869 -0.104841 26.2695 0.316657 26.6899C0.902927 27.2748 1.67079 27.5971 2.4788 27.5977H2.48042C3.29905 27.5977 4.07122 27.274 4.6548 26.6864C4.83062 26.5094 5.05943 26.4119 5.29923 26.4119H5.29971C5.52976 26.412 5.76314 26.5133 5.94021 26.69C6.50987 27.2581 7.27655 27.5978 8.08505 27.5978C8.9026 27.5978 9.74021 27.268 10.3196 26.6899C10.4994 26.5106 10.7256 26.4119 10.9567 26.4119H10.958C11.189 26.4122 11.4229 26.5136 11.5997 26.6899C12.1788 27.2676 12.9755 27.5977 13.7892 27.5977C13.7964 27.5977 13.8037 27.5976 13.8108 27.5976C14.6164 27.5917 15.4067 27.2608 15.9791 26.6899C16.1161 26.5532 16.2743 26.4487 16.4245 26.3956C16.9858 26.1973 17.2801 25.5814 17.0818 25.0201Z" fill="#102754"/>
<path fill-rule="evenodd" clip-rule="evenodd" d="M7.54612 8.67736C7.54612 10.4606 6.09535 11.9114 4.31212 11.9114C2.5289 11.9114 1.07812 10.4606 1.07812 8.67736C1.07812 6.89413 2.5289 5.44336 4.31212 5.44336C6.09535 5.44336 7.54612 6.89413 7.54612 8.67736ZM5.39038 8.67761C5.39038 8.0832 4.90678 7.59961 4.31238 7.59961C3.71791 7.59961 3.23438 8.0832 3.23438 8.67761C3.23438 9.27202 3.71797 9.75561 4.31238 9.75561C4.90678 9.75561 5.39038 9.27202 5.39038 8.67761Z" fill="#F5841F"/>
<path d="M7.39013 14.0942C6.63418 13.3471 5.62797 12.9355 4.55682 12.9355H4.01329C2.94214 12.9355 1.93593 13.347 1.17998 14.0942C0.431691 14.8337 0.0136961 15.8715 5.50014e-06 16.9241C-0.001881 17.5204 0.481764 18.0021 1.07801 18.0021H1.07903C1.67355 18.0021 2.15568 17.5187 2.15601 16.9241C2.15601 15.9136 2.98919 15.0915 4.01329 15.0915H4.55682C5.58092 15.0915 6.41411 15.9136 6.41411 16.9241C6.41411 17.5244 6.90465 18.01 7.50671 18.002C8.10527 17.9941 8.57727 17.4712 8.56984 16.8727C8.55658 15.8192 8.13885 14.8342 7.39013 14.0942Z" fill="#F5841F"/>
<path d="M7.39013 14.0942C6.63418 13.3471 5.62797 12.9355 4.55682 12.9355H4.01329C2.94214 12.9355 1.93593 13.347 1.17998 14.0942C0.431691 14.8337 0.0136961 15.8715 5.50014e-06 16.9241C-0.001881 17.5204 0.481764 18.0021 1.07801 18.0021H1.07903C1.67355 18.0021 2.15568 17.5187 2.15601 16.9241C2.15601 15.9136 2.98919 15.0915 4.01329 15.0915H4.55682C5.58092 15.0915 6.41411 15.9136 6.41411 16.9241C6.41411 17.5244 6.90465 18.01 7.50671 18.002C8.10527 17.9941 8.57727 17.4712 8.56984 16.8727C8.55658 15.8192 8.13885 14.8342 7.39013 14.0942Z" fill="#F5841F"/>
</svg>
