<svg width="28" height="28" viewBox="0 0 28 28" fill="none" xmlns="http://www.w3.org/2000/svg">
<path d="M4.31212 22.2072V11.4272C4.31212 9.04566 6.24271 7.11523 8.62413 7.11523H5.39012C3.00871 7.11523 1.07812 9.04566 1.07812 11.4272V22.2072C1.07812 24.5886 3.00871 26.5192 5.39012 26.5192H8.62413C6.24271 26.5192 4.31212 24.5886 4.31212 22.2072Z" fill="#CEE1F2"/>
<path d="M22.2068 6.0368H19.1884V3.234C19.1884 2.63959 19.672 2.156 20.2664 2.156C20.8608 2.156 21.3444 2.63959 21.3444 3.234C21.3444 3.82938 21.827 4.312 22.4224 4.312C23.0178 4.312 23.5004 3.82938 23.5004 3.234C23.5004 1.45077 22.0496 0 20.2664 0C18.4832 0 17.0324 1.45077 17.0324 3.234V13.5828C17.0324 14.1782 17.515 14.6608 18.1104 14.6608C18.7058 14.6608 19.1884 14.1782 19.1884 13.5828V8.1928H22.2068C23.99 8.1928 25.4408 9.64357 25.4408 11.4268V22.2068C25.4408 23.99 23.99 25.4408 22.2068 25.4408H5.39C3.60677 25.4408 2.156 23.99 2.156 22.2068V11.4268C2.156 9.64357 3.60677 8.1928 5.39 8.1928H8.4084V13.5828C8.4084 14.1782 8.89102 14.6608 9.4864 14.6608C10.0818 14.6608 10.5644 14.1782 10.5644 13.5828V12.5048H13.7984C14.3938 12.5048 14.8764 12.0222 14.8764 11.4268C14.8764 10.8314 14.3938 10.3488 13.7984 10.3488H10.5644V8.1928H13.7984C14.3938 8.1928 14.8764 7.71018 14.8764 7.1148C14.8764 6.51942 14.3938 6.0368 13.7984 6.0368H10.5644V3.234C10.5644 2.63959 11.048 2.156 11.6424 2.156C12.2368 2.156 12.7204 2.63959 12.7204 3.234C12.7204 3.82938 13.203 4.312 13.7984 4.312C14.3938 4.312 14.8764 3.82938 14.8764 3.234C14.8764 1.45077 13.4256 0 11.6424 0C9.85917 0 8.4084 1.45077 8.4084 3.234V6.0368H5.39C2.41795 6.0368 0 8.45475 0 11.4268V22.2068C0 25.1788 2.41795 27.5968 5.39 27.5968H22.2068C25.1789 27.5968 27.5968 25.1788 27.5968 22.2068V11.4268C27.5968 8.45475 25.1789 6.0368 22.2068 6.0368Z" fill="#102754"/>
<path d="M5.36852 21.2813C6.64018 21.3076 7.59281 20.6816 8.28176 19.6482C8.56722 19.2199 9.02618 18.9744 9.54081 18.9744C10.0554 18.9744 10.5144 19.22 10.7999 19.6482C11.4819 20.6713 12.6232 21.2821 13.8529 21.2821C15.0825 21.2821 16.2238 20.6712 16.9058 19.6482C17.1913 19.22 17.6502 18.9744 18.1649 18.9744C18.6795 18.9744 19.1384 19.22 19.4239 19.6483C20.1409 20.7238 21.0442 21.258 22.1853 21.2813C22.7827 21.2944 23.2729 20.8209 23.2851 20.2256C23.2973 19.6304 22.8246 19.138 22.2294 19.1258C21.8772 19.1186 21.5851 19.0034 21.2177 18.4523C20.5357 17.4293 19.3944 16.8185 18.1648 16.8184C18.1647 16.8184 18.1648 16.8184 18.1647 16.8184C16.9351 16.8184 15.7938 17.4293 15.1117 18.4523C14.8262 18.8805 14.3673 19.1261 13.8527 19.1261C13.338 19.1261 12.8791 18.8805 12.5937 18.4523C11.9116 17.4292 10.7703 16.8184 9.5407 16.8184C8.31119 16.8184 7.16981 17.4292 6.48775 18.4522C6.10814 19.0217 5.78334 19.1326 5.4125 19.1258C4.81529 19.1139 4.32486 19.5862 4.31273 20.1815C4.3006 20.7767 4.7733 21.2691 5.36852 21.2813Z" fill="#F5841F"/>
</svg>
