<svg width="65" height="65" viewBox="0 0 65 65" fill="none" xmlns="http://www.w3.org/2000/svg">
    <g clip-path="url(#sx85qb1n5a)">
        <path d="M62.207 12.188a4.443 4.443 0 0 0-4.443-4.444H4.444A4.443 4.443 0 0 0 0 12.188v3.882h62.207v-3.883zM37.07 32.161a5.72 5.72 0 0 1 5.713-5.713 8.402 8.402 0 0 0 4.888-1.558l1.961-1.396a5.713 5.713 0 0 1 6.616 0l1.96 1.396a8.398 8.398 0 0 0 3.999 1.516v-6.528H0v26.616a4.443 4.443 0 0 0 4.443 4.443h35.229a21.186 21.186 0 0 1-2.602-10.203v-8.573zM8.695 28.794h1.244a1.904 1.904 0 0 1 0 3.809H8.695a1.904 1.904 0 1 1 0-3.809zm16.297 11.958H8.695a1.904 1.904 0 1 1 0-3.809h16.297a1.904 1.904 0 0 1 0 3.809zm0-8.15h-7.583a1.905 1.905 0 1 1 0-3.808h7.583a1.904 1.904 0 1 1 0 3.809z" fill="#102754"/>
        <path d="M63.096 30.257a12.188 12.188 0 0 1-7.092-2.261l-1.963-1.397a1.904 1.904 0 0 0-2.203 0l-1.963 1.397a12.187 12.187 0 0 1-7.092 2.26 1.904 1.904 0 0 0-1.904 1.905v8.573a17.5 17.5 0 0 0 11.397 16.402c.428.16.9.16 1.327 0A17.5 17.5 0 0 0 65 40.734v-8.573a1.904 1.904 0 0 0-1.904-1.904zm-4.918 10.137-4.614 5.237a1.902 1.902 0 0 1-2.858 0l-3.005-3.41a1.905 1.905 0 0 1 2.86-2.518l1.574 1.788 3.184-3.614a1.904 1.904 0 1 1 2.858 2.517z" fill="#F5841F"/>
    </g>
    <defs>
        <clipPath id="sx85qb1n5a">
            <path fill="#fff" d="M0 0h65v65H0z"/>
        </clipPath>
    </defs>
</svg>
