<svg width="98" height="98" viewBox="0 0 98 98" fill="none" xmlns="http://www.w3.org/2000/svg">
<path d="M46 32V46L54.75 54.75" stroke="#F5841F" stroke-width="5.93" stroke-linecap="round" stroke-linejoin="round"/>
<path d="M28.5 15.6824C33.648 12.7044 39.625 11 46 11C65.33 11 81 26.67 81 46C81 65.33 65.33 81 46 81C26.67 81 11 65.33 11 46C11 39.625 12.7044 33.648 15.6824 28.5" stroke="#1C274C" stroke-width="3" stroke-linecap="round"/>
<path d="M85.334 85.3333L94.6673 94.6666" stroke="#1C274C" stroke-width="5.93" stroke-linecap="round"/>
<path d="M23.5007 7.26426C30.0215 3.49216 37.5923 1.33325 45.6673 1.33325C70.1519 1.33325 90.0006 21.182 90.0006 45.6666C90.0006 70.1512 70.1519 89.9999 45.6673 89.9999C21.1827 89.9999 1.33398 70.1512 1.33398 45.6666C1.33398 37.5916 3.49289 30.0208 7.26499 23.4999" stroke="#1C274C" stroke-width="2.5" stroke-linecap="round"/>
</svg>
