<?xml version="1.0" encoding="UTF-8"?>
<svg width="31px" height="31px" viewBox="0 0 31 31" version="1.1" xmlns="http://www.w3.org/2000/svg" xmlns:xlink="http://www.w3.org/1999/xlink">
    <title>phone-call</title>
    <g id="Anasayfa" stroke="none" stroke-width="1" fill="none" fill-rule="evenodd">
        <g id="anasayfa" transform="translate(-1281.000000, -25.000000)" fill="#5DC1B2" fill-rule="nonzero">
            <g id="phone-call" transform="translate(1281.000000, 25.000000)">
                <path d="M29.31,8.85 C28.056,6.192 26.07,3.96 23.568,2.394 C20.088,0.222 15.966,-0.468 11.97,0.456 C7.974,1.374 4.572,3.798 2.4,7.278 C0.222,10.758 -0.468,14.874 0.456,18.876 C1.38,22.878 3.804,26.274 7.278,28.446 C9.726,29.976 12.534,30.786 15.408,30.786 L15.594,30.786 C18.456,30.75 21.24,29.922 23.652,28.398 C24.354,27.954 24.558,27.03 24.114,26.328 C23.67,25.626 22.746,25.422 22.044,25.866 C20.106,27.096 17.862,27.762 15.558,27.792 C13.194,27.822 10.884,27.168 8.868,25.914 C3.09,22.29 1.326,14.646 4.944,8.868 C6.696,6.066 9.432,4.116 12.648,3.378 C15.864,2.634 19.176,3.192 21.978,4.944 C23.994,6.204 25.59,7.998 26.598,10.134 C27.582,12.216 27.966,14.526 27.708,16.806 C27.618,17.628 28.206,18.372 29.034,18.462 C29.856,18.552 30.6,17.964 30.69,17.136 C31.008,14.304 30.528,11.436 29.31,8.85 L29.31,8.85 Z" id="Path"></path>
                <path d="M12.774,9.132 C12.186,8.544 11.238,8.544 10.65,9.132 C9.834,9.948 9.33,11.034 9.24,12.192 C9.15,13.35 9.48,14.502 10.164,15.432 C11.724,17.55 13.59,19.416 15.708,20.976 C16.542,21.588 17.544,21.918 18.57,21.918 C18.696,21.918 18.822,21.912 18.948,21.906 C20.1,21.816 21.186,21.318 22.008,20.496 C22.596,19.908 22.596,18.96 22.008,18.372 C21.42,17.784 20.472,17.784 19.884,18.372 C19.242,19.014 18.21,19.098 17.484,18.564 C15.612,17.184 13.962,15.534 12.582,13.662 C12.048,12.936 12.126,11.904 12.774,11.262 C13.362,10.668 13.362,9.714 12.774,9.132 L12.774,9.132 Z" id="Path"></path>
            </g>
        </g>
    </g>
</svg>