<?xml version="1.0" encoding="UTF-8"?>
<svg width="22px" height="22px" viewBox="0 0 22 22" version="1.1" xmlns="http://www.w3.org/2000/svg" xmlns:xlink="http://www.w3.org/1999/xlink">
    <title>003-group</title>
    <g id="Anasayfa" stroke="none" stroke-width="1" fill="none" fill-rule="evenodd">
        <g id="anasayfa" transform="translate(-1087.000000, -198.000000)" fill="#B3B6C5" fill-rule="nonzero">
            <g id="003-group" transform="translate(1087.000000, 198.000000)">
                <path d="M10.752,5.04 C12.1416094,5.04 13.272,3.9096094 13.272,2.52 C13.272,1.1303906 12.1416094,0 10.752,0 C9.3623906,0 8.232,1.1303906 8.232,2.52 C8.232,3.9096094 9.3623906,5.04 10.752,5.04 Z M10.752,1.68 C11.2151484,1.68 11.592,2.05685155 11.592,2.52 C11.592,2.98314845 11.2151484,3.36 10.752,3.36 C10.2888516,3.36 9.912,2.98314845 9.912,2.52 C9.912,2.05685155 10.2888516,1.68 10.752,1.68 Z M15.372,13.3599375 C15.372,14.3866406 14.8250156,15.3526406 13.9446562,15.8809219 L13.8839531,15.9173438 C13.5064453,16.1439141 13.272,16.5578438 13.272,16.9978594 L13.272,20.664 C13.272,21.1279688 12.8959687,21.504 12.432,21.504 C11.9680312,21.504 11.592,21.1279688 11.592,20.664 L11.592,16.9978594 C11.592,15.9711563 12.1389844,15.0051563 13.0193437,14.476875 L13.0800469,14.4404531 C13.4575547,14.2140469 13.692,13.7999531 13.692,13.3599375 L13.692,9.618 C13.692,7.8823828 12.0817266,7.518 10.731,7.518 C9.38027345,7.518 7.77,7.8823828 7.77,9.618 L7.77,13.3477969 C7.77,13.7924063 8.0080547,14.2084688 8.3911406,14.4338906 L8.4625078,14.4758906 C9.35664845,15.001875 9.912,15.9727969 9.912,17.01 L9.912,20.664 C9.912,21.1279688 9.53596875,21.504 9.072,21.504 C8.60803125,21.504 8.232,21.1279688 8.232,20.664 L8.232,17.01 C8.232,16.5653906 7.9939453,16.1493281 7.6108594,15.9240703 L7.5394922,15.8820703 C6.64535155,15.3560859 6.09,14.385 6.09,13.3477969 L6.09,9.618 C6.09,8.35258595 6.6008906,7.3326094 7.5675469,6.6684844 C8.3583281,6.1251094 9.4522969,5.838 10.731,5.838 C12.0097031,5.838 13.1036719,6.1251094 13.8944531,6.6684844 C14.8611094,7.3326094 15.372,8.35258595 15.372,9.618 L15.372,13.3599375 Z M4.2,6.72 C5.5896094,6.72 6.72,5.5896094 6.72,4.2 C6.72,2.8103906 5.5896094,1.68 4.2,1.68 C2.8103906,1.68 1.68,2.8103906 1.68,4.2 C1.68,5.5896094 2.8103906,6.72 4.2,6.72 Z M4.2,3.36 C4.66314845,3.36 5.04,3.73685155 5.04,4.2 C5.04,4.66314845 4.66314845,5.04 4.2,5.04 C3.73685155,5.04 3.36,4.66314845 3.36,4.2 C3.36,3.73685155 3.73685155,3.36 4.2,3.36 Z M6.72,17.724 L6.72,20.664 C6.72,21.1279688 6.34396875,21.504 5.88,21.504 C5.41603125,21.504 5.04,21.1279688 5.04,20.664 L5.04,17.724 C5.04,17.2600313 5.41603125,16.884 5.88,16.884 C6.34396875,16.884 6.72,17.2600313 6.72,17.724 Z M4.956,8.379 C4.956,8.84296875 4.57996875,9.219 4.116,9.219 C1.68,9.219 1.68,10.3631719 1.68,10.794 L1.68,14.364 C1.68,14.7585703 1.86834375,15.1352578 2.184,15.372 C2.9203125,15.9242344 3.36,16.8036094 3.36,17.724 L3.36,20.664 C3.36,21.1279688 2.98396875,21.504 2.52,21.504 C2.05603125,21.504 1.68,21.1279688 1.68,20.664 L1.68,17.724 C1.68,17.3294297 1.49165625,16.9527422 1.176,16.716 C0.4396875,16.1637656 0,15.2843906 0,14.364 L0,10.794 C0,9.65852345 0.466265604,8.7612656 1.3482656,8.1995156 C2.03634375,7.7611406 2.9675625,7.539 4.116,7.539 C4.57996875,7.539 4.956,7.91503125 4.956,8.379 Z M17.304,6.72 C18.6936094,6.72 19.824,5.5896094 19.824,4.2 C19.824,2.8103906 18.6936094,1.68 17.304,1.68 C15.9143906,1.68 14.784,2.8103906 14.784,4.2 C14.784,5.5896094 15.9143906,6.72 17.304,6.72 Z M17.304,3.36 C17.7671484,3.36 18.144,3.73685155 18.144,4.2 C18.144,4.66314845 17.7671484,5.04 17.304,5.04 C16.8408516,5.04 16.464,4.66314845 16.464,4.2 C16.464,3.73685155 16.8408516,3.36 17.304,3.36 Z M16.464,17.724 L16.464,20.664 C16.464,21.1279688 16.0879688,21.504 15.624,21.504 C15.1600313,21.504 14.784,21.1279688 14.784,20.664 L14.784,17.724 C14.784,17.2600313 15.1600313,16.884 15.624,16.884 C16.0879688,16.884 16.464,17.2600313 16.464,17.724 Z M21.504,10.794 L21.504,14.364 C21.504,15.2843906 21.0643125,16.1637656 20.328,16.716 C20.0123437,16.9527422 19.824,17.3294297 19.824,17.724 L19.824,20.664 C19.824,21.1279688 19.4479687,21.504 18.984,21.504 C18.5200312,21.504 18.144,21.1279688 18.144,20.664 L18.144,17.724 C18.144,16.8036094 18.5836875,15.9242344 19.32,15.372 C19.6356562,15.1352578 19.824,14.7585703 19.824,14.364 L19.824,10.794 C19.824,10.3631719 19.824,9.219 17.388,9.219 C16.9240312,9.219 16.548,8.84296875 16.548,8.379 C16.548,7.91503125 16.9240312,7.539 17.388,7.539 C18.5364375,7.539 19.4676562,7.7611406 20.1557344,8.1995156 C21.0377344,8.7612656 21.504,9.65852345 21.504,10.794 Z" id="Shape"></path>
            </g>
        </g>
    </g>
</svg>