<?xml version="1.0" encoding="UTF-8"?>
<svg width="16px" height="15px" viewBox="0 0 16 15" version="1.1" xmlns="http://www.w3.org/2000/svg" xmlns:xlink="http://www.w3.org/1999/xlink">
    <title>heart (3) copy</title>
    <g id="Anasayfa" stroke="none" stroke-width="1" fill="none" fill-rule="evenodd">
        <g id="anasayfa" transform="translate(-615.000000, -829.000000)" fill="#FFFFFF" fill-rule="nonzero">
            <g id="heart-(3)-copy" transform="translate(615.000000, 829.000000)">
                <path d="M14.031424,1.36352 C13.241024,0.513952 12.133472,0.03056 10.973088,0.02867913 C9.811776,0.030112 8.703072,0.513248 7.911456,1.362976 L7.641664,1.648064 L7.371872,1.362976 C5.801088,-0.327616 3.157184,-0.424704 1.466624,1.14608 C1.391712,1.215712 1.31936,1.288032 1.249728,1.362976 C-0.416576,3.160288 -0.416576,5.937952 1.249728,7.735264 L7.245184,14.057856 C7.452608,14.276832 7.798272,14.286208 8.017248,14.078784 C8.024416,14.072 8.031392,14.065024 8.038176,14.057856 L14.031456,7.735264 C15.697632,5.938144 15.697632,3.16064 14.031424,1.36352 Z M13.241184,6.983232 L13.24064,6.983232 L7.641664,12.888576 L2.042176,6.983232 C0.769216,5.60992 0.769216,3.487776 2.042176,2.114464 C3.198176,0.861536 5.15104,0.782976 6.403968,1.938976 C6.4648,1.995104 6.523328,2.053632 6.579456,2.114464 L7.245184,2.8168 C7.464576,3.034784 7.818784,3.034784 8.038176,2.8168 L8.703904,2.115008 C9.859904,0.86208 11.812768,0.78352 13.065696,1.93952 C13.126528,1.995648 13.185056,2.054176 13.241184,2.115008 C14.525216,3.490496 14.534624,5.616512 13.241184,6.983232 Z" id="Shape"></path>
            </g>
        </g>
    </g>
</svg>