<?xml version="1.0" encoding="UTF-8"?>
<svg width="7px" height="11px" viewBox="0 0 7 11" version="1.1" xmlns="http://www.w3.org/2000/svg" xmlns:xlink="http://www.w3.org/1999/xlink">
    <title>right-arrow (3)</title>
    <g id="Anasayfa" stroke="none" stroke-width="1" fill="none" fill-rule="evenodd">
        <g id="anasayfa" transform="translate(-1589.000000, -892.000000)" fill="#000000" fill-rule="nonzero">
            <g id="Group-8" transform="translate(1571.000000, 876.000000)">
                <g id="right-arrow-(3)" transform="translate(18.000000, 16.000000)">
                    <path d="M5.915238,4.762884 L1.31733,0.16506 C1.210986,0.058632 1.069026,0 0.917658,0 C0.76629,0 0.62433,0.058632 0.517986,0.16506 L0.179382,0.50358 C-0.04095,0.724164 -0.04095,1.082676 0.179382,1.302924 L4.040358,5.1639 L0.175098,9.02916 C0.068754,9.135588 0.010038,9.277464 0.010038,9.428748 C0.010038,9.5802 0.068754,9.722076 0.175098,9.828588 L0.513702,10.167024 C0.62013,10.273452 0.762006,10.332084 0.913374,10.332084 C1.064742,10.332084 1.206702,10.273452 1.313046,10.167024 L5.915238,5.565 C6.021834,5.458236 6.080382,5.315688 6.08004744,5.164152 C6.080382,5.012028 6.021834,4.869564 5.915238,4.762884 Z" id="Path"></path>
                </g>
            </g>
        </g>
    </g>
</svg>