<?xml version="1.0" encoding="UTF-8"?>
<svg width="18px" height="18px" viewBox="0 0 18 18" version="1.1" xmlns="http://www.w3.org/2000/svg" xmlns:xlink="http://www.w3.org/1999/xlink">
    <title>001-group copy</title>
    <g id="Anasayfa" stroke="none" stroke-width="1" fill="none" fill-rule="evenodd">
        <g id="anasayfa" transform="translate(-400.000000, -1876.000000)" fill="#5DC1B2" fill-rule="nonzero">
            <g id="001-group-copy" transform="translate(400.000000, 1876.000000)">
                <path d="M8.96,4.2 C10.1180078,4.2 11.06,3.25800783 11.06,2.1 C11.06,0.94199217 10.1180078,0 8.96,0 C7.80199217,0 6.86,0.94199217 6.86,2.1 C6.86,3.25800783 7.80199217,4.2 8.96,4.2 Z M8.96,1.4 C9.34595704,1.4 9.66,1.71404296 9.66,2.1 C9.66,2.48595704 9.34595704,2.8 8.96,2.8 C8.57404296,2.8 8.26,2.48595704 8.26,2.1 C8.26,1.71404296 8.57404296,1.4 8.96,1.4 Z M12.81,11.1332812 C12.81,11.9888672 12.3541797,12.7938672 11.6205469,13.2341016 L11.5699609,13.2644531 C11.2553711,13.4532617 11.06,13.7982031 11.06,14.1648828 L11.06,17.22 C11.06,17.6066406 10.7466406,17.92 10.36,17.92 C9.97335937,17.92 9.66,17.6066406 9.66,17.22 L9.66,14.1648828 C9.66,13.3092969 10.1158203,12.5042969 10.8494531,12.0640625 L10.9000391,12.0337109 C11.2146289,11.8450391 11.41,11.4999609 11.41,11.1332812 L11.41,8.015 C11.41,6.56865234 10.0681055,6.265 8.9425,6.265 C7.81689454,6.265 6.475,6.56865234 6.475,8.015 L6.475,11.1231641 C6.475,11.4936719 6.67337891,11.8403906 6.99261717,12.0282422 L7.05208983,12.0632422 C7.79720704,12.5015625 8.26,13.3106641 8.26,14.175 L8.26,17.22 C8.26,17.6066406 7.94664062,17.92 7.56,17.92 C7.17335937,17.92 6.86,17.6066406 6.86,17.22 L6.86,14.175 C6.86,13.8044922 6.66162108,13.4577734 6.34238283,13.2700586 L6.28291016,13.2350586 C5.53779296,12.7967383 5.075,11.9875 5.075,11.1231641 L5.075,8.015 C5.075,6.96048829 5.50074217,6.11050783 6.30628908,5.55707033 C6.96527342,5.10425783 7.87691408,4.865 8.9425,4.865 C10.0080859,4.865 10.9197266,5.10425783 11.5787109,5.55707033 C12.3842578,6.11050783 12.81,6.96048829 12.81,8.015 L12.81,11.1332812 Z M3.5,5.6 C4.65800783,5.6 5.6,4.65800783 5.6,3.5 C5.6,2.34199217 4.65800783,1.4 3.5,1.4 C2.34199217,1.4 1.4,2.34199217 1.4,3.5 C1.4,4.65800783 2.34199217,5.6 3.5,5.6 Z M3.5,2.8 C3.88595704,2.8 4.2,3.11404296 4.2,3.5 C4.2,3.88595704 3.88595704,4.2 3.5,4.2 C3.11404296,4.2 2.8,3.88595704 2.8,3.5 C2.8,3.11404296 3.11404296,2.8 3.5,2.8 Z M5.6,14.77 L5.6,17.22 C5.6,17.6066406 5.28664062,17.92 4.9,17.92 C4.51335937,17.92 4.2,17.6066406 4.2,17.22 L4.2,14.77 C4.2,14.3833594 4.51335937,14.07 4.9,14.07 C5.28664062,14.07 5.6,14.3833594 5.6,14.77 Z M4.13,6.9825 C4.13,7.36914063 3.81664062,7.6825 3.43,7.6825 C1.4,7.6825 1.4,8.63597658 1.4,8.995 L1.4,11.97 C1.4,12.2988086 1.55695312,12.6127148 1.82,12.81 C2.43359375,13.2701953 2.8,14.0030078 2.8,14.77 L2.8,17.22 C2.8,17.6066406 2.48664063,17.92 2.1,17.92 C1.71335937,17.92 1.4,17.6066406 1.4,17.22 L1.4,14.77 C1.4,14.4411914 1.24304687,14.1272852 0.98,13.93 C0.36640625,13.4698047 0,12.7369922 0,11.97 L0,8.995 C0,8.04876954 0.38855467,7.30105467 1.12355467,6.83292967 C1.69695313,6.46761717 2.47296875,6.2825 3.43,6.2825 C3.81664062,6.2825 4.13,6.59585938 4.13,6.9825 Z M14.42,5.6 C15.5780078,5.6 16.52,4.65800783 16.52,3.5 C16.52,2.34199217 15.5780078,1.4 14.42,1.4 C13.2619922,1.4 12.32,2.34199217 12.32,3.5 C12.32,4.65800783 13.2619922,5.6 14.42,5.6 Z M14.42,2.8 C14.805957,2.8 15.12,3.11404296 15.12,3.5 C15.12,3.88595704 14.805957,4.2 14.42,4.2 C14.034043,4.2 13.72,3.88595704 13.72,3.5 C13.72,3.11404296 14.034043,2.8 14.42,2.8 Z M13.72,14.77 L13.72,17.22 C13.72,17.6066406 13.4066406,17.92 13.02,17.92 C12.6333594,17.92 12.32,17.6066406 12.32,17.22 L12.32,14.77 C12.32,14.3833594 12.6333594,14.07 13.02,14.07 C13.4066406,14.07 13.72,14.3833594 13.72,14.77 Z M17.92,8.995 L17.92,11.97 C17.92,12.7369922 17.5535937,13.4698047 16.94,13.93 C16.6769531,14.1272852 16.52,14.4411914 16.52,14.77 L16.52,17.22 C16.52,17.6066406 16.2066406,17.92 15.82,17.92 C15.4333594,17.92 15.12,17.6066406 15.12,17.22 L15.12,14.77 C15.12,14.0030078 15.4864062,13.2701953 16.1,12.81 C16.3630469,12.6127148 16.52,12.2988086 16.52,11.97 L16.52,8.995 C16.52,8.63597658 16.52,7.6825 14.49,7.6825 C14.1033594,7.6825 13.79,7.36914063 13.79,6.9825 C13.79,6.59585938 14.1033594,6.2825 14.49,6.2825 C15.4470312,6.2825 16.2230469,6.46761717 16.7964453,6.83292967 C17.5314453,7.30105467 17.92,8.04876954 17.92,8.995 Z" id="Shape"></path>
            </g>
        </g>
    </g>
</svg>