<?xml version="1.0" encoding="UTF-8"?>
<svg width="16px" height="18px" viewBox="0 0 16 18" version="1.1" xmlns="http://www.w3.org/2000/svg" xmlns:xlink="http://www.w3.org/1999/xlink">
    <title>003-shower copy</title>
    <g id="Anasayfa" stroke="none" stroke-width="1" fill="none" fill-rule="evenodd">
        <g id="anasayfa" transform="translate(-482.000000, -1876.000000)" fill="#5DC1B2" fill-rule="nonzero">
            <g id="003-shower-copy" transform="translate(482.000000, 1876.000000)">
                <path d="M11.6667578,0 L7.63,0 C5.70007812,0 4.13,1.57007813 4.13,3.5 L4.13,5.55761717 C1.79730467,5.89777342 0,7.91109375 0,10.3367578 C0,10.7232617 0.313359375,11.0367578 0.7,11.0367578 L8.96,11.0367578 C9.34664062,11.0367578 9.66,10.7232617 9.66,10.3367578 C9.66,7.91109375 7.86269533,5.89777342 5.53,5.55761717 L5.53,3.5 C5.53,2.34199217 6.47199217,1.4 7.63,1.4 L11.6666211,1.4 C12.8246289,1.4 13.7666211,2.34199217 13.7666211,3.5 L13.7666211,17.22 C13.7666211,17.6066406 14.0799805,17.92 14.4666211,17.92 C14.8532617,17.92 15.1666211,17.6066406 15.1666211,17.22 L15.1666211,3.5 C15.1666211,1.57007813 13.596543,0 11.6667578,0 Z M8.18822266,9.63662108 L1.47177734,9.63662108 C1.79580079,8.07980467 3.1784375,6.90662108 4.83,6.90662108 C6.4815625,6.90662108 7.86419921,8.07980467 8.18822266,9.63662108 Z M5.53,12.7458789 L5.53,13.7958789 C5.53,14.1825195 5.21664063,14.4958789 4.83,14.4958789 C4.44335938,14.4958789 4.13,14.1825195 4.13,13.7958789 L4.13,12.7458789 C4.13,12.3592383 4.44335938,12.0458789 4.83,12.0458789 C5.21664063,12.0458789 5.53,12.3592383 5.53,12.7458789 Z M5.52166017,16.17 L5.52166017,17.22 C5.52166017,17.6066406 5.20830079,17.92 4.82166017,17.92 C4.43515625,17.92 4.12166017,17.6066406 4.12166017,17.22 L4.12166017,16.17 C4.12166017,15.7833594 4.43515625,15.47 4.82166017,15.47 C5.20830079,15.47 5.52166017,15.7833594 5.52166017,16.17 Z M2.78085938,12.7458789 L2.78085938,13.7958789 C2.78085938,14.1825195 2.46736329,14.4958789 2.08085938,14.4958789 C1.69421875,14.4958789 1.38085938,14.1825195 1.38085938,13.7958789 L1.38085938,12.7458789 C1.38085938,12.3592383 1.69421875,12.0458789 2.08085938,12.0458789 C2.46736329,12.0458789 2.78085938,12.3592383 2.78085938,12.7458789 Z M2.77251954,16.17 L2.77251954,17.22 C2.77251954,17.6066406 2.45916017,17.92 2.07251954,17.92 C1.68587891,17.92 1.37251954,17.6066406 1.37251954,17.22 L1.37251954,16.17 C1.37251954,15.7833594 1.68587891,15.47 2.07251954,15.47 C2.45916017,15.47 2.77251954,15.7833594 2.77251954,16.17 Z M8.2709375,12.7458789 L8.2709375,13.7958789 C8.2709375,14.1825195 7.95744141,14.4958789 7.5709375,14.4958789 C7.18429688,14.4958789 6.8709375,14.1825195 6.8709375,13.7958789 L6.8709375,12.7458789 C6.8709375,12.3592383 7.18429688,12.0458789 7.5709375,12.0458789 C7.95744141,12.0458789 8.2709375,12.3592383 8.2709375,12.7458789 Z M8.26259766,16.17 L8.26259766,17.22 C8.26259766,17.6066406 7.94910158,17.92 7.56259767,17.92 C7.17595704,17.92 6.86259767,17.6066406 6.86259767,17.22 L6.86259767,16.17 C6.86259767,15.7833594 7.17595704,15.47 7.56259767,15.47 C7.94910158,15.47 8.26259766,15.7833594 8.26259766,16.17 Z" id="Shape"></path>
            </g>
        </g>
    </g>
</svg>