<?xml version="1.0" encoding="UTF-8"?>
<svg width="18px" height="15px" viewBox="0 0 18 15" version="1.1" xmlns="http://www.w3.org/2000/svg" xmlns:xlink="http://www.w3.org/1999/xlink">
    <title>002-bed copy 2</title>
    <g id="Anasayfa" stroke="none" stroke-width="1" fill="none" fill-rule="evenodd">
        <g id="anasayfa" transform="translate(-866.000000, -1878.000000)" fill="#5DC1B2" fill-rule="nonzero">
            <g id="002-bed-copy-2" transform="translate(866.000000, 1878.000000)">
                <path d="M16.485,7.108535 L16.485,2.1 C16.485,0.94206 15.54294,0 14.385,0 L3.5,0 C2.34206,0 1.4,0.94206 1.4,2.1 L1.4,7.1204 C0.58527,7.409395 0,8.187445 0,9.1 L0,12.95 L1.4,12.95 L1.4,14.21 L2.8,14.21 L2.8,12.95 L15.12,12.95 L15.12,14.21 L16.52,14.21 L16.52,12.95 L17.92,12.95 L17.92,9.1 C17.92,8.17446 17.317895,7.387415 16.485,7.108535 Z M2.8,2.1 C2.8,1.71402 3.11402,1.4 3.5,1.4 L14.385,1.4 C14.77098,1.4 15.085,1.71402 15.085,2.1 L15.085,7 L14.35,7 L14.35,6.3 C14.35,5.14206 13.40794,4.2 12.25,4.2 L10.36,4.2 C9.822575,4.2 9.33184,4.403175 8.96,4.736445 C8.58816,4.403175 8.097425,4.2 7.56,4.2 L5.6,4.2 C4.44206,4.2 3.5,5.14206 3.5,6.3 L3.5,7 L2.8,7 L2.8,2.1 Z M12.95,6.3 L12.95,7 L9.66,7 L9.66,6.3 C9.66,5.91402 9.97402,5.6 10.36,5.6 L12.25,5.6 C12.63598,5.6 12.95,5.91402 12.95,6.3 Z M8.26,6.3 L8.26,7 L4.9,7 L4.9,6.3 C4.9,5.91402 5.21402,5.6 5.6,5.6 L7.56,5.6 C7.94598,5.6 8.26,5.91402 8.26,6.3 Z M16.52,11.55 L1.4,11.55 L1.4,9.1 C1.4,8.71402 1.71402,8.4 2.1,8.4 L15.82,8.4 C16.20598,8.4 16.52,8.71402 16.52,9.1 L16.52,11.55 Z" id="Shape"></path>
            </g>
        </g>
    </g>
</svg>