<?xml version="1.0" encoding="UTF-8"?>
<svg width="14px" height="15px" viewBox="0 0 14 15" version="1.1" xmlns="http://www.w3.org/2000/svg" xmlns:xlink="http://www.w3.org/1999/xlink">
    <title>Group</title>
    <g id="Anasayfa" stroke="none" stroke-width="1" fill="none" fill-rule="evenodd">
        <g id="VillaListeleme" transform="translate(-626.000000, -202.000000)" fill="#AFAFB6">
            <g id="Group" transform="translate(626.000000, 202.000000)">
                <path d="M14,13.3334991 C14,14.2539193 13.2166932,15 12.25,15 C11.2836548,15 10.5,14.2539193 10.5,13.3334991 C10.5,12.4130788 11.2836548,11.6666667 12.25,11.6666667 C13.2166932,11.6666667 14,12.4130788 14,13.3334991" id="Fill-13"></path>
                <path d="M6.12867316,9.20434506 C4.17402549,9.20434506 2.58538231,7.69131915 2.58538231,5.8369566 C2.58538231,3.97534751 4.17402549,2.46257148 6.12867316,2.46257148 C8.07544978,2.46257148 9.66435532,3.97534751 9.66435532,5.8369566 C9.66435532,7.69131915 8.07544978,9.20434506 6.12867316,9.20434506 M6.12867316,0 C2.74122939,0 0,2.61050069 0,5.8369566 C0,9.0559161 2.74122939,11.6666667 6.12867316,11.6666667 C9.50850825,11.6666667 12.25,9.0559161 12.25,5.8369566 C12.25,2.61050069 9.50850825,0 6.12867316,0" id="Fill-15"></path>
            </g>
        </g>
    </g>
</svg>