<?xml version="1.0" encoding="UTF-8"?>
<svg width="13px" height="13px" viewBox="0 0 13 13" version="1.1" xmlns="http://www.w3.org/2000/svg" xmlns:xlink="http://www.w3.org/1999/xlink">
    <title>Path</title>
    <g id="Anasayfa" stroke="none" stroke-width="1" fill="none" fill-rule="evenodd">
        <g id="VillaListeleme" transform="translate(-427.000000, -1646.000000)" fill="#FFC107" fill-rule="nonzero">
            <g id="Group-15" transform="translate(371.000000, 1575.000000)">
                <g id="star-(1)-copy-3" transform="translate(55.999925, 71.009314)">
                    <path d="M11.7625675,4.31244398 L8.04799023,3.74503701 L6.38302587,0.198617611 C6.2586696,-0.0662058704 5.82417784,-0.0662058704 5.69982156,0.198617611 L4.03536067,3.74503701 L0.320783393,4.31244398 C0.0156825758,4.35926638 -0.106156364,4.73032133 0.107816981,4.94932935 L2.80639847,7.71537537 L2.16850616,11.6258012 C2.11765603,11.9364401 2.44944058,12.1695452 2.72382993,12.0169948 L6.04167545,10.1833691 L9.35952097,12.0174983 C9.63139299,12.1685383 9.96619834,11.9399644 9.91484474,11.6263047 L9.27695243,7.71587884 L11.9755339,4.94983281 C12.1895073,4.73032133 12.0671649,4.35926638 11.7625675,4.31244398 L11.7625675,4.31244398 Z" id="Path"></path>
                </g>
            </g>
        </g>
    </g>
</svg>