<?xml version="1.0" encoding="UTF-8"?>
<svg width="18px" height="20px" viewBox="0 0 18 20" version="1.1" xmlns="http://www.w3.org/2000/svg" xmlns:xlink="http://www.w3.org/1999/xlink">
    <title>virus copy 5</title>
    <g id="Anasayfa" stroke="none" stroke-width="1" fill="none" fill-rule="evenodd">
        <g id="List-Otel" transform="translate(-975.000000, -1860.000000)" fill="#2C318C" fill-rule="nonzero">
            <g id="virus-copy-5" transform="translate(975.000000, 1860.000000)">
                <path d="M10.2511978,11.7650878 C10.2511978,11.3830685 10.5612425,11.0730238 10.9432618,11.0730238 C11.3252811,11.0730238 11.6353258,11.3830685 11.6353258,11.7650878 C11.6353258,12.1471071 11.3252811,12.4571518 10.9432618,12.4571518 C10.5612425,12.4571518 10.2511978,12.1471071 10.2511978,11.7650878 Z" id="Path"></path>
                <path d="M8.17500587,6.92063989 C8.17500587,6.53862057 8.48505054,6.2285759 8.86706986,6.2285759 C9.24908918,6.2285759 9.55913385,6.53862057 9.55913385,6.92063989 C9.55913385,7.30265921 9.24908918,7.61270388 8.86706986,7.61270388 C8.48505054,7.61270388 8.17500587,7.30265921 8.17500587,6.92063989 Z" id="Path"></path>
                <path d="M5.40674991,10.7269918 C5.40674991,10.1539628 5.87181691,9.68889584 6.4448459,9.68889584 C7.01787488,9.68889584 7.48294188,10.1539628 7.48294188,10.7269918 C7.48294188,11.3000208 7.01787488,11.7650878 6.4448459,11.7650878 C5.87181691,11.7650878 5.40674991,11.3000208 5.40674991,10.7269918 Z" id="Path"></path>
                <path d="M0.383749482,12.9886569 C0.0529428951,13.1796666 -0.060555599,13.6032098 0.130454062,13.9340164 L0.822518051,15.1326712 C1.01283565,15.4620936 1.43568674,15.5776683 1.76787746,15.3859666 C2.09868405,15.1949569 2.21218254,14.7714138 2.02117288,14.4406072 L3.25789123,13.7263972 C3.68489471,14.3174198 4.20186651,14.8371599 4.7901209,15.2683157 L4.14304107,16.2199037 C3.92780917,16.536177 4.01016478,16.9666408 4.32574596,17.1811806 C4.64132714,17.3957204 5.07179094,17.315441 5.28702284,16.9984757 L5.98462334,15.9721448 C6.66423018,16.2849577 7.39920214,16.4967293 8.17500587,16.5742405 L8.17500587,17.9936637 C7.79298655,17.9936637 7.48294188,18.3037084 7.48294188,18.6857277 C7.48294188,19.067747 7.79298655,19.3777917 8.17500587,19.3777917 L9.55913385,19.3777917 C9.94115317,19.3777917 10.2511978,19.067747 10.2511978,18.6857277 C10.2511978,18.3037084 9.94115317,17.9936637 9.55913385,17.9936637 L9.55913385,16.5742405 C10.3349376,16.4967293 11.0699095,16.2856498 11.7495164,15.9721448 L12.4471169,16.9984757 C12.6630408,17.315441 13.0928126,17.3957204 13.4083938,17.1811806 C13.724667,16.9659487 13.8063305,16.536177 13.5910986,16.2199037 L12.9440188,15.2683157 C13.5322732,14.8371599 14.049245,14.3174198 14.4762485,13.7263972 L15.7129668,14.4406072 C15.5219572,14.7721058 15.6354557,15.1949569 15.9662623,15.3859666 C16.298453,15.5769763 16.7213041,15.4614016 16.9116217,15.1326712 L17.6036857,13.9340164 C17.7946953,13.6025177 17.6811968,13.1796666 17.3503902,12.9886569 C17.0175075,12.7969552 16.5960405,12.9111458 16.4050308,13.2419524 L15.1710807,12.5291265 C15.4728206,11.8612847 15.6769795,11.140154 15.7524145,10.3809598 L16.4797737,10.3809598 C16.8617931,10.3809598 17.1718377,10.0709152 17.1718377,9.68889584 C17.1718377,9.30687652 16.8617931,8.99683186 16.4797737,8.99683186 L15.7524145,8.99683186 C15.6769795,8.2369456 15.4728206,7.51650698 15.1710807,6.84866523 L16.4050308,6.13583933 C16.5981167,6.4687221 17.0209678,6.57876028 17.3503902,6.38913475 C17.6811968,6.19812508 17.7946953,5.77458192 17.6036857,5.44377534 L16.9116217,4.24512051 C16.7199199,3.91362186 16.2970688,3.80012336 15.9662623,3.99182509 C15.6354557,4.18283475 15.5219572,4.60637791 15.7129668,4.9371845 L14.4762485,5.65139453 C14.049245,5.06037189 13.5322732,4.54063183 12.9440188,4.10947597 L13.5910986,3.15788798 C13.8063305,2.84161474 13.7239749,2.41115094 13.4083938,2.1966111 C13.0921205,1.9813792 12.6616567,2.06373481 12.4471169,2.37931599 L11.7495164,3.40495483 C11.0699095,3.0921419 10.3349376,2.88037032 9.55913385,2.80355122 L9.55913385,1.38412798 C9.94115317,1.38412798 10.2511978,1.07408331 10.2511978,0.692063989 C10.2511978,0.310044667 9.94115317,0 9.55913385,0 L8.17500587,0 C7.79298655,0 7.48294188,0.310044667 7.48294188,0.692063989 C7.48294188,1.07408331 7.79298655,1.38412798 8.17500587,1.38412798 L8.17500587,2.80355122 C7.39920214,2.88106239 6.66423018,3.0921419 5.98462334,3.40564689 L5.28702284,2.37931599 C5.07248301,2.06373481 4.64201921,1.9813792 4.32574596,2.1966111 C4.00947272,2.41115094 3.9271171,2.84092267 4.14234901,3.15719592 L4.78942884,4.1087839 C4.20117444,4.53993977 3.68420264,5.05967982 3.25719916,5.65070247 L2.02117288,4.9371845 C2.21218254,4.60568585 2.09868405,4.18283475 1.76787746,3.99182509 C1.43568674,3.80012336 1.01352771,3.91431392 0.822518051,4.24512051 L0.130454062,5.44377534 C-0.060555599,5.77527399 0.0529428951,6.19812508 0.383749482,6.38913475 C0.713171941,6.57876028 1.13602304,6.4687221 1.32910889,6.13583933 L2.56305898,6.84866523 C2.26062702,7.51650698 2.05716021,8.2369456 1.98172523,8.99683186 L1.25436598,8.99683186 C0.872346658,8.99683186 0.562301991,9.30687652 0.562301991,9.68889584 C0.562301991,10.0709152 0.872346658,10.3809598 1.25436598,10.3809598 L1.98172523,10.3809598 C2.05716021,11.1408461 2.26131908,11.8612847 2.56305898,12.5291265 L1.32910889,13.2419524 C1.1367151,12.9104537 0.715248133,12.7969552 0.383749482,12.9886569 Z M8.86706986,4.15238393 C11.9197641,4.15238393 14.4035818,6.63620159 14.4035818,9.68889584 C14.4035818,12.7415901 11.9197641,15.2254078 8.86706986,15.2254078 C5.8143756,15.2254078 3.33055795,12.7415901 3.33055795,9.68889584 C3.33055795,6.63620159 5.8143756,4.15238393 8.86706986,4.15238393 Z" id="XMLID_1286_"></path>
            </g>
        </g>
    </g>
</svg>