<?xml version="1.0" encoding="UTF-8"?>
<svg width="22px" height="18px" viewBox="0 0 22 18" version="1.1" xmlns="http://www.w3.org/2000/svg" xmlns:xlink="http://www.w3.org/1999/xlink">
    <title>wifi</title>
    <g id="Anasayfa" stroke="none" stroke-width="1" fill="none" fill-rule="evenodd">
        <g id="List-Otel" transform="translate(-1151.000000, -1908.000000)" fill="#5DC1B2" fill-rule="nonzero">
            <g id="Group-7-Copy-4" transform="translate(1139.000000, 1899.000000)">
                <g id="wifi" transform="translate(12.000000, 9.000000)">
                    <circle id="Oval" cx="10.6080412" cy="16.1615994" r="1.37279995"></circle>
                    <path d="M21.0758904,4.57034223 C18.3415225,1.63658554 14.6388315,0.0207999992 10.6494748,0.0207999992 C6.66045096,0.0207999992 2.95775989,1.63658554 0.223350392,4.57034223 C-0.0898975967,4.90647022 -0.0713855974,5.4329598 0.26474239,5.74624939 C0.600911978,6.05949738 1.12735996,6.04102698 1.44064955,5.70485739 C3.85677746,3.11251189 7.12720294,1.68484154 10.649766,1.68479994 C14.1720379,1.68484154 17.4424634,3.11251189 19.8585913,5.70485739 C20.0224537,5.88065898 20.2446393,5.96960213 20.4674072,5.96960213 C20.67054,5.96960213 20.874172,5.89563498 21.0344984,5.74624939 C21.3706264,5.4329182 21.38918,4.90647022 21.0758904,4.57034223 Z" id="Path"></path>
                    <path d="M18.0208697,8.00625251 C15.9996506,5.96976618 13.3818043,4.84827182 10.6495164,4.84835502 C7.91660451,4.84835502 5.29871661,5.96993258 3.27812148,8.00633571 C2.95447349,8.33252129 2.95651189,8.85930208 3.28269748,9.18295006 C3.60888307,9.50659805 4.13566385,9.50455965 4.45931184,9.17837406 C6.16511977,7.45921253 8.36351329,6.51239656 10.6495164,6.51235496 C12.9349371,6.51227176 15.1333306,7.45912933 16.8397626,9.17845726 C17.0024186,9.34231966 17.2163258,9.42435597 17.4303162,9.42435597 C17.6421434,9.42435597 17.8541369,9.34390046 18.0164601,9.18286686 C18.3425625,8.85917728 18.3445593,8.33239649 18.0208697,8.00625251 Z" id="Path"></path>
                    <path d="M14.6910811,11.4521468 C13.6086491,10.3797404 12.057094,9.71359964 10.6417788,9.71359964 C10.6416124,9.71359964 10.6413212,9.71359964 10.6411548,9.71359964 L10.5812092,9.71359964 C10.5809596,9.71359964 10.5808348,9.71359964 10.5805852,9.71359964 C9.16522846,9.71359964 7.61354852,10.379782 6.53115816,11.4521468 C6.20476457,11.7755452 6.20231017,12.3023259 6.52570856,12.6287611 C6.68840615,12.7929563 6.90256295,12.8752188 7.11676134,12.8752188 C7.32838053,12.8752188 7.54008292,12.7949531 7.70228132,12.6342523 C8.47283809,11.8708092 9.60256925,11.3775996 10.5806684,11.3775996 C10.5807932,11.3775996 10.5809596,11.3775996 10.5810844,11.3775996 L10.6412796,11.3775996 C10.641446,11.3775996 10.6414876,11.3775996 10.641654,11.3775996 C11.6196284,11.3775996 12.7494427,11.8708508 13.5199163,12.6342523 C13.8463099,12.9576091 14.3731739,12.9552795 14.6965307,12.6287611 C15.0199706,12.3023675 15.0175162,11.7755452 14.6910811,11.4521468 Z" id="Path"></path>
                </g>
            </g>
        </g>
    </g>
</svg>