<?xml version="1.0" encoding="UTF-8"?>
<svg width="18px" height="18px" viewBox="0 0 18 18" version="1.1" xmlns="http://www.w3.org/2000/svg" xmlns:xlink="http://www.w3.org/1999/xlink">
    <title>003-gym</title>
    <g id="Anasayfa" stroke="none" stroke-width="1" fill="none" fill-rule="evenodd">
        <g id="List-Otel" transform="translate(-1308.000000, -1909.000000)" fill="#5DC1B2" fill-rule="nonzero">
            <g id="Group-5-Copy-4" transform="translate(1296.000000, 1899.000000)">
                <g id="003-gym" transform="translate(12.000000, 10.000000)">
                    <path d="M17.91958,5.66755 C17.91958,5.224485 17.746995,4.80788 17.433675,4.494665 L16.60225,3.66324 L17.025785,3.239705 C17.028165,3.237395 17.030545,3.23505 17.03289,3.232705 C17.67962,2.58601 17.67962,1.53363 17.03289,0.886725 C16.719605,0.573405 16.303,0.400855 15.859935,0.400855 C15.416905,0.400855 15.0003,0.573405 14.68691,0.886655 C14.68425,0.889315 14.68159,0.89201 14.678965,0.89474 L14.256375,1.317295 L13.42495,0.485835 C13.111665,0.17255 12.69513,0 12.25203,0 C11.808895,0 11.392325,0.172585 11.07904,0.485905 C10.914645,0.650335 10.792285,0.841015 10.71147,1.044575 C10.453695,0.88648 10.156755,0.801745 9.846725,0.801745 C9.403625,0.801745 8.98702,0.974295 8.67356,1.28772 C8.027005,1.93445 8.027005,2.986795 8.67363,3.63363 L10.3068,5.26673 L5.266205,10.307325 L3.633,8.674155 C3.31975,8.360905 2.90318,8.188355 2.46015,8.188355 C2.01705,8.188355 1.600445,8.360905 1.28695,8.674295 C0.73535,9.225965 0.65464,10.072545 1.044085,10.71098 C0.83734,10.79337 0.64743,10.91741 0.48531,11.079565 C-0.161315,11.72626 -0.16135,12.77857 0.485345,13.425405 L1.3167,14.25676 L0.8862,14.68726 C0.57288,15.00058 0.400295,15.41715 0.400295,15.86025 C0.400295,16.30335 0.57288,16.71992 0.886165,17.033135 C1.19945,17.34649 1.616055,17.519075 2.05919,17.519075 C2.4983,17.519075 2.911335,17.34957 3.22364,17.041605 C3.226545,17.03884 3.229415,17.03604 3.23225,17.03317 L3.66268,16.60274 L4.494105,17.434165 C4.80732,17.747415 5.22389,17.919965 5.667025,17.919965 L5.667095,17.919965 C6.11023,17.919965 6.52687,17.74738 6.84026,17.43399 C7.004585,17.26963 7.126945,17.078985 7.20776,16.87553 C7.465465,17.03352 7.7623,17.11822 8.07226,17.118255 L8.07233,17.118255 C8.51536,17.118255 8.932035,16.945705 9.245425,16.63235 C9.55871,16.31903 9.731225,15.90246 9.731225,15.45936 C9.731225,15.016225 9.558675,14.599655 9.24539,14.286405 L7.612185,12.6532 L12.65292,7.61264 L14.28609,9.245705 C14.59941,9.55899 15.01598,9.731505 15.459045,9.73154 L15.45915,9.73154 C15.90211,9.73154 16.318715,9.55899 16.631965,9.24574 C16.94539,8.932455 17.117975,8.51585 17.11801,8.072715 C17.11801,7.762965 17.033415,7.46634 16.8756,7.208705 C17.082065,7.12635 17.271765,7.002415 17.43378,6.84047 C17.747065,6.527185 17.91958,6.110615 17.91958,5.66755 L17.91958,5.66755 Z M2.496865,16.28361 C2.49445,16.285955 2.492,16.28837 2.489585,16.290785 C2.374645,16.405725 2.2218,16.469075 2.05919,16.469075 C1.89658,16.469075 1.743665,16.405725 1.62862,16.29068 C1.513645,16.175705 1.450295,16.02286 1.450295,15.86025 C1.450295,15.69764 1.513645,15.544725 1.628655,15.429715 L2.059085,14.999285 L2.92019,15.860285 L2.496865,16.28361 Z M14.998865,2.059785 L15.429015,1.62967 C15.431045,1.62764 15.433005,1.625645 15.434965,1.623615 C15.549415,1.51214 15.699985,1.450855 15.85997,1.450855 C16.02258,1.450855 16.175495,1.514205 16.2904,1.62911 C16.526125,1.86494 16.52784,2.247525 16.295405,2.48528 C16.293585,2.48703 16.291765,2.488815 16.290015,2.4906 L15.859865,2.92075 L15.4294,2.49025 L14.998865,2.059785 Z M11.821565,1.22829 C11.936505,1.113315 12.089385,1.05 12.25203,1.05 C12.414675,1.05 12.56752,1.113315 12.68253,1.228325 L14.68691,3.23274 L15.48862,4.034485 C15.48869,4.034555 15.48876,4.034625 15.488865,4.034695 L16.69129,5.237155 C16.806265,5.35213 16.869615,5.504975 16.869615,5.66755 C16.869615,5.83016 16.806265,5.98311 16.691325,6.09805 C16.57628,6.21306 16.423365,6.27641 16.26072,6.27641 C16.09839,6.27641 15.945755,6.213235 15.83085,6.098645 L11.820655,2.088555 C11.58423,1.851115 11.58444,1.46545 11.821565,1.22829 L11.821565,1.22829 Z M6.097735,16.69157 C5.98269,16.80658 5.82974,16.869965 5.667025,16.869965 C5.50438,16.869965 5.351465,16.806615 5.236525,16.69171 L4.034135,15.48932 C4.03403,15.489215 4.03396,15.48911 4.03389,15.48904 L3.778775,15.23396 L1.22787,12.68302 C0.990535,12.445615 0.9905,12.05939 1.22787,11.821985 C1.34288,11.706905 1.49576,11.643555 1.658405,11.643555 C1.820805,11.643555 1.97344,11.706765 2.088415,11.82153 L6.099905,15.833055 C6.33486,16.070635 6.33423,16.45504 6.097735,16.69157 L6.097735,16.69157 Z M8.681155,15.45936 C8.681155,15.62197 8.61784,15.774955 8.5029,15.889895 C8.387855,16.004905 8.23494,16.068255 8.07226,16.068255 C8.07226,16.068255 8.07226,16.068255 8.072225,16.068255 C7.90958,16.068255 7.75663,16.004905 7.641655,15.88993 L6.844635,15.09291 C6.843095,15.09137 6.841695,15.089725 6.840155,15.088185 L2.83129,11.079495 L2.831185,11.07939 L2.02951,10.277715 C1.79214,10.04038 1.79214,9.654155 2.02944,9.416785 C2.14452,9.30174 2.297505,9.238355 2.460185,9.238355 C2.62276,9.238355 2.775605,9.30167 2.890545,9.41661 L4.894645,11.42064 C4.89475,11.42078 4.894855,11.42092 4.894995,11.42106 L6.398245,12.92424 L8.50297,15.02893 C8.617875,15.14387 8.681155,15.296715 8.681155,15.45936 Z M6.86966,11.91078 L6.439125,11.480315 L6.00866,11.04978 L11.04929,6.00915 L11.91043,6.87022 L6.86966,11.91078 Z M15.88951,8.503215 C15.7745,8.618225 15.621655,8.681575 15.45908,8.681575 L15.459045,8.681575 C15.2964,8.681575 15.14345,8.618225 15.02844,8.50325 L13.025425,6.500305 C13.02497,6.49985 13.02462,6.49936 13.024165,6.498905 L11.420535,4.895415 C11.42029,4.89517 11.42001,4.89496 11.4198,4.894715 L9.41619,2.89121 C9.178855,2.65377 9.178855,2.26744 9.416085,2.03007 C9.53113,1.915025 9.68408,1.851675 9.84676,1.851675 C10.00937,1.851675 10.16232,1.915025 10.27733,2.030035 L11.076765,2.829435 C11.0775,2.830205 11.0782,2.831045 11.07897,2.83178 L15.08787,6.84054 C15.088255,6.840925 15.088605,6.841275 15.08899,6.84159 L15.88958,7.64218 C16.00459,7.75719 16.067975,7.91007 16.067975,8.072715 C16.067975,8.23536 16.00459,8.388205 15.88951,8.503215 L15.88951,8.503215 Z" id="Shape"></path>
                </g>
            </g>
        </g>
    </g>
</svg>