<?xml version="1.0" encoding="UTF-8"?>
<svg width="18px" height="20px" viewBox="0 0 18 20" version="1.1" xmlns="http://www.w3.org/2000/svg" xmlns:xlink="http://www.w3.org/1999/xlink">
    <title>001-calendar copy 4</title>
    <g id="Anasayfa" stroke="none" stroke-width="1" fill="none" fill-rule="evenodd">
        <g id="OtelDetay" transform="translate(-903.000000, -854.000000)" fill="#5DC1B2">
            <g id="001-calendar-copy-4" transform="translate(903.000000, 854.000000)">
                <path d="M11.8426003,1.98660004 L11.8426003,1.00100002 C11.8426003,0.45694881 12.2841491,0.0154000003 12.8282003,0.0154000003 C13.3722515,0.0154000003 13.8138003,0.45694881 13.8138003,1.00100002 L13.8138003,1.98660004 C15.9909907,1.98660004 17.7562004,3.75180968 17.7562004,5.92900013 L17.7562004,15.7850003 C17.7562004,17.9621908 15.9909907,19.7274004 13.8138003,19.7274004 C10.9949842,19.7274004 6.77563055,19.7274004 3.95780009,19.7274004 C1.78060964,19.7274004 0.0154000003,17.9621908 0.0154000003,15.7850003 L0.0154000003,5.92900013 C0.0154000003,3.75180968 1.78060964,1.98660004 3.95780009,1.98660004 L3.95780009,1.00100002 C3.95780009,0.45694881 4.3993489,0.0154000003 4.94340011,0.0154000003 C5.48745132,0.0154000003 5.92900013,0.45694881 5.92900013,1.00100002 L5.92900013,1.98660004 L11.8426003,1.98660004 Z M15.7850003,9.87140021 L1.98660004,9.87140021 L1.98660004,15.7850003 C1.98660004,16.8731028 2.86871206,17.7562004 3.95780009,17.7562004 L13.8138003,17.7562004 C14.9019027,17.7562004 15.7850003,16.8731028 15.7850003,15.7850003 L15.7850003,9.87140021 Z M13.8138003,3.95780009 L13.8138003,4.94340011 C13.8138003,5.48745132 13.3722515,5.92900013 12.8282003,5.92900013 C12.2841491,5.92900013 11.8426003,5.48745132 11.8426003,4.94340011 L11.8426003,3.95780009 L5.92900013,3.95780009 L5.92900013,4.94340011 C5.92900013,5.48745132 5.48745132,5.92900013 4.94340011,5.92900013 C4.3993489,5.92900013 3.95780009,5.48745132 3.95780009,4.94340011 L3.95780009,3.95780009 C2.86871206,3.95780009 1.98660004,4.8399121 1.98660004,5.92900013 L1.98660004,7.90020017 L15.7850003,7.90020017 L15.7850003,5.92900013 C15.7850003,4.8399121 14.9019027,3.95780009 13.8138003,3.95780009 Z" id="Shape"></path>
            </g>
        </g>
    </g>
</svg>