<svg width="18" height="18" viewBox="0 0 18 18" fill="none" xmlns="http://www.w3.org/2000/svg">
<path d="M18 9C18 4.02944 13.9706 0 9 0C4.02944 0 0 4.02944 0 9C0 13.9706 4.02944 18 9 18C13.9706 18 18 13.9706 18 9Z" fill="#F5841F"/>
<path d="M13.2614 7.45789L8.77167 11.9473C8.4392 12.2799 7.89988 12.2799 7.56709 11.9473L5.24945 9.62952C4.91685 9.29698 4.91685 8.7576 5.24945 8.425C5.58211 8.09234 6.12139 8.09234 6.4539 8.42488L8.16956 10.1406L12.0568 6.25331C12.3894 5.92065 12.9288 5.9209 13.2613 6.25331C13.5938 6.58591 13.5938 7.1251 13.2614 7.45789Z" fill="white"/>
</svg>
