<?xml version="1.0" encoding="UTF-8"?>
<svg width="17px" height="17px" viewBox="0 0 17 17" version="1.1" xmlns="http://www.w3.org/2000/svg" xmlns:xlink="http://www.w3.org/1999/xlink">
    <title>alert copy 2</title>
    <g id="Anasayfa" stroke="none" stroke-width="1" fill="none" fill-rule="evenodd">
        <g id="OtelDetay" transform="translate(-599.000000, -1051.000000)" fill="#D98D72" fill-rule="nonzero">
            <g id="alert-copy-2" transform="translate(599.000000, 1051.000000)">
                <path d="M8.21333333,0 C3.67723459,0 -9.9475983e-16,3.67723459 -9.9475983e-16,8.21333333 C-9.9475983e-16,12.7494321 3.67723459,16.4266667 8.21333333,16.4266667 C12.7494321,16.4266667 16.4266667,12.7494321 16.4266667,8.21333333 C16.4213179,3.67945196 12.7472147,0.00534874716 8.21333333,0 Z M8.21333333,14.9333333 C4.50197981,14.9333333 1.49333333,11.9246869 1.49333333,8.21333333 C1.49333333,4.50197981 4.50197981,1.49333333 8.21333333,1.49333333 C11.9246869,1.49333333 14.9333333,4.50197981 14.9333333,8.21333333 C14.9288078,11.9228107 11.9228107,14.9288078 8.21333333,14.9333333 L8.21333333,14.9333333 Z" id="Shape"></path>
                <path d="M8.21333333,3.73333333 C7.80096072,3.73333333 7.46666667,4.06762739 7.46666667,4.48 L7.46666667,9.70666667 C7.46666667,10.1190393 7.80096072,10.4533333 8.21333333,10.4533333 C8.62570595,10.4533333 8.96,10.1190393 8.96,9.70666667 L8.96,4.48 C8.96,4.06762739 8.62570595,3.73333333 8.21333333,3.73333333 Z" id="Path"></path>
                <circle id="Oval" cx="8.21333333" cy="11.9466667" r="1"></circle>
            </g>
        </g>
    </g>
</svg>