<?xml version="1.0" encoding="UTF-8"?>
<svg width="11px" height="7px" viewBox="0 0 11 7" version="1.1" xmlns="http://www.w3.org/2000/svg" xmlns:xlink="http://www.w3.org/1999/xlink">
    <title>Path</title>
    <g id="Anasayfa" stroke="none" stroke-width="1" fill="none" fill-rule="evenodd">
        <g id="Villa-SSS" transform="translate(-1132.000000, -876.000000)" fill="#1A1D59" fill-rule="nonzero">
            <g id="right-arrow-(3)" transform="translate(1137.833958, 879.045043) rotate(-270.000000) translate(-1137.833958, -879.045043) translate(1134.798953, 873.879001)">
                <path d="M5.9052,4.762884 L1.307292,0.16506 C1.200948,0.058632 1.058988,1.60570864e-13 0.90762,1.60570864e-13 C0.756252,1.60570864e-13 0.614292,0.058632 0.507948,0.16506 L0.169344,0.50358 C-0.050988,0.724164 -0.050988,1.082676 0.169344,1.302924 L4.03032,5.1639 L0.16506,9.02916 C0.058716,9.135588 0,9.277464 0,9.428748 C0,9.5802 0.058716,9.722076 0.16506,9.828588 L0.503664,10.167024 C0.610092,10.273452 0.751968,10.332084 0.903336,10.332084 C1.054704,10.332084 1.196664,10.273452 1.303008,10.167024 L5.9052,5.565 C6.011796,5.458236 6.070344,5.315688 6.07000944,5.164152 C6.070344,5.012028 6.011796,4.869564 5.9052,4.762884 Z" id="Path"></path>
            </g>
        </g>
    </g>
</svg>