<svg width="24" height="23" viewBox="0 0 24 23" fill="none" xmlns="http://www.w3.org/2000/svg">
<g clip-path="url(#clip0_1350_16982)">
<path d="M1.18141 12.2326L5.39336 16.6086C5.66767 16.8936 6.11185 16.8936 6.38598 16.6086C6.66011 16.3237 6.66028 15.8622 6.38598 15.5774L3.37233 12.4463L22.7375 12.4463C23.1251 12.4463 23.4395 12.1201 23.4395 11.7169C23.4395 11.3138 23.1251 10.9876 22.7375 10.9876L3.37233 10.9876L6.38598 7.85653C6.66028 7.57154 6.66028 7.11004 6.38598 6.82524C6.24892 6.68283 6.0692 6.61154 5.88967 6.61154C5.71014 6.61154 5.53043 6.68283 5.39336 6.82524L1.18141 11.2013C0.90711 11.4861 0.90711 11.9478 1.18141 12.2326Z" fill="#0F2052"/>
</g>
<defs>
<clipPath id="clip0_1350_16982">
<rect width="22.4638" height="22.4638" fill="white" transform="matrix(1 1.74846e-07 1.74846e-07 -1 0.975586 23)"/>
</clipPath>
</defs>
</svg>
