<?xml version="1.0" encoding="UTF-8"?>
<svg width="57px" height="57px" viewBox="0 0 57 57" version="1.1" xmlns="http://www.w3.org/2000/svg" xmlns:xlink="http://www.w3.org/1999/xlink">
    <title>debit-card</title>
    <g id="Anasayfa" stroke="none" stroke-width="1" fill="none" fill-rule="evenodd">
        <g id="OtelRezervasyon" transform="translate(-1192.000000, -1282.000000)" fill="#7F8090" fill-rule="nonzero">
            <g id="debit-card" transform="translate(1192.000000, 1282.000000)">
                <path d="M46.8750019,9.93187539 L46.8750019,4.68750019 C46.8717206,2.10000008 44.7750018,0.00328125013 42.1875017,0 L4.68750019,0 C2.10000008,0.00328125013 0.00328125013,2.10000008 0,4.68750019 L0,25.312501 C0.00726564029,27.7066417 1.82203135,29.7089075 4.20375017,29.9517199 L7.72781281,39.0996109 C8.65875034,41.5150798 11.3714067,42.7183611 13.7871099,41.7885954 L35.7937514,33.3112513 C34.2731264,37.2832046 34.7057827,41.7389079 36.9614077,45.3442987 L37.5,46.2056268 L37.5,55.3125022 C37.5,55.8304709 37.9195328,56.2500022 38.4375015,56.2500022 L55.3125022,56.2500022 C55.8304709,56.2500022 56.2500022,55.8304709 56.2500022,55.3125022 L56.2500022,24.3667978 C56.241096,21.1246883 54.9503928,18.018282 52.6582052,15.7253913 L46.8750019,9.93187539 Z M46.8750019,15.5385943 L49.7203145,22.9246884 C50.2778926,24.3745322 49.5553145,26.0013292 48.1057051,26.5593761 L46.4793768,27.1875011 C46.7390644,26.5964073 46.8735956,25.957501 46.8750019,25.312501 L46.8750019,15.5385943 Z M1.87500007,25.312501 L1.87500007,4.68750019 C1.87500007,3.1345314 3.1345314,1.87500007 4.68750019,1.87500007 L42.1875017,1.87500007 C43.7404705,1.87500007 45.0000018,3.1345314 45.0000018,4.68750019 L45.0000018,10.6462504 L44.9917986,10.6462504 L45.0000018,10.6675786 L45.0000018,25.312501 C44.9927361,25.4760947 44.9714081,25.6382823 44.9362518,25.798126 L36.3487514,17.2096882 C34.4184389,15.3239069 31.341095,15.3093756 29.3934387,17.1754694 C27.4453136,19.0427351 27.3283604,22.1177352 29.1300012,24.1263291 L32.7909388,28.1250011 L4.68750019,28.1250011 C3.1345314,28.1250011 1.87500007,26.8654698 1.87500007,25.312501 Z M13.8853131,30.0000012 L7.21875029,32.5666419 L6.23250025,30.0000012 L13.8853131,30.0000012 Z M13.112813,40.0385172 C11.663438,40.5972673 10.0357035,39.8746891 9.47718788,38.425314 L7.89562531,34.3125014 L19.0865633,30.0000012 L19.0865633,29.9943762 L34.5093764,29.9943762 L35.7278921,31.3228137 L13.112813,40.0385172 Z M54.3750016,54.3750019 L39.3750016,54.3750019 L39.3750016,46.8750019 L54.3750016,46.8750019 L54.3750016,54.3750019 Z M54.3750022,45.0000018 L38.957814,45.0000018 L38.5511734,44.3503143 C36.2653139,40.6973453 36.1743764,36.0834389 38.3137515,32.3437513 C38.5162515,31.989845 38.466564,31.54547 38.190939,31.2450012 L30.5083606,22.8637509 C29.3627355,21.6098446 29.4271887,19.6713289 30.6536731,18.4968757 C31.8806263,17.3221882 33.8200795,17.341407 35.022892,18.539532 L49.9621895,33.4753138 L51.2878145,32.1496888 L47.8190644,28.6809386 L48.7809394,28.3059386 C51.1945333,27.3747667 52.3973458,24.6644541 51.468752,22.249454 L48.2955488,14.0097662 L51.3325802,17.0531257 C53.2732053,18.993282 54.3675022,21.6225009 54.3750022,24.3667978 L54.3750022,45.0000018 Z" id="Shape"></path>
                <path d="M10.6875004,13.1250005 C12.0337505,13.1250005 13.1250005,12.0337505 13.1250005,10.6875004 L13.1250005,6.18750025 C13.1250005,4.84125019 12.0337505,3.75000015 10.6875004,3.75000015 L6.18750025,3.75000015 C4.84125019,3.75000015 3.75000015,4.84125019 3.75000015,6.18750025 L3.75000015,10.6875004 C3.75000015,12.0337505 4.84125019,13.1250005 6.18750025,13.1250005 L10.6875004,13.1250005 Z M5.62500022,10.6875004 L5.62500022,9.37500037 L7.5000003,9.37500037 L7.5000003,7.5000003 L5.62500022,7.5000003 L5.62500022,6.18750025 C5.62500022,5.87695337 5.87695337,5.62500022 6.18750025,5.62500022 L10.6875004,5.62500022 C10.9980473,5.62500022 11.2500004,5.87695337 11.2500004,6.18750025 L11.2500004,7.5000003 L9.37500037,7.5000003 L9.37500037,9.37500037 L11.2500004,9.37500037 L11.2500004,10.6875004 C11.2500004,10.9980473 10.9980473,11.2500004 10.6875004,11.2500004 L6.18750025,11.2500004 C5.87695337,11.2500004 5.62500022,10.9980473 5.62500022,10.6875004 Z" id="Shape"></path>
                <polygon id="Path" points="4.68750019 15.9375006 8.43750034 15.9375006 8.43750034 17.8125007 4.68750019 17.8125007"></polygon>
                <polygon id="Path" points="4.68750019 21.5625009 8.43750034 21.5625009 8.43750034 23.4375009 4.68750019 23.4375009"></polygon>
                <polygon id="Path" points="21.5625009 21.5625009 25.312501 21.5625009 25.312501 23.4375009 21.5625009 23.4375009"></polygon>
                <polygon id="Path" points="10.3125004 15.9375006 14.0625006 15.9375006 14.0625006 17.8125007 10.3125004 17.8125007"></polygon>
                <polygon id="Path" points="15.9375006 15.9375006 19.6875008 15.9375006 19.6875008 17.8125007 15.9375006 17.8125007"></polygon>
                <polygon id="Path" points="21.5625009 15.9375006 25.312501 15.9375006 25.312501 17.8125007 21.5625009 17.8125007"></polygon>
                <polygon id="Path" points="39.3750016 4.68750019 41.2500016 4.68750019 41.2500016 7.5000003 39.3750016 7.5000003"></polygon>
                <polygon id="Path" points="35.6250014 4.68750019 37.5000015 4.68750019 37.5000015 7.5000003 35.6250014 7.5000003"></polygon>
                <polygon id="Path" points="31.8750013 4.68750019 33.7500013 4.68750019 33.7500013 7.5000003 31.8750013 7.5000003"></polygon>
                <polygon id="Path" points="28.1250011 4.68750019 30.0000012 4.68750019 30.0000012 7.5000003 28.1250011 7.5000003"></polygon>
                <polygon id="Path" points="41.2500016 48.7500019 43.1250017 48.7500019 43.1250017 50.625002 41.2500016 50.625002"></polygon>
            </g>
        </g>
    </g>
</svg>