<?xml version="1.0" encoding="UTF-8"?>
<svg width="27px" height="16px" viewBox="0 0 27 16" version="1.1" xmlns="http://www.w3.org/2000/svg" xmlns:xlink="http://www.w3.org/1999/xlink">
    <title>Maestro-card-dark</title>
    <g id="Anasayfa" stroke="none" stroke-width="1" fill="none" fill-rule="evenodd">
        <g id="KrediKartiOdeme" transform="translate(-457.000000, -398.000000)" fill-rule="nonzero">
            <g id="Maestro-card-dark" transform="translate(457.000000, 398.000000)">
                <rect id="Rectangle" fill="#000066" x="0" y="0" width="27" height="16" rx="1.08"></rect>
                <path d="M22.5872522,7.99566213 C22.5872522,10.9437518 20.1772713,13.3333333 17.2036795,13.3333333 C14.2306833,13.3333333 11.820362,10.9437518 11.820362,7.99566213 C11.820362,5.04748811 14.2306833,2.65782224 17.2036795,2.65782224 C20.1772713,2.65782224 22.5872522,5.04748811 22.5872522,7.99566213" id="Fill-356" fill="#CC0000"></path>
                <path d="M13.0450074,11.3853453 C12.8963619,11.206599 12.7594582,11.0177303 12.6349771,10.8200044 L14.5429496,10.8200044 C14.6574756,10.6388119 14.7608553,10.4500276 14.8531738,10.2547479 L12.3249231,10.2547479 C12.2387308,10.0718684 12.1621532,9.88325272 12.0969772,9.68966016 L15.0806943,9.68966016 C15.2603963,9.15738611 15.3574796,8.58799627 15.3574796,7.99566213 C15.3574796,7.60780221 15.3157874,7.22955867 15.2366572,6.86531787 L11.9414397,6.86531787 C11.9831319,6.67273757 12.0357152,6.48429064 12.0976579,6.30006139 L15.0803539,6.30006139 C15.0149226,6.10646885 14.9387705,5.91793755 14.8526633,5.73505797 L12.3254336,5.73505797 C12.4177521,5.53977835 12.5213871,5.35133139 12.6355728,5.16971712 L14.542354,5.16971712 C14.417958,4.97249736 14.280714,4.78396605 14.1323237,4.60496677 L13.0456881,4.60496677 C13.2128825,4.40378235 13.3945415,4.21491363 13.5890485,4.04004771 C12.6335307,3.1810704 11.3653212,2.65782224 9.97424723,2.65782224 C7.00082563,2.65782224 4.59050433,5.04748811 4.59050433,7.99566213 C4.59050433,10.9437518 7.00082563,13.3333333 9.97424723,13.3333333 C11.3654063,13.3333333 12.6337008,12.8100852 13.5890485,11.9514453 C13.7838107,11.7762419 13.965725,11.5869514 14.1329193,11.3853453 L13.0450074,11.3853453" id="Fill-357" fill="#0066CC"></path>
                <path d="M13.5123007,9.4381164 C13.2822277,9.49851389 13.0597273,9.52803781 12.8245492,9.52753808 C12.0741741,9.52685685 11.6833733,9.18800664 11.6833733,8.53999883 C11.6833733,7.78292123 12.1808722,7.22610013 12.8562012,7.22610013 C13.4085807,7.22610013 13.7611778,7.53829448 13.7611778,8.02746363 C13.7611778,8.1897608 13.7373537,8.34792464 13.6788995,8.57146288 L12.3444929,8.57146288 C12.2970148,8.88795928 12.5300659,9.0268904 12.9268227,9.0268904 C13.1644684,9.0268904 13.379311,8.98454467 13.6173821,8.88964635 L13.5123007,9.4381164 L13.5123007,9.4381164 Z M13.1534923,8.12497691 C13.1534923,8.07723251 13.2276874,7.7374544 12.8414813,7.7301156 C12.6282553,7.7301156 12.4753555,7.87064944 12.4134978,8.12497691 L13.1534923,8.12497691 L13.1534923,8.12497691 Z" id="Fill-359" fill="#000066"></path>
                <path d="M13.9643636,7.97651376 C13.9643636,8.25614744 14.1231344,8.44940256 14.4841551,8.59322624 C14.7600895,8.7052484 14.8034835,8.73772472 14.8034835,8.83785296 C14.8034835,8.97661539 14.6816401,9.04021835 14.4108959,9.03853125 C14.207625,9.03709723 14.022052,9.01255021 13.8031253,8.95240576 L13.7062121,9.46249472 C13.9008893,9.50728672 14.1737607,9.52196432 14.4156607,9.52753168 C15.1362555,9.52753168 15.4689425,9.29361789 15.4689425,8.78799973 C15.4689425,8.48398773 15.3301669,8.30524149 14.9879503,8.17196211 C14.7018906,8.05859027 14.6683667,8.03421195 14.6683667,7.93155307 C14.6683667,7.81109547 14.7817014,7.75019187 15.0026702,7.75019187 C15.136681,7.75019187 15.3200417,7.76233883 15.494128,7.78325864 L15.5917219,7.27038603 C15.4144022,7.24600771 15.1454449,7.22643757 14.989652,7.22643757 C14.2262589,7.22643757 13.9620663,7.56714357 13.9643636,7.97651376" id="Fill-360" fill="#000066"></path>
                <path d="M11.3175878,9.49100637 L10.7578059,9.49100637 L10.7711644,9.25852661 C10.6004815,9.44191232 10.3730462,9.52736296 10.0645237,9.52736296 C9.6993338,9.52736296 9.44918042,9.27978384 9.44918042,8.92372539 C9.44918042,8.38250981 9.88405589,8.07031547 10.6317932,8.07031547 C10.708626,8.07031547 10.8063901,8.07605155 10.9067918,8.08727064 C10.9275528,8.01481051 10.9331685,7.98359952 10.9331685,7.94429053 C10.9331685,7.7961648 10.8154943,7.74158773 10.5008456,7.74158773 C10.1906214,7.74276869 9.98130938,7.78840424 9.78705763,7.84011328 L9.88269449,7.34360533 C10.2186148,7.25891387 10.4384774,7.22610013 10.6873545,7.22610013 C11.266366,7.22610013 11.5721657,7.45132547 11.5721657,7.87427667 C11.5770156,7.98722675 11.5374505,8.21380171 11.5174553,8.31300208 C11.4948223,8.45716315 11.3343498,9.29361789 11.3175878,9.49100637 L11.3175878,9.49100637 Z M10.8262151,8.50355787 C10.7553384,8.49664085 10.7244521,8.494532 10.6758679,8.494532 C10.2940862,8.494532 10.1005151,8.60722899 10.1005151,8.82967064 C10.1005151,8.96936093 10.1949608,9.05666739 10.3422449,9.05666739 C10.6165628,9.05666739 10.8146434,8.82916451 10.8262151,8.50355787 L10.8262151,8.50355787 Z" id="Fill-361" fill="#000066"></path>
                <path d="M16.6484071,9.45591509 C16.4647911,9.50576835 16.3215911,9.52753168 16.1668193,9.52753168 C15.823922,9.52753168 15.6366473,9.35376235 15.6366473,9.04435168 C15.6258414,8.9593228 15.7096513,8.56657035 15.7287106,8.45716315 C15.7475997,8.34741853 16.0446356,6.74755963 16.0446356,6.74755963 L16.7108604,6.74755963 L16.6101183,7.27696563 L16.9518244,7.27696563 L16.8589954,7.81708461 L16.5157578,7.81708461 C16.5157578,7.81708461 16.3274621,8.75484859 16.3274621,8.82654952 C16.3274621,8.94017443 16.3968924,8.98960589 16.5564289,8.98960589 C16.6326662,8.98960589 16.6916309,8.98252016 16.737152,8.96902352 L16.6484071,9.45591509" id="Fill-362" fill="#000066"></path>
                <path d="M19.6253173,7.22610013 C19.1370077,7.22610013 18.7554813,7.42559747 18.5338318,7.75828984 L18.7262116,7.26464995 C18.3717426,7.13567261 18.1432011,7.31981749 17.9366969,7.58148376 C17.9366969,7.58148376 17.9020669,7.62492608 17.8675219,7.66465685 L17.8675219,7.27671259 L17.2419683,7.27671259 C17.1572225,7.9614144 17.0073857,8.65581693 16.890222,9.34203712 L16.8618883,9.49125944 L17.5348349,9.49125944 C17.5987346,9.14304592 17.6511477,8.86045987 17.7033906,8.63506584 C17.8463354,8.01675064 18.0869592,7.82779757 18.44815,7.9114768 C18.3647655,8.08904208 18.3190742,8.29486595 18.3190742,8.52253755 C18.3190742,9.07530963 18.6216407,9.52753168 19.3733771,9.52753168 C20.1318353,9.52753168 20.6810666,9.12583771 20.6810666,8.20983707 C20.6810666,7.6574024 20.3150258,7.22610013 19.6253173,7.22610013 L19.6253173,7.22610013 Z M19.4294489,8.99028075 C19.1918032,8.99390797 19.0476672,8.79618208 19.0476672,8.50026805 C19.0476672,8.14969264 19.2579151,7.75348165 19.5957923,7.75348165 C19.8684085,7.75348165 19.961748,7.96782531 19.961748,8.19617171 C19.961748,8.69487285 19.7555842,8.99028075 19.4294489,8.99028075 L19.4294489,8.99028075 Z" id="Fill-363" fill="#000066"></path>
                <polyline id="Fill-364" fill="#000066" points="9.13563784 9.49125944 8.46541403 9.49125944 8.86370242 7.41075117 7.94672867 9.49125944 7.3358099 9.49125944 7.22417684 7.42298251 6.82461215 9.49125944 6.2165863 9.49125944 6.73442078 6.78501283 7.78174657 6.78501283 7.86895989 8.29368499 8.53246192 6.78501283 9.66385285 6.78501283 9.13563784 9.49125944"></polyline>
                <path d="M13.680431,9.27134843 C13.4505282,9.33183029 13.2279427,9.36135421 12.9928496,9.36085448 C12.2424746,9.36017325 11.8516738,9.02123867 11.8516738,8.37331523 C11.8516738,7.61623763 12.3490876,7.05941653 13.0243315,7.05941653 C13.576796,7.05941653 13.9294783,7.37161088 13.9294783,7.86069565 C13.9294783,8.02299285 13.9055691,8.18081928 13.8471999,8.40477928 L12.5128785,8.40477928 C12.4653153,8.72093827 12.6981962,8.86012243 13.094953,8.86012243 C13.3325987,8.86012243 13.5476115,8.81777672 13.7855975,8.72270968 L13.680431,9.27134843 L13.680431,9.27134843 Z M13.3216226,7.95829331 C13.3216226,7.91046456 13.3958177,7.5707708 13.0097818,7.56334763 C12.7965558,7.56334763 12.6436559,7.70388149 12.5816281,7.95829331 L13.3216226,7.95829331 L13.3216226,7.95829331 Z" id="Fill-366" fill="#FFFFFF"></path>
                <path d="M14.1326641,7.80966147 C14.1326641,8.08937949 14.2913498,8.28246592 14.6522853,8.42645827 C14.92839,8.5385648 14.9716989,8.57095675 14.9716989,8.67083195 C14.9716989,8.80984741 14.8497704,8.87345037 14.5792814,8.87184765 C14.3757553,8.87032928 14.1901823,8.84578224 13.9714258,8.78563781 L13.8743424,9.29555805 C14.0691047,9.34051875 14.3421462,9.35519635 14.583791,9.36084808 C15.3043858,9.36084808 15.637243,9.12684995 15.637243,8.62106307 C15.637243,8.31721979 15.4983823,8.13830483 15.1561657,8.00519416 C14.870106,7.89190667 14.8364969,7.86719093 14.8364969,7.76486947 C14.8364969,7.64441187 14.9500019,7.5832552 15.1708856,7.5832552 C15.3048964,7.5832552 15.488172,7.59565523 15.6623434,7.61657504 L15.7599372,7.10370243 C15.5826176,7.07898669 15.3136602,7.0596696 15.1580376,7.0596696 C14.3944742,7.0596696 14.1302817,7.40020691 14.1326641,7.80966147" id="Fill-367" fill="#FFFFFF"></path>
                <path d="M11.4858883,9.32423843 L10.9259362,9.32423843 L10.9394649,9.09175867 C10.7686969,9.27497565 10.5414317,9.36034195 10.2328241,9.36034195 C9.86771935,9.36034195 9.61731071,9.11284717 9.61731071,8.75678872 C9.61731071,8.21574187 10.0522713,7.90354752 10.8000086,7.90354752 C10.8768414,7.90354752 10.9745204,7.90936795 11.0750922,7.92016525 C11.0958533,7.84787384 11.1013839,7.81691592 11.1013839,7.77752256 C11.1013839,7.62905944 10.9837948,7.57473544 10.6692311,7.57473544 C10.3589218,7.57600075 10.1496099,7.62163629 9.95544319,7.67342968 L10.0508248,7.17683739 C10.3868301,7.09214592 10.6066077,7.05941653 10.855655,7.05941653 C11.4346664,7.05941653 11.7403811,7.2843888 11.7403811,7.70750869 C11.7454011,7.82054312 11.7055808,8.04669635 11.6858408,8.14623411 C11.6629526,8.2903952 11.5025652,9.12684995 11.4858883,9.32423843 L11.4858883,9.32423843 Z M10.9944305,8.33687427 C10.9236388,8.32961981 10.8926675,8.32776403 10.8439981,8.32776403 C10.4623867,8.32776403 10.2687305,8.44029235 10.2687305,8.66256525 C10.2687305,8.80250861 10.3633463,8.88998376 10.5103752,8.88998376 C10.7848633,8.88998376 10.9829439,8.66222784 10.9944305,8.33687427 L10.9944305,8.33687427 Z" id="Fill-368" fill="#FFFFFF"></path>
                <path d="M16.8166225,9.28914715 C16.6329214,9.33908472 16.4898065,9.36084808 16.3349496,9.36084808 C15.9920523,9.36084808 15.8049478,9.18699437 15.8049478,8.87758373 C15.7940568,8.79255485 15.8778667,8.3998024 15.8968409,8.2903952 C15.9159002,8.18065056 16.2129361,6.58079168 16.2129361,6.58079168 L16.8790758,6.58079168 L16.7784188,7.11002899 L17.1201249,7.11002899 L17.0272108,7.65031667 L16.6840582,7.65031667 C16.6840582,7.65031667 16.4955923,8.58808064 16.4955923,8.65944416 C16.4955923,8.77349083 16.5651077,8.82258488 16.7246443,8.82258488 C16.8008815,8.82258488 16.8597612,8.81583656 16.9055375,8.8021712 L16.8166225,9.28914715" id="Fill-369" fill="#FFFFFF"></path>
                <path d="M20.1301336,8.02906635 C20.1301336,8.52818925 19.9237145,8.82359715 19.5975792,8.82359715 C19.3599335,8.82697131 19.2158826,8.62949848 19.2158826,8.33358445 C19.2158826,7.98300904 19.4261305,7.58671371 19.7639226,7.58671371 C20.0366239,7.58671371 20.1301336,7.80105736 20.1301336,8.02906635 L20.1301336,8.02906635 Z M20.849282,8.04306912 C20.849282,7.4907188 20.4831561,7.05941653 19.7936177,7.05941653 C19.0003593,7.05941653 18.4872896,7.58359261 18.4872896,8.35585392 C18.4872896,8.90854165 18.7898561,9.36084808 19.5416775,9.36084808 C20.3001358,9.36084808 20.849282,8.95915411 20.849282,8.04306912 L20.849282,8.04306912 Z" id="Fill-370" fill="#FFFFFF"></path>
                <path d="M17.4100986,7.10977592 C17.3254378,7.79464643 17.175516,8.48896461 17.0584374,9.17510045 L17.0301888,9.32457584 L17.7030503,9.32457584 C17.9455459,7.99928936 18.0269734,7.62180499 18.5351931,7.75466261 L18.7796457,7.12765896 C18.4250916,6.99868163 18.1969756,7.18291088 17.9904714,7.44474584 C18.0091053,7.32690323 18.0441608,7.21310963 18.0357373,7.10977592 L17.4100986,7.10977592" id="Fill-371" fill="#FFFFFF"></path>
                <polyline id="Fill-372" fill="#FFFFFF" points="9.30385324 9.32457584 8.63379956 9.32457584 9.03200287 7.24406755 8.11494404 9.32457584 7.50402527 9.32457584 7.39230713 7.25621453 6.99274242 9.32457584 6.38480167 9.32457584 6.90255108 6.61824485 7.94996195 6.61824485 8.00526796 8.29368499 8.74253971 6.61824485 9.83206823 6.61824485 9.30385324 9.32457584"></polyline>
            </g>
        </g>
    </g>
</svg>