<?xml version="1.0" encoding="UTF-8"?>
<svg width="22px" height="25px" viewBox="0 0 22 25" version="1.1" xmlns="http://www.w3.org/2000/svg" xmlns:xlink="http://www.w3.org/1999/xlink">
    <title>pdf</title>
    <g id="Anasayfa" stroke="none" stroke-width="1" fill="none" fill-rule="evenodd">
        <g id="Hakkimizda" transform="translate(-610.000000, -1447.000000)" fill="#AFAFB6" fill-rule="nonzero">
            <g id="pdf" transform="translate(610.000000, 1447.000000)">
                <path d="M2.03807805,23.0631836 C2.38957475,24.185791 3.40918788,25 4.60964455,25 L17.3903554,25 C18.5907643,25 19.6103774,24.185791 19.9618741,23.0631836 L2.03807805,23.0631836 Z" id="Path"></path>
                <path d="M19.3016516,4.0168457 L16.1578445,0.808251953 C16.0281921,0.675878906 15.8879666,0.559179687 15.7386511,0.457617187 L15.7386511,4.42709961 C15.7386511,4.51743164 15.8108928,4.59072266 15.8994487,4.59072266 L19.7337625,4.59072266 C19.6170275,4.38310547 19.4720177,4.19072266 19.3016516,4.0168457 Z" id="Path"></path>
                <path d="M20.0931531,6.05581055 L15.8994487,6.05581055 C15.0190086,6.05581055 14.3031456,5.32519531 14.3031456,4.42709961 L14.3031456,0.0009765625 C14.2844872,0 14.2653503,0 14.2466918,0 L4.60950103,0 C3.11940763,0 1.90689471,1.23754883 1.90689471,2.75878906 L1.90689471,10.2831055 L20.0931531,10.2831055 L20.0931531,6.05581055 L20.0931531,6.05581055 Z" id="Path"></path>
                <path d="M11.0258109,14.9851562 L10.3693679,14.9851562 L10.3693679,18.440332 L11.0258109,18.440332 C11.4683513,18.440332 11.6896215,18.1894531 11.6896215,17.6875488 L11.6896215,15.7379395 C11.6895737,15.2361816 11.4683035,14.9851562 11.0258109,14.9851562 Z" id="Path"></path>
                <path d="M6.90296078,14.9851562 L6.17279301,14.9851562 L6.17279301,16.5734375 L6.90296078,16.5734375 C7.3455012,16.5734375 7.56681925,16.3225586 7.56681925,15.8206543 L7.56681925,15.7378906 C7.56672357,15.2361816 7.34545336,14.9851562 6.90296078,14.9851562 Z" id="Path"></path>
                <path d="M20.1865411,11.748291 L1.81345888,11.748291 C0.8135089,11.748291 0,12.5785645 0,13.5991211 L0,19.747168 C0,20.7677246 0.8135089,21.597998 1.81345888,21.597998 L20.1864933,21.597998 C21.1864433,21.597998 22,20.7677246 22,19.747168 L22,13.5991211 C22,12.5785645 21.1864911,11.748291 20.1865411,11.748291 Z M8.71737651,15.7303711 L8.71732867,15.7303711 C8.71732867,16.3276367 8.55136405,16.7680176 8.21948265,17.0514648 C7.88760126,17.3350098 7.44874469,17.4767578 6.90296078,17.4767578 L6.17279301,17.4767578 L6.17279301,19.1026855 C6.17279301,19.2181641 6.11619567,19.3072266 6.00314454,19.3699219 C5.88999772,19.4327148 5.75479564,19.4640137 5.59749046,19.4640137 C5.44004175,19.4640137 5.30488752,19.4327148 5.19178854,19.3699219 C5.07864172,19.3072266 5.02214007,19.2181641 5.02214007,19.1026855 L5.02214007,14.3151367 C5.02214007,14.219873 5.06141852,14.1370605 5.14011895,14.066748 C5.2187237,13.9965332 5.32196718,13.961377 5.44989725,13.961377 L6.97663778,13.961377 C7.5027107,13.961377 7.92443976,14.1006348 8.24153791,14.3791992 C8.5586839,14.6577148 8.71728082,15.0956055 8.71728082,15.6927246 L8.71728082,15.7303711 L8.71737651,15.7303711 Z M12.8401788,17.6875977 C12.8401788,18.2999023 12.6753624,18.7489746 12.3460166,19.0350098 C12.0165273,19.3210449 11.5764268,19.4641113 11.0258109,19.4641113 L9.72034055,19.4641113 C9.57279518,19.4641113 9.45228066,19.4290527 9.35894051,19.3587402 C9.26550468,19.2885254 9.21876284,19.2057129 9.21876284,19.1103027 L9.21876284,14.3152344 C9.21876284,14.2199707 9.26545684,14.1371582 9.35894051,14.0668457 C9.45228066,13.9966309 9.57284302,13.9614746 9.72034055,13.9614746 L11.0258109,13.9614746 C11.5764268,13.9614746 12.0165752,14.104541 12.3460166,14.3905762 C12.6753624,14.6766113 12.8401788,15.1258301 12.8401788,15.7379883 L12.8401788,17.6875977 Z M16.8856202,14.834668 C16.8240951,14.9351074 16.739223,14.9852539 16.6311953,14.9852539 L14.7209516,14.9852539 L14.7209516,16.2574219 L15.8346225,16.2574219 C15.9426981,16.2574219 16.0275702,16.3025879 16.0890952,16.3928711 C16.1505246,16.4832031 16.1812872,16.5912109 16.1812872,16.7165527 C16.1812872,16.8320312 16.1517685,16.9348633 16.0927791,17.0251953 C16.0337896,17.1155273 15.9476737,17.1606445 15.8346225,17.1606445 L14.7209516,17.1606445 L14.7209516,19.1027344 C14.7209516,19.2182129 14.6643543,19.3072754 14.5513032,19.3699707 C14.4381563,19.4327637 14.3029543,19.4640625 14.1456491,19.4640625 C13.9882004,19.4640625 13.8530461,19.4327637 13.7399472,19.3699707 C13.6268003,19.3072754 13.5702987,19.2182129 13.5702987,19.1027344 L13.5702987,14.3227539 C13.5702987,14.207373 13.6193848,14.1183105 13.7178441,14.0555176 C13.816112,13.9928223 13.9341865,13.9614258 14.0718286,13.9614258 L16.6311475,13.9614258 C16.7441507,13.9614258 16.8303146,14.0116211 16.889304,14.1120117 C16.9482934,14.2124512 16.9778121,14.3303223 16.9778121,14.4658203 C16.9777642,14.611377 16.9470017,14.7342773 16.8856202,14.834668 Z" id="Shape"></path>
            </g>
        </g>
    </g>
</svg>