<svg width="31" height="31" viewBox="0 0 31 31" fill="none" xmlns="http://www.w3.org/2000/svg">
    <path d="M29.254 8.794a15.317 15.317 0 0 0-5.742-6.456A15.273 15.273 0 0 0 11.914.4a15.23 15.23 0 0 0-9.57 6.822A15.244 15.244 0 0 0 .4 18.82a15.258 15.258 0 0 0 6.822 9.57 15.32 15.32 0 0 0 8.13 2.34h.186a15.437 15.437 0 0 0 8.058-2.388 1.497 1.497 0 0 0 .462-2.07 1.497 1.497 0 0 0-2.07-.462 12.398 12.398 0 0 1-6.486 1.926 12.348 12.348 0 0 1-6.69-1.878C3.034 22.234 1.27 14.59 4.888 8.812a12.263 12.263 0 0 1 7.704-5.49 12.266 12.266 0 0 1 9.33 1.566 12.302 12.302 0 0 1 4.62 5.19 12.36 12.36 0 0 1 1.11 6.672 1.498 1.498 0 0 0 1.326 1.656 1.498 1.498 0 0 0 1.656-1.326c.318-2.832-.162-5.7-1.38-8.286z" fill="#F5841F"/>
    <path d="M12.717 9.077a1.5 1.5 0 0 0-2.123 0 4.866 4.866 0 0 0-1.41 3.06 4.84 4.84 0 0 0 .924 3.24 26.114 26.114 0 0 0 5.543 5.544 4.839 4.839 0 0 0 2.863.942c.126 0 .252-.006.378-.012a4.863 4.863 0 0 0 3.06-1.41 1.5 1.5 0 0 0 0-2.124 1.5 1.5 0 0 0-2.125 0 1.86 1.86 0 0 1-2.4.192 23.154 23.154 0 0 1-4.902-4.902 1.853 1.853 0 0 1 .192-2.4 1.506 1.506 0 0 0 0-2.13z" fill="#F5841F"/>
</svg>
