<?xml version="1.0" encoding="UTF-8"?>
<svg width="26px" height="26px" viewBox="0 0 26 26" version="1.1" xmlns="http://www.w3.org/2000/svg" xmlns:xlink="http://www.w3.org/1999/xlink">
    <title>play-button</title>
    <g id="Anasayfa" stroke="none" stroke-width="1" fill="none" fill-rule="evenodd">
        <g id="Villa-SSS" transform="translate(-955.000000, -867.000000)" fill="#E72A2A" fill-rule="nonzero">
            <g id="play-button" transform="translate(955.000000, 867.000000)">
                <path d="M12.8,0 C5.74165,0 0,5.7422 0,12.8 C0,19.8578 5.74165,25.6 12.8,25.6 C19.85835,25.6 25.6,19.8578 25.6,12.8 C25.6,5.7422 19.85835,0 12.8,0 Z M17.88855,13.24845 L10.4219,18.04845 C10.3344,18.1052 10.23335,18.13335 10.13335,18.13335 C10.04585,18.13335 9.9573,18.11145 9.87815,18.06825 C9.70625,17.9745 9.6,17.7953 9.6,17.6 L9.6,8 C9.6,7.8047 9.70625,7.6255 9.87815,7.53175 C10.0469,7.43905 10.25835,7.44475 10.4219,7.55155 L17.88855,12.35155 C18.04065,12.44945 18.13335,12.61875 18.13335,12.8 C18.13335,12.98125 18.04065,13.1505 17.88855,13.24845 Z" id="Shape"></path>
            </g>
        </g>
    </g>
</svg>