<?xml version="1.0" encoding="UTF-8"?>
<svg width="29px" height="29px" viewBox="0 0 29 29" version="1.1" xmlns="http://www.w3.org/2000/svg" xmlns:xlink="http://www.w3.org/1999/xlink">
    <title>001-beach-umbrella</title>
    <g id="Anasayfa" stroke="none" stroke-width="1" fill="none" fill-rule="evenodd">
        <g id="Villa-Mesafeler" transform="translate(-406.000000, -1145.000000)" fill-rule="nonzero">
            <g id="001-beach-umbrella" transform="translate(406.000000, 1145.000000)">
                <path d="M4.654608,13.172096 C4.335352,9.483152 6.007848,5.964952 8.973496,3.772776 L8.646064,2.801568 C3.764096,4.433688 0.739032,8.990912 1.15892,13.842864 C1.281672,15.26112 2.629368,16.24588 4.023768,15.951992 C4.724384,15.80432 5.60028,15.597568 6.679176,15.307432 C5.624752,15.152872 4.752216,14.299936 4.654608,13.172096 L4.654608,13.172096 Z" id="Path" fill="#CEE1F2"></path>
                <path d="M20.211576,28.672336 C19.458208,28.672336 18.705456,28.477064 18.141592,28.13468 C17.614408,27.810328 16.91872,27.811168 16.392152,28.13468 C15.834896,28.473032 15.089088,28.66892 14.345856,28.672224 C13.590304,28.67732 12.829656,28.47964 12.261536,28.13468 C12.007968,27.980736 11.680536,27.888616 11.385752,27.888336 C11.093096,27.888056 10.766728,27.98012 10.512152,28.13468 C9.941288,28.481264 9.177952,28.676088 8.411536,28.672224 C7.676256,28.667464 6.936384,28.47152 6.381592,28.13468 C6.127632,27.980512 5.800536,27.888392 5.506536,27.888336 C5.204976,27.88828 4.876256,27.979392 4.627,28.132216 C4.058432,28.48076 3.329648,28.67256 2.575776,28.67228 C1.832768,28.672 1.10936,28.481096 0.538888,28.134736 C0.010136,27.813688 -0.1582,27.124832 0.162848,26.59608 C0.483784,26.067328 1.172696,25.898936 1.701448,26.219984 C1.920128,26.352816 2.247336,26.432168 2.57656,26.43228 C2.912728,26.432448 3.24184,26.353936 3.45632,26.222448 C4.06056,25.852008 4.788952,25.648112 5.507152,25.6483343 C6.213816,25.648504 6.93728,25.851504 7.544096,26.219984 C7.756168,26.348728 8.094128,26.430096 8.426096,26.43228 C8.77156,26.43508 9.133432,26.351192 9.349536,26.219984 C9.957808,25.850664 10.681608,25.647664 11.38788,25.6483343 C12.094936,25.649064 12.818064,25.852064 13.42404,26.219984 C13.638856,26.350464 13.997088,26.432672 14.335832,26.43228 C14.668752,26.430768 15.019536,26.34744 15.22948,26.219984 C16.454816,25.463816 18.078088,25.462976 19.30404,26.22004 C19.52048,26.351472 19.88252,26.434184 20.226696,26.432336 C20.554464,26.429984 20.900992,26.346656 21.109536,26.22004 C22.333304,25.469472 23.958592,25.459896 25.184096,26.22004 C25.39656,26.349064 25.75468,26.432448 26.09572,26.43228 C26.425,26.432168 26.752152,26.352816 26.970888,26.219984 C27.49964,25.898992 28.188496,26.067328 28.509488,26.59608 C28.83048,27.124776 28.662144,27.813688 28.133392,28.13468 C27.562864,28.481096 26.839568,28.671944 26.09656,28.672224 C25.34112,28.672504 24.584616,28.47656 24.021536,28.13468 C23.493904,27.807976 22.797376,27.814584 22.272096,28.13468 C21.718088,28.471016 20.97844,28.66696 20.242824,28.672224 C20.232464,28.672336 20.221992,28.672336 20.211576,28.672336 L20.211576,28.672336 Z M22.22108,6.530944 C19.544,2.246104 14.393624,0.24332 9.397136,1.424752 L9.176608,0.765184 C8.980496,0.178584 8.346128,-0.138152 7.759248,0.058128 C7.172592,0.25424 6.85608,0.888776 7.052192,1.475488 L7.27104,2.130016 C2.53988,4.177992 -0.393848,8.889776 0.04312,13.939408 C0.188328,15.988672 2.254112,17.503696 4.254768,17.047856 C6.292888,16.61828 8.752184,15.93732 11.578,15.020544 L14.305928,23.148664 C14.501536,23.74064 15.153432,24.050376 15.724072,23.854096 C16.310504,23.657312 16.626344,23.022328 16.429504,22.435952 L13.347208,13.251952 C13.150592,12.666024 12.516616,12.350128 11.930296,12.546128 C8.736504,13.61388 5.998664,14.391048 3.792824,14.856072 C3.431232,14.932232 3.068912,14.853048 2.772448,14.63308 C2.482368,14.417816 2.305632,14.102928 2.274776,13.74632 C1.896776,9.378152 4.662672,5.3144 9.000936,3.863832 C9.001048,3.863776 9.001104,3.863776 9.001216,3.863776 C13.342,2.412592 17.997,3.997504 20.321448,7.71792 C20.511456,8.022056 20.559672,8.380624 20.457192,8.7276 C20.35292,9.080512 20.11212,9.360792 19.7792,9.51664 C19.026224,9.86916 17.765944,10.459232 16.066176,11.105528 C15.487976,11.325384 15.197504,11.972296 15.41736,12.55044 C15.636656,13.134408 16.299136,13.417824 16.862272,13.199256 C18.64016,12.52328 19.94776,11.911088 20.729016,11.54524 C21.63728,11.120032 22.321208,10.324272 22.605408,9.362136 C22.887872,8.405824 22.74776,7.373912 22.22108,6.530944 Z" id="Shape" fill="#2C318C"></path>
                <path d="M14.39312,9.80056 C13.99272,9.80056 13.60548,9.585352 13.40388,9.207352 C12.749744,7.980784 11.288648,7.148456 11.274088,7.140392 C10.732792,6.841016 10.53668,6.159552 10.836056,5.618256 C11.135432,5.07696 11.816952,4.880904 12.358192,5.180224 C12.441408,5.226256 14.407064,6.328224 15.3804,8.153264 C15.671488,8.69904 15.46496,9.37748 14.919184,9.668568 C14.751352,9.758112 14.57092,9.80056 14.39312,9.80056 Z M7.733488,12.08284 C8.344616,11.987136 8.762432,11.414144 8.666728,10.803016 C8.449896,9.418808 9.086448,7.906416 9.092888,7.891296 C9.336936,7.32452 9.076592,6.6668 8.510208,6.420904 C7.942816,6.174672 7.283192,6.434904 7.036848,7.002296 C6.999888,7.087472 6.134688,9.112544 6.45372,11.1496 C6.54024,11.701984 7.016744,12.0964485 7.55888,12.0964485 C7.616392,12.0964485 7.674744,12.09208 7.733488,12.08284 Z M22.232168,23.968336 C19.916288,23.968336 18.032168,22.084216 18.032168,19.768336 C18.262888,14.196448 26.202288,14.198072 26.432168,19.768392 C26.432168,22.084216 24.548048,23.968336 22.232168,23.968336 Z M22.232168,17.808336 C21.151424,17.808336 20.272168,18.687592 20.272168,19.768336 C20.379856,22.368528 24.084872,22.3678 24.192168,19.768336 C24.192168,18.687592 23.312912,17.808336 22.232168,17.808336 Z" id="Shape" fill="#5DC1B2"></path>
            </g>
        </g>
    </g>
</svg>