<?xml version="1.0" encoding="UTF-8"?>
<svg width="29px" height="23px" viewBox="0 0 29 23" version="1.1" xmlns="http://www.w3.org/2000/svg" xmlns:xlink="http://www.w3.org/1999/xlink">
    <title>001-bed copy 2</title>
    <g id="Anasayfa" stroke="none" stroke-width="1" fill="none" fill-rule="evenodd">
        <g id="Villa-Fiyatlar" transform="translate(-427.000000, -2174.000000)" fill-rule="nonzero">
            <g id="001-bed-copy-2" transform="translate(427.000000, 2174.000000)">
                <path d="M4.49982284,16.858478 L4.49982284,14.6106809 C4.49982284,13.3692788 5.50713925,12.3628838 6.74967802,12.3628838 L3.37489526,12.3628838 C2.13235649,12.3628838 1.12504008,13.3692788 1.12504008,14.6106809 L1.12504008,16.858478 C1.12504008,18.0998801 2.13235649,19.106275 3.37489526,19.106275 L6.74967802,19.106275 C5.50713925,19.106275 4.49982284,18.0998801 4.49982284,16.858478 Z" id="Path" fill="#CEE1F2"></path>
                <path d="M7.6495076,8.99118825 L9.89936277,8.99118825 C10.5206603,8.99118825 11.0242904,8.48801888 11.0242904,7.86728972 C11.0242904,7.24656056 10.5206603,6.74339119 9.89936277,6.74339119 L7.6495076,6.74339119 C7.02821009,6.74339119 6.52458001,7.24656056 6.52458001,7.86728972 C6.52458001,8.48801888 7.02821009,8.99118825 7.6495076,8.99118825 Z" id="Path" fill="#5DC1B2"></path>
                <path d="M18.8987835,8.99118825 L21.1486386,8.99118825 C21.7699362,8.99118825 22.2735662,8.48801888 22.2735662,7.86728972 C22.2735662,7.24656056 21.7699362,6.74339119 21.1486386,6.74339119 L18.8987835,6.74339119 C18.277486,6.74339119 17.7738559,7.24656056 17.7738559,7.86728972 C17.7738559,8.48801888 18.277486,8.99118825 18.8987835,8.99118825 Z" id="Path" fill="#5DC1B2"></path>
                <g id="Group" fill="#2C318C">
                    <ellipse id="Oval" cx="14.3990731" cy="5.61949266" rx="1.12492759" ry="1.12389853"></ellipse>
                    <path d="M25.4233635,11.2389853 L3.37478276,11.2389853 C1.51392755,11.2389853 0,12.751528 0,14.6106809 L0,16.858478 C0,18.3236483 0.940551956,19.5729177 2.24985518,20.036863 L2.24985518,21.3540721 C2.24985518,21.9748013 2.75348526,22.4779706 3.37478276,22.4779706 C3.99608027,22.4779706 4.49971035,21.9748013 4.49971035,21.3540721 L4.49971035,20.2301736 L24.2984359,20.2301736 L24.2984359,21.3540721 C24.2984359,21.9748013 24.802066,22.4779706 25.4233635,22.4779706 C26.044661,22.4779706 26.5482911,21.9748013 26.5482911,21.3540721 L26.5482911,20.036863 C27.8575943,19.5729177 28.7981462,18.3236483 28.7981462,16.858478 L28.7981462,14.6106809 C28.7981462,12.751528 27.2842187,11.2389853 25.4233635,11.2389853 Z M26.5482911,16.858478 C26.5482911,17.4781956 26.0436486,17.9823765 25.4233635,17.9823765 L3.37478276,17.9823765 C2.75449769,17.9823765 2.24985518,17.4781956 2.24985518,16.858478 L2.24985518,14.6106809 C2.24985518,13.9909633 2.75449769,13.4867824 3.37478276,13.4867824 L25.4233635,13.4867824 C26.0436486,13.4867824 26.5482911,13.9909633 26.5482911,14.6106809 L26.5482911,16.858478 Z" id="Shape"></path>
                    <path d="M3.14979725,8.99118825 C3.77109475,8.99118825 4.27472483,8.48801888 4.27472483,7.86728972 C4.27472483,6.00813677 5.78865238,4.49559413 7.6495076,4.49559413 L10.5013678,4.49559413 C10.9029107,4.49559413 11.2740243,4.28171623 11.4751051,3.93448778 C12.0775038,2.89409491 13.1978754,2.24779706 14.3990731,2.24779706 C15.6002146,2.24779706 16.7206424,2.89409491 17.3230974,3.93448778 C17.524122,4.28177243 17.8952918,4.49559413 18.2968347,4.49559413 L21.1486386,4.49559413 C23.0094939,4.49559413 24.5234214,6.00813677 24.5234214,7.86728972 C24.5234214,8.48801888 25.0270515,8.99118825 25.648349,8.99118825 C26.2696465,8.99118825 26.7732766,8.48801888 26.7732766,7.86728972 C26.7732766,4.76870147 24.2501203,2.24779706 21.1486386,2.24779706 L18.8988397,2.24779706 C17.8441639,0.847082323 16.1746588,0 14.3990731,0 C12.6234312,0 10.9539824,0.847026128 9.89936277,2.24779706 L7.6495076,2.24779706 C4.54808224,2.24779706 2.02486966,4.76870147 2.02486966,7.86728972 C2.02486966,8.48801888 2.52849974,8.99118825 3.14979725,8.99118825 Z" id="Path"></path>
                </g>
            </g>
        </g>
    </g>
</svg>