<?xml version="1.0" encoding="UTF-8"?>
<svg width="29px" height="29px" viewBox="0 0 29 29" version="1.1" xmlns="http://www.w3.org/2000/svg" xmlns:xlink="http://www.w3.org/1999/xlink">
    <title>003-swimming-pool copy 5</title>
    <g id="Anasayfa" stroke="none" stroke-width="1" fill="none" fill-rule="evenodd">
        <g id="Villa-Fiyatlar" transform="translate(-427.000000, -2291.000000)" fill-rule="nonzero">
            <g id="003-swimming-pool-copy-5" transform="translate(427.000000, 2291.000000)">
                <path d="M4.49971035,23.1285881 L4.49971035,11.9011182 C4.49971035,9.42068936 6.51434317,7.41013017 8.9994207,7.41013017 L5.62463794,7.41013017 C3.1395604,7.41013017 1.12492759,9.42068936 1.12492759,11.9011182 L1.12492759,23.1285881 C1.12492759,25.6088485 3.1395604,27.6195761 5.62463794,27.6195761 L8.9994207,27.6195761 C6.51434317,27.6195761 4.49971035,25.6088485 4.49971035,23.1285881 Z" id="Path" fill="#CEE1F2"></path>
                <path d="M23.1735083,6.28738318 L20.0237111,6.28738318 L20.0237111,3.36824099 C20.0237111,2.74915829 20.5283536,2.24549399 21.1486386,2.24549399 C21.7689237,2.24549399 22.2735662,2.74915829 22.2735662,3.36824099 C22.2735662,3.98833415 22.7771963,4.49098798 23.3984938,4.49098798 C24.0197913,4.49098798 24.5234214,3.98833415 24.5234214,3.36824099 C24.5234214,1.51099291 23.0094939,0 21.1486386,0 C19.2877834,0 17.7738559,1.51099291 17.7738559,3.36824099 L17.7738559,14.1466121 C17.7738559,14.7667053 18.277486,15.2693591 18.8987835,15.2693591 C19.520081,15.2693591 20.0237111,14.7667053 20.0237111,14.1466121 L20.0237111,8.53287717 L23.1735083,8.53287717 C25.0343635,8.53287717 26.5482911,10.0438701 26.5482911,11.9011182 L26.5482911,23.1285881 C26.5482911,24.9858362 25.0343635,26.4968291 23.1735083,26.4968291 L5.62463794,26.4968291 C3.76378272,26.4968291 2.24985518,24.9858362 2.24985518,23.1285881 L2.24985518,11.9011182 C2.24985518,10.0438701 3.76378272,8.53287717 5.62463794,8.53287717 L8.77443518,8.53287717 L8.77443518,14.1466121 C8.77443518,14.7667053 9.27806526,15.2693591 9.89936277,15.2693591 C10.5206603,15.2693591 11.0242904,14.7667053 11.0242904,14.1466121 L11.0242904,13.0238652 L14.3990731,13.0238652 C15.0203706,13.0238652 15.5240007,12.5212113 15.5240007,11.9011182 C15.5240007,11.281025 15.0203706,10.7783712 14.3990731,10.7783712 L11.0242904,10.7783712 L11.0242904,8.53287717 L14.3990731,8.53287717 C15.0203706,8.53287717 15.5240007,8.03022334 15.5240007,7.41013017 C15.5240007,6.79003701 15.0203706,6.28738318 14.3990731,6.28738318 L11.0242904,6.28738318 L11.0242904,3.36824099 C11.0242904,2.74915829 11.5289329,2.24549399 12.1492179,2.24549399 C12.769503,2.24549399 13.2741455,2.74915829 13.2741455,3.36824099 C13.2741455,3.98833415 13.7777756,4.49098798 14.3990731,4.49098798 C15.0203706,4.49098798 15.5240007,3.98833415 15.5240007,3.36824099 C15.5240007,1.51099291 14.0100732,0 12.1492179,0 C10.2883627,0 8.77443518,1.51099291 8.77443518,3.36824099 L8.77443518,6.28738318 L5.62463794,6.28738318 C2.52321258,6.28738318 0,8.80570469 0,11.9011182 L0,23.1285881 C0,26.2240016 2.52321258,28.7423231 5.62463794,28.7423231 L23.1735083,28.7423231 C26.2749899,28.7423231 28.7981462,26.2240016 28.7981462,23.1285881 L28.7981462,11.9011182 C28.7981462,8.80570469 26.2749899,6.28738318 23.1735083,6.28738318 Z" id="Path" fill="#2C318C"></path>
                <path d="M5.60163317,22.1638678 C6.928654,22.1912628 7.92275251,21.5393397 8.64169373,20.4629622 C8.93957455,20.016951 9.41851247,19.7611892 9.9555529,19.7611892 C10.4925933,19.7611892 10.971475,20.0170071 11.2694121,20.4630183 C11.9811538,21.5285614 13.1721708,22.1647098 14.4553195,22.1647098 C15.7384682,22.1647098 16.929429,21.5285052 17.6411144,20.4630183 C17.9390515,20.0170071 18.4179894,19.7612453 18.9550299,19.7612453 C19.4920703,19.7612453 19.970952,20.0170632 20.2688328,20.4630745 C21.0170784,21.5832953 21.9597114,22.1396164 23.1504473,22.1639239 C23.7739384,22.1775091 24.285443,21.6843425 24.2981547,21.0644178 C24.3108663,20.444493 23.8176418,19.9316222 23.1964568,19.9189351 C22.8289992,19.9114127 22.5242001,19.7914472 22.1407685,19.217499 C21.4290268,18.1519559 20.238066,17.5158075 18.9549174,17.5157513 C18.9548611,17.5157513 18.9549736,17.5157513 18.9548611,17.5157513 C17.6717687,17.5157513 16.4807516,18.1519559 15.7689537,19.2174428 C15.4710729,19.6634541 14.9921912,19.9192158 14.4551508,19.9192158 C13.9180541,19.9192158 13.4391724,19.6633979 13.1412916,19.2174428 C12.4295499,18.1518998 11.2385328,17.5156952 9.95544041,17.5156952 C8.67240425,17.5156952 7.48133092,18.1518998 6.76958924,19.2173867 C6.37344599,19.8104778 6.0345053,19.9259523 5.64753021,19.918879 C5.02432033,19.9064727 4.51253452,20.3984604 4.49987909,21.0184413 C4.48722365,21.638366 4.9805044,22.1511807 5.60163317,22.1638678 L5.60163317,22.1638678 Z" id="Path" fill="#5DC1B2"></path>
            </g>
        </g>
    </g>
</svg>