<?xml version="1.0" encoding="UTF-8"?>
<svg width="29px" height="29px" viewBox="0 0 29 29" version="1.1" xmlns="http://www.w3.org/2000/svg" xmlns:xlink="http://www.w3.org/1999/xlink">
    <title>005-shopping-cart</title>
    <g id="Anasayfa" stroke="none" stroke-width="1" fill="none" fill-rule="evenodd">
        <g id="Villa-Mesafeler" transform="translate(-811.000000, -1046.000000)" fill-rule="nonzero">
            <g id="005-shopping-cart" transform="translate(811.000000, 1046.000000)">
                <path d="M8.96,14.56 L8.96,5.6 L5.6,5.6 L5.6,14.56 C5.6,17.034248 7.605752,19.04 10.08,19.04 L13.44,19.04 C10.965752,19.04 8.96,17.034248 8.96,14.56 Z" id="Path" fill="#CEE1F2"></path>
                <g id="Group" fill="#2C318C">
                    <path d="M25.312,4.48 L6.607496,4.48 C6.087144,1.927128 3.824352,0 1.12,0 C0.501424,0 -7.95807864e-16,0.501424 -7.95807864e-16,1.12 C-7.95807864e-16,1.738576 0.501424,2.24 1.12,2.24 C2.972704,2.24 4.48,3.747296 4.48,5.6 L4.48,14.56 C4.48,17.64784 6.99216,20.16 10.08,20.16 L23.072,20.16 C26.15984,20.16 28.672,17.64784 28.672,14.56 L28.672,7.84 C28.672,5.987296 27.164704,4.48 25.312,4.48 Z M26.432,14.56 C26.432,16.412704 24.924704,17.92 23.072,17.92 L10.08,17.92 C8.227296,17.92 6.72,16.412704 6.72,14.56 L6.72,6.72 L25.312,6.72 C25.929568,6.72 26.432,7.222432 26.432,7.84 L26.432,14.56 Z" id="Shape"></path>
                    <path d="M13.216,25.312 C13.216,23.459296 11.708704,21.952 9.856,21.952 C8.003296,21.952 6.496,23.459296 6.496,25.312 C6.496,27.164704 8.003296,28.672 9.856,28.672 C11.708704,28.672 13.216,27.164704 13.216,25.312 Z M8.736,25.312 C8.736,24.694432 9.238432,24.192 9.856,24.192 C10.473568,24.192 10.976,24.694432 10.976,25.312 C10.976,25.929568 10.473568,26.432 9.856,26.432 C9.238432,26.432 8.736,25.929568 8.736,25.312 Z" id="Shape"></path>
                    <path d="M23.296,28.672 C25.148704,28.672 26.656,27.164704 26.656,25.312 C26.656,23.459296 25.148704,21.952 23.296,21.952 C21.443296,21.952 19.936,23.459296 19.936,25.312 C19.936,27.164704 21.443296,28.672 23.296,28.672 Z M23.296,24.192 C23.913568,24.192 24.416,24.694432 24.416,25.312 C24.416,25.929568 23.913568,26.432 23.296,26.432 C22.678432,26.432 22.176,25.929568 22.176,25.312 C22.176,24.694432 22.678432,24.192 23.296,24.192 Z" id="Shape"></path>
                </g>
                <path d="M12.096,15.68 C12.714576,15.68 13.216,15.178576 13.216,14.56 L13.216,10.08 C13.216,9.461424 12.714576,8.96 12.096,8.96 C11.477424,8.96 10.976,9.461424 10.976,10.08 L10.976,14.56 C10.976,15.178576 11.477424,15.68 12.096,15.68 Z" id="Path" fill="#5DC1B2"></path>
                <path d="M16.576,15.68 C17.194576,15.68 17.696,15.178576 17.696,14.56 L17.696,10.08 C17.696,9.461424 17.194576,8.96 16.576,8.96 C15.957424,8.96 15.456,9.461424 15.456,10.08 L15.456,14.56 C15.456,15.178576 15.957424,15.68 16.576,15.68 Z" id="Path" fill="#5DC1B2"></path>
                <path d="M19.936,14.56 C19.936,15.178576 20.437424,15.68 21.056,15.68 C21.674576,15.68 22.176,15.178576 22.176,14.56 L22.176,10.08 C22.176,9.461424 21.674576,8.96 21.056,8.96 C20.437424,8.96 19.936,9.461424 19.936,10.08 L19.936,14.56 Z" id="Path" fill="#5DC1B2"></path>
            </g>
        </g>
    </g>
</svg>