<?xml version="1.0" encoding="UTF-8"?>
<svg width="29px" height="29px" viewBox="0 0 29 29" version="1.1" xmlns="http://www.w3.org/2000/svg" xmlns:xlink="http://www.w3.org/1999/xlink">
    <title>007-distance copy</title>
    <g id="Anasayfa" stroke="none" stroke-width="1" fill="none" fill-rule="evenodd">
        <g id="IconSet" transform="translate(-703.000000, -698.000000)" fill-rule="nonzero">
            <g id="007-distance-copy" transform="translate(703.000000, 698.000000)">
                <path d="M22.4546949,20.7772883 C20.4662756,18.2713793 17.5707988,14.9306147 17.5707988,12.6913048 C17.5707988,9.57604235 19.7037141,7.06935057 22.6023345,6.3545987 C22.0704951,6.22057224 21.5132818,6.14933748 20.939003,6.14933748 C17.2117482,6.14933748 14.2025945,9.14902522 14.2025945,12.8492626 C14.2025945,15.0885724 16.9325241,18.9423503 18.9209996,21.4482593 C19.9494807,22.7444076 21.9285253,22.7444076 22.9570065,21.4482593 C22.9888921,21.408057 23.0210023,21.3674632 23.053281,21.3265899 C22.832439,21.181101 22.6297854,20.9979819 22.4546949,20.7772883 Z" id="Path" fill="#CEE1F2"></path>
                <path d="M7.12936564,18.2827299 C7.12936564,19.054738 6.50102714,19.6805862 5.72594721,19.6805862 C3.86434072,19.6069471 3.86484595,16.9582332 5.72594721,16.8848737 C6.50102714,16.8848737 7.12936564,17.5107219 7.12936564,18.2827299 Z M20.939003,23.5386695 C19.8011675,23.5386695 18.744618,23.0295143 18.0401019,22.1417079 C14.7487489,17.9937092 13.0798598,14.8672638 13.0798598,12.8492626 C13.0798598,8.53827385 16.6054714,5.03105247 20.939003,5.03105247 C25.2725346,5.03105247 28.7981462,8.53827385 28.7981462,12.8492626 C28.7981462,14.8672638 27.1292572,17.9936533 23.8379041,22.141652 C23.1333881,23.0295143 22.0768385,23.5386695 20.939003,23.5386695 Z M22.0761649,20.7548667 C24.8791845,17.2223162 26.5526767,14.2669684 26.5526767,12.8492626 C26.5526767,9.77151857 24.0344388,7.2676225 20.939003,7.2676225 C17.8435672,7.2676225 15.3253293,9.77151857 15.3253293,12.8492626 C15.3253293,14.2669125 16.9988216,17.2223162 19.8018411,20.7548667 C20.3554055,21.4799627 21.5227128,21.4798509 22.0761649,20.7548667 Z M10.1607495,25.8311538 C9.38566952,25.8311538 8.75733102,26.457002 8.75733102,27.2290101 C8.8312631,29.0832385 11.4905165,29.0827352 11.5641679,27.2290101 C11.5641679,26.457002 10.9358294,25.8311538 10.1607495,25.8311538 Z M1.40341843,16.8848737 C0.628338501,16.8848737 0,17.5107219 0,18.2827299 C0.073932083,20.1369583 2.73318547,20.1364551 2.80683687,18.2827299 C2.80683687,17.5107219 2.17849836,16.8848737 1.40341843,16.8848737 Z M10.048476,19.6805862 C10.8235559,19.6805862 11.4518944,19.054738 11.4518944,18.2827299 C11.3779623,16.4285015 8.71870895,16.4290048 8.64505755,18.2827299 C8.64505755,19.054738 9.27339605,19.6805862 10.048476,19.6805862 Z M19.0303539,25.8311538 C18.255274,25.8311538 17.6269355,26.457002 17.6269355,27.2290101 C17.7008676,29.0832385 20.360121,29.0827352 20.4337724,27.2290101 C20.4337724,26.457002 19.8054339,25.8311538 19.0303539,25.8311538 Z M10.1607495,21.3580137 C9.38566952,21.3580137 8.75733102,21.9838619 8.75733102,22.75587 C8.8312631,24.6100984 11.4905165,24.6095952 11.5641679,22.75587 C11.5641679,21.9838619 10.9358294,21.3580137 10.1607495,21.3580137 Z M23.4090195,25.8311538 C22.6339395,25.8311538 22.005601,26.457002 22.005601,27.2290101 C22.0795331,29.0832385 24.7387865,29.0827352 24.8124379,27.2290101 C24.8124379,26.457002 24.1840994,25.8311538 23.4090195,25.8311538 Z M14.5955517,25.8311538 C13.8204718,25.8311538 13.1921333,26.457002 13.1921333,27.2290101 C13.2660654,29.0832385 15.9253187,29.0827352 15.9989701,27.2290101 C15.9989701,26.457002 15.3706316,25.8311538 14.5955517,25.8311538 Z" id="Shape" fill="#2C318C"></path>
                <path d="M1.40341843,14.9837891 C0.783332032,14.9837891 0.280683687,14.4831329 0.280683687,13.8655041 L0.280683687,3.82162722 C0.280683687,1.71438685 2.00183605,0 4.11751741,0 L8.46789,0 L8.46923728,0 C9.32274024,0 10.0817651,0.477284046 10.4497414,1.24593725 C10.8206368,2.02079694 10.7129104,2.9175497 10.1683279,3.58617231 C10.1495221,3.60926489 9.43506985,4.35773306 9.43506985,4.35773306 C9.43506985,4.35773306 10.2140232,5.16133267 10.2359727,5.18856291 C10.7749415,5.85830381 10.8780085,6.75550388 10.5049238,7.530084 C10.1352072,8.29773075 9.37696833,8.77495888 8.52604766,8.77546211 L6.01005523,8.77546211 C5.38996883,8.77546211 4.88732049,8.2748059 4.88732049,7.65717709 C4.88732049,7.03954827 5.38996883,6.53889207 6.01005523,6.53889207 L8.42988543,6.53889207 L7.07171321,5.14187451 C6.65259633,4.71071972 6.64984563,4.02694435 7.06553817,3.59249062 L8.36268976,2.23657004 L4.11746127,2.23657004 C3.24004407,2.23657004 2.52615318,2.94763156 2.52615318,3.82162722 L2.52615318,13.8655041 C2.52615318,14.4831329 2.02350483,14.9837891 1.40341843,14.9837891 Z M20.939003,14.2009896 C21.7140829,14.2009896 22.3424215,13.5751414 22.3424215,12.8031333 C22.3424215,12.0311253 21.7140829,11.4052771 20.939003,11.4052771 C20.1639231,11.4052771 19.5355846,12.0311253 19.5355846,12.8031333 C19.5355846,13.5751414 20.1639231,14.2009896 20.939003,14.2009896 Z" id="Shape" fill="#5DC1B2"></path>
            </g>
        </g>
    </g>
</svg>