<?xml version="1.0" encoding="UTF-8"?>
<svg width="29px" height="29px" viewBox="0 0 29 29" version="1.1" xmlns="http://www.w3.org/2000/svg" xmlns:xlink="http://www.w3.org/1999/xlink">
    <title>008-turkish-cezve copy</title>
    <g id="Anasayfa" stroke="none" stroke-width="1" fill="none" fill-rule="evenodd">
        <g id="IconSet" transform="translate(-703.000000, -772.000000)" fill-rule="nonzero">
            <g id="008-turkish-cezve-copy" transform="translate(703.000000, 772.000000)">
                <path d="M5.94158645,25.5694416 L5.34611903,24.600343 C4.71876362,23.5794297 4.36715214,22.6318878 4.89620031,21.5566897 L8.45398881,14.2738826 C9.04287617,13.077091 8.97415109,11.6613639 8.27210917,10.5272777 C7.80908657,9.77930401 8.34707687,8.81357365 9.22672421,8.81357365 L5.68361431,8.81357365 C4.80391073,8.81357365 4.26597667,9.77930401 4.72899927,10.5272777 C5.43104119,11.66142 5.49982251,13.077091 4.91087891,14.2738826 L1.48666003,21.2328335 C0.957611856,22.3079755 1.01722609,23.5794297 1.64452526,24.600343 L2.23999268,25.5694416 C3.02273877,26.8433659 4.41073801,27.6195766 5.90587415,27.6195766 L9.60746792,27.6195766 C8.11233178,27.6195766 6.72433254,26.8433659 5.94158645,25.5694416 Z" id="Path" fill="#CEE1F2"></path>
                <path d="M11.422665,28.7423231 L5.90587415,28.7423231 C4.03331245,28.7423231 2.2611951,27.7514994 1.28115965,26.1564696 L0.685692231,25.187371 C-0.148119632,23.8303074 -0.22612429,22.1669585 0.477098666,20.7378707 L3.90126131,13.7789198 C4.32232899,12.9232186 4.27401896,11.9282407 3.77207839,11.1174494 C3.3433621,10.4248832 3.32384687,9.55295832 3.72101262,8.841923 C4.11767221,8.13189814 4.86965511,7.6908272 5.68355807,7.6908272 L11.6449248,7.6908272 C12.4588278,7.6908272 13.2108107,8.13189814 13.6074703,8.84197913 C14.0046923,9.55301446 13.9851208,10.4249394 13.5564045,11.1174494 C13.0544639,11.9282968 13.0062102,12.9232186 13.4272778,13.778976 L16.8514967,20.7379268 C17.5546634,22.1670147 17.4766588,23.8303074 16.6428469,25.187371 L16.0473795,26.1564696 C15.067344,27.7514432 13.2952267,28.7423231 11.422665,28.7423231 Z M5.68541398,9.9363201 C5.68552646,9.93654465 5.68569518,9.93682533 5.6858639,9.93704988 C6.59717426,11.409195 6.68485217,13.2154695 5.92049651,14.7688454 L2.49627763,21.7278524 C2.13504914,22.4619602 2.17509191,23.3163702 2.60335829,24.0133712 L3.19882571,24.9824698 C3.77280951,25.9165948 4.81004088,26.4968302 5.90587415,26.4968302 L11.422665,26.4968302 C12.5184983,26.4968302 13.5557859,25.9165948 14.1297134,24.9824698 L14.7251809,24.0133712 C15.1534472,23.3163141 15.19349,22.4619602 14.8322615,21.7278524 L11.4080426,14.7689015 C10.643687,13.2155256 10.7314211,11.4092512 11.6426752,9.93716216 C11.642844,9.93693761 11.6430127,9.93665692 11.6431252,9.9363201 C11.6431252,9.9363201 11.6431252,9.9363201 11.6431252,9.9363201 L5.68541398,9.9363201 Z M12.6572982,22.7917669 C12.6572982,22.1716741 12.1537267,21.6690205 11.5325014,21.6690205 L5.79603775,21.6690205 C5.17481248,21.6690205 4.67124095,22.1716741 4.67124095,22.7917669 C4.67124095,23.4118598 5.17481248,23.9145134 5.79603775,23.9145134 L11.5325014,23.9145134 C12.1537267,23.9145134 12.6572982,23.4118598 12.6572982,22.7917669 Z" id="Shape" fill="#2C318C"></path>
                <path d="M16.1441682,13.753658 C15.8562765,13.753658 15.568441,13.6440218 15.3488244,13.4248056 C14.909535,12.986317 14.909535,12.27545 15.3488244,11.8370176 L26.8779916,0.328866469 C27.317281,-0.109622156 28.0294461,-0.109622156 28.4686792,0.328866469 C28.9079686,0.767355094 28.9079686,1.47822201 28.4686792,1.9166545 L16.9395121,13.4248056 C16.7198955,13.6440218 16.43206,13.753658 16.1441682,13.753658 Z" id="Path" fill="#5DC1B2"></path>
            </g>
        </g>
    </g>
</svg>